{
  "title" : "",
  "description" : "",
  "author" : "",
  "width" : 1920.0,
  "height" : 1080.0,
  "version" : "0.5",
  "editRate" : 30,
  "authoringClientName" :  {
    "name" : "Camtasia Studio",
    "platform" : "Windows",
    "version" : "9.0"
  },
  "sourceBin" : [
    {
      "id" : 1,
      "src" : "C:\\Users\\lenovo\\Documents\\Camtasia Studio\\录制日期 21-03-31.trec",
      "rect" : [0, 0, 1920, 1080],
      "lastMod" : "20210331T073824",
      "sourceTracks" : [
        {
          "range" : [0, 24835],
          "type" : 0,
          "editRate" : 30,
          "trackRect" : [0, 0, 1920, 1080],
          "sampleRate" : 25,
          "bitDepth" : 0,
          "numChannels" : 0,
          "metaData" : "录制日期 21-03-31.trec;"
        },
        {
          "range" : [0, 36494336],
          "type" : 2,
          "editRate" : 44100,
          "trackRect" : [0, 0, 0, 0],
          "sampleRate" : 44100,
          "bitDepth" : 16,
          "numChannels" : 2,
          "metaData" : ""
        }
      ]
    },
    {
      "id" : 2,
      "src" : "C:\\Users\\lenovo\\Documents\\Camtasia Studio\\语音旁白\\旁白 2.m4a",
      "rect" : [0, 0, 0, 0],
      "lastMod" : "20210331T083229",
      "sourceTracks" : [
        {
          "range" : [0, 656666667],
          "type" : 2,
          "editRate" : 10000000,
          "trackRect" : [0, 0, 0, 0],
          "sampleRate" : 44100,
          "bitDepth" : 16,
          "numChannels" : 2,
          "metaData" : ""
        }
      ]
    },
    {
      "id" : 3,
      "src" : "C:\\Users\\lenovo\\Documents\\Camtasia Studio\\语音旁白\\旁白 3.m4a",
      "rect" : [0, 0, 0, 0],
      "lastMod" : "20210331T084234",
      "sourceTracks" : [
        {
          "range" : [0, 768333333],
          "type" : 2,
          "editRate" : 10000000,
          "trackRect" : [0, 0, 0, 0],
          "sampleRate" : 44100,
          "bitDepth" : 16,
          "numChannels" : 2,
          "metaData" : ""
        }
      ]
    },
    {
      "id" : 4,
      "src" : "C:\\Users\\lenovo\\Documents\\Camtasia Studio\\语音旁白\\旁白 4.m4a",
      "rect" : [0, 0, 0, 0],
      "lastMod" : "20210331T084454",
      "sourceTracks" : [
        {
          "range" : [0, 1113000000],
          "type" : 2,
          "editRate" : 10000000,
          "trackRect" : [0, 0, 0, 0],
          "sampleRate" : 44100,
          "bitDepth" : 16,
          "numChannels" : 2,
          "metaData" : ""
        }
      ]
    },
    {
      "id" : 5,
      "src" : "D:\\project\\@github-119\\VIS2021\\cont.png",
      "rect" : [0, 0, 1920, 1080],
      "lastMod" : "20210331T092722",
      "sourceTracks" : [
        {
          "range" : [0, 1],
          "type" : 1,
          "editRate" : 10000000,
          "trackRect" : [0, 0, 1920, 1080],
          "sampleRate" : 0,
          "bitDepth" : 24,
          "numChannels" : 0,
          "metaData" : ""
        }
      ]
    },
    {
      "id" : 6,
      "src" : "C:\\Users\\lenovo\\Documents\\Camtasia Studio\\语音旁白\\旁白 5.m4a",
      "rect" : [0, 0, 0, 0],
      "lastMod" : "20210331T093215",
      "sourceTracks" : [
        {
          "range" : [0, 75666667],
          "type" : 2,
          "editRate" : 10000000,
          "trackRect" : [0, 0, 0, 0],
          "sampleRate" : 44100,
          "bitDepth" : 16,
          "numChannels" : 2,
          "metaData" : ""
        }
      ]
    },
    {
      "id" : 7,
      "src" : "D:\\project\\@github-119\\VIS2021\\title.png",
      "rect" : [0, 0, 1920, 1080],
      "lastMod" : "20210331T093808",
      "sourceTracks" : [
        {
          "range" : [0, 1],
          "type" : 1,
          "editRate" : 10000000,
          "trackRect" : [0, 0, 1920, 1080],
          "sampleRate" : 0,
          "bitDepth" : 24,
          "numChannels" : 0,
          "metaData" : ""
        }
      ]
    },
    {
      "id" : 8,
      "src" : "D:\\project\\@github-119\\VIS2021\\url.png",
      "rect" : [0, 0, 1920, 1080],
      "lastMod" : "20210331T094415",
      "sourceTracks" : [
        {
          "range" : [0, 1],
          "type" : 1,
          "editRate" : 10000000,
          "trackRect" : [0, 0, 1920, 1080],
          "sampleRate" : 0,
          "bitDepth" : 24,
          "numChannels" : 0,
          "metaData" : ""
        }
      ]
    },
    {
      "id" : 9,
      "src" : "D:\\project\\@github-119\\VIS2021\\end.png",
      "rect" : [0, 0, 1920, 1080],
      "lastMod" : "20210331T094503",
      "sourceTracks" : [
        {
          "range" : [0, 1],
          "type" : 1,
          "editRate" : 10000000,
          "trackRect" : [0, 0, 1920, 1080],
          "sampleRate" : 0,
          "bitDepth" : 24,
          "numChannels" : 0,
          "metaData" : ""
        }
      ]
    },
    {
      "id" : 10,
      "src" : "C:\\Users\\lenovo\\Documents\\Camtasia Studio\\语音旁白\\旁白 6.m4a",
      "rect" : [0, 0, 0, 0],
      "lastMod" : "20210331T094858",
      "sourceTracks" : [
        {
          "range" : [0, 40000000],
          "type" : 2,
          "editRate" : 10000000,
          "trackRect" : [0, 0, 0, 0],
          "sampleRate" : 44100,
          "bitDepth" : 16,
          "numChannels" : 2,
          "metaData" : ""
        }
      ]
    },
    {
      "id" : 11,
      "src" : "C:\\Users\\lenovo\\Documents\\Camtasia Studio\\录制日期 21-03-31 2.trec",
      "rect" : [0, 0, 1920, 1080],
      "lastMod" : "20210331T150901",
      "sourceTracks" : [
        {
          "range" : [0, 2656],
          "type" : 0,
          "editRate" : 30,
          "trackRect" : [0, 0, 1920, 1080],
          "sampleRate" : 26,
          "bitDepth" : 0,
          "numChannels" : 0,
          "metaData" : "录制日期 21-03-31 2.trec;"
        },
        {
          "range" : [0, 3904512],
          "type" : 2,
          "editRate" : 44100,
          "trackRect" : [0, 0, 0, 0],
          "sampleRate" : 44100,
          "bitDepth" : 16,
          "numChannels" : 2,
          "metaData" : ""
        }
      ]
    },
    {
      "id" : 12,
      "src" : "C:\\Users\\lenovo\\Documents\\Camtasia Studio\\录制日期 21-03-31 3.trec",
      "rect" : [0, 0, 1920, 1080],
      "lastMod" : "20210331T152606",
      "sourceTracks" : [
        {
          "range" : [0, 878],
          "type" : 0,
          "editRate" : 30,
          "trackRect" : [0, 0, 1920, 1080],
          "sampleRate" : 24,
          "bitDepth" : 0,
          "numChannels" : 0,
          "metaData" : "录制日期 21-03-31 3.trec;"
        },
        {
          "range" : [0, 1280000],
          "type" : 2,
          "editRate" : 44100,
          "trackRect" : [0, 0, 0, 0],
          "sampleRate" : 44100,
          "bitDepth" : 16,
          "numChannels" : 2,
          "metaData" : ""
        }
      ]
    },
    {
      "id" : 13,
      "src" : "D:\\project\\@github-119\\VIS2021\\video\\p1.png",
      "rect" : [0, 0, 1140, 735],
      "lastMod" : "20210331T152836",
      "sourceTracks" : [
        {
          "range" : [0, 1],
          "type" : 1,
          "editRate" : 10000000,
          "trackRect" : [0, 0, 1140, 735],
          "sampleRate" : 0,
          "bitDepth" : 24,
          "numChannels" : 0,
          "metaData" : ""
        }
      ]
    },
    {
      "id" : 14,
      "src" : "D:\\project\\@github-119\\VIS2021\\video\\p2.png",
      "rect" : [0, 0, 772, 596],
      "lastMod" : "20210331T153028",
      "sourceTracks" : [
        {
          "range" : [0, 1],
          "type" : 1,
          "editRate" : 10000000,
          "trackRect" : [0, 0, 772, 596],
          "sampleRate" : 0,
          "bitDepth" : 24,
          "numChannels" : 0,
          "metaData" : ""
        }
      ]
    },
    {
      "id" : 15,
      "src" : "D:\\project\\@github-119\\VIS2021\\video\\旁白_vis2021 1.m4a",
      "rect" : [0, 0, 0, 0],
      "lastMod" : "20210331T160403",
      "sourceTracks" : [
        {
          "range" : [0, 2300000000],
          "type" : 2,
          "editRate" : 10000000,
          "trackRect" : [0, 0, 0, 0],
          "sampleRate" : 44100,
          "bitDepth" : 16,
          "numChannels" : 2,
          "metaData" : ""
        }
      ]
    },
    {
      "id" : 16,
      "src" : "D:\\project\\@github-119\\VIS2021\\video\\旁白_vis2021 2.m4a",
      "rect" : [0, 0, 0, 0],
      "lastMod" : "20210331T160704",
      "sourceTracks" : [
        {
          "range" : [0, 61333333],
          "type" : 2,
          "editRate" : 10000000,
          "trackRect" : [0, 0, 0, 0],
          "sampleRate" : 44100,
          "bitDepth" : 16,
          "numChannels" : 2,
          "metaData" : ""
        }
      ]
    }
  ],
  "timeline" : {
    "id" : 17,
    "sceneTrack" : {
      "scenes" : [
        {
          "duration" : 190.733333333333,
          "title" : "",
          "type" : "",
          "csml" : {
            "tracks" : [
              {
                "trackIndex" : 0,
                "medias" : [
                  {
                    "id" : 18,
                    "_type" : "IMFile",
                    "src" : 7,
                    "trackNumber" : 0,
                    "trimStartSum" : 0,
                    "attributes" : {
                      "ident" : "title"
                    },
                    "effects" : [

                    ],
                    "start" : 0,
                    "duration" : 150,
                    "mediaStart" : 0,
                    "mediaDuration" : 1,
                    "scalar" : 1,
                    "metadata" : {
                      "WinSubProjectDisplayName" : "",
                      "clipSpeedAttribute" : false
                    },
                    "animationTracks" : {

                    }
                  },
                  {
                    "id" : 19,
                    "_type" : "IMFile",
                    "src" : 13,
                    "trackNumber" : 0,
                    "trimStartSum" : 0,
                    "attributes" : {
                      "ident" : "p1"
                    },
                    "parameters" : {
                      "translation0" : {
                        "type" : "double",
                        "defaultValue" : 3.19744231092045e-11,
                        "interp" : "eioe"
                      },
                      "translation1" : {
                        "type" : "double",
                        "defaultValue" : -0.500000000020634,
                        "interp" : "eioe"
                      },
                      "scale0" : {
                        "type" : "double",
                        "defaultValue" : 1.68421052631585,
                        "interp" : "eioe"
                      },
                      "scale1" : {
                        "type" : "double",
                        "defaultValue" : 1.68421052631585,
                        "interp" : "eioe"
                      }
                    },
                    "effects" : [

                    ],
                    "start" : 150,
                    "duration" : 150,
                    "mediaStart" : 0,
                    "mediaDuration" : 1,
                    "scalar" : 1,
                    "metadata" : {
                      "WinSubProjectDisplayName" : "",
                      "clipSpeedAttribute" : false,
                      "default-scale0" : 1.0,
                      "default-scale1" : 1.0,
                      "default-translation0" : 0.0,
                      "default-translation1" : -0.5
                    },
                    "animationTracks" : {

                    }
                  },
                  {
                    "id" : 20,
                    "_type" : "IMFile",
                    "src" : 14,
                    "trackNumber" : 0,
                    "trimStartSum" : 0,
                    "attributes" : {
                      "ident" : "p2"
                    },
                    "parameters" : {
                      "translation0" : {
                        "type" : "double",
                        "defaultValue" : -1.48020262713544e-10,
                        "interp" : "eioe"
                      },
                      "translation1" : {
                        "type" : "double",
                        "defaultValue" : -4.18083345721243e-11,
                        "interp" : "eioe"
                      },
                      "scale0" : {
                        "type" : "double",
                        "defaultValue" : 2.48704663212408,
                        "interp" : "eioe"
                      },
                      "scale1" : {
                        "type" : "double",
                        "defaultValue" : 2.48704663212408,
                        "interp" : "eioe"
                      }
                    },
                    "effects" : [

                    ],
                    "start" : 300,
                    "duration" : 150,
                    "mediaStart" : 0,
                    "mediaDuration" : 1,
                    "scalar" : 1,
                    "metadata" : {
                      "WinSubProjectDisplayName" : "",
                      "clipSpeedAttribute" : false,
                      "default-scale0" : 1.0,
                      "default-scale1" : 1.0,
                      "default-translation0" : 0.0,
                      "default-translation1" : 0.0
                    },
                    "animationTracks" : {

                    }
                  },
                  {
                    "id" : 21,
                    "_type" : "ScreenVMFile",
                    "src" : 12,
                    "trackNumber" : 0,
                    "attributes" : {
                      "ident" : "录制日期 21-03-31 3"
                    },
                    "parameters" : {
                      "cursorScale" : {
                        "type" : "double",
                        "defaultValue" : 1.0,
                        "interp" : "linr"
                      },
                      "cursorOpacity" : {
                        "type" : "double",
                        "defaultValue" : 1.0,
                        "interp" : "linr"
                      }
                    },
                    "effects" : [

                    ],
                    "start" : 450,
                    "duration" : 43,
                    "mediaStart" : 0,
                    "mediaDuration" : 43,
                    "scalar" : 1,
                    "metadata" : {
                      "AutoAppliedSmartFocus" : "False",
                      "WinSubProjectDisplayName" : "",
                      "clipSpeedAttribute" : false
                    },
                    "animationTracks" : {

                    }
                  },
                  {
                    "id" : 22,
                    "_type" : "StitchedMedia",
                    "minMediaStart" : 0,
                    "attributes" : {
                      "ident" : "录制日期 21-03-31 3",
                      "gain" : 1.0,
                      "mixToMono" : false
                    },
                    "parameters" : {
                      "cursorOpacity" : 1.0,
                      "cursorScale" : 1.0
                    },
                    "medias" : [
                        {
                          "id" : 23,
                          "_type" : "ScreenVMFile",
                          "src" : 12,
                          "trackNumber" : 0,
                          "attributes" : {
                            "ident" : "录制日期 21-03-31 3"
                          },
                          "parameters" : {
                            "cursorScale" : {
                              "type" : "double",
                              "defaultValue" : 0.0,
                              "interp" : "linr"
                            },
                            "cursorOpacity" : {
                              "type" : "double",
                              "defaultValue" : 0.0,
                              "interp" : "linr"
                            }
                          },
                          "effects" : [

                          ],
                          "start" : 0,
                          "duration" : 193,
                          "mediaStart" : 0,
                          "mediaDuration" : 193,
                          "scalar" : 1,
                          "metadata" : {
                            "AutoAppliedSmartFocus" : "False",
                            "WinSubProjectDisplayName" : "",
                            "clipSpeedAttribute" : false
                          },
                          "animationTracks" : {

                          }
                        },
                        {
                          "id" : 24,
                          "_type" : "ScreenIMFile",
                          "src" : 12,
                          "trackNumber" : 0,
                          "trimStartSum" : 0,
                          "attributes" : {
                            "ident" : "录制日期 21-03-31 3"
                          },
                          "parameters" : {
                            "cursorOpacity" : {
                              "type" : "double",
                              "defaultValue" : 0.0,
                              "interp" : "linr"
                            },
                            "cursorScale" : {
                              "type" : "double",
                              "defaultValue" : 0.0,
                              "interp" : "linr"
                            }
                          },
                          "effects" : [

                          ],
                          "start" : 193,
                          "duration" : 150,
                          "mediaStart" : 192,
                          "mediaDuration" : 1,
                          "scalar" : 1,
                          "metadata" : {
                            "AutoAppliedSmartFocus" : "False",
                            "WinSubProjectDisplayName" : ""
                          },
                          "animationTracks" : {

                          }
                        },
                        {
                          "id" : 25,
                          "_type" : "ScreenVMFile",
                          "src" : 12,
                          "trackNumber" : 0,
                          "attributes" : {
                            "ident" : "录制日期 21-03-31 3"
                          },
                          "parameters" : {
                            "cursorScale" : {
                              "type" : "double",
                              "defaultValue" : 0.0,
                              "interp" : "linr"
                            },
                            "cursorOpacity" : {
                              "type" : "double",
                              "defaultValue" : 0.0,
                              "interp" : "linr"
                            }
                          },
                          "effects" : [

                          ],
                          "start" : 343,
                          "duration" : 685,
                          "mediaStart" : 193,
                          "mediaDuration" : 685,
                          "scalar" : 1,
                          "metadata" : {
                            "AutoAppliedSmartFocus" : "False",
                            "WinSubProjectDisplayName" : "",
                            "clipSpeedAttribute" : false
                          },
                          "animationTracks" : {

                          }
                        }
                    ],
                    "effects" : [

                    ],
                    "start" : 493,
                    "duration" : 250,
                    "mediaStart" : 100,
                    "mediaDuration" : 250,
                    "scalar" : 1,
                    "metadata" : {
                      "AutoAppliedSmartFocus" : "False",
                      "WinSubProjectDisplayName" : "",
                      "clipSpeedAttribute" : false
                    },
                    "animationTracks" : {

                    }
                  },
                  {
                    "id" : 26,
                    "_type" : "StitchedMedia",
                    "minMediaStart" : 0,
                    "attributes" : {
                      "ident" : "录制日期 21-03-31 3",
                      "gain" : 1.0,
                      "mixToMono" : false
                    },
                    "parameters" : {
                      "cursorOpacity" : 1.0,
                      "cursorScale" : 1.0
                    },
                    "medias" : [
                        {
                          "id" : 27,
                          "_type" : "ScreenVMFile",
                          "src" : 12,
                          "trackNumber" : 0,
                          "attributes" : {
                            "ident" : "录制日期 21-03-31 3"
                          },
                          "parameters" : {
                            "cursorScale" : {
                              "type" : "double",
                              "defaultValue" : 0.0,
                              "interp" : "linr"
                            },
                            "cursorOpacity" : {
                              "type" : "double",
                              "defaultValue" : 0.0,
                              "interp" : "linr"
                            }
                          },
                          "effects" : [

                          ],
                          "start" : 0,
                          "duration" : 235,
                          "mediaStart" : 0,
                          "mediaDuration" : 235,
                          "scalar" : 1,
                          "metadata" : {
                            "AutoAppliedSmartFocus" : "False",
                            "WinSubProjectDisplayName" : "",
                            "clipSpeedAttribute" : false
                          },
                          "animationTracks" : {

                          }
                        },
                        {
                          "id" : 28,
                          "_type" : "ScreenIMFile",
                          "src" : 12,
                          "trackNumber" : 0,
                          "trimStartSum" : 0,
                          "attributes" : {
                            "ident" : "录制日期 21-03-31 3"
                          },
                          "parameters" : {
                            "cursorOpacity" : {
                              "type" : "double",
                              "defaultValue" : 0.0,
                              "interp" : "linr"
                            },
                            "cursorScale" : {
                              "type" : "double",
                              "defaultValue" : 0.0,
                              "interp" : "linr"
                            }
                          },
                          "effects" : [

                          ],
                          "start" : 235,
                          "duration" : 108030,
                          "mediaStart" : 234,
                          "mediaDuration" : 1,
                          "scalar" : 1,
                          "metadata" : {
                            "AutoAppliedSmartFocus" : "False",
                            "WinSubProjectDisplayName" : ""
                          },
                          "animationTracks" : {

                          }
                        }
                    ],
                    "effects" : [

                    ],
                    "start" : 743,
                    "duration" : 220,
                    "mediaStart" : 200,
                    "mediaDuration" : 220,
                    "scalar" : 1,
                    "metadata" : {
                      "AutoAppliedSmartFocus" : "False",
                      "WinSubProjectDisplayName" : "",
                      "clipSpeedAttribute" : false
                    },
                    "animationTracks" : {

                    }
                  },
                  {
                    "id" : 29,
                    "_type" : "StitchedMedia",
                    "minMediaStart" : 0,
                    "attributes" : {
                      "ident" : "录制日期 21-03-31 3",
                      "gain" : 1.0,
                      "mixToMono" : false
                    },
                    "parameters" : {
                      "cursorOpacity" : 1.0,
                      "cursorScale" : 1.0
                    },
                    "medias" : [
                        {
                          "id" : 30,
                          "_type" : "ScreenVMFile",
                          "src" : 12,
                          "trackNumber" : 0,
                          "attributes" : {
                            "ident" : "录制日期 21-03-31 3"
                          },
                          "parameters" : {
                            "cursorScale" : {
                              "type" : "double",
                              "defaultValue" : 0.0,
                              "interp" : "linr"
                            },
                            "cursorOpacity" : {
                              "type" : "double",
                              "defaultValue" : 0.0,
                              "interp" : "linr"
                            }
                          },
                          "effects" : [

                          ],
                          "start" : 0,
                          "duration" : 287,
                          "mediaStart" : 0,
                          "mediaDuration" : 287,
                          "scalar" : 1,
                          "metadata" : {
                            "AutoAppliedSmartFocus" : "False",
                            "WinSubProjectDisplayName" : "",
                            "clipSpeedAttribute" : false
                          },
                          "animationTracks" : {

                          }
                        },
                        {
                          "id" : 31,
                          "_type" : "ScreenIMFile",
                          "src" : 12,
                          "trackNumber" : 0,
                          "trimStartSum" : 0,
                          "attributes" : {
                            "ident" : "录制日期 21-03-31 3"
                          },
                          "parameters" : {
                            "cursorOpacity" : {
                              "type" : "double",
                              "defaultValue" : 0.0,
                              "interp" : "linr"
                            },
                            "cursorScale" : {
                              "type" : "double",
                              "defaultValue" : 0.0,
                              "interp" : "linr"
                            }
                          },
                          "effects" : [

                          ],
                          "start" : 287,
                          "duration" : 240,
                          "mediaStart" : 286,
                          "mediaDuration" : 1,
                          "scalar" : 1,
                          "metadata" : {
                            "AutoAppliedSmartFocus" : "False",
                            "WinSubProjectDisplayName" : ""
                          },
                          "animationTracks" : {

                          }
                        },
                        {
                          "id" : 32,
                          "_type" : "ScreenVMFile",
                          "src" : 12,
                          "trackNumber" : 0,
                          "attributes" : {
                            "ident" : "录制日期 21-03-31 3"
                          },
                          "parameters" : {
                            "cursorScale" : {
                              "type" : "double",
                              "defaultValue" : 0.0,
                              "interp" : "linr"
                            },
                            "cursorOpacity" : {
                              "type" : "double",
                              "defaultValue" : 0.0,
                              "interp" : "linr"
                            }
                          },
                          "effects" : [

                          ],
                          "start" : 527,
                          "duration" : 591,
                          "mediaStart" : 287,
                          "mediaDuration" : 591,
                          "scalar" : 1,
                          "metadata" : {
                            "AutoAppliedSmartFocus" : "False",
                            "WinSubProjectDisplayName" : "",
                            "clipSpeedAttribute" : false
                          },
                          "animationTracks" : {

                          }
                        }
                    ],
                    "effects" : [

                    ],
                    "start" : 963,
                    "duration" : 145,
                    "mediaStart" : 235,
                    "mediaDuration" : 145,
                    "scalar" : 1,
                    "metadata" : {
                      "AutoAppliedSmartFocus" : "False",
                      "WinSubProjectDisplayName" : "",
                      "clipSpeedAttribute" : false
                    },
                    "animationTracks" : {

                    }
                  },
                  {
                    "id" : 33,
                    "_type" : "StitchedMedia",
                    "minMediaStart" : 0,
                    "attributes" : {
                      "ident" : "录制日期 21-03-31 3",
                      "gain" : 1.0,
                      "mixToMono" : false
                    },
                    "parameters" : {
                      "cursorOpacity" : 1.0,
                      "cursorScale" : 1.0
                    },
                    "medias" : [
                        {
                          "id" : 34,
                          "_type" : "ScreenVMFile",
                          "src" : 12,
                          "trackNumber" : 0,
                          "attributes" : {
                            "ident" : "录制日期 21-03-31 3"
                          },
                          "parameters" : {
                            "cursorScale" : {
                              "type" : "double",
                              "defaultValue" : 0.0,
                              "interp" : "linr"
                            },
                            "cursorOpacity" : {
                              "type" : "double",
                              "defaultValue" : 0.0,
                              "interp" : "linr"
                            }
                          },
                          "effects" : [

                          ],
                          "start" : 0,
                          "duration" : 359,
                          "mediaStart" : 0,
                          "mediaDuration" : 359,
                          "scalar" : 1,
                          "metadata" : {
                            "AutoAppliedSmartFocus" : "False",
                            "WinSubProjectDisplayName" : "",
                            "clipSpeedAttribute" : false
                          },
                          "animationTracks" : {

                          }
                        },
                        {
                          "id" : 35,
                          "_type" : "ScreenIMFile",
                          "src" : 12,
                          "trackNumber" : 0,
                          "trimStartSum" : 0,
                          "attributes" : {
                            "ident" : "录制日期 21-03-31 3"
                          },
                          "parameters" : {
                            "cursorOpacity" : {
                              "type" : "double",
                              "defaultValue" : 0.0,
                              "interp" : "linr"
                            },
                            "cursorScale" : {
                              "type" : "double",
                              "defaultValue" : 0.0,
                              "interp" : "linr"
                            }
                          },
                          "effects" : [

                          ],
                          "start" : 359,
                          "duration" : 108030,
                          "mediaStart" : 358,
                          "mediaDuration" : 1,
                          "scalar" : 1,
                          "metadata" : {
                            "AutoAppliedSmartFocus" : "False",
                            "WinSubProjectDisplayName" : ""
                          },
                          "animationTracks" : {

                          }
                        }
                    ],
                    "effects" : [

                    ],
                    "start" : 1108,
                    "duration" : 288,
                    "mediaStart" : 292,
                    "mediaDuration" : 288,
                    "scalar" : 1,
                    "metadata" : {
                      "AutoAppliedSmartFocus" : "False",
                      "WinSubProjectDisplayName" : "",
                      "clipSpeedAttribute" : false
                    },
                    "animationTracks" : {

                    }
                  },
                  {
                    "id" : 36,
                    "_type" : "StitchedMedia",
                    "minMediaStart" : 0,
                    "attributes" : {
                      "ident" : "录制日期 21-03-31 3",
                      "gain" : 1.0,
                      "mixToMono" : false
                    },
                    "parameters" : {
                      "cursorOpacity" : 1.0,
                      "cursorScale" : 1.0
                    },
                    "medias" : [
                        {
                          "id" : 37,
                          "_type" : "ScreenVMFile",
                          "src" : 12,
                          "trackNumber" : 0,
                          "attributes" : {
                            "ident" : "录制日期 21-03-31 3"
                          },
                          "parameters" : {
                            "cursorScale" : {
                              "type" : "double",
                              "defaultValue" : 0.0,
                              "interp" : "linr"
                            },
                            "cursorOpacity" : {
                              "type" : "double",
                              "defaultValue" : 0.0,
                              "interp" : "linr"
                            }
                          },
                          "effects" : [

                          ],
                          "start" : 0,
                          "duration" : 406,
                          "mediaStart" : 0,
                          "mediaDuration" : 406,
                          "scalar" : 1,
                          "metadata" : {
                            "AutoAppliedSmartFocus" : "False",
                            "WinSubProjectDisplayName" : "",
                            "clipSpeedAttribute" : false
                          },
                          "animationTracks" : {

                          }
                        },
                        {
                          "id" : 38,
                          "_type" : "ScreenIMFile",
                          "src" : 12,
                          "trackNumber" : 0,
                          "trimStartSum" : 0,
                          "attributes" : {
                            "ident" : "录制日期 21-03-31 3"
                          },
                          "parameters" : {
                            "cursorOpacity" : {
                              "type" : "double",
                              "defaultValue" : 0.0,
                              "interp" : "linr"
                            },
                            "cursorScale" : {
                              "type" : "double",
                              "defaultValue" : 0.0,
                              "interp" : "linr"
                            }
                          },
                          "effects" : [

                          ],
                          "start" : 406,
                          "duration" : 240,
                          "mediaStart" : 405,
                          "mediaDuration" : 1,
                          "scalar" : 1,
                          "metadata" : {
                            "AutoAppliedSmartFocus" : "False",
                            "WinSubProjectDisplayName" : ""
                          },
                          "animationTracks" : {

                          }
                        },
                        {
                          "id" : 39,
                          "_type" : "ScreenVMFile",
                          "src" : 12,
                          "trackNumber" : 0,
                          "attributes" : {
                            "ident" : "录制日期 21-03-31 3"
                          },
                          "parameters" : {
                            "cursorScale" : {
                              "type" : "double",
                              "defaultValue" : 0.0,
                              "interp" : "linr"
                            },
                            "cursorOpacity" : {
                              "type" : "double",
                              "defaultValue" : 0.0,
                              "interp" : "linr"
                            }
                          },
                          "effects" : [

                          ],
                          "start" : 646,
                          "duration" : 472,
                          "mediaStart" : 406,
                          "mediaDuration" : 472,
                          "scalar" : 1,
                          "metadata" : {
                            "AutoAppliedSmartFocus" : "False",
                            "WinSubProjectDisplayName" : "",
                            "clipSpeedAttribute" : false
                          },
                          "animationTracks" : {

                          }
                        }
                    ],
                    "effects" : [

                    ],
                    "start" : 1396,
                    "duration" : 232,
                    "mediaStart" : 359,
                    "mediaDuration" : 232,
                    "scalar" : 1,
                    "metadata" : {
                      "AutoAppliedSmartFocus" : "False",
                      "WinSubProjectDisplayName" : "",
                      "clipSpeedAttribute" : false
                    },
                    "animationTracks" : {

                    }
                  },
                  {
                    "id" : 40,
                    "_type" : "StitchedMedia",
                    "minMediaStart" : 0,
                    "attributes" : {
                      "ident" : "录制日期 21-03-31 3",
                      "gain" : 1.0,
                      "mixToMono" : false
                    },
                    "parameters" : {
                      "cursorOpacity" : 1.0,
                      "cursorScale" : 1.0
                    },
                    "medias" : [
                        {
                          "id" : 41,
                          "_type" : "ScreenVMFile",
                          "src" : 12,
                          "trackNumber" : 0,
                          "attributes" : {
                            "ident" : "录制日期 21-03-31 3"
                          },
                          "parameters" : {
                            "cursorScale" : {
                              "type" : "double",
                              "defaultValue" : 0.0,
                              "interp" : "linr"
                            },
                            "cursorOpacity" : {
                              "type" : "double",
                              "defaultValue" : 0.0,
                              "interp" : "linr"
                            }
                          },
                          "effects" : [

                          ],
                          "start" : 0,
                          "duration" : 491,
                          "mediaStart" : 0,
                          "mediaDuration" : 491,
                          "scalar" : 1,
                          "metadata" : {
                            "AutoAppliedSmartFocus" : "False",
                            "WinSubProjectDisplayName" : "",
                            "clipSpeedAttribute" : false
                          },
                          "animationTracks" : {

                          }
                        },
                        {
                          "id" : 42,
                          "_type" : "ScreenIMFile",
                          "src" : 12,
                          "trackNumber" : 0,
                          "trimStartSum" : 0,
                          "attributes" : {
                            "ident" : "录制日期 21-03-31 3"
                          },
                          "parameters" : {
                            "cursorOpacity" : {
                              "type" : "double",
                              "defaultValue" : 0.0,
                              "interp" : "linr"
                            },
                            "cursorScale" : {
                              "type" : "double",
                              "defaultValue" : 0.0,
                              "interp" : "linr"
                            }
                          },
                          "effects" : [

                          ],
                          "start" : 491,
                          "duration" : 108030,
                          "mediaStart" : 490,
                          "mediaDuration" : 1,
                          "scalar" : 1,
                          "metadata" : {
                            "AutoAppliedSmartFocus" : "False",
                            "WinSubProjectDisplayName" : ""
                          },
                          "animationTracks" : {

                          }
                        }
                    ],
                    "effects" : [

                    ],
                    "start" : 1628,
                    "duration" : 125,
                    "mediaStart" : 408,
                    "mediaDuration" : 125,
                    "scalar" : 1,
                    "metadata" : {
                      "AutoAppliedSmartFocus" : "False",
                      "WinSubProjectDisplayName" : "",
                      "clipSpeedAttribute" : false
                    },
                    "animationTracks" : {

                    }
                  },
                  {
                    "id" : 43,
                    "_type" : "StitchedMedia",
                    "minMediaStart" : 0,
                    "attributes" : {
                      "ident" : "录制日期 21-03-31 3",
                      "gain" : 1.0,
                      "mixToMono" : false
                    },
                    "parameters" : {
                      "cursorOpacity" : 1.0,
                      "cursorScale" : 1.0
                    },
                    "medias" : [
                        {
                          "id" : 44,
                          "_type" : "ScreenVMFile",
                          "src" : 12,
                          "trackNumber" : 0,
                          "attributes" : {
                            "ident" : "录制日期 21-03-31 3"
                          },
                          "parameters" : {
                            "cursorScale" : {
                              "type" : "double",
                              "defaultValue" : 0.0,
                              "interp" : "linr"
                            },
                            "cursorOpacity" : {
                              "type" : "double",
                              "defaultValue" : 0.0,
                              "interp" : "linr"
                            }
                          },
                          "effects" : [

                          ],
                          "start" : 0,
                          "duration" : 512,
                          "mediaStart" : 0,
                          "mediaDuration" : 512,
                          "scalar" : 1,
                          "metadata" : {
                            "AutoAppliedSmartFocus" : "False",
                            "WinSubProjectDisplayName" : "",
                            "clipSpeedAttribute" : false
                          },
                          "animationTracks" : {

                          }
                        },
                        {
                          "id" : 45,
                          "_type" : "ScreenIMFile",
                          "src" : 12,
                          "trackNumber" : 0,
                          "trimStartSum" : 0,
                          "attributes" : {
                            "ident" : "录制日期 21-03-31 3"
                          },
                          "parameters" : {
                            "cursorOpacity" : {
                              "type" : "double",
                              "defaultValue" : 0.0,
                              "interp" : "linr"
                            },
                            "cursorScale" : {
                              "type" : "double",
                              "defaultValue" : 0.0,
                              "interp" : "linr"
                            }
                          },
                          "effects" : [

                          ],
                          "start" : 512,
                          "duration" : 108030,
                          "mediaStart" : 511,
                          "mediaDuration" : 1,
                          "scalar" : 1,
                          "metadata" : {
                            "AutoAppliedSmartFocus" : "False",
                            "WinSubProjectDisplayName" : ""
                          },
                          "animationTracks" : {

                          }
                        }
                    ],
                    "effects" : [

                    ],
                    "start" : 1753,
                    "duration" : 94,
                    "mediaStart" : 491,
                    "mediaDuration" : 94,
                    "scalar" : 1,
                    "metadata" : {
                      "AutoAppliedSmartFocus" : "False",
                      "WinSubProjectDisplayName" : "",
                      "clipSpeedAttribute" : false
                    },
                    "animationTracks" : {

                    }
                  },
                  {
                    "id" : 46,
                    "_type" : "StitchedMedia",
                    "minMediaStart" : 0,
                    "attributes" : {
                      "ident" : "录制日期 21-03-31 3",
                      "gain" : 1.0,
                      "mixToMono" : false
                    },
                    "parameters" : {
                      "cursorOpacity" : {
                        "type" : "double",
                        "defaultValue" : 1.0,
                        "interp" : "linr"
                      },
                      "cursorScale" : {
                        "type" : "double",
                        "defaultValue" : 1.0,
                        "interp" : "linr"
                      }
                    },
                    "medias" : [
                        {
                          "id" : 47,
                          "_type" : "ScreenVMFile",
                          "src" : 12,
                          "trackNumber" : 0,
                          "attributes" : {
                            "ident" : "录制日期 21-03-31 3"
                          },
                          "parameters" : {
                            "cursorScale" : {
                              "type" : "double",
                              "defaultValue" : 0.0,
                              "interp" : "linr"
                            },
                            "cursorOpacity" : {
                              "type" : "double",
                              "defaultValue" : 0.0,
                              "interp" : "linr"
                            }
                          },
                          "effects" : [

                          ],
                          "start" : 0,
                          "duration" : 512,
                          "mediaStart" : 0,
                          "mediaDuration" : 512,
                          "scalar" : 1,
                          "metadata" : {
                            "AutoAppliedSmartFocus" : "False",
                            "WinSubProjectDisplayName" : "",
                            "clipSpeedAttribute" : false
                          },
                          "animationTracks" : {

                          }
                        },
                        {
                          "id" : 48,
                          "_type" : "ScreenIMFile",
                          "src" : 12,
                          "trackNumber" : 0,
                          "trimStartSum" : 0,
                          "attributes" : {
                            "ident" : "录制日期 21-03-31 3"
                          },
                          "parameters" : {
                            "cursorOpacity" : {
                              "type" : "double",
                              "defaultValue" : 0.0,
                              "interp" : "linr"
                            },
                            "cursorScale" : {
                              "type" : "double",
                              "defaultValue" : 0.0,
                              "interp" : "linr"
                            }
                          },
                          "effects" : [

                          ],
                          "start" : 512,
                          "duration" : 108030,
                          "mediaStart" : 511,
                          "mediaDuration" : 1,
                          "scalar" : 1,
                          "metadata" : {
                            "AutoAppliedSmartFocus" : "False",
                            "WinSubProjectDisplayName" : ""
                          },
                          "animationTracks" : {

                          }
                        }
                    ],
                    "effects" : [

                    ],
                    "start" : 1847,
                    "duration" : 39,
                    "mediaStart" : 585,
                    "mediaDuration" : 39,
                    "scalar" : 1,
                    "metadata" : {
                      "AutoAppliedSmartFocus" : "False",
                      "WinSubProjectDisplayName" : "",
                      "clipSpeedAttribute" : false
                    },
                    "animationTracks" : {

                    }
                  },
                  {
                    "id" : 49,
                    "_type" : "StitchedMedia",
                    "minMediaStart" : 0,
                    "attributes" : {
                      "ident" : "录制日期 21-03-31 3",
                      "gain" : 1.0,
                      "mixToMono" : false
                    },
                    "parameters" : {
                      "cursorOpacity" : {
                        "type" : "double",
                        "defaultValue" : 1.0,
                        "interp" : "linr"
                      },
                      "cursorScale" : {
                        "type" : "double",
                        "defaultValue" : 1.0,
                        "interp" : "linr"
                      }
                    },
                    "medias" : [
                        {
                          "id" : 50,
                          "_type" : "ScreenVMFile",
                          "src" : 12,
                          "trackNumber" : 0,
                          "attributes" : {
                            "ident" : "录制日期 21-03-31 3"
                          },
                          "parameters" : {
                            "cursorScale" : {
                              "type" : "double",
                              "defaultValue" : 0.0,
                              "interp" : "linr"
                            },
                            "cursorOpacity" : {
                              "type" : "double",
                              "defaultValue" : 0.0,
                              "interp" : "linr"
                            }
                          },
                          "effects" : [

                          ],
                          "start" : 0,
                          "duration" : 512,
                          "mediaStart" : 0,
                          "mediaDuration" : 512,
                          "scalar" : 1,
                          "metadata" : {
                            "AutoAppliedSmartFocus" : "False",
                            "WinSubProjectDisplayName" : "",
                            "clipSpeedAttribute" : false
                          },
                          "animationTracks" : {

                          }
                        },
                        {
                          "id" : 51,
                          "_type" : "ScreenIMFile",
                          "src" : 12,
                          "trackNumber" : 0,
                          "trimStartSum" : 0,
                          "attributes" : {
                            "ident" : "录制日期 21-03-31 3"
                          },
                          "parameters" : {
                            "cursorOpacity" : {
                              "type" : "double",
                              "defaultValue" : 0.0,
                              "interp" : "linr"
                            },
                            "cursorScale" : {
                              "type" : "double",
                              "defaultValue" : 0.0,
                              "interp" : "linr"
                            }
                          },
                          "effects" : [

                          ],
                          "start" : 512,
                          "duration" : 108030,
                          "mediaStart" : 511,
                          "mediaDuration" : 1,
                          "scalar" : 1,
                          "metadata" : {
                            "AutoAppliedSmartFocus" : "False",
                            "WinSubProjectDisplayName" : ""
                          },
                          "animationTracks" : {

                          }
                        }
                    ],
                    "effects" : [

                    ],
                    "start" : 1886,
                    "duration" : 39,
                    "mediaStart" : 585,
                    "mediaDuration" : 39,
                    "scalar" : 1,
                    "metadata" : {
                      "AutoAppliedSmartFocus" : "False",
                      "WinSubProjectDisplayName" : "",
                      "clipSpeedAttribute" : false
                    },
                    "animationTracks" : {

                    }
                  },
                  {
                    "id" : 52,
                    "_type" : "StitchedMedia",
                    "minMediaStart" : 0,
                    "attributes" : {
                      "ident" : "录制日期 21-03-31 3",
                      "gain" : 1.0,
                      "mixToMono" : false
                    },
                    "parameters" : {
                      "cursorOpacity" : 1.0,
                      "cursorScale" : 1.0
                    },
                    "medias" : [
                        {
                          "id" : 53,
                          "_type" : "ScreenVMFile",
                          "src" : 12,
                          "trackNumber" : 0,
                          "attributes" : {
                            "ident" : "录制日期 21-03-31 3"
                          },
                          "parameters" : {
                            "cursorScale" : {
                              "type" : "double",
                              "defaultValue" : 0.0,
                              "interp" : "linr"
                            },
                            "cursorOpacity" : {
                              "type" : "double",
                              "defaultValue" : 0.0,
                              "interp" : "linr"
                            }
                          },
                          "effects" : [

                          ],
                          "start" : 0,
                          "duration" : 572,
                          "mediaStart" : 0,
                          "mediaDuration" : 572,
                          "scalar" : 1,
                          "metadata" : {
                            "AutoAppliedSmartFocus" : "False",
                            "WinSubProjectDisplayName" : "",
                            "clipSpeedAttribute" : false
                          },
                          "animationTracks" : {

                          }
                        },
                        {
                          "id" : 54,
                          "_type" : "ScreenIMFile",
                          "src" : 12,
                          "trackNumber" : 0,
                          "trimStartSum" : 0,
                          "attributes" : {
                            "ident" : "录制日期 21-03-31 3"
                          },
                          "parameters" : {
                            "cursorOpacity" : {
                              "type" : "double",
                              "defaultValue" : 0.0,
                              "interp" : "linr"
                            },
                            "cursorScale" : {
                              "type" : "double",
                              "defaultValue" : 0.0,
                              "interp" : "linr"
                            }
                          },
                          "effects" : [

                          ],
                          "start" : 572,
                          "duration" : 108030,
                          "mediaStart" : 571,
                          "mediaDuration" : 1,
                          "scalar" : 1,
                          "metadata" : {
                            "AutoAppliedSmartFocus" : "False",
                            "WinSubProjectDisplayName" : ""
                          },
                          "animationTracks" : {

                          }
                        }
                    ],
                    "effects" : [

                    ],
                    "start" : 1925,
                    "duration" : 178,
                    "mediaStart" : 512,
                    "mediaDuration" : 178,
                    "scalar" : 1,
                    "metadata" : {
                      "AutoAppliedSmartFocus" : "False",
                      "WinSubProjectDisplayName" : "",
                      "clipSpeedAttribute" : false
                    },
                    "animationTracks" : {

                    }
                  },
                  {
                    "id" : 55,
                    "_type" : "StitchedMedia",
                    "minMediaStart" : 0,
                    "attributes" : {
                      "ident" : "录制日期 21-03-31 3",
                      "gain" : 1.0,
                      "mixToMono" : false
                    },
                    "parameters" : {
                      "cursorOpacity" : 1.0,
                      "cursorScale" : 1.0
                    },
                    "medias" : [
                        {
                          "id" : 56,
                          "_type" : "ScreenVMFile",
                          "src" : 12,
                          "trackNumber" : 0,
                          "attributes" : {
                            "ident" : "录制日期 21-03-31 3"
                          },
                          "parameters" : {
                            "cursorScale" : {
                              "type" : "double",
                              "defaultValue" : 0.0,
                              "interp" : "linr"
                            },
                            "cursorOpacity" : {
                              "type" : "double",
                              "defaultValue" : 0.0,
                              "interp" : "linr"
                            }
                          },
                          "effects" : [

                          ],
                          "start" : 0,
                          "duration" : 622,
                          "mediaStart" : 0,
                          "mediaDuration" : 622,
                          "scalar" : 1,
                          "metadata" : {
                            "AutoAppliedSmartFocus" : "False",
                            "WinSubProjectDisplayName" : "",
                            "clipSpeedAttribute" : false
                          },
                          "animationTracks" : {

                          }
                        },
                        {
                          "id" : 57,
                          "_type" : "ScreenIMFile",
                          "src" : 12,
                          "trackNumber" : 0,
                          "trimStartSum" : 0,
                          "attributes" : {
                            "ident" : "录制日期 21-03-31 3"
                          },
                          "parameters" : {
                            "cursorOpacity" : {
                              "type" : "double",
                              "defaultValue" : 0.0,
                              "interp" : "linr"
                            },
                            "cursorScale" : {
                              "type" : "double",
                              "defaultValue" : 0.0,
                              "interp" : "linr"
                            }
                          },
                          "effects" : [

                          ],
                          "start" : 622,
                          "duration" : 300,
                          "mediaStart" : 621,
                          "mediaDuration" : 1,
                          "scalar" : 1,
                          "metadata" : {
                            "AutoAppliedSmartFocus" : "False",
                            "WinSubProjectDisplayName" : ""
                          },
                          "animationTracks" : {

                          }
                        },
                        {
                          "id" : 58,
                          "_type" : "ScreenVMFile",
                          "src" : 12,
                          "trackNumber" : 0,
                          "attributes" : {
                            "ident" : "录制日期 21-03-31 3"
                          },
                          "parameters" : {
                            "cursorScale" : {
                              "type" : "double",
                              "defaultValue" : 0.0,
                              "interp" : "linr"
                            },
                            "cursorOpacity" : {
                              "type" : "double",
                              "defaultValue" : 0.0,
                              "interp" : "linr"
                            }
                          },
                          "effects" : [

                          ],
                          "start" : 922,
                          "duration" : 256,
                          "mediaStart" : 622,
                          "mediaDuration" : 256,
                          "scalar" : 1,
                          "metadata" : {
                            "AutoAppliedSmartFocus" : "False",
                            "WinSubProjectDisplayName" : "",
                            "clipSpeedAttribute" : false
                          },
                          "animationTracks" : {

                          }
                        }
                    ],
                    "effects" : [

                    ],
                    "start" : 2103,
                    "duration" : 118,
                    "mediaStart" : 572,
                    "mediaDuration" : 118,
                    "scalar" : 1,
                    "metadata" : {
                      "AutoAppliedSmartFocus" : "False",
                      "WinSubProjectDisplayName" : "",
                      "clipSpeedAttribute" : false
                    },
                    "animationTracks" : {

                    }
                  },
                  {
                    "id" : 59,
                    "_type" : "StitchedMedia",
                    "minMediaStart" : 0,
                    "attributes" : {
                      "ident" : "录制日期 21-03-31 3",
                      "gain" : 1.0,
                      "mixToMono" : false
                    },
                    "parameters" : {
                      "cursorOpacity" : 1.0,
                      "cursorScale" : 1.0
                    },
                    "medias" : [
                        {
                          "id" : 60,
                          "_type" : "ScreenVMFile",
                          "src" : 12,
                          "trackNumber" : 0,
                          "attributes" : {
                            "ident" : "录制日期 21-03-31 3"
                          },
                          "parameters" : {
                            "cursorScale" : {
                              "type" : "double",
                              "defaultValue" : 0.0,
                              "interp" : "linr"
                            },
                            "cursorOpacity" : {
                              "type" : "double",
                              "defaultValue" : 0.0,
                              "interp" : "linr"
                            }
                          },
                          "effects" : [

                          ],
                          "start" : 0,
                          "duration" : 622,
                          "mediaStart" : 0,
                          "mediaDuration" : 622,
                          "scalar" : 1,
                          "metadata" : {
                            "AutoAppliedSmartFocus" : "False",
                            "WinSubProjectDisplayName" : "",
                            "clipSpeedAttribute" : false
                          },
                          "animationTracks" : {

                          }
                        },
                        {
                          "id" : 61,
                          "_type" : "ScreenIMFile",
                          "src" : 12,
                          "trackNumber" : 0,
                          "trimStartSum" : 0,
                          "attributes" : {
                            "ident" : "录制日期 21-03-31 3"
                          },
                          "parameters" : {
                            "cursorOpacity" : {
                              "type" : "double",
                              "defaultValue" : 0.0,
                              "interp" : "linr"
                            },
                            "cursorScale" : {
                              "type" : "double",
                              "defaultValue" : 0.0,
                              "interp" : "linr"
                            }
                          },
                          "effects" : [

                          ],
                          "start" : 622,
                          "duration" : 300,
                          "mediaStart" : 621,
                          "mediaDuration" : 1,
                          "scalar" : 1,
                          "metadata" : {
                            "AutoAppliedSmartFocus" : "False",
                            "WinSubProjectDisplayName" : ""
                          },
                          "animationTracks" : {

                          }
                        },
                        {
                          "id" : 62,
                          "_type" : "ScreenVMFile",
                          "src" : 12,
                          "trackNumber" : 0,
                          "attributes" : {
                            "ident" : "录制日期 21-03-31 3"
                          },
                          "parameters" : {
                            "cursorScale" : {
                              "type" : "double",
                              "defaultValue" : 0.0,
                              "interp" : "linr"
                            },
                            "cursorOpacity" : {
                              "type" : "double",
                              "defaultValue" : 0.0,
                              "interp" : "linr"
                            }
                          },
                          "effects" : [

                          ],
                          "start" : 922,
                          "duration" : 50,
                          "mediaStart" : 622,
                          "mediaDuration" : 50,
                          "scalar" : 1,
                          "metadata" : {
                            "AutoAppliedSmartFocus" : "False",
                            "WinSubProjectDisplayName" : "",
                            "clipSpeedAttribute" : false
                          },
                          "animationTracks" : {

                          }
                        },
                        {
                          "id" : 63,
                          "_type" : "ScreenIMFile",
                          "src" : 12,
                          "trackNumber" : 0,
                          "trimStartSum" : 0,
                          "attributes" : {
                            "ident" : "录制日期 21-03-31 3"
                          },
                          "parameters" : {
                            "cursorOpacity" : {
                              "type" : "double",
                              "defaultValue" : 0.0,
                              "interp" : "linr"
                            },
                            "cursorScale" : {
                              "type" : "double",
                              "defaultValue" : 0.0,
                              "interp" : "linr"
                            }
                          },
                          "effects" : [

                          ],
                          "start" : 972,
                          "duration" : 240,
                          "mediaStart" : 672,
                          "mediaDuration" : 1,
                          "scalar" : 1,
                          "metadata" : {
                            "AutoAppliedSmartFocus" : "False",
                            "WinSubProjectDisplayName" : ""
                          },
                          "animationTracks" : {

                          }
                        },
                        {
                          "id" : 64,
                          "_type" : "ScreenVMFile",
                          "src" : 12,
                          "trackNumber" : 0,
                          "attributes" : {
                            "ident" : "录制日期 21-03-31 3"
                          },
                          "parameters" : {
                            "cursorScale" : {
                              "type" : "double",
                              "defaultValue" : 0.0,
                              "interp" : "linr"
                            },
                            "cursorOpacity" : {
                              "type" : "double",
                              "defaultValue" : 0.0,
                              "interp" : "linr"
                            }
                          },
                          "effects" : [

                          ],
                          "start" : 1212,
                          "duration" : 206,
                          "mediaStart" : 672,
                          "mediaDuration" : 206,
                          "scalar" : 1,
                          "metadata" : {
                            "AutoAppliedSmartFocus" : "False",
                            "WinSubProjectDisplayName" : "",
                            "clipSpeedAttribute" : false
                          },
                          "animationTracks" : {

                          }
                        }
                    ],
                    "effects" : [

                    ],
                    "start" : 2221,
                    "duration" : 190,
                    "mediaStart" : 926,
                    "mediaDuration" : 190,
                    "scalar" : 1,
                    "metadata" : {
                      "AutoAppliedSmartFocus" : "False",
                      "WinSubProjectDisplayName" : "",
                      "clipSpeedAttribute" : false
                    },
                    "animationTracks" : {

                    }
                  },
                  {
                    "id" : 65,
                    "_type" : "StitchedMedia",
                    "minMediaStart" : -108000,
                    "attributes" : {
                      "ident" : "录制日期 21-03-31",
                      "gain" : 1.0,
                      "mixToMono" : false
                    },
                    "parameters" : {
                      "cursorOpacity" : 1.0,
                      "cursorScale" : 1.0
                    },
                    "medias" : [
                        {
                          "id" : 66,
                          "_type" : "ScreenIMFile",
                          "src" : 1,
                          "trackNumber" : 0,
                          "trimStartSum" : -108000,
                          "attributes" : {
                            "ident" : "录制日期 21-03-31"
                          },
                          "parameters" : {
                            "cursorOpacity" : 0.0,
                            "cursorScale" : 0.0
                          },
                          "effects" : [

                          ],
                          "start" : -108000,
                          "duration" : 108090,
                          "mediaStart" : 44,
                          "mediaDuration" : 1,
                          "scalar" : 1,
                          "metadata" : {
                            "AutoAppliedSmartFocus" : "False",
                            "WinSubProjectDisplayName" : "",
                            "clipSpeedAttribute" : false
                          },
                          "animationTracks" : {

                          }
                        },
                        {
                          "id" : 67,
                          "_type" : "ScreenVMFile",
                          "src" : 1,
                          "trackNumber" : 0,
                          "attributes" : {
                            "ident" : "录制日期 21-03-31"
                          },
                          "parameters" : {
                            "cursorScale" : {
                              "type" : "double",
                              "defaultValue" : 0.0,
                              "interp" : "linr"
                            },
                            "cursorOpacity" : {
                              "type" : "double",
                              "defaultValue" : 0.0,
                              "interp" : "linr"
                            }
                          },
                          "effects" : [

                          ],
                          "start" : 90,
                          "duration" : 24791,
                          "mediaStart" : 44,
                          "mediaDuration" : 24791,
                          "scalar" : 1,
                          "metadata" : {
                            "AutoAppliedSmartFocus" : "False",
                            "WinSubProjectDisplayName" : "",
                            "clipSpeedAttribute" : false
                          },
                          "animationTracks" : {

                          }
                        }
                    ],
                    "effects" : [

                    ],
                    "start" : 2411,
                    "duration" : 38,
                    "mediaStart" : 0,
                    "mediaDuration" : 38,
                    "scalar" : 1,
                    "metadata" : {
                      "AutoAppliedSmartFocus" : "False",
                      "WinSubProjectDisplayName" : "",
                      "clipSpeedAttribute" : false
                    },
                    "animationTracks" : {

                    }
                  },
                  {
                    "id" : 68,
                    "_type" : "StitchedMedia",
                    "minMediaStart" : -108000,
                    "attributes" : {
                      "ident" : "录制日期 21-03-31",
                      "gain" : 1.0,
                      "mixToMono" : false
                    },
                    "parameters" : {
                      "cursorOpacity" : {
                        "type" : "double",
                        "defaultValue" : 1.0,
                        "interp" : "linr"
                      },
                      "cursorScale" : {
                        "type" : "double",
                        "defaultValue" : 1.0,
                        "interp" : "linr"
                      }
                    },
                    "medias" : [
                        {
                          "id" : 69,
                          "_type" : "ScreenIMFile",
                          "src" : 1,
                          "trackNumber" : 0,
                          "trimStartSum" : -108000,
                          "attributes" : {
                            "ident" : "录制日期 21-03-31"
                          },
                          "parameters" : {
                            "cursorOpacity" : {
                              "type" : "double",
                              "defaultValue" : 0.0,
                              "interp" : "linr"
                            },
                            "cursorScale" : {
                              "type" : "double",
                              "defaultValue" : 0.0,
                              "interp" : "linr"
                            }
                          },
                          "effects" : [

                          ],
                          "start" : -108000,
                          "duration" : 108090,
                          "mediaStart" : 44,
                          "mediaDuration" : 1,
                          "scalar" : 1,
                          "metadata" : {
                            "AutoAppliedSmartFocus" : "False",
                            "WinSubProjectDisplayName" : "",
                            "clipSpeedAttribute" : false
                          },
                          "animationTracks" : {

                          }
                        },
                        {
                          "id" : 70,
                          "_type" : "ScreenVMFile",
                          "src" : 1,
                          "trackNumber" : 0,
                          "attributes" : {
                            "ident" : "录制日期 21-03-31"
                          },
                          "parameters" : {
                            "cursorScale" : {
                              "type" : "double",
                              "defaultValue" : 0.0,
                              "interp" : "linr"
                            },
                            "cursorOpacity" : {
                              "type" : "double",
                              "defaultValue" : 0.0,
                              "interp" : "linr"
                            }
                          },
                          "effects" : [

                          ],
                          "start" : 90,
                          "duration" : 24791,
                          "mediaStart" : 44,
                          "mediaDuration" : 24791,
                          "scalar" : 1,
                          "metadata" : {
                            "AutoAppliedSmartFocus" : "False",
                            "WinSubProjectDisplayName" : "",
                            "clipSpeedAttribute" : false
                          },
                          "animationTracks" : {

                          }
                        }
                    ],
                    "effects" : [

                    ],
                    "start" : 2449,
                    "duration" : 158,
                    "mediaStart" : 93,
                    "mediaDuration" : 158,
                    "scalar" : 1,
                    "metadata" : {
                      "AutoAppliedSmartFocus" : "False",
                      "WinSubProjectDisplayName" : "",
                      "clipSpeedAttribute" : false
                    },
                    "animationTracks" : {

                    }
                  },
                  {
                    "id" : 71,
                    "_type" : "StitchedMedia",
                    "minMediaStart" : 0,
                    "attributes" : {
                      "ident" : "录制日期 21-03-31",
                      "gain" : 1.0,
                      "mixToMono" : false
                    },
                    "parameters" : {
                      "cursorOpacity" : {
                        "type" : "double",
                        "defaultValue" : 1.0,
                        "interp" : "linr"
                      },
                      "cursorScale" : {
                        "type" : "double",
                        "defaultValue" : 1.0,
                        "interp" : "linr"
                      }
                    },
                    "medias" : [
                        {
                          "id" : 72,
                          "_type" : "ScreenVMFile",
                          "src" : 1,
                          "trackNumber" : 0,
                          "attributes" : {
                            "ident" : "录制日期 21-03-31"
                          },
                          "parameters" : {
                            "cursorScale" : {
                              "type" : "double",
                              "defaultValue" : 0.0,
                              "interp" : "linr"
                            },
                            "cursorOpacity" : {
                              "type" : "double",
                              "defaultValue" : 0.0,
                              "interp" : "linr"
                            }
                          },
                          "effects" : [

                          ],
                          "start" : 0,
                          "duration" : 886,
                          "mediaStart" : 0,
                          "mediaDuration" : 886,
                          "scalar" : 1,
                          "metadata" : {
                            "AutoAppliedSmartFocus" : "False",
                            "WinSubProjectDisplayName" : "",
                            "clipSpeedAttribute" : false
                          },
                          "animationTracks" : {

                          }
                        },
                        {
                          "id" : 73,
                          "_type" : "ScreenIMFile",
                          "src" : 1,
                          "trackNumber" : 0,
                          "trimStartSum" : 0,
                          "attributes" : {
                            "ident" : "录制日期 21-03-31"
                          },
                          "parameters" : {
                            "cursorOpacity" : {
                              "type" : "double",
                              "defaultValue" : 0.0,
                              "interp" : "linr"
                            },
                            "cursorScale" : {
                              "type" : "double",
                              "defaultValue" : 0.0,
                              "interp" : "linr"
                            }
                          },
                          "effects" : [

                          ],
                          "start" : 886,
                          "duration" : 120,
                          "mediaStart" : 885,
                          "mediaDuration" : 1,
                          "scalar" : 1,
                          "metadata" : {
                            "AutoAppliedSmartFocus" : "False",
                            "WinSubProjectDisplayName" : ""
                          },
                          "animationTracks" : {

                          }
                        },
                        {
                          "id" : 74,
                          "_type" : "ScreenVMFile",
                          "src" : 1,
                          "trackNumber" : 0,
                          "attributes" : {
                            "ident" : "录制日期 21-03-31"
                          },
                          "parameters" : {
                            "cursorScale" : {
                              "type" : "double",
                              "defaultValue" : 0.0,
                              "interp" : "linr"
                            },
                            "cursorOpacity" : {
                              "type" : "double",
                              "defaultValue" : 0.0,
                              "interp" : "linr"
                            }
                          },
                          "effects" : [

                          ],
                          "start" : 1006,
                          "duration" : 23949,
                          "mediaStart" : 886,
                          "mediaDuration" : 23949,
                          "scalar" : 1,
                          "metadata" : {
                            "AutoAppliedSmartFocus" : "False",
                            "WinSubProjectDisplayName" : "",
                            "clipSpeedAttribute" : false
                          },
                          "animationTracks" : {

                          }
                        }
                    ],
                    "effects" : [

                    ],
                    "start" : 2607,
                    "duration" : 388,
                    "mediaStart" : 637,
                    "mediaDuration" : 388,
                    "scalar" : 1,
                    "metadata" : {
                      "AutoAppliedSmartFocus" : "False",
                      "WinSubProjectDisplayName" : "",
                      "clipSpeedAttribute" : false,
                      "default-translation0" : 0.0
                    },
                    "animationTracks" : {

                    }
                  },
                  {
                    "id" : 75,
                    "_type" : "StitchedMedia",
                    "minMediaStart" : 0,
                    "attributes" : {
                      "ident" : "录制日期 21-03-31",
                      "gain" : 1.0,
                      "mixToMono" : false
                    },
                    "parameters" : {
                      "cursorOpacity" : {
                        "type" : "double",
                        "defaultValue" : 1.0,
                        "interp" : "linr"
                      },
                      "cursorScale" : {
                        "type" : "double",
                        "defaultValue" : 1.0,
                        "interp" : "linr"
                      }
                    },
                    "medias" : [
                        {
                          "id" : 76,
                          "_type" : "ScreenVMFile",
                          "src" : 1,
                          "trackNumber" : 0,
                          "attributes" : {
                            "ident" : "录制日期 21-03-31"
                          },
                          "parameters" : {
                            "cursorScale" : {
                              "type" : "double",
                              "defaultValue" : 0.0,
                              "interp" : "linr"
                            },
                            "cursorOpacity" : {
                              "type" : "double",
                              "defaultValue" : 0.0,
                              "interp" : "linr"
                            }
                          },
                          "effects" : [

                          ],
                          "start" : 0,
                          "duration" : 886,
                          "mediaStart" : 0,
                          "mediaDuration" : 886,
                          "scalar" : 1,
                          "metadata" : {
                            "AutoAppliedSmartFocus" : "False",
                            "WinSubProjectDisplayName" : "",
                            "clipSpeedAttribute" : false
                          },
                          "animationTracks" : {

                          }
                        },
                        {
                          "id" : 77,
                          "_type" : "ScreenIMFile",
                          "src" : 1,
                          "trackNumber" : 0,
                          "trimStartSum" : 0,
                          "attributes" : {
                            "ident" : "录制日期 21-03-31"
                          },
                          "parameters" : {
                            "cursorOpacity" : {
                              "type" : "double",
                              "defaultValue" : 0.0,
                              "interp" : "linr"
                            },
                            "cursorScale" : {
                              "type" : "double",
                              "defaultValue" : 0.0,
                              "interp" : "linr"
                            }
                          },
                          "effects" : [

                          ],
                          "start" : 886,
                          "duration" : 120,
                          "mediaStart" : 885,
                          "mediaDuration" : 1,
                          "scalar" : 1,
                          "metadata" : {
                            "AutoAppliedSmartFocus" : "False",
                            "WinSubProjectDisplayName" : ""
                          },
                          "animationTracks" : {

                          }
                        },
                        {
                          "id" : 78,
                          "_type" : "ScreenVMFile",
                          "src" : 1,
                          "trackNumber" : 0,
                          "attributes" : {
                            "ident" : "录制日期 21-03-31"
                          },
                          "parameters" : {
                            "cursorScale" : {
                              "type" : "double",
                              "defaultValue" : 0.0,
                              "interp" : "linr"
                            },
                            "cursorOpacity" : {
                              "type" : "double",
                              "defaultValue" : 0.0,
                              "interp" : "linr"
                            }
                          },
                          "effects" : [

                          ],
                          "start" : 1006,
                          "duration" : 23949,
                          "mediaStart" : 886,
                          "mediaDuration" : 23949,
                          "scalar" : 1,
                          "metadata" : {
                            "AutoAppliedSmartFocus" : "False",
                            "WinSubProjectDisplayName" : "",
                            "clipSpeedAttribute" : false
                          },
                          "animationTracks" : {

                          }
                        }
                    ],
                    "effects" : [

                    ],
                    "start" : 2995,
                    "duration" : 32,
                    "mediaStart" : 1161,
                    "mediaDuration" : 64,
                    "scalar" : "1/2",
                    "metadata" : {
                      "AutoAppliedSmartFocus" : "False",
                      "WinSubProjectDisplayName" : "",
                      "clipSpeedAttribute" : true
                    },
                    "animationTracks" : {

                    }
                  },
                  {
                    "id" : 79,
                    "_type" : "StitchedMedia",
                    "minMediaStart" : 0,
                    "attributes" : {
                      "ident" : "录制日期 21-03-31",
                      "gain" : 1.0,
                      "mixToMono" : false
                    },
                    "parameters" : {
                      "cursorOpacity" : 1.0,
                      "cursorScale" : 1.0
                    },
                    "medias" : [
                        {
                          "id" : 80,
                          "_type" : "ScreenVMFile",
                          "src" : 1,
                          "trackNumber" : 0,
                          "attributes" : {
                            "ident" : "录制日期 21-03-31"
                          },
                          "parameters" : {
                            "cursorScale" : {
                              "type" : "double",
                              "defaultValue" : 0.0,
                              "interp" : "linr"
                            },
                            "cursorOpacity" : {
                              "type" : "double",
                              "defaultValue" : 0.0,
                              "interp" : "linr"
                            }
                          },
                          "effects" : [

                          ],
                          "start" : 0,
                          "duration" : 886,
                          "mediaStart" : 0,
                          "mediaDuration" : 886,
                          "scalar" : 1,
                          "metadata" : {
                            "AutoAppliedSmartFocus" : "False",
                            "WinSubProjectDisplayName" : "",
                            "clipSpeedAttribute" : false
                          },
                          "animationTracks" : {

                          }
                        },
                        {
                          "id" : 81,
                          "_type" : "ScreenIMFile",
                          "src" : 1,
                          "trackNumber" : 0,
                          "trimStartSum" : 0,
                          "attributes" : {
                            "ident" : "录制日期 21-03-31"
                          },
                          "parameters" : {
                            "cursorOpacity" : 0.0,
                            "cursorScale" : 0.0
                          },
                          "effects" : [

                          ],
                          "start" : 886,
                          "duration" : 120,
                          "mediaStart" : 885,
                          "mediaDuration" : 1,
                          "scalar" : 1,
                          "metadata" : {
                            "AutoAppliedSmartFocus" : "False",
                            "WinSubProjectDisplayName" : ""
                          },
                          "animationTracks" : {

                          }
                        },
                        {
                          "id" : 82,
                          "_type" : "ScreenVMFile",
                          "src" : 1,
                          "trackNumber" : 0,
                          "attributes" : {
                            "ident" : "录制日期 21-03-31"
                          },
                          "parameters" : {
                            "cursorScale" : {
                              "type" : "double",
                              "defaultValue" : 0.0,
                              "interp" : "linr"
                            },
                            "cursorOpacity" : {
                              "type" : "double",
                              "defaultValue" : 0.0,
                              "interp" : "linr"
                            }
                          },
                          "effects" : [

                          ],
                          "start" : 1006,
                          "duration" : 23949,
                          "mediaStart" : 886,
                          "mediaDuration" : 23949,
                          "scalar" : 1,
                          "metadata" : {
                            "AutoAppliedSmartFocus" : "False",
                            "WinSubProjectDisplayName" : "",
                            "clipSpeedAttribute" : false
                          },
                          "animationTracks" : {

                          }
                        }
                    ],
                    "effects" : [

                    ],
                    "start" : 3027,
                    "duration" : 44,
                    "mediaStart" : 1225,
                    "mediaDuration" : 2850,
                    "scalar" : "22/1425",
                    "metadata" : {
                      "AutoAppliedSmartFocus" : "False",
                      "WinSubProjectDisplayName" : "",
                      "clipSpeedAttribute" : true
                    },
                    "animationTracks" : {

                    }
                  },
                  {
                    "id" : 83,
                    "_type" : "StitchedMedia",
                    "minMediaStart" : 0,
                    "attributes" : {
                      "ident" : "录制日期 21-03-31",
                      "gain" : 1.0,
                      "mixToMono" : false
                    },
                    "parameters" : {
                      "cursorOpacity" : 1.0,
                      "cursorScale" : 1.0
                    },
                    "medias" : [
                        {
                          "id" : 84,
                          "_type" : "ScreenVMFile",
                          "src" : 1,
                          "trackNumber" : 0,
                          "attributes" : {
                            "ident" : "录制日期 21-03-31"
                          },
                          "parameters" : {
                            "cursorScale" : {
                              "type" : "double",
                              "defaultValue" : 0.0,
                              "interp" : "linr"
                            },
                            "cursorOpacity" : {
                              "type" : "double",
                              "defaultValue" : 0.0,
                              "interp" : "linr"
                            }
                          },
                          "effects" : [

                          ],
                          "start" : 0,
                          "duration" : 886,
                          "mediaStart" : 0,
                          "mediaDuration" : 886,
                          "scalar" : 1,
                          "metadata" : {
                            "AutoAppliedSmartFocus" : "False",
                            "WinSubProjectDisplayName" : "",
                            "clipSpeedAttribute" : false
                          },
                          "animationTracks" : {

                          }
                        },
                        {
                          "id" : 85,
                          "_type" : "ScreenIMFile",
                          "src" : 1,
                          "trackNumber" : 0,
                          "trimStartSum" : 0,
                          "attributes" : {
                            "ident" : "录制日期 21-03-31"
                          },
                          "parameters" : {
                            "cursorOpacity" : 0.0,
                            "cursorScale" : 0.0
                          },
                          "effects" : [

                          ],
                          "start" : 886,
                          "duration" : 120,
                          "mediaStart" : 885,
                          "mediaDuration" : 1,
                          "scalar" : 1,
                          "metadata" : {
                            "AutoAppliedSmartFocus" : "False",
                            "WinSubProjectDisplayName" : ""
                          },
                          "animationTracks" : {

                          }
                        },
                        {
                          "id" : 86,
                          "_type" : "ScreenVMFile",
                          "src" : 1,
                          "trackNumber" : 0,
                          "attributes" : {
                            "ident" : "录制日期 21-03-31"
                          },
                          "parameters" : {
                            "cursorScale" : {
                              "type" : "double",
                              "defaultValue" : 0.0,
                              "interp" : "linr"
                            },
                            "cursorOpacity" : {
                              "type" : "double",
                              "defaultValue" : 0.0,
                              "interp" : "linr"
                            }
                          },
                          "effects" : [

                          ],
                          "start" : 1006,
                          "duration" : 23949,
                          "mediaStart" : 886,
                          "mediaDuration" : 23949,
                          "scalar" : 1,
                          "metadata" : {
                            "AutoAppliedSmartFocus" : "False",
                            "WinSubProjectDisplayName" : "",
                            "clipSpeedAttribute" : false
                          },
                          "animationTracks" : {

                          }
                        }
                    ],
                    "effects" : [

                    ],
                    "start" : 3071,
                    "duration" : 41,
                    "mediaStart" : 4075,
                    "mediaDuration" : 41,
                    "scalar" : 1,
                    "metadata" : {
                      "AutoAppliedSmartFocus" : "False",
                      "WinSubProjectDisplayName" : "",
                      "clipSpeedAttribute" : false
                    },
                    "animationTracks" : {

                    }
                  },
                  {
                    "id" : 87,
                    "_type" : "StitchedMedia",
                    "minMediaStart" : 0,
                    "attributes" : {
                      "ident" : "录制日期 21-03-31",
                      "gain" : 1.0,
                      "mixToMono" : false
                    },
                    "parameters" : {
                      "cursorOpacity" : 1.0,
                      "cursorScale" : 1.0
                    },
                    "medias" : [
                        {
                          "id" : 88,
                          "_type" : "ScreenVMFile",
                          "src" : 1,
                          "trackNumber" : 0,
                          "attributes" : {
                            "ident" : "录制日期 21-03-31"
                          },
                          "parameters" : {
                            "cursorScale" : {
                              "type" : "double",
                              "defaultValue" : 0.0,
                              "interp" : "linr"
                            },
                            "cursorOpacity" : {
                              "type" : "double",
                              "defaultValue" : 0.0,
                              "interp" : "linr"
                            }
                          },
                          "effects" : [

                          ],
                          "start" : 0,
                          "duration" : 886,
                          "mediaStart" : 0,
                          "mediaDuration" : 886,
                          "scalar" : 1,
                          "metadata" : {
                            "AutoAppliedSmartFocus" : "False",
                            "WinSubProjectDisplayName" : "",
                            "clipSpeedAttribute" : false
                          },
                          "animationTracks" : {

                          }
                        },
                        {
                          "id" : 89,
                          "_type" : "ScreenIMFile",
                          "src" : 1,
                          "trackNumber" : 0,
                          "trimStartSum" : 0,
                          "attributes" : {
                            "ident" : "录制日期 21-03-31"
                          },
                          "parameters" : {
                            "cursorOpacity" : 0.0,
                            "cursorScale" : 0.0
                          },
                          "effects" : [

                          ],
                          "start" : 886,
                          "duration" : 120,
                          "mediaStart" : 885,
                          "mediaDuration" : 1,
                          "scalar" : 1,
                          "metadata" : {
                            "AutoAppliedSmartFocus" : "False",
                            "WinSubProjectDisplayName" : ""
                          },
                          "animationTracks" : {

                          }
                        },
                        {
                          "id" : 90,
                          "_type" : "ScreenVMFile",
                          "src" : 1,
                          "trackNumber" : 0,
                          "attributes" : {
                            "ident" : "录制日期 21-03-31"
                          },
                          "parameters" : {
                            "cursorScale" : {
                              "type" : "double",
                              "defaultValue" : 0.0,
                              "interp" : "linr"
                            },
                            "cursorOpacity" : {
                              "type" : "double",
                              "defaultValue" : 0.0,
                              "interp" : "linr"
                            }
                          },
                          "effects" : [

                          ],
                          "start" : 1006,
                          "duration" : 23949,
                          "mediaStart" : 886,
                          "mediaDuration" : 23949,
                          "scalar" : 1,
                          "metadata" : {
                            "AutoAppliedSmartFocus" : "False",
                            "WinSubProjectDisplayName" : "",
                            "clipSpeedAttribute" : false
                          },
                          "animationTracks" : {

                          }
                        }
                    ],
                    "effects" : [

                    ],
                    "start" : 3112,
                    "duration" : 10,
                    "mediaStart" : 4116,
                    "mediaDuration" : 104,
                    "scalar" : "5/52",
                    "metadata" : {
                      "AutoAppliedSmartFocus" : "False",
                      "WinSubProjectDisplayName" : "",
                      "clipSpeedAttribute" : true
                    },
                    "animationTracks" : {

                    }
                  },
                  {
                    "id" : 91,
                    "_type" : "StitchedMedia",
                    "minMediaStart" : 0,
                    "attributes" : {
                      "ident" : "录制日期 21-03-31",
                      "gain" : 1.0,
                      "mixToMono" : false
                    },
                    "parameters" : {
                      "cursorOpacity" : {
                        "type" : "double",
                        "defaultValue" : 1.0,
                        "interp" : "linr"
                      },
                      "cursorScale" : {
                        "type" : "double",
                        "defaultValue" : 1.0,
                        "interp" : "linr"
                      }
                    },
                    "medias" : [
                        {
                          "id" : 92,
                          "_type" : "ScreenVMFile",
                          "src" : 1,
                          "trackNumber" : 0,
                          "attributes" : {
                            "ident" : "录制日期 21-03-31"
                          },
                          "parameters" : {
                            "cursorScale" : {
                              "type" : "double",
                              "defaultValue" : 0.0,
                              "interp" : "linr"
                            },
                            "cursorOpacity" : {
                              "type" : "double",
                              "defaultValue" : 0.0,
                              "interp" : "linr"
                            }
                          },
                          "effects" : [

                          ],
                          "start" : 0,
                          "duration" : 886,
                          "mediaStart" : 0,
                          "mediaDuration" : 886,
                          "scalar" : 1,
                          "metadata" : {
                            "AutoAppliedSmartFocus" : "False",
                            "WinSubProjectDisplayName" : "",
                            "clipSpeedAttribute" : false
                          },
                          "animationTracks" : {

                          }
                        },
                        {
                          "id" : 93,
                          "_type" : "ScreenIMFile",
                          "src" : 1,
                          "trackNumber" : 0,
                          "trimStartSum" : 0,
                          "attributes" : {
                            "ident" : "录制日期 21-03-31"
                          },
                          "parameters" : {
                            "cursorOpacity" : {
                              "type" : "double",
                              "defaultValue" : 0.0,
                              "interp" : "linr"
                            },
                            "cursorScale" : {
                              "type" : "double",
                              "defaultValue" : 0.0,
                              "interp" : "linr"
                            }
                          },
                          "effects" : [

                          ],
                          "start" : 886,
                          "duration" : 120,
                          "mediaStart" : 885,
                          "mediaDuration" : 1,
                          "scalar" : 1,
                          "metadata" : {
                            "AutoAppliedSmartFocus" : "False",
                            "WinSubProjectDisplayName" : ""
                          },
                          "animationTracks" : {

                          }
                        },
                        {
                          "id" : 94,
                          "_type" : "ScreenVMFile",
                          "src" : 1,
                          "trackNumber" : 0,
                          "attributes" : {
                            "ident" : "录制日期 21-03-31"
                          },
                          "parameters" : {
                            "cursorScale" : {
                              "type" : "double",
                              "defaultValue" : 0.0,
                              "interp" : "linr"
                            },
                            "cursorOpacity" : {
                              "type" : "double",
                              "defaultValue" : 0.0,
                              "interp" : "linr"
                            }
                          },
                          "effects" : [

                          ],
                          "start" : 1006,
                          "duration" : 23949,
                          "mediaStart" : 886,
                          "mediaDuration" : 23949,
                          "scalar" : 1,
                          "metadata" : {
                            "AutoAppliedSmartFocus" : "False",
                            "WinSubProjectDisplayName" : "",
                            "clipSpeedAttribute" : false
                          },
                          "animationTracks" : {

                          }
                        }
                    ],
                    "effects" : [

                    ],
                    "start" : 3122,
                    "duration" : 45,
                    "mediaStart" : 4220,
                    "mediaDuration" : 268,
                    "scalar" : "45/268",
                    "metadata" : {
                      "AutoAppliedSmartFocus" : "False",
                      "WinSubProjectDisplayName" : "",
                      "clipSpeedAttribute" : true
                    },
                    "animationTracks" : {

                    }
                  },
                  {
                    "id" : 95,
                    "_type" : "StitchedMedia",
                    "minMediaStart" : 0,
                    "attributes" : {
                      "ident" : "录制日期 21-03-31",
                      "gain" : 1.0,
                      "mixToMono" : false
                    },
                    "parameters" : {
                      "cursorOpacity" : {
                        "type" : "double",
                        "defaultValue" : 1.0,
                        "interp" : "linr"
                      },
                      "cursorScale" : {
                        "type" : "double",
                        "defaultValue" : 1.0,
                        "interp" : "linr"
                      }
                    },
                    "medias" : [
                        {
                          "id" : 96,
                          "_type" : "ScreenVMFile",
                          "src" : 1,
                          "trackNumber" : 0,
                          "attributes" : {
                            "ident" : "录制日期 21-03-31"
                          },
                          "parameters" : {
                            "cursorScale" : {
                              "type" : "double",
                              "defaultValue" : 0.0,
                              "interp" : "linr"
                            },
                            "cursorOpacity" : {
                              "type" : "double",
                              "defaultValue" : 0.0,
                              "interp" : "linr"
                            }
                          },
                          "effects" : [

                          ],
                          "start" : 0,
                          "duration" : 886,
                          "mediaStart" : 0,
                          "mediaDuration" : 886,
                          "scalar" : 1,
                          "metadata" : {
                            "AutoAppliedSmartFocus" : "False",
                            "WinSubProjectDisplayName" : "",
                            "clipSpeedAttribute" : false
                          },
                          "animationTracks" : {

                          }
                        },
                        {
                          "id" : 97,
                          "_type" : "ScreenIMFile",
                          "src" : 1,
                          "trackNumber" : 0,
                          "trimStartSum" : 0,
                          "attributes" : {
                            "ident" : "录制日期 21-03-31"
                          },
                          "parameters" : {
                            "cursorOpacity" : {
                              "type" : "double",
                              "defaultValue" : 0.0,
                              "interp" : "linr"
                            },
                            "cursorScale" : {
                              "type" : "double",
                              "defaultValue" : 0.0,
                              "interp" : "linr"
                            }
                          },
                          "effects" : [

                          ],
                          "start" : 886,
                          "duration" : 120,
                          "mediaStart" : 885,
                          "mediaDuration" : 1,
                          "scalar" : 1,
                          "metadata" : {
                            "AutoAppliedSmartFocus" : "False",
                            "WinSubProjectDisplayName" : ""
                          },
                          "animationTracks" : {

                          }
                        },
                        {
                          "id" : 98,
                          "_type" : "ScreenVMFile",
                          "src" : 1,
                          "trackNumber" : 0,
                          "attributes" : {
                            "ident" : "录制日期 21-03-31"
                          },
                          "parameters" : {
                            "cursorScale" : {
                              "type" : "double",
                              "defaultValue" : 0.0,
                              "interp" : "linr"
                            },
                            "cursorOpacity" : {
                              "type" : "double",
                              "defaultValue" : 0.0,
                              "interp" : "linr"
                            }
                          },
                          "effects" : [

                          ],
                          "start" : 1006,
                          "duration" : 23949,
                          "mediaStart" : 886,
                          "mediaDuration" : 23949,
                          "scalar" : 1,
                          "metadata" : {
                            "AutoAppliedSmartFocus" : "False",
                            "WinSubProjectDisplayName" : "",
                            "clipSpeedAttribute" : false
                          },
                          "animationTracks" : {

                          }
                        }
                    ],
                    "effects" : [

                    ],
                    "start" : 3167,
                    "duration" : 38,
                    "mediaStart" : 4556,
                    "mediaDuration" : 152,
                    "scalar" : "1/4",
                    "metadata" : {
                      "AutoAppliedSmartFocus" : "False",
                      "WinSubProjectDisplayName" : "",
                      "clipSpeedAttribute" : true
                    },
                    "animationTracks" : {

                    }
                  },
                  {
                    "id" : 99,
                    "_type" : "StitchedMedia",
                    "minMediaStart" : 0,
                    "attributes" : {
                      "ident" : "录制日期 21-03-31",
                      "gain" : 1.0,
                      "mixToMono" : false
                    },
                    "parameters" : {
                      "cursorOpacity" : 1.0,
                      "cursorScale" : 1.0
                    },
                    "medias" : [
                        {
                          "id" : 100,
                          "_type" : "ScreenVMFile",
                          "src" : 1,
                          "trackNumber" : 0,
                          "attributes" : {
                            "ident" : "录制日期 21-03-31"
                          },
                          "parameters" : {
                            "cursorScale" : {
                              "type" : "double",
                              "defaultValue" : 0.0,
                              "interp" : "linr"
                            },
                            "cursorOpacity" : {
                              "type" : "double",
                              "defaultValue" : 0.0,
                              "interp" : "linr"
                            }
                          },
                          "effects" : [

                          ],
                          "start" : 0,
                          "duration" : 886,
                          "mediaStart" : 0,
                          "mediaDuration" : 886,
                          "scalar" : 1,
                          "metadata" : {
                            "AutoAppliedSmartFocus" : "False",
                            "WinSubProjectDisplayName" : "",
                            "clipSpeedAttribute" : false
                          },
                          "animationTracks" : {

                          }
                        },
                        {
                          "id" : 101,
                          "_type" : "ScreenIMFile",
                          "src" : 1,
                          "trackNumber" : 0,
                          "trimStartSum" : 0,
                          "attributes" : {
                            "ident" : "录制日期 21-03-31"
                          },
                          "parameters" : {
                            "cursorOpacity" : 0.0,
                            "cursorScale" : 0.0
                          },
                          "effects" : [

                          ],
                          "start" : 886,
                          "duration" : 120,
                          "mediaStart" : 885,
                          "mediaDuration" : 1,
                          "scalar" : 1,
                          "metadata" : {
                            "AutoAppliedSmartFocus" : "False",
                            "WinSubProjectDisplayName" : ""
                          },
                          "animationTracks" : {

                          }
                        },
                        {
                          "id" : 102,
                          "_type" : "ScreenVMFile",
                          "src" : 1,
                          "trackNumber" : 0,
                          "attributes" : {
                            "ident" : "录制日期 21-03-31"
                          },
                          "parameters" : {
                            "cursorScale" : {
                              "type" : "double",
                              "defaultValue" : 0.0,
                              "interp" : "linr"
                            },
                            "cursorOpacity" : {
                              "type" : "double",
                              "defaultValue" : 0.0,
                              "interp" : "linr"
                            }
                          },
                          "effects" : [

                          ],
                          "start" : 1006,
                          "duration" : 23949,
                          "mediaStart" : 886,
                          "mediaDuration" : 23949,
                          "scalar" : 1,
                          "metadata" : {
                            "AutoAppliedSmartFocus" : "False",
                            "WinSubProjectDisplayName" : "",
                            "clipSpeedAttribute" : false
                          },
                          "animationTracks" : {

                          }
                        }
                    ],
                    "effects" : [

                    ],
                    "start" : 3205,
                    "duration" : 169,
                    "mediaStart" : 4807,
                    "mediaDuration" : 187,
                    "scalar" : "169/187",
                    "metadata" : {
                      "AutoAppliedSmartFocus" : "False",
                      "WinSubProjectDisplayName" : "",
                      "clipSpeedAttribute" : true
                    },
                    "animationTracks" : {

                    }
                  },
                  {
                    "id" : 103,
                    "_type" : "StitchedMedia",
                    "minMediaStart" : 0,
                    "attributes" : {
                      "ident" : "录制日期 21-03-31",
                      "gain" : 1.0,
                      "mixToMono" : false
                    },
                    "parameters" : {
                      "cursorOpacity" : 1.0,
                      "cursorScale" : 1.0
                    },
                    "medias" : [
                        {
                          "id" : 104,
                          "_type" : "ScreenVMFile",
                          "src" : 1,
                          "trackNumber" : 0,
                          "attributes" : {
                            "ident" : "录制日期 21-03-31"
                          },
                          "parameters" : {
                            "cursorScale" : {
                              "type" : "double",
                              "defaultValue" : 0.0,
                              "interp" : "linr"
                            },
                            "cursorOpacity" : {
                              "type" : "double",
                              "defaultValue" : 0.0,
                              "interp" : "linr"
                            }
                          },
                          "effects" : [

                          ],
                          "start" : 0,
                          "duration" : 886,
                          "mediaStart" : 0,
                          "mediaDuration" : 886,
                          "scalar" : 1,
                          "metadata" : {
                            "AutoAppliedSmartFocus" : "False",
                            "WinSubProjectDisplayName" : "",
                            "clipSpeedAttribute" : false
                          },
                          "animationTracks" : {

                          }
                        },
                        {
                          "id" : 105,
                          "_type" : "ScreenIMFile",
                          "src" : 1,
                          "trackNumber" : 0,
                          "trimStartSum" : 0,
                          "attributes" : {
                            "ident" : "录制日期 21-03-31"
                          },
                          "parameters" : {
                            "cursorOpacity" : 0.0,
                            "cursorScale" : 0.0
                          },
                          "effects" : [

                          ],
                          "start" : 886,
                          "duration" : 120,
                          "mediaStart" : 885,
                          "mediaDuration" : 1,
                          "scalar" : 1,
                          "metadata" : {
                            "AutoAppliedSmartFocus" : "False",
                            "WinSubProjectDisplayName" : ""
                          },
                          "animationTracks" : {

                          }
                        },
                        {
                          "id" : 106,
                          "_type" : "ScreenVMFile",
                          "src" : 1,
                          "trackNumber" : 0,
                          "attributes" : {
                            "ident" : "录制日期 21-03-31"
                          },
                          "parameters" : {
                            "cursorScale" : {
                              "type" : "double",
                              "defaultValue" : 0.0,
                              "interp" : "linr"
                            },
                            "cursorOpacity" : {
                              "type" : "double",
                              "defaultValue" : 0.0,
                              "interp" : "linr"
                            }
                          },
                          "effects" : [

                          ],
                          "start" : 1006,
                          "duration" : 23949,
                          "mediaStart" : 886,
                          "mediaDuration" : 23949,
                          "scalar" : 1,
                          "metadata" : {
                            "AutoAppliedSmartFocus" : "False",
                            "WinSubProjectDisplayName" : "",
                            "clipSpeedAttribute" : false
                          },
                          "animationTracks" : {

                          }
                        }
                    ],
                    "effects" : [

                    ],
                    "start" : 3374,
                    "duration" : 48,
                    "mediaStart" : 8646,
                    "mediaDuration" : 1182,
                    "scalar" : "8/197",
                    "metadata" : {
                      "AutoAppliedSmartFocus" : "False",
                      "WinSubProjectDisplayName" : "",
                      "clipSpeedAttribute" : true
                    },
                    "animationTracks" : {

                    }
                  },
                  {
                    "id" : 107,
                    "_type" : "StitchedMedia",
                    "minMediaStart" : 0,
                    "attributes" : {
                      "ident" : "录制日期 21-03-31",
                      "gain" : 1.0,
                      "mixToMono" : false
                    },
                    "parameters" : {
                      "cursorOpacity" : 1.0,
                      "cursorScale" : 1.0
                    },
                    "medias" : [
                        {
                          "id" : 108,
                          "_type" : "ScreenVMFile",
                          "src" : 1,
                          "trackNumber" : 0,
                          "attributes" : {
                            "ident" : "录制日期 21-03-31"
                          },
                          "parameters" : {
                            "cursorScale" : {
                              "type" : "double",
                              "defaultValue" : 0.0,
                              "interp" : "linr"
                            },
                            "cursorOpacity" : {
                              "type" : "double",
                              "defaultValue" : 0.0,
                              "interp" : "linr"
                            }
                          },
                          "effects" : [

                          ],
                          "start" : 0,
                          "duration" : 886,
                          "mediaStart" : 0,
                          "mediaDuration" : 886,
                          "scalar" : 1,
                          "metadata" : {
                            "AutoAppliedSmartFocus" : "False",
                            "WinSubProjectDisplayName" : "",
                            "clipSpeedAttribute" : false
                          },
                          "animationTracks" : {

                          }
                        },
                        {
                          "id" : 109,
                          "_type" : "ScreenIMFile",
                          "src" : 1,
                          "trackNumber" : 0,
                          "trimStartSum" : 0,
                          "attributes" : {
                            "ident" : "录制日期 21-03-31"
                          },
                          "parameters" : {
                            "cursorOpacity" : 0.0,
                            "cursorScale" : 0.0
                          },
                          "effects" : [

                          ],
                          "start" : 886,
                          "duration" : 120,
                          "mediaStart" : 885,
                          "mediaDuration" : 1,
                          "scalar" : 1,
                          "metadata" : {
                            "AutoAppliedSmartFocus" : "False",
                            "WinSubProjectDisplayName" : ""
                          },
                          "animationTracks" : {

                          }
                        },
                        {
                          "id" : 110,
                          "_type" : "ScreenVMFile",
                          "src" : 1,
                          "trackNumber" : 0,
                          "attributes" : {
                            "ident" : "录制日期 21-03-31"
                          },
                          "parameters" : {
                            "cursorScale" : {
                              "type" : "double",
                              "defaultValue" : 0.0,
                              "interp" : "linr"
                            },
                            "cursorOpacity" : {
                              "type" : "double",
                              "defaultValue" : 0.0,
                              "interp" : "linr"
                            }
                          },
                          "effects" : [

                          ],
                          "start" : 1006,
                          "duration" : 23949,
                          "mediaStart" : 886,
                          "mediaDuration" : 23949,
                          "scalar" : 1,
                          "metadata" : {
                            "AutoAppliedSmartFocus" : "False",
                            "WinSubProjectDisplayName" : "",
                            "clipSpeedAttribute" : false
                          },
                          "animationTracks" : {

                          }
                        }
                    ],
                    "effects" : [

                    ],
                    "start" : 3422,
                    "duration" : 10,
                    "mediaStart" : 9828,
                    "mediaDuration" : 43,
                    "scalar" : "10/43",
                    "metadata" : {
                      "AutoAppliedSmartFocus" : "False",
                      "WinSubProjectDisplayName" : "",
                      "clipSpeedAttribute" : true
                    },
                    "animationTracks" : {

                    }
                  },
                  {
                    "id" : 111,
                    "_type" : "StitchedMedia",
                    "minMediaStart" : 0,
                    "attributes" : {
                      "ident" : "录制日期 21-03-31",
                      "gain" : 1.0,
                      "mixToMono" : false
                    },
                    "parameters" : {
                      "cursorOpacity" : 1.0,
                      "cursorScale" : 1.0
                    },
                    "medias" : [
                        {
                          "id" : 112,
                          "_type" : "ScreenVMFile",
                          "src" : 1,
                          "trackNumber" : 0,
                          "attributes" : {
                            "ident" : "录制日期 21-03-31"
                          },
                          "parameters" : {
                            "cursorScale" : {
                              "type" : "double",
                              "defaultValue" : 0.0,
                              "interp" : "linr"
                            },
                            "cursorOpacity" : {
                              "type" : "double",
                              "defaultValue" : 0.0,
                              "interp" : "linr"
                            }
                          },
                          "effects" : [

                          ],
                          "start" : 0,
                          "duration" : 886,
                          "mediaStart" : 0,
                          "mediaDuration" : 886,
                          "scalar" : 1,
                          "metadata" : {
                            "AutoAppliedSmartFocus" : "False",
                            "WinSubProjectDisplayName" : "",
                            "clipSpeedAttribute" : false
                          },
                          "animationTracks" : {

                          }
                        },
                        {
                          "id" : 113,
                          "_type" : "ScreenIMFile",
                          "src" : 1,
                          "trackNumber" : 0,
                          "trimStartSum" : 0,
                          "attributes" : {
                            "ident" : "录制日期 21-03-31"
                          },
                          "parameters" : {
                            "cursorOpacity" : 0.0,
                            "cursorScale" : 0.0
                          },
                          "effects" : [

                          ],
                          "start" : 886,
                          "duration" : 120,
                          "mediaStart" : 885,
                          "mediaDuration" : 1,
                          "scalar" : 1,
                          "metadata" : {
                            "AutoAppliedSmartFocus" : "False",
                            "WinSubProjectDisplayName" : ""
                          },
                          "animationTracks" : {

                          }
                        },
                        {
                          "id" : 114,
                          "_type" : "ScreenVMFile",
                          "src" : 1,
                          "trackNumber" : 0,
                          "attributes" : {
                            "ident" : "录制日期 21-03-31"
                          },
                          "parameters" : {
                            "cursorScale" : {
                              "type" : "double",
                              "defaultValue" : 0.0,
                              "interp" : "linr"
                            },
                            "cursorOpacity" : {
                              "type" : "double",
                              "defaultValue" : 0.0,
                              "interp" : "linr"
                            }
                          },
                          "effects" : [

                          ],
                          "start" : 1006,
                          "duration" : 23949,
                          "mediaStart" : 886,
                          "mediaDuration" : 23949,
                          "scalar" : 1,
                          "metadata" : {
                            "AutoAppliedSmartFocus" : "False",
                            "WinSubProjectDisplayName" : "",
                            "clipSpeedAttribute" : false
                          },
                          "animationTracks" : {

                          }
                        }
                    ],
                    "effects" : [

                    ],
                    "start" : 3432,
                    "duration" : 13,
                    "mediaStart" : 9890,
                    "mediaDuration" : 619,
                    "scalar" : "13/619",
                    "metadata" : {
                      "AutoAppliedSmartFocus" : "False",
                      "WinSubProjectDisplayName" : "",
                      "clipSpeedAttribute" : true
                    },
                    "animationTracks" : {

                    }
                  },
                  {
                    "id" : 115,
                    "_type" : "StitchedMedia",
                    "minMediaStart" : 0,
                    "attributes" : {
                      "ident" : "录制日期 21-03-31",
                      "gain" : 1.0,
                      "mixToMono" : false
                    },
                    "parameters" : {
                      "cursorOpacity" : 1.0,
                      "cursorScale" : 1.0
                    },
                    "medias" : [
                        {
                          "id" : 116,
                          "_type" : "ScreenVMFile",
                          "src" : 1,
                          "trackNumber" : 0,
                          "attributes" : {
                            "ident" : "录制日期 21-03-31"
                          },
                          "parameters" : {
                            "cursorScale" : {
                              "type" : "double",
                              "defaultValue" : 0.0,
                              "interp" : "linr"
                            },
                            "cursorOpacity" : {
                              "type" : "double",
                              "defaultValue" : 0.0,
                              "interp" : "linr"
                            }
                          },
                          "effects" : [

                          ],
                          "start" : 0,
                          "duration" : 886,
                          "mediaStart" : 0,
                          "mediaDuration" : 886,
                          "scalar" : 1,
                          "metadata" : {
                            "AutoAppliedSmartFocus" : "False",
                            "WinSubProjectDisplayName" : "",
                            "clipSpeedAttribute" : false
                          },
                          "animationTracks" : {

                          }
                        },
                        {
                          "id" : 117,
                          "_type" : "ScreenIMFile",
                          "src" : 1,
                          "trackNumber" : 0,
                          "trimStartSum" : 0,
                          "attributes" : {
                            "ident" : "录制日期 21-03-31"
                          },
                          "parameters" : {
                            "cursorOpacity" : 0.0,
                            "cursorScale" : 0.0
                          },
                          "effects" : [

                          ],
                          "start" : 886,
                          "duration" : 120,
                          "mediaStart" : 885,
                          "mediaDuration" : 1,
                          "scalar" : 1,
                          "metadata" : {
                            "AutoAppliedSmartFocus" : "False",
                            "WinSubProjectDisplayName" : ""
                          },
                          "animationTracks" : {

                          }
                        },
                        {
                          "id" : 118,
                          "_type" : "ScreenVMFile",
                          "src" : 1,
                          "trackNumber" : 0,
                          "attributes" : {
                            "ident" : "录制日期 21-03-31"
                          },
                          "parameters" : {
                            "cursorScale" : {
                              "type" : "double",
                              "defaultValue" : 0.0,
                              "interp" : "linr"
                            },
                            "cursorOpacity" : {
                              "type" : "double",
                              "defaultValue" : 0.0,
                              "interp" : "linr"
                            }
                          },
                          "effects" : [

                          ],
                          "start" : 1006,
                          "duration" : 23949,
                          "mediaStart" : 886,
                          "mediaDuration" : 23949,
                          "scalar" : 1,
                          "metadata" : {
                            "AutoAppliedSmartFocus" : "False",
                            "WinSubProjectDisplayName" : "",
                            "clipSpeedAttribute" : false
                          },
                          "animationTracks" : {

                          }
                        }
                    ],
                    "effects" : [

                    ],
                    "start" : 3445,
                    "duration" : 18,
                    "mediaStart" : 10851,
                    "mediaDuration" : "2331/32",
                    "scalar" : "64/259",
                    "metadata" : {
                      "AutoAppliedSmartFocus" : "False",
                      "WinSubProjectDisplayName" : "",
                      "clipSpeedAttribute" : true
                    },
                    "animationTracks" : {

                    }
                  },
                  {
                    "id" : 119,
                    "_type" : "StitchedMedia",
                    "minMediaStart" : 0,
                    "attributes" : {
                      "ident" : "录制日期 21-03-31",
                      "gain" : 1.0,
                      "mixToMono" : false
                    },
                    "parameters" : {
                      "cursorOpacity" : {
                        "type" : "double",
                        "defaultValue" : 1.0,
                        "interp" : "linr"
                      },
                      "cursorScale" : {
                        "type" : "double",
                        "defaultValue" : 1.0,
                        "interp" : "linr"
                      }
                    },
                    "medias" : [
                        {
                          "id" : 120,
                          "_type" : "ScreenVMFile",
                          "src" : 1,
                          "trackNumber" : 0,
                          "attributes" : {
                            "ident" : "录制日期 21-03-31"
                          },
                          "parameters" : {
                            "cursorScale" : {
                              "type" : "double",
                              "defaultValue" : 0.0,
                              "interp" : "linr"
                            },
                            "cursorOpacity" : {
                              "type" : "double",
                              "defaultValue" : 0.0,
                              "interp" : "linr"
                            }
                          },
                          "effects" : [

                          ],
                          "start" : 0,
                          "duration" : 886,
                          "mediaStart" : 0,
                          "mediaDuration" : 886,
                          "scalar" : 1,
                          "metadata" : {
                            "AutoAppliedSmartFocus" : "False",
                            "WinSubProjectDisplayName" : "",
                            "clipSpeedAttribute" : false
                          },
                          "animationTracks" : {

                          }
                        },
                        {
                          "id" : 121,
                          "_type" : "ScreenIMFile",
                          "src" : 1,
                          "trackNumber" : 0,
                          "trimStartSum" : 0,
                          "attributes" : {
                            "ident" : "录制日期 21-03-31"
                          },
                          "parameters" : {
                            "cursorOpacity" : {
                              "type" : "double",
                              "defaultValue" : 0.0,
                              "interp" : "linr"
                            },
                            "cursorScale" : {
                              "type" : "double",
                              "defaultValue" : 0.0,
                              "interp" : "linr"
                            }
                          },
                          "effects" : [

                          ],
                          "start" : 886,
                          "duration" : 120,
                          "mediaStart" : 885,
                          "mediaDuration" : 1,
                          "scalar" : 1,
                          "metadata" : {
                            "AutoAppliedSmartFocus" : "False",
                            "WinSubProjectDisplayName" : ""
                          },
                          "animationTracks" : {

                          }
                        },
                        {
                          "id" : 122,
                          "_type" : "ScreenVMFile",
                          "src" : 1,
                          "trackNumber" : 0,
                          "attributes" : {
                            "ident" : "录制日期 21-03-31"
                          },
                          "parameters" : {
                            "cursorScale" : {
                              "type" : "double",
                              "defaultValue" : 0.0,
                              "interp" : "linr"
                            },
                            "cursorOpacity" : {
                              "type" : "double",
                              "defaultValue" : 0.0,
                              "interp" : "linr"
                            }
                          },
                          "effects" : [

                          ],
                          "start" : 1006,
                          "duration" : 23949,
                          "mediaStart" : 886,
                          "mediaDuration" : 23949,
                          "scalar" : 1,
                          "metadata" : {
                            "AutoAppliedSmartFocus" : "False",
                            "WinSubProjectDisplayName" : "",
                            "clipSpeedAttribute" : false
                          },
                          "animationTracks" : {

                          }
                        }
                    ],
                    "effects" : [

                    ],
                    "start" : 3463,
                    "duration" : 132,
                    "mediaStart" : "349563/32",
                    "mediaDuration" : "1221/8",
                    "scalar" : "32/37",
                    "metadata" : {
                      "AutoAppliedSmartFocus" : "False",
                      "WinSubProjectDisplayName" : "",
                      "clipSpeedAttribute" : true
                    },
                    "animationTracks" : {

                    }
                  },
                  {
                    "id" : 123,
                    "_type" : "StitchedMedia",
                    "minMediaStart" : 0,
                    "attributes" : {
                      "ident" : "录制日期 21-03-31",
                      "gain" : 1.0,
                      "mixToMono" : false
                    },
                    "parameters" : {
                      "cursorOpacity" : {
                        "type" : "double",
                        "defaultValue" : 1.0,
                        "interp" : "linr"
                      },
                      "cursorScale" : {
                        "type" : "double",
                        "defaultValue" : 1.0,
                        "interp" : "linr"
                      }
                    },
                    "medias" : [
                        {
                          "id" : 124,
                          "_type" : "ScreenVMFile",
                          "src" : 1,
                          "trackNumber" : 0,
                          "attributes" : {
                            "ident" : "录制日期 21-03-31"
                          },
                          "parameters" : {
                            "cursorScale" : {
                              "type" : "double",
                              "defaultValue" : 0.0,
                              "interp" : "linr"
                            },
                            "cursorOpacity" : {
                              "type" : "double",
                              "defaultValue" : 0.0,
                              "interp" : "linr"
                            }
                          },
                          "effects" : [

                          ],
                          "start" : 0,
                          "duration" : 886,
                          "mediaStart" : 0,
                          "mediaDuration" : 886,
                          "scalar" : 1,
                          "metadata" : {
                            "AutoAppliedSmartFocus" : "False",
                            "WinSubProjectDisplayName" : "",
                            "clipSpeedAttribute" : false
                          },
                          "animationTracks" : {

                          }
                        },
                        {
                          "id" : 125,
                          "_type" : "ScreenIMFile",
                          "src" : 1,
                          "trackNumber" : 0,
                          "trimStartSum" : 0,
                          "attributes" : {
                            "ident" : "录制日期 21-03-31"
                          },
                          "parameters" : {
                            "cursorOpacity" : {
                              "type" : "double",
                              "defaultValue" : 0.0,
                              "interp" : "linr"
                            },
                            "cursorScale" : {
                              "type" : "double",
                              "defaultValue" : 0.0,
                              "interp" : "linr"
                            }
                          },
                          "effects" : [

                          ],
                          "start" : 886,
                          "duration" : 120,
                          "mediaStart" : 885,
                          "mediaDuration" : 1,
                          "scalar" : 1,
                          "metadata" : {
                            "AutoAppliedSmartFocus" : "False",
                            "WinSubProjectDisplayName" : ""
                          },
                          "animationTracks" : {

                          }
                        },
                        {
                          "id" : 126,
                          "_type" : "ScreenVMFile",
                          "src" : 1,
                          "trackNumber" : 0,
                          "attributes" : {
                            "ident" : "录制日期 21-03-31"
                          },
                          "parameters" : {
                            "cursorScale" : {
                              "type" : "double",
                              "defaultValue" : 0.0,
                              "interp" : "linr"
                            },
                            "cursorOpacity" : {
                              "type" : "double",
                              "defaultValue" : 0.0,
                              "interp" : "linr"
                            }
                          },
                          "effects" : [

                          ],
                          "start" : 1006,
                          "duration" : 23949,
                          "mediaStart" : 886,
                          "mediaDuration" : 23949,
                          "scalar" : 1,
                          "metadata" : {
                            "AutoAppliedSmartFocus" : "False",
                            "WinSubProjectDisplayName" : "",
                            "clipSpeedAttribute" : false
                          },
                          "animationTracks" : {

                          }
                        }
                    ],
                    "effects" : [

                    ],
                    "start" : 3595,
                    "duration" : 38,
                    "mediaStart" : "354447/32",
                    "mediaDuration" : "481/8",
                    "scalar" : "304/481",
                    "metadata" : {
                      "AutoAppliedSmartFocus" : "False",
                      "WinSubProjectDisplayName" : "",
                      "clipSpeedAttribute" : true
                    },
                    "animationTracks" : {

                    }
                  },
                  {
                    "id" : 127,
                    "_type" : "StitchedMedia",
                    "minMediaStart" : 0,
                    "attributes" : {
                      "ident" : "录制日期 21-03-31",
                      "gain" : 1.0,
                      "mixToMono" : false
                    },
                    "parameters" : {
                      "cursorOpacity" : {
                        "type" : "double",
                        "defaultValue" : 1.0,
                        "interp" : "linr"
                      },
                      "cursorScale" : {
                        "type" : "double",
                        "defaultValue" : 1.0,
                        "interp" : "linr"
                      }
                    },
                    "medias" : [
                        {
                          "id" : 128,
                          "_type" : "ScreenVMFile",
                          "src" : 1,
                          "trackNumber" : 0,
                          "attributes" : {
                            "ident" : "录制日期 21-03-31"
                          },
                          "parameters" : {
                            "cursorScale" : {
                              "type" : "double",
                              "defaultValue" : 0.0,
                              "interp" : "linr"
                            },
                            "cursorOpacity" : {
                              "type" : "double",
                              "defaultValue" : 0.0,
                              "interp" : "linr"
                            }
                          },
                          "effects" : [

                          ],
                          "start" : 0,
                          "duration" : 886,
                          "mediaStart" : 0,
                          "mediaDuration" : 886,
                          "scalar" : 1,
                          "metadata" : {
                            "AutoAppliedSmartFocus" : "False",
                            "WinSubProjectDisplayName" : "",
                            "clipSpeedAttribute" : false
                          },
                          "animationTracks" : {

                          }
                        },
                        {
                          "id" : 129,
                          "_type" : "ScreenIMFile",
                          "src" : 1,
                          "trackNumber" : 0,
                          "trimStartSum" : 0,
                          "attributes" : {
                            "ident" : "录制日期 21-03-31"
                          },
                          "parameters" : {
                            "cursorOpacity" : {
                              "type" : "double",
                              "defaultValue" : 0.0,
                              "interp" : "linr"
                            },
                            "cursorScale" : {
                              "type" : "double",
                              "defaultValue" : 0.0,
                              "interp" : "linr"
                            }
                          },
                          "effects" : [

                          ],
                          "start" : 886,
                          "duration" : 120,
                          "mediaStart" : 885,
                          "mediaDuration" : 1,
                          "scalar" : 1,
                          "metadata" : {
                            "AutoAppliedSmartFocus" : "False",
                            "WinSubProjectDisplayName" : ""
                          },
                          "animationTracks" : {

                          }
                        },
                        {
                          "id" : 130,
                          "_type" : "ScreenVMFile",
                          "src" : 1,
                          "trackNumber" : 0,
                          "attributes" : {
                            "ident" : "录制日期 21-03-31"
                          },
                          "parameters" : {
                            "cursorScale" : {
                              "type" : "double",
                              "defaultValue" : 0.0,
                              "interp" : "linr"
                            },
                            "cursorOpacity" : {
                              "type" : "double",
                              "defaultValue" : 0.0,
                              "interp" : "linr"
                            }
                          },
                          "effects" : [

                          ],
                          "start" : 1006,
                          "duration" : 23949,
                          "mediaStart" : 886,
                          "mediaDuration" : 23949,
                          "scalar" : 1,
                          "metadata" : {
                            "AutoAppliedSmartFocus" : "False",
                            "WinSubProjectDisplayName" : "",
                            "clipSpeedAttribute" : false
                          },
                          "animationTracks" : {

                          }
                        }
                    ],
                    "effects" : [

                    ],
                    "start" : 3633,
                    "duration" : 73,
                    "mediaStart" : "356371/32",
                    "mediaDuration" : "2701/32",
                    "scalar" : "32/37",
                    "metadata" : {
                      "AutoAppliedSmartFocus" : "False",
                      "WinSubProjectDisplayName" : "",
                      "clipSpeedAttribute" : true
                    },
                    "animationTracks" : {

                    }
                  },
                  {
                    "id" : 131,
                    "_type" : "StitchedMedia",
                    "minMediaStart" : 0,
                    "attributes" : {
                      "ident" : "录制日期 21-03-31",
                      "gain" : 1.0,
                      "mixToMono" : false
                    },
                    "parameters" : {
                      "cursorOpacity" : 1.0,
                      "cursorScale" : 1.0
                    },
                    "medias" : [
                        {
                          "id" : 132,
                          "_type" : "ScreenVMFile",
                          "src" : 1,
                          "trackNumber" : 0,
                          "attributes" : {
                            "ident" : "录制日期 21-03-31"
                          },
                          "parameters" : {
                            "cursorScale" : {
                              "type" : "double",
                              "defaultValue" : 0.0,
                              "interp" : "linr"
                            },
                            "cursorOpacity" : {
                              "type" : "double",
                              "defaultValue" : 0.0,
                              "interp" : "linr"
                            }
                          },
                          "effects" : [

                          ],
                          "start" : 0,
                          "duration" : 886,
                          "mediaStart" : 0,
                          "mediaDuration" : 886,
                          "scalar" : 1,
                          "metadata" : {
                            "AutoAppliedSmartFocus" : "False",
                            "WinSubProjectDisplayName" : "",
                            "clipSpeedAttribute" : false
                          },
                          "animationTracks" : {

                          }
                        },
                        {
                          "id" : 133,
                          "_type" : "ScreenIMFile",
                          "src" : 1,
                          "trackNumber" : 0,
                          "trimStartSum" : 0,
                          "attributes" : {
                            "ident" : "录制日期 21-03-31"
                          },
                          "parameters" : {
                            "cursorOpacity" : 0.0,
                            "cursorScale" : 0.0
                          },
                          "effects" : [

                          ],
                          "start" : 886,
                          "duration" : 120,
                          "mediaStart" : 885,
                          "mediaDuration" : 1,
                          "scalar" : 1,
                          "metadata" : {
                            "AutoAppliedSmartFocus" : "False",
                            "WinSubProjectDisplayName" : ""
                          },
                          "animationTracks" : {

                          }
                        },
                        {
                          "id" : 134,
                          "_type" : "ScreenVMFile",
                          "src" : 1,
                          "trackNumber" : 0,
                          "attributes" : {
                            "ident" : "录制日期 21-03-31"
                          },
                          "parameters" : {
                            "cursorScale" : {
                              "type" : "double",
                              "defaultValue" : 0.0,
                              "interp" : "linr"
                            },
                            "cursorOpacity" : {
                              "type" : "double",
                              "defaultValue" : 0.0,
                              "interp" : "linr"
                            }
                          },
                          "effects" : [

                          ],
                          "start" : 1006,
                          "duration" : 23949,
                          "mediaStart" : 886,
                          "mediaDuration" : 23949,
                          "scalar" : 1,
                          "metadata" : {
                            "AutoAppliedSmartFocus" : "False",
                            "WinSubProjectDisplayName" : "",
                            "clipSpeedAttribute" : false
                          },
                          "animationTracks" : {

                          }
                        }
                    ],
                    "effects" : [

                    ],
                    "start" : 3706,
                    "duration" : 126,
                    "mediaStart" : 11221,
                    "mediaDuration" : 189,
                    "scalar" : "2/3",
                    "metadata" : {
                      "AutoAppliedSmartFocus" : "False",
                      "WinSubProjectDisplayName" : "",
                      "clipSpeedAttribute" : true
                    },
                    "animationTracks" : {

                    }
                  },
                  {
                    "id" : 135,
                    "_type" : "StitchedMedia",
                    "minMediaStart" : 0,
                    "attributes" : {
                      "ident" : "录制日期 21-03-31",
                      "gain" : 1.0,
                      "mixToMono" : false
                    },
                    "parameters" : {
                      "cursorOpacity" : 1.0,
                      "cursorScale" : 1.0
                    },
                    "medias" : [
                        {
                          "id" : 136,
                          "_type" : "ScreenVMFile",
                          "src" : 1,
                          "trackNumber" : 0,
                          "attributes" : {
                            "ident" : "录制日期 21-03-31"
                          },
                          "parameters" : {
                            "cursorScale" : {
                              "type" : "double",
                              "defaultValue" : 0.0,
                              "interp" : "linr"
                            },
                            "cursorOpacity" : {
                              "type" : "double",
                              "defaultValue" : 0.0,
                              "interp" : "linr"
                            }
                          },
                          "effects" : [

                          ],
                          "start" : 0,
                          "duration" : 886,
                          "mediaStart" : 0,
                          "mediaDuration" : 886,
                          "scalar" : 1,
                          "metadata" : {
                            "AutoAppliedSmartFocus" : "False",
                            "WinSubProjectDisplayName" : "",
                            "clipSpeedAttribute" : false
                          },
                          "animationTracks" : {

                          }
                        },
                        {
                          "id" : 137,
                          "_type" : "ScreenIMFile",
                          "src" : 1,
                          "trackNumber" : 0,
                          "trimStartSum" : 0,
                          "attributes" : {
                            "ident" : "录制日期 21-03-31"
                          },
                          "parameters" : {
                            "cursorOpacity" : 0.0,
                            "cursorScale" : 0.0
                          },
                          "effects" : [

                          ],
                          "start" : 886,
                          "duration" : 120,
                          "mediaStart" : 885,
                          "mediaDuration" : 1,
                          "scalar" : 1,
                          "metadata" : {
                            "AutoAppliedSmartFocus" : "False",
                            "WinSubProjectDisplayName" : ""
                          },
                          "animationTracks" : {

                          }
                        },
                        {
                          "id" : 138,
                          "_type" : "ScreenVMFile",
                          "src" : 1,
                          "trackNumber" : 0,
                          "attributes" : {
                            "ident" : "录制日期 21-03-31"
                          },
                          "parameters" : {
                            "cursorScale" : {
                              "type" : "double",
                              "defaultValue" : 0.0,
                              "interp" : "linr"
                            },
                            "cursorOpacity" : {
                              "type" : "double",
                              "defaultValue" : 0.0,
                              "interp" : "linr"
                            }
                          },
                          "effects" : [

                          ],
                          "start" : 1006,
                          "duration" : 23949,
                          "mediaStart" : 886,
                          "mediaDuration" : 23949,
                          "scalar" : 1,
                          "metadata" : {
                            "AutoAppliedSmartFocus" : "False",
                            "WinSubProjectDisplayName" : "",
                            "clipSpeedAttribute" : false
                          },
                          "animationTracks" : {

                          }
                        }
                    ],
                    "effects" : [

                    ],
                    "start" : 3832,
                    "duration" : 39,
                    "mediaStart" : 11410,
                    "mediaDuration" : 77,
                    "scalar" : "39/77",
                    "metadata" : {
                      "AutoAppliedSmartFocus" : "False",
                      "WinSubProjectDisplayName" : "",
                      "clipSpeedAttribute" : true
                    },
                    "animationTracks" : {

                    }
                  },
                  {
                    "id" : 139,
                    "_type" : "StitchedMedia",
                    "minMediaStart" : 0,
                    "attributes" : {
                      "ident" : "录制日期 21-03-31",
                      "gain" : 1.0,
                      "mixToMono" : false
                    },
                    "parameters" : {
                      "cursorOpacity" : 1.0,
                      "cursorScale" : 1.0
                    },
                    "medias" : [
                        {
                          "id" : 140,
                          "_type" : "ScreenVMFile",
                          "src" : 1,
                          "trackNumber" : 0,
                          "attributes" : {
                            "ident" : "录制日期 21-03-31"
                          },
                          "parameters" : {
                            "cursorScale" : {
                              "type" : "double",
                              "defaultValue" : 0.0,
                              "interp" : "linr"
                            },
                            "cursorOpacity" : {
                              "type" : "double",
                              "defaultValue" : 0.0,
                              "interp" : "linr"
                            }
                          },
                          "effects" : [

                          ],
                          "start" : 0,
                          "duration" : 886,
                          "mediaStart" : 0,
                          "mediaDuration" : 886,
                          "scalar" : 1,
                          "metadata" : {
                            "AutoAppliedSmartFocus" : "False",
                            "WinSubProjectDisplayName" : "",
                            "clipSpeedAttribute" : false
                          },
                          "animationTracks" : {

                          }
                        },
                        {
                          "id" : 141,
                          "_type" : "ScreenIMFile",
                          "src" : 1,
                          "trackNumber" : 0,
                          "trimStartSum" : 0,
                          "attributes" : {
                            "ident" : "录制日期 21-03-31"
                          },
                          "parameters" : {
                            "cursorOpacity" : 0.0,
                            "cursorScale" : 0.0
                          },
                          "effects" : [

                          ],
                          "start" : 886,
                          "duration" : 120,
                          "mediaStart" : 885,
                          "mediaDuration" : 1,
                          "scalar" : 1,
                          "metadata" : {
                            "AutoAppliedSmartFocus" : "False",
                            "WinSubProjectDisplayName" : ""
                          },
                          "animationTracks" : {

                          }
                        },
                        {
                          "id" : 142,
                          "_type" : "ScreenVMFile",
                          "src" : 1,
                          "trackNumber" : 0,
                          "attributes" : {
                            "ident" : "录制日期 21-03-31"
                          },
                          "parameters" : {
                            "cursorScale" : {
                              "type" : "double",
                              "defaultValue" : 0.0,
                              "interp" : "linr"
                            },
                            "cursorOpacity" : {
                              "type" : "double",
                              "defaultValue" : 0.0,
                              "interp" : "linr"
                            }
                          },
                          "effects" : [

                          ],
                          "start" : 1006,
                          "duration" : 23949,
                          "mediaStart" : 886,
                          "mediaDuration" : 23949,
                          "scalar" : 1,
                          "metadata" : {
                            "AutoAppliedSmartFocus" : "False",
                            "WinSubProjectDisplayName" : "",
                            "clipSpeedAttribute" : false
                          },
                          "animationTracks" : {

                          }
                        }
                    ],
                    "effects" : [

                    ],
                    "start" : 3871,
                    "duration" : 25,
                    "mediaStart" : 11487,
                    "mediaDuration" : "26565/263",
                    "scalar" : "1315/5313",
                    "metadata" : {
                      "AutoAppliedSmartFocus" : "False",
                      "WinSubProjectDisplayName" : "",
                      "clipSpeedAttribute" : true
                    },
                    "animationTracks" : {

                    }
                  },
                  {
                    "id" : 143,
                    "_type" : "StitchedMedia",
                    "minMediaStart" : 0,
                    "attributes" : {
                      "ident" : "录制日期 21-03-31",
                      "gain" : 1.0,
                      "mixToMono" : false
                    },
                    "parameters" : {
                      "cursorOpacity" : {
                        "type" : "double",
                        "defaultValue" : 1.0,
                        "interp" : "linr"
                      },
                      "cursorScale" : {
                        "type" : "double",
                        "defaultValue" : 1.0,
                        "interp" : "linr"
                      }
                    },
                    "medias" : [
                        {
                          "id" : 144,
                          "_type" : "ScreenVMFile",
                          "src" : 1,
                          "trackNumber" : 0,
                          "attributes" : {
                            "ident" : "录制日期 21-03-31"
                          },
                          "parameters" : {
                            "cursorScale" : {
                              "type" : "double",
                              "defaultValue" : 0.0,
                              "interp" : "linr"
                            },
                            "cursorOpacity" : {
                              "type" : "double",
                              "defaultValue" : 0.0,
                              "interp" : "linr"
                            }
                          },
                          "effects" : [

                          ],
                          "start" : 0,
                          "duration" : 886,
                          "mediaStart" : 0,
                          "mediaDuration" : 886,
                          "scalar" : 1,
                          "metadata" : {
                            "AutoAppliedSmartFocus" : "False",
                            "WinSubProjectDisplayName" : "",
                            "clipSpeedAttribute" : false
                          },
                          "animationTracks" : {

                          }
                        },
                        {
                          "id" : 145,
                          "_type" : "ScreenIMFile",
                          "src" : 1,
                          "trackNumber" : 0,
                          "trimStartSum" : 0,
                          "attributes" : {
                            "ident" : "录制日期 21-03-31"
                          },
                          "parameters" : {
                            "cursorOpacity" : {
                              "type" : "double",
                              "defaultValue" : 0.0,
                              "interp" : "linr"
                            },
                            "cursorScale" : {
                              "type" : "double",
                              "defaultValue" : 0.0,
                              "interp" : "linr"
                            }
                          },
                          "effects" : [

                          ],
                          "start" : 886,
                          "duration" : 120,
                          "mediaStart" : 885,
                          "mediaDuration" : 1,
                          "scalar" : 1,
                          "metadata" : {
                            "AutoAppliedSmartFocus" : "False",
                            "WinSubProjectDisplayName" : ""
                          },
                          "animationTracks" : {

                          }
                        },
                        {
                          "id" : 146,
                          "_type" : "ScreenVMFile",
                          "src" : 1,
                          "trackNumber" : 0,
                          "attributes" : {
                            "ident" : "录制日期 21-03-31"
                          },
                          "parameters" : {
                            "cursorScale" : {
                              "type" : "double",
                              "defaultValue" : 0.0,
                              "interp" : "linr"
                            },
                            "cursorOpacity" : {
                              "type" : "double",
                              "defaultValue" : 0.0,
                              "interp" : "linr"
                            }
                          },
                          "effects" : [

                          ],
                          "start" : 1006,
                          "duration" : 23949,
                          "mediaStart" : 886,
                          "mediaDuration" : 23949,
                          "scalar" : 1,
                          "metadata" : {
                            "AutoAppliedSmartFocus" : "False",
                            "WinSubProjectDisplayName" : "",
                            "clipSpeedAttribute" : false
                          },
                          "animationTracks" : {

                          }
                        }
                    ],
                    "effects" : [

                    ],
                    "start" : 3896,
                    "duration" : 25,
                    "mediaStart" : "3103191/263",
                    "mediaDuration" : "8625/263",
                    "scalar" : "263/345",
                    "metadata" : {
                      "AutoAppliedSmartFocus" : "False",
                      "WinSubProjectDisplayName" : "",
                      "clipSpeedAttribute" : true
                    },
                    "animationTracks" : {

                    }
                  },
                  {
                    "id" : 147,
                    "_type" : "StitchedMedia",
                    "minMediaStart" : 0,
                    "attributes" : {
                      "ident" : "录制日期 21-03-31",
                      "gain" : 1.0,
                      "mixToMono" : false
                    },
                    "parameters" : {
                      "cursorOpacity" : 1.0,
                      "cursorScale" : 1.0
                    },
                    "medias" : [
                        {
                          "id" : 148,
                          "_type" : "ScreenVMFile",
                          "src" : 1,
                          "trackNumber" : 0,
                          "attributes" : {
                            "ident" : "录制日期 21-03-31"
                          },
                          "parameters" : {
                            "cursorScale" : {
                              "type" : "double",
                              "defaultValue" : 0.0,
                              "interp" : "linr"
                            },
                            "cursorOpacity" : {
                              "type" : "double",
                              "defaultValue" : 0.0,
                              "interp" : "linr"
                            }
                          },
                          "effects" : [

                          ],
                          "start" : 0,
                          "duration" : 886,
                          "mediaStart" : 0,
                          "mediaDuration" : 886,
                          "scalar" : 1,
                          "metadata" : {
                            "AutoAppliedSmartFocus" : "False",
                            "WinSubProjectDisplayName" : "",
                            "clipSpeedAttribute" : false
                          },
                          "animationTracks" : {

                          }
                        },
                        {
                          "id" : 149,
                          "_type" : "ScreenIMFile",
                          "src" : 1,
                          "trackNumber" : 0,
                          "trimStartSum" : 0,
                          "attributes" : {
                            "ident" : "录制日期 21-03-31"
                          },
                          "parameters" : {
                            "cursorOpacity" : 0.0,
                            "cursorScale" : 0.0
                          },
                          "effects" : [

                          ],
                          "start" : 886,
                          "duration" : 120,
                          "mediaStart" : 885,
                          "mediaDuration" : 1,
                          "scalar" : 1,
                          "metadata" : {
                            "AutoAppliedSmartFocus" : "False",
                            "WinSubProjectDisplayName" : ""
                          },
                          "animationTracks" : {

                          }
                        },
                        {
                          "id" : 150,
                          "_type" : "ScreenVMFile",
                          "src" : 1,
                          "trackNumber" : 0,
                          "attributes" : {
                            "ident" : "录制日期 21-03-31"
                          },
                          "parameters" : {
                            "cursorScale" : {
                              "type" : "double",
                              "defaultValue" : 0.0,
                              "interp" : "linr"
                            },
                            "cursorOpacity" : {
                              "type" : "double",
                              "defaultValue" : 0.0,
                              "interp" : "linr"
                            }
                          },
                          "effects" : [

                          ],
                          "start" : 1006,
                          "duration" : 23949,
                          "mediaStart" : 886,
                          "mediaDuration" : 23949,
                          "scalar" : 1,
                          "metadata" : {
                            "AutoAppliedSmartFocus" : "False",
                            "WinSubProjectDisplayName" : "",
                            "clipSpeedAttribute" : false
                          },
                          "animationTracks" : {

                          }
                        }
                    ],
                    "effects" : [

                    ],
                    "start" : 3921,
                    "duration" : 17,
                    "mediaStart" : 12194,
                    "mediaDuration" : 73,
                    "scalar" : "17/73",
                    "metadata" : {
                      "AutoAppliedSmartFocus" : "False",
                      "WinSubProjectDisplayName" : "",
                      "clipSpeedAttribute" : true
                    },
                    "animationTracks" : {

                    }
                  },
                  {
                    "id" : 151,
                    "_type" : "StitchedMedia",
                    "minMediaStart" : 0,
                    "attributes" : {
                      "ident" : "录制日期 21-03-31",
                      "gain" : 1.0,
                      "mixToMono" : false
                    },
                    "parameters" : {
                      "cursorOpacity" : 1.0,
                      "cursorScale" : 1.0
                    },
                    "medias" : [
                        {
                          "id" : 152,
                          "_type" : "ScreenVMFile",
                          "src" : 1,
                          "trackNumber" : 0,
                          "attributes" : {
                            "ident" : "录制日期 21-03-31"
                          },
                          "parameters" : {
                            "cursorScale" : {
                              "type" : "double",
                              "defaultValue" : 0.0,
                              "interp" : "linr"
                            },
                            "cursorOpacity" : {
                              "type" : "double",
                              "defaultValue" : 0.0,
                              "interp" : "linr"
                            }
                          },
                          "effects" : [

                          ],
                          "start" : 0,
                          "duration" : 886,
                          "mediaStart" : 0,
                          "mediaDuration" : 886,
                          "scalar" : 1,
                          "metadata" : {
                            "AutoAppliedSmartFocus" : "False",
                            "WinSubProjectDisplayName" : "",
                            "clipSpeedAttribute" : false
                          },
                          "animationTracks" : {

                          }
                        },
                        {
                          "id" : 153,
                          "_type" : "ScreenIMFile",
                          "src" : 1,
                          "trackNumber" : 0,
                          "trimStartSum" : 0,
                          "attributes" : {
                            "ident" : "录制日期 21-03-31"
                          },
                          "parameters" : {
                            "cursorOpacity" : 0.0,
                            "cursorScale" : 0.0
                          },
                          "effects" : [

                          ],
                          "start" : 886,
                          "duration" : 120,
                          "mediaStart" : 885,
                          "mediaDuration" : 1,
                          "scalar" : 1,
                          "metadata" : {
                            "AutoAppliedSmartFocus" : "False",
                            "WinSubProjectDisplayName" : ""
                          },
                          "animationTracks" : {

                          }
                        },
                        {
                          "id" : 154,
                          "_type" : "ScreenVMFile",
                          "src" : 1,
                          "trackNumber" : 0,
                          "attributes" : {
                            "ident" : "录制日期 21-03-31"
                          },
                          "parameters" : {
                            "cursorScale" : {
                              "type" : "double",
                              "defaultValue" : 0.0,
                              "interp" : "linr"
                            },
                            "cursorOpacity" : {
                              "type" : "double",
                              "defaultValue" : 0.0,
                              "interp" : "linr"
                            }
                          },
                          "effects" : [

                          ],
                          "start" : 1006,
                          "duration" : 23949,
                          "mediaStart" : 886,
                          "mediaDuration" : 23949,
                          "scalar" : 1,
                          "metadata" : {
                            "AutoAppliedSmartFocus" : "False",
                            "WinSubProjectDisplayName" : "",
                            "clipSpeedAttribute" : false
                          },
                          "animationTracks" : {

                          }
                        }
                    ],
                    "effects" : [

                    ],
                    "start" : 3938,
                    "duration" : 51,
                    "mediaStart" : 12510,
                    "mediaDuration" : 125,
                    "scalar" : "51/125",
                    "metadata" : {
                      "AutoAppliedSmartFocus" : "False",
                      "WinSubProjectDisplayName" : "",
                      "clipSpeedAttribute" : true
                    },
                    "animationTracks" : {

                    }
                  },
                  {
                    "id" : 155,
                    "_type" : "StitchedMedia",
                    "minMediaStart" : 0,
                    "attributes" : {
                      "ident" : "录制日期 21-03-31",
                      "gain" : 1.0,
                      "mixToMono" : false
                    },
                    "parameters" : {
                      "cursorOpacity" : 1.0,
                      "cursorScale" : 1.0
                    },
                    "medias" : [
                        {
                          "id" : 156,
                          "_type" : "ScreenVMFile",
                          "src" : 1,
                          "trackNumber" : 0,
                          "attributes" : {
                            "ident" : "录制日期 21-03-31"
                          },
                          "parameters" : {
                            "cursorScale" : {
                              "type" : "double",
                              "defaultValue" : 0.0,
                              "interp" : "linr"
                            },
                            "cursorOpacity" : {
                              "type" : "double",
                              "defaultValue" : 0.0,
                              "interp" : "linr"
                            }
                          },
                          "effects" : [

                          ],
                          "start" : 0,
                          "duration" : 886,
                          "mediaStart" : 0,
                          "mediaDuration" : 886,
                          "scalar" : 1,
                          "metadata" : {
                            "AutoAppliedSmartFocus" : "False",
                            "WinSubProjectDisplayName" : "",
                            "clipSpeedAttribute" : false
                          },
                          "animationTracks" : {

                          }
                        },
                        {
                          "id" : 157,
                          "_type" : "ScreenIMFile",
                          "src" : 1,
                          "trackNumber" : 0,
                          "trimStartSum" : 0,
                          "attributes" : {
                            "ident" : "录制日期 21-03-31"
                          },
                          "parameters" : {
                            "cursorOpacity" : 0.0,
                            "cursorScale" : 0.0
                          },
                          "effects" : [

                          ],
                          "start" : 886,
                          "duration" : 120,
                          "mediaStart" : 885,
                          "mediaDuration" : 1,
                          "scalar" : 1,
                          "metadata" : {
                            "AutoAppliedSmartFocus" : "False",
                            "WinSubProjectDisplayName" : ""
                          },
                          "animationTracks" : {

                          }
                        },
                        {
                          "id" : 158,
                          "_type" : "ScreenVMFile",
                          "src" : 1,
                          "trackNumber" : 0,
                          "attributes" : {
                            "ident" : "录制日期 21-03-31"
                          },
                          "parameters" : {
                            "cursorScale" : {
                              "type" : "double",
                              "defaultValue" : 0.0,
                              "interp" : "linr"
                            },
                            "cursorOpacity" : {
                              "type" : "double",
                              "defaultValue" : 0.0,
                              "interp" : "linr"
                            }
                          },
                          "effects" : [

                          ],
                          "start" : 1006,
                          "duration" : 23949,
                          "mediaStart" : 886,
                          "mediaDuration" : 23949,
                          "scalar" : 1,
                          "metadata" : {
                            "AutoAppliedSmartFocus" : "False",
                            "WinSubProjectDisplayName" : "",
                            "clipSpeedAttribute" : false
                          },
                          "animationTracks" : {

                          }
                        }
                    ],
                    "effects" : [

                    ],
                    "start" : 3989,
                    "duration" : 19,
                    "mediaStart" : 12635,
                    "mediaDuration" : 19,
                    "scalar" : 1,
                    "metadata" : {
                      "AutoAppliedSmartFocus" : "False",
                      "WinSubProjectDisplayName" : "",
                      "clipSpeedAttribute" : false
                    },
                    "animationTracks" : {

                    }
                  },
                  {
                    "id" : 159,
                    "_type" : "StitchedMedia",
                    "minMediaStart" : 0,
                    "attributes" : {
                      "ident" : "录制日期 21-03-31",
                      "gain" : 1.0,
                      "mixToMono" : false
                    },
                    "parameters" : {
                      "cursorOpacity" : 1.0,
                      "cursorScale" : 1.0
                    },
                    "medias" : [
                        {
                          "id" : 160,
                          "_type" : "ScreenVMFile",
                          "src" : 1,
                          "trackNumber" : 0,
                          "attributes" : {
                            "ident" : "录制日期 21-03-31"
                          },
                          "parameters" : {
                            "cursorScale" : {
                              "type" : "double",
                              "defaultValue" : 0.0,
                              "interp" : "linr"
                            },
                            "cursorOpacity" : {
                              "type" : "double",
                              "defaultValue" : 0.0,
                              "interp" : "linr"
                            }
                          },
                          "effects" : [

                          ],
                          "start" : 0,
                          "duration" : 886,
                          "mediaStart" : 0,
                          "mediaDuration" : 886,
                          "scalar" : 1,
                          "metadata" : {
                            "AutoAppliedSmartFocus" : "False",
                            "WinSubProjectDisplayName" : "",
                            "clipSpeedAttribute" : false
                          },
                          "animationTracks" : {

                          }
                        },
                        {
                          "id" : 161,
                          "_type" : "ScreenIMFile",
                          "src" : 1,
                          "trackNumber" : 0,
                          "trimStartSum" : 0,
                          "attributes" : {
                            "ident" : "录制日期 21-03-31"
                          },
                          "parameters" : {
                            "cursorOpacity" : 0.0,
                            "cursorScale" : 0.0
                          },
                          "effects" : [

                          ],
                          "start" : 886,
                          "duration" : 120,
                          "mediaStart" : 885,
                          "mediaDuration" : 1,
                          "scalar" : 1,
                          "metadata" : {
                            "AutoAppliedSmartFocus" : "False",
                            "WinSubProjectDisplayName" : ""
                          },
                          "animationTracks" : {

                          }
                        },
                        {
                          "id" : 162,
                          "_type" : "ScreenVMFile",
                          "src" : 1,
                          "trackNumber" : 0,
                          "attributes" : {
                            "ident" : "录制日期 21-03-31"
                          },
                          "parameters" : {
                            "cursorScale" : {
                              "type" : "double",
                              "defaultValue" : 0.0,
                              "interp" : "linr"
                            },
                            "cursorOpacity" : {
                              "type" : "double",
                              "defaultValue" : 0.0,
                              "interp" : "linr"
                            }
                          },
                          "effects" : [

                          ],
                          "start" : 1006,
                          "duration" : 23949,
                          "mediaStart" : 886,
                          "mediaDuration" : 23949,
                          "scalar" : 1,
                          "metadata" : {
                            "AutoAppliedSmartFocus" : "False",
                            "WinSubProjectDisplayName" : "",
                            "clipSpeedAttribute" : false
                          },
                          "animationTracks" : {

                          }
                        }
                    ],
                    "effects" : [

                    ],
                    "start" : 4008,
                    "duration" : 57,
                    "mediaStart" : 12907,
                    "mediaDuration" : 131,
                    "scalar" : "57/131",
                    "metadata" : {
                      "AutoAppliedSmartFocus" : "False",
                      "WinSubProjectDisplayName" : "",
                      "clipSpeedAttribute" : true
                    },
                    "animationTracks" : {

                    }
                  },
                  {
                    "id" : 163,
                    "_type" : "StitchedMedia",
                    "minMediaStart" : 0,
                    "attributes" : {
                      "ident" : "录制日期 21-03-31",
                      "gain" : 1.0,
                      "mixToMono" : false
                    },
                    "parameters" : {
                      "cursorOpacity" : 1.0,
                      "cursorScale" : 1.0
                    },
                    "medias" : [
                        {
                          "id" : 164,
                          "_type" : "ScreenVMFile",
                          "src" : 1,
                          "trackNumber" : 0,
                          "attributes" : {
                            "ident" : "录制日期 21-03-31"
                          },
                          "parameters" : {
                            "cursorScale" : {
                              "type" : "double",
                              "defaultValue" : 0.0,
                              "interp" : "linr"
                            },
                            "cursorOpacity" : {
                              "type" : "double",
                              "defaultValue" : 0.0,
                              "interp" : "linr"
                            }
                          },
                          "effects" : [

                          ],
                          "start" : 0,
                          "duration" : 886,
                          "mediaStart" : 0,
                          "mediaDuration" : 886,
                          "scalar" : 1,
                          "metadata" : {
                            "AutoAppliedSmartFocus" : "False",
                            "WinSubProjectDisplayName" : "",
                            "clipSpeedAttribute" : false
                          },
                          "animationTracks" : {

                          }
                        },
                        {
                          "id" : 165,
                          "_type" : "ScreenIMFile",
                          "src" : 1,
                          "trackNumber" : 0,
                          "trimStartSum" : 0,
                          "attributes" : {
                            "ident" : "录制日期 21-03-31"
                          },
                          "parameters" : {
                            "cursorOpacity" : 0.0,
                            "cursorScale" : 0.0
                          },
                          "effects" : [

                          ],
                          "start" : 886,
                          "duration" : 120,
                          "mediaStart" : 885,
                          "mediaDuration" : 1,
                          "scalar" : 1,
                          "metadata" : {
                            "AutoAppliedSmartFocus" : "False",
                            "WinSubProjectDisplayName" : ""
                          },
                          "animationTracks" : {

                          }
                        },
                        {
                          "id" : 166,
                          "_type" : "ScreenVMFile",
                          "src" : 1,
                          "trackNumber" : 0,
                          "attributes" : {
                            "ident" : "录制日期 21-03-31"
                          },
                          "parameters" : {
                            "cursorScale" : {
                              "type" : "double",
                              "defaultValue" : 0.0,
                              "interp" : "linr"
                            },
                            "cursorOpacity" : {
                              "type" : "double",
                              "defaultValue" : 0.0,
                              "interp" : "linr"
                            }
                          },
                          "effects" : [

                          ],
                          "start" : 1006,
                          "duration" : 23949,
                          "mediaStart" : 886,
                          "mediaDuration" : 23949,
                          "scalar" : 1,
                          "metadata" : {
                            "AutoAppliedSmartFocus" : "False",
                            "WinSubProjectDisplayName" : "",
                            "clipSpeedAttribute" : false
                          },
                          "animationTracks" : {

                          }
                        }
                    ],
                    "effects" : [

                    ],
                    "start" : 4065,
                    "duration" : 78,
                    "mediaStart" : 13232,
                    "mediaDuration" : 78,
                    "scalar" : 1,
                    "metadata" : {
                      "AutoAppliedSmartFocus" : "False",
                      "WinSubProjectDisplayName" : "",
                      "clipSpeedAttribute" : false
                    },
                    "animationTracks" : {

                    }
                  },
                  {
                    "id" : 167,
                    "_type" : "StitchedMedia",
                    "minMediaStart" : 0,
                    "attributes" : {
                      "ident" : "录制日期 21-03-31",
                      "gain" : 1.0,
                      "mixToMono" : false
                    },
                    "parameters" : {
                      "cursorOpacity" : {
                        "type" : "double",
                        "defaultValue" : 1.0,
                        "interp" : "linr"
                      },
                      "cursorScale" : {
                        "type" : "double",
                        "defaultValue" : 1.0,
                        "interp" : "linr"
                      }
                    },
                    "medias" : [
                        {
                          "id" : 168,
                          "_type" : "ScreenVMFile",
                          "src" : 1,
                          "trackNumber" : 0,
                          "attributes" : {
                            "ident" : "录制日期 21-03-31"
                          },
                          "parameters" : {
                            "cursorScale" : {
                              "type" : "double",
                              "defaultValue" : 0.0,
                              "interp" : "linr"
                            },
                            "cursorOpacity" : {
                              "type" : "double",
                              "defaultValue" : 0.0,
                              "interp" : "linr"
                            }
                          },
                          "effects" : [

                          ],
                          "start" : 0,
                          "duration" : 886,
                          "mediaStart" : 0,
                          "mediaDuration" : 886,
                          "scalar" : 1,
                          "metadata" : {
                            "AutoAppliedSmartFocus" : "False",
                            "WinSubProjectDisplayName" : "",
                            "clipSpeedAttribute" : false
                          },
                          "animationTracks" : {

                          }
                        },
                        {
                          "id" : 169,
                          "_type" : "ScreenIMFile",
                          "src" : 1,
                          "trackNumber" : 0,
                          "trimStartSum" : 0,
                          "attributes" : {
                            "ident" : "录制日期 21-03-31"
                          },
                          "parameters" : {
                            "cursorOpacity" : {
                              "type" : "double",
                              "defaultValue" : 0.0,
                              "interp" : "linr"
                            },
                            "cursorScale" : {
                              "type" : "double",
                              "defaultValue" : 0.0,
                              "interp" : "linr"
                            }
                          },
                          "effects" : [

                          ],
                          "start" : 886,
                          "duration" : 120,
                          "mediaStart" : 885,
                          "mediaDuration" : 1,
                          "scalar" : 1,
                          "metadata" : {
                            "AutoAppliedSmartFocus" : "False",
                            "WinSubProjectDisplayName" : ""
                          },
                          "animationTracks" : {

                          }
                        },
                        {
                          "id" : 170,
                          "_type" : "ScreenVMFile",
                          "src" : 1,
                          "trackNumber" : 0,
                          "attributes" : {
                            "ident" : "录制日期 21-03-31"
                          },
                          "parameters" : {
                            "cursorScale" : {
                              "type" : "double",
                              "defaultValue" : 0.0,
                              "interp" : "linr"
                            },
                            "cursorOpacity" : {
                              "type" : "double",
                              "defaultValue" : 0.0,
                              "interp" : "linr"
                            }
                          },
                          "effects" : [

                          ],
                          "start" : 1006,
                          "duration" : 23949,
                          "mediaStart" : 886,
                          "mediaDuration" : 23949,
                          "scalar" : 1,
                          "metadata" : {
                            "AutoAppliedSmartFocus" : "False",
                            "WinSubProjectDisplayName" : "",
                            "clipSpeedAttribute" : false
                          },
                          "animationTracks" : {

                          }
                        }
                    ],
                    "effects" : [

                    ],
                    "start" : 4143,
                    "duration" : 23,
                    "mediaStart" : 13310,
                    "mediaDuration" : 46,
                    "scalar" : "1/2",
                    "metadata" : {
                      "AutoAppliedSmartFocus" : "False",
                      "WinSubProjectDisplayName" : "",
                      "clipSpeedAttribute" : true
                    },
                    "animationTracks" : {

                    }
                  },
                  {
                    "id" : 171,
                    "_type" : "StitchedMedia",
                    "minMediaStart" : 0,
                    "attributes" : {
                      "ident" : "录制日期 21-03-31",
                      "gain" : 1.0,
                      "mixToMono" : false
                    },
                    "parameters" : {
                      "cursorOpacity" : 1.0,
                      "cursorScale" : 1.0
                    },
                    "medias" : [
                        {
                          "id" : 172,
                          "_type" : "ScreenVMFile",
                          "src" : 1,
                          "trackNumber" : 0,
                          "attributes" : {
                            "ident" : "录制日期 21-03-31"
                          },
                          "parameters" : {
                            "cursorScale" : {
                              "type" : "double",
                              "defaultValue" : 0.0,
                              "interp" : "linr"
                            },
                            "cursorOpacity" : {
                              "type" : "double",
                              "defaultValue" : 0.0,
                              "interp" : "linr"
                            }
                          },
                          "effects" : [

                          ],
                          "start" : 0,
                          "duration" : 886,
                          "mediaStart" : 0,
                          "mediaDuration" : 886,
                          "scalar" : 1,
                          "metadata" : {
                            "AutoAppliedSmartFocus" : "False",
                            "WinSubProjectDisplayName" : "",
                            "clipSpeedAttribute" : false
                          },
                          "animationTracks" : {

                          }
                        },
                        {
                          "id" : 173,
                          "_type" : "ScreenIMFile",
                          "src" : 1,
                          "trackNumber" : 0,
                          "trimStartSum" : 0,
                          "attributes" : {
                            "ident" : "录制日期 21-03-31"
                          },
                          "parameters" : {
                            "cursorOpacity" : 0.0,
                            "cursorScale" : 0.0
                          },
                          "effects" : [

                          ],
                          "start" : 886,
                          "duration" : 120,
                          "mediaStart" : 885,
                          "mediaDuration" : 1,
                          "scalar" : 1,
                          "metadata" : {
                            "AutoAppliedSmartFocus" : "False",
                            "WinSubProjectDisplayName" : ""
                          },
                          "animationTracks" : {

                          }
                        },
                        {
                          "id" : 174,
                          "_type" : "ScreenVMFile",
                          "src" : 1,
                          "trackNumber" : 0,
                          "attributes" : {
                            "ident" : "录制日期 21-03-31"
                          },
                          "parameters" : {
                            "cursorScale" : {
                              "type" : "double",
                              "defaultValue" : 0.0,
                              "interp" : "linr"
                            },
                            "cursorOpacity" : {
                              "type" : "double",
                              "defaultValue" : 0.0,
                              "interp" : "linr"
                            }
                          },
                          "effects" : [

                          ],
                          "start" : 1006,
                          "duration" : 23949,
                          "mediaStart" : 886,
                          "mediaDuration" : 23949,
                          "scalar" : 1,
                          "metadata" : {
                            "AutoAppliedSmartFocus" : "False",
                            "WinSubProjectDisplayName" : "",
                            "clipSpeedAttribute" : false
                          },
                          "animationTracks" : {

                          }
                        }
                    ],
                    "effects" : [

                    ],
                    "start" : 4166,
                    "duration" : 43,
                    "mediaStart" : 13579,
                    "mediaDuration" : 128,
                    "scalar" : "43/128",
                    "metadata" : {
                      "AutoAppliedSmartFocus" : "False",
                      "WinSubProjectDisplayName" : "",
                      "clipSpeedAttribute" : true
                    },
                    "animationTracks" : {

                    }
                  },
                  {
                    "id" : 175,
                    "_type" : "StitchedMedia",
                    "minMediaStart" : 0,
                    "attributes" : {
                      "ident" : "录制日期 21-03-31",
                      "gain" : 1.0,
                      "mixToMono" : false
                    },
                    "parameters" : {
                      "cursorOpacity" : 1.0,
                      "cursorScale" : 1.0
                    },
                    "medias" : [
                        {
                          "id" : 176,
                          "_type" : "ScreenVMFile",
                          "src" : 1,
                          "trackNumber" : 0,
                          "attributes" : {
                            "ident" : "录制日期 21-03-31"
                          },
                          "parameters" : {
                            "cursorScale" : {
                              "type" : "double",
                              "defaultValue" : 0.0,
                              "interp" : "linr"
                            },
                            "cursorOpacity" : {
                              "type" : "double",
                              "defaultValue" : 0.0,
                              "interp" : "linr"
                            }
                          },
                          "effects" : [

                          ],
                          "start" : 0,
                          "duration" : 886,
                          "mediaStart" : 0,
                          "mediaDuration" : 886,
                          "scalar" : 1,
                          "metadata" : {
                            "AutoAppliedSmartFocus" : "False",
                            "WinSubProjectDisplayName" : "",
                            "clipSpeedAttribute" : false
                          },
                          "animationTracks" : {

                          }
                        },
                        {
                          "id" : 177,
                          "_type" : "ScreenIMFile",
                          "src" : 1,
                          "trackNumber" : 0,
                          "trimStartSum" : 0,
                          "attributes" : {
                            "ident" : "录制日期 21-03-31"
                          },
                          "parameters" : {
                            "cursorOpacity" : 0.0,
                            "cursorScale" : 0.0
                          },
                          "effects" : [

                          ],
                          "start" : 886,
                          "duration" : 120,
                          "mediaStart" : 885,
                          "mediaDuration" : 1,
                          "scalar" : 1,
                          "metadata" : {
                            "AutoAppliedSmartFocus" : "False",
                            "WinSubProjectDisplayName" : ""
                          },
                          "animationTracks" : {

                          }
                        },
                        {
                          "id" : 178,
                          "_type" : "ScreenVMFile",
                          "src" : 1,
                          "trackNumber" : 0,
                          "attributes" : {
                            "ident" : "录制日期 21-03-31"
                          },
                          "parameters" : {
                            "cursorScale" : {
                              "type" : "double",
                              "defaultValue" : 0.0,
                              "interp" : "linr"
                            },
                            "cursorOpacity" : {
                              "type" : "double",
                              "defaultValue" : 0.0,
                              "interp" : "linr"
                            }
                          },
                          "effects" : [

                          ],
                          "start" : 1006,
                          "duration" : 23949,
                          "mediaStart" : 886,
                          "mediaDuration" : 23949,
                          "scalar" : 1,
                          "metadata" : {
                            "AutoAppliedSmartFocus" : "False",
                            "WinSubProjectDisplayName" : "",
                            "clipSpeedAttribute" : false
                          },
                          "animationTracks" : {

                          }
                        }
                    ],
                    "effects" : [

                    ],
                    "start" : 4209,
                    "duration" : 34,
                    "mediaStart" : 13707,
                    "mediaDuration" : 1668,
                    "scalar" : "17/834",
                    "metadata" : {
                      "AutoAppliedSmartFocus" : "False",
                      "WinSubProjectDisplayName" : "",
                      "clipSpeedAttribute" : true
                    },
                    "animationTracks" : {

                    }
                  },
                  {
                    "id" : 179,
                    "_type" : "StitchedMedia",
                    "minMediaStart" : 0,
                    "attributes" : {
                      "ident" : "录制日期 21-03-31",
                      "gain" : 1.0,
                      "mixToMono" : false
                    },
                    "parameters" : {
                      "cursorOpacity" : 1.0,
                      "cursorScale" : 1.0
                    },
                    "medias" : [
                        {
                          "id" : 180,
                          "_type" : "ScreenVMFile",
                          "src" : 1,
                          "trackNumber" : 0,
                          "attributes" : {
                            "ident" : "录制日期 21-03-31"
                          },
                          "parameters" : {
                            "cursorScale" : {
                              "type" : "double",
                              "defaultValue" : 0.0,
                              "interp" : "linr"
                            },
                            "cursorOpacity" : {
                              "type" : "double",
                              "defaultValue" : 0.0,
                              "interp" : "linr"
                            }
                          },
                          "effects" : [

                          ],
                          "start" : 0,
                          "duration" : 886,
                          "mediaStart" : 0,
                          "mediaDuration" : 886,
                          "scalar" : 1,
                          "metadata" : {
                            "AutoAppliedSmartFocus" : "False",
                            "WinSubProjectDisplayName" : "",
                            "clipSpeedAttribute" : false
                          },
                          "animationTracks" : {

                          }
                        },
                        {
                          "id" : 181,
                          "_type" : "ScreenIMFile",
                          "src" : 1,
                          "trackNumber" : 0,
                          "trimStartSum" : 0,
                          "attributes" : {
                            "ident" : "录制日期 21-03-31"
                          },
                          "parameters" : {
                            "cursorOpacity" : 0.0,
                            "cursorScale" : 0.0
                          },
                          "effects" : [

                          ],
                          "start" : 886,
                          "duration" : 120,
                          "mediaStart" : 885,
                          "mediaDuration" : 1,
                          "scalar" : 1,
                          "metadata" : {
                            "AutoAppliedSmartFocus" : "False",
                            "WinSubProjectDisplayName" : ""
                          },
                          "animationTracks" : {

                          }
                        },
                        {
                          "id" : 182,
                          "_type" : "ScreenVMFile",
                          "src" : 1,
                          "trackNumber" : 0,
                          "attributes" : {
                            "ident" : "录制日期 21-03-31"
                          },
                          "parameters" : {
                            "cursorScale" : {
                              "type" : "double",
                              "defaultValue" : 0.0,
                              "interp" : "linr"
                            },
                            "cursorOpacity" : {
                              "type" : "double",
                              "defaultValue" : 0.0,
                              "interp" : "linr"
                            }
                          },
                          "effects" : [

                          ],
                          "start" : 1006,
                          "duration" : 23949,
                          "mediaStart" : 886,
                          "mediaDuration" : 23949,
                          "scalar" : 1,
                          "metadata" : {
                            "AutoAppliedSmartFocus" : "False",
                            "WinSubProjectDisplayName" : "",
                            "clipSpeedAttribute" : false
                          },
                          "animationTracks" : {

                          }
                        }
                    ],
                    "effects" : [

                    ],
                    "start" : 4243,
                    "duration" : 50,
                    "mediaStart" : 15424,
                    "mediaDuration" : 171,
                    "scalar" : "50/171",
                    "metadata" : {
                      "AutoAppliedSmartFocus" : "False",
                      "WinSubProjectDisplayName" : "",
                      "clipSpeedAttribute" : true
                    },
                    "animationTracks" : {

                    }
                  },
                  {
                    "id" : 183,
                    "_type" : "StitchedMedia",
                    "minMediaStart" : 0,
                    "attributes" : {
                      "ident" : "录制日期 21-03-31",
                      "gain" : 1.0,
                      "mixToMono" : false
                    },
                    "parameters" : {
                      "cursorOpacity" : 1.0,
                      "cursorScale" : 1.0
                    },
                    "medias" : [
                        {
                          "id" : 184,
                          "_type" : "ScreenVMFile",
                          "src" : 1,
                          "trackNumber" : 0,
                          "attributes" : {
                            "ident" : "录制日期 21-03-31"
                          },
                          "parameters" : {
                            "cursorScale" : {
                              "type" : "double",
                              "defaultValue" : 0.0,
                              "interp" : "linr"
                            },
                            "cursorOpacity" : {
                              "type" : "double",
                              "defaultValue" : 0.0,
                              "interp" : "linr"
                            }
                          },
                          "effects" : [

                          ],
                          "start" : 0,
                          "duration" : 886,
                          "mediaStart" : 0,
                          "mediaDuration" : 886,
                          "scalar" : 1,
                          "metadata" : {
                            "AutoAppliedSmartFocus" : "False",
                            "WinSubProjectDisplayName" : "",
                            "clipSpeedAttribute" : false
                          },
                          "animationTracks" : {

                          }
                        },
                        {
                          "id" : 185,
                          "_type" : "ScreenIMFile",
                          "src" : 1,
                          "trackNumber" : 0,
                          "trimStartSum" : 0,
                          "attributes" : {
                            "ident" : "录制日期 21-03-31"
                          },
                          "parameters" : {
                            "cursorOpacity" : 0.0,
                            "cursorScale" : 0.0
                          },
                          "effects" : [

                          ],
                          "start" : 886,
                          "duration" : 120,
                          "mediaStart" : 885,
                          "mediaDuration" : 1,
                          "scalar" : 1,
                          "metadata" : {
                            "AutoAppliedSmartFocus" : "False",
                            "WinSubProjectDisplayName" : ""
                          },
                          "animationTracks" : {

                          }
                        },
                        {
                          "id" : 186,
                          "_type" : "ScreenVMFile",
                          "src" : 1,
                          "trackNumber" : 0,
                          "attributes" : {
                            "ident" : "录制日期 21-03-31"
                          },
                          "parameters" : {
                            "cursorScale" : {
                              "type" : "double",
                              "defaultValue" : 0.0,
                              "interp" : "linr"
                            },
                            "cursorOpacity" : {
                              "type" : "double",
                              "defaultValue" : 0.0,
                              "interp" : "linr"
                            }
                          },
                          "effects" : [

                          ],
                          "start" : 1006,
                          "duration" : 23949,
                          "mediaStart" : 886,
                          "mediaDuration" : 23949,
                          "scalar" : 1,
                          "metadata" : {
                            "AutoAppliedSmartFocus" : "False",
                            "WinSubProjectDisplayName" : "",
                            "clipSpeedAttribute" : false
                          },
                          "animationTracks" : {

                          }
                        }
                    ],
                    "effects" : [

                    ],
                    "start" : 4293,
                    "duration" : 42,
                    "mediaStart" : 15595,
                    "mediaDuration" : 78,
                    "scalar" : "7/13",
                    "metadata" : {
                      "AutoAppliedSmartFocus" : "False",
                      "WinSubProjectDisplayName" : "",
                      "clipSpeedAttribute" : true
                    },
                    "animationTracks" : {

                    }
                  },
                  {
                    "id" : 187,
                    "_type" : "StitchedMedia",
                    "minMediaStart" : 0,
                    "attributes" : {
                      "ident" : "录制日期 21-03-31",
                      "gain" : 1.0,
                      "mixToMono" : false
                    },
                    "parameters" : {
                      "cursorOpacity" : 1.0,
                      "cursorScale" : 1.0
                    },
                    "medias" : [
                        {
                          "id" : 188,
                          "_type" : "ScreenVMFile",
                          "src" : 1,
                          "trackNumber" : 0,
                          "attributes" : {
                            "ident" : "录制日期 21-03-31"
                          },
                          "parameters" : {
                            "cursorScale" : {
                              "type" : "double",
                              "defaultValue" : 0.0,
                              "interp" : "linr"
                            },
                            "cursorOpacity" : {
                              "type" : "double",
                              "defaultValue" : 0.0,
                              "interp" : "linr"
                            }
                          },
                          "effects" : [

                          ],
                          "start" : 0,
                          "duration" : 886,
                          "mediaStart" : 0,
                          "mediaDuration" : 886,
                          "scalar" : 1,
                          "metadata" : {
                            "AutoAppliedSmartFocus" : "False",
                            "WinSubProjectDisplayName" : "",
                            "clipSpeedAttribute" : false
                          },
                          "animationTracks" : {

                          }
                        },
                        {
                          "id" : 189,
                          "_type" : "ScreenIMFile",
                          "src" : 1,
                          "trackNumber" : 0,
                          "trimStartSum" : 0,
                          "attributes" : {
                            "ident" : "录制日期 21-03-31"
                          },
                          "parameters" : {
                            "cursorOpacity" : 0.0,
                            "cursorScale" : 0.0
                          },
                          "effects" : [

                          ],
                          "start" : 886,
                          "duration" : 120,
                          "mediaStart" : 885,
                          "mediaDuration" : 1,
                          "scalar" : 1,
                          "metadata" : {
                            "AutoAppliedSmartFocus" : "False",
                            "WinSubProjectDisplayName" : ""
                          },
                          "animationTracks" : {

                          }
                        },
                        {
                          "id" : 190,
                          "_type" : "ScreenVMFile",
                          "src" : 1,
                          "trackNumber" : 0,
                          "attributes" : {
                            "ident" : "录制日期 21-03-31"
                          },
                          "parameters" : {
                            "cursorScale" : {
                              "type" : "double",
                              "defaultValue" : 0.0,
                              "interp" : "linr"
                            },
                            "cursorOpacity" : {
                              "type" : "double",
                              "defaultValue" : 0.0,
                              "interp" : "linr"
                            }
                          },
                          "effects" : [

                          ],
                          "start" : 1006,
                          "duration" : 23949,
                          "mediaStart" : 886,
                          "mediaDuration" : 23949,
                          "scalar" : 1,
                          "metadata" : {
                            "AutoAppliedSmartFocus" : "False",
                            "WinSubProjectDisplayName" : "",
                            "clipSpeedAttribute" : false
                          },
                          "animationTracks" : {

                          }
                        }
                    ],
                    "effects" : [

                    ],
                    "start" : 4335,
                    "duration" : 18,
                    "mediaStart" : 16049,
                    "mediaDuration" : 58,
                    "scalar" : "9/29",
                    "metadata" : {
                      "AutoAppliedSmartFocus" : "False",
                      "WinSubProjectDisplayName" : "",
                      "clipSpeedAttribute" : true
                    },
                    "animationTracks" : {

                    }
                  },
                  {
                    "id" : 191,
                    "_type" : "StitchedMedia",
                    "minMediaStart" : 0,
                    "attributes" : {
                      "ident" : "录制日期 21-03-31",
                      "gain" : 1.0,
                      "mixToMono" : false
                    },
                    "parameters" : {
                      "cursorOpacity" : 1.0,
                      "cursorScale" : 1.0
                    },
                    "medias" : [
                        {
                          "id" : 192,
                          "_type" : "ScreenVMFile",
                          "src" : 1,
                          "trackNumber" : 0,
                          "attributes" : {
                            "ident" : "录制日期 21-03-31"
                          },
                          "parameters" : {
                            "cursorScale" : {
                              "type" : "double",
                              "defaultValue" : 0.0,
                              "interp" : "linr"
                            },
                            "cursorOpacity" : {
                              "type" : "double",
                              "defaultValue" : 0.0,
                              "interp" : "linr"
                            }
                          },
                          "effects" : [

                          ],
                          "start" : 0,
                          "duration" : 886,
                          "mediaStart" : 0,
                          "mediaDuration" : 886,
                          "scalar" : 1,
                          "metadata" : {
                            "AutoAppliedSmartFocus" : "False",
                            "WinSubProjectDisplayName" : "",
                            "clipSpeedAttribute" : false
                          },
                          "animationTracks" : {

                          }
                        },
                        {
                          "id" : 193,
                          "_type" : "ScreenIMFile",
                          "src" : 1,
                          "trackNumber" : 0,
                          "trimStartSum" : 0,
                          "attributes" : {
                            "ident" : "录制日期 21-03-31"
                          },
                          "parameters" : {
                            "cursorOpacity" : 0.0,
                            "cursorScale" : 0.0
                          },
                          "effects" : [

                          ],
                          "start" : 886,
                          "duration" : 120,
                          "mediaStart" : 885,
                          "mediaDuration" : 1,
                          "scalar" : 1,
                          "metadata" : {
                            "AutoAppliedSmartFocus" : "False",
                            "WinSubProjectDisplayName" : ""
                          },
                          "animationTracks" : {

                          }
                        },
                        {
                          "id" : 194,
                          "_type" : "ScreenVMFile",
                          "src" : 1,
                          "trackNumber" : 0,
                          "attributes" : {
                            "ident" : "录制日期 21-03-31"
                          },
                          "parameters" : {
                            "cursorScale" : {
                              "type" : "double",
                              "defaultValue" : 0.0,
                              "interp" : "linr"
                            },
                            "cursorOpacity" : {
                              "type" : "double",
                              "defaultValue" : 0.0,
                              "interp" : "linr"
                            }
                          },
                          "effects" : [

                          ],
                          "start" : 1006,
                          "duration" : 23949,
                          "mediaStart" : 886,
                          "mediaDuration" : 23949,
                          "scalar" : 1,
                          "metadata" : {
                            "AutoAppliedSmartFocus" : "False",
                            "WinSubProjectDisplayName" : "",
                            "clipSpeedAttribute" : false
                          },
                          "animationTracks" : {

                          }
                        }
                    ],
                    "effects" : [

                    ],
                    "start" : 4353,
                    "duration" : 220,
                    "mediaStart" : 16107,
                    "mediaDuration" : 220,
                    "scalar" : 1,
                    "metadata" : {
                      "AutoAppliedSmartFocus" : "False",
                      "WinSubProjectDisplayName" : "",
                      "clipSpeedAttribute" : false
                    },
                    "animationTracks" : {

                    }
                  },
                  {
                    "id" : 195,
                    "_type" : "StitchedMedia",
                    "minMediaStart" : 0,
                    "attributes" : {
                      "ident" : "录制日期 21-03-31",
                      "gain" : 1.0,
                      "mixToMono" : false
                    },
                    "parameters" : {
                      "cursorOpacity" : 1.0,
                      "cursorScale" : 1.0
                    },
                    "medias" : [
                        {
                          "id" : 196,
                          "_type" : "ScreenVMFile",
                          "src" : 1,
                          "trackNumber" : 0,
                          "attributes" : {
                            "ident" : "录制日期 21-03-31"
                          },
                          "parameters" : {
                            "cursorScale" : {
                              "type" : "double",
                              "defaultValue" : 0.0,
                              "interp" : "linr"
                            },
                            "cursorOpacity" : {
                              "type" : "double",
                              "defaultValue" : 0.0,
                              "interp" : "linr"
                            }
                          },
                          "effects" : [

                          ],
                          "start" : 0,
                          "duration" : 886,
                          "mediaStart" : 0,
                          "mediaDuration" : 886,
                          "scalar" : 1,
                          "metadata" : {
                            "AutoAppliedSmartFocus" : "False",
                            "WinSubProjectDisplayName" : "",
                            "clipSpeedAttribute" : false
                          },
                          "animationTracks" : {

                          }
                        },
                        {
                          "id" : 197,
                          "_type" : "ScreenIMFile",
                          "src" : 1,
                          "trackNumber" : 0,
                          "trimStartSum" : 0,
                          "attributes" : {
                            "ident" : "录制日期 21-03-31"
                          },
                          "parameters" : {
                            "cursorOpacity" : 0.0,
                            "cursorScale" : 0.0
                          },
                          "effects" : [

                          ],
                          "start" : 886,
                          "duration" : 120,
                          "mediaStart" : 885,
                          "mediaDuration" : 1,
                          "scalar" : 1,
                          "metadata" : {
                            "AutoAppliedSmartFocus" : "False",
                            "WinSubProjectDisplayName" : ""
                          },
                          "animationTracks" : {

                          }
                        },
                        {
                          "id" : 198,
                          "_type" : "ScreenVMFile",
                          "src" : 1,
                          "trackNumber" : 0,
                          "attributes" : {
                            "ident" : "录制日期 21-03-31"
                          },
                          "parameters" : {
                            "cursorScale" : {
                              "type" : "double",
                              "defaultValue" : 0.0,
                              "interp" : "linr"
                            },
                            "cursorOpacity" : {
                              "type" : "double",
                              "defaultValue" : 0.0,
                              "interp" : "linr"
                            }
                          },
                          "effects" : [

                          ],
                          "start" : 1006,
                          "duration" : 23949,
                          "mediaStart" : 886,
                          "mediaDuration" : 23949,
                          "scalar" : 1,
                          "metadata" : {
                            "AutoAppliedSmartFocus" : "False",
                            "WinSubProjectDisplayName" : "",
                            "clipSpeedAttribute" : false
                          },
                          "animationTracks" : {

                          }
                        }
                    ],
                    "effects" : [

                    ],
                    "start" : 4573,
                    "duration" : 14,
                    "mediaStart" : 16447,
                    "mediaDuration" : 55,
                    "scalar" : "14/55",
                    "metadata" : {
                      "AutoAppliedSmartFocus" : "False",
                      "WinSubProjectDisplayName" : "",
                      "clipSpeedAttribute" : true
                    },
                    "animationTracks" : {

                    }
                  },
                  {
                    "id" : 199,
                    "_type" : "StitchedMedia",
                    "minMediaStart" : 0,
                    "attributes" : {
                      "ident" : "录制日期 21-03-31",
                      "gain" : 1.0,
                      "mixToMono" : false
                    },
                    "parameters" : {
                      "cursorOpacity" : 1.0,
                      "cursorScale" : 1.0
                    },
                    "medias" : [
                        {
                          "id" : 200,
                          "_type" : "ScreenVMFile",
                          "src" : 1,
                          "trackNumber" : 0,
                          "attributes" : {
                            "ident" : "录制日期 21-03-31"
                          },
                          "parameters" : {
                            "cursorScale" : {
                              "type" : "double",
                              "defaultValue" : 0.0,
                              "interp" : "linr"
                            },
                            "cursorOpacity" : {
                              "type" : "double",
                              "defaultValue" : 0.0,
                              "interp" : "linr"
                            }
                          },
                          "effects" : [

                          ],
                          "start" : 0,
                          "duration" : 886,
                          "mediaStart" : 0,
                          "mediaDuration" : 886,
                          "scalar" : 1,
                          "metadata" : {
                            "AutoAppliedSmartFocus" : "False",
                            "WinSubProjectDisplayName" : "",
                            "clipSpeedAttribute" : false
                          },
                          "animationTracks" : {

                          }
                        },
                        {
                          "id" : 201,
                          "_type" : "ScreenIMFile",
                          "src" : 1,
                          "trackNumber" : 0,
                          "trimStartSum" : 0,
                          "attributes" : {
                            "ident" : "录制日期 21-03-31"
                          },
                          "parameters" : {
                            "cursorOpacity" : 0.0,
                            "cursorScale" : 0.0
                          },
                          "effects" : [

                          ],
                          "start" : 886,
                          "duration" : 120,
                          "mediaStart" : 885,
                          "mediaDuration" : 1,
                          "scalar" : 1,
                          "metadata" : {
                            "AutoAppliedSmartFocus" : "False",
                            "WinSubProjectDisplayName" : ""
                          },
                          "animationTracks" : {

                          }
                        },
                        {
                          "id" : 202,
                          "_type" : "ScreenVMFile",
                          "src" : 1,
                          "trackNumber" : 0,
                          "attributes" : {
                            "ident" : "录制日期 21-03-31"
                          },
                          "parameters" : {
                            "cursorScale" : {
                              "type" : "double",
                              "defaultValue" : 0.0,
                              "interp" : "linr"
                            },
                            "cursorOpacity" : {
                              "type" : "double",
                              "defaultValue" : 0.0,
                              "interp" : "linr"
                            }
                          },
                          "effects" : [

                          ],
                          "start" : 1006,
                          "duration" : 23949,
                          "mediaStart" : 886,
                          "mediaDuration" : 23949,
                          "scalar" : 1,
                          "metadata" : {
                            "AutoAppliedSmartFocus" : "False",
                            "WinSubProjectDisplayName" : "",
                            "clipSpeedAttribute" : false
                          },
                          "animationTracks" : {

                          }
                        }
                    ],
                    "effects" : [

                    ],
                    "start" : 4587,
                    "duration" : 40,
                    "mediaStart" : 16502,
                    "mediaDuration" : 40,
                    "scalar" : 1,
                    "metadata" : {
                      "AutoAppliedSmartFocus" : "False",
                      "WinSubProjectDisplayName" : "",
                      "clipSpeedAttribute" : false
                    },
                    "animationTracks" : {

                    }
                  },
                  {
                    "id" : 203,
                    "_type" : "StitchedMedia",
                    "minMediaStart" : 0,
                    "attributes" : {
                      "ident" : "录制日期 21-03-31",
                      "gain" : 1.0,
                      "mixToMono" : false
                    },
                    "parameters" : {
                      "cursorOpacity" : 1.0,
                      "cursorScale" : 1.0
                    },
                    "medias" : [
                        {
                          "id" : 204,
                          "_type" : "ScreenVMFile",
                          "src" : 1,
                          "trackNumber" : 0,
                          "attributes" : {
                            "ident" : "录制日期 21-03-31"
                          },
                          "parameters" : {
                            "cursorScale" : {
                              "type" : "double",
                              "defaultValue" : 0.0,
                              "interp" : "linr"
                            },
                            "cursorOpacity" : {
                              "type" : "double",
                              "defaultValue" : 0.0,
                              "interp" : "linr"
                            }
                          },
                          "effects" : [

                          ],
                          "start" : 0,
                          "duration" : 886,
                          "mediaStart" : 0,
                          "mediaDuration" : 886,
                          "scalar" : 1,
                          "metadata" : {
                            "AutoAppliedSmartFocus" : "False",
                            "WinSubProjectDisplayName" : "",
                            "clipSpeedAttribute" : false
                          },
                          "animationTracks" : {

                          }
                        },
                        {
                          "id" : 205,
                          "_type" : "ScreenIMFile",
                          "src" : 1,
                          "trackNumber" : 0,
                          "trimStartSum" : 0,
                          "attributes" : {
                            "ident" : "录制日期 21-03-31"
                          },
                          "parameters" : {
                            "cursorOpacity" : 0.0,
                            "cursorScale" : 0.0
                          },
                          "effects" : [

                          ],
                          "start" : 886,
                          "duration" : 120,
                          "mediaStart" : 885,
                          "mediaDuration" : 1,
                          "scalar" : 1,
                          "metadata" : {
                            "AutoAppliedSmartFocus" : "False",
                            "WinSubProjectDisplayName" : ""
                          },
                          "animationTracks" : {

                          }
                        },
                        {
                          "id" : 206,
                          "_type" : "ScreenVMFile",
                          "src" : 1,
                          "trackNumber" : 0,
                          "attributes" : {
                            "ident" : "录制日期 21-03-31"
                          },
                          "parameters" : {
                            "cursorScale" : {
                              "type" : "double",
                              "defaultValue" : 0.0,
                              "interp" : "linr"
                            },
                            "cursorOpacity" : {
                              "type" : "double",
                              "defaultValue" : 0.0,
                              "interp" : "linr"
                            }
                          },
                          "effects" : [

                          ],
                          "start" : 1006,
                          "duration" : 23949,
                          "mediaStart" : 886,
                          "mediaDuration" : 23949,
                          "scalar" : 1,
                          "metadata" : {
                            "AutoAppliedSmartFocus" : "False",
                            "WinSubProjectDisplayName" : "",
                            "clipSpeedAttribute" : false
                          },
                          "animationTracks" : {

                          }
                        }
                    ],
                    "effects" : [

                    ],
                    "start" : 4627,
                    "duration" : 13,
                    "mediaStart" : 16542,
                    "mediaDuration" : 50,
                    "scalar" : "13/50",
                    "metadata" : {
                      "AutoAppliedSmartFocus" : "False",
                      "WinSubProjectDisplayName" : "",
                      "clipSpeedAttribute" : true
                    },
                    "animationTracks" : {

                    }
                  },
                  {
                    "id" : 207,
                    "_type" : "StitchedMedia",
                    "minMediaStart" : 0,
                    "attributes" : {
                      "ident" : "录制日期 21-03-31",
                      "gain" : 1.0,
                      "mixToMono" : false
                    },
                    "parameters" : {
                      "cursorOpacity" : 1.0,
                      "cursorScale" : 1.0
                    },
                    "medias" : [
                        {
                          "id" : 208,
                          "_type" : "ScreenVMFile",
                          "src" : 1,
                          "trackNumber" : 0,
                          "attributes" : {
                            "ident" : "录制日期 21-03-31"
                          },
                          "parameters" : {
                            "cursorScale" : {
                              "type" : "double",
                              "defaultValue" : 0.0,
                              "interp" : "linr"
                            },
                            "cursorOpacity" : {
                              "type" : "double",
                              "defaultValue" : 0.0,
                              "interp" : "linr"
                            }
                          },
                          "effects" : [

                          ],
                          "start" : 0,
                          "duration" : 886,
                          "mediaStart" : 0,
                          "mediaDuration" : 886,
                          "scalar" : 1,
                          "metadata" : {
                            "AutoAppliedSmartFocus" : "False",
                            "WinSubProjectDisplayName" : "",
                            "clipSpeedAttribute" : false
                          },
                          "animationTracks" : {

                          }
                        },
                        {
                          "id" : 209,
                          "_type" : "ScreenIMFile",
                          "src" : 1,
                          "trackNumber" : 0,
                          "trimStartSum" : 0,
                          "attributes" : {
                            "ident" : "录制日期 21-03-31"
                          },
                          "parameters" : {
                            "cursorOpacity" : 0.0,
                            "cursorScale" : 0.0
                          },
                          "effects" : [

                          ],
                          "start" : 886,
                          "duration" : 120,
                          "mediaStart" : 885,
                          "mediaDuration" : 1,
                          "scalar" : 1,
                          "metadata" : {
                            "AutoAppliedSmartFocus" : "False",
                            "WinSubProjectDisplayName" : ""
                          },
                          "animationTracks" : {

                          }
                        },
                        {
                          "id" : 210,
                          "_type" : "ScreenVMFile",
                          "src" : 1,
                          "trackNumber" : 0,
                          "attributes" : {
                            "ident" : "录制日期 21-03-31"
                          },
                          "parameters" : {
                            "cursorScale" : {
                              "type" : "double",
                              "defaultValue" : 0.0,
                              "interp" : "linr"
                            },
                            "cursorOpacity" : {
                              "type" : "double",
                              "defaultValue" : 0.0,
                              "interp" : "linr"
                            }
                          },
                          "effects" : [

                          ],
                          "start" : 1006,
                          "duration" : 23949,
                          "mediaStart" : 886,
                          "mediaDuration" : 23949,
                          "scalar" : 1,
                          "metadata" : {
                            "AutoAppliedSmartFocus" : "False",
                            "WinSubProjectDisplayName" : "",
                            "clipSpeedAttribute" : false
                          },
                          "animationTracks" : {

                          }
                        }
                    ],
                    "effects" : [

                    ],
                    "start" : 4640,
                    "duration" : 21,
                    "mediaStart" : 16674,
                    "mediaDuration" : 41,
                    "scalar" : "21/41",
                    "metadata" : {
                      "AutoAppliedSmartFocus" : "False",
                      "WinSubProjectDisplayName" : "",
                      "clipSpeedAttribute" : true
                    },
                    "animationTracks" : {

                    }
                  },
                  {
                    "id" : 211,
                    "_type" : "StitchedMedia",
                    "minMediaStart" : 0,
                    "attributes" : {
                      "ident" : "录制日期 21-03-31",
                      "gain" : 1.0,
                      "mixToMono" : false
                    },
                    "parameters" : {
                      "cursorOpacity" : 1.0,
                      "cursorScale" : 1.0
                    },
                    "medias" : [
                        {
                          "id" : 212,
                          "_type" : "ScreenVMFile",
                          "src" : 1,
                          "trackNumber" : 0,
                          "attributes" : {
                            "ident" : "录制日期 21-03-31"
                          },
                          "parameters" : {
                            "cursorScale" : {
                              "type" : "double",
                              "defaultValue" : 0.0,
                              "interp" : "linr"
                            },
                            "cursorOpacity" : {
                              "type" : "double",
                              "defaultValue" : 0.0,
                              "interp" : "linr"
                            }
                          },
                          "effects" : [

                          ],
                          "start" : 0,
                          "duration" : 886,
                          "mediaStart" : 0,
                          "mediaDuration" : 886,
                          "scalar" : 1,
                          "metadata" : {
                            "AutoAppliedSmartFocus" : "False",
                            "WinSubProjectDisplayName" : "",
                            "clipSpeedAttribute" : false
                          },
                          "animationTracks" : {

                          }
                        },
                        {
                          "id" : 213,
                          "_type" : "ScreenIMFile",
                          "src" : 1,
                          "trackNumber" : 0,
                          "trimStartSum" : 0,
                          "attributes" : {
                            "ident" : "录制日期 21-03-31"
                          },
                          "parameters" : {
                            "cursorOpacity" : 0.0,
                            "cursorScale" : 0.0
                          },
                          "effects" : [

                          ],
                          "start" : 886,
                          "duration" : 120,
                          "mediaStart" : 885,
                          "mediaDuration" : 1,
                          "scalar" : 1,
                          "metadata" : {
                            "AutoAppliedSmartFocus" : "False",
                            "WinSubProjectDisplayName" : ""
                          },
                          "animationTracks" : {

                          }
                        },
                        {
                          "id" : 214,
                          "_type" : "ScreenVMFile",
                          "src" : 1,
                          "trackNumber" : 0,
                          "attributes" : {
                            "ident" : "录制日期 21-03-31"
                          },
                          "parameters" : {
                            "cursorScale" : {
                              "type" : "double",
                              "defaultValue" : 0.0,
                              "interp" : "linr"
                            },
                            "cursorOpacity" : {
                              "type" : "double",
                              "defaultValue" : 0.0,
                              "interp" : "linr"
                            }
                          },
                          "effects" : [

                          ],
                          "start" : 1006,
                          "duration" : 23949,
                          "mediaStart" : 886,
                          "mediaDuration" : 23949,
                          "scalar" : 1,
                          "metadata" : {
                            "AutoAppliedSmartFocus" : "False",
                            "WinSubProjectDisplayName" : "",
                            "clipSpeedAttribute" : false
                          },
                          "animationTracks" : {

                          }
                        }
                    ],
                    "effects" : [

                    ],
                    "start" : 4661,
                    "duration" : 54,
                    "mediaStart" : 16715,
                    "mediaDuration" : 87,
                    "scalar" : "18/29",
                    "metadata" : {
                      "AutoAppliedSmartFocus" : "False",
                      "WinSubProjectDisplayName" : "",
                      "clipSpeedAttribute" : true
                    },
                    "animationTracks" : {

                    }
                  },
                  {
                    "id" : 215,
                    "_type" : "StitchedMedia",
                    "minMediaStart" : 0,
                    "attributes" : {
                      "ident" : "录制日期 21-03-31",
                      "gain" : 1.0,
                      "mixToMono" : false
                    },
                    "parameters" : {
                      "cursorOpacity" : 1.0,
                      "cursorScale" : 1.0
                    },
                    "medias" : [
                        {
                          "id" : 216,
                          "_type" : "ScreenVMFile",
                          "src" : 1,
                          "trackNumber" : 0,
                          "attributes" : {
                            "ident" : "录制日期 21-03-31"
                          },
                          "parameters" : {
                            "cursorScale" : {
                              "type" : "double",
                              "defaultValue" : 0.0,
                              "interp" : "linr"
                            },
                            "cursorOpacity" : {
                              "type" : "double",
                              "defaultValue" : 0.0,
                              "interp" : "linr"
                            }
                          },
                          "effects" : [

                          ],
                          "start" : 0,
                          "duration" : 886,
                          "mediaStart" : 0,
                          "mediaDuration" : 886,
                          "scalar" : 1,
                          "metadata" : {
                            "AutoAppliedSmartFocus" : "False",
                            "WinSubProjectDisplayName" : "",
                            "clipSpeedAttribute" : false
                          },
                          "animationTracks" : {

                          }
                        },
                        {
                          "id" : 217,
                          "_type" : "ScreenIMFile",
                          "src" : 1,
                          "trackNumber" : 0,
                          "trimStartSum" : 0,
                          "attributes" : {
                            "ident" : "录制日期 21-03-31"
                          },
                          "parameters" : {
                            "cursorOpacity" : 0.0,
                            "cursorScale" : 0.0
                          },
                          "effects" : [

                          ],
                          "start" : 886,
                          "duration" : 120,
                          "mediaStart" : 885,
                          "mediaDuration" : 1,
                          "scalar" : 1,
                          "metadata" : {
                            "AutoAppliedSmartFocus" : "False",
                            "WinSubProjectDisplayName" : ""
                          },
                          "animationTracks" : {

                          }
                        },
                        {
                          "id" : 218,
                          "_type" : "ScreenVMFile",
                          "src" : 1,
                          "trackNumber" : 0,
                          "attributes" : {
                            "ident" : "录制日期 21-03-31"
                          },
                          "parameters" : {
                            "cursorScale" : {
                              "type" : "double",
                              "defaultValue" : 0.0,
                              "interp" : "linr"
                            },
                            "cursorOpacity" : {
                              "type" : "double",
                              "defaultValue" : 0.0,
                              "interp" : "linr"
                            }
                          },
                          "effects" : [

                          ],
                          "start" : 1006,
                          "duration" : 23949,
                          "mediaStart" : 886,
                          "mediaDuration" : 23949,
                          "scalar" : 1,
                          "metadata" : {
                            "AutoAppliedSmartFocus" : "False",
                            "WinSubProjectDisplayName" : "",
                            "clipSpeedAttribute" : false
                          },
                          "animationTracks" : {

                          }
                        }
                    ],
                    "effects" : [

                    ],
                    "start" : 4715,
                    "duration" : 11,
                    "mediaStart" : 16802,
                    "mediaDuration" : 30,
                    "scalar" : "11/30",
                    "metadata" : {
                      "AutoAppliedSmartFocus" : "False",
                      "WinSubProjectDisplayName" : "",
                      "clipSpeedAttribute" : true
                    },
                    "animationTracks" : {

                    }
                  },
                  {
                    "id" : 219,
                    "_type" : "StitchedMedia",
                    "minMediaStart" : 0,
                    "attributes" : {
                      "ident" : "录制日期 21-03-31",
                      "gain" : 1.0,
                      "mixToMono" : false
                    },
                    "parameters" : {
                      "cursorOpacity" : 1.0,
                      "cursorScale" : 1.0
                    },
                    "medias" : [
                        {
                          "id" : 220,
                          "_type" : "ScreenVMFile",
                          "src" : 1,
                          "trackNumber" : 0,
                          "attributes" : {
                            "ident" : "录制日期 21-03-31"
                          },
                          "parameters" : {
                            "cursorScale" : {
                              "type" : "double",
                              "defaultValue" : 0.0,
                              "interp" : "linr"
                            },
                            "cursorOpacity" : {
                              "type" : "double",
                              "defaultValue" : 0.0,
                              "interp" : "linr"
                            }
                          },
                          "effects" : [

                          ],
                          "start" : 0,
                          "duration" : 886,
                          "mediaStart" : 0,
                          "mediaDuration" : 886,
                          "scalar" : 1,
                          "metadata" : {
                            "AutoAppliedSmartFocus" : "False",
                            "WinSubProjectDisplayName" : "",
                            "clipSpeedAttribute" : false
                          },
                          "animationTracks" : {

                          }
                        },
                        {
                          "id" : 221,
                          "_type" : "ScreenIMFile",
                          "src" : 1,
                          "trackNumber" : 0,
                          "trimStartSum" : 0,
                          "attributes" : {
                            "ident" : "录制日期 21-03-31"
                          },
                          "parameters" : {
                            "cursorOpacity" : 0.0,
                            "cursorScale" : 0.0
                          },
                          "effects" : [

                          ],
                          "start" : 886,
                          "duration" : 120,
                          "mediaStart" : 885,
                          "mediaDuration" : 1,
                          "scalar" : 1,
                          "metadata" : {
                            "AutoAppliedSmartFocus" : "False",
                            "WinSubProjectDisplayName" : ""
                          },
                          "animationTracks" : {

                          }
                        },
                        {
                          "id" : 222,
                          "_type" : "ScreenVMFile",
                          "src" : 1,
                          "trackNumber" : 0,
                          "attributes" : {
                            "ident" : "录制日期 21-03-31"
                          },
                          "parameters" : {
                            "cursorScale" : {
                              "type" : "double",
                              "defaultValue" : 0.0,
                              "interp" : "linr"
                            },
                            "cursorOpacity" : {
                              "type" : "double",
                              "defaultValue" : 0.0,
                              "interp" : "linr"
                            }
                          },
                          "effects" : [

                          ],
                          "start" : 1006,
                          "duration" : 23949,
                          "mediaStart" : 886,
                          "mediaDuration" : 23949,
                          "scalar" : 1,
                          "metadata" : {
                            "AutoAppliedSmartFocus" : "False",
                            "WinSubProjectDisplayName" : "",
                            "clipSpeedAttribute" : false
                          },
                          "animationTracks" : {

                          }
                        }
                    ],
                    "effects" : [

                    ],
                    "start" : 4726,
                    "duration" : 19,
                    "mediaStart" : 16934,
                    "mediaDuration" : 19,
                    "scalar" : 1,
                    "metadata" : {
                      "AutoAppliedSmartFocus" : "False",
                      "WinSubProjectDisplayName" : "",
                      "clipSpeedAttribute" : false
                    },
                    "animationTracks" : {

                    }
                  },
                  {
                    "id" : 223,
                    "_type" : "StitchedMedia",
                    "minMediaStart" : 0,
                    "attributes" : {
                      "ident" : "录制日期 21-03-31",
                      "gain" : 1.0,
                      "mixToMono" : false
                    },
                    "parameters" : {
                      "cursorOpacity" : 1.0,
                      "cursorScale" : 1.0
                    },
                    "medias" : [
                        {
                          "id" : 224,
                          "_type" : "ScreenVMFile",
                          "src" : 1,
                          "trackNumber" : 0,
                          "attributes" : {
                            "ident" : "录制日期 21-03-31"
                          },
                          "parameters" : {
                            "cursorScale" : {
                              "type" : "double",
                              "defaultValue" : 0.0,
                              "interp" : "linr"
                            },
                            "cursorOpacity" : {
                              "type" : "double",
                              "defaultValue" : 0.0,
                              "interp" : "linr"
                            }
                          },
                          "effects" : [

                          ],
                          "start" : 0,
                          "duration" : 886,
                          "mediaStart" : 0,
                          "mediaDuration" : 886,
                          "scalar" : 1,
                          "metadata" : {
                            "AutoAppliedSmartFocus" : "False",
                            "WinSubProjectDisplayName" : "",
                            "clipSpeedAttribute" : false
                          },
                          "animationTracks" : {

                          }
                        },
                        {
                          "id" : 225,
                          "_type" : "ScreenIMFile",
                          "src" : 1,
                          "trackNumber" : 0,
                          "trimStartSum" : 0,
                          "attributes" : {
                            "ident" : "录制日期 21-03-31"
                          },
                          "parameters" : {
                            "cursorOpacity" : 0.0,
                            "cursorScale" : 0.0
                          },
                          "effects" : [

                          ],
                          "start" : 886,
                          "duration" : 120,
                          "mediaStart" : 885,
                          "mediaDuration" : 1,
                          "scalar" : 1,
                          "metadata" : {
                            "AutoAppliedSmartFocus" : "False",
                            "WinSubProjectDisplayName" : ""
                          },
                          "animationTracks" : {

                          }
                        },
                        {
                          "id" : 226,
                          "_type" : "ScreenVMFile",
                          "src" : 1,
                          "trackNumber" : 0,
                          "attributes" : {
                            "ident" : "录制日期 21-03-31"
                          },
                          "parameters" : {
                            "cursorScale" : {
                              "type" : "double",
                              "defaultValue" : 0.0,
                              "interp" : "linr"
                            },
                            "cursorOpacity" : {
                              "type" : "double",
                              "defaultValue" : 0.0,
                              "interp" : "linr"
                            }
                          },
                          "effects" : [

                          ],
                          "start" : 1006,
                          "duration" : 23949,
                          "mediaStart" : 886,
                          "mediaDuration" : 23949,
                          "scalar" : 1,
                          "metadata" : {
                            "AutoAppliedSmartFocus" : "False",
                            "WinSubProjectDisplayName" : "",
                            "clipSpeedAttribute" : false
                          },
                          "animationTracks" : {

                          }
                        }
                    ],
                    "effects" : [

                    ],
                    "start" : 4745,
                    "duration" : 61,
                    "mediaStart" : 16953,
                    "mediaDuration" : 4232,
                    "scalar" : "61/4232",
                    "metadata" : {
                      "AutoAppliedSmartFocus" : "False",
                      "WinSubProjectDisplayName" : "",
                      "clipSpeedAttribute" : true
                    },
                    "animationTracks" : {

                    }
                  },
                  {
                    "id" : 227,
                    "_type" : "StitchedMedia",
                    "minMediaStart" : 0,
                    "attributes" : {
                      "ident" : "录制日期 21-03-31",
                      "gain" : 1.0,
                      "mixToMono" : false
                    },
                    "parameters" : {
                      "cursorOpacity" : 1.0,
                      "cursorScale" : 1.0
                    },
                    "medias" : [
                        {
                          "id" : 228,
                          "_type" : "ScreenVMFile",
                          "src" : 1,
                          "trackNumber" : 0,
                          "attributes" : {
                            "ident" : "录制日期 21-03-31"
                          },
                          "parameters" : {
                            "cursorScale" : {
                              "type" : "double",
                              "defaultValue" : 0.0,
                              "interp" : "linr"
                            },
                            "cursorOpacity" : {
                              "type" : "double",
                              "defaultValue" : 0.0,
                              "interp" : "linr"
                            }
                          },
                          "effects" : [

                          ],
                          "start" : 0,
                          "duration" : 886,
                          "mediaStart" : 0,
                          "mediaDuration" : 886,
                          "scalar" : 1,
                          "metadata" : {
                            "AutoAppliedSmartFocus" : "False",
                            "WinSubProjectDisplayName" : "",
                            "clipSpeedAttribute" : false
                          },
                          "animationTracks" : {

                          }
                        },
                        {
                          "id" : 229,
                          "_type" : "ScreenIMFile",
                          "src" : 1,
                          "trackNumber" : 0,
                          "trimStartSum" : 0,
                          "attributes" : {
                            "ident" : "录制日期 21-03-31"
                          },
                          "parameters" : {
                            "cursorOpacity" : 0.0,
                            "cursorScale" : 0.0
                          },
                          "effects" : [

                          ],
                          "start" : 886,
                          "duration" : 120,
                          "mediaStart" : 885,
                          "mediaDuration" : 1,
                          "scalar" : 1,
                          "metadata" : {
                            "AutoAppliedSmartFocus" : "False",
                            "WinSubProjectDisplayName" : ""
                          },
                          "animationTracks" : {

                          }
                        },
                        {
                          "id" : 230,
                          "_type" : "ScreenVMFile",
                          "src" : 1,
                          "trackNumber" : 0,
                          "attributes" : {
                            "ident" : "录制日期 21-03-31"
                          },
                          "parameters" : {
                            "cursorScale" : {
                              "type" : "double",
                              "defaultValue" : 0.0,
                              "interp" : "linr"
                            },
                            "cursorOpacity" : {
                              "type" : "double",
                              "defaultValue" : 0.0,
                              "interp" : "linr"
                            }
                          },
                          "effects" : [

                          ],
                          "start" : 1006,
                          "duration" : 23949,
                          "mediaStart" : 886,
                          "mediaDuration" : 23949,
                          "scalar" : 1,
                          "metadata" : {
                            "AutoAppliedSmartFocus" : "False",
                            "WinSubProjectDisplayName" : "",
                            "clipSpeedAttribute" : false
                          },
                          "animationTracks" : {

                          }
                        }
                    ],
                    "effects" : [

                    ],
                    "start" : 4806,
                    "duration" : 15,
                    "mediaStart" : 23006,
                    "mediaDuration" : 44,
                    "scalar" : "15/44",
                    "metadata" : {
                      "AutoAppliedSmartFocus" : "False",
                      "WinSubProjectDisplayName" : "",
                      "clipSpeedAttribute" : true
                    },
                    "animationTracks" : {

                    }
                  },
                  {
                    "id" : 231,
                    "_type" : "StitchedMedia",
                    "minMediaStart" : 0,
                    "attributes" : {
                      "ident" : "录制日期 21-03-31",
                      "gain" : 1.0,
                      "mixToMono" : false
                    },
                    "parameters" : {
                      "cursorOpacity" : 1.0,
                      "cursorScale" : 1.0
                    },
                    "medias" : [
                        {
                          "id" : 232,
                          "_type" : "ScreenVMFile",
                          "src" : 1,
                          "trackNumber" : 0,
                          "attributes" : {
                            "ident" : "录制日期 21-03-31"
                          },
                          "parameters" : {
                            "cursorScale" : {
                              "type" : "double",
                              "defaultValue" : 0.0,
                              "interp" : "linr"
                            },
                            "cursorOpacity" : {
                              "type" : "double",
                              "defaultValue" : 0.0,
                              "interp" : "linr"
                            }
                          },
                          "effects" : [

                          ],
                          "start" : 0,
                          "duration" : 886,
                          "mediaStart" : 0,
                          "mediaDuration" : 886,
                          "scalar" : 1,
                          "metadata" : {
                            "AutoAppliedSmartFocus" : "False",
                            "WinSubProjectDisplayName" : "",
                            "clipSpeedAttribute" : false
                          },
                          "animationTracks" : {

                          }
                        },
                        {
                          "id" : 233,
                          "_type" : "ScreenIMFile",
                          "src" : 1,
                          "trackNumber" : 0,
                          "trimStartSum" : 0,
                          "attributes" : {
                            "ident" : "录制日期 21-03-31"
                          },
                          "parameters" : {
                            "cursorOpacity" : 0.0,
                            "cursorScale" : 0.0
                          },
                          "effects" : [

                          ],
                          "start" : 886,
                          "duration" : 120,
                          "mediaStart" : 885,
                          "mediaDuration" : 1,
                          "scalar" : 1,
                          "metadata" : {
                            "AutoAppliedSmartFocus" : "False",
                            "WinSubProjectDisplayName" : ""
                          },
                          "animationTracks" : {

                          }
                        },
                        {
                          "id" : 234,
                          "_type" : "ScreenVMFile",
                          "src" : 1,
                          "trackNumber" : 0,
                          "attributes" : {
                            "ident" : "录制日期 21-03-31"
                          },
                          "parameters" : {
                            "cursorScale" : {
                              "type" : "double",
                              "defaultValue" : 0.0,
                              "interp" : "linr"
                            },
                            "cursorOpacity" : {
                              "type" : "double",
                              "defaultValue" : 0.0,
                              "interp" : "linr"
                            }
                          },
                          "effects" : [

                          ],
                          "start" : 1006,
                          "duration" : 23949,
                          "mediaStart" : 886,
                          "mediaDuration" : 23949,
                          "scalar" : 1,
                          "metadata" : {
                            "AutoAppliedSmartFocus" : "False",
                            "WinSubProjectDisplayName" : "",
                            "clipSpeedAttribute" : false
                          },
                          "animationTracks" : {

                          }
                        }
                    ],
                    "effects" : [

                    ],
                    "start" : 4821,
                    "duration" : 51,
                    "mediaStart" : 23050,
                    "mediaDuration" : 51,
                    "scalar" : 1,
                    "metadata" : {
                      "AutoAppliedSmartFocus" : "False",
                      "WinSubProjectDisplayName" : "",
                      "clipSpeedAttribute" : false
                    },
                    "animationTracks" : {

                    }
                  },
                  {
                    "id" : 235,
                    "_type" : "StitchedMedia",
                    "minMediaStart" : 0,
                    "attributes" : {
                      "ident" : "录制日期 21-03-31",
                      "gain" : 1.0,
                      "mixToMono" : false
                    },
                    "parameters" : {
                      "cursorOpacity" : 1.0,
                      "cursorScale" : 1.0
                    },
                    "medias" : [
                        {
                          "id" : 236,
                          "_type" : "ScreenVMFile",
                          "src" : 1,
                          "trackNumber" : 0,
                          "attributes" : {
                            "ident" : "录制日期 21-03-31"
                          },
                          "parameters" : {
                            "cursorScale" : {
                              "type" : "double",
                              "defaultValue" : 0.0,
                              "interp" : "linr"
                            },
                            "cursorOpacity" : {
                              "type" : "double",
                              "defaultValue" : 0.0,
                              "interp" : "linr"
                            }
                          },
                          "effects" : [

                          ],
                          "start" : 0,
                          "duration" : 886,
                          "mediaStart" : 0,
                          "mediaDuration" : 886,
                          "scalar" : 1,
                          "metadata" : {
                            "AutoAppliedSmartFocus" : "False",
                            "WinSubProjectDisplayName" : "",
                            "clipSpeedAttribute" : false
                          },
                          "animationTracks" : {

                          }
                        },
                        {
                          "id" : 237,
                          "_type" : "ScreenIMFile",
                          "src" : 1,
                          "trackNumber" : 0,
                          "trimStartSum" : 0,
                          "attributes" : {
                            "ident" : "录制日期 21-03-31"
                          },
                          "parameters" : {
                            "cursorOpacity" : 0.0,
                            "cursorScale" : 0.0
                          },
                          "effects" : [

                          ],
                          "start" : 886,
                          "duration" : 120,
                          "mediaStart" : 885,
                          "mediaDuration" : 1,
                          "scalar" : 1,
                          "metadata" : {
                            "AutoAppliedSmartFocus" : "False",
                            "WinSubProjectDisplayName" : ""
                          },
                          "animationTracks" : {

                          }
                        },
                        {
                          "id" : 238,
                          "_type" : "ScreenVMFile",
                          "src" : 1,
                          "trackNumber" : 0,
                          "attributes" : {
                            "ident" : "录制日期 21-03-31"
                          },
                          "parameters" : {
                            "cursorScale" : {
                              "type" : "double",
                              "defaultValue" : 0.0,
                              "interp" : "linr"
                            },
                            "cursorOpacity" : {
                              "type" : "double",
                              "defaultValue" : 0.0,
                              "interp" : "linr"
                            }
                          },
                          "effects" : [

                          ],
                          "start" : 1006,
                          "duration" : 23949,
                          "mediaStart" : 886,
                          "mediaDuration" : 23949,
                          "scalar" : 1,
                          "metadata" : {
                            "AutoAppliedSmartFocus" : "False",
                            "WinSubProjectDisplayName" : "",
                            "clipSpeedAttribute" : false
                          },
                          "animationTracks" : {

                          }
                        }
                    ],
                    "effects" : [

                    ],
                    "start" : 4872,
                    "duration" : 50,
                    "mediaStart" : 23388,
                    "mediaDuration" : 106,
                    "scalar" : "25/53",
                    "metadata" : {
                      "AutoAppliedSmartFocus" : "False",
                      "WinSubProjectDisplayName" : "",
                      "clipSpeedAttribute" : true
                    },
                    "animationTracks" : {

                    }
                  },
                  {
                    "id" : 239,
                    "_type" : "StitchedMedia",
                    "minMediaStart" : 0,
                    "attributes" : {
                      "ident" : "录制日期 21-03-31",
                      "gain" : 1.0,
                      "mixToMono" : false
                    },
                    "parameters" : {
                      "cursorOpacity" : 1.0,
                      "cursorScale" : 1.0
                    },
                    "medias" : [
                        {
                          "id" : 240,
                          "_type" : "ScreenVMFile",
                          "src" : 1,
                          "trackNumber" : 0,
                          "attributes" : {
                            "ident" : "录制日期 21-03-31"
                          },
                          "parameters" : {
                            "cursorScale" : {
                              "type" : "double",
                              "defaultValue" : 0.0,
                              "interp" : "linr"
                            },
                            "cursorOpacity" : {
                              "type" : "double",
                              "defaultValue" : 0.0,
                              "interp" : "linr"
                            }
                          },
                          "effects" : [

                          ],
                          "start" : 0,
                          "duration" : 886,
                          "mediaStart" : 0,
                          "mediaDuration" : 886,
                          "scalar" : 1,
                          "metadata" : {
                            "AutoAppliedSmartFocus" : "False",
                            "WinSubProjectDisplayName" : "",
                            "clipSpeedAttribute" : false
                          },
                          "animationTracks" : {

                          }
                        },
                        {
                          "id" : 241,
                          "_type" : "ScreenIMFile",
                          "src" : 1,
                          "trackNumber" : 0,
                          "trimStartSum" : 0,
                          "attributes" : {
                            "ident" : "录制日期 21-03-31"
                          },
                          "parameters" : {
                            "cursorOpacity" : 0.0,
                            "cursorScale" : 0.0
                          },
                          "effects" : [

                          ],
                          "start" : 886,
                          "duration" : 120,
                          "mediaStart" : 885,
                          "mediaDuration" : 1,
                          "scalar" : 1,
                          "metadata" : {
                            "AutoAppliedSmartFocus" : "False",
                            "WinSubProjectDisplayName" : ""
                          },
                          "animationTracks" : {

                          }
                        },
                        {
                          "id" : 242,
                          "_type" : "ScreenVMFile",
                          "src" : 1,
                          "trackNumber" : 0,
                          "attributes" : {
                            "ident" : "录制日期 21-03-31"
                          },
                          "parameters" : {
                            "cursorScale" : {
                              "type" : "double",
                              "defaultValue" : 0.0,
                              "interp" : "linr"
                            },
                            "cursorOpacity" : {
                              "type" : "double",
                              "defaultValue" : 0.0,
                              "interp" : "linr"
                            }
                          },
                          "effects" : [

                          ],
                          "start" : 1006,
                          "duration" : 23949,
                          "mediaStart" : 886,
                          "mediaDuration" : 23949,
                          "scalar" : 1,
                          "metadata" : {
                            "AutoAppliedSmartFocus" : "False",
                            "WinSubProjectDisplayName" : "",
                            "clipSpeedAttribute" : false
                          },
                          "animationTracks" : {

                          }
                        }
                    ],
                    "effects" : [

                    ],
                    "start" : 4922,
                    "duration" : 17,
                    "mediaStart" : 23907,
                    "mediaDuration" : 68,
                    "scalar" : "1/4",
                    "metadata" : {
                      "AutoAppliedSmartFocus" : "False",
                      "WinSubProjectDisplayName" : "",
                      "clipSpeedAttribute" : true
                    },
                    "animationTracks" : {

                    }
                  },
                  {
                    "id" : 243,
                    "_type" : "StitchedMedia",
                    "minMediaStart" : 0,
                    "attributes" : {
                      "ident" : "录制日期 21-03-31",
                      "gain" : 1.0,
                      "mixToMono" : false
                    },
                    "parameters" : {
                      "cursorOpacity" : 1.0,
                      "cursorScale" : 1.0
                    },
                    "medias" : [
                        {
                          "id" : 244,
                          "_type" : "ScreenVMFile",
                          "src" : 1,
                          "trackNumber" : 0,
                          "attributes" : {
                            "ident" : "录制日期 21-03-31"
                          },
                          "parameters" : {
                            "cursorScale" : {
                              "type" : "double",
                              "defaultValue" : 0.0,
                              "interp" : "linr"
                            },
                            "cursorOpacity" : {
                              "type" : "double",
                              "defaultValue" : 0.0,
                              "interp" : "linr"
                            }
                          },
                          "effects" : [

                          ],
                          "start" : 0,
                          "duration" : 886,
                          "mediaStart" : 0,
                          "mediaDuration" : 886,
                          "scalar" : 1,
                          "metadata" : {
                            "AutoAppliedSmartFocus" : "False",
                            "WinSubProjectDisplayName" : "",
                            "clipSpeedAttribute" : false
                          },
                          "animationTracks" : {

                          }
                        },
                        {
                          "id" : 245,
                          "_type" : "ScreenIMFile",
                          "src" : 1,
                          "trackNumber" : 0,
                          "trimStartSum" : 0,
                          "attributes" : {
                            "ident" : "录制日期 21-03-31"
                          },
                          "parameters" : {
                            "cursorOpacity" : 0.0,
                            "cursorScale" : 0.0
                          },
                          "effects" : [

                          ],
                          "start" : 886,
                          "duration" : 120,
                          "mediaStart" : 885,
                          "mediaDuration" : 1,
                          "scalar" : 1,
                          "metadata" : {
                            "AutoAppliedSmartFocus" : "False",
                            "WinSubProjectDisplayName" : ""
                          },
                          "animationTracks" : {

                          }
                        },
                        {
                          "id" : 246,
                          "_type" : "ScreenVMFile",
                          "src" : 1,
                          "trackNumber" : 0,
                          "attributes" : {
                            "ident" : "录制日期 21-03-31"
                          },
                          "parameters" : {
                            "cursorScale" : {
                              "type" : "double",
                              "defaultValue" : 0.0,
                              "interp" : "linr"
                            },
                            "cursorOpacity" : {
                              "type" : "double",
                              "defaultValue" : 0.0,
                              "interp" : "linr"
                            }
                          },
                          "effects" : [

                          ],
                          "start" : 1006,
                          "duration" : 23949,
                          "mediaStart" : 886,
                          "mediaDuration" : 23949,
                          "scalar" : 1,
                          "metadata" : {
                            "AutoAppliedSmartFocus" : "False",
                            "WinSubProjectDisplayName" : "",
                            "clipSpeedAttribute" : false
                          },
                          "animationTracks" : {

                          }
                        }
                    ],
                    "effects" : [

                    ],
                    "start" : 4939,
                    "duration" : 33,
                    "mediaStart" : 23975,
                    "mediaDuration" : 33,
                    "scalar" : 1,
                    "metadata" : {
                      "AutoAppliedSmartFocus" : "False",
                      "WinSubProjectDisplayName" : "",
                      "clipSpeedAttribute" : false
                    },
                    "animationTracks" : {

                    }
                  },
                  {
                    "id" : 247,
                    "_type" : "StitchedMedia",
                    "minMediaStart" : 0,
                    "attributes" : {
                      "ident" : "录制日期 21-03-31",
                      "gain" : 1.0,
                      "mixToMono" : false
                    },
                    "parameters" : {
                      "cursorOpacity" : {
                        "type" : "double",
                        "defaultValue" : 1.0,
                        "interp" : "linr"
                      },
                      "cursorScale" : {
                        "type" : "double",
                        "defaultValue" : 1.0,
                        "interp" : "linr"
                      }
                    },
                    "medias" : [
                        {
                          "id" : 248,
                          "_type" : "ScreenVMFile",
                          "src" : 1,
                          "trackNumber" : 0,
                          "attributes" : {
                            "ident" : "录制日期 21-03-31"
                          },
                          "parameters" : {
                            "cursorScale" : {
                              "type" : "double",
                              "defaultValue" : 0.0,
                              "interp" : "linr"
                            },
                            "cursorOpacity" : {
                              "type" : "double",
                              "defaultValue" : 0.0,
                              "interp" : "linr"
                            }
                          },
                          "effects" : [

                          ],
                          "start" : 0,
                          "duration" : 886,
                          "mediaStart" : 0,
                          "mediaDuration" : 886,
                          "scalar" : 1,
                          "metadata" : {
                            "AutoAppliedSmartFocus" : "False",
                            "WinSubProjectDisplayName" : "",
                            "clipSpeedAttribute" : false
                          },
                          "animationTracks" : {

                          }
                        },
                        {
                          "id" : 249,
                          "_type" : "ScreenIMFile",
                          "src" : 1,
                          "trackNumber" : 0,
                          "trimStartSum" : 0,
                          "attributes" : {
                            "ident" : "录制日期 21-03-31"
                          },
                          "parameters" : {
                            "cursorOpacity" : {
                              "type" : "double",
                              "defaultValue" : 0.0,
                              "interp" : "linr"
                            },
                            "cursorScale" : {
                              "type" : "double",
                              "defaultValue" : 0.0,
                              "interp" : "linr"
                            }
                          },
                          "effects" : [

                          ],
                          "start" : 886,
                          "duration" : 120,
                          "mediaStart" : 885,
                          "mediaDuration" : 1,
                          "scalar" : 1,
                          "metadata" : {
                            "AutoAppliedSmartFocus" : "False",
                            "WinSubProjectDisplayName" : ""
                          },
                          "animationTracks" : {

                          }
                        },
                        {
                          "id" : 250,
                          "_type" : "ScreenVMFile",
                          "src" : 1,
                          "trackNumber" : 0,
                          "attributes" : {
                            "ident" : "录制日期 21-03-31"
                          },
                          "parameters" : {
                            "cursorScale" : {
                              "type" : "double",
                              "defaultValue" : 0.0,
                              "interp" : "linr"
                            },
                            "cursorOpacity" : {
                              "type" : "double",
                              "defaultValue" : 0.0,
                              "interp" : "linr"
                            }
                          },
                          "effects" : [

                          ],
                          "start" : 1006,
                          "duration" : 23949,
                          "mediaStart" : 886,
                          "mediaDuration" : 23949,
                          "scalar" : 1,
                          "metadata" : {
                            "AutoAppliedSmartFocus" : "False",
                            "WinSubProjectDisplayName" : "",
                            "clipSpeedAttribute" : false
                          },
                          "animationTracks" : {

                          }
                        }
                    ],
                    "effects" : [

                    ],
                    "start" : 4972,
                    "duration" : 23,
                    "mediaStart" : 24031,
                    "mediaDuration" : 23,
                    "scalar" : 1,
                    "metadata" : {
                      "AutoAppliedSmartFocus" : "False",
                      "WinSubProjectDisplayName" : "",
                      "clipSpeedAttribute" : false
                    },
                    "animationTracks" : {

                    }
                  },
                  {
                    "id" : 251,
                    "_type" : "IMFile",
                    "src" : 5,
                    "trackNumber" : 0,
                    "trimStartSum" : 0,
                    "attributes" : {
                      "ident" : "cont"
                    },
                    "effects" : [

                    ],
                    "start" : 4995,
                    "duration" : 372,
                    "mediaStart" : 0,
                    "mediaDuration" : 1,
                    "scalar" : 1,
                    "metadata" : {
                      "WinSubProjectDisplayName" : "",
                      "clipSpeedAttribute" : false
                    },
                    "animationTracks" : {

                    }
                  },
                  {
                    "id" : 252,
                    "_type" : "StitchedMedia",
                    "minMediaStart" : 0,
                    "attributes" : {
                      "ident" : "录制日期 21-03-31",
                      "gain" : 1.0,
                      "mixToMono" : false
                    },
                    "parameters" : {
                      "cursorOpacity" : 1.0,
                      "cursorScale" : 1.0
                    },
                    "medias" : [
                        {
                          "id" : 253,
                          "_type" : "ScreenVMFile",
                          "src" : 1,
                          "trackNumber" : 0,
                          "attributes" : {
                            "ident" : "录制日期 21-03-31"
                          },
                          "parameters" : {
                            "cursorScale" : {
                              "type" : "double",
                              "defaultValue" : 0.0,
                              "interp" : "linr"
                            },
                            "cursorOpacity" : {
                              "type" : "double",
                              "defaultValue" : 0.0,
                              "interp" : "linr"
                            }
                          },
                          "effects" : [

                          ],
                          "start" : 0,
                          "duration" : 886,
                          "mediaStart" : 0,
                          "mediaDuration" : 886,
                          "scalar" : 1,
                          "metadata" : {
                            "AutoAppliedSmartFocus" : "False",
                            "WinSubProjectDisplayName" : "",
                            "clipSpeedAttribute" : false
                          },
                          "animationTracks" : {

                          }
                        },
                        {
                          "id" : 254,
                          "_type" : "ScreenIMFile",
                          "src" : 1,
                          "trackNumber" : 0,
                          "trimStartSum" : 0,
                          "attributes" : {
                            "ident" : "录制日期 21-03-31"
                          },
                          "parameters" : {
                            "cursorOpacity" : 0.0,
                            "cursorScale" : 0.0
                          },
                          "effects" : [

                          ],
                          "start" : 886,
                          "duration" : 120,
                          "mediaStart" : 885,
                          "mediaDuration" : 1,
                          "scalar" : 1,
                          "metadata" : {
                            "AutoAppliedSmartFocus" : "False",
                            "WinSubProjectDisplayName" : ""
                          },
                          "animationTracks" : {

                          }
                        },
                        {
                          "id" : 255,
                          "_type" : "ScreenVMFile",
                          "src" : 1,
                          "trackNumber" : 0,
                          "attributes" : {
                            "ident" : "录制日期 21-03-31"
                          },
                          "parameters" : {
                            "cursorScale" : {
                              "type" : "double",
                              "defaultValue" : 0.0,
                              "interp" : "linr"
                            },
                            "cursorOpacity" : {
                              "type" : "double",
                              "defaultValue" : 0.0,
                              "interp" : "linr"
                            }
                          },
                          "effects" : [

                          ],
                          "start" : 1006,
                          "duration" : 23949,
                          "mediaStart" : 886,
                          "mediaDuration" : 23949,
                          "scalar" : 1,
                          "metadata" : {
                            "AutoAppliedSmartFocus" : "False",
                            "WinSubProjectDisplayName" : "",
                            "clipSpeedAttribute" : false
                          },
                          "animationTracks" : {

                          }
                        }
                    ],
                    "effects" : [

                    ],
                    "start" : 5367,
                    "duration" : 41,
                    "mediaStart" : 24470,
                    "mediaDuration" : 41,
                    "scalar" : 1,
                    "metadata" : {
                      "AutoAppliedSmartFocus" : "False",
                      "WinSubProjectDisplayName" : "",
                      "clipSpeedAttribute" : false
                    },
                    "animationTracks" : {

                    }
                  },
                  {
                    "id" : 256,
                    "_type" : "StitchedMedia",
                    "minMediaStart" : 0,
                    "attributes" : {
                      "ident" : "录制日期 21-03-31",
                      "gain" : 1.0,
                      "mixToMono" : false
                    },
                    "parameters" : {
                      "cursorOpacity" : 1.0,
                      "cursorScale" : 1.0
                    },
                    "medias" : [
                        {
                          "id" : 257,
                          "_type" : "ScreenVMFile",
                          "src" : 1,
                          "trackNumber" : 0,
                          "attributes" : {
                            "ident" : "录制日期 21-03-31"
                          },
                          "parameters" : {
                            "cursorScale" : {
                              "type" : "double",
                              "defaultValue" : 0.0,
                              "interp" : "linr"
                            },
                            "cursorOpacity" : {
                              "type" : "double",
                              "defaultValue" : 0.0,
                              "interp" : "linr"
                            }
                          },
                          "effects" : [

                          ],
                          "start" : 0,
                          "duration" : 886,
                          "mediaStart" : 0,
                          "mediaDuration" : 886,
                          "scalar" : 1,
                          "metadata" : {
                            "AutoAppliedSmartFocus" : "False",
                            "WinSubProjectDisplayName" : "",
                            "clipSpeedAttribute" : false
                          },
                          "animationTracks" : {

                          }
                        },
                        {
                          "id" : 258,
                          "_type" : "ScreenIMFile",
                          "src" : 1,
                          "trackNumber" : 0,
                          "trimStartSum" : 0,
                          "attributes" : {
                            "ident" : "录制日期 21-03-31"
                          },
                          "parameters" : {
                            "cursorOpacity" : 0.0,
                            "cursorScale" : 0.0
                          },
                          "effects" : [

                          ],
                          "start" : 886,
                          "duration" : 120,
                          "mediaStart" : 885,
                          "mediaDuration" : 1,
                          "scalar" : 1,
                          "metadata" : {
                            "AutoAppliedSmartFocus" : "False",
                            "WinSubProjectDisplayName" : ""
                          },
                          "animationTracks" : {

                          }
                        },
                        {
                          "id" : 259,
                          "_type" : "ScreenVMFile",
                          "src" : 1,
                          "trackNumber" : 0,
                          "attributes" : {
                            "ident" : "录制日期 21-03-31"
                          },
                          "parameters" : {
                            "cursorScale" : {
                              "type" : "double",
                              "defaultValue" : 0.0,
                              "interp" : "linr"
                            },
                            "cursorOpacity" : {
                              "type" : "double",
                              "defaultValue" : 0.0,
                              "interp" : "linr"
                            }
                          },
                          "effects" : [

                          ],
                          "start" : 1006,
                          "duration" : 23949,
                          "mediaStart" : 886,
                          "mediaDuration" : 23949,
                          "scalar" : 1,
                          "metadata" : {
                            "AutoAppliedSmartFocus" : "False",
                            "WinSubProjectDisplayName" : "",
                            "clipSpeedAttribute" : false
                          },
                          "animationTracks" : {

                          }
                        }
                    ],
                    "effects" : [

                    ],
                    "start" : 5408,
                    "duration" : 44,
                    "mediaStart" : 24511,
                    "mediaDuration" : 83,
                    "scalar" : "44/83",
                    "metadata" : {
                      "AutoAppliedSmartFocus" : "False",
                      "WinSubProjectDisplayName" : "",
                      "clipSpeedAttribute" : true
                    },
                    "animationTracks" : {

                    }
                  },
                  {
                    "id" : 260,
                    "_type" : "StitchedMedia",
                    "minMediaStart" : 0,
                    "attributes" : {
                      "ident" : "录制日期 21-03-31",
                      "gain" : 1.0,
                      "mixToMono" : false
                    },
                    "parameters" : {
                      "cursorOpacity" : 1.0,
                      "cursorScale" : 1.0
                    },
                    "medias" : [
                        {
                          "id" : 261,
                          "_type" : "ScreenVMFile",
                          "src" : 1,
                          "trackNumber" : 0,
                          "attributes" : {
                            "ident" : "录制日期 21-03-31"
                          },
                          "parameters" : {
                            "cursorScale" : {
                              "type" : "double",
                              "defaultValue" : 0.0,
                              "interp" : "linr"
                            },
                            "cursorOpacity" : {
                              "type" : "double",
                              "defaultValue" : 0.0,
                              "interp" : "linr"
                            }
                          },
                          "effects" : [

                          ],
                          "start" : 0,
                          "duration" : 886,
                          "mediaStart" : 0,
                          "mediaDuration" : 886,
                          "scalar" : 1,
                          "metadata" : {
                            "AutoAppliedSmartFocus" : "False",
                            "WinSubProjectDisplayName" : "",
                            "clipSpeedAttribute" : false
                          },
                          "animationTracks" : {

                          }
                        },
                        {
                          "id" : 262,
                          "_type" : "ScreenIMFile",
                          "src" : 1,
                          "trackNumber" : 0,
                          "trimStartSum" : 0,
                          "attributes" : {
                            "ident" : "录制日期 21-03-31"
                          },
                          "parameters" : {
                            "cursorOpacity" : 0.0,
                            "cursorScale" : 0.0
                          },
                          "effects" : [

                          ],
                          "start" : 886,
                          "duration" : 120,
                          "mediaStart" : 885,
                          "mediaDuration" : 1,
                          "scalar" : 1,
                          "metadata" : {
                            "AutoAppliedSmartFocus" : "False",
                            "WinSubProjectDisplayName" : ""
                          },
                          "animationTracks" : {

                          }
                        },
                        {
                          "id" : 263,
                          "_type" : "ScreenVMFile",
                          "src" : 1,
                          "trackNumber" : 0,
                          "attributes" : {
                            "ident" : "录制日期 21-03-31"
                          },
                          "parameters" : {
                            "cursorScale" : {
                              "type" : "double",
                              "defaultValue" : 0.0,
                              "interp" : "linr"
                            },
                            "cursorOpacity" : {
                              "type" : "double",
                              "defaultValue" : 0.0,
                              "interp" : "linr"
                            }
                          },
                          "effects" : [

                          ],
                          "start" : 1006,
                          "duration" : 23949,
                          "mediaStart" : 886,
                          "mediaDuration" : 23949,
                          "scalar" : 1,
                          "metadata" : {
                            "AutoAppliedSmartFocus" : "False",
                            "WinSubProjectDisplayName" : "",
                            "clipSpeedAttribute" : false
                          },
                          "animationTracks" : {

                          }
                        }
                    ],
                    "effects" : [

                    ],
                    "start" : 5452,
                    "duration" : 85,
                    "mediaStart" : 24594,
                    "mediaDuration" : 85,
                    "scalar" : 1,
                    "metadata" : {
                      "AutoAppliedSmartFocus" : "False",
                      "WinSubProjectDisplayName" : "",
                      "clipSpeedAttribute" : false
                    },
                    "animationTracks" : {

                    }
                  },
                  {
                    "id" : 264,
                    "_type" : "StitchedMedia",
                    "minMediaStart" : 0,
                    "attributes" : {
                      "ident" : "录制日期 21-03-31",
                      "gain" : 1.0,
                      "mixToMono" : false
                    },
                    "parameters" : {
                      "cursorOpacity" : {
                        "type" : "double",
                        "defaultValue" : 1.0,
                        "interp" : "linr"
                      },
                      "cursorScale" : {
                        "type" : "double",
                        "defaultValue" : 1.0,
                        "interp" : "linr"
                      }
                    },
                    "medias" : [
                        {
                          "id" : 265,
                          "_type" : "ScreenVMFile",
                          "src" : 1,
                          "trackNumber" : 0,
                          "attributes" : {
                            "ident" : "录制日期 21-03-31"
                          },
                          "parameters" : {
                            "cursorScale" : {
                              "type" : "double",
                              "defaultValue" : 0.0,
                              "interp" : "linr"
                            },
                            "cursorOpacity" : {
                              "type" : "double",
                              "defaultValue" : 0.0,
                              "interp" : "linr"
                            }
                          },
                          "effects" : [

                          ],
                          "start" : 0,
                          "duration" : 886,
                          "mediaStart" : 0,
                          "mediaDuration" : 886,
                          "scalar" : 1,
                          "metadata" : {
                            "AutoAppliedSmartFocus" : "False",
                            "WinSubProjectDisplayName" : "",
                            "clipSpeedAttribute" : false
                          },
                          "animationTracks" : {

                          }
                        },
                        {
                          "id" : 266,
                          "_type" : "ScreenIMFile",
                          "src" : 1,
                          "trackNumber" : 0,
                          "trimStartSum" : 0,
                          "attributes" : {
                            "ident" : "录制日期 21-03-31"
                          },
                          "parameters" : {
                            "cursorOpacity" : {
                              "type" : "double",
                              "defaultValue" : 0.0,
                              "interp" : "linr"
                            },
                            "cursorScale" : {
                              "type" : "double",
                              "defaultValue" : 0.0,
                              "interp" : "linr"
                            }
                          },
                          "effects" : [

                          ],
                          "start" : 886,
                          "duration" : 120,
                          "mediaStart" : 885,
                          "mediaDuration" : 1,
                          "scalar" : 1,
                          "metadata" : {
                            "AutoAppliedSmartFocus" : "False",
                            "WinSubProjectDisplayName" : ""
                          },
                          "animationTracks" : {

                          }
                        },
                        {
                          "id" : 267,
                          "_type" : "ScreenVMFile",
                          "src" : 1,
                          "trackNumber" : 0,
                          "attributes" : {
                            "ident" : "录制日期 21-03-31"
                          },
                          "parameters" : {
                            "cursorScale" : {
                              "type" : "double",
                              "defaultValue" : 0.0,
                              "interp" : "linr"
                            },
                            "cursorOpacity" : {
                              "type" : "double",
                              "defaultValue" : 0.0,
                              "interp" : "linr"
                            }
                          },
                          "effects" : [

                          ],
                          "start" : 1006,
                          "duration" : 23949,
                          "mediaStart" : 886,
                          "mediaDuration" : 23949,
                          "scalar" : 1,
                          "metadata" : {
                            "AutoAppliedSmartFocus" : "False",
                            "WinSubProjectDisplayName" : "",
                            "clipSpeedAttribute" : false
                          },
                          "animationTracks" : {

                          }
                        }
                    ],
                    "effects" : [

                    ],
                    "start" : 5537,
                    "duration" : 35,
                    "mediaStart" : 24706,
                    "mediaDuration" : 35,
                    "scalar" : 1,
                    "metadata" : {
                      "AutoAppliedSmartFocus" : "False",
                      "WinSubProjectDisplayName" : "",
                      "clipSpeedAttribute" : false
                    },
                    "animationTracks" : {

                    }
                  },
                  {
                    "id" : 268,
                    "_type" : "IMFile",
                    "src" : 9,
                    "trackNumber" : 0,
                    "trimStartSum" : 0,
                    "attributes" : {
                      "ident" : "end"
                    },
                    "effects" : [

                    ],
                    "start" : 5572,
                    "duration" : 150,
                    "mediaStart" : 0,
                    "mediaDuration" : 1,
                    "scalar" : 1,
                    "metadata" : {
                      "WinSubProjectDisplayName" : "",
                      "clipSpeedAttribute" : false
                    },
                    "animationTracks" : {

                    }
                  }
                ],
                "transitions" : [
                  {
                    "name" : "FadeThroughBlack",
                    "duration" : 15,
                    "useAudioPreRoll" : true,
                    "useVisualPreRoll" : true,
                    "leftMedia" : 18
                  },
                  {
                    "name" : "FadeThroughBlack",
                    "duration" : 30,
                    "useAudioPreRoll" : true,
                    "useVisualPreRoll" : true,
                    "rightMedia" : 19
                  },
                  {
                    "name" : "FadeThroughBlack",
                    "duration" : 15,
                    "useAudioPreRoll" : true,
                    "useVisualPreRoll" : true,
                    "leftMedia" : 20,
                    "rightMedia" : 21
                  },
                  {
                    "name" : "FadeThroughBlack",
                    "duration" : 30,
                    "useAudioPreRoll" : true,
                    "useVisualPreRoll" : true,
                    "leftMedia" : 59
                  },
                  {
                    "name" : "FadeThroughBlack",
                    "duration" : 15,
                    "useAudioPreRoll" : true,
                    "useVisualPreRoll" : true,
                    "rightMedia" : 65
                  },
                  {
                    "name" : "FadeThroughBlack",
                    "duration" : 15,
                    "useAudioPreRoll" : true,
                    "useVisualPreRoll" : true,
                    "leftMedia" : 247,
                    "rightMedia" : 251
                  },
                  {
                    "name" : "FadeThroughBlack",
                    "duration" : 15,
                    "useAudioPreRoll" : true,
                    "useVisualPreRoll" : true,
                    "leftMedia" : 251,
                    "rightMedia" : 252
                  },
                  {
                    "name" : "FadeThroughBlack",
                    "duration" : 15,
                    "useAudioPreRoll" : true,
                    "useVisualPreRoll" : true,
                    "leftMedia" : 264,
                    "rightMedia" : 268
                  }
                ]
              },
              {
                "trackIndex" : 1,
                "medias" : [
                  {
                    "id" : 269,
                    "_type" : "Callout",
                    "def" : {
                      "kind" : "remix",
                      "shape" : "text",
                      "style" : "basic",
                      "height" : {
                        "type" : "double",
                        "defaultValue" : 112.141592920296,
                        "interp" : "linr"
                      },
                      "width" : {
                        "type" : "double",
                        "defaultValue" : 1920.00000000017,
                        "interp" : "linr"
                      },
                      "word-wrap" : {
                        "type" : "double",
                        "defaultValue" : 1.0,
                        "interp" : "linr"
                      },
                      "horizontal-alignment" : "center",
                      "text" : "Voronoi Diagram is a common method to display spatial characteristics",
                      "vertical-alignment" : "center",
                      "font" : {
                        "color-blue" : {
                          "type" : "double",
                          "defaultValue" : 1.0,
                          "interp" : "linr"
                        },
                        "color-green" : {
                          "type" : "double",
                          "defaultValue" : 1.0,
                          "interp" : "linr"
                        },
                        "color-red" : {
                          "type" : "double",
                          "defaultValue" : 1.0,
                          "interp" : "linr"
                        },
                        "size" : {
                          "type" : "double",
                          "defaultValue" : 96.0,
                          "interp" : "linr"
                        },
                        "tracking" : {
                          "type" : "double",
                          "defaultValue" : 0.0,
                          "interp" : "linr"
                        },
                        "name" : "Montserrat",
                        "weight" : "Regular"
                      },
                      "textAttributes" : {
                        "type" : "textAttributeList",
                        "keyframes" : [
                          {
                            "time" : 0,
                            "value" : [{"name":"strikethrough","rangeEnd":69,"rangeStart":0,"value":0,"valueType":"int"},{"name":"underline","rangeEnd":69,"rangeStart":0,"value":0,"valueType":"int"},{"name":"fontWeight","rangeEnd":69,"rangeStart":0,"value":100,"valueType":"int"},{"name":"fgColor","rangeEnd":69,"rangeStart":0,"value":"(0,0,0,255)","valueType":"color"},{"name":"fontItalic","rangeEnd":69,"rangeStart":0,"value":0,"valueType":"int"},{"name":"fontSize","rangeEnd":69,"rangeStart":0,"value":96,"valueType":"double"},{"name":"fontName","rangeEnd":69,"rangeStart":0,"value":"Montserrat","valueType":"string"}],
                            "duration" : 0
                          }
                        ]
                      }
                    },
                    "attributes" : {
                      "autoRotateText" : true
                    },
                    "parameters" : {
                      "translation0" : {
                        "type" : "double",
                        "defaultValue" : -5.7912785678127e-11,
                        "interp" : "eioe"
                      },
                      "translation1" : {
                        "type" : "double",
                        "defaultValue" : -440.154867256101,
                        "interp" : "eioe"
                      }
                    },
                    "effects" : [
                        {
                          "effectName" : "DropShadow",
                          "parameters" : {
                            "angle" : {
                              "type" : "double",
                              "defaultValue" : 5.49778714378214,
                              "interp" : "linr",
                              "uiHints" : {
                                "userInterfaceType" : 0,
                                "unitType" : 0
                              }
                            },
                            "blur" : {
                              "type" : "double",
                              "defaultValue" : 10.0,
                              "interp" : "linr",
                              "uiHints" : {
                                "userInterfaceType" : 0,
                                "unitType" : 0
                              }
                            },
                            "color-alpha" : {
                              "type" : "double",
                              "defaultValue" : 1.0,
                              "interp" : "linr",
                              "uiHints" : {
                                "userInterfaceType" : 0,
                                "unitType" : 0
                              }
                            },
                            "color-blue" : {
                              "type" : "double",
                              "defaultValue" : 0.1216,
                              "interp" : "linr",
                              "uiHints" : {
                                "userInterfaceType" : 0,
                                "unitType" : 0
                              }
                            },
                            "color-green" : {
                              "type" : "double",
                              "defaultValue" : 0.1216,
                              "interp" : "linr",
                              "uiHints" : {
                                "userInterfaceType" : 0,
                                "unitType" : 0
                              }
                            },
                            "color-red" : {
                              "type" : "double",
                              "defaultValue" : 0.1216,
                              "interp" : "linr",
                              "uiHints" : {
                                "userInterfaceType" : 0,
                                "unitType" : 0
                              }
                            },
                            "enabled" : 1,
                            "offset" : {
                              "type" : "double",
                              "defaultValue" : 10.0,
                              "interp" : "linr",
                              "uiHints" : {
                                "userInterfaceType" : 0,
                                "unitType" : 0
                              }
                            },
                            "opacity" : {
                              "type" : "double",
                              "defaultValue" : 0.4,
                              "interp" : "linr",
                              "uiHints" : {
                                "userInterfaceType" : 0,
                                "unitType" : 0
                              }
                            }
                          }
                        }
                    ],
                    "start" : 171,
                    "duration" : 129,
                    "mediaStart" : 0,
                    "mediaDuration" : 129,
                    "scalar" : 1,
                    "metadata" : {
                      "WinSubProjectDisplayName" : "",
                      "clipSpeedAttribute" : false,
                      "default-HAlign" : "center",
                      "default-VAlign" : "center",
                      "default-text-attributes" : "[{\"name\":\"underline\",\"rangeEnd\":42,\"rangeStart\":0,\"value\":0,\"valueType\":\"int\"},{\"name\":\"fgColor\",\"rangeEnd\":44,\"rangeStart\":0,\"value\":\"(0,0,0,255)\",\"valueType\":\"color\"},{\"name\":\"fontName\",\"rangeEnd\":42,\"rangeStart\":0,\"value\":\"Montserrat\",\"valueType\":\"string\"},{\"name\":\"strikethrough\",\"rangeEnd\":42,\"rangeStart\":0,\"value\":0,\"valueType\":\"int\"},{\"name\":\"fontSize\",\"rangeEnd\":42,\"rangeStart\":0,\"value\":96,\"valueType\":\"double\"},{\"name\":\"fontWeight\",\"rangeEnd\":42,\"rangeStart\":0,\"value\":100,\"valueType\":\"int\"},{\"name\":\"fontItalic\",\"rangeEnd\":42,\"rangeStart\":0,\"value\":0,\"valueType\":\"int\"}]",
                      "default-translation0" : 0.0,
                      "default-translation1" : 0.0
                    },
                    "animationTracks" : {

                    }
                  },
                  {
                    "id" : 270,
                    "_type" : "Callout",
                    "def" : {
                      "kind" : "remix",
                      "shape" : "text",
                      "style" : "basic",
                      "height" : {
                        "type" : "double",
                        "defaultValue" : 74.141592920386,
                        "interp" : "linr"
                      },
                      "width" : {
                        "type" : "double",
                        "defaultValue" : 1919.99999999994,
                        "interp" : "linr"
                      },
                      "word-wrap" : {
                        "type" : "double",
                        "defaultValue" : 1.0,
                        "interp" : "linr"
                      },
                      "horizontal-alignment" : "center",
                      "text" : "However, it is inefficient for large-scale geographical point data",
                      "vertical-alignment" : "center",
                      "font" : {
                        "color-blue" : {
                          "type" : "double",
                          "defaultValue" : 1.0,
                          "interp" : "linr"
                        },
                        "color-green" : {
                          "type" : "double",
                          "defaultValue" : 1.0,
                          "interp" : "linr"
                        },
                        "color-red" : {
                          "type" : "double",
                          "defaultValue" : 1.0,
                          "interp" : "linr"
                        },
                        "size" : {
                          "type" : "double",
                          "defaultValue" : 96.0,
                          "interp" : "linr"
                        },
                        "tracking" : {
                          "type" : "double",
                          "defaultValue" : 0.0,
                          "interp" : "linr"
                        },
                        "name" : "Montserrat",
                        "weight" : "Regular"
                      },
                      "textAttributes" : {
                        "type" : "textAttributeList",
                        "keyframes" : [
                          {
                            "time" : 0,
                            "value" : [{"name":"fontItalic","rangeEnd":66,"rangeStart":0,"value":0,"valueType":"int"},{"name":"fontName","rangeEnd":66,"rangeStart":0,"value":"Montserrat","valueType":"string"},{"name":"fontWeight","rangeEnd":66,"rangeStart":0,"value":100,"valueType":"int"},{"name":"underline","rangeEnd":66,"rangeStart":0,"value":0,"valueType":"int"},{"name":"fontSize","rangeEnd":66,"rangeStart":0,"value":96,"valueType":"double"},{"name":"fgColor","rangeEnd":66,"rangeStart":0,"value":"(0,0,0,255)","valueType":"color"},{"name":"strikethrough","rangeEnd":66,"rangeStart":0,"value":0,"valueType":"int"}],
                            "duration" : 0
                          }
                        ]
                      }
                    },
                    "attributes" : {
                      "autoRotateText" : true
                    },
                    "parameters" : {
                      "translation0" : {
                        "type" : "double",
                        "defaultValue" : -9.77600222995534e-11,
                        "interp" : "eioe"
                      },
                      "translation1" : {
                        "type" : "double",
                        "defaultValue" : -445.154867256108,
                        "interp" : "eioe"
                      }
                    },
                    "effects" : [
                        {
                          "effectName" : "DropShadow",
                          "parameters" : {
                            "angle" : {
                              "type" : "double",
                              "defaultValue" : 5.49778714378214,
                              "interp" : "linr",
                              "uiHints" : {
                                "userInterfaceType" : 0,
                                "unitType" : 0
                              }
                            },
                            "blur" : {
                              "type" : "double",
                              "defaultValue" : 10.0,
                              "interp" : "linr",
                              "uiHints" : {
                                "userInterfaceType" : 0,
                                "unitType" : 0
                              }
                            },
                            "color-alpha" : {
                              "type" : "double",
                              "defaultValue" : 1.0,
                              "interp" : "linr",
                              "uiHints" : {
                                "userInterfaceType" : 0,
                                "unitType" : 0
                              }
                            },
                            "color-blue" : {
                              "type" : "double",
                              "defaultValue" : 0.1216,
                              "interp" : "linr",
                              "uiHints" : {
                                "userInterfaceType" : 0,
                                "unitType" : 0
                              }
                            },
                            "color-green" : {
                              "type" : "double",
                              "defaultValue" : 0.1216,
                              "interp" : "linr",
                              "uiHints" : {
                                "userInterfaceType" : 0,
                                "unitType" : 0
                              }
                            },
                            "color-red" : {
                              "type" : "double",
                              "defaultValue" : 0.1216,
                              "interp" : "linr",
                              "uiHints" : {
                                "userInterfaceType" : 0,
                                "unitType" : 0
                              }
                            },
                            "enabled" : 1,
                            "offset" : {
                              "type" : "double",
                              "defaultValue" : 10.0,
                              "interp" : "linr",
                              "uiHints" : {
                                "userInterfaceType" : 0,
                                "unitType" : 0
                              }
                            },
                            "opacity" : {
                              "type" : "double",
                              "defaultValue" : 0.4,
                              "interp" : "linr",
                              "uiHints" : {
                                "userInterfaceType" : 0,
                                "unitType" : 0
                              }
                            }
                          }
                        }
                    ],
                    "start" : 316,
                    "duration" : 117,
                    "mediaStart" : 0,
                    "mediaDuration" : 117,
                    "scalar" : 1,
                    "metadata" : {
                      "WinSubProjectDisplayName" : "",
                      "clipSpeedAttribute" : false,
                      "default-HAlign" : "center",
                      "default-VAlign" : "center",
                      "default-text-attributes" : "[{\"name\":\"underline\",\"rangeEnd\":42,\"rangeStart\":0,\"value\":0,\"valueType\":\"int\"},{\"name\":\"fgColor\",\"rangeEnd\":44,\"rangeStart\":0,\"value\":\"(0,0,0,255)\",\"valueType\":\"color\"},{\"name\":\"fontName\",\"rangeEnd\":42,\"rangeStart\":0,\"value\":\"Montserrat\",\"valueType\":\"string\"},{\"name\":\"strikethrough\",\"rangeEnd\":42,\"rangeStart\":0,\"value\":0,\"valueType\":\"int\"},{\"name\":\"fontSize\",\"rangeEnd\":42,\"rangeStart\":0,\"value\":96,\"valueType\":\"double\"},{\"name\":\"fontWeight\",\"rangeEnd\":42,\"rangeStart\":0,\"value\":100,\"valueType\":\"int\"},{\"name\":\"fontItalic\",\"rangeEnd\":42,\"rangeStart\":0,\"value\":0,\"valueType\":\"int\"}]",
                      "default-translation0" : 0.0,
                      "default-translation1" : 0.0
                    },
                    "animationTracks" : {

                    }
                  },
                  {
                    "id" : 271,
                    "_type" : "Callout",
                    "def" : {
                      "kind" : "remix",
                      "shape" : "text",
                      "style" : "basic",
                      "height" : {
                        "type" : "double",
                        "defaultValue" : 74.141592920386,
                        "interp" : "linr"
                      },
                      "width" : {
                        "type" : "double",
                        "defaultValue" : 1774.37168141583,
                        "interp" : "linr"
                      },
                      "word-wrap" : {
                        "type" : "double",
                        "defaultValue" : 1.0,
                        "interp" : "linr"
                      },
                      "horizontal-alignment" : "center",
                      "text" : "Random Sampling can reduce the count of points and polygons",
                      "vertical-alignment" : "center",
                      "font" : {
                        "color-blue" : {
                          "type" : "double",
                          "defaultValue" : 1.0,
                          "interp" : "linr"
                        },
                        "color-green" : {
                          "type" : "double",
                          "defaultValue" : 1.0,
                          "interp" : "linr"
                        },
                        "color-red" : {
                          "type" : "double",
                          "defaultValue" : 1.0,
                          "interp" : "linr"
                        },
                        "size" : {
                          "type" : "double",
                          "defaultValue" : 96.0,
                          "interp" : "linr"
                        },
                        "tracking" : {
                          "type" : "double",
                          "defaultValue" : 0.0,
                          "interp" : "linr"
                        },
                        "name" : "Montserrat",
                        "weight" : "Regular"
                      },
                      "textAttributes" : {
                        "type" : "textAttributeList",
                        "keyframes" : [
                          {
                            "time" : 0,
                            "value" : [{"name":"strikethrough","rangeEnd":59,"rangeStart":0,"value":0,"valueType":"int"},{"name":"fontItalic","rangeEnd":59,"rangeStart":0,"value":0,"valueType":"int"},{"name":"fontName","rangeEnd":59,"rangeStart":0,"value":"Montserrat","valueType":"string"},{"name":"fontSize","rangeEnd":59,"rangeStart":0,"value":96,"valueType":"double"},{"name":"fontWeight","rangeEnd":59,"rangeStart":0,"value":100,"valueType":"int"},{"name":"underline","rangeEnd":59,"rangeStart":0,"value":0,"valueType":"int"},{"name":"fgColor","rangeEnd":59,"rangeStart":0,"value":"(0,0,0,255)","valueType":"color"}],
                            "duration" : 0
                          }
                        ]
                      }
                    },
                    "attributes" : {
                      "autoRotateText" : true
                    },
                    "parameters" : {
                      "translation0" : {
                        "type" : "double",
                        "defaultValue" : 10.8274336283455,
                        "interp" : "eioe"
                      },
                      "translation1" : {
                        "type" : "double",
                        "defaultValue" : -445.154867256108,
                        "interp" : "eioe"
                      }
                    },
                    "effects" : [
                        {
                          "effectName" : "DropShadow",
                          "parameters" : {
                            "angle" : {
                              "type" : "double",
                              "defaultValue" : 5.49778714378214,
                              "interp" : "linr",
                              "uiHints" : {
                                "userInterfaceType" : 0,
                                "unitType" : 0
                              }
                            },
                            "blur" : {
                              "type" : "double",
                              "defaultValue" : 10.0,
                              "interp" : "linr",
                              "uiHints" : {
                                "userInterfaceType" : 0,
                                "unitType" : 0
                              }
                            },
                            "color-alpha" : {
                              "type" : "double",
                              "defaultValue" : 1.0,
                              "interp" : "linr",
                              "uiHints" : {
                                "userInterfaceType" : 0,
                                "unitType" : 0
                              }
                            },
                            "color-blue" : {
                              "type" : "double",
                              "defaultValue" : 0.1216,
                              "interp" : "linr",
                              "uiHints" : {
                                "userInterfaceType" : 0,
                                "unitType" : 0
                              }
                            },
                            "color-green" : {
                              "type" : "double",
                              "defaultValue" : 0.1216,
                              "interp" : "linr",
                              "uiHints" : {
                                "userInterfaceType" : 0,
                                "unitType" : 0
                              }
                            },
                            "color-red" : {
                              "type" : "double",
                              "defaultValue" : 0.1216,
                              "interp" : "linr",
                              "uiHints" : {
                                "userInterfaceType" : 0,
                                "unitType" : 0
                              }
                            },
                            "enabled" : 1,
                            "offset" : {
                              "type" : "double",
                              "defaultValue" : 10.0,
                              "interp" : "linr",
                              "uiHints" : {
                                "userInterfaceType" : 0,
                                "unitType" : 0
                              }
                            },
                            "opacity" : {
                              "type" : "double",
                              "defaultValue" : 0.4,
                              "interp" : "linr",
                              "uiHints" : {
                                "userInterfaceType" : 0,
                                "unitType" : 0
                              }
                            }
                          }
                        }
                    ],
                    "start" : 456,
                    "duration" : 108,
                    "mediaStart" : 0,
                    "mediaDuration" : 108,
                    "scalar" : 1,
                    "metadata" : {
                      "WinSubProjectDisplayName" : "",
                      "clipSpeedAttribute" : false,
                      "default-HAlign" : "center",
                      "default-VAlign" : "center",
                      "default-text-attributes" : "[{\"name\":\"underline\",\"rangeEnd\":42,\"rangeStart\":0,\"value\":0,\"valueType\":\"int\"},{\"name\":\"fgColor\",\"rangeEnd\":44,\"rangeStart\":0,\"value\":\"(0,0,0,255)\",\"valueType\":\"color\"},{\"name\":\"fontName\",\"rangeEnd\":42,\"rangeStart\":0,\"value\":\"Montserrat\",\"valueType\":\"string\"},{\"name\":\"strikethrough\",\"rangeEnd\":42,\"rangeStart\":0,\"value\":0,\"valueType\":\"int\"},{\"name\":\"fontSize\",\"rangeEnd\":42,\"rangeStart\":0,\"value\":96,\"valueType\":\"double\"},{\"name\":\"fontWeight\",\"rangeEnd\":42,\"rangeStart\":0,\"value\":100,\"valueType\":\"int\"},{\"name\":\"fontItalic\",\"rangeEnd\":42,\"rangeStart\":0,\"value\":0,\"valueType\":\"int\"}]",
                      "default-translation0" : 0.0,
                      "default-translation1" : 0.0
                    },
                    "animationTracks" : {

                    }
                  },
                  {
                    "id" : 272,
                    "_type" : "Callout",
                    "def" : {
                      "kind" : "remix",
                      "shape" : "text",
                      "style" : "basic",
                      "height" : {
                        "type" : "double",
                        "defaultValue" : 148.141592920301,
                        "interp" : "linr"
                      },
                      "width" : {
                        "type" : "double",
                        "defaultValue" : 1384.37168141583,
                        "interp" : "linr"
                      },
                      "word-wrap" : {
                        "type" : "double",
                        "defaultValue" : 1.0,
                        "interp" : "linr"
                      },
                      "horizontal-alignment" : "center",
                      "text" : "But, the shapes are irregularly presented and points still overlap with each other",
                      "vertical-alignment" : "center",
                      "font" : {
                        "color-blue" : {
                          "type" : "double",
                          "defaultValue" : 1.0,
                          "interp" : "linr"
                        },
                        "color-green" : {
                          "type" : "double",
                          "defaultValue" : 1.0,
                          "interp" : "linr"
                        },
                        "color-red" : {
                          "type" : "double",
                          "defaultValue" : 1.0,
                          "interp" : "linr"
                        },
                        "size" : {
                          "type" : "double",
                          "defaultValue" : 96.0,
                          "interp" : "linr"
                        },
                        "tracking" : {
                          "type" : "double",
                          "defaultValue" : 0.0,
                          "interp" : "linr"
                        },
                        "name" : "Montserrat",
                        "weight" : "Regular"
                      },
                      "textAttributes" : {
                        "type" : "textAttributeList",
                        "keyframes" : [
                          {
                            "time" : 0,
                            "value" : [{"name":"fontName","rangeEnd":82,"rangeStart":0,"value":"Montserrat","valueType":"string"},{"name":"fontWeight","rangeEnd":82,"rangeStart":0,"value":100,"valueType":"int"},{"name":"strikethrough","rangeEnd":82,"rangeStart":0,"value":0,"valueType":"int"},{"name":"underline","rangeEnd":82,"rangeStart":0,"value":0,"valueType":"int"},{"name":"fontItalic","rangeEnd":82,"rangeStart":0,"value":0,"valueType":"int"},{"name":"fgColor","rangeEnd":82,"rangeStart":0,"value":"(0,0,0,255)","valueType":"color"},{"name":"fontSize","rangeEnd":82,"rangeStart":0,"value":96,"valueType":"double"}],
                            "duration" : 0
                          }
                        ]
                      }
                    },
                    "attributes" : {
                      "autoRotateText" : true
                    },
                    "parameters" : {
                      "translation0" : {
                        "type" : "double",
                        "defaultValue" : 0.314159292138626,
                        "interp" : "eioe"
                      },
                      "translation1" : {
                        "type" : "double",
                        "defaultValue" : -438.154867256118,
                        "interp" : "eioe"
                      }
                    },
                    "effects" : [
                        {
                          "effectName" : "DropShadow",
                          "parameters" : {
                            "angle" : {
                              "type" : "double",
                              "defaultValue" : 5.49778714378214,
                              "interp" : "linr",
                              "uiHints" : {
                                "userInterfaceType" : 0,
                                "unitType" : 0
                              }
                            },
                            "blur" : {
                              "type" : "double",
                              "defaultValue" : 10.0,
                              "interp" : "linr",
                              "uiHints" : {
                                "userInterfaceType" : 0,
                                "unitType" : 0
                              }
                            },
                            "color-alpha" : {
                              "type" : "double",
                              "defaultValue" : 1.0,
                              "interp" : "linr",
                              "uiHints" : {
                                "userInterfaceType" : 0,
                                "unitType" : 0
                              }
                            },
                            "color-blue" : {
                              "type" : "double",
                              "defaultValue" : 0.1216,
                              "interp" : "linr",
                              "uiHints" : {
                                "userInterfaceType" : 0,
                                "unitType" : 0
                              }
                            },
                            "color-green" : {
                              "type" : "double",
                              "defaultValue" : 0.1216,
                              "interp" : "linr",
                              "uiHints" : {
                                "userInterfaceType" : 0,
                                "unitType" : 0
                              }
                            },
                            "color-red" : {
                              "type" : "double",
                              "defaultValue" : 0.1216,
                              "interp" : "linr",
                              "uiHints" : {
                                "userInterfaceType" : 0,
                                "unitType" : 0
                              }
                            },
                            "enabled" : 1,
                            "offset" : {
                              "type" : "double",
                              "defaultValue" : 10.0,
                              "interp" : "linr",
                              "uiHints" : {
                                "userInterfaceType" : 0,
                                "unitType" : 0
                              }
                            },
                            "opacity" : {
                              "type" : "double",
                              "defaultValue" : 0.4,
                              "interp" : "linr",
                              "uiHints" : {
                                "userInterfaceType" : 0,
                                "unitType" : 0
                              }
                            }
                          }
                        }
                    ],
                    "start" : 566,
                    "duration" : 161,
                    "mediaStart" : 0,
                    "mediaDuration" : 161,
                    "scalar" : 1,
                    "metadata" : {
                      "WinSubProjectDisplayName" : "",
                      "clipSpeedAttribute" : false,
                      "default-HAlign" : "center",
                      "default-VAlign" : "center",
                      "default-text-attributes" : "[{\"name\":\"underline\",\"rangeEnd\":42,\"rangeStart\":0,\"value\":0,\"valueType\":\"int\"},{\"name\":\"fgColor\",\"rangeEnd\":44,\"rangeStart\":0,\"value\":\"(0,0,0,255)\",\"valueType\":\"color\"},{\"name\":\"fontName\",\"rangeEnd\":42,\"rangeStart\":0,\"value\":\"Montserrat\",\"valueType\":\"string\"},{\"name\":\"strikethrough\",\"rangeEnd\":42,\"rangeStart\":0,\"value\":0,\"valueType\":\"int\"},{\"name\":\"fontSize\",\"rangeEnd\":42,\"rangeStart\":0,\"value\":96,\"valueType\":\"double\"},{\"name\":\"fontWeight\",\"rangeEnd\":42,\"rangeStart\":0,\"value\":100,\"valueType\":\"int\"},{\"name\":\"fontItalic\",\"rangeEnd\":42,\"rangeStart\":0,\"value\":0,\"valueType\":\"int\"}]",
                      "default-translation0" : 0.0,
                      "default-translation1" : 0.0
                    },
                    "animationTracks" : {

                    }
                  },
                  {
                    "id" : 273,
                    "_type" : "Callout",
                    "def" : {
                      "kind" : "remix",
                      "shape" : "text",
                      "style" : "basic",
                      "height" : {
                        "type" : "double",
                        "defaultValue" : 74.141592920386,
                        "interp" : "linr"
                      },
                      "width" : {
                        "type" : "double",
                        "defaultValue" : 1920.00000000017,
                        "interp" : "linr"
                      },
                      "word-wrap" : {
                        "type" : "double",
                        "defaultValue" : 1.0,
                        "interp" : "linr"
                      },
                      "horizontal-alignment" : "center",
                      "text" : "Blue Noise Sampling can simulate the human visual perception",
                      "vertical-alignment" : "center",
                      "font" : {
                        "color-blue" : {
                          "type" : "double",
                          "defaultValue" : 1.0,
                          "interp" : "linr"
                        },
                        "color-green" : {
                          "type" : "double",
                          "defaultValue" : 1.0,
                          "interp" : "linr"
                        },
                        "color-red" : {
                          "type" : "double",
                          "defaultValue" : 1.0,
                          "interp" : "linr"
                        },
                        "size" : {
                          "type" : "double",
                          "defaultValue" : 96.0,
                          "interp" : "linr"
                        },
                        "tracking" : {
                          "type" : "double",
                          "defaultValue" : 0.0,
                          "interp" : "linr"
                        },
                        "name" : "Montserrat",
                        "weight" : "Regular"
                      },
                      "textAttributes" : {
                        "type" : "textAttributeList",
                        "keyframes" : [
                          {
                            "time" : 0,
                            "value" : [{"name":"fontName","rangeEnd":60,"rangeStart":0,"value":"Montserrat","valueType":"string"},{"name":"strikethrough","rangeEnd":60,"rangeStart":0,"value":0,"valueType":"int"},{"name":"fontSize","rangeEnd":60,"rangeStart":0,"value":96,"valueType":"double"},{"name":"fontWeight","rangeEnd":60,"rangeStart":0,"value":100,"valueType":"int"},{"name":"fgColor","rangeEnd":60,"rangeStart":0,"value":"(0,0,0,255)","valueType":"color"},{"name":"fontItalic","rangeEnd":60,"rangeStart":0,"value":0,"valueType":"int"},{"name":"underline","rangeEnd":60,"rangeStart":0,"value":0,"valueType":"int"}],
                            "duration" : 0
                          }
                        ]
                      }
                    },
                    "attributes" : {
                      "autoRotateText" : true
                    },
                    "parameters" : {
                      "translation0" : {
                        "type" : "double",
                        "defaultValue" : -5.38769029390096e-11,
                        "interp" : "eioe"
                      },
                      "translation1" : {
                        "type" : "double",
                        "defaultValue" : -445.154867256108,
                        "interp" : "eioe"
                      }
                    },
                    "effects" : [
                        {
                          "effectName" : "DropShadow",
                          "parameters" : {
                            "angle" : {
                              "type" : "double",
                              "defaultValue" : 5.49778714378214,
                              "interp" : "linr",
                              "uiHints" : {
                                "userInterfaceType" : 0,
                                "unitType" : 0
                              }
                            },
                            "blur" : {
                              "type" : "double",
                              "defaultValue" : 10.0,
                              "interp" : "linr",
                              "uiHints" : {
                                "userInterfaceType" : 0,
                                "unitType" : 0
                              }
                            },
                            "color-alpha" : {
                              "type" : "double",
                              "defaultValue" : 1.0,
                              "interp" : "linr",
                              "uiHints" : {
                                "userInterfaceType" : 0,
                                "unitType" : 0
                              }
                            },
                            "color-blue" : {
                              "type" : "double",
                              "defaultValue" : 0.1216,
                              "interp" : "linr",
                              "uiHints" : {
                                "userInterfaceType" : 0,
                                "unitType" : 0
                              }
                            },
                            "color-green" : {
                              "type" : "double",
                              "defaultValue" : 0.1216,
                              "interp" : "linr",
                              "uiHints" : {
                                "userInterfaceType" : 0,
                                "unitType" : 0
                              }
                            },
                            "color-red" : {
                              "type" : "double",
                              "defaultValue" : 0.1216,
                              "interp" : "linr",
                              "uiHints" : {
                                "userInterfaceType" : 0,
                                "unitType" : 0
                              }
                            },
                            "enabled" : 1,
                            "offset" : {
                              "type" : "double",
                              "defaultValue" : 10.0,
                              "interp" : "linr",
                              "uiHints" : {
                                "userInterfaceType" : 0,
                                "unitType" : 0
                              }
                            },
                            "opacity" : {
                              "type" : "double",
                              "defaultValue" : 0.4,
                              "interp" : "linr",
                              "uiHints" : {
                                "userInterfaceType" : 0,
                                "unitType" : 0
                              }
                            }
                          }
                        }
                    ],
                    "start" : 762,
                    "duration" : 108,
                    "mediaStart" : 0,
                    "mediaDuration" : 108,
                    "scalar" : 1,
                    "metadata" : {
                      "WinSubProjectDisplayName" : "",
                      "clipSpeedAttribute" : false,
                      "default-HAlign" : "center",
                      "default-VAlign" : "center",
                      "default-text-attributes" : "[{\"name\":\"underline\",\"rangeEnd\":42,\"rangeStart\":0,\"value\":0,\"valueType\":\"int\"},{\"name\":\"fgColor\",\"rangeEnd\":44,\"rangeStart\":0,\"value\":\"(0,0,0,255)\",\"valueType\":\"color\"},{\"name\":\"fontName\",\"rangeEnd\":42,\"rangeStart\":0,\"value\":\"Montserrat\",\"valueType\":\"string\"},{\"name\":\"strikethrough\",\"rangeEnd\":42,\"rangeStart\":0,\"value\":0,\"valueType\":\"int\"},{\"name\":\"fontSize\",\"rangeEnd\":42,\"rangeStart\":0,\"value\":96,\"valueType\":\"double\"},{\"name\":\"fontWeight\",\"rangeEnd\":42,\"rangeStart\":0,\"value\":100,\"valueType\":\"int\"},{\"name\":\"fontItalic\",\"rangeEnd\":42,\"rangeStart\":0,\"value\":0,\"valueType\":\"int\"}]",
                      "default-translation0" : 0.0,
                      "default-translation1" : 0.0
                    },
                    "animationTracks" : {

                    }
                  },
                  {
                    "id" : 274,
                    "_type" : "Callout",
                    "def" : {
                      "kind" : "remix",
                      "shape" : "text",
                      "style" : "basic",
                      "height" : {
                        "type" : "double",
                        "defaultValue" : 74.141592920386,
                        "interp" : "linr"
                      },
                      "width" : {
                        "type" : "double",
                        "defaultValue" : 1774.37168141583,
                        "interp" : "linr"
                      },
                      "word-wrap" : {
                        "type" : "double",
                        "defaultValue" : 1.0,
                        "interp" : "linr"
                      },
                      "horizontal-alignment" : "center",
                      "text" : "The sampled points are well distributed",
                      "vertical-alignment" : "center",
                      "font" : {
                        "color-blue" : {
                          "type" : "double",
                          "defaultValue" : 1.0,
                          "interp" : "linr"
                        },
                        "color-green" : {
                          "type" : "double",
                          "defaultValue" : 1.0,
                          "interp" : "linr"
                        },
                        "color-red" : {
                          "type" : "double",
                          "defaultValue" : 1.0,
                          "interp" : "linr"
                        },
                        "size" : {
                          "type" : "double",
                          "defaultValue" : 96.0,
                          "interp" : "linr"
                        },
                        "tracking" : {
                          "type" : "double",
                          "defaultValue" : 0.0,
                          "interp" : "linr"
                        },
                        "name" : "Montserrat",
                        "weight" : "Regular"
                      },
                      "textAttributes" : {
                        "type" : "textAttributeList",
                        "keyframes" : [
                          {
                            "time" : 0,
                            "value" : [{"name":"fontItalic","rangeEnd":39,"rangeStart":0,"value":0,"valueType":"int"},{"name":"fgColor","rangeEnd":39,"rangeStart":0,"value":"(0,0,0,255)","valueType":"color"},{"name":"strikethrough","rangeEnd":39,"rangeStart":0,"value":0,"valueType":"int"},{"name":"fontName","rangeEnd":39,"rangeStart":0,"value":"Montserrat","valueType":"string"},{"name":"fontSize","rangeEnd":39,"rangeStart":0,"value":96,"valueType":"double"},{"name":"underline","rangeEnd":39,"rangeStart":0,"value":0,"valueType":"int"},{"name":"fontWeight","rangeEnd":39,"rangeStart":0,"value":100,"valueType":"int"}],
                            "duration" : 0
                          }
                        ]
                      }
                    },
                    "attributes" : {
                      "autoRotateText" : true
                    },
                    "parameters" : {
                      "translation0" : {
                        "type" : "double",
                        "defaultValue" : 10.8274336283455,
                        "interp" : "eioe"
                      },
                      "translation1" : {
                        "type" : "double",
                        "defaultValue" : -445.154867256108,
                        "interp" : "eioe"
                      }
                    },
                    "effects" : [
                        {
                          "effectName" : "DropShadow",
                          "parameters" : {
                            "angle" : {
                              "type" : "double",
                              "defaultValue" : 5.49778714378214,
                              "interp" : "linr",
                              "uiHints" : {
                                "userInterfaceType" : 0,
                                "unitType" : 0
                              }
                            },
                            "blur" : {
                              "type" : "double",
                              "defaultValue" : 10.0,
                              "interp" : "linr",
                              "uiHints" : {
                                "userInterfaceType" : 0,
                                "unitType" : 0
                              }
                            },
                            "color-alpha" : {
                              "type" : "double",
                              "defaultValue" : 1.0,
                              "interp" : "linr",
                              "uiHints" : {
                                "userInterfaceType" : 0,
                                "unitType" : 0
                              }
                            },
                            "color-blue" : {
                              "type" : "double",
                              "defaultValue" : 0.1216,
                              "interp" : "linr",
                              "uiHints" : {
                                "userInterfaceType" : 0,
                                "unitType" : 0
                              }
                            },
                            "color-green" : {
                              "type" : "double",
                              "defaultValue" : 0.1216,
                              "interp" : "linr",
                              "uiHints" : {
                                "userInterfaceType" : 0,
                                "unitType" : 0
                              }
                            },
                            "color-red" : {
                              "type" : "double",
                              "defaultValue" : 0.1216,
                              "interp" : "linr",
                              "uiHints" : {
                                "userInterfaceType" : 0,
                                "unitType" : 0
                              }
                            },
                            "enabled" : 1,
                            "offset" : {
                              "type" : "double",
                              "defaultValue" : 10.0,
                              "interp" : "linr",
                              "uiHints" : {
                                "userInterfaceType" : 0,
                                "unitType" : 0
                              }
                            },
                            "opacity" : {
                              "type" : "double",
                              "defaultValue" : 0.4,
                              "interp" : "linr",
                              "uiHints" : {
                                "userInterfaceType" : 0,
                                "unitType" : 0
                              }
                            }
                          }
                        }
                    ],
                    "start" : 877,
                    "duration" : 87,
                    "mediaStart" : 0,
                    "mediaDuration" : 87,
                    "scalar" : 1,
                    "metadata" : {
                      "WinSubProjectDisplayName" : "",
                      "clipSpeedAttribute" : false,
                      "default-HAlign" : "center",
                      "default-VAlign" : "center",
                      "default-text-attributes" : "[{\"name\":\"underline\",\"rangeEnd\":42,\"rangeStart\":0,\"value\":0,\"valueType\":\"int\"},{\"name\":\"fgColor\",\"rangeEnd\":44,\"rangeStart\":0,\"value\":\"(0,0,0,255)\",\"valueType\":\"color\"},{\"name\":\"fontName\",\"rangeEnd\":42,\"rangeStart\":0,\"value\":\"Montserrat\",\"valueType\":\"string\"},{\"name\":\"strikethrough\",\"rangeEnd\":42,\"rangeStart\":0,\"value\":0,\"valueType\":\"int\"},{\"name\":\"fontSize\",\"rangeEnd\":42,\"rangeStart\":0,\"value\":96,\"valueType\":\"double\"},{\"name\":\"fontWeight\",\"rangeEnd\":42,\"rangeStart\":0,\"value\":100,\"valueType\":\"int\"},{\"name\":\"fontItalic\",\"rangeEnd\":42,\"rangeStart\":0,\"value\":0,\"valueType\":\"int\"}]",
                      "default-translation0" : 0.0,
                      "default-translation1" : 0.0
                    },
                    "animationTracks" : {

                    }
                  },
                  {
                    "id" : 275,
                    "_type" : "Callout",
                    "def" : {
                      "kind" : "remix",
                      "shape" : "text",
                      "style" : "basic",
                      "height" : {
                        "type" : "double",
                        "defaultValue" : 74.141592920386,
                        "interp" : "linr"
                      },
                      "width" : {
                        "type" : "double",
                        "defaultValue" : 1774.37168141583,
                        "interp" : "linr"
                      },
                      "word-wrap" : {
                        "type" : "double",
                        "defaultValue" : 1.0,
                        "interp" : "linr"
                      },
                      "horizontal-alignment" : "center",
                      "text" : "But, spatial attribute relationships are not considered",
                      "vertical-alignment" : "center",
                      "font" : {
                        "color-blue" : {
                          "type" : "double",
                          "defaultValue" : 1.0,
                          "interp" : "linr"
                        },
                        "color-green" : {
                          "type" : "double",
                          "defaultValue" : 1.0,
                          "interp" : "linr"
                        },
                        "color-red" : {
                          "type" : "double",
                          "defaultValue" : 1.0,
                          "interp" : "linr"
                        },
                        "size" : {
                          "type" : "double",
                          "defaultValue" : 96.0,
                          "interp" : "linr"
                        },
                        "tracking" : {
                          "type" : "double",
                          "defaultValue" : 0.0,
                          "interp" : "linr"
                        },
                        "name" : "Montserrat",
                        "weight" : "Regular"
                      },
                      "textAttributes" : {
                        "type" : "textAttributeList",
                        "keyframes" : [
                          {
                            "time" : 0,
                            "value" : [{"name":"strikethrough","rangeEnd":55,"rangeStart":0,"value":0,"valueType":"int"},{"name":"fontSize","rangeEnd":55,"rangeStart":0,"value":96,"valueType":"double"},{"name":"fgColor","rangeEnd":55,"rangeStart":0,"value":"(0,0,0,255)","valueType":"color"},{"name":"fontName","rangeEnd":55,"rangeStart":0,"value":"Montserrat","valueType":"string"},{"name":"fontItalic","rangeEnd":55,"rangeStart":0,"value":0,"valueType":"int"},{"name":"underline","rangeEnd":55,"rangeStart":0,"value":0,"valueType":"int"},{"name":"fontWeight","rangeEnd":55,"rangeStart":0,"value":100,"valueType":"int"}],
                            "duration" : 0
                          }
                        ]
                      }
                    },
                    "attributes" : {
                      "autoRotateText" : true
                    },
                    "parameters" : {
                      "translation0" : {
                        "type" : "double",
                        "defaultValue" : 10.8274336283455,
                        "interp" : "eioe"
                      },
                      "translation1" : {
                        "type" : "double",
                        "defaultValue" : -445.154867256108,
                        "interp" : "eioe"
                      }
                    },
                    "effects" : [
                        {
                          "effectName" : "DropShadow",
                          "parameters" : {
                            "angle" : {
                              "type" : "double",
                              "defaultValue" : 5.49778714378214,
                              "interp" : "linr",
                              "uiHints" : {
                                "userInterfaceType" : 0,
                                "unitType" : 0
                              }
                            },
                            "blur" : {
                              "type" : "double",
                              "defaultValue" : 10.0,
                              "interp" : "linr",
                              "uiHints" : {
                                "userInterfaceType" : 0,
                                "unitType" : 0
                              }
                            },
                            "color-alpha" : {
                              "type" : "double",
                              "defaultValue" : 1.0,
                              "interp" : "linr",
                              "uiHints" : {
                                "userInterfaceType" : 0,
                                "unitType" : 0
                              }
                            },
                            "color-blue" : {
                              "type" : "double",
                              "defaultValue" : 0.1216,
                              "interp" : "linr",
                              "uiHints" : {
                                "userInterfaceType" : 0,
                                "unitType" : 0
                              }
                            },
                            "color-green" : {
                              "type" : "double",
                              "defaultValue" : 0.1216,
                              "interp" : "linr",
                              "uiHints" : {
                                "userInterfaceType" : 0,
                                "unitType" : 0
                              }
                            },
                            "color-red" : {
                              "type" : "double",
                              "defaultValue" : 0.1216,
                              "interp" : "linr",
                              "uiHints" : {
                                "userInterfaceType" : 0,
                                "unitType" : 0
                              }
                            },
                            "enabled" : 1,
                            "offset" : {
                              "type" : "double",
                              "defaultValue" : 10.0,
                              "interp" : "linr",
                              "uiHints" : {
                                "userInterfaceType" : 0,
                                "unitType" : 0
                              }
                            },
                            "opacity" : {
                              "type" : "double",
                              "defaultValue" : 0.4,
                              "interp" : "linr",
                              "uiHints" : {
                                "userInterfaceType" : 0,
                                "unitType" : 0
                              }
                            }
                          }
                        }
                    ],
                    "start" : 976,
                    "duration" : 122,
                    "mediaStart" : 0,
                    "mediaDuration" : 122,
                    "scalar" : 1,
                    "metadata" : {
                      "WinSubProjectDisplayName" : "",
                      "clipSpeedAttribute" : false,
                      "default-HAlign" : "center",
                      "default-VAlign" : "center",
                      "default-text-attributes" : "[{\"name\":\"underline\",\"rangeEnd\":42,\"rangeStart\":0,\"value\":0,\"valueType\":\"int\"},{\"name\":\"fgColor\",\"rangeEnd\":44,\"rangeStart\":0,\"value\":\"(0,0,0,255)\",\"valueType\":\"color\"},{\"name\":\"fontName\",\"rangeEnd\":42,\"rangeStart\":0,\"value\":\"Montserrat\",\"valueType\":\"string\"},{\"name\":\"strikethrough\",\"rangeEnd\":42,\"rangeStart\":0,\"value\":0,\"valueType\":\"int\"},{\"name\":\"fontSize\",\"rangeEnd\":42,\"rangeStart\":0,\"value\":96,\"valueType\":\"double\"},{\"name\":\"fontWeight\",\"rangeEnd\":42,\"rangeStart\":0,\"value\":100,\"valueType\":\"int\"},{\"name\":\"fontItalic\",\"rangeEnd\":42,\"rangeStart\":0,\"value\":0,\"valueType\":\"int\"}]",
                      "default-translation0" : 0.0,
                      "default-translation1" : 0.0
                    },
                    "animationTracks" : {

                    }
                  },
                  {
                    "id" : 276,
                    "_type" : "Callout",
                    "def" : {
                      "kind" : "remix",
                      "shape" : "text",
                      "style" : "basic",
                      "height" : {
                        "type" : "double",
                        "defaultValue" : 150.141592920283,
                        "interp" : "linr"
                      },
                      "width" : {
                        "type" : "double",
                        "defaultValue" : 1774.37168141583,
                        "interp" : "linr"
                      },
                      "word-wrap" : {
                        "type" : "double",
                        "defaultValue" : 1.0,
                        "interp" : "linr"
                      },
                      "horizontal-alignment" : "center",
                      "text" : "In this paper we consider a new sampling method to generate Voronoi Diagram",
                      "vertical-alignment" : "center",
                      "font" : {
                        "color-blue" : {
                          "type" : "double",
                          "defaultValue" : 1.0,
                          "interp" : "linr"
                        },
                        "color-green" : {
                          "type" : "double",
                          "defaultValue" : 1.0,
                          "interp" : "linr"
                        },
                        "color-red" : {
                          "type" : "double",
                          "defaultValue" : 1.0,
                          "interp" : "linr"
                        },
                        "size" : {
                          "type" : "double",
                          "defaultValue" : 96.0,
                          "interp" : "linr"
                        },
                        "tracking" : {
                          "type" : "double",
                          "defaultValue" : 0.0,
                          "interp" : "linr"
                        },
                        "name" : "Montserrat",
                        "weight" : "Regular"
                      },
                      "textAttributes" : {
                        "type" : "textAttributeList",
                        "keyframes" : [
                          {
                            "time" : 0,
                            "value" : [{"name":"strikethrough","rangeEnd":75,"rangeStart":0,"value":0,"valueType":"int"},{"name":"fontWeight","rangeEnd":75,"rangeStart":0,"value":100,"valueType":"int"},{"name":"fontItalic","rangeEnd":75,"rangeStart":0,"value":0,"valueType":"int"},{"name":"fgColor","rangeEnd":75,"rangeStart":0,"value":"(0,0,0,255)","valueType":"color"},{"name":"underline","rangeEnd":75,"rangeStart":0,"value":0,"valueType":"int"},{"name":"fontSize","rangeEnd":75,"rangeStart":0,"value":96,"valueType":"double"},{"name":"fontName","rangeEnd":75,"rangeStart":0,"value":"Montserrat","valueType":"string"}],
                            "duration" : 0
                          }
                        ]
                      }
                    },
                    "attributes" : {
                      "autoRotateText" : true
                    },
                    "parameters" : {
                      "translation0" : {
                        "type" : "double",
                        "defaultValue" : 10.8274336283455,
                        "interp" : "eioe"
                      },
                      "translation1" : {
                        "type" : "double",
                        "defaultValue" : -407.154867256108,
                        "interp" : "eioe"
                      }
                    },
                    "effects" : [
                        {
                          "effectName" : "DropShadow",
                          "parameters" : {
                            "angle" : {
                              "type" : "double",
                              "defaultValue" : 5.49778714378214,
                              "interp" : "linr",
                              "uiHints" : {
                                "userInterfaceType" : 0,
                                "unitType" : 0
                              }
                            },
                            "blur" : {
                              "type" : "double",
                              "defaultValue" : 10.0,
                              "interp" : "linr",
                              "uiHints" : {
                                "userInterfaceType" : 0,
                                "unitType" : 0
                              }
                            },
                            "color-alpha" : {
                              "type" : "double",
                              "defaultValue" : 1.0,
                              "interp" : "linr",
                              "uiHints" : {
                                "userInterfaceType" : 0,
                                "unitType" : 0
                              }
                            },
                            "color-blue" : {
                              "type" : "double",
                              "defaultValue" : 0.1216,
                              "interp" : "linr",
                              "uiHints" : {
                                "userInterfaceType" : 0,
                                "unitType" : 0
                              }
                            },
                            "color-green" : {
                              "type" : "double",
                              "defaultValue" : 0.1216,
                              "interp" : "linr",
                              "uiHints" : {
                                "userInterfaceType" : 0,
                                "unitType" : 0
                              }
                            },
                            "color-red" : {
                              "type" : "double",
                              "defaultValue" : 0.1216,
                              "interp" : "linr",
                              "uiHints" : {
                                "userInterfaceType" : 0,
                                "unitType" : 0
                              }
                            },
                            "enabled" : 1,
                            "offset" : {
                              "type" : "double",
                              "defaultValue" : 10.0,
                              "interp" : "linr",
                              "uiHints" : {
                                "userInterfaceType" : 0,
                                "unitType" : 0
                              }
                            },
                            "opacity" : {
                              "type" : "double",
                              "defaultValue" : 0.4,
                              "interp" : "linr",
                              "uiHints" : {
                                "userInterfaceType" : 0,
                                "unitType" : 0
                              }
                            }
                          }
                        }
                    ],
                    "start" : 1108,
                    "duration" : 139,
                    "mediaStart" : 0,
                    "mediaDuration" : 139,
                    "scalar" : 1,
                    "metadata" : {
                      "WinSubProjectDisplayName" : "",
                      "clipSpeedAttribute" : false,
                      "default-HAlign" : "center",
                      "default-VAlign" : "center",
                      "default-text-attributes" : "[{\"name\":\"underline\",\"rangeEnd\":42,\"rangeStart\":0,\"value\":0,\"valueType\":\"int\"},{\"name\":\"fgColor\",\"rangeEnd\":44,\"rangeStart\":0,\"value\":\"(0,0,0,255)\",\"valueType\":\"color\"},{\"name\":\"fontName\",\"rangeEnd\":42,\"rangeStart\":0,\"value\":\"Montserrat\",\"valueType\":\"string\"},{\"name\":\"strikethrough\",\"rangeEnd\":42,\"rangeStart\":0,\"value\":0,\"valueType\":\"int\"},{\"name\":\"fontSize\",\"rangeEnd\":42,\"rangeStart\":0,\"value\":96,\"valueType\":\"double\"},{\"name\":\"fontWeight\",\"rangeEnd\":42,\"rangeStart\":0,\"value\":100,\"valueType\":\"int\"},{\"name\":\"fontItalic\",\"rangeEnd\":42,\"rangeStart\":0,\"value\":0,\"valueType\":\"int\"}]",
                      "default-translation0" : 0.0,
                      "default-translation1" : 0.0
                    },
                    "animationTracks" : {

                    }
                  },
                  {
                    "id" : 277,
                    "_type" : "Callout",
                    "def" : {
                      "kind" : "remix",
                      "shape" : "text",
                      "style" : "basic",
                      "height" : {
                        "type" : "double",
                        "defaultValue" : 150.141592920283,
                        "interp" : "linr"
                      },
                      "width" : {
                        "type" : "double",
                        "defaultValue" : 1774.37168141583,
                        "interp" : "linr"
                      },
                      "word-wrap" : {
                        "type" : "double",
                        "defaultValue" : 1.0,
                        "interp" : "linr"
                      },
                      "horizontal-alignment" : "center",
                      "text" : "In which, the spatial distribution and attribute relationship are both well retained",
                      "vertical-alignment" : "center",
                      "font" : {
                        "color-blue" : {
                          "type" : "double",
                          "defaultValue" : 1.0,
                          "interp" : "linr"
                        },
                        "color-green" : {
                          "type" : "double",
                          "defaultValue" : 1.0,
                          "interp" : "linr"
                        },
                        "color-red" : {
                          "type" : "double",
                          "defaultValue" : 1.0,
                          "interp" : "linr"
                        },
                        "size" : {
                          "type" : "double",
                          "defaultValue" : 96.0,
                          "interp" : "linr"
                        },
                        "tracking" : {
                          "type" : "double",
                          "defaultValue" : 0.0,
                          "interp" : "linr"
                        },
                        "name" : "Montserrat",
                        "weight" : "Regular"
                      },
                      "textAttributes" : {
                        "type" : "textAttributeList",
                        "keyframes" : [
                          {
                            "time" : 0,
                            "value" : [{"name":"strikethrough","rangeEnd":84,"rangeStart":0,"value":0,"valueType":"int"},{"name":"fontWeight","rangeEnd":84,"rangeStart":0,"value":100,"valueType":"int"},{"name":"fgColor","rangeEnd":84,"rangeStart":0,"value":"(0,0,0,255)","valueType":"color"},{"name":"underline","rangeEnd":84,"rangeStart":0,"value":0,"valueType":"int"},{"name":"fontSize","rangeEnd":84,"rangeStart":0,"value":96,"valueType":"double"},{"name":"fontName","rangeEnd":84,"rangeStart":0,"value":"Montserrat","valueType":"string"},{"name":"fontItalic","rangeEnd":84,"rangeStart":0,"value":0,"valueType":"int"}],
                            "duration" : 0
                          }
                        ]
                      }
                    },
                    "attributes" : {
                      "autoRotateText" : true
                    },
                    "parameters" : {
                      "translation0" : {
                        "type" : "double",
                        "defaultValue" : 10.8274336283455,
                        "interp" : "eioe"
                      },
                      "translation1" : {
                        "type" : "double",
                        "defaultValue" : -407.154867256108,
                        "interp" : "eioe"
                      }
                    },
                    "effects" : [
                        {
                          "effectName" : "DropShadow",
                          "parameters" : {
                            "angle" : {
                              "type" : "double",
                              "defaultValue" : 5.49778714378214,
                              "interp" : "linr",
                              "uiHints" : {
                                "userInterfaceType" : 0,
                                "unitType" : 0
                              }
                            },
                            "blur" : {
                              "type" : "double",
                              "defaultValue" : 10.0,
                              "interp" : "linr",
                              "uiHints" : {
                                "userInterfaceType" : 0,
                                "unitType" : 0
                              }
                            },
                            "color-alpha" : {
                              "type" : "double",
                              "defaultValue" : 1.0,
                              "interp" : "linr",
                              "uiHints" : {
                                "userInterfaceType" : 0,
                                "unitType" : 0
                              }
                            },
                            "color-blue" : {
                              "type" : "double",
                              "defaultValue" : 0.1216,
                              "interp" : "linr",
                              "uiHints" : {
                                "userInterfaceType" : 0,
                                "unitType" : 0
                              }
                            },
                            "color-green" : {
                              "type" : "double",
                              "defaultValue" : 0.1216,
                              "interp" : "linr",
                              "uiHints" : {
                                "userInterfaceType" : 0,
                                "unitType" : 0
                              }
                            },
                            "color-red" : {
                              "type" : "double",
                              "defaultValue" : 0.1216,
                              "interp" : "linr",
                              "uiHints" : {
                                "userInterfaceType" : 0,
                                "unitType" : 0
                              }
                            },
                            "enabled" : 1,
                            "offset" : {
                              "type" : "double",
                              "defaultValue" : 10.0,
                              "interp" : "linr",
                              "uiHints" : {
                                "userInterfaceType" : 0,
                                "unitType" : 0
                              }
                            },
                            "opacity" : {
                              "type" : "double",
                              "defaultValue" : 0.4,
                              "interp" : "linr",
                              "uiHints" : {
                                "userInterfaceType" : 0,
                                "unitType" : 0
                              }
                            }
                          }
                        }
                    ],
                    "start" : 1250,
                    "duration" : 164,
                    "mediaStart" : 0,
                    "mediaDuration" : 164,
                    "scalar" : 1,
                    "metadata" : {
                      "WinSubProjectDisplayName" : "",
                      "clipSpeedAttribute" : false,
                      "default-HAlign" : "center",
                      "default-VAlign" : "center",
                      "default-text-attributes" : "[{\"name\":\"underline\",\"rangeEnd\":42,\"rangeStart\":0,\"value\":0,\"valueType\":\"int\"},{\"name\":\"fgColor\",\"rangeEnd\":44,\"rangeStart\":0,\"value\":\"(0,0,0,255)\",\"valueType\":\"color\"},{\"name\":\"fontName\",\"rangeEnd\":42,\"rangeStart\":0,\"value\":\"Montserrat\",\"valueType\":\"string\"},{\"name\":\"strikethrough\",\"rangeEnd\":42,\"rangeStart\":0,\"value\":0,\"valueType\":\"int\"},{\"name\":\"fontSize\",\"rangeEnd\":42,\"rangeStart\":0,\"value\":96,\"valueType\":\"double\"},{\"name\":\"fontWeight\",\"rangeEnd\":42,\"rangeStart\":0,\"value\":100,\"valueType\":\"int\"},{\"name\":\"fontItalic\",\"rangeEnd\":42,\"rangeStart\":0,\"value\":0,\"valueType\":\"int\"}]",
                      "default-translation0" : 0.0,
                      "default-translation1" : 0.0
                    },
                    "animationTracks" : {

                    }
                  },
                  {
                    "id" : 278,
                    "_type" : "Callout",
                    "def" : {
                      "kind" : "remix",
                      "shape" : "text",
                      "style" : "basic",
                      "height" : {
                        "type" : "double",
                        "defaultValue" : 74.141592920386,
                        "interp" : "linr"
                      },
                      "width" : {
                        "type" : "double",
                        "defaultValue" : 1774.37168141583,
                        "interp" : "linr"
                      },
                      "word-wrap" : {
                        "type" : "double",
                        "defaultValue" : 1.0,
                        "interp" : "linr"
                      },
                      "horizontal-alignment" : "center",
                      "text" : "To recognize the attribute characteristics",
                      "vertical-alignment" : "center",
                      "font" : {
                        "color-blue" : {
                          "type" : "double",
                          "defaultValue" : 1.0,
                          "interp" : "linr"
                        },
                        "color-green" : {
                          "type" : "double",
                          "defaultValue" : 1.0,
                          "interp" : "linr"
                        },
                        "color-red" : {
                          "type" : "double",
                          "defaultValue" : 1.0,
                          "interp" : "linr"
                        },
                        "size" : {
                          "type" : "double",
                          "defaultValue" : 96.0,
                          "interp" : "linr"
                        },
                        "tracking" : {
                          "type" : "double",
                          "defaultValue" : 0.0,
                          "interp" : "linr"
                        },
                        "name" : "Montserrat",
                        "weight" : "Regular"
                      },
                      "textAttributes" : {
                        "type" : "textAttributeList",
                        "keyframes" : [
                          {
                            "time" : 0,
                            "value" : [{"name":"strikethrough","rangeEnd":42,"rangeStart":0,"value":0,"valueType":"int"},{"name":"underline","rangeEnd":42,"rangeStart":0,"value":0,"valueType":"int"},{"name":"fontSize","rangeEnd":42,"rangeStart":0,"value":96,"valueType":"double"},{"name":"fontWeight","rangeEnd":42,"rangeStart":0,"value":100,"valueType":"int"},{"name":"fgColor","rangeEnd":42,"rangeStart":0,"value":"(0,0,0,255)","valueType":"color"},{"name":"fontName","rangeEnd":42,"rangeStart":0,"value":"Montserrat","valueType":"string"},{"name":"fontItalic","rangeEnd":42,"rangeStart":0,"value":0,"valueType":"int"}],
                            "duration" : 0
                          }
                        ]
                      }
                    },
                    "attributes" : {
                      "autoRotateText" : true
                    },
                    "parameters" : {
                      "translation0" : {
                        "type" : "double",
                        "defaultValue" : 10.8274336283455,
                        "interp" : "eioe"
                      },
                      "translation1" : {
                        "type" : "double",
                        "defaultValue" : -445.154867256108,
                        "interp" : "eioe"
                      }
                    },
                    "effects" : [
                        {
                          "effectName" : "DropShadow",
                          "parameters" : {
                            "angle" : {
                              "type" : "double",
                              "defaultValue" : 5.49778714378214,
                              "interp" : "linr",
                              "uiHints" : {
                                "userInterfaceType" : 0,
                                "unitType" : 0
                              }
                            },
                            "blur" : {
                              "type" : "double",
                              "defaultValue" : 10.0,
                              "interp" : "linr",
                              "uiHints" : {
                                "userInterfaceType" : 0,
                                "unitType" : 0
                              }
                            },
                            "color-alpha" : {
                              "type" : "double",
                              "defaultValue" : 1.0,
                              "interp" : "linr",
                              "uiHints" : {
                                "userInterfaceType" : 0,
                                "unitType" : 0
                              }
                            },
                            "color-blue" : {
                              "type" : "double",
                              "defaultValue" : 0.1216,
                              "interp" : "linr",
                              "uiHints" : {
                                "userInterfaceType" : 0,
                                "unitType" : 0
                              }
                            },
                            "color-green" : {
                              "type" : "double",
                              "defaultValue" : 0.1216,
                              "interp" : "linr",
                              "uiHints" : {
                                "userInterfaceType" : 0,
                                "unitType" : 0
                              }
                            },
                            "color-red" : {
                              "type" : "double",
                              "defaultValue" : 0.1216,
                              "interp" : "linr",
                              "uiHints" : {
                                "userInterfaceType" : 0,
                                "unitType" : 0
                              }
                            },
                            "enabled" : 1,
                            "offset" : {
                              "type" : "double",
                              "defaultValue" : 10.0,
                              "interp" : "linr",
                              "uiHints" : {
                                "userInterfaceType" : 0,
                                "unitType" : 0
                              }
                            },
                            "opacity" : {
                              "type" : "double",
                              "defaultValue" : 0.4,
                              "interp" : "linr",
                              "uiHints" : {
                                "userInterfaceType" : 0,
                                "unitType" : 0
                              }
                            }
                          }
                        }
                    ],
                    "start" : 1423,
                    "duration" : 74,
                    "mediaStart" : 0,
                    "mediaDuration" : 74,
                    "scalar" : 1,
                    "metadata" : {
                      "WinSubProjectDisplayName" : "",
                      "clipSpeedAttribute" : false,
                      "default-HAlign" : "center",
                      "default-VAlign" : "center",
                      "default-text-attributes" : "[{\"name\":\"underline\",\"rangeEnd\":42,\"rangeStart\":0,\"value\":0,\"valueType\":\"int\"},{\"name\":\"fgColor\",\"rangeEnd\":44,\"rangeStart\":0,\"value\":\"(0,0,0,255)\",\"valueType\":\"color\"},{\"name\":\"fontName\",\"rangeEnd\":42,\"rangeStart\":0,\"value\":\"Montserrat\",\"valueType\":\"string\"},{\"name\":\"strikethrough\",\"rangeEnd\":42,\"rangeStart\":0,\"value\":0,\"valueType\":\"int\"},{\"name\":\"fontSize\",\"rangeEnd\":42,\"rangeStart\":0,\"value\":96,\"valueType\":\"double\"},{\"name\":\"fontWeight\",\"rangeEnd\":42,\"rangeStart\":0,\"value\":100,\"valueType\":\"int\"},{\"name\":\"fontItalic\",\"rangeEnd\":42,\"rangeStart\":0,\"value\":0,\"valueType\":\"int\"}]",
                      "default-translation0" : 0.0,
                      "default-translation1" : 0.0
                    },
                    "animationTracks" : {

                    }
                  },
                  {
                    "id" : 279,
                    "_type" : "Callout",
                    "def" : {
                      "kind" : "remix",
                      "shape" : "text",
                      "style" : "basic",
                      "height" : {
                        "type" : "double",
                        "defaultValue" : 146.14159292032,
                        "interp" : "linr"
                      },
                      "width" : {
                        "type" : "double",
                        "defaultValue" : 1602.37168141586,
                        "interp" : "linr"
                      },
                      "word-wrap" : {
                        "type" : "double",
                        "defaultValue" : 1.0,
                        "interp" : "linr"
                      },
                      "horizontal-alignment" : "center",
                      "text" : "A spatial clustering method is conducted based on MST generation and tree pruning",
                      "vertical-alignment" : "center",
                      "font" : {
                        "color-blue" : {
                          "type" : "double",
                          "defaultValue" : 1.0,
                          "interp" : "linr"
                        },
                        "color-green" : {
                          "type" : "double",
                          "defaultValue" : 1.0,
                          "interp" : "linr"
                        },
                        "color-red" : {
                          "type" : "double",
                          "defaultValue" : 1.0,
                          "interp" : "linr"
                        },
                        "size" : {
                          "type" : "double",
                          "defaultValue" : 96.0,
                          "interp" : "linr"
                        },
                        "tracking" : {
                          "type" : "double",
                          "defaultValue" : 0.0,
                          "interp" : "linr"
                        },
                        "name" : "Montserrat",
                        "weight" : "Regular"
                      },
                      "textAttributes" : {
                        "type" : "textAttributeList",
                        "keyframes" : [
                          {
                            "time" : 0,
                            "value" : [{"name":"fontItalic","rangeEnd":81,"rangeStart":0,"value":0,"valueType":"int"},{"name":"fgColor","rangeEnd":81,"rangeStart":0,"value":"(0,0,0,255)","valueType":"color"},{"name":"fontWeight","rangeEnd":81,"rangeStart":0,"value":100,"valueType":"int"},{"name":"strikethrough","rangeEnd":81,"rangeStart":0,"value":0,"valueType":"int"},{"name":"fontSize","rangeEnd":81,"rangeStart":0,"value":96,"valueType":"double"},{"name":"fontName","rangeEnd":81,"rangeStart":0,"value":"Montserrat","valueType":"string"},{"name":"underline","rangeEnd":81,"rangeStart":0,"value":0,"valueType":"int"}],
                            "duration" : 0
                          }
                        ]
                      }
                    },
                    "attributes" : {
                      "autoRotateText" : true
                    },
                    "parameters" : {
                      "translation0" : {
                        "type" : "double",
                        "defaultValue" : 0.314159292085819,
                        "interp" : "eioe"
                      },
                      "translation1" : {
                        "type" : "double",
                        "defaultValue" : -409.154867256108,
                        "interp" : "eioe"
                      }
                    },
                    "effects" : [
                        {
                          "effectName" : "DropShadow",
                          "parameters" : {
                            "angle" : {
                              "type" : "double",
                              "defaultValue" : 5.49778714378214,
                              "interp" : "linr",
                              "uiHints" : {
                                "userInterfaceType" : 0,
                                "unitType" : 0
                              }
                            },
                            "blur" : {
                              "type" : "double",
                              "defaultValue" : 10.0,
                              "interp" : "linr",
                              "uiHints" : {
                                "userInterfaceType" : 0,
                                "unitType" : 0
                              }
                            },
                            "color-alpha" : {
                              "type" : "double",
                              "defaultValue" : 1.0,
                              "interp" : "linr",
                              "uiHints" : {
                                "userInterfaceType" : 0,
                                "unitType" : 0
                              }
                            },
                            "color-blue" : {
                              "type" : "double",
                              "defaultValue" : 0.1216,
                              "interp" : "linr",
                              "uiHints" : {
                                "userInterfaceType" : 0,
                                "unitType" : 0
                              }
                            },
                            "color-green" : {
                              "type" : "double",
                              "defaultValue" : 0.1216,
                              "interp" : "linr",
                              "uiHints" : {
                                "userInterfaceType" : 0,
                                "unitType" : 0
                              }
                            },
                            "color-red" : {
                              "type" : "double",
                              "defaultValue" : 0.1216,
                              "interp" : "linr",
                              "uiHints" : {
                                "userInterfaceType" : 0,
                                "unitType" : 0
                              }
                            },
                            "enabled" : 1,
                            "offset" : {
                              "type" : "double",
                              "defaultValue" : 10.0,
                              "interp" : "linr",
                              "uiHints" : {
                                "userInterfaceType" : 0,
                                "unitType" : 0
                              }
                            },
                            "opacity" : {
                              "type" : "double",
                              "defaultValue" : 0.4,
                              "interp" : "linr",
                              "uiHints" : {
                                "userInterfaceType" : 0,
                                "unitType" : 0
                              }
                            }
                          }
                        }
                    ],
                    "start" : 1503,
                    "duration" : 159,
                    "mediaStart" : 0,
                    "mediaDuration" : 159,
                    "scalar" : 1,
                    "metadata" : {
                      "WinSubProjectDisplayName" : "",
                      "clipSpeedAttribute" : false,
                      "default-HAlign" : "center",
                      "default-VAlign" : "center",
                      "default-text-attributes" : "[{\"name\":\"underline\",\"rangeEnd\":42,\"rangeStart\":0,\"value\":0,\"valueType\":\"int\"},{\"name\":\"fgColor\",\"rangeEnd\":44,\"rangeStart\":0,\"value\":\"(0,0,0,255)\",\"valueType\":\"color\"},{\"name\":\"fontName\",\"rangeEnd\":42,\"rangeStart\":0,\"value\":\"Montserrat\",\"valueType\":\"string\"},{\"name\":\"strikethrough\",\"rangeEnd\":42,\"rangeStart\":0,\"value\":0,\"valueType\":\"int\"},{\"name\":\"fontSize\",\"rangeEnd\":42,\"rangeStart\":0,\"value\":96,\"valueType\":\"double\"},{\"name\":\"fontWeight\",\"rangeEnd\":42,\"rangeStart\":0,\"value\":100,\"valueType\":\"int\"},{\"name\":\"fontItalic\",\"rangeEnd\":42,\"rangeStart\":0,\"value\":0,\"valueType\":\"int\"}]",
                      "default-translation0" : 0.0,
                      "default-translation1" : 0.0
                    },
                    "animationTracks" : {

                    }
                  },
                  {
                    "id" : 280,
                    "_type" : "Callout",
                    "def" : {
                      "kind" : "remix",
                      "shape" : "text",
                      "style" : "basic",
                      "height" : {
                        "type" : "double",
                        "defaultValue" : 148.141592920301,
                        "interp" : "linr"
                      },
                      "width" : {
                        "type" : "double",
                        "defaultValue" : 1470.37168141595,
                        "interp" : "linr"
                      },
                      "word-wrap" : {
                        "type" : "double",
                        "defaultValue" : 1.0,
                        "interp" : "linr"
                      },
                      "horizontal-alignment" : "center",
                      "text" : "             The clusters are integrated into                 an adaptive blue noise sampling model",
                      "vertical-alignment" : "center",
                      "font" : {
                        "color-blue" : {
                          "type" : "double",
                          "defaultValue" : 1.0,
                          "interp" : "linr"
                        },
                        "color-green" : {
                          "type" : "double",
                          "defaultValue" : 1.0,
                          "interp" : "linr"
                        },
                        "color-red" : {
                          "type" : "double",
                          "defaultValue" : 1.0,
                          "interp" : "linr"
                        },
                        "size" : {
                          "type" : "double",
                          "defaultValue" : 96.0,
                          "interp" : "linr"
                        },
                        "tracking" : {
                          "type" : "double",
                          "defaultValue" : 0.0,
                          "interp" : "linr"
                        },
                        "name" : "Montserrat",
                        "weight" : "Regular"
                      },
                      "textAttributes" : {
                        "type" : "textAttributeList",
                        "keyframes" : [
                          {
                            "time" : 0,
                            "value" : [{"name":"fontItalic","rangeEnd":99,"rangeStart":0,"value":0,"valueType":"int"},{"name":"fontSize","rangeEnd":99,"rangeStart":0,"value":96,"valueType":"double"},{"name":"fontWeight","rangeEnd":99,"rangeStart":0,"value":100,"valueType":"int"},{"name":"fontName","rangeEnd":99,"rangeStart":0,"value":"Montserrat","valueType":"string"},{"name":"strikethrough","rangeEnd":99,"rangeStart":0,"value":0,"valueType":"int"},{"name":"underline","rangeEnd":99,"rangeStart":0,"value":0,"valueType":"int"},{"name":"fgColor","rangeEnd":99,"rangeStart":0,"value":"(0,0,0,255)","valueType":"color"}],
                            "duration" : 0
                          }
                        ]
                      }
                    },
                    "attributes" : {
                      "autoRotateText" : true
                    },
                    "parameters" : {
                      "translation0" : {
                        "type" : "double",
                        "defaultValue" : 0.314159291913938,
                        "interp" : "eioe"
                      },
                      "translation1" : {
                        "type" : "double",
                        "defaultValue" : -408.154867256108,
                        "interp" : "eioe"
                      }
                    },
                    "effects" : [
                        {
                          "effectName" : "DropShadow",
                          "parameters" : {
                            "angle" : {
                              "type" : "double",
                              "defaultValue" : 5.49778714378214,
                              "interp" : "linr",
                              "uiHints" : {
                                "userInterfaceType" : 0,
                                "unitType" : 0
                              }
                            },
                            "blur" : {
                              "type" : "double",
                              "defaultValue" : 10.0,
                              "interp" : "linr",
                              "uiHints" : {
                                "userInterfaceType" : 0,
                                "unitType" : 0
                              }
                            },
                            "color-alpha" : {
                              "type" : "double",
                              "defaultValue" : 1.0,
                              "interp" : "linr",
                              "uiHints" : {
                                "userInterfaceType" : 0,
                                "unitType" : 0
                              }
                            },
                            "color-blue" : {
                              "type" : "double",
                              "defaultValue" : 0.1216,
                              "interp" : "linr",
                              "uiHints" : {
                                "userInterfaceType" : 0,
                                "unitType" : 0
                              }
                            },
                            "color-green" : {
                              "type" : "double",
                              "defaultValue" : 0.1216,
                              "interp" : "linr",
                              "uiHints" : {
                                "userInterfaceType" : 0,
                                "unitType" : 0
                              }
                            },
                            "color-red" : {
                              "type" : "double",
                              "defaultValue" : 0.1216,
                              "interp" : "linr",
                              "uiHints" : {
                                "userInterfaceType" : 0,
                                "unitType" : 0
                              }
                            },
                            "enabled" : 1,
                            "offset" : {
                              "type" : "double",
                              "defaultValue" : 10.0,
                              "interp" : "linr",
                              "uiHints" : {
                                "userInterfaceType" : 0,
                                "unitType" : 0
                              }
                            },
                            "opacity" : {
                              "type" : "double",
                              "defaultValue" : 0.4,
                              "interp" : "linr",
                              "uiHints" : {
                                "userInterfaceType" : 0,
                                "unitType" : 0
                              }
                            }
                          }
                        }
                    ],
                    "start" : 1694,
                    "duration" : 128,
                    "mediaStart" : 0,
                    "mediaDuration" : 128,
                    "scalar" : 1,
                    "metadata" : {
                      "WinSubProjectDisplayName" : "",
                      "clipSpeedAttribute" : false,
                      "default-HAlign" : "center",
                      "default-VAlign" : "center",
                      "default-text-attributes" : "[{\"name\":\"underline\",\"rangeEnd\":42,\"rangeStart\":0,\"value\":0,\"valueType\":\"int\"},{\"name\":\"fgColor\",\"rangeEnd\":44,\"rangeStart\":0,\"value\":\"(0,0,0,255)\",\"valueType\":\"color\"},{\"name\":\"fontName\",\"rangeEnd\":42,\"rangeStart\":0,\"value\":\"Montserrat\",\"valueType\":\"string\"},{\"name\":\"strikethrough\",\"rangeEnd\":42,\"rangeStart\":0,\"value\":0,\"valueType\":\"int\"},{\"name\":\"fontSize\",\"rangeEnd\":42,\"rangeStart\":0,\"value\":96,\"valueType\":\"double\"},{\"name\":\"fontWeight\",\"rangeEnd\":42,\"rangeStart\":0,\"value\":100,\"valueType\":\"int\"},{\"name\":\"fontItalic\",\"rangeEnd\":42,\"rangeStart\":0,\"value\":0,\"valueType\":\"int\"}]",
                      "default-translation0" : 0.0,
                      "default-translation1" : 0.0
                    },
                    "animationTracks" : {

                    }
                  },
                  {
                    "id" : 281,
                    "_type" : "Callout",
                    "def" : {
                      "kind" : "remix",
                      "shape" : "text",
                      "style" : "basic",
                      "height" : {
                        "type" : "double",
                        "defaultValue" : 74.141592920386,
                        "interp" : "linr"
                      },
                      "width" : {
                        "type" : "double",
                        "defaultValue" : 1774.37168141583,
                        "interp" : "linr"
                      },
                      "word-wrap" : {
                        "type" : "double",
                        "defaultValue" : 1.0,
                        "interp" : "linr"
                      },
                      "horizontal-alignment" : "center",
                      "text" : "to guide the generation of Poisson disks",
                      "vertical-alignment" : "center",
                      "font" : {
                        "color-blue" : {
                          "type" : "double",
                          "defaultValue" : 1.0,
                          "interp" : "linr"
                        },
                        "color-green" : {
                          "type" : "double",
                          "defaultValue" : 1.0,
                          "interp" : "linr"
                        },
                        "color-red" : {
                          "type" : "double",
                          "defaultValue" : 1.0,
                          "interp" : "linr"
                        },
                        "size" : {
                          "type" : "double",
                          "defaultValue" : 96.0,
                          "interp" : "linr"
                        },
                        "tracking" : {
                          "type" : "double",
                          "defaultValue" : 0.0,
                          "interp" : "linr"
                        },
                        "name" : "Montserrat",
                        "weight" : "Regular"
                      },
                      "textAttributes" : {
                        "type" : "textAttributeList",
                        "keyframes" : [
                          {
                            "time" : 0,
                            "value" : [{"name":"underline","rangeEnd":40,"rangeStart":0,"value":0,"valueType":"int"},{"name":"strikethrough","rangeEnd":40,"rangeStart":0,"value":0,"valueType":"int"},{"name":"fgColor","rangeEnd":40,"rangeStart":0,"value":"(0,0,0,255)","valueType":"color"},{"name":"fontName","rangeEnd":40,"rangeStart":0,"value":"Montserrat","valueType":"string"},{"name":"fontWeight","rangeEnd":40,"rangeStart":0,"value":100,"valueType":"int"},{"name":"fontSize","rangeEnd":40,"rangeStart":0,"value":96,"valueType":"double"},{"name":"fontItalic","rangeEnd":40,"rangeStart":0,"value":0,"valueType":"int"}],
                            "duration" : 0
                          }
                        ]
                      }
                    },
                    "attributes" : {
                      "autoRotateText" : true
                    },
                    "parameters" : {
                      "translation0" : {
                        "type" : "double",
                        "defaultValue" : 10.8274336283455,
                        "interp" : "eioe"
                      },
                      "translation1" : {
                        "type" : "double",
                        "defaultValue" : -445.154867256108,
                        "interp" : "eioe"
                      }
                    },
                    "effects" : [
                        {
                          "effectName" : "DropShadow",
                          "parameters" : {
                            "angle" : {
                              "type" : "double",
                              "defaultValue" : 5.49778714378214,
                              "interp" : "linr",
                              "uiHints" : {
                                "userInterfaceType" : 0,
                                "unitType" : 0
                              }
                            },
                            "blur" : {
                              "type" : "double",
                              "defaultValue" : 10.0,
                              "interp" : "linr",
                              "uiHints" : {
                                "userInterfaceType" : 0,
                                "unitType" : 0
                              }
                            },
                            "color-alpha" : {
                              "type" : "double",
                              "defaultValue" : 1.0,
                              "interp" : "linr",
                              "uiHints" : {
                                "userInterfaceType" : 0,
                                "unitType" : 0
                              }
                            },
                            "color-blue" : {
                              "type" : "double",
                              "defaultValue" : 0.1216,
                              "interp" : "linr",
                              "uiHints" : {
                                "userInterfaceType" : 0,
                                "unitType" : 0
                              }
                            },
                            "color-green" : {
                              "type" : "double",
                              "defaultValue" : 0.1216,
                              "interp" : "linr",
                              "uiHints" : {
                                "userInterfaceType" : 0,
                                "unitType" : 0
                              }
                            },
                            "color-red" : {
                              "type" : "double",
                              "defaultValue" : 0.1216,
                              "interp" : "linr",
                              "uiHints" : {
                                "userInterfaceType" : 0,
                                "unitType" : 0
                              }
                            },
                            "enabled" : 1,
                            "offset" : {
                              "type" : "double",
                              "defaultValue" : 10.0,
                              "interp" : "linr",
                              "uiHints" : {
                                "userInterfaceType" : 0,
                                "unitType" : 0
                              }
                            },
                            "opacity" : {
                              "type" : "double",
                              "defaultValue" : 0.4,
                              "interp" : "linr",
                              "uiHints" : {
                                "userInterfaceType" : 0,
                                "unitType" : 0
                              }
                            }
                          }
                        }
                    ],
                    "start" : 1826,
                    "duration" : 72,
                    "mediaStart" : 0,
                    "mediaDuration" : 72,
                    "scalar" : 1,
                    "metadata" : {
                      "WinSubProjectDisplayName" : "",
                      "clipSpeedAttribute" : false,
                      "default-HAlign" : "center",
                      "default-VAlign" : "center",
                      "default-text-attributes" : "[{\"name\":\"underline\",\"rangeEnd\":42,\"rangeStart\":0,\"value\":0,\"valueType\":\"int\"},{\"name\":\"fgColor\",\"rangeEnd\":44,\"rangeStart\":0,\"value\":\"(0,0,0,255)\",\"valueType\":\"color\"},{\"name\":\"fontName\",\"rangeEnd\":42,\"rangeStart\":0,\"value\":\"Montserrat\",\"valueType\":\"string\"},{\"name\":\"strikethrough\",\"rangeEnd\":42,\"rangeStart\":0,\"value\":0,\"valueType\":\"int\"},{\"name\":\"fontSize\",\"rangeEnd\":42,\"rangeStart\":0,\"value\":96,\"valueType\":\"double\"},{\"name\":\"fontWeight\",\"rangeEnd\":42,\"rangeStart\":0,\"value\":100,\"valueType\":\"int\"},{\"name\":\"fontItalic\",\"rangeEnd\":42,\"rangeStart\":0,\"value\":0,\"valueType\":\"int\"}]",
                      "default-translation0" : 0.0,
                      "default-translation1" : 0.0
                    },
                    "animationTracks" : {

                    }
                  },
                  {
                    "id" : 282,
                    "_type" : "Callout",
                    "def" : {
                      "kind" : "remix",
                      "shape" : "text",
                      "style" : "basic",
                      "height" : {
                        "type" : "double",
                        "defaultValue" : 148.141592920301,
                        "interp" : "linr"
                      },
                      "width" : {
                        "type" : "double",
                        "defaultValue" : 1702.37168141613,
                        "interp" : "linr"
                      },
                      "word-wrap" : {
                        "type" : "double",
                        "defaultValue" : 1.0,
                        "interp" : "linr"
                      },
                      "horizontal-alignment" : "center",
                      "text" : "    Also, a set of optimization schemes are designed    to optimize the visual perception of Voronoi Diagram",
                      "vertical-alignment" : "center",
                      "font" : {
                        "color-blue" : {
                          "type" : "double",
                          "defaultValue" : 1.0,
                          "interp" : "linr"
                        },
                        "color-green" : {
                          "type" : "double",
                          "defaultValue" : 1.0,
                          "interp" : "linr"
                        },
                        "color-red" : {
                          "type" : "double",
                          "defaultValue" : 1.0,
                          "interp" : "linr"
                        },
                        "size" : {
                          "type" : "double",
                          "defaultValue" : 96.0,
                          "interp" : "linr"
                        },
                        "tracking" : {
                          "type" : "double",
                          "defaultValue" : 0.0,
                          "interp" : "linr"
                        },
                        "name" : "Montserrat",
                        "weight" : "Regular"
                      },
                      "textAttributes" : {
                        "type" : "textAttributeList",
                        "keyframes" : [
                          {
                            "time" : 0,
                            "value" : [{"name":"fontSize","rangeEnd":108,"rangeStart":0,"value":96,"valueType":"double"},{"name":"strikethrough","rangeEnd":108,"rangeStart":0,"value":0,"valueType":"int"},{"name":"underline","rangeEnd":108,"rangeStart":0,"value":0,"valueType":"int"},{"name":"fontWeight","rangeEnd":108,"rangeStart":0,"value":100,"valueType":"int"},{"name":"fontName","rangeEnd":108,"rangeStart":0,"value":"Montserrat","valueType":"string"},{"name":"fgColor","rangeEnd":108,"rangeStart":0,"value":"(0,0,0,255)","valueType":"color"},{"name":"fontItalic","rangeEnd":108,"rangeStart":0,"value":0,"valueType":"int"}],
                            "duration" : 0
                          }
                        ]
                      }
                    },
                    "attributes" : {
                      "autoRotateText" : true
                    },
                    "parameters" : {
                      "translation0" : {
                        "type" : "double",
                        "defaultValue" : 0.314159291821227,
                        "interp" : "eioe"
                      },
                      "translation1" : {
                        "type" : "double",
                        "defaultValue" : -408.154867256108,
                        "interp" : "eioe"
                      }
                    },
                    "effects" : [
                        {
                          "effectName" : "DropShadow",
                          "parameters" : {
                            "angle" : {
                              "type" : "double",
                              "defaultValue" : 5.49778714378214,
                              "interp" : "linr",
                              "uiHints" : {
                                "userInterfaceType" : 0,
                                "unitType" : 0
                              }
                            },
                            "blur" : {
                              "type" : "double",
                              "defaultValue" : 10.0,
                              "interp" : "linr",
                              "uiHints" : {
                                "userInterfaceType" : 0,
                                "unitType" : 0
                              }
                            },
                            "color-alpha" : {
                              "type" : "double",
                              "defaultValue" : 1.0,
                              "interp" : "linr",
                              "uiHints" : {
                                "userInterfaceType" : 0,
                                "unitType" : 0
                              }
                            },
                            "color-blue" : {
                              "type" : "double",
                              "defaultValue" : 0.1216,
                              "interp" : "linr",
                              "uiHints" : {
                                "userInterfaceType" : 0,
                                "unitType" : 0
                              }
                            },
                            "color-green" : {
                              "type" : "double",
                              "defaultValue" : 0.1216,
                              "interp" : "linr",
                              "uiHints" : {
                                "userInterfaceType" : 0,
                                "unitType" : 0
                              }
                            },
                            "color-red" : {
                              "type" : "double",
                              "defaultValue" : 0.1216,
                              "interp" : "linr",
                              "uiHints" : {
                                "userInterfaceType" : 0,
                                "unitType" : 0
                              }
                            },
                            "enabled" : 1,
                            "offset" : {
                              "type" : "double",
                              "defaultValue" : 10.0,
                              "interp" : "linr",
                              "uiHints" : {
                                "userInterfaceType" : 0,
                                "unitType" : 0
                              }
                            },
                            "opacity" : {
                              "type" : "double",
                              "defaultValue" : 0.4,
                              "interp" : "linr",
                              "uiHints" : {
                                "userInterfaceType" : 0,
                                "unitType" : 0
                              }
                            }
                          }
                        }
                    ],
                    "start" : 1908,
                    "duration" : 190,
                    "mediaStart" : 0,
                    "mediaDuration" : 190,
                    "scalar" : 1,
                    "metadata" : {
                      "WinSubProjectDisplayName" : "",
                      "clipSpeedAttribute" : false,
                      "default-HAlign" : "center",
                      "default-VAlign" : "center",
                      "default-text-attributes" : "[{\"name\":\"underline\",\"rangeEnd\":42,\"rangeStart\":0,\"value\":0,\"valueType\":\"int\"},{\"name\":\"fgColor\",\"rangeEnd\":44,\"rangeStart\":0,\"value\":\"(0,0,0,255)\",\"valueType\":\"color\"},{\"name\":\"fontName\",\"rangeEnd\":42,\"rangeStart\":0,\"value\":\"Montserrat\",\"valueType\":\"string\"},{\"name\":\"strikethrough\",\"rangeEnd\":42,\"rangeStart\":0,\"value\":0,\"valueType\":\"int\"},{\"name\":\"fontSize\",\"rangeEnd\":42,\"rangeStart\":0,\"value\":96,\"valueType\":\"double\"},{\"name\":\"fontWeight\",\"rangeEnd\":42,\"rangeStart\":0,\"value\":100,\"valueType\":\"int\"},{\"name\":\"fontItalic\",\"rangeEnd\":42,\"rangeStart\":0,\"value\":0,\"valueType\":\"int\"}]",
                      "default-translation0" : 0.0,
                      "default-translation1" : 0.0
                    },
                    "animationTracks" : {

                    }
                  },
                  {
                    "id" : 283,
                    "_type" : "Callout",
                    "def" : {
                      "kind" : "remix",
                      "shape" : "text",
                      "style" : "basic",
                      "height" : {
                        "type" : "double",
                        "defaultValue" : 74.141592920386,
                        "interp" : "linr"
                      },
                      "width" : {
                        "type" : "double",
                        "defaultValue" : 1774.37168141583,
                        "interp" : "linr"
                      },
                      "word-wrap" : {
                        "type" : "double",
                        "defaultValue" : 1.0,
                        "interp" : "linr"
                      },
                      "horizontal-alignment" : "center",
                      "text" : "In the end, an attribute-based Voronoi Diagram is generated",
                      "vertical-alignment" : "center",
                      "font" : {
                        "color-blue" : {
                          "type" : "double",
                          "defaultValue" : 1.0,
                          "interp" : "linr"
                        },
                        "color-green" : {
                          "type" : "double",
                          "defaultValue" : 1.0,
                          "interp" : "linr"
                        },
                        "color-red" : {
                          "type" : "double",
                          "defaultValue" : 1.0,
                          "interp" : "linr"
                        },
                        "size" : {
                          "type" : "double",
                          "defaultValue" : 96.0,
                          "interp" : "linr"
                        },
                        "tracking" : {
                          "type" : "double",
                          "defaultValue" : 0.0,
                          "interp" : "linr"
                        },
                        "name" : "Montserrat",
                        "weight" : "Regular"
                      },
                      "textAttributes" : {
                        "type" : "textAttributeList",
                        "keyframes" : [
                          {
                            "time" : 0,
                            "value" : [{"name":"fontWeight","rangeEnd":59,"rangeStart":0,"value":100,"valueType":"int"},{"name":"strikethrough","rangeEnd":59,"rangeStart":0,"value":0,"valueType":"int"},{"name":"underline","rangeEnd":59,"rangeStart":0,"value":0,"valueType":"int"},{"name":"fontName","rangeEnd":59,"rangeStart":0,"value":"Montserrat","valueType":"string"},{"name":"fgColor","rangeEnd":59,"rangeStart":0,"value":"(0,0,0,255)","valueType":"color"},{"name":"fontSize","rangeEnd":59,"rangeStart":0,"value":96,"valueType":"double"},{"name":"fontItalic","rangeEnd":59,"rangeStart":0,"value":0,"valueType":"int"}],
                            "duration" : 0
                          }
                        ]
                      }
                    },
                    "attributes" : {
                      "autoRotateText" : true
                    },
                    "parameters" : {
                      "translation0" : {
                        "type" : "double",
                        "defaultValue" : 10.8274336283455,
                        "interp" : "eioe"
                      },
                      "translation1" : {
                        "type" : "double",
                        "defaultValue" : -445.154867256108,
                        "interp" : "eioe"
                      }
                    },
                    "effects" : [
                        {
                          "effectName" : "DropShadow",
                          "parameters" : {
                            "angle" : {
                              "type" : "double",
                              "defaultValue" : 5.49778714378214,
                              "interp" : "linr",
                              "uiHints" : {
                                "userInterfaceType" : 0,
                                "unitType" : 0
                              }
                            },
                            "blur" : {
                              "type" : "double",
                              "defaultValue" : 10.0,
                              "interp" : "linr",
                              "uiHints" : {
                                "userInterfaceType" : 0,
                                "unitType" : 0
                              }
                            },
                            "color-alpha" : {
                              "type" : "double",
                              "defaultValue" : 1.0,
                              "interp" : "linr",
                              "uiHints" : {
                                "userInterfaceType" : 0,
                                "unitType" : 0
                              }
                            },
                            "color-blue" : {
                              "type" : "double",
                              "defaultValue" : 0.1216,
                              "interp" : "linr",
                              "uiHints" : {
                                "userInterfaceType" : 0,
                                "unitType" : 0
                              }
                            },
                            "color-green" : {
                              "type" : "double",
                              "defaultValue" : 0.1216,
                              "interp" : "linr",
                              "uiHints" : {
                                "userInterfaceType" : 0,
                                "unitType" : 0
                              }
                            },
                            "color-red" : {
                              "type" : "double",
                              "defaultValue" : 0.1216,
                              "interp" : "linr",
                              "uiHints" : {
                                "userInterfaceType" : 0,
                                "unitType" : 0
                              }
                            },
                            "enabled" : 1,
                            "offset" : {
                              "type" : "double",
                              "defaultValue" : 10.0,
                              "interp" : "linr",
                              "uiHints" : {
                                "userInterfaceType" : 0,
                                "unitType" : 0
                              }
                            },
                            "opacity" : {
                              "type" : "double",
                              "defaultValue" : 0.4,
                              "interp" : "linr",
                              "uiHints" : {
                                "userInterfaceType" : 0,
                                "unitType" : 0
                              }
                            }
                          }
                        }
                    ],
                    "start" : 2103,
                    "duration" : 114,
                    "mediaStart" : 3,
                    "mediaDuration" : 114,
                    "scalar" : 1,
                    "metadata" : {
                      "WinSubProjectDisplayName" : "",
                      "clipSpeedAttribute" : false,
                      "default-HAlign" : "center",
                      "default-VAlign" : "center",
                      "default-text-attributes" : "[{\"name\":\"underline\",\"rangeEnd\":42,\"rangeStart\":0,\"value\":0,\"valueType\":\"int\"},{\"name\":\"fgColor\",\"rangeEnd\":44,\"rangeStart\":0,\"value\":\"(0,0,0,255)\",\"valueType\":\"color\"},{\"name\":\"fontName\",\"rangeEnd\":42,\"rangeStart\":0,\"value\":\"Montserrat\",\"valueType\":\"string\"},{\"name\":\"strikethrough\",\"rangeEnd\":42,\"rangeStart\":0,\"value\":0,\"valueType\":\"int\"},{\"name\":\"fontSize\",\"rangeEnd\":42,\"rangeStart\":0,\"value\":96,\"valueType\":\"double\"},{\"name\":\"fontWeight\",\"rangeEnd\":42,\"rangeStart\":0,\"value\":100,\"valueType\":\"int\"},{\"name\":\"fontItalic\",\"rangeEnd\":42,\"rangeStart\":0,\"value\":0,\"valueType\":\"int\"}]",
                      "default-translation0" : 0.0,
                      "default-translation1" : 0.0
                    },
                    "animationTracks" : {

                    }
                  },
                  {
                    "id" : 284,
                    "_type" : "Callout",
                    "def" : {
                      "kind" : "remix",
                      "shape" : "text",
                      "style" : "basic",
                      "height" : {
                        "type" : "double",
                        "defaultValue" : 146.14159292032,
                        "interp" : "linr"
                      },
                      "width" : {
                        "type" : "double",
                        "defaultValue" : 1774.37168141583,
                        "interp" : "linr"
                      },
                      "word-wrap" : {
                        "type" : "double",
                        "defaultValue" : 1.0,
                        "interp" : "linr"
                      },
                      "horizontal-alignment" : "center",
                      "text" : "Case studies and Quantitative comparisons are conducted to demonstrate the validity of our method",
                      "vertical-alignment" : "center",
                      "font" : {
                        "color-blue" : {
                          "type" : "double",
                          "defaultValue" : 1.0,
                          "interp" : "linr"
                        },
                        "color-green" : {
                          "type" : "double",
                          "defaultValue" : 1.0,
                          "interp" : "linr"
                        },
                        "color-red" : {
                          "type" : "double",
                          "defaultValue" : 1.0,
                          "interp" : "linr"
                        },
                        "size" : {
                          "type" : "double",
                          "defaultValue" : 96.0,
                          "interp" : "linr"
                        },
                        "tracking" : {
                          "type" : "double",
                          "defaultValue" : 0.0,
                          "interp" : "linr"
                        },
                        "name" : "Montserrat",
                        "weight" : "Regular"
                      },
                      "textAttributes" : {
                        "type" : "textAttributeList",
                        "keyframes" : [
                          {
                            "time" : 0,
                            "value" : [{"name":"strikethrough","rangeEnd":97,"rangeStart":0,"value":0,"valueType":"int"},{"name":"fgColor","rangeEnd":97,"rangeStart":0,"value":"(0,0,0,255)","valueType":"color"},{"name":"fontName","rangeEnd":97,"rangeStart":0,"value":"Montserrat","valueType":"string"},{"name":"fontItalic","rangeEnd":97,"rangeStart":0,"value":0,"valueType":"int"},{"name":"underline","rangeEnd":97,"rangeStart":0,"value":0,"valueType":"int"},{"name":"fontWeight","rangeEnd":97,"rangeStart":0,"value":100,"valueType":"int"},{"name":"fontSize","rangeEnd":97,"rangeStart":0,"value":96,"valueType":"double"}],
                            "duration" : 0
                          }
                        ]
                      }
                    },
                    "attributes" : {
                      "autoRotateText" : true
                    },
                    "parameters" : {
                      "translation0" : {
                        "type" : "double",
                        "defaultValue" : 10.8274336283455,
                        "interp" : "eioe"
                      },
                      "translation1" : {
                        "type" : "double",
                        "defaultValue" : -409.154867256108,
                        "interp" : "eioe"
                      }
                    },
                    "effects" : [
                        {
                          "effectName" : "DropShadow",
                          "parameters" : {
                            "angle" : {
                              "type" : "double",
                              "defaultValue" : 5.49778714378214,
                              "interp" : "linr",
                              "uiHints" : {
                                "userInterfaceType" : 0,
                                "unitType" : 0
                              }
                            },
                            "blur" : {
                              "type" : "double",
                              "defaultValue" : 10.0,
                              "interp" : "linr",
                              "uiHints" : {
                                "userInterfaceType" : 0,
                                "unitType" : 0
                              }
                            },
                            "color-alpha" : {
                              "type" : "double",
                              "defaultValue" : 1.0,
                              "interp" : "linr",
                              "uiHints" : {
                                "userInterfaceType" : 0,
                                "unitType" : 0
                              }
                            },
                            "color-blue" : {
                              "type" : "double",
                              "defaultValue" : 0.1216,
                              "interp" : "linr",
                              "uiHints" : {
                                "userInterfaceType" : 0,
                                "unitType" : 0
                              }
                            },
                            "color-green" : {
                              "type" : "double",
                              "defaultValue" : 0.1216,
                              "interp" : "linr",
                              "uiHints" : {
                                "userInterfaceType" : 0,
                                "unitType" : 0
                              }
                            },
                            "color-red" : {
                              "type" : "double",
                              "defaultValue" : 0.1216,
                              "interp" : "linr",
                              "uiHints" : {
                                "userInterfaceType" : 0,
                                "unitType" : 0
                              }
                            },
                            "enabled" : 1,
                            "offset" : {
                              "type" : "double",
                              "defaultValue" : 10.0,
                              "interp" : "linr",
                              "uiHints" : {
                                "userInterfaceType" : 0,
                                "unitType" : 0
                              }
                            },
                            "opacity" : {
                              "type" : "double",
                              "defaultValue" : 0.4,
                              "interp" : "linr",
                              "uiHints" : {
                                "userInterfaceType" : 0,
                                "unitType" : 0
                              }
                            }
                          }
                        }
                    ],
                    "start" : 2221,
                    "duration" : 174,
                    "mediaStart" : 0,
                    "mediaDuration" : 174,
                    "scalar" : 1,
                    "metadata" : {
                      "WinSubProjectDisplayName" : "",
                      "clipSpeedAttribute" : false,
                      "default-HAlign" : "center",
                      "default-VAlign" : "center",
                      "default-text-attributes" : "[{\"name\":\"underline\",\"rangeEnd\":42,\"rangeStart\":0,\"value\":0,\"valueType\":\"int\"},{\"name\":\"fgColor\",\"rangeEnd\":44,\"rangeStart\":0,\"value\":\"(0,0,0,255)\",\"valueType\":\"color\"},{\"name\":\"fontName\",\"rangeEnd\":42,\"rangeStart\":0,\"value\":\"Montserrat\",\"valueType\":\"string\"},{\"name\":\"strikethrough\",\"rangeEnd\":42,\"rangeStart\":0,\"value\":0,\"valueType\":\"int\"},{\"name\":\"fontSize\",\"rangeEnd\":42,\"rangeStart\":0,\"value\":96,\"valueType\":\"double\"},{\"name\":\"fontWeight\",\"rangeEnd\":42,\"rangeStart\":0,\"value\":100,\"valueType\":\"int\"},{\"name\":\"fontItalic\",\"rangeEnd\":42,\"rangeStart\":0,\"value\":0,\"valueType\":\"int\"}]",
                      "default-translation0" : 0.0,
                      "default-translation1" : 0.0
                    },
                    "animationTracks" : {

                    }
                  },
                  {
                    "id" : 285,
                    "_type" : "Callout",
                    "def" : {
                      "kind" : "remix",
                      "shape" : "text",
                      "style" : "basic",
                      "height" : 74.141592920386,
                      "width" : 1774.37168141583,
                      "word-wrap" : 1.0,
                      "horizontal-alignment" : "center",
                      "text" : "Import the poverty dataset into the system",
                      "vertical-alignment" : "center",
                      "font" : {
                        "color-blue" : 1.0,
                        "color-green" : 1.0,
                        "color-red" : 1.0,
                        "size" : 96.0,
                        "tracking" : 0.0,
                        "name" : "Montserrat",
                        "weight" : "Regular"
                      },
                      "textAttributes" : {
                        "type" : "textAttributeList",
                        "keyframes" : [
                          {
                            "time" : 0,
                            "value" : [{"name":"strikethrough","rangeEnd":42,"rangeStart":0,"value":0,"valueType":"int"},{"name":"fontWeight","rangeEnd":42,"rangeStart":0,"value":100,"valueType":"int"},{"name":"fontItalic","rangeEnd":42,"rangeStart":0,"value":0,"valueType":"int"},{"name":"fontSize","rangeEnd":42,"rangeStart":0,"value":96,"valueType":"double"},{"name":"fontName","rangeEnd":42,"rangeStart":0,"value":"Montserrat","valueType":"string"},{"name":"fgColor","rangeEnd":42,"rangeStart":0,"value":"(0,0,0,255)","valueType":"color"},{"name":"underline","rangeEnd":42,"rangeStart":0,"value":0,"valueType":"int"}],
                            "duration" : 0
                          }
                        ]
                      }
                    },
                    "attributes" : {
                      "autoRotateText" : true
                    },
                    "parameters" : {
                      "translation0" : 10.8274336283455,
                      "translation1" : -445.154867256108
                    },
                    "effects" : [
                        {
                          "effectName" : "DropShadow",
                          "parameters" : {
                            "angle" : 5.49778714378214,
                            "blur" : 10.0,
                            "color-alpha" : 1.0,
                            "color-blue" : 0.1216,
                            "color-green" : 0.1216,
                            "color-red" : 0.1216,
                            "enabled" : 1,
                            "offset" : 10.0,
                            "opacity" : 0.4
                          }
                        }
                    ],
                    "start" : 2489,
                    "duration" : 99,
                    "mediaStart" : 0,
                    "mediaDuration" : 99,
                    "scalar" : 1,
                    "metadata" : {
                      "WinSubProjectDisplayName" : "",
                      "clipSpeedAttribute" : false,
                      "default-HAlign" : "center",
                      "default-VAlign" : "center",
                      "default-text-attributes" : "[{\"name\":\"fontSize\",\"rangeEnd\":48,\"rangeStart\":0,\"value\":96,\"valueType\":\"double\"},{\"name\":\"fontWeight\",\"rangeEnd\":48,\"rangeStart\":0,\"value\":100,\"valueType\":\"int\"},{\"name\":\"underline\",\"rangeEnd\":48,\"rangeStart\":0,\"value\":0,\"valueType\":\"int\"},{\"name\":\"fgColor\",\"rangeEnd\":48,\"rangeStart\":0,\"value\":\"(0,0,0,255)\",\"valueType\":\"color\"},{\"name\":\"fontName\",\"rangeEnd\":48,\"rangeStart\":0,\"value\":\"Montserrat\",\"valueType\":\"string\"},{\"name\":\"strikethrough\",\"rangeEnd\":48,\"rangeStart\":0,\"value\":0,\"valueType\":\"int\"},{\"name\":\"fontItalic\",\"rangeEnd\":48,\"rangeStart\":0,\"value\":0,\"valueType\":\"int\"}]",
                      "default-translation0" : 0.0,
                      "default-translation1" : 0.0
                    },
                    "animationTracks" : {

                    }
                  },
                  {
                    "id" : 286,
                    "_type" : "Callout",
                    "def" : {
                      "kind" : "remix",
                      "shape" : "text",
                      "style" : "basic",
                      "height" : 74.141592920386,
                      "width" : 1774.37168141583,
                      "word-wrap" : 1.0,
                      "horizontal-alignment" : "center",
                      "text" : "Several predefined color schemes are provided",
                      "vertical-alignment" : "center",
                      "font" : {
                        "color-blue" : 1.0,
                        "color-green" : 1.0,
                        "color-red" : 1.0,
                        "size" : 96.0,
                        "tracking" : 0.0,
                        "name" : "Montserrat",
                        "weight" : "Regular"
                      },
                      "textAttributes" : {
                        "type" : "textAttributeList",
                        "keyframes" : [
                          {
                            "time" : 0,
                            "value" : [{"name":"fgColor","rangeEnd":45,"rangeStart":0,"value":"(0,0,0,255)","valueType":"color"},{"name":"fontWeight","rangeEnd":45,"rangeStart":0,"value":100,"valueType":"int"},{"name":"fontName","rangeEnd":45,"rangeStart":0,"value":"Montserrat","valueType":"string"},{"name":"fontItalic","rangeEnd":45,"rangeStart":0,"value":0,"valueType":"int"},{"name":"underline","rangeEnd":45,"rangeStart":0,"value":0,"valueType":"int"},{"name":"fontSize","rangeEnd":45,"rangeStart":0,"value":96,"valueType":"double"},{"name":"strikethrough","rangeEnd":45,"rangeStart":0,"value":0,"valueType":"int"}],
                            "duration" : 0
                          }
                        ]
                      }
                    },
                    "attributes" : {
                      "autoRotateText" : true
                    },
                    "parameters" : {
                      "translation0" : 10.8274336283455,
                      "translation1" : -445.154867256108
                    },
                    "effects" : [
                        {
                          "effectName" : "DropShadow",
                          "parameters" : {
                            "angle" : 5.49778714378214,
                            "blur" : 10.0,
                            "color-alpha" : 1.0,
                            "color-blue" : 0.1216,
                            "color-green" : 0.1216,
                            "color-red" : 0.1216,
                            "enabled" : 1,
                            "offset" : 10.0,
                            "opacity" : 0.4
                          }
                        }
                    ],
                    "start" : 2595,
                    "duration" : 80,
                    "mediaStart" : 0,
                    "mediaDuration" : 80,
                    "scalar" : 1,
                    "metadata" : {
                      "WinSubProjectDisplayName" : "",
                      "clipSpeedAttribute" : false,
                      "default-HAlign" : "center",
                      "default-VAlign" : "center",
                      "default-text-attributes" : "[{\"name\":\"strikethrough\",\"rangeEnd\":55,\"rangeStart\":0,\"value\":0,\"valueType\":\"int\"},{\"name\":\"fontItalic\",\"rangeEnd\":55,\"rangeStart\":0,\"value\":0,\"valueType\":\"int\"},{\"name\":\"fontSize\",\"rangeEnd\":55,\"rangeStart\":0,\"value\":96,\"valueType\":\"double\"},{\"name\":\"fontName\",\"rangeEnd\":55,\"rangeStart\":0,\"value\":\"Montserrat\",\"valueType\":\"string\"},{\"name\":\"fontWeight\",\"rangeEnd\":55,\"rangeStart\":0,\"value\":100,\"valueType\":\"int\"},{\"name\":\"fgColor\",\"rangeEnd\":55,\"rangeStart\":0,\"value\":\"(0,0,0,255)\",\"valueType\":\"color\"},{\"name\":\"underline\",\"rangeEnd\":55,\"rangeStart\":0,\"value\":0,\"valueType\":\"int\"}]",
                      "default-translation0" : 0.0,
                      "default-translation1" : 0.0
                    },
                    "animationTracks" : {

                    }
                  },
                  {
                    "id" : 287,
                    "_type" : "Callout",
                    "def" : {
                      "kind" : "remix",
                      "shape" : "text",
                      "style" : "basic",
                      "height" : 74.141592920386,
                      "width" : 1774.37168141583,
                      "word-wrap" : 1.0,
                      "horizontal-alignment" : "center",
                      "text" : "Here are the statistics of the data",
                      "vertical-alignment" : "center",
                      "font" : {
                        "color-blue" : 1.0,
                        "color-green" : 1.0,
                        "color-red" : 1.0,
                        "size" : 96.0,
                        "tracking" : 0.0,
                        "name" : "Montserrat",
                        "weight" : "Regular"
                      },
                      "textAttributes" : {
                        "type" : "textAttributeList",
                        "keyframes" : [
                          {
                            "time" : 0,
                            "value" : [{"name":"strikethrough","rangeEnd":35,"rangeStart":0,"value":0,"valueType":"int"},{"name":"fontWeight","rangeEnd":35,"rangeStart":0,"value":100,"valueType":"int"},{"name":"fontItalic","rangeEnd":35,"rangeStart":0,"value":0,"valueType":"int"},{"name":"underline","rangeEnd":35,"rangeStart":0,"value":0,"valueType":"int"},{"name":"fontSize","rangeEnd":35,"rangeStart":0,"value":96,"valueType":"double"},{"name":"fontName","rangeEnd":35,"rangeStart":0,"value":"Montserrat","valueType":"string"},{"name":"fgColor","rangeEnd":35,"rangeStart":0,"value":"(0,0,0,255)","valueType":"color"}],
                            "duration" : 0
                          }
                        ]
                      }
                    },
                    "attributes" : {
                      "autoRotateText" : true
                    },
                    "parameters" : {
                      "translation0" : 10.8274336283455,
                      "translation1" : -445.154867256108
                    },
                    "effects" : [
                        {
                          "effectName" : "DropShadow",
                          "parameters" : {
                            "angle" : 5.49778714378214,
                            "blur" : 10.0,
                            "color-alpha" : 1.0,
                            "color-blue" : 0.1216,
                            "color-green" : 0.1216,
                            "color-red" : 0.1216,
                            "enabled" : 1,
                            "offset" : 10.0,
                            "opacity" : 0.4
                          }
                        }
                    ],
                    "start" : 2709,
                    "duration" : 69,
                    "mediaStart" : 17,
                    "mediaDuration" : 69,
                    "scalar" : 1,
                    "metadata" : {
                      "WinSubProjectDisplayName" : "",
                      "clipSpeedAttribute" : false,
                      "default-HAlign" : "center",
                      "default-VAlign" : "center",
                      "default-translation0" : 0.0,
                      "default-translation1" : 0.0
                    },
                    "animationTracks" : {

                    }
                  },
                  {
                    "id" : 288,
                    "_type" : "Callout",
                    "def" : {
                      "kind" : "remix",
                      "shape" : "text",
                      "style" : "basic",
                      "height" : 74.141592920386,
                      "width" : 1774.37168141583,
                      "word-wrap" : 1.0,
                      "horizontal-alignment" : "center",
                      "text" : "Owing to the Jenks Natural Breaks",
                      "vertical-alignment" : "center",
                      "font" : {
                        "color-blue" : 1.0,
                        "color-green" : 1.0,
                        "color-red" : 1.0,
                        "size" : 96.0,
                        "tracking" : 0.0,
                        "name" : "Montserrat",
                        "weight" : "Regular"
                      },
                      "textAttributes" : {
                        "type" : "textAttributeList",
                        "keyframes" : [
                          {
                            "time" : 0,
                            "value" : [{"name":"strikethrough","rangeEnd":35,"rangeStart":0,"value":0,"valueType":"int"},{"name":"fontWeight","rangeEnd":35,"rangeStart":0,"value":100,"valueType":"int"},{"name":"fontName","rangeEnd":35,"rangeStart":0,"value":"Montserrat","valueType":"string"},{"name":"fontSize","rangeEnd":35,"rangeStart":0,"value":96,"valueType":"double"},{"name":"underline","rangeEnd":35,"rangeStart":0,"value":0,"valueType":"int"},{"name":"fontItalic","rangeEnd":35,"rangeStart":0,"value":0,"valueType":"int"},{"name":"fgColor","rangeEnd":35,"rangeStart":0,"value":"(0,0,0,255)","valueType":"color"}],
                            "duration" : 0
                          }
                        ]
                      }
                    },
                    "attributes" : {
                      "autoRotateText" : true
                    },
                    "parameters" : {
                      "translation0" : 10.8274336283455,
                      "translation1" : -445.154867256108
                    },
                    "effects" : [
                        {
                          "effectName" : "DropShadow",
                          "parameters" : {
                            "angle" : 5.49778714378214,
                            "blur" : 10.0,
                            "color-alpha" : 1.0,
                            "color-blue" : 0.1216,
                            "color-green" : 0.1216,
                            "color-red" : 0.1216,
                            "enabled" : 1,
                            "offset" : 10.0,
                            "opacity" : 0.4
                          }
                        }
                    ],
                    "start" : 2793,
                    "duration" : 69,
                    "mediaStart" : 0,
                    "mediaDuration" : 69,
                    "scalar" : 1,
                    "metadata" : {
                      "WinSubProjectDisplayName" : "",
                      "clipSpeedAttribute" : false,
                      "default-HAlign" : "center",
                      "default-VAlign" : "center",
                      "default-text-attributes" : "[{\"name\":\"underline\",\"rangeEnd\":42,\"rangeStart\":0,\"value\":0,\"valueType\":\"int\"},{\"name\":\"fgColor\",\"rangeEnd\":44,\"rangeStart\":0,\"value\":\"(0,0,0,255)\",\"valueType\":\"color\"},{\"name\":\"fontName\",\"rangeEnd\":42,\"rangeStart\":0,\"value\":\"Montserrat\",\"valueType\":\"string\"},{\"name\":\"strikethrough\",\"rangeEnd\":42,\"rangeStart\":0,\"value\":0,\"valueType\":\"int\"},{\"name\":\"fontSize\",\"rangeEnd\":42,\"rangeStart\":0,\"value\":96,\"valueType\":\"double\"},{\"name\":\"fontWeight\",\"rangeEnd\":42,\"rangeStart\":0,\"value\":100,\"valueType\":\"int\"},{\"name\":\"fontItalic\",\"rangeEnd\":42,\"rangeStart\":0,\"value\":0,\"valueType\":\"int\"}]",
                      "default-translation0" : 0.0,
                      "default-translation1" : 0.0
                    },
                    "animationTracks" : {

                    }
                  },
                  {
                    "id" : 289,
                    "_type" : "Callout",
                    "def" : {
                      "kind" : "remix",
                      "shape" : "text",
                      "style" : "basic",
                      "height" : 146.991150442791,
                      "width" : 1355.76991150438,
                      "word-wrap" : 1.0,
                      "horizontal-alignment" : "center",
                      "text" : "The ranges of attribute values are divided into contiguous intervals",
                      "vertical-alignment" : "center",
                      "font" : {
                        "color-blue" : 1.0,
                        "color-green" : 1.0,
                        "color-red" : 1.0,
                        "size" : 96.0,
                        "tracking" : 0.0,
                        "name" : "Montserrat",
                        "weight" : "Regular"
                      },
                      "textAttributes" : {
                        "type" : "textAttributeList",
                        "keyframes" : [
                          {
                            "time" : 0,
                            "value" : [{"name":"strikethrough","rangeEnd":68,"rangeStart":0,"value":0,"valueType":"int"},{"name":"underline","rangeEnd":68,"rangeStart":0,"value":0,"valueType":"int"},{"name":"fontWeight","rangeEnd":68,"rangeStart":0,"value":100,"valueType":"int"},{"name":"fontName","rangeEnd":68,"rangeStart":0,"value":"Montserrat","valueType":"string"},{"name":"fontSize","rangeEnd":68,"rangeStart":0,"value":96,"valueType":"double"},{"name":"fgColor","rangeEnd":68,"rangeStart":0,"value":"(0,0,0,255)","valueType":"color"},{"name":"fontItalic","rangeEnd":68,"rangeStart":0,"value":0,"valueType":"int"}],
                            "duration" : 0
                          }
                        ]
                      }
                    },
                    "attributes" : {
                      "autoRotateText" : true
                    },
                    "parameters" : {
                      "translation0" : 0.115044247806338,
                      "translation1" : -411.06637168076
                    },
                    "effects" : [
                        {
                          "effectName" : "DropShadow",
                          "parameters" : {
                            "angle" : 5.49778714378214,
                            "blur" : 10.0,
                            "color-alpha" : 1.0,
                            "color-blue" : 0.1216,
                            "color-green" : 0.1216,
                            "color-red" : 0.1216,
                            "enabled" : 1,
                            "offset" : 10.0,
                            "opacity" : 0.4
                          }
                        }
                    ],
                    "start" : 2862,
                    "duration" : 133,
                    "mediaStart" : 0,
                    "mediaDuration" : 133,
                    "scalar" : 1,
                    "metadata" : {
                      "WinSubProjectDisplayName" : "",
                      "clipSpeedAttribute" : false,
                      "default-HAlign" : "center",
                      "default-VAlign" : "center",
                      "default-text-attributes" : "[{\"name\":\"fontName\",\"rangeEnd\":33,\"rangeStart\":0,\"value\":\"Montserrat\",\"valueType\":\"string\"},{\"name\":\"fontItalic\",\"rangeEnd\":33,\"rangeStart\":0,\"value\":0,\"valueType\":\"int\"},{\"name\":\"fontWeight\",\"rangeEnd\":33,\"rangeStart\":0,\"value\":100,\"valueType\":\"int\"},{\"name\":\"strikethrough\",\"rangeEnd\":33,\"rangeStart\":0,\"value\":0,\"valueType\":\"int\"},{\"name\":\"underline\",\"rangeEnd\":33,\"rangeStart\":0,\"value\":0,\"valueType\":\"int\"},{\"name\":\"fgColor\",\"rangeEnd\":33,\"rangeStart\":0,\"value\":\"(0,0,0,255)\",\"valueType\":\"color\"},{\"name\":\"fontSize\",\"rangeEnd\":33,\"rangeStart\":0,\"value\":96,\"valueType\":\"double\"}]",
                      "default-translation0" : 0.0,
                      "default-translation1" : 0.0
                    },
                    "animationTracks" : {

                    }
                  },
                  {
                    "id" : 290,
                    "_type" : "Callout",
                    "def" : {
                      "kind" : "remix",
                      "shape" : "text",
                      "style" : "basic",
                      "height" : 74.141592920386,
                      "width" : 1774.37168141583,
                      "word-wrap" : 1.0,
                      "horizontal-alignment" : "center",
                      "text" : "Display other layers",
                      "vertical-alignment" : "center",
                      "font" : {
                        "color-blue" : 1.0,
                        "color-green" : 1.0,
                        "color-red" : 1.0,
                        "size" : 96.0,
                        "tracking" : 0.0,
                        "name" : "Montserrat",
                        "weight" : "Regular"
                      },
                      "textAttributes" : {
                        "type" : "textAttributeList",
                        "keyframes" : [
                          {
                            "time" : 0,
                            "value" : [{"name":"fontItalic","rangeEnd":20,"rangeStart":0,"value":0,"valueType":"int"},{"name":"strikethrough","rangeEnd":20,"rangeStart":0,"value":0,"valueType":"int"},{"name":"fontWeight","rangeEnd":20,"rangeStart":0,"value":100,"valueType":"int"},{"name":"underline","rangeEnd":20,"rangeStart":0,"value":0,"valueType":"int"},{"name":"fontSize","rangeEnd":20,"rangeStart":0,"value":96,"valueType":"double"},{"name":"fontName","rangeEnd":20,"rangeStart":0,"value":"Montserrat","valueType":"string"},{"name":"fgColor","rangeEnd":20,"rangeStart":0,"value":"(0,0,0,255)","valueType":"color"}],
                            "duration" : 0
                          }
                        ]
                      }
                    },
                    "attributes" : {
                      "autoRotateText" : true
                    },
                    "parameters" : {
                      "translation0" : 10.8274336283455,
                      "translation1" : -445.154867256108
                    },
                    "effects" : [
                        {
                          "effectName" : "DropShadow",
                          "parameters" : {
                            "angle" : 5.49778714378214,
                            "blur" : 10.0,
                            "color-alpha" : 1.0,
                            "color-blue" : 0.1216,
                            "color-green" : 0.1216,
                            "color-red" : 0.1216,
                            "enabled" : 1,
                            "offset" : 10.0,
                            "opacity" : 0.4
                          }
                        }
                    ],
                    "start" : 3016,
                    "duration" : 35,
                    "mediaStart" : 0,
                    "mediaDuration" : 35,
                    "scalar" : 1,
                    "metadata" : {
                      "WinSubProjectDisplayName" : "",
                      "clipSpeedAttribute" : false,
                      "default-HAlign" : "center",
                      "default-VAlign" : "center",
                      "default-translation0" : 0.0,
                      "default-translation1" : 0.0
                    },
                    "animationTracks" : {

                    }
                  },
                  {
                    "id" : 291,
                    "_type" : "Callout",
                    "def" : {
                      "kind" : "remix",
                      "shape" : "text",
                      "style" : "basic",
                      "height" : 74.141592920386,
                      "width" : 1774.37168141583,
                      "word-wrap" : 1.0,
                      "horizontal-alignment" : "center",
                      "text" : "Set the visibility, opacity and overlying order",
                      "vertical-alignment" : "center",
                      "font" : {
                        "color-blue" : 1.0,
                        "color-green" : 1.0,
                        "color-red" : 1.0,
                        "size" : 96.0,
                        "tracking" : 0.0,
                        "name" : "Montserrat",
                        "weight" : "Regular"
                      },
                      "textAttributes" : {
                        "type" : "textAttributeList",
                        "keyframes" : [
                          {
                            "time" : 0,
                            "value" : [{"name":"fontWeight","rangeEnd":47,"rangeStart":0,"value":100,"valueType":"int"},{"name":"underline","rangeEnd":47,"rangeStart":0,"value":0,"valueType":"int"},{"name":"fontSize","rangeEnd":47,"rangeStart":0,"value":96,"valueType":"double"},{"name":"fontItalic","rangeEnd":47,"rangeStart":0,"value":0,"valueType":"int"},{"name":"fgColor","rangeEnd":47,"rangeStart":0,"value":"(0,0,0,255)","valueType":"color"},{"name":"strikethrough","rangeEnd":47,"rangeStart":0,"value":0,"valueType":"int"},{"name":"fontName","rangeEnd":47,"rangeStart":0,"value":"Montserrat","valueType":"string"}],
                            "duration" : 0
                          }
                        ]
                      }
                    },
                    "attributes" : {
                      "autoRotateText" : true
                    },
                    "parameters" : {
                      "translation0" : 10.8274336283455,
                      "translation1" : -445.154867256108
                    },
                    "effects" : [
                        {
                          "effectName" : "DropShadow",
                          "parameters" : {
                            "angle" : 5.49778714378214,
                            "blur" : 10.0,
                            "color-alpha" : 1.0,
                            "color-blue" : 0.1216,
                            "color-green" : 0.1216,
                            "color-red" : 0.1216,
                            "enabled" : 1,
                            "offset" : 10.0,
                            "opacity" : 0.4
                          }
                        }
                    ],
                    "start" : 3052,
                    "duration" : 110,
                    "mediaStart" : 0,
                    "mediaDuration" : 110,
                    "scalar" : 1,
                    "metadata" : {
                      "WinSubProjectDisplayName" : "",
                      "clipSpeedAttribute" : false,
                      "default-HAlign" : "center",
                      "default-VAlign" : "center",
                      "default-translation0" : 0.0,
                      "default-translation1" : 0.0
                    },
                    "animationTracks" : {

                    }
                  },
                  {
                    "id" : 292,
                    "_type" : "Callout",
                    "def" : {
                      "kind" : "remix",
                      "shape" : "text",
                      "style" : "basic",
                      "height" : 148.991150442841,
                      "width" : 1390.0663716812,
                      "word-wrap" : 1.0,
                      "horizontal-alignment" : "center",
                      "text" : "The polygons at the periphery is stretched to the boundary of the view",
                      "vertical-alignment" : "center",
                      "font" : {
                        "color-blue" : 1.0,
                        "color-green" : 1.0,
                        "color-red" : 1.0,
                        "size" : 96.0,
                        "tracking" : 0.0,
                        "name" : "Montserrat",
                        "weight" : "Regular"
                      },
                      "textAttributes" : {
                        "type" : "textAttributeList",
                        "keyframes" : [
                          {
                            "time" : 0,
                            "value" : [{"name":"fontName","rangeEnd":70,"rangeStart":0,"value":"Montserrat","valueType":"string"},{"name":"fontWeight","rangeEnd":70,"rangeStart":0,"value":100,"valueType":"int"},{"name":"underline","rangeEnd":70,"rangeStart":0,"value":0,"valueType":"int"},{"name":"fgColor","rangeEnd":70,"rangeStart":0,"value":"(0,0,0,255)","valueType":"color"},{"name":"fontSize","rangeEnd":70,"rangeStart":0,"value":96,"valueType":"double"},{"name":"strikethrough","rangeEnd":70,"rangeStart":0,"value":0,"valueType":"int"},{"name":"fontItalic","rangeEnd":70,"rangeStart":0,"value":0,"valueType":"int"}],
                            "duration" : 0
                          }
                        ]
                      }
                    },
                    "attributes" : {
                      "autoRotateText" : true
                    },
                    "parameters" : {
                      "translation0" : 71.0376106196223,
                      "translation1" : -458.154866985638
                    },
                    "effects" : [
                        {
                          "effectName" : "DropShadow",
                          "parameters" : {
                            "angle" : 5.49778714378214,
                            "blur" : 10.0,
                            "color-alpha" : 1.0,
                            "color-blue" : 0.1216,
                            "color-green" : 0.1216,
                            "color-red" : 0.1216,
                            "enabled" : 1,
                            "offset" : 10.0,
                            "opacity" : 0.4
                          }
                        }
                    ],
                    "start" : 3215,
                    "duration" : 125,
                    "mediaStart" : 0,
                    "mediaDuration" : 125,
                    "scalar" : 1,
                    "metadata" : {
                      "WinSubProjectDisplayName" : "",
                      "clipSpeedAttribute" : false,
                      "default-HAlign" : "center",
                      "default-VAlign" : "center",
                      "default-translation0" : 0.0,
                      "default-translation1" : 0.0
                    },
                    "animationTracks" : {

                    }
                  },
                  {
                    "id" : 293,
                    "_type" : "Callout",
                    "def" : {
                      "kind" : "remix",
                      "shape" : "text",
                      "style" : "basic",
                      "height" : 74.1415929208708,
                      "width" : 1866.12389380501,
                      "word-wrap" : 1.0,
                      "horizontal-alignment" : "center",
                      "text" : "Set the boundary interactively",
                      "vertical-alignment" : "center",
                      "font" : {
                        "color-blue" : 1.0,
                        "color-green" : 1.0,
                        "color-red" : 1.0,
                        "size" : 96.0,
                        "tracking" : 0.0,
                        "name" : "Montserrat",
                        "weight" : "Regular"
                      },
                      "textAttributes" : {
                        "type" : "textAttributeList",
                        "keyframes" : [
                          {
                            "time" : 0,
                            "value" : [{"name":"fontItalic","rangeEnd":30,"rangeStart":0,"value":0,"valueType":"int"},{"name":"fontWeight","rangeEnd":30,"rangeStart":0,"value":100,"valueType":"int"},{"name":"strikethrough","rangeEnd":30,"rangeStart":0,"value":0,"valueType":"int"},{"name":"underline","rangeEnd":30,"rangeStart":0,"value":0,"valueType":"int"},{"name":"fontSize","rangeEnd":30,"rangeStart":0,"value":96,"valueType":"double"},{"name":"fontName","rangeEnd":30,"rangeStart":0,"value":"Montserrat","valueType":"string"},{"name":"fgColor","rangeEnd":30,"rangeStart":0,"value":"(0,0,0,255)","valueType":"color"}],
                            "duration" : 0
                          }
                        ]
                      }
                    },
                    "attributes" : {
                      "autoRotateText" : true
                    },
                    "parameters" : {
                      "translation0" : 0.438053097438067,
                      "translation1" : -445.154867256108
                    },
                    "effects" : [
                        {
                          "effectName" : "DropShadow",
                          "parameters" : {
                            "angle" : 5.49778714378214,
                            "blur" : 10.0,
                            "color-alpha" : 1.0,
                            "color-blue" : 0.1216,
                            "color-green" : 0.1216,
                            "color-red" : 0.1216,
                            "enabled" : 1,
                            "offset" : 10.0,
                            "opacity" : 0.4
                          }
                        }
                    ],
                    "start" : 3364,
                    "duration" : 50,
                    "mediaStart" : 0,
                    "mediaDuration" : 50,
                    "scalar" : 1,
                    "metadata" : {
                      "WinSubProjectDisplayName" : "",
                      "clipSpeedAttribute" : false,
                      "default-HAlign" : "center",
                      "default-VAlign" : "center",
                      "default-text-attributes" : "[{\"name\":\"fontWeight\",\"rangeEnd\":31,\"rangeStart\":0,\"value\":100,\"valueType\":\"int\"},{\"name\":\"strikethrough\",\"rangeEnd\":31,\"rangeStart\":0,\"value\":0,\"valueType\":\"int\"},{\"name\":\"fgColor\",\"rangeEnd\":31,\"rangeStart\":0,\"value\":\"(0,0,0,255)\",\"valueType\":\"color\"},{\"name\":\"fontName\",\"rangeEnd\":31,\"rangeStart\":0,\"value\":\"Montserrat\",\"valueType\":\"string\"},{\"name\":\"fontItalic\",\"rangeEnd\":31,\"rangeStart\":0,\"value\":0,\"valueType\":\"int\"},{\"name\":\"fontSize\",\"rangeEnd\":31,\"rangeStart\":0,\"value\":96,\"valueType\":\"double\"},{\"name\":\"underline\",\"rangeEnd\":31,\"rangeStart\":0,\"value\":0,\"valueType\":\"int\"}]",
                      "default-translation0" : 0.0,
                      "default-translation1" : 0.0
                    },
                    "animationTracks" : {

                    }
                  },
                  {
                    "id" : 294,
                    "_type" : "Callout",
                    "def" : {
                      "kind" : "remix",
                      "shape" : "text",
                      "style" : "basic",
                      "height" : 74.1415929208708,
                      "width" : 1866.12389380501,
                      "word-wrap" : 1.0,
                      "horizontal-alignment" : "center",
                      "text" : "Lots of visual interference apears in the dense areas",
                      "vertical-alignment" : "center",
                      "font" : {
                        "color-blue" : 1.0,
                        "color-green" : 1.0,
                        "color-red" : 1.0,
                        "size" : 96.0,
                        "tracking" : 0.0,
                        "name" : "Montserrat",
                        "weight" : "Regular"
                      },
                      "textAttributes" : {
                        "type" : "textAttributeList",
                        "keyframes" : [
                          {
                            "time" : 0,
                            "value" : [{"name":"fontName","rangeEnd":53,"rangeStart":0,"value":"Montserrat","valueType":"string"},{"name":"fontSize","rangeEnd":53,"rangeStart":0,"value":96,"valueType":"double"},{"name":"fontWeight","rangeEnd":53,"rangeStart":0,"value":100,"valueType":"int"},{"name":"fontItalic","rangeEnd":53,"rangeStart":0,"value":0,"valueType":"int"},{"name":"strikethrough","rangeEnd":53,"rangeStart":0,"value":0,"valueType":"int"},{"name":"fgColor","rangeEnd":53,"rangeStart":0,"value":"(0,0,0,255)","valueType":"color"},{"name":"underline","rangeEnd":53,"rangeStart":0,"value":0,"valueType":"int"}],
                            "duration" : 0
                          }
                        ]
                      }
                    },
                    "attributes" : {
                      "autoRotateText" : true
                    },
                    "parameters" : {
                      "translation0" : 0.438053097438067,
                      "translation1" : -445.154867256108
                    },
                    "effects" : [
                        {
                          "effectName" : "DropShadow",
                          "parameters" : {
                            "angle" : 5.49778714378214,
                            "blur" : 10.0,
                            "color-alpha" : 1.0,
                            "color-blue" : 0.1216,
                            "color-green" : 0.1216,
                            "color-red" : 0.1216,
                            "enabled" : 1,
                            "offset" : 10.0,
                            "opacity" : 0.4
                          }
                        }
                    ],
                    "start" : 3460,
                    "duration" : 122,
                    "mediaStart" : 0,
                    "mediaDuration" : 122,
                    "scalar" : 1,
                    "metadata" : {
                      "WinSubProjectDisplayName" : "",
                      "clipSpeedAttribute" : false,
                      "default-HAlign" : "center",
                      "default-VAlign" : "center",
                      "default-translation0" : 0.0,
                      "default-translation1" : 0.0
                    },
                    "animationTracks" : {

                    }
                  },
                  {
                    "id" : 295,
                    "_type" : "Callout",
                    "def" : {
                      "kind" : "remix",
                      "shape" : "text",
                      "style" : "basic",
                      "height" : 74.1415929208708,
                      "width" : 1866.12389380501,
                      "word-wrap" : 1.0,
                      "horizontal-alignment" : "center",
                      "text" : "Then we perform the sampling to reduce the data scale",
                      "vertical-alignment" : "center",
                      "font" : {
                        "color-blue" : 1.0,
                        "color-green" : 1.0,
                        "color-red" : 1.0,
                        "size" : 96.0,
                        "tracking" : 0.0,
                        "name" : "Montserrat",
                        "weight" : "Regular"
                      },
                      "textAttributes" : {
                        "type" : "textAttributeList",
                        "keyframes" : [
                          {
                            "time" : 0,
                            "value" : [{"name":"fontName","rangeEnd":53,"rangeStart":0,"value":"Montserrat","valueType":"string"},{"name":"fontWeight","rangeEnd":53,"rangeStart":0,"value":100,"valueType":"int"},{"name":"fontItalic","rangeEnd":53,"rangeStart":0,"value":0,"valueType":"int"},{"name":"fgColor","rangeEnd":53,"rangeStart":0,"value":"(0,0,0,255)","valueType":"color"},{"name":"underline","rangeEnd":53,"rangeStart":0,"value":0,"valueType":"int"},{"name":"fontSize","rangeEnd":53,"rangeStart":0,"value":96,"valueType":"double"},{"name":"strikethrough","rangeEnd":53,"rangeStart":0,"value":0,"valueType":"int"}],
                            "duration" : 0
                          }
                        ]
                      }
                    },
                    "attributes" : {
                      "autoRotateText" : true
                    },
                    "parameters" : {
                      "translation0" : 0.438053097438067,
                      "translation1" : -445.154867256108
                    },
                    "effects" : [
                        {
                          "effectName" : "DropShadow",
                          "parameters" : {
                            "angle" : 5.49778714378214,
                            "blur" : 10.0,
                            "color-alpha" : 1.0,
                            "color-blue" : 0.1216,
                            "color-green" : 0.1216,
                            "color-red" : 0.1216,
                            "enabled" : 1,
                            "offset" : 10.0,
                            "opacity" : 0.4
                          }
                        }
                    ],
                    "start" : 3596,
                    "duration" : 82,
                    "mediaStart" : 0,
                    "mediaDuration" : 82,
                    "scalar" : 1,
                    "metadata" : {
                      "WinSubProjectDisplayName" : "",
                      "clipSpeedAttribute" : false,
                      "default-HAlign" : "center",
                      "default-VAlign" : "center",
                      "default-text-attributes" : "[{\"name\":\"fontItalic\",\"rangeEnd\":50,\"rangeStart\":0,\"value\":0,\"valueType\":\"int\"},{\"name\":\"fontSize\",\"rangeEnd\":50,\"rangeStart\":0,\"value\":96,\"valueType\":\"double\"},{\"name\":\"fontWeight\",\"rangeEnd\":50,\"rangeStart\":0,\"value\":100,\"valueType\":\"int\"},{\"name\":\"fgColor\",\"rangeEnd\":50,\"rangeStart\":0,\"value\":\"(0,0,0,255)\",\"valueType\":\"color\"},{\"name\":\"strikethrough\",\"rangeEnd\":50,\"rangeStart\":0,\"value\":0,\"valueType\":\"int\"},{\"name\":\"fontName\",\"rangeEnd\":50,\"rangeStart\":0,\"value\":\"Montserrat\",\"valueType\":\"string\"},{\"name\":\"underline\",\"rangeEnd\":50,\"rangeStart\":0,\"value\":0,\"valueType\":\"int\"}]",
                      "default-translation0" : 0.0,
                      "default-translation1" : 0.0
                    },
                    "animationTracks" : {

                    }
                  },
                  {
                    "id" : 296,
                    "_type" : "Callout",
                    "def" : {
                      "kind" : "remix",
                      "shape" : "text",
                      "style" : "basic",
                      "height" : 74.1415929208708,
                      "width" : 1866.12389380501,
                      "word-wrap" : 1.0,
                      "horizontal-alignment" : "center",
                      "text" : "Choose Random Sampling, enter the parameter and click Run",
                      "vertical-alignment" : "center",
                      "font" : {
                        "color-blue" : 1.0,
                        "color-green" : 1.0,
                        "color-red" : 1.0,
                        "size" : 96.0,
                        "tracking" : 0.0,
                        "name" : "Montserrat",
                        "weight" : "Regular"
                      },
                      "textAttributes" : {
                        "type" : "textAttributeList",
                        "keyframes" : [
                          {
                            "time" : 0,
                            "value" : [{"name":"fontSize","rangeEnd":57,"rangeStart":0,"value":96,"valueType":"double"},{"name":"fontWeight","rangeEnd":57,"rangeStart":0,"value":100,"valueType":"int"},{"name":"strikethrough","rangeEnd":57,"rangeStart":0,"value":0,"valueType":"int"},{"name":"fontItalic","rangeEnd":57,"rangeStart":0,"value":0,"valueType":"int"},{"name":"fontName","rangeEnd":57,"rangeStart":0,"value":"Montserrat","valueType":"string"},{"name":"underline","rangeEnd":57,"rangeStart":0,"value":0,"valueType":"int"},{"name":"fgColor","rangeEnd":57,"rangeStart":0,"value":"(0,0,0,255)","valueType":"color"}],
                            "duration" : 0
                          }
                        ]
                      }
                    },
                    "attributes" : {
                      "autoRotateText" : true
                    },
                    "parameters" : {
                      "translation0" : 0.438053097438067,
                      "translation1" : -445.154867256108
                    },
                    "effects" : [
                        {
                          "effectName" : "DropShadow",
                          "parameters" : {
                            "angle" : 5.49778714378214,
                            "blur" : 10.0,
                            "color-alpha" : 1.0,
                            "color-blue" : 0.1216,
                            "color-green" : 0.1216,
                            "color-red" : 0.1216,
                            "enabled" : 1,
                            "offset" : 10.0,
                            "opacity" : 0.4
                          }
                        }
                    ],
                    "start" : 3702,
                    "duration" : 119,
                    "mediaStart" : 0,
                    "mediaDuration" : 119,
                    "scalar" : 1,
                    "metadata" : {
                      "WinSubProjectDisplayName" : "",
                      "clipSpeedAttribute" : false,
                      "default-HAlign" : "center",
                      "default-VAlign" : "center",
                      "default-translation0" : 0.0,
                      "default-translation1" : 0.0
                    },
                    "animationTracks" : {

                    }
                  },
                  {
                    "id" : 297,
                    "_type" : "Callout",
                    "def" : {
                      "kind" : "remix",
                      "shape" : "text",
                      "style" : "basic",
                      "height" : 74.1415929208708,
                      "width" : 1866.12389380501,
                      "word-wrap" : 1.0,
                      "horizontal-alignment" : "center",
                      "text" : "The amount of polygons is reduced ",
                      "vertical-alignment" : "center",
                      "font" : {
                        "color-blue" : 1.0,
                        "color-green" : 1.0,
                        "color-red" : 1.0,
                        "size" : 96.0,
                        "tracking" : 0.0,
                        "name" : "Montserrat",
                        "weight" : "Regular"
                      },
                      "textAttributes" : {
                        "type" : "textAttributeList",
                        "keyframes" : [
                          {
                            "time" : 0,
                            "value" : [{"name":"fontName","rangeEnd":34,"rangeStart":0,"value":"Montserrat","valueType":"string"},{"name":"underline","rangeEnd":34,"rangeStart":0,"value":0,"valueType":"int"},{"name":"strikethrough","rangeEnd":34,"rangeStart":0,"value":0,"valueType":"int"},{"name":"fontWeight","rangeEnd":34,"rangeStart":0,"value":100,"valueType":"int"},{"name":"fontItalic","rangeEnd":34,"rangeStart":0,"value":0,"valueType":"int"},{"name":"fontSize","rangeEnd":34,"rangeStart":0,"value":96,"valueType":"double"},{"name":"fgColor","rangeEnd":34,"rangeStart":0,"value":"(0,0,0,255)","valueType":"color"}],
                            "duration" : 0
                          }
                        ]
                      }
                    },
                    "attributes" : {
                      "autoRotateText" : true
                    },
                    "parameters" : {
                      "translation0" : 0.438053097438067,
                      "translation1" : -445.154867256108
                    },
                    "effects" : [
                        {
                          "effectName" : "DropShadow",
                          "parameters" : {
                            "angle" : 5.49778714378214,
                            "blur" : 10.0,
                            "color-alpha" : 1.0,
                            "color-blue" : 0.1216,
                            "color-green" : 0.1216,
                            "color-red" : 0.1216,
                            "enabled" : 1,
                            "offset" : 10.0,
                            "opacity" : 0.4
                          }
                        }
                    ],
                    "start" : 3895,
                    "duration" : 76,
                    "mediaStart" : 0,
                    "mediaDuration" : 76,
                    "scalar" : 1,
                    "metadata" : {
                      "WinSubProjectDisplayName" : "",
                      "clipSpeedAttribute" : false,
                      "default-HAlign" : "center",
                      "default-VAlign" : "center",
                      "default-translation0" : 0.0,
                      "default-translation1" : 0.0
                    },
                    "animationTracks" : {

                    }
                  },
                  {
                    "id" : 298,
                    "_type" : "Callout",
                    "def" : {
                      "kind" : "remix",
                      "shape" : "text",
                      "style" : "basic",
                      "height" : 74.1415929208708,
                      "width" : 1866.12389380501,
                      "word-wrap" : 1.0,
                      "horizontal-alignment" : "center",
                      "text" : "Yet the distribution and shapes of them are irregular",
                      "vertical-alignment" : "center",
                      "font" : {
                        "color-blue" : 1.0,
                        "color-green" : 1.0,
                        "color-red" : 1.0,
                        "size" : 96.0,
                        "tracking" : 0.0,
                        "name" : "Montserrat",
                        "weight" : "Regular"
                      },
                      "textAttributes" : {
                        "type" : "textAttributeList",
                        "keyframes" : [
                          {
                            "time" : 0,
                            "value" : [{"name":"fgColor","rangeEnd":53,"rangeStart":0,"value":"(0,0,0,255)","valueType":"color"},{"name":"fontItalic","rangeEnd":53,"rangeStart":0,"value":0,"valueType":"int"},{"name":"underline","rangeEnd":53,"rangeStart":0,"value":0,"valueType":"int"},{"name":"strikethrough","rangeEnd":53,"rangeStart":0,"value":0,"valueType":"int"},{"name":"fontName","rangeEnd":53,"rangeStart":0,"value":"Montserrat","valueType":"string"},{"name":"fontSize","rangeEnd":53,"rangeStart":0,"value":96,"valueType":"double"},{"name":"fontWeight","rangeEnd":53,"rangeStart":0,"value":100,"valueType":"int"}],
                            "duration" : 0
                          }
                        ]
                      }
                    },
                    "attributes" : {
                      "autoRotateText" : true
                    },
                    "parameters" : {
                      "translation0" : 0.438053097438067,
                      "translation1" : -445.154867256108
                    },
                    "effects" : [
                        {
                          "effectName" : "DropShadow",
                          "parameters" : {
                            "angle" : 5.49778714378214,
                            "blur" : 10.0,
                            "color-alpha" : 1.0,
                            "color-blue" : 0.1216,
                            "color-green" : 0.1216,
                            "color-red" : 0.1216,
                            "enabled" : 1,
                            "offset" : 10.0,
                            "opacity" : 0.4
                          }
                        }
                    ],
                    "start" : 3982,
                    "duration" : 111,
                    "mediaStart" : 0,
                    "mediaDuration" : 111,
                    "scalar" : 1,
                    "metadata" : {
                      "WinSubProjectDisplayName" : "",
                      "clipSpeedAttribute" : false,
                      "default-HAlign" : "center",
                      "default-VAlign" : "center",
                      "default-text-attributes" : "[{\"name\":\"fontWeight\",\"rangeEnd\":52,\"rangeStart\":0,\"value\":100,\"valueType\":\"int\"},{\"name\":\"fgColor\",\"rangeEnd\":52,\"rangeStart\":0,\"value\":\"(0,0,0,255)\",\"valueType\":\"color\"},{\"name\":\"fontSize\",\"rangeEnd\":52,\"rangeStart\":0,\"value\":96,\"valueType\":\"double\"},{\"name\":\"underline\",\"rangeEnd\":52,\"rangeStart\":0,\"value\":0,\"valueType\":\"int\"},{\"name\":\"fontItalic\",\"rangeEnd\":52,\"rangeStart\":0,\"value\":0,\"valueType\":\"int\"},{\"name\":\"fontName\",\"rangeEnd\":52,\"rangeStart\":0,\"value\":\"Montserrat\",\"valueType\":\"string\"},{\"name\":\"strikethrough\",\"rangeEnd\":52,\"rangeStart\":0,\"value\":0,\"valueType\":\"int\"}]",
                      "default-translation0" : 0.0,
                      "default-translation1" : 0.0
                    },
                    "animationTracks" : {

                    }
                  },
                  {
                    "id" : 299,
                    "_type" : "Callout",
                    "def" : {
                      "kind" : "remix",
                      "shape" : "text",
                      "style" : "basic",
                      "height" : 74.1415929208708,
                      "width" : 1866.12389380501,
                      "word-wrap" : 1.0,
                      "horizontal-alignment" : "center",
                      "text" : "Choose Blue Noise Sampling",
                      "vertical-alignment" : "center",
                      "font" : {
                        "color-blue" : 1.0,
                        "color-green" : 1.0,
                        "color-red" : 1.0,
                        "size" : 96.0,
                        "tracking" : 0.0,
                        "name" : "Montserrat",
                        "weight" : "Regular"
                      },
                      "textAttributes" : {
                        "type" : "textAttributeList",
                        "keyframes" : [
                          {
                            "time" : 0,
                            "value" : [{"name":"fontName","rangeEnd":26,"rangeStart":0,"value":"Montserrat","valueType":"string"},{"name":"fontWeight","rangeEnd":26,"rangeStart":0,"value":100,"valueType":"int"},{"name":"fontItalic","rangeEnd":26,"rangeStart":0,"value":0,"valueType":"int"},{"name":"fontSize","rangeEnd":26,"rangeStart":0,"value":96,"valueType":"double"},{"name":"strikethrough","rangeEnd":26,"rangeStart":0,"value":0,"valueType":"int"},{"name":"fgColor","rangeEnd":26,"rangeStart":0,"value":"(0,0,0,255)","valueType":"color"},{"name":"underline","rangeEnd":26,"rangeStart":0,"value":0,"valueType":"int"}],
                            "duration" : 0
                          }
                        ]
                      }
                    },
                    "attributes" : {
                      "autoRotateText" : true
                    },
                    "parameters" : {
                      "translation0" : 0.438053097438067,
                      "translation1" : -445.154867256108
                    },
                    "effects" : [
                        {
                          "effectName" : "DropShadow",
                          "parameters" : {
                            "angle" : 5.49778714378214,
                            "blur" : 10.0,
                            "color-alpha" : 1.0,
                            "color-blue" : 0.1216,
                            "color-green" : 0.1216,
                            "color-red" : 0.1216,
                            "enabled" : 1,
                            "offset" : 10.0,
                            "opacity" : 0.4
                          }
                        }
                    ],
                    "start" : 4116,
                    "duration" : 50,
                    "mediaStart" : 0,
                    "mediaDuration" : 50,
                    "scalar" : 1,
                    "metadata" : {
                      "WinSubProjectDisplayName" : "",
                      "clipSpeedAttribute" : false,
                      "default-HAlign" : "center",
                      "default-VAlign" : "center",
                      "default-translation0" : 0.0,
                      "default-translation1" : 0.0
                    },
                    "animationTracks" : {

                    }
                  },
                  {
                    "id" : 300,
                    "_type" : "Callout",
                    "def" : {
                      "kind" : "remix",
                      "shape" : "text",
                      "style" : "basic",
                      "height" : 74.1415929208708,
                      "width" : 1866.12389380501,
                      "word-wrap" : 1.0,
                      "horizontal-alignment" : "center",
                      "text" : "Its mechanism leads to a uniform distribution",
                      "vertical-alignment" : "center",
                      "font" : {
                        "color-blue" : 1.0,
                        "color-green" : 1.0,
                        "color-red" : 1.0,
                        "size" : 96.0,
                        "tracking" : 0.0,
                        "name" : "Montserrat",
                        "weight" : "Regular"
                      },
                      "textAttributes" : {
                        "type" : "textAttributeList",
                        "keyframes" : [
                          {
                            "time" : 0,
                            "value" : [{"name":"fontSize","rangeEnd":45,"rangeStart":0,"value":96,"valueType":"double"},{"name":"strikethrough","rangeEnd":45,"rangeStart":0,"value":0,"valueType":"int"},{"name":"fontName","rangeEnd":45,"rangeStart":0,"value":"Montserrat","valueType":"string"},{"name":"fontWeight","rangeEnd":45,"rangeStart":0,"value":100,"valueType":"int"},{"name":"fgColor","rangeEnd":45,"rangeStart":0,"value":"(0,0,0,255)","valueType":"color"},{"name":"fontItalic","rangeEnd":45,"rangeStart":0,"value":0,"valueType":"int"},{"name":"underline","rangeEnd":45,"rangeStart":0,"value":0,"valueType":"int"}],
                            "duration" : 0
                          }
                        ]
                      }
                    },
                    "attributes" : {
                      "autoRotateText" : true
                    },
                    "parameters" : {
                      "translation0" : 0.438053097438067,
                      "translation1" : -445.154867256108
                    },
                    "effects" : [
                        {
                          "effectName" : "DropShadow",
                          "parameters" : {
                            "angle" : 5.49778714378214,
                            "blur" : 10.0,
                            "color-alpha" : 1.0,
                            "color-blue" : 0.1216,
                            "color-green" : 0.1216,
                            "color-red" : 0.1216,
                            "enabled" : 1,
                            "offset" : 10.0,
                            "opacity" : 0.4
                          }
                        }
                    ],
                    "start" : 4265,
                    "duration" : 101,
                    "mediaStart" : 0,
                    "mediaDuration" : 101,
                    "scalar" : 1,
                    "metadata" : {
                      "WinSubProjectDisplayName" : "",
                      "clipSpeedAttribute" : false,
                      "default-HAlign" : "center",
                      "default-VAlign" : "center",
                      "default-translation0" : 0.0,
                      "default-translation1" : 0.0
                    },
                    "animationTracks" : {

                    }
                  },
                  {
                    "id" : 301,
                    "_type" : "Callout",
                    "def" : {
                      "kind" : "remix",
                      "shape" : "text",
                      "style" : "basic",
                      "height" : 74.1415929208708,
                      "width" : 1866.12389380501,
                      "word-wrap" : 1.0,
                      "horizontal-alignment" : "center",
                      "text" : "On the other side",
                      "vertical-alignment" : "center",
                      "font" : {
                        "color-blue" : 1.0,
                        "color-green" : 1.0,
                        "color-red" : 1.0,
                        "size" : 96.0,
                        "tracking" : 0.0,
                        "name" : "Montserrat",
                        "weight" : "Regular"
                      },
                      "textAttributes" : {
                        "type" : "textAttributeList",
                        "keyframes" : [
                          {
                            "time" : 0,
                            "value" : [{"name":"fgColor","rangeEnd":17,"rangeStart":0,"value":"(0,0,0,255)","valueType":"color"},{"name":"underline","rangeEnd":17,"rangeStart":0,"value":0,"valueType":"int"},{"name":"fontWeight","rangeEnd":17,"rangeStart":0,"value":100,"valueType":"int"},{"name":"strikethrough","rangeEnd":17,"rangeStart":0,"value":0,"valueType":"int"},{"name":"fontSize","rangeEnd":17,"rangeStart":0,"value":96,"valueType":"double"},{"name":"fontName","rangeEnd":17,"rangeStart":0,"value":"Montserrat","valueType":"string"},{"name":"fontItalic","rangeEnd":17,"rangeStart":0,"value":0,"valueType":"int"}],
                            "duration" : 0
                          }
                        ]
                      }
                    },
                    "attributes" : {
                      "autoRotateText" : true
                    },
                    "parameters" : {
                      "translation0" : 0.438053097438067,
                      "translation1" : -445.154867256108
                    },
                    "effects" : [
                        {
                          "effectName" : "DropShadow",
                          "parameters" : {
                            "angle" : 5.49778714378214,
                            "blur" : 10.0,
                            "color-alpha" : 1.0,
                            "color-blue" : 0.1216,
                            "color-green" : 0.1216,
                            "color-red" : 0.1216,
                            "enabled" : 1,
                            "offset" : 10.0,
                            "opacity" : 0.4
                          }
                        }
                    ],
                    "start" : 4393,
                    "duration" : 28,
                    "mediaStart" : 0,
                    "mediaDuration" : 28,
                    "scalar" : 1,
                    "metadata" : {
                      "WinSubProjectDisplayName" : "",
                      "clipSpeedAttribute" : false,
                      "default-HAlign" : "center",
                      "default-VAlign" : "center",
                      "default-translation0" : 0.0,
                      "default-translation1" : 0.0
                    },
                    "animationTracks" : {

                    }
                  },
                  {
                    "id" : 302,
                    "_type" : "Callout",
                    "def" : {
                      "kind" : "remix",
                      "shape" : "text",
                      "style" : "basic",
                      "height" : 146.778761062635,
                      "width" : 1866.12389380501,
                      "word-wrap" : 1.0,
                      "horizontal-alignment" : "center",
                      "text" : "It is not targeted to recognize and maintain the characteristics of a complex area",
                      "vertical-alignment" : "center",
                      "font" : {
                        "color-blue" : 1.0,
                        "color-green" : 1.0,
                        "color-red" : 1.0,
                        "size" : 96.0,
                        "tracking" : 0.0,
                        "name" : "Montserrat",
                        "weight" : "Regular"
                      },
                      "textAttributes" : {
                        "type" : "textAttributeList",
                        "keyframes" : [
                          {
                            "time" : 0,
                            "value" : [{"name":"fontSize","rangeEnd":82,"rangeStart":0,"value":96,"valueType":"double"},{"name":"fgColor","rangeEnd":82,"rangeStart":0,"value":"(0,0,0,255)","valueType":"color"},{"name":"strikethrough","rangeEnd":82,"rangeStart":0,"value":0,"valueType":"int"},{"name":"fontName","rangeEnd":82,"rangeStart":0,"value":"Montserrat","valueType":"string"},{"name":"fontWeight","rangeEnd":82,"rangeStart":0,"value":100,"valueType":"int"},{"name":"underline","rangeEnd":82,"rangeStart":0,"value":0,"valueType":"int"},{"name":"fontItalic","rangeEnd":82,"rangeStart":0,"value":0,"valueType":"int"}],
                            "duration" : 0
                          }
                        ]
                      }
                    },
                    "attributes" : {
                      "autoRotateText" : true
                    },
                    "parameters" : {
                      "translation0" : 0.438053097438067,
                      "translation1" : -409.154867256108
                    },
                    "effects" : [
                        {
                          "effectName" : "DropShadow",
                          "parameters" : {
                            "angle" : 5.49778714378214,
                            "blur" : 10.0,
                            "color-alpha" : 1.0,
                            "color-blue" : 0.1216,
                            "color-green" : 0.1216,
                            "color-red" : 0.1216,
                            "enabled" : 1,
                            "offset" : 10.0,
                            "opacity" : 0.4
                          }
                        }
                    ],
                    "start" : 4425,
                    "duration" : 143,
                    "mediaStart" : 0,
                    "mediaDuration" : 143,
                    "scalar" : 1,
                    "metadata" : {
                      "WinSubProjectDisplayName" : "",
                      "clipSpeedAttribute" : false,
                      "default-HAlign" : "center",
                      "default-VAlign" : "center",
                      "default-translation0" : 0.0,
                      "default-translation1" : 0.0
                    },
                    "animationTracks" : {

                    }
                  },
                  {
                    "id" : 303,
                    "_type" : "Callout",
                    "def" : {
                      "kind" : "remix",
                      "shape" : "text",
                      "style" : "basic",
                      "height" : 74.1415929208708,
                      "width" : 1866.12389380501,
                      "word-wrap" : 1.0,
                      "horizontal-alignment" : "center",
                      "text" : "Finally, use our algorithm",
                      "vertical-alignment" : "center",
                      "font" : {
                        "color-blue" : 1.0,
                        "color-green" : 1.0,
                        "color-red" : 1.0,
                        "size" : 96.0,
                        "tracking" : 0.0,
                        "name" : "Montserrat",
                        "weight" : "Regular"
                      },
                      "textAttributes" : {
                        "type" : "textAttributeList",
                        "keyframes" : [
                          {
                            "time" : 0,
                            "value" : [{"name":"fontSize","rangeEnd":26,"rangeStart":0,"value":96,"valueType":"double"},{"name":"fgColor","rangeEnd":26,"rangeStart":0,"value":"(0,0,0,255)","valueType":"color"},{"name":"fontItalic","rangeEnd":26,"rangeStart":0,"value":0,"valueType":"int"},{"name":"underline","rangeEnd":26,"rangeStart":0,"value":0,"valueType":"int"},{"name":"strikethrough","rangeEnd":26,"rangeStart":0,"value":0,"valueType":"int"},{"name":"fontWeight","rangeEnd":26,"rangeStart":0,"value":100,"valueType":"int"},{"name":"fontName","rangeEnd":26,"rangeStart":0,"value":"Montserrat","valueType":"string"}],
                            "duration" : 0
                          }
                        ]
                      }
                    },
                    "attributes" : {
                      "autoRotateText" : true
                    },
                    "parameters" : {
                      "translation0" : 0.438053097438067,
                      "translation1" : -445.154867256108
                    },
                    "effects" : [
                        {
                          "effectName" : "DropShadow",
                          "parameters" : {
                            "angle" : 5.49778714378214,
                            "blur" : 10.0,
                            "color-alpha" : 1.0,
                            "color-blue" : 0.1216,
                            "color-green" : 0.1216,
                            "color-red" : 0.1216,
                            "enabled" : 1,
                            "offset" : 10.0,
                            "opacity" : 0.4
                          }
                        }
                    ],
                    "start" : 4589,
                    "duration" : 69,
                    "mediaStart" : 0,
                    "mediaDuration" : 69,
                    "scalar" : 1,
                    "metadata" : {
                      "WinSubProjectDisplayName" : "",
                      "clipSpeedAttribute" : false,
                      "default-HAlign" : "center",
                      "default-VAlign" : "center",
                      "default-translation0" : 0.0,
                      "default-translation1" : 0.0
                    },
                    "animationTracks" : {

                    }
                  },
                  {
                    "id" : 304,
                    "_type" : "Callout",
                    "def" : {
                      "kind" : "remix",
                      "shape" : "text",
                      "style" : "basic",
                      "height" : 74.1415929208708,
                      "width" : 1866.12389380501,
                      "word-wrap" : 1.0,
                      "horizontal-alignment" : "center",
                      "text" : "Compare the different results",
                      "vertical-alignment" : "center",
                      "font" : {
                        "color-blue" : 1.0,
                        "color-green" : 1.0,
                        "color-red" : 1.0,
                        "size" : 96.0,
                        "tracking" : 0.0,
                        "name" : "Montserrat",
                        "weight" : "Regular"
                      },
                      "textAttributes" : {
                        "type" : "textAttributeList",
                        "keyframes" : [
                          {
                            "time" : 0,
                            "value" : [{"name":"fgColor","rangeEnd":29,"rangeStart":0,"value":"(0,0,0,255)","valueType":"color"},{"name":"strikethrough","rangeEnd":29,"rangeStart":0,"value":0,"valueType":"int"},{"name":"fontSize","rangeEnd":29,"rangeStart":0,"value":96,"valueType":"double"},{"name":"fontItalic","rangeEnd":29,"rangeStart":0,"value":0,"valueType":"int"},{"name":"underline","rangeEnd":29,"rangeStart":0,"value":0,"valueType":"int"},{"name":"fontName","rangeEnd":29,"rangeStart":0,"value":"Montserrat","valueType":"string"},{"name":"fontWeight","rangeEnd":29,"rangeStart":0,"value":100,"valueType":"int"}],
                            "duration" : 0
                          }
                        ]
                      }
                    },
                    "attributes" : {
                      "autoRotateText" : true
                    },
                    "parameters" : {
                      "translation0" : 0.438053097438067,
                      "translation1" : -445.154867256108
                    },
                    "effects" : [
                        {
                          "effectName" : "DropShadow",
                          "parameters" : {
                            "angle" : 5.49778714378214,
                            "blur" : 10.0,
                            "color-alpha" : 1.0,
                            "color-blue" : 0.1216,
                            "color-green" : 0.1216,
                            "color-red" : 0.1216,
                            "enabled" : 1,
                            "offset" : 10.0,
                            "opacity" : 0.4
                          }
                        }
                    ],
                    "start" : 4995,
                    "duration" : 62,
                    "mediaStart" : 0,
                    "mediaDuration" : 62,
                    "scalar" : 1,
                    "metadata" : {
                      "WinSubProjectDisplayName" : "",
                      "clipSpeedAttribute" : false,
                      "default-HAlign" : "center",
                      "default-VAlign" : "center",
                      "default-translation0" : 0.0,
                      "default-translation1" : 0.0
                    },
                    "animationTracks" : {

                    }
                  },
                  {
                    "id" : 305,
                    "_type" : "Callout",
                    "def" : {
                      "kind" : "remix",
                      "shape" : "text",
                      "style" : "basic",
                      "height" : 83.6991150449833,
                      "width" : 1893.06194690258,
                      "word-wrap" : 1.0,
                      "horizontal-alignment" : "center",
                      "text" : "Our result best preserves the characteristics of the original data",
                      "vertical-alignment" : "center",
                      "font" : {
                        "color-blue" : 1.0,
                        "color-green" : 1.0,
                        "color-red" : 1.0,
                        "size" : 96.0,
                        "tracking" : 0.0,
                        "name" : "Montserrat",
                        "weight" : "Regular"
                      },
                      "textAttributes" : {
                        "type" : "textAttributeList",
                        "keyframes" : [
                          {
                            "time" : 0,
                            "value" : [{"name":"fgColor","rangeEnd":66,"rangeStart":0,"value":"(0,0,0,255)","valueType":"color"},{"name":"fontSize","rangeEnd":66,"rangeStart":0,"value":96,"valueType":"double"},{"name":"fontName","rangeEnd":66,"rangeStart":0,"value":"Montserrat","valueType":"string"},{"name":"underline","rangeEnd":66,"rangeStart":0,"value":0,"valueType":"int"},{"name":"fontItalic","rangeEnd":66,"rangeStart":0,"value":0,"valueType":"int"},{"name":"fontWeight","rangeEnd":66,"rangeStart":0,"value":100,"valueType":"int"},{"name":"strikethrough","rangeEnd":66,"rangeStart":0,"value":0,"valueType":"int"}],
                            "duration" : 0
                          }
                        ]
                      }
                    },
                    "attributes" : {
                      "autoRotateText" : true
                    },
                    "parameters" : {
                      "translation0" : 0.46903032947985,
                      "translation1" : -442.654867255984
                    },
                    "effects" : [
                        {
                          "effectName" : "DropShadow",
                          "parameters" : {
                            "angle" : 5.49778714378214,
                            "blur" : 10.0,
                            "color-alpha" : 1.0,
                            "color-blue" : 0.1216,
                            "color-green" : 0.1216,
                            "color-red" : 0.1216,
                            "enabled" : 1,
                            "offset" : 10.0,
                            "opacity" : 0.4
                          }
                        }
                    ],
                    "start" : 5063,
                    "duration" : 122,
                    "mediaStart" : 0,
                    "mediaDuration" : 122,
                    "scalar" : 1,
                    "metadata" : {
                      "WinSubProjectDisplayName" : "",
                      "clipSpeedAttribute" : false,
                      "default-HAlign" : "center",
                      "default-VAlign" : "center",
                      "default-translation0" : 0.0,
                      "default-translation1" : 0.0
                    },
                    "animationTracks" : {

                    }
                  },
                  {
                    "id" : 306,
                    "_type" : "Callout",
                    "def" : {
                      "kind" : "remix",
                      "shape" : "text",
                      "style" : "basic",
                      "height" : 83.6991150449833,
                      "width" : 1866.12389380501,
                      "word-wrap" : 1.0,
                      "horizontal-alignment" : "center",
                      "text" : "But also forms polygons in nice shape",
                      "vertical-alignment" : "center",
                      "font" : {
                        "color-blue" : 1.0,
                        "color-green" : 1.0,
                        "color-red" : 1.0,
                        "size" : 96.0,
                        "tracking" : 0.0,
                        "name" : "Montserrat",
                        "weight" : "Regular"
                      },
                      "textAttributes" : {
                        "type" : "textAttributeList",
                        "keyframes" : [
                          {
                            "time" : 0,
                            "value" : [{"name":"fontSize","rangeEnd":37,"rangeStart":0,"value":96,"valueType":"double"},{"name":"fontName","rangeEnd":37,"rangeStart":0,"value":"Montserrat","valueType":"string"},{"name":"fontItalic","rangeEnd":37,"rangeStart":0,"value":0,"valueType":"int"},{"name":"fontWeight","rangeEnd":37,"rangeStart":0,"value":100,"valueType":"int"},{"name":"strikethrough","rangeEnd":37,"rangeStart":0,"value":0,"valueType":"int"},{"name":"underline","rangeEnd":37,"rangeStart":0,"value":0,"valueType":"int"},{"name":"fgColor","rangeEnd":37,"rangeStart":0,"value":"(0,0,0,255)","valueType":"color"}],
                            "duration" : 0
                          }
                        ]
                      }
                    },
                    "attributes" : {
                      "autoRotateText" : true
                    },
                    "parameters" : {
                      "translation0" : 0.438053097438067,
                      "translation1" : -440.654867256108
                    },
                    "effects" : [
                        {
                          "effectName" : "DropShadow",
                          "parameters" : {
                            "angle" : 5.49778714378214,
                            "blur" : 10.0,
                            "color-alpha" : 1.0,
                            "color-blue" : 0.1216,
                            "color-green" : 0.1216,
                            "color-red" : 0.1216,
                            "enabled" : 1,
                            "offset" : 10.0,
                            "opacity" : 0.4
                          }
                        }
                    ],
                    "start" : 5193,
                    "duration" : 86,
                    "mediaStart" : 0,
                    "mediaDuration" : 86,
                    "scalar" : 1,
                    "metadata" : {
                      "WinSubProjectDisplayName" : "",
                      "clipSpeedAttribute" : false,
                      "default-HAlign" : "center",
                      "default-VAlign" : "center",
                      "default-translation0" : 0.0,
                      "default-translation1" : 0.0
                    },
                    "animationTracks" : {

                    }
                  },
                  {
                    "id" : 307,
                    "_type" : "Callout",
                    "def" : {
                      "kind" : "remix",
                      "shape" : "text",
                      "style" : "basic",
                      "height" : 72.2300884965118,
                      "width" : 1866.12389380501,
                      "word-wrap" : 1.0,
                      "horizontal-alignment" : "center",
                      "text" : "Right-click on the sample",
                      "vertical-alignment" : "center",
                      "font" : {
                        "color-blue" : 1.0,
                        "color-green" : 1.0,
                        "color-red" : 1.0,
                        "size" : 96.0,
                        "tracking" : 0.0,
                        "name" : "Montserrat",
                        "weight" : "Regular"
                      },
                      "textAttributes" : {
                        "type" : "textAttributeList",
                        "keyframes" : [
                          {
                            "time" : 0,
                            "value" : [{"name":"fontWeight","rangeEnd":25,"rangeStart":0,"value":100,"valueType":"int"},{"name":"fontItalic","rangeEnd":25,"rangeStart":0,"value":0,"valueType":"int"},{"name":"underline","rangeEnd":25,"rangeStart":0,"value":0,"valueType":"int"},{"name":"fontSize","rangeEnd":25,"rangeStart":0,"value":96,"valueType":"double"},{"name":"fontName","rangeEnd":25,"rangeStart":0,"value":"Montserrat","valueType":"string"},{"name":"strikethrough","rangeEnd":25,"rangeStart":0,"value":0,"valueType":"int"},{"name":"fgColor","rangeEnd":25,"rangeStart":0,"value":"(0,0,0,255)","valueType":"color"}],
                            "duration" : 0
                          }
                        ]
                      }
                    },
                    "attributes" : {
                      "autoRotateText" : true
                    },
                    "parameters" : {
                      "translation0" : 0.438053097438067,
                      "translation1" : -446.154867256108
                    },
                    "effects" : [
                        {
                          "effectName" : "DropShadow",
                          "parameters" : {
                            "angle" : 5.49778714378214,
                            "blur" : 10.0,
                            "color-alpha" : 1.0,
                            "color-blue" : 0.1216,
                            "color-green" : 0.1216,
                            "color-red" : 0.1216,
                            "enabled" : 1,
                            "offset" : 10.0,
                            "opacity" : 0.4
                          }
                        }
                    ],
                    "start" : 5395,
                    "duration" : 48,
                    "mediaStart" : 0,
                    "mediaDuration" : 48,
                    "scalar" : 1,
                    "metadata" : {
                      "WinSubProjectDisplayName" : "",
                      "clipSpeedAttribute" : false,
                      "default-HAlign" : "center",
                      "default-VAlign" : "center",
                      "default-translation0" : 0.0,
                      "default-translation1" : 0.0
                    },
                    "animationTracks" : {

                    }
                  },
                  {
                    "id" : 308,
                    "_type" : "Callout",
                    "def" : {
                      "kind" : "remix",
                      "shape" : "text",
                      "style" : "basic",
                      "height" : 72.2300884965118,
                      "width" : 1866.12389380501,
                      "word-wrap" : 1.0,
                      "horizontal-alignment" : "center",
                      "text" : "Click Export to download the result",
                      "vertical-alignment" : "center",
                      "font" : {
                        "color-blue" : 1.0,
                        "color-green" : 1.0,
                        "color-red" : 1.0,
                        "size" : 96.0,
                        "tracking" : 0.0,
                        "name" : "Montserrat",
                        "weight" : "Regular"
                      },
                      "textAttributes" : {
                        "type" : "textAttributeList",
                        "keyframes" : [
                          {
                            "time" : 0,
                            "value" : [{"name":"fgColor","rangeEnd":35,"rangeStart":0,"value":"(0,0,0,255)","valueType":"color"},{"name":"fontItalic","rangeEnd":35,"rangeStart":0,"value":0,"valueType":"int"},{"name":"underline","rangeEnd":35,"rangeStart":0,"value":0,"valueType":"int"},{"name":"fontName","rangeEnd":35,"rangeStart":0,"value":"Montserrat","valueType":"string"},{"name":"fontWeight","rangeEnd":35,"rangeStart":0,"value":100,"valueType":"int"},{"name":"fontSize","rangeEnd":35,"rangeStart":0,"value":96,"valueType":"double"},{"name":"strikethrough","rangeEnd":35,"rangeStart":0,"value":0,"valueType":"int"}],
                            "duration" : 0
                          }
                        ]
                      }
                    },
                    "attributes" : {
                      "autoRotateText" : true
                    },
                    "parameters" : {
                      "translation0" : 0.438053097438067,
                      "translation1" : -446.154867256108
                    },
                    "effects" : [
                        {
                          "effectName" : "DropShadow",
                          "parameters" : {
                            "angle" : 5.49778714378214,
                            "blur" : 10.0,
                            "color-alpha" : 1.0,
                            "color-blue" : 0.1216,
                            "color-green" : 0.1216,
                            "color-red" : 0.1216,
                            "enabled" : 1,
                            "offset" : 10.0,
                            "opacity" : 0.4
                          }
                        }
                    ],
                    "start" : 5446,
                    "duration" : 74,
                    "mediaStart" : 0,
                    "mediaDuration" : 74,
                    "scalar" : 1,
                    "metadata" : {
                      "WinSubProjectDisplayName" : "",
                      "clipSpeedAttribute" : false,
                      "default-HAlign" : "center",
                      "default-VAlign" : "center",
                      "default-translation0" : 0.0,
                      "default-translation1" : 0.0
                    },
                    "animationTracks" : {

                    }
                  }
                ]
              },
              {
                "trackIndex" : 2,
                "medias" : [
                  {
                    "id" : 309,
                    "_type" : "Callout",
                    "def" : {
                      "kind" : "remix",
                      "shape" : "shape-rectangle",
                      "style" : "basic",
                      "fill-color-blue" : 0.0,
                      "fill-color-green" : 0.0,
                      "fill-color-opacity" : 0.0,
                      "fill-color-red" : 0.0,
                      "height" : 180.0,
                      "stroke-color-blue" : 0.0,
                      "stroke-color-green" : 0.0,
                      "stroke-color-opacity" : 1.0,
                      "stroke-color-red" : 1.0,
                      "stroke-width" : 10.6666666666667,
                      "width" : 234.265486725587,
                      "fill-style" : "solid",
                      "horizontal-alignment" : "center",
                      "stroke-style" : "solid",
                      "vertical-alignment" : "center",
                      "textAttributes" : {
                        "type" : "textAttributeList",
                        "keyframes" : [
                          {
                            "time" : 0,
                            "value" : null,
                            "duration" : 0
                          }
                        ]
                      }
                    },
                    "attributes" : {
                      "autoRotateText" : true
                    },
                    "parameters" : {
                      "translation0" : -779.893805309541,
                      "translation1" : 280.035398230108
                    },
                    "effects" : [
                        {
                          "effectName" : "DropShadow",
                          "parameters" : {
                            "angle" : 5.49778714378214,
                            "blur" : 10.0,
                            "color-alpha" : 1.0,
                            "color-blue" : 0.1216,
                            "color-green" : 0.1216,
                            "color-red" : 0.1216,
                            "enabled" : 1,
                            "offset" : 10.0,
                            "opacity" : 0.4
                          }
                        }
                    ],
                    "start" : 2620,
                    "duration" : 59,
                    "mediaStart" : 0,
                    "mediaDuration" : 59,
                    "scalar" : 1,
                    "metadata" : {
                      "WinSubProjectDisplayName" : "",
                      "clipSpeedAttribute" : false,
                      "default-stroke-color-blue" : 0.0,
                      "default-stroke-color-green" : 0.0,
                      "default-stroke-color-red" : 0.0,
                      "default-stroke-width" : 6.0,
                      "default-translation0" : 0.0,
                      "default-translation1" : 0.0
                    },
                    "animationTracks" : {

                    }
                  },
                  {
                    "id" : 310,
                    "_type" : "Callout",
                    "def" : {
                      "kind" : "remix",
                      "shape" : "shape-rectangle",
                      "style" : "basic",
                      "fill-color-blue" : 0.0,
                      "fill-color-green" : 0.0,
                      "fill-color-opacity" : 0.0,
                      "fill-color-red" : 0.0,
                      "height" : 166.619469026494,
                      "stroke-color-blue" : 0.0,
                      "stroke-color-green" : 0.0,
                      "stroke-color-opacity" : 1.0,
                      "stroke-color-red" : 1.0,
                      "stroke-width" : 15.3333333333334,
                      "width" : 276.318584070789,
                      "fill-style" : "solid",
                      "horizontal-alignment" : "center",
                      "stroke-style" : "solid",
                      "vertical-alignment" : "center",
                      "textAttributes" : {
                        "type" : "textAttributeList",
                        "keyframes" : [
                          {
                            "time" : 0,
                            "value" : null,
                            "duration" : 0
                          }
                        ]
                      }
                    },
                    "attributes" : {
                      "autoRotateText" : true
                    },
                    "parameters" : {
                      "translation0" : -800.920353982288,
                      "translation1" : 259.964601769901
                    },
                    "effects" : [
                        {
                          "effectName" : "DropShadow",
                          "parameters" : {
                            "angle" : 5.49778714378214,
                            "blur" : 10.0,
                            "color-alpha" : 1.0,
                            "color-blue" : 0.1216,
                            "color-green" : 0.1216,
                            "color-red" : 0.1216,
                            "enabled" : 1,
                            "offset" : 10.0,
                            "opacity" : 0.4
                          }
                        }
                    ],
                    "start" : 2709,
                    "duration" : 69,
                    "mediaStart" : 15,
                    "mediaDuration" : 69,
                    "scalar" : 1,
                    "metadata" : {
                      "WinSubProjectDisplayName" : "",
                      "clipSpeedAttribute" : false,
                      "default-stroke-color-blue" : 0.0,
                      "default-stroke-color-green" : 0.0,
                      "default-stroke-color-red" : 0.0,
                      "default-stroke-width" : 6.0,
                      "default-translation0" : 0.0,
                      "default-translation1" : 0.0
                    },
                    "animationTracks" : {

                    }
                  },
                  {
                    "id" : 311,
                    "_type" : "Callout",
                    "def" : {
                      "kind" : "remix",
                      "shape" : "shape-rectangle",
                      "style" : "basic",
                      "fill-color-blue" : 0.0,
                      "fill-color-green" : 0.0,
                      "fill-color-opacity" : 0.0,
                      "fill-color-red" : 0.0,
                      "height" : 50.0176991150445,
                      "stroke-color-blue" : 0.0,
                      "stroke-color-green" : 0.0,
                      "stroke-color-opacity" : 1.0,
                      "stroke-color-red" : 1.0,
                      "stroke-width" : 10.5000000000001,
                      "width" : 240.0,
                      "fill-style" : "solid",
                      "horizontal-alignment" : "center",
                      "stroke-style" : "solid",
                      "vertical-alignment" : "center",
                      "textAttributes" : {
                        "type" : "textAttributeList",
                        "keyframes" : [
                          {
                            "time" : 0,
                            "value" : null,
                            "duration" : 0
                          }
                        ]
                      }
                    },
                    "attributes" : {
                      "autoRotateText" : true
                    },
                    "parameters" : {
                      "translation0" : -784.672566371627,
                      "translation1" : 255.185840707961
                    },
                    "effects" : [
                        {
                          "effectName" : "DropShadow",
                          "parameters" : {
                            "angle" : 5.49778714378214,
                            "blur" : 10.0,
                            "color-alpha" : 1.0,
                            "color-blue" : 0.1216,
                            "color-green" : 0.1216,
                            "color-red" : 0.1216,
                            "enabled" : 1,
                            "offset" : 10.0,
                            "opacity" : 0.4
                          }
                        }
                    ],
                    "start" : 2872,
                    "duration" : 123,
                    "mediaStart" : 0,
                    "mediaDuration" : 123,
                    "scalar" : 1,
                    "metadata" : {
                      "WinSubProjectDisplayName" : "",
                      "clipSpeedAttribute" : false,
                      "default-stroke-color-blue" : 0.0,
                      "default-stroke-color-green" : 0.0,
                      "default-stroke-color-red" : 0.0,
                      "default-stroke-width" : 6.0,
                      "default-translation0" : 0.0,
                      "default-translation1" : 0.0
                    },
                    "animationTracks" : {

                    }
                  },
                  {
                    "id" : 312,
                    "_type" : "Callout",
                    "def" : {
                      "kind" : "remix",
                      "shape" : "shape-rectangle",
                      "style" : "urban",
                      "fill-color-blue" : 0.0,
                      "fill-color-green" : 0.0,
                      "fill-color-opacity" : 0.0,
                      "fill-color-red" : 0.0,
                      "height" : 143.681415929186,
                      "stroke-color-blue" : 0.258823529411765,
                      "stroke-color-green" : 0.258823529411765,
                      "stroke-color-opacity" : 1.0,
                      "stroke-color-red" : 0.988235294117647,
                      "stroke-width" : 8.33333333333356,
                      "width" : 240.0,
                      "fill-style" : "solid",
                      "horizontal-alignment" : "center",
                      "stroke-style" : "solid",
                      "vertical-alignment" : "center",
                      "textAttributes" : {
                        "type" : "textAttributeList",
                        "keyframes" : [
                          {
                            "time" : 0,
                            "value" : null,
                            "duration" : 0
                          }
                        ]
                      }
                    },
                    "attributes" : {
                      "autoRotateText" : true
                    },
                    "parameters" : {
                      "translation0" : -780.84955752217,
                      "translation1" : 111.159292035485
                    },
                    "effects" : [
                        {
                          "effectName" : "DropShadow",
                          "parameters" : {
                            "angle" : 5.49778714378214,
                            "blur" : 10.0,
                            "color-alpha" : 1.0,
                            "color-blue" : 0.1216,
                            "color-green" : 0.1216,
                            "color-red" : 0.1216,
                            "enabled" : 1,
                            "offset" : 10.0,
                            "opacity" : 0.4
                          }
                        }
                    ],
                    "start" : 3016,
                    "duration" : 168,
                    "mediaStart" : 0,
                    "mediaDuration" : 168,
                    "scalar" : 1,
                    "metadata" : {
                      "WinSubProjectDisplayName" : "",
                      "clipSpeedAttribute" : false,
                      "default-stroke-color-blue" : 0.286274509803922,
                      "default-stroke-color-green" : 0.211764705882353,
                      "default-stroke-color-red" : 0.172549019607843,
                      "default-stroke-width" : 6.0,
                      "default-translation0" : 0.0,
                      "default-translation1" : 0.0
                    },
                    "animationTracks" : {

                    }
                  },
                  {
                    "id" : 313,
                    "_type" : "Callout",
                    "def" : {
                      "kind" : "TypeWinBlur",
                      "shape" : "",
                      "style" : "",
                      "blur-invert" : 0.0,
                      "height" : 270.0,
                      "intensity" : 1.0,
                      "width" : 480.0,
                      "filename" : "C:\\Program Files\\TechSmith\\Camtasia 9\\Media\\Studio\\Callouts\\blur_100x100.xml",
                      "horizontal-alignment" : "center",
                      "name" : "模糊",
                      "vertical-alignment" : "center",
                      "xmlContent" : "﻿<?xml version=\"1.0\"?>\n\n<Overlay version=\"1.0.1\">\n\n<Overlay_Filename>blur_100x100.png</Overlay_Filename>\n<Overlay_Name>模糊</Overlay_Name>\n<Text_Top>0</Text_Top>\n<Text_Left>0</Text_Left>\n<Text_Bottom>0</Text_Bottom>\n<Text_Right>0</Text_Right>\n<Fill_Color>0</Fill_Color>\n<Border_Color>0</Border_Color>\n</Overlay>",
                      "textAttributes" : {
                        "type" : "textAttributeList",
                        "keyframes" : [
                          {
                            "time" : 0,
                            "value" : null,
                            "duration" : 0
                          }
                        ]
                      }
                    },
                    "attributes" : {
                      "autoRotateText" : true
                    },
                    "parameters" : {
                      "translation0" : 164.389380530987,
                      "translation1" : 16.6415929209214,
                      "scale0" : 1.98362831858369,
                      "scale1" : 2.96522451654835
                    },
                    "effects" : [

                    ],
                    "start" : 3205,
                    "duration" : 87,
                    "mediaStart" : 16,
                    "mediaDuration" : 87,
                    "scalar" : 1,
                    "metadata" : {
                      "WinSubProjectDisplayName" : "",
                      "clipSpeedAttribute" : false,
                      "default-scale0" : 1.0,
                      "default-scale1" : 1.0,
                      "default-translation0" : 0.0,
                      "default-translation1" : 0.0
                    },
                    "animationTracks" : {

                    }
                  },
                  {
                    "id" : 314,
                    "_type" : "Callout",
                    "def" : {
                      "kind" : "remix",
                      "shape" : "shape-rectangle",
                      "style" : "abstract",
                      "fill-color-blue" : 0.0,
                      "fill-color-green" : 0.0,
                      "fill-color-opacity" : 0.0,
                      "fill-color-red" : 0.0,
                      "height" : 1029.37168141565,
                      "stroke-color-blue" : 0.996078431372549,
                      "stroke-color-green" : 0.0,
                      "stroke-color-opacity" : 1.0,
                      "stroke-color-red" : 0.0,
                      "stroke-width" : 13.1666666666666,
                      "width" : 1618.91150442483,
                      "fill-style" : "solid",
                      "horizontal-alignment" : "center",
                      "stroke-style" : "solid",
                      "vertical-alignment" : "center",
                      "textAttributes" : {
                        "type" : "textAttributeList",
                        "keyframes" : [
                          {
                            "time" : 0,
                            "value" : null,
                            "duration" : 0
                          }
                        ]
                      }
                    },
                    "attributes" : {
                      "autoRotateText" : true
                    },
                    "parameters" : {
                      "translation0" : 147.544247787547,
                      "translation1" : -22.3141592918859
                    },
                    "effects" : [
                        {
                          "effectName" : "DropShadow",
                          "parameters" : {
                            "angle" : 5.49778714378214,
                            "blur" : 10.0,
                            "color-alpha" : 1.0,
                            "color-blue" : 0.1216,
                            "color-green" : 0.1216,
                            "color-red" : 0.1216,
                            "enabled" : 1,
                            "offset" : 10.0,
                            "opacity" : 0.4
                          }
                        }
                    ],
                    "start" : 3292,
                    "duration" : 48,
                    "mediaStart" : 0,
                    "mediaDuration" : 48,
                    "scalar" : 1,
                    "metadata" : {
                      "WinSubProjectDisplayName" : "",
                      "clipSpeedAttribute" : false,
                      "default-stroke-color-blue" : 1.0,
                      "default-stroke-color-green" : 1.0,
                      "default-stroke-color-red" : 1.0,
                      "default-stroke-width" : 6.0,
                      "default-translation0" : 0.0,
                      "default-translation1" : 0.0
                    },
                    "animationTracks" : {

                    }
                  },
                  {
                    "id" : 315,
                    "_type" : "Callout",
                    "def" : {
                      "kind" : "remix",
                      "shape" : "shape-ellipse",
                      "style" : "urban",
                      "fill-color-blue" : 0.0,
                      "fill-color-green" : 0.0,
                      "fill-color-opacity" : 0.0,
                      "fill-color-red" : 0.0,
                      "height" : 180.0,
                      "stroke-color-blue" : 0.964705882352941,
                      "stroke-color-green" : 0.172549019607843,
                      "stroke-color-opacity" : 1.0,
                      "stroke-color-red" : 0.0431372549019608,
                      "stroke-width" : 11.1666666666667,
                      "width" : 240.0,
                      "fill-style" : "solid",
                      "horizontal-alignment" : "center",
                      "stroke-style" : "solid",
                      "vertical-alignment" : "center",
                      "textAttributes" : {
                        "type" : "textAttributeList",
                        "keyframes" : [
                          {
                            "time" : 0,
                            "value" : null,
                            "duration" : 0
                          }
                        ]
                      }
                    },
                    "attributes" : {
                      "autoRotateText" : true
                    },
                    "parameters" : {
                      "translation0" : -174.902654867399,
                      "translation1" : -218.867256637003
                    },
                    "effects" : [
                        {
                          "effectName" : "DropShadow",
                          "parameters" : {
                            "angle" : 5.49778714378214,
                            "blur" : 10.0,
                            "color-alpha" : 1.0,
                            "color-blue" : 0.1216,
                            "color-green" : 0.1216,
                            "color-red" : 0.1216,
                            "enabled" : 1,
                            "offset" : 10.0,
                            "opacity" : 0.4
                          }
                        }
                    ],
                    "start" : 3530,
                    "duration" : 13,
                    "mediaStart" : 0,
                    "mediaDuration" : 13,
                    "scalar" : 1,
                    "metadata" : {
                      "WinSubProjectDisplayName" : "",
                      "clipSpeedAttribute" : false,
                      "default-callout-shape" : "shape-rectangle",
                      "default-stroke-color-blue" : 1.0,
                      "default-stroke-color-green" : 1.0,
                      "default-stroke-color-red" : 1.0,
                      "default-stroke-width" : 6.0,
                      "default-translation0" : 0.0,
                      "default-translation1" : 0.0
                    },
                    "animationTracks" : {

                    }
                  },
                  {
                    "id" : 316,
                    "_type" : "Callout",
                    "def" : {
                      "kind" : "remix",
                      "shape" : "shape-ellipse",
                      "style" : "urban",
                      "fill-color-blue" : {
                        "type" : "double",
                        "defaultValue" : 0.0,
                        "interp" : "linr"
                      },
                      "fill-color-green" : {
                        "type" : "double",
                        "defaultValue" : 0.0,
                        "interp" : "linr"
                      },
                      "fill-color-opacity" : {
                        "type" : "double",
                        "defaultValue" : 0.0,
                        "interp" : "linr"
                      },
                      "fill-color-red" : {
                        "type" : "double",
                        "defaultValue" : 0.0,
                        "interp" : "linr"
                      },
                      "height" : {
                        "type" : "double",
                        "defaultValue" : 180.0,
                        "interp" : "linr"
                      },
                      "stroke-color-blue" : {
                        "type" : "double",
                        "defaultValue" : 0.964705882352941,
                        "interp" : "linr"
                      },
                      "stroke-color-green" : {
                        "type" : "double",
                        "defaultValue" : 0.172549019607843,
                        "interp" : "linr"
                      },
                      "stroke-color-opacity" : {
                        "type" : "double",
                        "defaultValue" : 1.0,
                        "interp" : "linr"
                      },
                      "stroke-color-red" : {
                        "type" : "double",
                        "defaultValue" : 0.0431372549019608,
                        "interp" : "linr"
                      },
                      "stroke-width" : {
                        "type" : "double",
                        "defaultValue" : 11.1666666666667,
                        "interp" : "linr"
                      },
                      "width" : {
                        "type" : "double",
                        "defaultValue" : 240.0,
                        "interp" : "linr"
                      },
                      "fill-style" : "solid",
                      "horizontal-alignment" : "center",
                      "stroke-style" : "solid",
                      "vertical-alignment" : "center",
                      "textAttributes" : {
                        "type" : "textAttributeList",
                        "keyframes" : [
                          {
                            "time" : 0,
                            "value" : null,
                            "duration" : 0
                          }
                        ]
                      }
                    },
                    "attributes" : {
                      "autoRotateText" : true
                    },
                    "parameters" : {
                      "translation0" : {
                        "type" : "double",
                        "defaultValue" : -174.902654867399,
                        "interp" : "eioe"
                      },
                      "translation1" : {
                        "type" : "double",
                        "defaultValue" : -218.867256637003,
                        "interp" : "eioe"
                      }
                    },
                    "effects" : [
                        {
                          "effectName" : "DropShadow",
                          "parameters" : {
                            "angle" : {
                              "type" : "double",
                              "defaultValue" : 5.49778714378214,
                              "interp" : "linr",
                              "uiHints" : {
                                "userInterfaceType" : 0,
                                "unitType" : 0
                              }
                            },
                            "blur" : {
                              "type" : "double",
                              "defaultValue" : 10.0,
                              "interp" : "linr",
                              "uiHints" : {
                                "userInterfaceType" : 0,
                                "unitType" : 0
                              }
                            },
                            "color-alpha" : {
                              "type" : "double",
                              "defaultValue" : 1.0,
                              "interp" : "linr",
                              "uiHints" : {
                                "userInterfaceType" : 0,
                                "unitType" : 0
                              }
                            },
                            "color-blue" : {
                              "type" : "double",
                              "defaultValue" : 0.1216,
                              "interp" : "linr",
                              "uiHints" : {
                                "userInterfaceType" : 0,
                                "unitType" : 0
                              }
                            },
                            "color-green" : {
                              "type" : "double",
                              "defaultValue" : 0.1216,
                              "interp" : "linr",
                              "uiHints" : {
                                "userInterfaceType" : 0,
                                "unitType" : 0
                              }
                            },
                            "color-red" : {
                              "type" : "double",
                              "defaultValue" : 0.1216,
                              "interp" : "linr",
                              "uiHints" : {
                                "userInterfaceType" : 0,
                                "unitType" : 0
                              }
                            },
                            "enabled" : 1,
                            "offset" : {
                              "type" : "double",
                              "defaultValue" : 10.0,
                              "interp" : "linr",
                              "uiHints" : {
                                "userInterfaceType" : 0,
                                "unitType" : 0
                              }
                            },
                            "opacity" : {
                              "type" : "double",
                              "defaultValue" : 0.4,
                              "interp" : "linr",
                              "uiHints" : {
                                "userInterfaceType" : 0,
                                "unitType" : 0
                              }
                            }
                          }
                        }
                    ],
                    "start" : 3550,
                    "duration" : 32,
                    "mediaStart" : -9,
                    "mediaDuration" : 32,
                    "scalar" : 1,
                    "metadata" : {
                      "WinSubProjectDisplayName" : "",
                      "clipSpeedAttribute" : false,
                      "default-callout-shape" : "shape-rectangle",
                      "default-stroke-color-blue" : 1.0,
                      "default-stroke-color-green" : 1.0,
                      "default-stroke-color-red" : 1.0,
                      "default-stroke-width" : 6.0,
                      "default-translation0" : 0.0,
                      "default-translation1" : 0.0
                    },
                    "animationTracks" : {

                    }
                  },
                  {
                    "id" : 317,
                    "_type" : "Callout",
                    "def" : {
                      "kind" : "remix",
                      "shape" : "text-rectangle",
                      "style" : "bold",
                      "fill-color-blue" : 0.886274509803922,
                      "fill-color-green" : 0.352941176470588,
                      "fill-color-opacity" : 1.0,
                      "fill-color-red" : 0.117647058823529,
                      "height" : 119.716814159314,
                      "stroke-color-blue" : 1.0,
                      "stroke-color-green" : 1.0,
                      "stroke-color-opacity" : 1.0,
                      "stroke-color-red" : 1.0,
                      "stroke-width" : 0.0,
                      "tail-x" : -22.9380530973418,
                      "tail-y" : 20.1415929203431,
                      "width" : 254.123893805316,
                      "word-wrap" : 1.0,
                      "fill-style" : "solid",
                      "horizontal-alignment" : "center",
                      "stroke-style" : "solid",
                      "text" : "origin",
                      "vertical-alignment" : "center",
                      "font" : {
                        "color-blue" : 1.0,
                        "color-green" : 1.0,
                        "color-red" : 1.0,
                        "size" : 70.0,
                        "tracking" : 0.0,
                        "name" : "Source Sans Pro",
                        "weight" : "Semi Bold"
                      },
                      "textAttributes" : {
                        "type" : "textAttributeList",
                        "keyframes" : [
                          {
                            "time" : 0,
                            "value" : [{"name":"fontName","rangeEnd":6,"rangeStart":0,"value":"Source Sans Pro","valueType":"string"},{"name":"fgColor","rangeEnd":6,"rangeStart":0,"value":"(255,255,255,255)","valueType":"color"},{"name":"fontSize","rangeEnd":6,"rangeStart":0,"value":70,"valueType":"double"},{"name":"fontItalic","rangeEnd":6,"rangeStart":0,"value":0,"valueType":"int"},{"name":"strikethrough","rangeEnd":6,"rangeStart":0,"value":0,"valueType":"int"},{"name":"fontWeight","rangeEnd":6,"rangeStart":0,"value":100,"valueType":"int"},{"name":"underline","rangeEnd":6,"rangeStart":0,"value":0,"valueType":"int"}],
                            "duration" : 0
                          }
                        ]
                      }
                    },
                    "attributes" : {
                      "autoRotateText" : true
                    },
                    "parameters" : {
                      "translation0" : -126.62389380543,
                      "translation1" : 60.0000000000604
                    },
                    "effects" : [
                        {
                          "effectName" : "DropShadow",
                          "parameters" : {
                            "angle" : 5.49778714378214,
                            "blur" : 10.0,
                            "color-alpha" : 1.0,
                            "color-blue" : 0.1216,
                            "color-green" : 0.1216,
                            "color-red" : 0.1216,
                            "enabled" : 1,
                            "offset" : 10.0,
                            "opacity" : 0.4
                          }
                        }
                    ],
                    "start" : 5027,
                    "duration" : 271,
                    "mediaStart" : 0,
                    "mediaDuration" : 271,
                    "scalar" : 1,
                    "metadata" : {
                      "WinSubProjectDisplayName" : "",
                      "clipSpeedAttribute" : false,
                      "default-HAlign" : "center",
                      "default-VAlign" : "center",
                      "default-translation0" : 0.0,
                      "default-translation1" : 0.0
                    },
                    "animationTracks" : {

                    }
                  }
                ]
              },
              {
                "trackIndex" : 3,
                "medias" : [
                  {
                    "id" : 318,
                    "_type" : "Callout",
                    "def" : {
                      "kind" : "remix",
                      "shape" : "arrow",
                      "style" : "abstract",
                      "stroke-color-blue" : 0.258823529411765,
                      "stroke-color-green" : 0.258823529411765,
                      "stroke-color-opacity" : 1.0,
                      "stroke-color-red" : 0.988235294117647,
                      "stroke-width" : 8.0,
                      "tail-x" : {
                        "type" : "double",
                        "defaultValue" : 3.65218966180691e-12,
                        "interp" : "eioe"
                      },
                      "tail-y" : {
                        "type" : "double",
                        "defaultValue" : 76.4601769911874,
                        "interp" : "eioe"
                      },
                      "horizontal-alignment" : "center",
                      "shape-anchor" : "none",
                      "shape-tail" : "arrow",
                      "stroke-style" : "solid",
                      "vertical-alignment" : "center",
                      "textAttributes" : {
                        "type" : "textAttributeList",
                        "keyframes" : [
                          {
                            "time" : 0,
                            "value" : null,
                            "duration" : 0
                          }
                        ]
                      }
                    },
                    "attributes" : {
                      "autoRotateText" : true
                    },
                    "parameters" : {
                      "translation0" : -819.07964601777,
                      "translation1" : 148.466813619155
                    },
                    "effects" : [
                        {
                          "effectName" : "DropShadow",
                          "parameters" : {
                            "angle" : 5.49778714378214,
                            "blur" : 10.0,
                            "color-alpha" : 1.0,
                            "color-blue" : 0.1216,
                            "color-green" : 0.1216,
                            "color-red" : 0.1216,
                            "enabled" : 1,
                            "offset" : 10.0,
                            "opacity" : 0.4
                          }
                        }
                    ],
                    "start" : 2872,
                    "duration" : 123,
                    "mediaStart" : 0,
                    "mediaDuration" : 123,
                    "scalar" : 1,
                    "metadata" : {
                      "WinSubProjectDisplayName" : "",
                      "clipSpeedAttribute" : false,
                      "default-stroke-color-blue" : 0.00784313725490196,
                      "default-stroke-color-green" : 0.270588235294118,
                      "default-stroke-color-red" : 0.658823529411765,
                      "default-translation0" : 0.0,
                      "default-translation1" : 0.0
                    },
                    "animationTracks" : {

                    }
                  },
                  {
                    "id" : 319,
                    "_type" : "Callout",
                    "def" : {
                      "kind" : "remix",
                      "shape" : "arrow",
                      "style" : "abstract",
                      "stroke-color-blue" : 0.658823529411765,
                      "stroke-color-green" : 0.00784313725490196,
                      "stroke-color-opacity" : 1.0,
                      "stroke-color-red" : 0.0235294117647059,
                      "stroke-width" : 19.1666666666667,
                      "tail-x" : {
                        "type" : "double",
                        "defaultValue" : 488.035398230067,
                        "interp" : "eioe"
                      },
                      "tail-y" : {
                        "type" : "double",
                        "defaultValue" : 215.999999999953,
                        "interp" : "eioe"
                      },
                      "horizontal-alignment" : "center",
                      "shape-anchor" : "none",
                      "shape-tail" : "arrow",
                      "stroke-style" : "solid",
                      "vertical-alignment" : "center",
                      "textAttributes" : {
                        "type" : "textAttributeList",
                        "keyframes" : [
                          {
                            "time" : 0,
                            "value" : null,
                            "duration" : 0
                          }
                        ]
                      }
                    },
                    "attributes" : {
                      "autoRotateText" : true
                    },
                    "parameters" : {
                      "translation0" : 299.349557522075,
                      "translation1" : -151.964601769741
                    },
                    "effects" : [
                        {
                          "effectName" : "DropShadow",
                          "parameters" : {
                            "angle" : 5.49778714378214,
                            "blur" : 10.0,
                            "color-alpha" : 1.0,
                            "color-blue" : 0.1216,
                            "color-green" : 0.1216,
                            "color-red" : 0.1216,
                            "enabled" : 1,
                            "offset" : 10.0,
                            "opacity" : 0.4
                          }
                        }
                    ],
                    "start" : 3205,
                    "duration" : 24,
                    "mediaStart" : 0,
                    "mediaDuration" : 24,
                    "scalar" : 1,
                    "metadata" : {
                      "WinSubProjectDisplayName" : "",
                      "clipSpeedAttribute" : false,
                      "default-stroke-color-blue" : 0.00784313725490196,
                      "default-stroke-color-green" : 0.270588235294118,
                      "default-stroke-color-red" : 0.658823529411765,
                      "default-stroke-width" : 8.0,
                      "default-translation0" : 0.0,
                      "default-translation1" : 0.0
                    },
                    "animationTracks" : {

                    }
                  },
                  {
                    "id" : 320,
                    "_type" : "Callout",
                    "def" : {
                      "kind" : "remix",
                      "shape" : "arrow",
                      "style" : "abstract",
                      "stroke-color-blue" : 0.658823529411765,
                      "stroke-color-green" : 0.00784313725490196,
                      "stroke-color-opacity" : 1.0,
                      "stroke-color-red" : 0.0235294117647059,
                      "stroke-width" : 19.1666666666667,
                      "tail-x" : {
                        "type" : "double",
                        "defaultValue" : 488.035398230067,
                        "interp" : "eioe"
                      },
                      "tail-y" : {
                        "type" : "double",
                        "defaultValue" : 215.999999999953,
                        "interp" : "eioe"
                      },
                      "horizontal-alignment" : "center",
                      "shape-anchor" : "none",
                      "shape-tail" : "arrow",
                      "stroke-style" : "solid",
                      "vertical-alignment" : "center",
                      "textAttributes" : {
                        "type" : "textAttributeList",
                        "keyframes" : [
                          {
                            "time" : 0,
                            "value" : null,
                            "duration" : 0
                          }
                        ]
                      }
                    },
                    "attributes" : {
                      "autoRotateText" : true
                    },
                    "parameters" : {
                      "translation0" : 299.349557522075,
                      "translation1" : -151.964601769741
                    },
                    "effects" : [
                        {
                          "effectName" : "DropShadow",
                          "parameters" : {
                            "angle" : 5.49778714378214,
                            "blur" : 10.0,
                            "color-alpha" : 1.0,
                            "color-blue" : 0.1216,
                            "color-green" : 0.1216,
                            "color-red" : 0.1216,
                            "enabled" : 1,
                            "offset" : 10.0,
                            "opacity" : 0.4
                          }
                        }
                    ],
                    "start" : 3244,
                    "duration" : 23,
                    "mediaStart" : 0,
                    "mediaDuration" : 23,
                    "scalar" : 1,
                    "metadata" : {
                      "WinSubProjectDisplayName" : "",
                      "clipSpeedAttribute" : false,
                      "default-stroke-color-blue" : 0.00784313725490196,
                      "default-stroke-color-green" : 0.270588235294118,
                      "default-stroke-color-red" : 0.658823529411765,
                      "default-stroke-width" : 8.0,
                      "default-translation0" : 0.0,
                      "default-translation1" : 0.0
                    },
                    "animationTracks" : {

                    }
                  },
                  {
                    "id" : 321,
                    "_type" : "Callout",
                    "def" : {
                      "kind" : "remix",
                      "shape" : "shape-rectangle",
                      "style" : "urban",
                      "fill-color-blue" : 0.0,
                      "fill-color-green" : 0.0,
                      "fill-color-opacity" : 0.0,
                      "fill-color-red" : 1.0,
                      "height" : 59.575221238954,
                      "stroke-color-blue" : 0.0,
                      "stroke-color-green" : 0.0,
                      "stroke-color-opacity" : 1.0,
                      "stroke-color-red" : 1.0,
                      "stroke-width" : 8.50000000000004,
                      "width" : 134.867256637247,
                      "fill-style" : "solid",
                      "horizontal-alignment" : "center",
                      "stroke-style" : "solid",
                      "vertical-alignment" : "center",
                      "textAttributes" : {
                        "type" : "textAttributeList",
                        "keyframes" : [
                          {
                            "time" : 0,
                            "value" : null,
                            "duration" : 0
                          }
                        ]
                      }
                    },
                    "attributes" : {
                      "autoRotateText" : true
                    },
                    "parameters" : {
                      "translation0" : -842.973451327403,
                      "translation1" : 254.23008849558
                    },
                    "effects" : [
                        {
                          "effectName" : "DropShadow",
                          "parameters" : {
                            "angle" : 5.49778714378214,
                            "blur" : 10.0,
                            "color-alpha" : 1.0,
                            "color-blue" : 0.1216,
                            "color-green" : 0.1216,
                            "color-red" : 0.1216,
                            "enabled" : 1,
                            "offset" : 10.0,
                            "opacity" : 0.4
                          }
                        }
                    ],
                    "start" : 3301,
                    "duration" : 113,
                    "mediaStart" : 0,
                    "mediaDuration" : 113,
                    "scalar" : 1,
                    "metadata" : {
                      "WinSubProjectDisplayName" : "",
                      "clipSpeedAttribute" : false,
                      "default-fill-color-blue" : 0.0,
                      "default-fill-color-green" : 0.0,
                      "default-fill-color-red" : 0.0,
                      "default-stroke-color-blue" : 1.0,
                      "default-stroke-color-green" : 1.0,
                      "default-stroke-color-red" : 1.0,
                      "default-stroke-width" : 6.0,
                      "default-translation0" : 0.0,
                      "default-translation1" : 0.0
                    },
                    "animationTracks" : {

                    }
                  },
                  {
                    "id" : 322,
                    "_type" : "Callout",
                    "def" : {
                      "kind" : "remix",
                      "shape" : "shape-ellipse",
                      "style" : "urban",
                      "fill-color-blue" : 0.0,
                      "fill-color-green" : 0.0,
                      "fill-color-opacity" : 0.0,
                      "fill-color-red" : 0.0,
                      "height" : 122.654867256975,
                      "stroke-color-blue" : 0.964705882352941,
                      "stroke-color-green" : 0.172549019607843,
                      "stroke-color-opacity" : 1.0,
                      "stroke-color-red" : 0.0431372549019608,
                      "stroke-width" : 11.1666666666667,
                      "width" : 213.238938052997,
                      "fill-style" : "solid",
                      "horizontal-alignment" : "center",
                      "stroke-style" : "solid",
                      "vertical-alignment" : "center",
                      "textAttributes" : {
                        "type" : "textAttributeList",
                        "keyframes" : [
                          {
                            "time" : 0,
                            "value" : null,
                            "duration" : 0
                          }
                        ]
                      }
                    },
                    "attributes" : {
                      "autoRotateText" : true
                    },
                    "parameters" : {
                      "translation0" : 167.256637167947,
                      "translation1" : -366.061211982199
                    },
                    "effects" : [
                        {
                          "effectName" : "DropShadow",
                          "parameters" : {
                            "angle" : 5.49778714378214,
                            "blur" : 10.0,
                            "color-alpha" : 1.0,
                            "color-blue" : 0.1216,
                            "color-green" : 0.1216,
                            "color-red" : 0.1216,
                            "enabled" : 1,
                            "offset" : 10.0,
                            "opacity" : 0.4
                          }
                        }
                    ],
                    "start" : 3530,
                    "duration" : 13,
                    "mediaStart" : 0,
                    "mediaDuration" : 13,
                    "scalar" : 1,
                    "metadata" : {
                      "WinSubProjectDisplayName" : "",
                      "clipSpeedAttribute" : false,
                      "default-callout-shape" : "shape-rectangle",
                      "default-stroke-color-blue" : 1.0,
                      "default-stroke-color-green" : 1.0,
                      "default-stroke-color-red" : 1.0,
                      "default-stroke-width" : 6.0,
                      "default-translation0" : 0.0,
                      "default-translation1" : 0.0
                    },
                    "animationTracks" : {

                    }
                  },
                  {
                    "id" : 323,
                    "_type" : "Callout",
                    "def" : {
                      "kind" : "remix",
                      "shape" : "shape-ellipse",
                      "style" : "urban",
                      "fill-color-blue" : {
                        "type" : "double",
                        "defaultValue" : 0.0,
                        "interp" : "linr"
                      },
                      "fill-color-green" : {
                        "type" : "double",
                        "defaultValue" : 0.0,
                        "interp" : "linr"
                      },
                      "fill-color-opacity" : {
                        "type" : "double",
                        "defaultValue" : 0.0,
                        "interp" : "linr"
                      },
                      "fill-color-red" : {
                        "type" : "double",
                        "defaultValue" : 0.0,
                        "interp" : "linr"
                      },
                      "height" : {
                        "type" : "double",
                        "defaultValue" : 122.654867256975,
                        "interp" : "linr"
                      },
                      "stroke-color-blue" : {
                        "type" : "double",
                        "defaultValue" : 0.964705882352941,
                        "interp" : "linr"
                      },
                      "stroke-color-green" : {
                        "type" : "double",
                        "defaultValue" : 0.172549019607843,
                        "interp" : "linr"
                      },
                      "stroke-color-opacity" : {
                        "type" : "double",
                        "defaultValue" : 1.0,
                        "interp" : "linr"
                      },
                      "stroke-color-red" : {
                        "type" : "double",
                        "defaultValue" : 0.0431372549019608,
                        "interp" : "linr"
                      },
                      "stroke-width" : {
                        "type" : "double",
                        "defaultValue" : 11.1666666666667,
                        "interp" : "linr"
                      },
                      "width" : {
                        "type" : "double",
                        "defaultValue" : 213.238938052997,
                        "interp" : "linr"
                      },
                      "fill-style" : "solid",
                      "horizontal-alignment" : "center",
                      "stroke-style" : "solid",
                      "vertical-alignment" : "center",
                      "textAttributes" : {
                        "type" : "textAttributeList",
                        "keyframes" : [
                          {
                            "time" : 0,
                            "value" : null,
                            "duration" : 0
                          }
                        ]
                      }
                    },
                    "attributes" : {
                      "autoRotateText" : true
                    },
                    "parameters" : {
                      "translation0" : {
                        "type" : "double",
                        "defaultValue" : 167.256637167947,
                        "interp" : "eioe"
                      },
                      "translation1" : {
                        "type" : "double",
                        "defaultValue" : -366.061211982199,
                        "interp" : "eioe"
                      }
                    },
                    "effects" : [
                        {
                          "effectName" : "DropShadow",
                          "parameters" : {
                            "angle" : {
                              "type" : "double",
                              "defaultValue" : 5.49778714378214,
                              "interp" : "linr",
                              "uiHints" : {
                                "userInterfaceType" : 0,
                                "unitType" : 0
                              }
                            },
                            "blur" : {
                              "type" : "double",
                              "defaultValue" : 10.0,
                              "interp" : "linr",
                              "uiHints" : {
                                "userInterfaceType" : 0,
                                "unitType" : 0
                              }
                            },
                            "color-alpha" : {
                              "type" : "double",
                              "defaultValue" : 1.0,
                              "interp" : "linr",
                              "uiHints" : {
                                "userInterfaceType" : 0,
                                "unitType" : 0
                              }
                            },
                            "color-blue" : {
                              "type" : "double",
                              "defaultValue" : 0.1216,
                              "interp" : "linr",
                              "uiHints" : {
                                "userInterfaceType" : 0,
                                "unitType" : 0
                              }
                            },
                            "color-green" : {
                              "type" : "double",
                              "defaultValue" : 0.1216,
                              "interp" : "linr",
                              "uiHints" : {
                                "userInterfaceType" : 0,
                                "unitType" : 0
                              }
                            },
                            "color-red" : {
                              "type" : "double",
                              "defaultValue" : 0.1216,
                              "interp" : "linr",
                              "uiHints" : {
                                "userInterfaceType" : 0,
                                "unitType" : 0
                              }
                            },
                            "enabled" : 1,
                            "offset" : {
                              "type" : "double",
                              "defaultValue" : 10.0,
                              "interp" : "linr",
                              "uiHints" : {
                                "userInterfaceType" : 0,
                                "unitType" : 0
                              }
                            },
                            "opacity" : {
                              "type" : "double",
                              "defaultValue" : 0.4,
                              "interp" : "linr",
                              "uiHints" : {
                                "userInterfaceType" : 0,
                                "unitType" : 0
                              }
                            }
                          }
                        }
                    ],
                    "start" : 3550,
                    "duration" : 32,
                    "mediaStart" : -9,
                    "mediaDuration" : 32,
                    "scalar" : 1,
                    "metadata" : {
                      "WinSubProjectDisplayName" : "",
                      "clipSpeedAttribute" : false,
                      "default-callout-shape" : "shape-rectangle",
                      "default-stroke-color-blue" : 1.0,
                      "default-stroke-color-green" : 1.0,
                      "default-stroke-color-red" : 1.0,
                      "default-stroke-width" : 6.0,
                      "default-translation0" : 0.0,
                      "default-translation1" : 0.0
                    },
                    "animationTracks" : {

                    }
                  },
                  {
                    "id" : 324,
                    "_type" : "Callout",
                    "def" : {
                      "kind" : "remix",
                      "shape" : "text-rectangle",
                      "style" : "bold",
                      "fill-color-blue" : 0.886274509803922,
                      "fill-color-green" : 0.352941176470588,
                      "fill-color-opacity" : 1.0,
                      "fill-color-red" : 0.117647058823529,
                      "height" : 119.716814159314,
                      "stroke-color-blue" : 1.0,
                      "stroke-color-green" : 1.0,
                      "stroke-color-opacity" : 1.0,
                      "stroke-color-red" : 1.0,
                      "stroke-width" : 0.0,
                      "tail-x" : -22.9380530973418,
                      "tail-y" : 20.1415929203431,
                      "width" : 254.123893805316,
                      "word-wrap" : 1.0,
                      "fill-style" : "solid",
                      "horizontal-alignment" : "center",
                      "stroke-style" : "solid",
                      "text" : "RS",
                      "vertical-alignment" : "center",
                      "font" : {
                        "color-blue" : 1.0,
                        "color-green" : 1.0,
                        "color-red" : 1.0,
                        "size" : 70.0,
                        "tracking" : 0.0,
                        "name" : "Source Sans Pro",
                        "weight" : "Semi Bold"
                      },
                      "textAttributes" : {
                        "type" : "textAttributeList",
                        "keyframes" : [
                          {
                            "time" : 0,
                            "value" : [{"name":"fgColor","rangeEnd":2,"rangeStart":0,"value":"(255,255,255,255)","valueType":"color"},{"name":"fontItalic","rangeEnd":2,"rangeStart":0,"value":0,"valueType":"int"},{"name":"underline","rangeEnd":2,"rangeStart":0,"value":0,"valueType":"int"},{"name":"fontWeight","rangeEnd":2,"rangeStart":0,"value":100,"valueType":"int"},{"name":"fontSize","rangeEnd":2,"rangeStart":0,"value":70,"valueType":"double"},{"name":"fontName","rangeEnd":2,"rangeStart":0,"value":"Source Sans Pro","valueType":"string"},{"name":"strikethrough","rangeEnd":2,"rangeStart":0,"value":0,"valueType":"int"}],
                            "duration" : 0
                          }
                        ]
                      }
                    },
                    "attributes" : {
                      "autoRotateText" : true
                    },
                    "parameters" : {
                      "translation0" : 127.500003780852,
                      "translation1" : 59.9999989873666
                    },
                    "effects" : [
                        {
                          "effectName" : "DropShadow",
                          "parameters" : {
                            "angle" : 5.49778714378214,
                            "blur" : 10.0,
                            "color-alpha" : 1.0,
                            "color-blue" : 0.1216,
                            "color-green" : 0.1216,
                            "color-red" : 0.1216,
                            "enabled" : 1,
                            "offset" : 10.0,
                            "opacity" : 0.4
                          }
                        }
                    ],
                    "start" : 5027,
                    "duration" : 271,
                    "mediaStart" : 0,
                    "mediaDuration" : 271,
                    "scalar" : 1,
                    "metadata" : {
                      "WinSubProjectDisplayName" : "",
                      "clipSpeedAttribute" : false,
                      "default-HAlign" : "center",
                      "default-VAlign" : "center",
                      "default-translation0" : 0.0,
                      "default-translation1" : 0.0
                    },
                    "animationTracks" : {

                    }
                  }
                ]
              },
              {
                "trackIndex" : 4,
                "medias" : [
                  {
                    "id" : 325,
                    "_type" : "Callout",
                    "def" : {
                      "kind" : "remix",
                      "shape" : "arrow",
                      "style" : "abstract",
                      "stroke-color-blue" : 0.258823529411765,
                      "stroke-color-green" : 0.258823529411765,
                      "stroke-color-opacity" : 1.0,
                      "stroke-color-red" : 0.988235294117647,
                      "stroke-width" : 8.0,
                      "tail-x" : {
                        "type" : "double",
                        "defaultValue" : 3.65218966180691e-12,
                        "interp" : "eioe"
                      },
                      "tail-y" : {
                        "type" : "double",
                        "defaultValue" : 76.4601769911874,
                        "interp" : "eioe"
                      },
                      "horizontal-alignment" : "center",
                      "shape-anchor" : "none",
                      "shape-tail" : "arrow",
                      "stroke-style" : "solid",
                      "vertical-alignment" : "center",
                      "textAttributes" : {
                        "type" : "textAttributeList",
                        "keyframes" : [
                          {
                            "time" : 0,
                            "value" : null,
                            "duration" : 0
                          }
                        ]
                      }
                    },
                    "attributes" : {
                      "autoRotateText" : true
                    },
                    "parameters" : {
                      "translation0" : -750.26548672543,
                      "translation1" : 148.466813619155
                    },
                    "effects" : [
                        {
                          "effectName" : "DropShadow",
                          "parameters" : {
                            "angle" : 5.49778714378214,
                            "blur" : 10.0,
                            "color-alpha" : 1.0,
                            "color-blue" : 0.1216,
                            "color-green" : 0.1216,
                            "color-red" : 0.1216,
                            "enabled" : 1,
                            "offset" : 10.0,
                            "opacity" : 0.4
                          }
                        }
                    ],
                    "start" : 2872,
                    "duration" : 123,
                    "mediaStart" : 0,
                    "mediaDuration" : 123,
                    "scalar" : 1,
                    "metadata" : {
                      "WinSubProjectDisplayName" : "",
                      "clipSpeedAttribute" : false,
                      "default-stroke-color-blue" : 0.00784313725490196,
                      "default-stroke-color-green" : 0.270588235294118,
                      "default-stroke-color-red" : 0.658823529411765,
                      "default-translation0" : 0.0,
                      "default-translation1" : 0.0
                    },
                    "animationTracks" : {

                    }
                  },
                  {
                    "id" : 326,
                    "_type" : "Callout",
                    "def" : {
                      "kind" : "remix",
                      "shape" : "arrow",
                      "style" : "abstract",
                      "stroke-color-blue" : 0.658823529411765,
                      "stroke-color-green" : 0.00784313725490196,
                      "stroke-color-opacity" : 1.0,
                      "stroke-color-red" : 0.0235294117647059,
                      "stroke-width" : 19.1666666666667,
                      "tail-x" : {
                        "type" : "double",
                        "defaultValue" : -347.292035398186,
                        "interp" : "eioe"
                      },
                      "tail-y" : {
                        "type" : "double",
                        "defaultValue" : 168.606194690664,
                        "interp" : "eioe"
                      },
                      "horizontal-alignment" : "center",
                      "shape-anchor" : "none",
                      "shape-tail" : "arrow",
                      "stroke-style" : "solid",
                      "vertical-alignment" : "center",
                      "textAttributes" : {
                        "type" : "textAttributeList",
                        "keyframes" : [
                          {
                            "time" : 0,
                            "value" : null,
                            "duration" : 0
                          }
                        ]
                      }
                    },
                    "attributes" : {
                      "autoRotateText" : true
                    },
                    "parameters" : {
                      "translation0" : -109.712389380504,
                      "translation1" : -151.96460176974
                    },
                    "effects" : [
                        {
                          "effectName" : "DropShadow",
                          "parameters" : {
                            "angle" : 5.49778714378214,
                            "blur" : 10.0,
                            "color-alpha" : 1.0,
                            "color-blue" : 0.1216,
                            "color-green" : 0.1216,
                            "color-red" : 0.1216,
                            "enabled" : 1,
                            "offset" : 10.0,
                            "opacity" : 0.4
                          }
                        }
                    ],
                    "start" : 3205,
                    "duration" : 24,
                    "mediaStart" : 0,
                    "mediaDuration" : 24,
                    "scalar" : 1,
                    "metadata" : {
                      "WinSubProjectDisplayName" : "",
                      "clipSpeedAttribute" : false,
                      "default-stroke-color-blue" : 0.00784313725490196,
                      "default-stroke-color-green" : 0.270588235294118,
                      "default-stroke-color-red" : 0.658823529411765,
                      "default-stroke-width" : 8.0,
                      "default-translation0" : 0.0,
                      "default-translation1" : 0.0
                    },
                    "animationTracks" : {

                    }
                  },
                  {
                    "id" : 327,
                    "_type" : "Callout",
                    "def" : {
                      "kind" : "remix",
                      "shape" : "arrow",
                      "style" : "abstract",
                      "stroke-color-blue" : 0.658823529411765,
                      "stroke-color-green" : 0.00784313725490196,
                      "stroke-color-opacity" : 1.0,
                      "stroke-color-red" : 0.0235294117647059,
                      "stroke-width" : 19.1666666666667,
                      "tail-x" : {
                        "type" : "double",
                        "defaultValue" : -347.292035398186,
                        "interp" : "eioe"
                      },
                      "tail-y" : {
                        "type" : "double",
                        "defaultValue" : 168.606194690664,
                        "interp" : "eioe"
                      },
                      "horizontal-alignment" : "center",
                      "shape-anchor" : "none",
                      "shape-tail" : "arrow",
                      "stroke-style" : "solid",
                      "vertical-alignment" : "center",
                      "textAttributes" : {
                        "type" : "textAttributeList",
                        "keyframes" : [
                          {
                            "time" : 0,
                            "value" : null,
                            "duration" : 0
                          }
                        ]
                      }
                    },
                    "attributes" : {
                      "autoRotateText" : true
                    },
                    "parameters" : {
                      "translation0" : -109.712389380504,
                      "translation1" : -151.96460176974
                    },
                    "effects" : [
                        {
                          "effectName" : "DropShadow",
                          "parameters" : {
                            "angle" : 5.49778714378214,
                            "blur" : 10.0,
                            "color-alpha" : 1.0,
                            "color-blue" : 0.1216,
                            "color-green" : 0.1216,
                            "color-red" : 0.1216,
                            "enabled" : 1,
                            "offset" : 10.0,
                            "opacity" : 0.4
                          }
                        }
                    ],
                    "start" : 3244,
                    "duration" : 23,
                    "mediaStart" : 0,
                    "mediaDuration" : 23,
                    "scalar" : 1,
                    "metadata" : {
                      "WinSubProjectDisplayName" : "",
                      "clipSpeedAttribute" : false,
                      "default-stroke-color-blue" : 0.00784313725490196,
                      "default-stroke-color-green" : 0.270588235294118,
                      "default-stroke-color-red" : 0.658823529411765,
                      "default-stroke-width" : 8.0,
                      "default-translation0" : 0.0,
                      "default-translation1" : 0.0
                    },
                    "animationTracks" : {

                    }
                  },
                  {
                    "id" : 328,
                    "_type" : "Callout",
                    "def" : {
                      "kind" : "remix",
                      "shape" : "shape-ellipse",
                      "style" : "urban",
                      "fill-color-blue" : 0.0,
                      "fill-color-green" : 0.0,
                      "fill-color-opacity" : 0.0,
                      "fill-color-red" : 0.0,
                      "height" : 180.0,
                      "stroke-color-blue" : 0.964705882352941,
                      "stroke-color-green" : 0.172549019607843,
                      "stroke-color-opacity" : 1.0,
                      "stroke-color-red" : 0.0431372549019608,
                      "stroke-width" : 11.1666666666667,
                      "width" : 194.123893805172,
                      "fill-style" : "solid",
                      "horizontal-alignment" : "center",
                      "stroke-style" : "solid",
                      "vertical-alignment" : "center",
                      "textAttributes" : {
                        "type" : "textAttributeList",
                        "keyframes" : [
                          {
                            "time" : 0,
                            "value" : null,
                            "duration" : 0
                          }
                        ]
                      }
                    },
                    "attributes" : {
                      "autoRotateText" : true
                    },
                    "parameters" : {
                      "translation0" : 427.980830707306,
                      "translation1" : 234.15929203541
                    },
                    "effects" : [
                        {
                          "effectName" : "DropShadow",
                          "parameters" : {
                            "angle" : 5.49778714378214,
                            "blur" : 10.0,
                            "color-alpha" : 1.0,
                            "color-blue" : 0.1216,
                            "color-green" : 0.1216,
                            "color-red" : 0.1216,
                            "enabled" : 1,
                            "offset" : 10.0,
                            "opacity" : 0.4
                          }
                        }
                    ],
                    "start" : 3530,
                    "duration" : 13,
                    "mediaStart" : 0,
                    "mediaDuration" : 13,
                    "scalar" : 1,
                    "metadata" : {
                      "WinSubProjectDisplayName" : "",
                      "clipSpeedAttribute" : false,
                      "default-callout-shape" : "shape-rectangle",
                      "default-stroke-color-blue" : 1.0,
                      "default-stroke-color-green" : 1.0,
                      "default-stroke-color-red" : 1.0,
                      "default-stroke-width" : 6.0,
                      "default-translation0" : 0.0,
                      "default-translation1" : 0.0
                    },
                    "animationTracks" : {

                    }
                  },
                  {
                    "id" : 329,
                    "_type" : "Callout",
                    "def" : {
                      "kind" : "remix",
                      "shape" : "shape-ellipse",
                      "style" : "urban",
                      "fill-color-blue" : {
                        "type" : "double",
                        "defaultValue" : 0.0,
                        "interp" : "linr"
                      },
                      "fill-color-green" : {
                        "type" : "double",
                        "defaultValue" : 0.0,
                        "interp" : "linr"
                      },
                      "fill-color-opacity" : {
                        "type" : "double",
                        "defaultValue" : 0.0,
                        "interp" : "linr"
                      },
                      "fill-color-red" : {
                        "type" : "double",
                        "defaultValue" : 0.0,
                        "interp" : "linr"
                      },
                      "height" : {
                        "type" : "double",
                        "defaultValue" : 180.0,
                        "interp" : "linr"
                      },
                      "stroke-color-blue" : {
                        "type" : "double",
                        "defaultValue" : 0.964705882352941,
                        "interp" : "linr"
                      },
                      "stroke-color-green" : {
                        "type" : "double",
                        "defaultValue" : 0.172549019607843,
                        "interp" : "linr"
                      },
                      "stroke-color-opacity" : {
                        "type" : "double",
                        "defaultValue" : 1.0,
                        "interp" : "linr"
                      },
                      "stroke-color-red" : {
                        "type" : "double",
                        "defaultValue" : 0.0431372549019608,
                        "interp" : "linr"
                      },
                      "stroke-width" : {
                        "type" : "double",
                        "defaultValue" : 11.1666666666667,
                        "interp" : "linr"
                      },
                      "width" : {
                        "type" : "double",
                        "defaultValue" : 194.123893805172,
                        "interp" : "linr"
                      },
                      "fill-style" : "solid",
                      "horizontal-alignment" : "center",
                      "stroke-style" : "solid",
                      "vertical-alignment" : "center",
                      "textAttributes" : {
                        "type" : "textAttributeList",
                        "keyframes" : [
                          {
                            "time" : 0,
                            "value" : null,
                            "duration" : 0
                          }
                        ]
                      }
                    },
                    "attributes" : {
                      "autoRotateText" : true
                    },
                    "parameters" : {
                      "translation0" : {
                        "type" : "double",
                        "defaultValue" : 427.980830707306,
                        "interp" : "eioe"
                      },
                      "translation1" : {
                        "type" : "double",
                        "defaultValue" : 234.15929203541,
                        "interp" : "eioe"
                      }
                    },
                    "effects" : [
                        {
                          "effectName" : "DropShadow",
                          "parameters" : {
                            "angle" : {
                              "type" : "double",
                              "defaultValue" : 5.49778714378214,
                              "interp" : "linr",
                              "uiHints" : {
                                "userInterfaceType" : 0,
                                "unitType" : 0
                              }
                            },
                            "blur" : {
                              "type" : "double",
                              "defaultValue" : 10.0,
                              "interp" : "linr",
                              "uiHints" : {
                                "userInterfaceType" : 0,
                                "unitType" : 0
                              }
                            },
                            "color-alpha" : {
                              "type" : "double",
                              "defaultValue" : 1.0,
                              "interp" : "linr",
                              "uiHints" : {
                                "userInterfaceType" : 0,
                                "unitType" : 0
                              }
                            },
                            "color-blue" : {
                              "type" : "double",
                              "defaultValue" : 0.1216,
                              "interp" : "linr",
                              "uiHints" : {
                                "userInterfaceType" : 0,
                                "unitType" : 0
                              }
                            },
                            "color-green" : {
                              "type" : "double",
                              "defaultValue" : 0.1216,
                              "interp" : "linr",
                              "uiHints" : {
                                "userInterfaceType" : 0,
                                "unitType" : 0
                              }
                            },
                            "color-red" : {
                              "type" : "double",
                              "defaultValue" : 0.1216,
                              "interp" : "linr",
                              "uiHints" : {
                                "userInterfaceType" : 0,
                                "unitType" : 0
                              }
                            },
                            "enabled" : 1,
                            "offset" : {
                              "type" : "double",
                              "defaultValue" : 10.0,
                              "interp" : "linr",
                              "uiHints" : {
                                "userInterfaceType" : 0,
                                "unitType" : 0
                              }
                            },
                            "opacity" : {
                              "type" : "double",
                              "defaultValue" : 0.4,
                              "interp" : "linr",
                              "uiHints" : {
                                "userInterfaceType" : 0,
                                "unitType" : 0
                              }
                            }
                          }
                        }
                    ],
                    "start" : 3550,
                    "duration" : 32,
                    "mediaStart" : -9,
                    "mediaDuration" : 32,
                    "scalar" : 1,
                    "metadata" : {
                      "WinSubProjectDisplayName" : "",
                      "clipSpeedAttribute" : false,
                      "default-callout-shape" : "shape-rectangle",
                      "default-stroke-color-blue" : 1.0,
                      "default-stroke-color-green" : 1.0,
                      "default-stroke-color-red" : 1.0,
                      "default-stroke-width" : 6.0,
                      "default-translation0" : 0.0,
                      "default-translation1" : 0.0
                    },
                    "animationTracks" : {

                    }
                  },
                  {
                    "id" : 330,
                    "_type" : "Callout",
                    "def" : {
                      "kind" : "remix",
                      "shape" : "text-rectangle",
                      "style" : "bold",
                      "fill-color-blue" : 0.886274509803922,
                      "fill-color-green" : 0.352941176470588,
                      "fill-color-opacity" : 1.0,
                      "fill-color-red" : 0.117647058823529,
                      "height" : 119.716814159314,
                      "stroke-color-blue" : 1.0,
                      "stroke-color-green" : 1.0,
                      "stroke-color-opacity" : 1.0,
                      "stroke-color-red" : 1.0,
                      "stroke-width" : 0.0,
                      "tail-x" : -22.9380530973418,
                      "tail-y" : 20.1415929203431,
                      "width" : 254.123893805316,
                      "word-wrap" : 1.0,
                      "fill-style" : "solid",
                      "horizontal-alignment" : "center",
                      "stroke-style" : "solid",
                      "text" : "BNS",
                      "vertical-alignment" : "center",
                      "font" : {
                        "color-blue" : 1.0,
                        "color-green" : 1.0,
                        "color-red" : 1.0,
                        "size" : 70.0,
                        "tracking" : 0.0,
                        "name" : "Source Sans Pro",
                        "weight" : "Semi Bold"
                      },
                      "textAttributes" : {
                        "type" : "textAttributeList",
                        "keyframes" : [
                          {
                            "time" : 0,
                            "value" : [{"name":"fontWeight","rangeEnd":3,"rangeStart":0,"value":100,"valueType":"int"},{"name":"underline","rangeEnd":3,"rangeStart":0,"value":0,"valueType":"int"},{"name":"fontName","rangeEnd":3,"rangeStart":0,"value":"Source Sans Pro","valueType":"string"},{"name":"fgColor","rangeEnd":3,"rangeStart":0,"value":"(255,255,255,255)","valueType":"color"},{"name":"fontItalic","rangeEnd":3,"rangeStart":0,"value":0,"valueType":"int"},{"name":"fontSize","rangeEnd":3,"rangeStart":0,"value":70,"valueType":"double"},{"name":"strikethrough","rangeEnd":3,"rangeStart":0,"value":0,"valueType":"int"}],
                            "duration" : 0
                          }
                        ]
                      }
                    },
                    "attributes" : {
                      "autoRotateText" : true
                    },
                    "parameters" : {
                      "translation0" : -126.623897586309,
                      "translation1" : -59.7168131463873
                    },
                    "effects" : [
                        {
                          "effectName" : "DropShadow",
                          "parameters" : {
                            "angle" : 5.49778714378214,
                            "blur" : 10.0,
                            "color-alpha" : 1.0,
                            "color-blue" : 0.1216,
                            "color-green" : 0.1216,
                            "color-red" : 0.1216,
                            "enabled" : 1,
                            "offset" : 10.0,
                            "opacity" : 0.4
                          }
                        }
                    ],
                    "start" : 5027,
                    "duration" : 271,
                    "mediaStart" : 0,
                    "mediaDuration" : 271,
                    "scalar" : 1,
                    "metadata" : {
                      "WinSubProjectDisplayName" : "",
                      "clipSpeedAttribute" : false,
                      "default-HAlign" : "center",
                      "default-VAlign" : "center",
                      "default-translation0" : 0.0,
                      "default-translation1" : 0.0
                    },
                    "animationTracks" : {

                    }
                  }
                ]
              },
              {
                "trackIndex" : 5,
                "medias" : [
                  {
                    "id" : 331,
                    "_type" : "Callout",
                    "def" : {
                      "kind" : "remix",
                      "shape" : "arrow",
                      "style" : "abstract",
                      "stroke-color-blue" : 0.658823529411765,
                      "stroke-color-green" : 0.00784313725490196,
                      "stroke-color-opacity" : 1.0,
                      "stroke-color-red" : 0.0235294117647059,
                      "stroke-width" : 19.1666666666667,
                      "tail-x" : {
                        "type" : "double",
                        "defaultValue" : 56.0353982300421,
                        "interp" : "eioe"
                      },
                      "tail-y" : {
                        "type" : "double",
                        "defaultValue" : 204.530973451257,
                        "interp" : "eioe"
                      },
                      "horizontal-alignment" : "center",
                      "shape-anchor" : "none",
                      "shape-tail" : "arrow",
                      "stroke-style" : "solid",
                      "vertical-alignment" : "center",
                      "textAttributes" : {
                        "type" : "textAttributeList",
                        "keyframes" : [
                          {
                            "time" : 0,
                            "value" : null,
                            "duration" : 0
                          }
                        ]
                      }
                    },
                    "attributes" : {
                      "autoRotateText" : true
                    },
                    "parameters" : {
                      "translation0" : 131.13716814157,
                      "translation1" : 264.743362831949
                    },
                    "effects" : [
                        {
                          "effectName" : "DropShadow",
                          "parameters" : {
                            "angle" : 5.49778714378214,
                            "blur" : 10.0,
                            "color-alpha" : 1.0,
                            "color-blue" : 0.1216,
                            "color-green" : 0.1216,
                            "color-red" : 0.1216,
                            "enabled" : 1,
                            "offset" : 10.0,
                            "opacity" : 0.4
                          }
                        }
                    ],
                    "start" : 3205,
                    "duration" : 24,
                    "mediaStart" : 0,
                    "mediaDuration" : 24,
                    "scalar" : 1,
                    "metadata" : {
                      "WinSubProjectDisplayName" : "",
                      "clipSpeedAttribute" : false,
                      "default-stroke-color-blue" : 0.00784313725490196,
                      "default-stroke-color-green" : 0.270588235294118,
                      "default-stroke-color-red" : 0.658823529411765,
                      "default-stroke-width" : 8.0,
                      "default-translation0" : 0.0,
                      "default-translation1" : 0.0
                    },
                    "animationTracks" : {

                    }
                  },
                  {
                    "id" : 332,
                    "_type" : "Callout",
                    "def" : {
                      "kind" : "remix",
                      "shape" : "arrow",
                      "style" : "abstract",
                      "stroke-color-blue" : 0.658823529411765,
                      "stroke-color-green" : 0.00784313725490196,
                      "stroke-color-opacity" : 1.0,
                      "stroke-color-red" : 0.0235294117647059,
                      "stroke-width" : 19.1666666666667,
                      "tail-x" : {
                        "type" : "double",
                        "defaultValue" : 56.0353982300421,
                        "interp" : "eioe"
                      },
                      "tail-y" : {
                        "type" : "double",
                        "defaultValue" : 204.530973451257,
                        "interp" : "eioe"
                      },
                      "horizontal-alignment" : "center",
                      "shape-anchor" : "none",
                      "shape-tail" : "arrow",
                      "stroke-style" : "solid",
                      "vertical-alignment" : "center",
                      "textAttributes" : {
                        "type" : "textAttributeList",
                        "keyframes" : [
                          {
                            "time" : 0,
                            "value" : null,
                            "duration" : 0
                          }
                        ]
                      }
                    },
                    "attributes" : {
                      "autoRotateText" : true
                    },
                    "parameters" : {
                      "translation0" : 131.13716814157,
                      "translation1" : 264.743362831949
                    },
                    "effects" : [
                        {
                          "effectName" : "DropShadow",
                          "parameters" : {
                            "angle" : 5.49778714378214,
                            "blur" : 10.0,
                            "color-alpha" : 1.0,
                            "color-blue" : 0.1216,
                            "color-green" : 0.1216,
                            "color-red" : 0.1216,
                            "enabled" : 1,
                            "offset" : 10.0,
                            "opacity" : 0.4
                          }
                        }
                    ],
                    "start" : 3244,
                    "duration" : 23,
                    "mediaStart" : 0,
                    "mediaDuration" : 23,
                    "scalar" : 1,
                    "metadata" : {
                      "WinSubProjectDisplayName" : "",
                      "clipSpeedAttribute" : false,
                      "default-stroke-color-blue" : 0.00784313725490196,
                      "default-stroke-color-green" : 0.270588235294118,
                      "default-stroke-color-red" : 0.658823529411765,
                      "default-stroke-width" : 8.0,
                      "default-translation0" : 0.0,
                      "default-translation1" : 0.0
                    },
                    "animationTracks" : {

                    }
                  },
                  {
                    "id" : 333,
                    "_type" : "Callout",
                    "def" : {
                      "kind" : "remix",
                      "shape" : "shape-ellipse",
                      "style" : "urban",
                      "fill-color-blue" : 0.0,
                      "fill-color-green" : 0.0,
                      "fill-color-opacity" : 0.0,
                      "fill-color-red" : 0.0,
                      "height" : 137.946902654929,
                      "stroke-color-blue" : 0.964705882352941,
                      "stroke-color-green" : 0.172549019607843,
                      "stroke-color-opacity" : 1.0,
                      "stroke-color-red" : 0.0431372549019608,
                      "stroke-width" : 11.1666666666667,
                      "width" : 144.424778761141,
                      "fill-style" : "solid",
                      "horizontal-alignment" : "center",
                      "stroke-style" : "solid",
                      "vertical-alignment" : "center",
                      "textAttributes" : {
                        "type" : "textAttributeList",
                        "keyframes" : [
                          {
                            "time" : 0,
                            "value" : null,
                            "duration" : 0
                          }
                        ]
                      }
                    },
                    "attributes" : {
                      "autoRotateText" : true
                    },
                    "parameters" : {
                      "translation0" : -1.29212196497974e-10,
                      "translation1" : -23.8775760343078
                    },
                    "effects" : [
                        {
                          "effectName" : "DropShadow",
                          "parameters" : {
                            "angle" : 5.49778714378214,
                            "blur" : 10.0,
                            "color-alpha" : 1.0,
                            "color-blue" : 0.1216,
                            "color-green" : 0.1216,
                            "color-red" : 0.1216,
                            "enabled" : 1,
                            "offset" : 10.0,
                            "opacity" : 0.4
                          }
                        }
                    ],
                    "start" : 3530,
                    "duration" : 13,
                    "mediaStart" : 0,
                    "mediaDuration" : 13,
                    "scalar" : 1,
                    "metadata" : {
                      "WinSubProjectDisplayName" : "",
                      "clipSpeedAttribute" : false,
                      "default-callout-shape" : "shape-rectangle",
                      "default-stroke-color-blue" : 1.0,
                      "default-stroke-color-green" : 1.0,
                      "default-stroke-color-red" : 1.0,
                      "default-stroke-width" : 6.0,
                      "default-translation0" : 0.0,
                      "default-translation1" : 0.0
                    },
                    "animationTracks" : {

                    }
                  },
                  {
                    "id" : 334,
                    "_type" : "Callout",
                    "def" : {
                      "kind" : "remix",
                      "shape" : "shape-ellipse",
                      "style" : "urban",
                      "fill-color-blue" : {
                        "type" : "double",
                        "defaultValue" : 0.0,
                        "interp" : "linr"
                      },
                      "fill-color-green" : {
                        "type" : "double",
                        "defaultValue" : 0.0,
                        "interp" : "linr"
                      },
                      "fill-color-opacity" : {
                        "type" : "double",
                        "defaultValue" : 0.0,
                        "interp" : "linr"
                      },
                      "fill-color-red" : {
                        "type" : "double",
                        "defaultValue" : 0.0,
                        "interp" : "linr"
                      },
                      "height" : {
                        "type" : "double",
                        "defaultValue" : 137.946902654929,
                        "interp" : "linr"
                      },
                      "stroke-color-blue" : {
                        "type" : "double",
                        "defaultValue" : 0.964705882352941,
                        "interp" : "linr"
                      },
                      "stroke-color-green" : {
                        "type" : "double",
                        "defaultValue" : 0.172549019607843,
                        "interp" : "linr"
                      },
                      "stroke-color-opacity" : {
                        "type" : "double",
                        "defaultValue" : 1.0,
                        "interp" : "linr"
                      },
                      "stroke-color-red" : {
                        "type" : "double",
                        "defaultValue" : 0.0431372549019608,
                        "interp" : "linr"
                      },
                      "stroke-width" : {
                        "type" : "double",
                        "defaultValue" : 11.1666666666667,
                        "interp" : "linr"
                      },
                      "width" : {
                        "type" : "double",
                        "defaultValue" : 144.424778761141,
                        "interp" : "linr"
                      },
                      "fill-style" : "solid",
                      "horizontal-alignment" : "center",
                      "stroke-style" : "solid",
                      "vertical-alignment" : "center",
                      "textAttributes" : {
                        "type" : "textAttributeList",
                        "keyframes" : [
                          {
                            "time" : 0,
                            "value" : null,
                            "duration" : 0
                          }
                        ]
                      }
                    },
                    "attributes" : {
                      "autoRotateText" : true
                    },
                    "parameters" : {
                      "translation0" : {
                        "type" : "double",
                        "defaultValue" : -1.29212196497974e-10,
                        "interp" : "eioe"
                      },
                      "translation1" : {
                        "type" : "double",
                        "defaultValue" : -23.8775760343078,
                        "interp" : "eioe"
                      }
                    },
                    "effects" : [
                        {
                          "effectName" : "DropShadow",
                          "parameters" : {
                            "angle" : {
                              "type" : "double",
                              "defaultValue" : 5.49778714378214,
                              "interp" : "linr",
                              "uiHints" : {
                                "userInterfaceType" : 0,
                                "unitType" : 0
                              }
                            },
                            "blur" : {
                              "type" : "double",
                              "defaultValue" : 10.0,
                              "interp" : "linr",
                              "uiHints" : {
                                "userInterfaceType" : 0,
                                "unitType" : 0
                              }
                            },
                            "color-alpha" : {
                              "type" : "double",
                              "defaultValue" : 1.0,
                              "interp" : "linr",
                              "uiHints" : {
                                "userInterfaceType" : 0,
                                "unitType" : 0
                              }
                            },
                            "color-blue" : {
                              "type" : "double",
                              "defaultValue" : 0.1216,
                              "interp" : "linr",
                              "uiHints" : {
                                "userInterfaceType" : 0,
                                "unitType" : 0
                              }
                            },
                            "color-green" : {
                              "type" : "double",
                              "defaultValue" : 0.1216,
                              "interp" : "linr",
                              "uiHints" : {
                                "userInterfaceType" : 0,
                                "unitType" : 0
                              }
                            },
                            "color-red" : {
                              "type" : "double",
                              "defaultValue" : 0.1216,
                              "interp" : "linr",
                              "uiHints" : {
                                "userInterfaceType" : 0,
                                "unitType" : 0
                              }
                            },
                            "enabled" : 1,
                            "offset" : {
                              "type" : "double",
                              "defaultValue" : 10.0,
                              "interp" : "linr",
                              "uiHints" : {
                                "userInterfaceType" : 0,
                                "unitType" : 0
                              }
                            },
                            "opacity" : {
                              "type" : "double",
                              "defaultValue" : 0.4,
                              "interp" : "linr",
                              "uiHints" : {
                                "userInterfaceType" : 0,
                                "unitType" : 0
                              }
                            }
                          }
                        }
                    ],
                    "start" : 3550,
                    "duration" : 32,
                    "mediaStart" : -9,
                    "mediaDuration" : 32,
                    "scalar" : 1,
                    "metadata" : {
                      "WinSubProjectDisplayName" : "",
                      "clipSpeedAttribute" : false,
                      "default-callout-shape" : "shape-rectangle",
                      "default-stroke-color-blue" : 1.0,
                      "default-stroke-color-green" : 1.0,
                      "default-stroke-color-red" : 1.0,
                      "default-stroke-width" : 6.0,
                      "default-translation0" : 0.0,
                      "default-translation1" : 0.0
                    },
                    "animationTracks" : {

                    }
                  },
                  {
                    "id" : 335,
                    "_type" : "Callout",
                    "def" : {
                      "kind" : "remix",
                      "shape" : "text-rectangle",
                      "style" : "bold",
                      "fill-color-blue" : 0.886274509803922,
                      "fill-color-green" : 0.352941176470588,
                      "fill-color-opacity" : 1.0,
                      "fill-color-red" : 0.117647058823529,
                      "height" : 119.716814159314,
                      "stroke-color-blue" : 1.0,
                      "stroke-color-green" : 1.0,
                      "stroke-color-opacity" : 1.0,
                      "stroke-color-red" : 1.0,
                      "stroke-width" : 0.0,
                      "tail-x" : -22.9380530973418,
                      "tail-y" : 20.1415929203431,
                      "width" : 254.123893805316,
                      "word-wrap" : 1.0,
                      "fill-style" : "solid",
                      "horizontal-alignment" : "center",
                      "stroke-style" : "solid",
                      "text" : "our method",
                      "vertical-alignment" : "center",
                      "font" : {
                        "color-blue" : 1.0,
                        "color-green" : 1.0,
                        "color-red" : 1.0,
                        "size" : 70.0,
                        "tracking" : 0.0,
                        "name" : "Source Sans Pro",
                        "weight" : "Semi Bold"
                      },
                      "textAttributes" : {
                        "type" : "textAttributeList",
                        "keyframes" : [
                          {
                            "time" : 0,
                            "value" : [{"name":"fontSize","rangeEnd":10,"rangeStart":0,"value":70,"valueType":"double"},{"name":"fontName","rangeEnd":10,"rangeStart":0,"value":"Source Sans Pro","valueType":"string"},{"name":"fontWeight","rangeEnd":10,"rangeStart":0,"value":100,"valueType":"int"},{"name":"fgColor","rangeEnd":10,"rangeStart":0,"value":"(255,255,255,255)","valueType":"color"},{"name":"strikethrough","rangeEnd":10,"rangeStart":0,"value":0,"valueType":"int"},{"name":"fontItalic","rangeEnd":10,"rangeStart":0,"value":0,"valueType":"int"},{"name":"underline","rangeEnd":10,"rangeStart":0,"value":0,"valueType":"int"}],
                            "duration" : 0
                          }
                        ]
                      }
                    },
                    "attributes" : {
                      "autoRotateText" : true
                    },
                    "parameters" : {
                      "translation0" : 127.499999999818,
                      "translation1" : -59.7168121335656
                    },
                    "effects" : [
                        {
                          "effectName" : "DropShadow",
                          "parameters" : {
                            "angle" : 5.49778714378214,
                            "blur" : 10.0,
                            "color-alpha" : 1.0,
                            "color-blue" : 0.1216,
                            "color-green" : 0.1216,
                            "color-red" : 0.1216,
                            "enabled" : 1,
                            "offset" : 10.0,
                            "opacity" : 0.4
                          }
                        }
                    ],
                    "start" : 5027,
                    "duration" : 271,
                    "mediaStart" : 0,
                    "mediaDuration" : 271,
                    "scalar" : 1,
                    "metadata" : {
                      "WinSubProjectDisplayName" : "",
                      "clipSpeedAttribute" : false,
                      "default-HAlign" : "center",
                      "default-VAlign" : "center",
                      "default-translation0" : 0.0,
                      "default-translation1" : 0.0
                    },
                    "animationTracks" : {

                    }
                  }
                ]
              },
              {
                "trackIndex" : 6,
                "medias" : [
                  {
                    "id" : 336,
                    "_type" : "Callout",
                    "def" : {
                      "kind" : "remix",
                      "shape" : "arrow",
                      "style" : "abstract",
                      "stroke-color-blue" : 0.658823529411765,
                      "stroke-color-green" : 0.00784313725490196,
                      "stroke-color-opacity" : 1.0,
                      "stroke-color-red" : 0.0235294117647059,
                      "stroke-width" : 19.1666666666667,
                      "tail-x" : {
                        "type" : "double",
                        "defaultValue" : -3.22123893807439,
                        "interp" : "eioe"
                      },
                      "tail-y" : {
                        "type" : "double",
                        "defaultValue" : -162.477876106171,
                        "interp" : "eioe"
                      },
                      "horizontal-alignment" : "center",
                      "shape-anchor" : "none",
                      "shape-tail" : "arrow",
                      "stroke-style" : "solid",
                      "vertical-alignment" : "center",
                      "textAttributes" : {
                        "type" : "textAttributeList",
                        "keyframes" : [
                          {
                            "time" : 0,
                            "value" : null,
                            "duration" : 0
                          }
                        ]
                      }
                    },
                    "attributes" : {
                      "autoRotateText" : true
                    },
                    "parameters" : {
                      "translation0" : 73.7920353982511,
                      "translation1" : -243.716814158976
                    },
                    "effects" : [
                        {
                          "effectName" : "DropShadow",
                          "parameters" : {
                            "angle" : 5.49778714378214,
                            "blur" : 10.0,
                            "color-alpha" : 1.0,
                            "color-blue" : 0.1216,
                            "color-green" : 0.1216,
                            "color-red" : 0.1216,
                            "enabled" : 1,
                            "offset" : 10.0,
                            "opacity" : 0.4
                          }
                        }
                    ],
                    "start" : 3205,
                    "duration" : 24,
                    "mediaStart" : 0,
                    "mediaDuration" : 24,
                    "scalar" : 1,
                    "metadata" : {
                      "WinSubProjectDisplayName" : "",
                      "clipSpeedAttribute" : false,
                      "default-stroke-color-blue" : 0.00784313725490196,
                      "default-stroke-color-green" : 0.270588235294118,
                      "default-stroke-color-red" : 0.658823529411765,
                      "default-stroke-width" : 8.0,
                      "default-translation0" : 0.0,
                      "default-translation1" : 0.0
                    },
                    "animationTracks" : {

                    }
                  },
                  {
                    "id" : 337,
                    "_type" : "Callout",
                    "def" : {
                      "kind" : "remix",
                      "shape" : "arrow",
                      "style" : "abstract",
                      "stroke-color-blue" : 0.658823529411765,
                      "stroke-color-green" : 0.00784313725490196,
                      "stroke-color-opacity" : 1.0,
                      "stroke-color-red" : 0.0235294117647059,
                      "stroke-width" : 19.1666666666667,
                      "tail-x" : {
                        "type" : "double",
                        "defaultValue" : -3.22123893807439,
                        "interp" : "eioe"
                      },
                      "tail-y" : {
                        "type" : "double",
                        "defaultValue" : -162.477876106171,
                        "interp" : "eioe"
                      },
                      "horizontal-alignment" : "center",
                      "shape-anchor" : "none",
                      "shape-tail" : "arrow",
                      "stroke-style" : "solid",
                      "vertical-alignment" : "center",
                      "textAttributes" : {
                        "type" : "textAttributeList",
                        "keyframes" : [
                          {
                            "time" : 0,
                            "value" : null,
                            "duration" : 0
                          }
                        ]
                      }
                    },
                    "attributes" : {
                      "autoRotateText" : true
                    },
                    "parameters" : {
                      "translation0" : 73.7920353982511,
                      "translation1" : -243.716814158976
                    },
                    "effects" : [
                        {
                          "effectName" : "DropShadow",
                          "parameters" : {
                            "angle" : 5.49778714378214,
                            "blur" : 10.0,
                            "color-alpha" : 1.0,
                            "color-blue" : 0.1216,
                            "color-green" : 0.1216,
                            "color-red" : 0.1216,
                            "enabled" : 1,
                            "offset" : 10.0,
                            "opacity" : 0.4
                          }
                        }
                    ],
                    "start" : 3244,
                    "duration" : 23,
                    "mediaStart" : 0,
                    "mediaDuration" : 23,
                    "scalar" : 1,
                    "metadata" : {
                      "WinSubProjectDisplayName" : "",
                      "clipSpeedAttribute" : false,
                      "default-stroke-color-blue" : 0.00784313725490196,
                      "default-stroke-color-green" : 0.270588235294118,
                      "default-stroke-color-red" : 0.658823529411765,
                      "default-stroke-width" : 8.0,
                      "default-translation0" : 0.0,
                      "default-translation1" : 0.0
                    },
                    "animationTracks" : {

                    }
                  },
                  {
                    "id" : 338,
                    "_type" : "Callout",
                    "def" : {
                      "kind" : "remix",
                      "shape" : "shape-ellipse",
                      "style" : "urban",
                      "fill-color-blue" : 0.0,
                      "fill-color-green" : 0.0,
                      "fill-color-opacity" : 0.0,
                      "fill-color-red" : 0.0,
                      "height" : 149.415929203481,
                      "stroke-color-blue" : 0.964705882352941,
                      "stroke-color-green" : 0.172549019607843,
                      "stroke-color-opacity" : 1.0,
                      "stroke-color-red" : 0.0431372549019608,
                      "stroke-width" : 11.1666666666667,
                      "width" : 169.654133180771,
                      "fill-style" : "solid",
                      "horizontal-alignment" : "center",
                      "stroke-style" : "solid",
                      "vertical-alignment" : "center",
                      "textAttributes" : {
                        "type" : "textAttributeList",
                        "keyframes" : [
                          {
                            "time" : 0,
                            "value" : null,
                            "duration" : 0
                          }
                        ]
                      }
                    },
                    "attributes" : {
                      "autoRotateText" : true
                    },
                    "parameters" : {
                      "translation0" : -139.729720613733,
                      "translation1" : 186.371681416046
                    },
                    "effects" : [
                        {
                          "effectName" : "DropShadow",
                          "parameters" : {
                            "angle" : 5.49778714378214,
                            "blur" : 10.0,
                            "color-alpha" : 1.0,
                            "color-blue" : 0.1216,
                            "color-green" : 0.1216,
                            "color-red" : 0.1216,
                            "enabled" : 1,
                            "offset" : 10.0,
                            "opacity" : 0.4
                          }
                        }
                    ],
                    "start" : 3530,
                    "duration" : 13,
                    "mediaStart" : 0,
                    "mediaDuration" : 13,
                    "scalar" : 1,
                    "metadata" : {
                      "WinSubProjectDisplayName" : "",
                      "clipSpeedAttribute" : false,
                      "default-callout-shape" : "shape-rectangle",
                      "default-stroke-color-blue" : 1.0,
                      "default-stroke-color-green" : 1.0,
                      "default-stroke-color-red" : 1.0,
                      "default-stroke-width" : 6.0,
                      "default-translation0" : 0.0,
                      "default-translation1" : 0.0
                    },
                    "animationTracks" : {

                    }
                  },
                  {
                    "id" : 339,
                    "_type" : "Callout",
                    "def" : {
                      "kind" : "remix",
                      "shape" : "shape-ellipse",
                      "style" : "urban",
                      "fill-color-blue" : {
                        "type" : "double",
                        "defaultValue" : 0.0,
                        "interp" : "linr"
                      },
                      "fill-color-green" : {
                        "type" : "double",
                        "defaultValue" : 0.0,
                        "interp" : "linr"
                      },
                      "fill-color-opacity" : {
                        "type" : "double",
                        "defaultValue" : 0.0,
                        "interp" : "linr"
                      },
                      "fill-color-red" : {
                        "type" : "double",
                        "defaultValue" : 0.0,
                        "interp" : "linr"
                      },
                      "height" : {
                        "type" : "double",
                        "defaultValue" : 149.415929203481,
                        "interp" : "linr"
                      },
                      "stroke-color-blue" : {
                        "type" : "double",
                        "defaultValue" : 0.964705882352941,
                        "interp" : "linr"
                      },
                      "stroke-color-green" : {
                        "type" : "double",
                        "defaultValue" : 0.172549019607843,
                        "interp" : "linr"
                      },
                      "stroke-color-opacity" : {
                        "type" : "double",
                        "defaultValue" : 1.0,
                        "interp" : "linr"
                      },
                      "stroke-color-red" : {
                        "type" : "double",
                        "defaultValue" : 0.0431372549019608,
                        "interp" : "linr"
                      },
                      "stroke-width" : {
                        "type" : "double",
                        "defaultValue" : 11.1666666666667,
                        "interp" : "linr"
                      },
                      "width" : {
                        "type" : "double",
                        "defaultValue" : 169.654133180771,
                        "interp" : "linr"
                      },
                      "fill-style" : "solid",
                      "horizontal-alignment" : "center",
                      "stroke-style" : "solid",
                      "vertical-alignment" : "center",
                      "textAttributes" : {
                        "type" : "textAttributeList",
                        "keyframes" : [
                          {
                            "time" : 0,
                            "value" : null,
                            "duration" : 0
                          }
                        ]
                      }
                    },
                    "attributes" : {
                      "autoRotateText" : true
                    },
                    "parameters" : {
                      "translation0" : {
                        "type" : "double",
                        "defaultValue" : -139.729720613733,
                        "interp" : "eioe"
                      },
                      "translation1" : {
                        "type" : "double",
                        "defaultValue" : 186.371681416046,
                        "interp" : "eioe"
                      }
                    },
                    "effects" : [
                        {
                          "effectName" : "DropShadow",
                          "parameters" : {
                            "angle" : {
                              "type" : "double",
                              "defaultValue" : 5.49778714378214,
                              "interp" : "linr",
                              "uiHints" : {
                                "userInterfaceType" : 0,
                                "unitType" : 0
                              }
                            },
                            "blur" : {
                              "type" : "double",
                              "defaultValue" : 10.0,
                              "interp" : "linr",
                              "uiHints" : {
                                "userInterfaceType" : 0,
                                "unitType" : 0
                              }
                            },
                            "color-alpha" : {
                              "type" : "double",
                              "defaultValue" : 1.0,
                              "interp" : "linr",
                              "uiHints" : {
                                "userInterfaceType" : 0,
                                "unitType" : 0
                              }
                            },
                            "color-blue" : {
                              "type" : "double",
                              "defaultValue" : 0.1216,
                              "interp" : "linr",
                              "uiHints" : {
                                "userInterfaceType" : 0,
                                "unitType" : 0
                              }
                            },
                            "color-green" : {
                              "type" : "double",
                              "defaultValue" : 0.1216,
                              "interp" : "linr",
                              "uiHints" : {
                                "userInterfaceType" : 0,
                                "unitType" : 0
                              }
                            },
                            "color-red" : {
                              "type" : "double",
                              "defaultValue" : 0.1216,
                              "interp" : "linr",
                              "uiHints" : {
                                "userInterfaceType" : 0,
                                "unitType" : 0
                              }
                            },
                            "enabled" : 1,
                            "offset" : {
                              "type" : "double",
                              "defaultValue" : 10.0,
                              "interp" : "linr",
                              "uiHints" : {
                                "userInterfaceType" : 0,
                                "unitType" : 0
                              }
                            },
                            "opacity" : {
                              "type" : "double",
                              "defaultValue" : 0.4,
                              "interp" : "linr",
                              "uiHints" : {
                                "userInterfaceType" : 0,
                                "unitType" : 0
                              }
                            }
                          }
                        }
                    ],
                    "start" : 3550,
                    "duration" : 32,
                    "mediaStart" : -9,
                    "mediaDuration" : 32,
                    "scalar" : 1,
                    "metadata" : {
                      "WinSubProjectDisplayName" : "",
                      "clipSpeedAttribute" : false,
                      "default-callout-shape" : "shape-rectangle",
                      "default-stroke-color-blue" : 1.0,
                      "default-stroke-color-green" : 1.0,
                      "default-stroke-color-red" : 1.0,
                      "default-stroke-width" : 6.0,
                      "default-translation0" : 0.0,
                      "default-translation1" : 0.0
                    },
                    "animationTracks" : {

                    }
                  }
                ]
              },
              {
                "trackIndex" : 7,
                "medias" : [
                  {
                    "id" : 340,
                    "_type" : "Callout",
                    "def" : {
                      "kind" : "remix",
                      "shape" : "shape-ellipse",
                      "style" : "urban",
                      "fill-color-blue" : 0.0,
                      "fill-color-green" : 0.0,
                      "fill-color-opacity" : 0.0,
                      "fill-color-red" : 0.0,
                      "height" : 260.283188743699,
                      "stroke-color-blue" : 0.964705882352941,
                      "stroke-color-green" : 0.172549019607843,
                      "stroke-color-opacity" : 1.0,
                      "stroke-color-red" : 0.0431372549019608,
                      "stroke-width" : 11.1666666666667,
                      "width" : 285.876106194826,
                      "fill-style" : "solid",
                      "horizontal-alignment" : "center",
                      "stroke-style" : "solid",
                      "vertical-alignment" : "center",
                      "textAttributes" : {
                        "type" : "textAttributeList",
                        "keyframes" : [
                          {
                            "time" : 0,
                            "value" : null,
                            "duration" : 0
                          }
                        ]
                      }
                    },
                    "attributes" : {
                      "autoRotateText" : true
                    },
                    "parameters" : {
                      "translation0" : 354.584070796151,
                      "translation1" : -178.72566270381
                    },
                    "effects" : [
                        {
                          "effectName" : "DropShadow",
                          "parameters" : {
                            "angle" : 5.49778714378214,
                            "blur" : 10.0,
                            "color-alpha" : 1.0,
                            "color-blue" : 0.1216,
                            "color-green" : 0.1216,
                            "color-red" : 0.1216,
                            "enabled" : 1,
                            "offset" : 10.0,
                            "opacity" : 0.4
                          }
                        }
                    ],
                    "start" : 3530,
                    "duration" : 13,
                    "mediaStart" : 0,
                    "mediaDuration" : 13,
                    "scalar" : 1,
                    "metadata" : {
                      "WinSubProjectDisplayName" : "",
                      "clipSpeedAttribute" : false,
                      "default-callout-shape" : "shape-rectangle",
                      "default-stroke-color-blue" : 1.0,
                      "default-stroke-color-green" : 1.0,
                      "default-stroke-color-red" : 1.0,
                      "default-stroke-width" : 6.0,
                      "default-translation0" : 0.0,
                      "default-translation1" : 0.0
                    },
                    "animationTracks" : {

                    }
                  },
                  {
                    "id" : 341,
                    "_type" : "Callout",
                    "def" : {
                      "kind" : "remix",
                      "shape" : "shape-ellipse",
                      "style" : "urban",
                      "fill-color-blue" : {
                        "type" : "double",
                        "defaultValue" : 0.0,
                        "interp" : "linr"
                      },
                      "fill-color-green" : {
                        "type" : "double",
                        "defaultValue" : 0.0,
                        "interp" : "linr"
                      },
                      "fill-color-opacity" : {
                        "type" : "double",
                        "defaultValue" : 0.0,
                        "interp" : "linr"
                      },
                      "fill-color-red" : {
                        "type" : "double",
                        "defaultValue" : 0.0,
                        "interp" : "linr"
                      },
                      "height" : {
                        "type" : "double",
                        "defaultValue" : 260.283188743699,
                        "interp" : "linr"
                      },
                      "stroke-color-blue" : {
                        "type" : "double",
                        "defaultValue" : 0.964705882352941,
                        "interp" : "linr"
                      },
                      "stroke-color-green" : {
                        "type" : "double",
                        "defaultValue" : 0.172549019607843,
                        "interp" : "linr"
                      },
                      "stroke-color-opacity" : {
                        "type" : "double",
                        "defaultValue" : 1.0,
                        "interp" : "linr"
                      },
                      "stroke-color-red" : {
                        "type" : "double",
                        "defaultValue" : 0.0431372549019608,
                        "interp" : "linr"
                      },
                      "stroke-width" : {
                        "type" : "double",
                        "defaultValue" : 11.1666666666667,
                        "interp" : "linr"
                      },
                      "width" : {
                        "type" : "double",
                        "defaultValue" : 285.876106194826,
                        "interp" : "linr"
                      },
                      "fill-style" : "solid",
                      "horizontal-alignment" : "center",
                      "stroke-style" : "solid",
                      "vertical-alignment" : "center",
                      "textAttributes" : {
                        "type" : "textAttributeList",
                        "keyframes" : [
                          {
                            "time" : 0,
                            "value" : null,
                            "duration" : 0
                          }
                        ]
                      }
                    },
                    "attributes" : {
                      "autoRotateText" : true
                    },
                    "parameters" : {
                      "translation0" : {
                        "type" : "double",
                        "defaultValue" : 354.584070796151,
                        "interp" : "eioe"
                      },
                      "translation1" : {
                        "type" : "double",
                        "defaultValue" : -178.72566270381,
                        "interp" : "eioe"
                      }
                    },
                    "effects" : [
                        {
                          "effectName" : "DropShadow",
                          "parameters" : {
                            "angle" : {
                              "type" : "double",
                              "defaultValue" : 5.49778714378214,
                              "interp" : "linr",
                              "uiHints" : {
                                "userInterfaceType" : 0,
                                "unitType" : 0
                              }
                            },
                            "blur" : {
                              "type" : "double",
                              "defaultValue" : 10.0,
                              "interp" : "linr",
                              "uiHints" : {
                                "userInterfaceType" : 0,
                                "unitType" : 0
                              }
                            },
                            "color-alpha" : {
                              "type" : "double",
                              "defaultValue" : 1.0,
                              "interp" : "linr",
                              "uiHints" : {
                                "userInterfaceType" : 0,
                                "unitType" : 0
                              }
                            },
                            "color-blue" : {
                              "type" : "double",
                              "defaultValue" : 0.1216,
                              "interp" : "linr",
                              "uiHints" : {
                                "userInterfaceType" : 0,
                                "unitType" : 0
                              }
                            },
                            "color-green" : {
                              "type" : "double",
                              "defaultValue" : 0.1216,
                              "interp" : "linr",
                              "uiHints" : {
                                "userInterfaceType" : 0,
                                "unitType" : 0
                              }
                            },
                            "color-red" : {
                              "type" : "double",
                              "defaultValue" : 0.1216,
                              "interp" : "linr",
                              "uiHints" : {
                                "userInterfaceType" : 0,
                                "unitType" : 0
                              }
                            },
                            "enabled" : 1,
                            "offset" : {
                              "type" : "double",
                              "defaultValue" : 10.0,
                              "interp" : "linr",
                              "uiHints" : {
                                "userInterfaceType" : 0,
                                "unitType" : 0
                              }
                            },
                            "opacity" : {
                              "type" : "double",
                              "defaultValue" : 0.4,
                              "interp" : "linr",
                              "uiHints" : {
                                "userInterfaceType" : 0,
                                "unitType" : 0
                              }
                            }
                          }
                        }
                    ],
                    "start" : 3550,
                    "duration" : 32,
                    "mediaStart" : -9,
                    "mediaDuration" : 32,
                    "scalar" : 1,
                    "metadata" : {
                      "WinSubProjectDisplayName" : "",
                      "clipSpeedAttribute" : false,
                      "default-callout-shape" : "shape-rectangle",
                      "default-stroke-color-blue" : 1.0,
                      "default-stroke-color-green" : 1.0,
                      "default-stroke-color-red" : 1.0,
                      "default-stroke-width" : 6.0,
                      "default-translation0" : 0.0,
                      "default-translation1" : 0.0
                    },
                    "animationTracks" : {

                    }
                  }
                ]
              },
              {
                "trackIndex" : 8,
                "medias" : [
                  {
                    "id" : 342,
                    "_type" : "Callout",
                    "def" : {
                      "kind" : "remix",
                      "shape" : "shape-ellipse",
                      "style" : "urban",
                      "fill-color-blue" : 0.0,
                      "fill-color-green" : 0.0,
                      "fill-color-opacity" : 0.0,
                      "fill-color-red" : 0.0,
                      "height" : 233.522123893793,
                      "stroke-color-blue" : 0.964705882352941,
                      "stroke-color-green" : 0.172549019607843,
                      "stroke-color-opacity" : 1.0,
                      "stroke-color-red" : 0.0431372549019608,
                      "stroke-width" : 11.1666666666667,
                      "width" : 134.867256637301,
                      "fill-style" : "solid",
                      "horizontal-alignment" : "center",
                      "stroke-style" : "solid",
                      "vertical-alignment" : "center",
                      "textAttributes" : {
                        "type" : "textAttributeList",
                        "keyframes" : [
                          {
                            "time" : 0,
                            "value" : null,
                            "duration" : 0
                          }
                        ]
                      }
                    },
                    "attributes" : {
                      "autoRotateText" : true
                    },
                    "parameters" : {
                      "translation0" : 603.643069782034,
                      "translation1" : 186.3716814161
                    },
                    "effects" : [
                        {
                          "effectName" : "DropShadow",
                          "parameters" : {
                            "angle" : 5.49778714378214,
                            "blur" : 10.0,
                            "color-alpha" : 1.0,
                            "color-blue" : 0.1216,
                            "color-green" : 0.1216,
                            "color-red" : 0.1216,
                            "enabled" : 1,
                            "offset" : 10.0,
                            "opacity" : 0.4
                          }
                        }
                    ],
                    "start" : 3530,
                    "duration" : 13,
                    "mediaStart" : 0,
                    "mediaDuration" : 13,
                    "scalar" : 1,
                    "metadata" : {
                      "WinSubProjectDisplayName" : "",
                      "clipSpeedAttribute" : false,
                      "default-callout-shape" : "shape-rectangle",
                      "default-stroke-color-blue" : 1.0,
                      "default-stroke-color-green" : 1.0,
                      "default-stroke-color-red" : 1.0,
                      "default-stroke-width" : 6.0,
                      "default-translation0" : 0.0,
                      "default-translation1" : 0.0
                    },
                    "animationTracks" : {

                    }
                  },
                  {
                    "id" : 343,
                    "_type" : "Callout",
                    "def" : {
                      "kind" : "remix",
                      "shape" : "shape-ellipse",
                      "style" : "urban",
                      "fill-color-blue" : {
                        "type" : "double",
                        "defaultValue" : 0.0,
                        "interp" : "linr"
                      },
                      "fill-color-green" : {
                        "type" : "double",
                        "defaultValue" : 0.0,
                        "interp" : "linr"
                      },
                      "fill-color-opacity" : {
                        "type" : "double",
                        "defaultValue" : 0.0,
                        "interp" : "linr"
                      },
                      "fill-color-red" : {
                        "type" : "double",
                        "defaultValue" : 0.0,
                        "interp" : "linr"
                      },
                      "height" : {
                        "type" : "double",
                        "defaultValue" : 233.522123893793,
                        "interp" : "linr"
                      },
                      "stroke-color-blue" : {
                        "type" : "double",
                        "defaultValue" : 0.964705882352941,
                        "interp" : "linr"
                      },
                      "stroke-color-green" : {
                        "type" : "double",
                        "defaultValue" : 0.172549019607843,
                        "interp" : "linr"
                      },
                      "stroke-color-opacity" : {
                        "type" : "double",
                        "defaultValue" : 1.0,
                        "interp" : "linr"
                      },
                      "stroke-color-red" : {
                        "type" : "double",
                        "defaultValue" : 0.0431372549019608,
                        "interp" : "linr"
                      },
                      "stroke-width" : {
                        "type" : "double",
                        "defaultValue" : 11.1666666666667,
                        "interp" : "linr"
                      },
                      "width" : {
                        "type" : "double",
                        "defaultValue" : 134.867256637301,
                        "interp" : "linr"
                      },
                      "fill-style" : "solid",
                      "horizontal-alignment" : "center",
                      "stroke-style" : "solid",
                      "vertical-alignment" : "center",
                      "textAttributes" : {
                        "type" : "textAttributeList",
                        "keyframes" : [
                          {
                            "time" : 0,
                            "value" : null,
                            "duration" : 0
                          }
                        ]
                      }
                    },
                    "attributes" : {
                      "autoRotateText" : true
                    },
                    "parameters" : {
                      "translation0" : {
                        "type" : "double",
                        "defaultValue" : 603.643069782034,
                        "interp" : "eioe"
                      },
                      "translation1" : {
                        "type" : "double",
                        "defaultValue" : 186.3716814161,
                        "interp" : "eioe"
                      }
                    },
                    "effects" : [
                        {
                          "effectName" : "DropShadow",
                          "parameters" : {
                            "angle" : {
                              "type" : "double",
                              "defaultValue" : 5.49778714378214,
                              "interp" : "linr",
                              "uiHints" : {
                                "userInterfaceType" : 0,
                                "unitType" : 0
                              }
                            },
                            "blur" : {
                              "type" : "double",
                              "defaultValue" : 10.0,
                              "interp" : "linr",
                              "uiHints" : {
                                "userInterfaceType" : 0,
                                "unitType" : 0
                              }
                            },
                            "color-alpha" : {
                              "type" : "double",
                              "defaultValue" : 1.0,
                              "interp" : "linr",
                              "uiHints" : {
                                "userInterfaceType" : 0,
                                "unitType" : 0
                              }
                            },
                            "color-blue" : {
                              "type" : "double",
                              "defaultValue" : 0.1216,
                              "interp" : "linr",
                              "uiHints" : {
                                "userInterfaceType" : 0,
                                "unitType" : 0
                              }
                            },
                            "color-green" : {
                              "type" : "double",
                              "defaultValue" : 0.1216,
                              "interp" : "linr",
                              "uiHints" : {
                                "userInterfaceType" : 0,
                                "unitType" : 0
                              }
                            },
                            "color-red" : {
                              "type" : "double",
                              "defaultValue" : 0.1216,
                              "interp" : "linr",
                              "uiHints" : {
                                "userInterfaceType" : 0,
                                "unitType" : 0
                              }
                            },
                            "enabled" : 1,
                            "offset" : {
                              "type" : "double",
                              "defaultValue" : 10.0,
                              "interp" : "linr",
                              "uiHints" : {
                                "userInterfaceType" : 0,
                                "unitType" : 0
                              }
                            },
                            "opacity" : {
                              "type" : "double",
                              "defaultValue" : 0.4,
                              "interp" : "linr",
                              "uiHints" : {
                                "userInterfaceType" : 0,
                                "unitType" : 0
                              }
                            }
                          }
                        }
                    ],
                    "start" : 3550,
                    "duration" : 32,
                    "mediaStart" : -9,
                    "mediaDuration" : 32,
                    "scalar" : 1,
                    "metadata" : {
                      "WinSubProjectDisplayName" : "",
                      "clipSpeedAttribute" : false,
                      "default-callout-shape" : "shape-rectangle",
                      "default-stroke-color-blue" : 1.0,
                      "default-stroke-color-green" : 1.0,
                      "default-stroke-color-red" : 1.0,
                      "default-stroke-width" : 6.0,
                      "default-translation0" : 0.0,
                      "default-translation1" : 0.0
                    },
                    "animationTracks" : {

                    }
                  }
                ]
              },
              {
                "trackIndex" : 9,
                "medias" : [
                  {
                    "id" : 344,
                    "_type" : "AMFile",
                    "src" : 15,
                    "trackNumber" : 0,
                    "attributes" : {
                      "ident" : "旁白_vis2021 1",
                      "sampleRate" : 44100,
                      "bitDepth" : 16,
                      "gain" : 1.0,
                      "mixToMono" : false
                    },
                      "channelNumber" : "0,1",
                    "effects" : [
                        {
                          "effectName" : "NoiseReduction",
                          "parameters" : {
                            "denoiserAmount" : 20.0,
                            "denoiserThreshold" : 0.0,
                            "noiseProfile" : "OWoAPH2pEz2x9Qw+d6HTPcva6j2sp089E2dtPD6vPDwfl1A8ScjwPJTr1Txy35g8LaEAPTpegDyh\r\n+807XKYVO6TEeztxHEg8k5enPOCDljxR1SA80RNNO5P/FTsAUsA78qcaO7cppTsc2vE7qgSrO6lQ\r\n2jukqvI7h92AO2yWGzx+tZU8JitaPFzIyTuXwYE7uY9XO8aQ0Dvqq2I88amYPMnb9DtB2j87KTBk\r\nOzy52zoRSDw7OCjBO9xi/DtxwE88KlbqO3j0qDtWJH47VJnsO9JoxDuANhs8tJ+AO6Qz9Tth+oI8\r\nbGt3O1T1Nzzjhew74A0cPJAvITwici89BseWPGFNtDxkw7o7MRvlOmld0jryf386QXGZOrHMrzuA\r\ngR46FrCVOsPpWDsY4v07HUbYO1nLPjsw9w47wr3FOrnZ+Drc3FY7lUkJO7DAJDv2mAY7Bol9O6Gv\r\nIjui8ek64NliOq5vmTrG/ZM6bCYbO5q5tzpF2YA69unhOXdvJDkMXx461iVVOpU6tTmIPdU5NZ4C\r\nOrLzrDlzv6053gyzOSasszlLTgc5O7atOcYrxzkKtYw6r9cjOpoinjlRRog6Q9QHOqLsbTo5k0E6\r\n9U47OqgHGzq2DIw6xrvIOkIITzrGgR86I/hwOsTOFzq0IQU6isQ5OkIP9DmC+Bw6hsx0OYy4pDnt\r\nMqk5f6afOfFKnDnqIvc5SsRQOpXvdDp8CiE703psOwEALztW+4A6r36ROtKuGDoo4s852RrZOQKM\r\nhDmkgtY4CBe5OXJ5jDnBcjY5RM9jObGZ+DmyHG05aluSOaagETnIyGM5Jt2dOdUxnTmBHwU6PPyu\r\nOQ2PETl6x7k5tcInOtV63TnmcCY6dHftOUWtBzoIt6w5qk+GOf1mbTk4DT454wsLOh2HAjoY+ZY5\r\nyr2VOQQurzmqnRg5LDMFOZLQUjkvV1Q5/g1+OSlxFzlITz85XmAkOdDG/DjiIfM4htxWOREUlTqh\r\nwcw5VnaGOWCBXjn90lA5cKzvOWPrqzkL/o45sEFOOTkyMDpUc5s51oo9ORByjjlGCco52p/tORKy\r\n8Tnit2E51lY0Ofo+ATq6o3Y5Z021OYTVGDlRAq45zuyhOeA4ZDk52eE5nw91ORI2OzlB2R85fgab\r\nOY8bMjkQ1TA5cCaFOXju/Dh2ghM59YD8OFHmfzmnKiQ58YpfOXsbtzlCtX45yEWKOLGkLDkayH45\r\nRUrSOSltyTgvk1U5NT2NOY45EjnfihY5JFlqOTokTjlSlV45Ir54OQ1W5jifjjI5bWS5OfA8NDkO\r\nXs44QhjgOLbnOjkr+iw5hK5/Ocz3Azl6HF45q6DlOIJb2DiR79I4esU3OWtGjDg4gBM5cVloOdzR\r\nDTlkchs5GGg7OVSTtziXOeg4XazEOCiMADmz6Tw5ueqOOVcmeTmS4Ms4nI0UOUTLnjhAXjc56pkE\r\nOdXdBznEOY85PIy4OMxI5zgkSxk5r6oQObvARTnCtUo4LoVEONjrVjnfUsw4msCWOCWAQjlc/y45\r\nJ4KtOCzJrjjGJZ84BKXjOIHj2jhi+yE5rqqOOdCIIzm9fIM56Oo3OUSjtzmiT/M4Wiv3OJw6ETmO\r\nS8w53FJpOdbu1DiJSZs4DaoFOWqKWDkkyvU4GPIdOchJLDmxKwA54MMWOVgzmjgl75M44OcEOVPH\r\n3Dhmzdw4X9sOOb2CyTguC7Y4VgEmOTaQxDjBUAQ5dAM9OarFHjmfj444qMgAOWZMDDmSlas4yUZQ\r\nOaDeMTmPogU5Wxe1OF0m3Dh6aDQ5tbkIObjoEzlqqg45EPLvOKyF+zhUmiE57MvFOPg/vDiW+Vo5\r\nmhyzOGFsBTldBEw4dL3pOOk/QDnXnJQ467sNONFyxDfGPDM3rTsZN+BixjZrWTk338GlNhf/FTe5\r\nNTk2RTSUNkMj3Taj0d02is2UNt0UDDYUXvI1aeXFNhijMjbAtYc2ikWgNuphZDY8D1I28gSnNv4k\r\nLTZRYDk2mtYGN70P5DaWBKc2RzXfNlQFKTeHIYk2IpjaNofVszbqlaM2PatTNiKTzDYjx6M2BMHZ\r\nNiXEdDbJOMs2FNCMNsnGRja2BpI2UsiGNvm1vzbR74Q2wLCoNnn3jDa4fK82VqGlNrSAsTYwh5o2\r\n00guNguj5DYiuZI2yg0BN6PItzbTY6w2VXFINoLcTDbWIk82WJ/cNvx6HDZGdqc2ta/1NVwQMDaG\r\n9VE24mqONlq9rDaNiSE2Lay+NpqbcTYGZ3Q2KPqfNicegDbQyZw27RAtNyQhVjazoMU2izz9Npf0\r\njzbhrAg2zKY4Njo2yjZ1hZE2WNZsNrbfvDZiyp42KRFjNr96jjbjaI02RTYRNmwjhzapnyI2B4XY\r\nNltT7jUOLSY20oDqNhJrxDaCZWw2Ct+VNg/LgjZZzMA2Ik1JNrzQuDZxy901azNqNvW2eDaUuVs2\r\ngu+KNta85ja8P/M1FmShNp/ipjb1OIE21Q/2Nr5JmzYXtZU2x6+qNk6LmTZnjYw2mIJGNul2Jjbc\r\nO3A2lquYNuovLTYtgfE1nUlUNgQzNzaIsDM2DIvUNjKBRja+0oY2ExJ5NgPdJzZaSLQ2EtYgN0Wc\r\nDDbIHow2IiiZNgZUVTa1JnM2v3wcNoN3YDYCtgE38JaENkzoaDb0JTc26/WJNoqw9jYFxFI29vNP\r\nNmdCvDZHFIU2xxObNr0sUTblHoc2JrM/NmrbFDYX93o2m4OpNgs6HDaFNl02Rb2TNpjkJjYAADk2\r\n/8chNn7/QTawezM30gsqNidJ8zWKfC02kBYuNmSnnTa80FY2mFN3NkYZWzY4aO41UHmKNkyZiDYh\r\nGC42h1Y6Np6cgzYSij81AnuaNnc6rzZUXG82vp9eNp4h/jWNsEY2k603NuKSjDbHWSo2RxYINlNS\r\nmTaAOlU2yvJmNkqftzZ5VEk26hV8NjWLezbKM9Y1ernFNWi/XDZaEHQ2dhvANhDaRjYMwy82EwC4\r\nNlCNVTbH4IU2Cx1LNk6XlDbcVNA2FB33NQHMjzY6eW02jpZONqrdMTa+lxk267lUNkhoNDZz+TQ3\r\nwulaNoXxEjYQdsQ2lXEcNsiYOjbfz9o2UzpENvQL0TSOQIM10f8gNcLzLzX5w2c1H4efNN2VyTQO\r\nn70011tKNT7aKTUG8/w0QEgiNUCRKjWhXKI03LYLNQzSrjUnb9E0iB65NCpfLzVs4tk0emppNQtw\r\n8zTy2+U0USoLNeRnDTU88Uc19BfdNFPdNDVtA7Q09QQJNdJhKTXqRNg0am3RNG251DQ1KrA0Oj/Y\r\nNOrxkjTQ8cI0+3eXNEYitDR9exs1YvMdNUBR5DR0pQE1EGj5NAq8KTXmxKs0ErgPNTXAAjVM71g1\r\n2McYNch2PjVA3vs0HZGgNJEIOTWY3M40B5RGNGfgUDUIWUw1AAKQNPuJvjRnt4w0M0qUNPpcxjR3\r\nCM0000dJNZjtnTSx6rQ09gISNSzUKjVHscM0TBtXNYWZEDWjpck07HS+NMuEnzTVZ0U1duMGNWCg\r\n6jTs3880YBEXNT+XujRa3bk0wUISNadMADU5AQ411F8ONePs/jS0pjA105FENQ/HnjQmcwg1WPKH\r\nNFq2nTSuOLI0S9MpNbyI/zTAPso0+sXPNPLB3DTur8o0PLbHNPmbnzT+MvY0YjqvNCUXJTXMJp80\r\nndUPNWmVEjXazkY1O5DgNMl4gzVmyAY1rYEfNXmSQTWIrhU1ikoVNSCqpDTaEbY0/AvpNLIwhDSh\r\nIww1MCwENb5Y/zSUBhw1UowYNbXtpzTvlg4155xcNZhCrDRWs9U0k616NIzznjRmnAQ1Khq/NEm9\r\nCTUki940fgEVNZA1JzWkzqg0RtjuNI+WjTW0QRg1omMcNXzDIDUDHKI0NVu3NMMpRDVCjIo0ViIs\r\nNfxAITWCVB81HXTcNB0NXDWG+bE03vcdNf6QMzXAn8s0Eg/NNATJsTQE9U01LMELNX7DoDSIEB41\r\nwLEGNUVbzTQ8Pwo1QFCINBFgFTVn0vo0JOCjNNaR8zQ1vx41DXUDNak+EjUNQYo08gC7NFzPoTSI\r\n7RU1kpUbNYXvKzWOx240VWf0NGRuBzU6PIo0wlCGNT7g9jSWZjw1Ml4BNRvl6jTQR3w1lmHdNGfd\r\nITTobvU0ypuvNEpF+jTjNY40JYO7NCfBbzQijsA0us84Na6J8TQIYwU1V3IrNSwmYTXQ1kU0zKTc\r\nNDTVfzTj6to0SbOuNHwCvTQ/eR01mcuPNPTduTRDjf806a+nNAj20DREKOo0nPlPNQTe+zQNWSo1\r\nlpGmNBv9xzT/tzk1CtkQNapg2jSMQlI1MDUTNRhOMjWh56Q0AygANa8srzRbOwQ187XxNOQlwDSQ\r\nNO80mTAVNaBD6TQbeoo0UM6FNHPMCjV4t7k0gIxkNE02BjXYBQo1AhAcNWJMijS64uA0zd0JNXWm\r\nEDWiijY1ZpSXNNpWpzTYT+k0QHbzNDaorzSGDHs0qT7ONBvuhzSyYys1dPYCNQdToDTk8uU0MwYH\r\nNWYw+TRbj4g1aJxzNHlxCDVIE8c0Nl2SNOyilTRoqUs1KtMvNbhJPjVmcCE12eGANQ1X8jSNKZo0\r\ndGHdNGrcDjXxZ0A0JhPPNJb14jSwx8o0morUNDmP2DTubH40SSbdNE1r7TRT3rk0EZGLNP35LjV1\r\n1640P7XhNLEsczQldYc02X7eNAZ67jSawbI0drgeNb6GtzSMN9U00j4cNQhrBzWSqgw14dAnNYUF\r\nnDTQSpg0P9OMNOHDLTULMsI0QH6VNI2nxDSl5Yc0WHyLNCaeLDXnc6Y0AaCFNBQP7TTJzR41kvoE\r\nNRykHjU6wZw0+cjVNJdR1TSiQQU10AuONaiUkzUExgY1MMYONaRkZTT9EAU11Bu0NC2j3jTIM4A0\r\nal8cNSoRTzXbrSk1FTDYNEBqkjTgDwA1sun9NP5ztDRWob80HSSSNGYkGDWnkuM0RaMANeGLITXo\r\nTow0GNvbNJlRuzSgsOY0CpP5NMVL9jRRErs0aS1TNVNWgDSmPp80Gvy3NBnwGDXWr7M0dB/VNIw8\r\n0DQBkZ410iF5NDXYLTVZSxU1T0S6NHIrqTRzbRA1XDWKNA2phjRVwpo0SPJ1NGzsODX8K6Y0ne6l\r\nNNU3JjWsl7M0wb+kNKhE5TQUaN8041HRNPhNtTRpfuQ09awXNcwLtDS6nqA0qbk4Nbg8qTQ3pSA0\r\nkRS8NLXO0DRqdcQ0b//eNLPvrDQGQu00fPstNS/HMTWPJMc0fIrENBIciDSLv/k00iuaNNjgPDWm\r\not00DFkCNfHQhDTO4qY0xTYDNbDSOTWNTjA1dLcPNZB1uzQDUrY08mkFNZaNRjXzzK00ErsDNVeQ\r\n3zS5HxA1pmTINLQDBTWIxP008Ny+NADrGDWeipI0eMHvM5R6CTWA3x01wRO2NE0PBDXZKrU0GFyV\r\nNOCJrzSgxtE0tQR+NKJP0zTmcMA0zgvvNFJN7TT5eA41x/eHNAie2jTBXoU1JbdYNQAAEDUAZAE8\r\nF6YTPaE6DT5EKNM9dQ3rPVEOUD0ioW480q89PCfdUDzbEfI8OKDUPGwsmDxHYgE9amiBPGR1zjsP\r\nPhU7a3x7OyhGRzygj6g8mBGWPCuBIDwy9E47Dr4TO1iRvDsOzBo7Kk6nOyjG8juQWao70ZvWOxbH\r\n8zuU8n07aPEbPGxKlzygoVs8TMfIO9+xhDsybFY7q+rTO/L8YTx2ZJg8LVf1O0mYPjuCWmQ7fLXf\r\nOt2APzt7zMI7O4D+Ox50Tzw8t+w7lE+pOzStezsIHeo7gHbGO/xxGTz7XIA7vAj1O108gzyol3g7\r\ntww5PFZa6zv7yxw8BjMgPKnvLj13cpY8hhS0PDysuTskGOc6fsrQOrACgDqdYpQ6nrawO0mtIzpq\r\niZQ6oWVXO4pL/Dsyi9U7isI/O5AADzuqPMM6Xcz3OuCjVjsJJAU70nAkO3xeCzuPI4E7G4YiO1p8\r\n7jrINmQ6RKiWOkNYjzquKxk7L5jEOkefiTpiBN05wkIqOcZGDTp6g046RrOpOQ6EwjmtPgQ6e2Gc\r\nOSSjpDlo8ZU55XS9ObmuBzlz4785N8m2OWCrjzo4vB06uHOTOSQohDrAdAk6ttpzOqV9QjpzGTY6\r\n3XEaOsgBjjqKt8k6HvZMOicoGjocq2w6ap4WOhHEADrfCzk63skBOgeJHDrUTnI5YkuiObHDpjmu\r\nSKM5/cCSOf1k+zmMGlI6inluOu+YIDu89m07RVI0O6+Kgzr+5446GKYWOsGMzDkpPtU5IguVOWYu\r\n0Thu2rs5wj2KOYr0Szln8mE5OIzqOdZKbDmJnpY5zvoYORbfcjmJJb45rPudOReeBTpaM7A5gOEv\r\nOfU4rjmBKBo6bN3fOQHYIDpCxO45IMMKOhDuqjnu5385nKuKOcsUJTnO6QY6IssJOqWwlTkE/nk5\r\n982pOYJKFzlMEgc5kM8qOTzQSjkjjFw5oLMhOb3XTTlwQiA5qwrfOFyxBDkkj0w5MGaVOpPkyzkA\r\nWYw5x/dWOdTGaDnThQM6cUq4OS/ykTn8pTU5cg8tOjmUnzmJETc5yAicOQHqsTm7VQY6AgbzOcxp\r\nYTnUlDk5COb3OVNucjnJjtA5lvYsOVSTlDlbCZA5jieCOevY/jld/5M5ZAsQOQCjIjmaXZk5X2sk\r\nOaKvQDn3w2A5sFLsOCInSDnjTPU4Pw52ORiOFTnxB085aOe5Oeymfzkdh5Q4b9kUOTcjiDlltOQ5\r\nW97hOK93TDk6TJo5GxUROfmZKDmqWVg5gnArOZiUUTljp2g5VN4COa51OjmCG6857I8hOQJUyDiy\r\nFeY4PzlIOQnaEjkNa105LJgJOedSTTmft9w4RFvhOEMPBjkBNUc5IxKaOKB0AzlHK0Y5uzfsOA7s\r\nCTnIO1A5K33WOKFk2jjp16849C8QOWZpPTn28K85JD91Ocr4pTiAdCY50TmeOH4OPTl/1vM4rUTC\r\nOKr9azkWMbo4F7ngOLhyVDn8tgw5pjZnOXrXVTgwxCo4OQx/OXmv4TiOkZs4EjRhOc/BKzm9HJg4\r\nmNmEOBptqTgOwN44isnuOMjHEDkVGqA5ZsgfOcwJgTn/qS85F5G9OSUi8Th4/wU58kwEOcGM0znk\r\nW1o5KBbSOPxmrjgoieg4mOJqOacY5jhwBhY5iXUjOeCfAjn89RI53mOTOE5nnDgXwQo59x/YOLsN\r\nvzisAgg5ZZXBONJSyTg4ChA5g0OvOOLhCzk2PkQ5yZUgOf1/lTgIavM4G5cEObRwszj5plM54Ngg\r\nOTpfCjmgXsE4/c7tOPbIHjng2QM52pkWOVEIBjnWdfE44lgEOVkCJTm3Js04paCwOJruaDnED7c4\r\nlngHOd1wSThLgdw4+MM6OWkNiTjQTig4ZOnTNxI6RTeeDew2cZ29Nv7NAjclhNM2iMnzNsyKczZM\r\nTqE2NwIANyN0CjdyN5Q2WgazNq/6RTZdvu82CgJ2NnBTbzZ2Y8g2nCmlNornMTbyM/U2XdYuNnYx\r\nDDZETwI3eL+nNkEyGTdWc042Yb0WNzGqlDaNeNI2vHqNNkA4sDYmdYE2+cmANhHYVzaKnIs2sgCG\r\nNgmRtTZMoZo22v10NnRMhzYJ96I2OKTLNuYomzb9GYQ2aZ4gNg34YTYuHZo2W3zKNg54fjYZjkw2\r\nf2wUN3Od0TYrN5w2qv+fNtmNlTawHlI20q1xNtWcgzbalsQ2aqh0NqiRqzZJr+Y1tKkfNvwthjbs\r\njso2aMOjNjtLWzaqzNg2QuVVNvmDcTZsOcU2ODthNmCKmjZkwsw2JO2RNrvV7zZ/j5g2X3SCNuWv\r\njDatdLA22aTFNuHopjZGQ1k280BwNm9ZdzZuF3o2uV16NukrgjZ0cmI2oP0yNtheUDbrCZM2IZD3\r\nNcjiiDbmV9M2x6S6NnU/pzZADwg2huV1NusKwzZOBTQ2+FGNNgbaCjZtFJo2oEWzNnsKijZWeO02\r\nGtuJNu8IdjY49Yg2Mr2ANg3ZzjZiM+s2PSKeNoMphDa/F582hoJcNt0QxjZWOKM2KJ8XNqxVQjbY\r\ngaI2GZ6aNs0bpTU+g5g2tEowNtIkZDYOlas2ZR1xNtIkgzZRo4A2kxo0Nq+R7DZCmS43Jnh6NgQS\r\nbDb4RYg2lNw9NuvPkzYiw3I2yo89NhID7TYcIIw26OkjNrMkKzbG26s2fgyyNkykhTarGu41ZVyZ\r\nNs59hja4/3g2DVwlNg8S/DWud6U2N9IvNgCXSjbgmnM2uSBPNn7iXza+E8Q2IrczNgAgGTbUpLw1\r\nmKpzNoJSGzdiAoM2ZpDFNfrlFDY4tAI2RI+mNgX6UTb+VoU2addaNhrNCTZZFHA2uMncNXzMSzbJ\r\nKYk2chpoNlUqsTVQL942eABrNmzNjTZ3X0o2gnWBNn72gTZLTEE2lwQzNgfuCjaKZ0A2Cn+pNqDa\r\nNzbbTXE2Jn7UNu4UKDZVMoQ2j46fNsCxMzbOjB026lnINRYmezYubI02j29ONiv6jzYkvQU24bo/\r\nNlRyPzacL0c24hOWNpYhiDbn4/U1XMKXNjdHgzYwUO01kmwQNsrkGjZWzx02IdkDNtNSCTdR2VE2\r\nthtfNuRpyzaptiM2tEQ0Nkz1XDaF2zA2q9VKNcwlKDW1Wt007vuJNFq4yzRjGzI175BhNbYW/jTC\r\n50I1fp2dNJ2JFzXcfBY1j6wVNck7ADXKUgk1IqzANOh0JjVVrrw0Msw2NZKFGTUaPUI1fBNaNcVN\r\nSTUON7Q0P4fQNFKuFzUxPlU1sICqNGd1ajTm2QI1i7CcNE6RhzRis6A0+Hg7Nbaz2zTd5O41Lo6Q\r\nNCC46jRqY4k02LwPNQsD+zQS2kY1DgsZNQCcHDWKMa00NY4gNbBtFDXqiRc1oiMKNXSGhzRgRxs1\r\nsvCONXglnTQaJsk0VZcVNTwSAjVbovE0HAgiNYYOkDWs+Bk1NoTxNOmQHzWwgbI0cTRKNEIM5zRm\r\n0Eo1Lt3NNDT7uTSlUH81fpTdNNbDuDR5QIA1bivBNDg8tDTqSAw1juzKNPjckTXYQus0QHrGNAe/\r\nzjT+Kxk1k1EENS6XETW7x+g0SgvDNLGCvzSIgvk0RU2fNNSwojQOc7k03IPMNCf6ETV8ef00kiUz\r\nNaCP5DSyjgI1NzurNDzYBDVnrxg1wWfANHpDdjTTMLM0SyeuNCZrpDTpSwg1kQXWNKnmtjTd4L00\r\nCjEvNe+3XjWZAko1Ym35NPTQoTRMXRI1/Kv1NNnw+TREn580ApgENQioMTUc6Qw1wGDtNMWVAjX6\r\nRmI1CN1MNL0nqzQdttc0yKQdNbOO9jSg9bU00Ta0NPpG8jRwfn81zM+VNG1DtzQjBjQ133YnNRiY\r\nzzSD58A0vVEGNeQz7TQc+8c0alDxNOYeqTRZjwM1A1X7NKFF9DRfJtM0Vc0BNUYGIjUIksE0MIwp\r\nNYA4xDQyT2E0+rrONBaUKjWcVbs0lgEXNQhoLjVqYfM0QkIHNXxZBjWjN9A04CoHNf4JgzRmC1I1\r\nHvk2NR48nDSMgG00Zf32NNotNDWhucs0OhP6NCbLvjSa08g0UXkUNWHkGjU2b7M0Jjf1NNWAHTX2\r\nAKk0D22rNDpwCjVAdSE1wIe3NKki1DQ7h1c0c56RNM+EHDWeNvs0MQ70NEBr+DSzItM00gbWNHQw\r\nKDULfMQ0x//kNPxv2TTQtDM1WH4UNV82NTXQGQs1zfzkNE4e5zQRzgg1/pbnNGCS0TTOFd40v6/x\r\nNAS1tjRCvqU0IwneNHHchzWWIeA0UM+4NK8f9TRyIZM0h7UINdtvGDWwIMU0f+g7NQZH3jSvXyg1\r\nQFDUNEfN1zTFaJE0vTVhNZhtEzVsOCo1lI2DNKvBcDU7hyA1G3lgNdKy/jT5BOE0W5yZNMVKxTQt\r\nffo0UfUYNfYY1jRmNic1cjOcNHhM3TQltw01y+wGNdUXAzWjaYQ1EAGsNAMnHTXG2Ok0b2sZNdaU\r\nnTTqTu80BYtpNRavBjXpXoY0gY8TNRz6MzTZ+bU0CwEyNeatmjTYpAw1XQ0NNS4fMDUD3N80w5kB\r\nNbZ+wDSHwM80LsdINflVQTXijxU12ckXNexXHTV3aAk1Y0gINRwPEzWrSkk1gEhcNcKckzRnQdM0\r\nylE8NZTlGjWZRXo1mYPiNKOIGDX9VSk1SDywNE/uAjVE05U0/LpeNYJ8uDT+TwI1K57TNKdFFTVQ\r\nmmw1bxHxNNasyjTwQdg0uDi0NKQl/jRwNLM0eBffNHVFvDRC6IA0QxjQNA8uczQLG6o0fGK7NO7j\r\nmzQBYqc0PLzWNLgI9DTcW6Q0a0AZNYg9STUbsVQ1+5sfNVyxoTRchak0ZlS/NIZF8DQC/LA0KHW2\r\nNAKVBzVhPRg1IxGrNNrwCDVtxBU1lnAcNYeauTTwp/s0RXHANLDJwzTVLtw0yWgLNdyaGTVZOe00\r\nJFcoNZ6B7TQG/MU0+DEUNQFt/DRtlSo14IBuNQxXyzRAZsw0OmxvNepc4TQsbOo0BX5pNeLZFjVa\r\nUP00/NC+NDfFxzSk/Jk0Xv9WNFcJFTUkCfs0nPhONWb3szQLn8U07ItQNLGo0DSMwQE17Z/PNNec\r\n0zRaof0076bINOo8GzXNlYU0hEQkNTyH5jT2YwU1rPNDNQ/OwzRUsuM0rNi/NPhc8DQKmUg1hNDu\r\nNFsmCjUDuzw1VasyNef7cjVSnrA0plT5NKXLhzSFNZ00Ed+nNCFdUDUWMQI1JJnbNNcqvjQMb+40\r\nMCZxNWBYzTTT7DQ1EXZRNffmaTV+3a80W4eUNHE8DjXgGu40gRDrNBPuqjTmEDY1ol3ONJbeJTVU\r\n2RE1pL7HNICD5TRWWw816jZdNU5+4zSdEBA1+UiKNPe7OzXoSB81ciQHNY2hujSihSE1Zmy4NC66\r\njjSDV6M0zDuqNH8orDToE6s0mAmlNNh/LDUtZTA1POHGNHfLdzTbIis17ZIdNZocBDVvRKE0QmwB\r\nNYXQijQkWAs1oC2hNA2Z5TSh2c00fEGaNMT8ujTDZ5w0Y1z7NI2ELjWyxiA1AEAcNQ==",
                            "noiseTrainingType" : "default"
                          }
                        }
                    ],
                    "start" : 136,
                    "duration" : 173,
                    "mediaStart" : 0,
                    "mediaDuration" : 173,
                    "scalar" : 1,
                    "metadata" : {
                      "WinSubProjectDisplayName" : "",
                      "clipSpeedAttribute" : false
                    },
                    "animationTracks" : {

                    }
                  },
                  {
                    "id" : 345,
                    "_type" : "AMFile",
                    "src" : 15,
                    "trackNumber" : 0,
                    "attributes" : {
                      "ident" : "旁白_vis2021 1",
                      "sampleRate" : 44100,
                      "bitDepth" : 16,
                      "gain" : 1.0,
                      "mixToMono" : false
                    },
                      "channelNumber" : "0,1",
                    "effects" : [
                        {
                          "effectName" : "NoiseReduction",
                          "parameters" : {
                            "denoiserAmount" : 20.0,
                            "denoiserThreshold" : 0.0,
                            "noiseProfile" : "OWoAPH2pEz2x9Qw+d6HTPcva6j2sp089E2dtPD6vPDwfl1A8ScjwPJTr1Txy35g8LaEAPTpegDyh\r\n+807XKYVO6TEeztxHEg8k5enPOCDljxR1SA80RNNO5P/FTsAUsA78qcaO7cppTsc2vE7qgSrO6lQ\r\n2jukqvI7h92AO2yWGzx+tZU8JitaPFzIyTuXwYE7uY9XO8aQ0Dvqq2I88amYPMnb9DtB2j87KTBk\r\nOzy52zoRSDw7OCjBO9xi/DtxwE88KlbqO3j0qDtWJH47VJnsO9JoxDuANhs8tJ+AO6Qz9Tth+oI8\r\nbGt3O1T1Nzzjhew74A0cPJAvITwici89BseWPGFNtDxkw7o7MRvlOmld0jryf386QXGZOrHMrzuA\r\ngR46FrCVOsPpWDsY4v07HUbYO1nLPjsw9w47wr3FOrnZ+Drc3FY7lUkJO7DAJDv2mAY7Bol9O6Gv\r\nIjui8ek64NliOq5vmTrG/ZM6bCYbO5q5tzpF2YA69unhOXdvJDkMXx461iVVOpU6tTmIPdU5NZ4C\r\nOrLzrDlzv6053gyzOSasszlLTgc5O7atOcYrxzkKtYw6r9cjOpoinjlRRog6Q9QHOqLsbTo5k0E6\r\n9U47OqgHGzq2DIw6xrvIOkIITzrGgR86I/hwOsTOFzq0IQU6isQ5OkIP9DmC+Bw6hsx0OYy4pDnt\r\nMqk5f6afOfFKnDnqIvc5SsRQOpXvdDp8CiE703psOwEALztW+4A6r36ROtKuGDoo4s852RrZOQKM\r\nhDmkgtY4CBe5OXJ5jDnBcjY5RM9jObGZ+DmyHG05aluSOaagETnIyGM5Jt2dOdUxnTmBHwU6PPyu\r\nOQ2PETl6x7k5tcInOtV63TnmcCY6dHftOUWtBzoIt6w5qk+GOf1mbTk4DT454wsLOh2HAjoY+ZY5\r\nyr2VOQQurzmqnRg5LDMFOZLQUjkvV1Q5/g1+OSlxFzlITz85XmAkOdDG/DjiIfM4htxWOREUlTqh\r\nwcw5VnaGOWCBXjn90lA5cKzvOWPrqzkL/o45sEFOOTkyMDpUc5s51oo9ORByjjlGCco52p/tORKy\r\n8Tnit2E51lY0Ofo+ATq6o3Y5Z021OYTVGDlRAq45zuyhOeA4ZDk52eE5nw91ORI2OzlB2R85fgab\r\nOY8bMjkQ1TA5cCaFOXju/Dh2ghM59YD8OFHmfzmnKiQ58YpfOXsbtzlCtX45yEWKOLGkLDkayH45\r\nRUrSOSltyTgvk1U5NT2NOY45EjnfihY5JFlqOTokTjlSlV45Ir54OQ1W5jifjjI5bWS5OfA8NDkO\r\nXs44QhjgOLbnOjkr+iw5hK5/Ocz3Azl6HF45q6DlOIJb2DiR79I4esU3OWtGjDg4gBM5cVloOdzR\r\nDTlkchs5GGg7OVSTtziXOeg4XazEOCiMADmz6Tw5ueqOOVcmeTmS4Ms4nI0UOUTLnjhAXjc56pkE\r\nOdXdBznEOY85PIy4OMxI5zgkSxk5r6oQObvARTnCtUo4LoVEONjrVjnfUsw4msCWOCWAQjlc/y45\r\nJ4KtOCzJrjjGJZ84BKXjOIHj2jhi+yE5rqqOOdCIIzm9fIM56Oo3OUSjtzmiT/M4Wiv3OJw6ETmO\r\nS8w53FJpOdbu1DiJSZs4DaoFOWqKWDkkyvU4GPIdOchJLDmxKwA54MMWOVgzmjgl75M44OcEOVPH\r\n3Dhmzdw4X9sOOb2CyTguC7Y4VgEmOTaQxDjBUAQ5dAM9OarFHjmfj444qMgAOWZMDDmSlas4yUZQ\r\nOaDeMTmPogU5Wxe1OF0m3Dh6aDQ5tbkIObjoEzlqqg45EPLvOKyF+zhUmiE57MvFOPg/vDiW+Vo5\r\nmhyzOGFsBTldBEw4dL3pOOk/QDnXnJQ467sNONFyxDfGPDM3rTsZN+BixjZrWTk338GlNhf/FTe5\r\nNTk2RTSUNkMj3Taj0d02is2UNt0UDDYUXvI1aeXFNhijMjbAtYc2ikWgNuphZDY8D1I28gSnNv4k\r\nLTZRYDk2mtYGN70P5DaWBKc2RzXfNlQFKTeHIYk2IpjaNofVszbqlaM2PatTNiKTzDYjx6M2BMHZ\r\nNiXEdDbJOMs2FNCMNsnGRja2BpI2UsiGNvm1vzbR74Q2wLCoNnn3jDa4fK82VqGlNrSAsTYwh5o2\r\n00guNguj5DYiuZI2yg0BN6PItzbTY6w2VXFINoLcTDbWIk82WJ/cNvx6HDZGdqc2ta/1NVwQMDaG\r\n9VE24mqONlq9rDaNiSE2Lay+NpqbcTYGZ3Q2KPqfNicegDbQyZw27RAtNyQhVjazoMU2izz9Npf0\r\njzbhrAg2zKY4Njo2yjZ1hZE2WNZsNrbfvDZiyp42KRFjNr96jjbjaI02RTYRNmwjhzapnyI2B4XY\r\nNltT7jUOLSY20oDqNhJrxDaCZWw2Ct+VNg/LgjZZzMA2Ik1JNrzQuDZxy901azNqNvW2eDaUuVs2\r\ngu+KNta85ja8P/M1FmShNp/ipjb1OIE21Q/2Nr5JmzYXtZU2x6+qNk6LmTZnjYw2mIJGNul2Jjbc\r\nO3A2lquYNuovLTYtgfE1nUlUNgQzNzaIsDM2DIvUNjKBRja+0oY2ExJ5NgPdJzZaSLQ2EtYgN0Wc\r\nDDbIHow2IiiZNgZUVTa1JnM2v3wcNoN3YDYCtgE38JaENkzoaDb0JTc26/WJNoqw9jYFxFI29vNP\r\nNmdCvDZHFIU2xxObNr0sUTblHoc2JrM/NmrbFDYX93o2m4OpNgs6HDaFNl02Rb2TNpjkJjYAADk2\r\n/8chNn7/QTawezM30gsqNidJ8zWKfC02kBYuNmSnnTa80FY2mFN3NkYZWzY4aO41UHmKNkyZiDYh\r\nGC42h1Y6Np6cgzYSij81AnuaNnc6rzZUXG82vp9eNp4h/jWNsEY2k603NuKSjDbHWSo2RxYINlNS\r\nmTaAOlU2yvJmNkqftzZ5VEk26hV8NjWLezbKM9Y1ernFNWi/XDZaEHQ2dhvANhDaRjYMwy82EwC4\r\nNlCNVTbH4IU2Cx1LNk6XlDbcVNA2FB33NQHMjzY6eW02jpZONqrdMTa+lxk267lUNkhoNDZz+TQ3\r\nwulaNoXxEjYQdsQ2lXEcNsiYOjbfz9o2UzpENvQL0TSOQIM10f8gNcLzLzX5w2c1H4efNN2VyTQO\r\nn70011tKNT7aKTUG8/w0QEgiNUCRKjWhXKI03LYLNQzSrjUnb9E0iB65NCpfLzVs4tk0emppNQtw\r\n8zTy2+U0USoLNeRnDTU88Uc19BfdNFPdNDVtA7Q09QQJNdJhKTXqRNg0am3RNG251DQ1KrA0Oj/Y\r\nNOrxkjTQ8cI0+3eXNEYitDR9exs1YvMdNUBR5DR0pQE1EGj5NAq8KTXmxKs0ErgPNTXAAjVM71g1\r\n2McYNch2PjVA3vs0HZGgNJEIOTWY3M40B5RGNGfgUDUIWUw1AAKQNPuJvjRnt4w0M0qUNPpcxjR3\r\nCM0000dJNZjtnTSx6rQ09gISNSzUKjVHscM0TBtXNYWZEDWjpck07HS+NMuEnzTVZ0U1duMGNWCg\r\n6jTs3880YBEXNT+XujRa3bk0wUISNadMADU5AQ411F8ONePs/jS0pjA105FENQ/HnjQmcwg1WPKH\r\nNFq2nTSuOLI0S9MpNbyI/zTAPso0+sXPNPLB3DTur8o0PLbHNPmbnzT+MvY0YjqvNCUXJTXMJp80\r\nndUPNWmVEjXazkY1O5DgNMl4gzVmyAY1rYEfNXmSQTWIrhU1ikoVNSCqpDTaEbY0/AvpNLIwhDSh\r\nIww1MCwENb5Y/zSUBhw1UowYNbXtpzTvlg4155xcNZhCrDRWs9U0k616NIzznjRmnAQ1Khq/NEm9\r\nCTUki940fgEVNZA1JzWkzqg0RtjuNI+WjTW0QRg1omMcNXzDIDUDHKI0NVu3NMMpRDVCjIo0ViIs\r\nNfxAITWCVB81HXTcNB0NXDWG+bE03vcdNf6QMzXAn8s0Eg/NNATJsTQE9U01LMELNX7DoDSIEB41\r\nwLEGNUVbzTQ8Pwo1QFCINBFgFTVn0vo0JOCjNNaR8zQ1vx41DXUDNak+EjUNQYo08gC7NFzPoTSI\r\n7RU1kpUbNYXvKzWOx240VWf0NGRuBzU6PIo0wlCGNT7g9jSWZjw1Ml4BNRvl6jTQR3w1lmHdNGfd\r\nITTobvU0ypuvNEpF+jTjNY40JYO7NCfBbzQijsA0us84Na6J8TQIYwU1V3IrNSwmYTXQ1kU0zKTc\r\nNDTVfzTj6to0SbOuNHwCvTQ/eR01mcuPNPTduTRDjf806a+nNAj20DREKOo0nPlPNQTe+zQNWSo1\r\nlpGmNBv9xzT/tzk1CtkQNapg2jSMQlI1MDUTNRhOMjWh56Q0AygANa8srzRbOwQ187XxNOQlwDSQ\r\nNO80mTAVNaBD6TQbeoo0UM6FNHPMCjV4t7k0gIxkNE02BjXYBQo1AhAcNWJMijS64uA0zd0JNXWm\r\nEDWiijY1ZpSXNNpWpzTYT+k0QHbzNDaorzSGDHs0qT7ONBvuhzSyYys1dPYCNQdToDTk8uU0MwYH\r\nNWYw+TRbj4g1aJxzNHlxCDVIE8c0Nl2SNOyilTRoqUs1KtMvNbhJPjVmcCE12eGANQ1X8jSNKZo0\r\ndGHdNGrcDjXxZ0A0JhPPNJb14jSwx8o0morUNDmP2DTubH40SSbdNE1r7TRT3rk0EZGLNP35LjV1\r\n1640P7XhNLEsczQldYc02X7eNAZ67jSawbI0drgeNb6GtzSMN9U00j4cNQhrBzWSqgw14dAnNYUF\r\nnDTQSpg0P9OMNOHDLTULMsI0QH6VNI2nxDSl5Yc0WHyLNCaeLDXnc6Y0AaCFNBQP7TTJzR41kvoE\r\nNRykHjU6wZw0+cjVNJdR1TSiQQU10AuONaiUkzUExgY1MMYONaRkZTT9EAU11Bu0NC2j3jTIM4A0\r\nal8cNSoRTzXbrSk1FTDYNEBqkjTgDwA1sun9NP5ztDRWob80HSSSNGYkGDWnkuM0RaMANeGLITXo\r\nTow0GNvbNJlRuzSgsOY0CpP5NMVL9jRRErs0aS1TNVNWgDSmPp80Gvy3NBnwGDXWr7M0dB/VNIw8\r\n0DQBkZ410iF5NDXYLTVZSxU1T0S6NHIrqTRzbRA1XDWKNA2phjRVwpo0SPJ1NGzsODX8K6Y0ne6l\r\nNNU3JjWsl7M0wb+kNKhE5TQUaN8041HRNPhNtTRpfuQ09awXNcwLtDS6nqA0qbk4Nbg8qTQ3pSA0\r\nkRS8NLXO0DRqdcQ0b//eNLPvrDQGQu00fPstNS/HMTWPJMc0fIrENBIciDSLv/k00iuaNNjgPDWm\r\not00DFkCNfHQhDTO4qY0xTYDNbDSOTWNTjA1dLcPNZB1uzQDUrY08mkFNZaNRjXzzK00ErsDNVeQ\r\n3zS5HxA1pmTINLQDBTWIxP008Ny+NADrGDWeipI0eMHvM5R6CTWA3x01wRO2NE0PBDXZKrU0GFyV\r\nNOCJrzSgxtE0tQR+NKJP0zTmcMA0zgvvNFJN7TT5eA41x/eHNAie2jTBXoU1JbdYNQAAEDUAZAE8\r\nF6YTPaE6DT5EKNM9dQ3rPVEOUD0ioW480q89PCfdUDzbEfI8OKDUPGwsmDxHYgE9amiBPGR1zjsP\r\nPhU7a3x7OyhGRzygj6g8mBGWPCuBIDwy9E47Dr4TO1iRvDsOzBo7Kk6nOyjG8juQWao70ZvWOxbH\r\n8zuU8n07aPEbPGxKlzygoVs8TMfIO9+xhDsybFY7q+rTO/L8YTx2ZJg8LVf1O0mYPjuCWmQ7fLXf\r\nOt2APzt7zMI7O4D+Ox50Tzw8t+w7lE+pOzStezsIHeo7gHbGO/xxGTz7XIA7vAj1O108gzyol3g7\r\ntww5PFZa6zv7yxw8BjMgPKnvLj13cpY8hhS0PDysuTskGOc6fsrQOrACgDqdYpQ6nrawO0mtIzpq\r\niZQ6oWVXO4pL/Dsyi9U7isI/O5AADzuqPMM6Xcz3OuCjVjsJJAU70nAkO3xeCzuPI4E7G4YiO1p8\r\n7jrINmQ6RKiWOkNYjzquKxk7L5jEOkefiTpiBN05wkIqOcZGDTp6g046RrOpOQ6EwjmtPgQ6e2Gc\r\nOSSjpDlo8ZU55XS9ObmuBzlz4785N8m2OWCrjzo4vB06uHOTOSQohDrAdAk6ttpzOqV9QjpzGTY6\r\n3XEaOsgBjjqKt8k6HvZMOicoGjocq2w6ap4WOhHEADrfCzk63skBOgeJHDrUTnI5YkuiObHDpjmu\r\nSKM5/cCSOf1k+zmMGlI6inluOu+YIDu89m07RVI0O6+Kgzr+5446GKYWOsGMzDkpPtU5IguVOWYu\r\n0Thu2rs5wj2KOYr0Szln8mE5OIzqOdZKbDmJnpY5zvoYORbfcjmJJb45rPudOReeBTpaM7A5gOEv\r\nOfU4rjmBKBo6bN3fOQHYIDpCxO45IMMKOhDuqjnu5385nKuKOcsUJTnO6QY6IssJOqWwlTkE/nk5\r\n982pOYJKFzlMEgc5kM8qOTzQSjkjjFw5oLMhOb3XTTlwQiA5qwrfOFyxBDkkj0w5MGaVOpPkyzkA\r\nWYw5x/dWOdTGaDnThQM6cUq4OS/ykTn8pTU5cg8tOjmUnzmJETc5yAicOQHqsTm7VQY6AgbzOcxp\r\nYTnUlDk5COb3OVNucjnJjtA5lvYsOVSTlDlbCZA5jieCOevY/jld/5M5ZAsQOQCjIjmaXZk5X2sk\r\nOaKvQDn3w2A5sFLsOCInSDnjTPU4Pw52ORiOFTnxB085aOe5Oeymfzkdh5Q4b9kUOTcjiDlltOQ5\r\nW97hOK93TDk6TJo5GxUROfmZKDmqWVg5gnArOZiUUTljp2g5VN4COa51OjmCG6857I8hOQJUyDiy\r\nFeY4PzlIOQnaEjkNa105LJgJOedSTTmft9w4RFvhOEMPBjkBNUc5IxKaOKB0AzlHK0Y5uzfsOA7s\r\nCTnIO1A5K33WOKFk2jjp16849C8QOWZpPTn28K85JD91Ocr4pTiAdCY50TmeOH4OPTl/1vM4rUTC\r\nOKr9azkWMbo4F7ngOLhyVDn8tgw5pjZnOXrXVTgwxCo4OQx/OXmv4TiOkZs4EjRhOc/BKzm9HJg4\r\nmNmEOBptqTgOwN44isnuOMjHEDkVGqA5ZsgfOcwJgTn/qS85F5G9OSUi8Th4/wU58kwEOcGM0znk\r\nW1o5KBbSOPxmrjgoieg4mOJqOacY5jhwBhY5iXUjOeCfAjn89RI53mOTOE5nnDgXwQo59x/YOLsN\r\nvzisAgg5ZZXBONJSyTg4ChA5g0OvOOLhCzk2PkQ5yZUgOf1/lTgIavM4G5cEObRwszj5plM54Ngg\r\nOTpfCjmgXsE4/c7tOPbIHjng2QM52pkWOVEIBjnWdfE44lgEOVkCJTm3Js04paCwOJruaDnED7c4\r\nlngHOd1wSThLgdw4+MM6OWkNiTjQTig4ZOnTNxI6RTeeDew2cZ29Nv7NAjclhNM2iMnzNsyKczZM\r\nTqE2NwIANyN0CjdyN5Q2WgazNq/6RTZdvu82CgJ2NnBTbzZ2Y8g2nCmlNornMTbyM/U2XdYuNnYx\r\nDDZETwI3eL+nNkEyGTdWc042Yb0WNzGqlDaNeNI2vHqNNkA4sDYmdYE2+cmANhHYVzaKnIs2sgCG\r\nNgmRtTZMoZo22v10NnRMhzYJ96I2OKTLNuYomzb9GYQ2aZ4gNg34YTYuHZo2W3zKNg54fjYZjkw2\r\nf2wUN3Od0TYrN5w2qv+fNtmNlTawHlI20q1xNtWcgzbalsQ2aqh0NqiRqzZJr+Y1tKkfNvwthjbs\r\njso2aMOjNjtLWzaqzNg2QuVVNvmDcTZsOcU2ODthNmCKmjZkwsw2JO2RNrvV7zZ/j5g2X3SCNuWv\r\njDatdLA22aTFNuHopjZGQ1k280BwNm9ZdzZuF3o2uV16NukrgjZ0cmI2oP0yNtheUDbrCZM2IZD3\r\nNcjiiDbmV9M2x6S6NnU/pzZADwg2huV1NusKwzZOBTQ2+FGNNgbaCjZtFJo2oEWzNnsKijZWeO02\r\nGtuJNu8IdjY49Yg2Mr2ANg3ZzjZiM+s2PSKeNoMphDa/F582hoJcNt0QxjZWOKM2KJ8XNqxVQjbY\r\ngaI2GZ6aNs0bpTU+g5g2tEowNtIkZDYOlas2ZR1xNtIkgzZRo4A2kxo0Nq+R7DZCmS43Jnh6NgQS\r\nbDb4RYg2lNw9NuvPkzYiw3I2yo89NhID7TYcIIw26OkjNrMkKzbG26s2fgyyNkykhTarGu41ZVyZ\r\nNs59hja4/3g2DVwlNg8S/DWud6U2N9IvNgCXSjbgmnM2uSBPNn7iXza+E8Q2IrczNgAgGTbUpLw1\r\nmKpzNoJSGzdiAoM2ZpDFNfrlFDY4tAI2RI+mNgX6UTb+VoU2addaNhrNCTZZFHA2uMncNXzMSzbJ\r\nKYk2chpoNlUqsTVQL942eABrNmzNjTZ3X0o2gnWBNn72gTZLTEE2lwQzNgfuCjaKZ0A2Cn+pNqDa\r\nNzbbTXE2Jn7UNu4UKDZVMoQ2j46fNsCxMzbOjB026lnINRYmezYubI02j29ONiv6jzYkvQU24bo/\r\nNlRyPzacL0c24hOWNpYhiDbn4/U1XMKXNjdHgzYwUO01kmwQNsrkGjZWzx02IdkDNtNSCTdR2VE2\r\nthtfNuRpyzaptiM2tEQ0Nkz1XDaF2zA2q9VKNcwlKDW1Wt007vuJNFq4yzRjGzI175BhNbYW/jTC\r\n50I1fp2dNJ2JFzXcfBY1j6wVNck7ADXKUgk1IqzANOh0JjVVrrw0Msw2NZKFGTUaPUI1fBNaNcVN\r\nSTUON7Q0P4fQNFKuFzUxPlU1sICqNGd1ajTm2QI1i7CcNE6RhzRis6A0+Hg7Nbaz2zTd5O41Lo6Q\r\nNCC46jRqY4k02LwPNQsD+zQS2kY1DgsZNQCcHDWKMa00NY4gNbBtFDXqiRc1oiMKNXSGhzRgRxs1\r\nsvCONXglnTQaJsk0VZcVNTwSAjVbovE0HAgiNYYOkDWs+Bk1NoTxNOmQHzWwgbI0cTRKNEIM5zRm\r\n0Eo1Lt3NNDT7uTSlUH81fpTdNNbDuDR5QIA1bivBNDg8tDTqSAw1juzKNPjckTXYQus0QHrGNAe/\r\nzjT+Kxk1k1EENS6XETW7x+g0SgvDNLGCvzSIgvk0RU2fNNSwojQOc7k03IPMNCf6ETV8ef00kiUz\r\nNaCP5DSyjgI1NzurNDzYBDVnrxg1wWfANHpDdjTTMLM0SyeuNCZrpDTpSwg1kQXWNKnmtjTd4L00\r\nCjEvNe+3XjWZAko1Ym35NPTQoTRMXRI1/Kv1NNnw+TREn580ApgENQioMTUc6Qw1wGDtNMWVAjX6\r\nRmI1CN1MNL0nqzQdttc0yKQdNbOO9jSg9bU00Ta0NPpG8jRwfn81zM+VNG1DtzQjBjQ133YnNRiY\r\nzzSD58A0vVEGNeQz7TQc+8c0alDxNOYeqTRZjwM1A1X7NKFF9DRfJtM0Vc0BNUYGIjUIksE0MIwp\r\nNYA4xDQyT2E0+rrONBaUKjWcVbs0lgEXNQhoLjVqYfM0QkIHNXxZBjWjN9A04CoHNf4JgzRmC1I1\r\nHvk2NR48nDSMgG00Zf32NNotNDWhucs0OhP6NCbLvjSa08g0UXkUNWHkGjU2b7M0Jjf1NNWAHTX2\r\nAKk0D22rNDpwCjVAdSE1wIe3NKki1DQ7h1c0c56RNM+EHDWeNvs0MQ70NEBr+DSzItM00gbWNHQw\r\nKDULfMQ0x//kNPxv2TTQtDM1WH4UNV82NTXQGQs1zfzkNE4e5zQRzgg1/pbnNGCS0TTOFd40v6/x\r\nNAS1tjRCvqU0IwneNHHchzWWIeA0UM+4NK8f9TRyIZM0h7UINdtvGDWwIMU0f+g7NQZH3jSvXyg1\r\nQFDUNEfN1zTFaJE0vTVhNZhtEzVsOCo1lI2DNKvBcDU7hyA1G3lgNdKy/jT5BOE0W5yZNMVKxTQt\r\nffo0UfUYNfYY1jRmNic1cjOcNHhM3TQltw01y+wGNdUXAzWjaYQ1EAGsNAMnHTXG2Ok0b2sZNdaU\r\nnTTqTu80BYtpNRavBjXpXoY0gY8TNRz6MzTZ+bU0CwEyNeatmjTYpAw1XQ0NNS4fMDUD3N80w5kB\r\nNbZ+wDSHwM80LsdINflVQTXijxU12ckXNexXHTV3aAk1Y0gINRwPEzWrSkk1gEhcNcKckzRnQdM0\r\nylE8NZTlGjWZRXo1mYPiNKOIGDX9VSk1SDywNE/uAjVE05U0/LpeNYJ8uDT+TwI1K57TNKdFFTVQ\r\nmmw1bxHxNNasyjTwQdg0uDi0NKQl/jRwNLM0eBffNHVFvDRC6IA0QxjQNA8uczQLG6o0fGK7NO7j\r\nmzQBYqc0PLzWNLgI9DTcW6Q0a0AZNYg9STUbsVQ1+5sfNVyxoTRchak0ZlS/NIZF8DQC/LA0KHW2\r\nNAKVBzVhPRg1IxGrNNrwCDVtxBU1lnAcNYeauTTwp/s0RXHANLDJwzTVLtw0yWgLNdyaGTVZOe00\r\nJFcoNZ6B7TQG/MU0+DEUNQFt/DRtlSo14IBuNQxXyzRAZsw0OmxvNepc4TQsbOo0BX5pNeLZFjVa\r\nUP00/NC+NDfFxzSk/Jk0Xv9WNFcJFTUkCfs0nPhONWb3szQLn8U07ItQNLGo0DSMwQE17Z/PNNec\r\n0zRaof0076bINOo8GzXNlYU0hEQkNTyH5jT2YwU1rPNDNQ/OwzRUsuM0rNi/NPhc8DQKmUg1hNDu\r\nNFsmCjUDuzw1VasyNef7cjVSnrA0plT5NKXLhzSFNZ00Ed+nNCFdUDUWMQI1JJnbNNcqvjQMb+40\r\nMCZxNWBYzTTT7DQ1EXZRNffmaTV+3a80W4eUNHE8DjXgGu40gRDrNBPuqjTmEDY1ol3ONJbeJTVU\r\n2RE1pL7HNICD5TRWWw816jZdNU5+4zSdEBA1+UiKNPe7OzXoSB81ciQHNY2hujSihSE1Zmy4NC66\r\njjSDV6M0zDuqNH8orDToE6s0mAmlNNh/LDUtZTA1POHGNHfLdzTbIis17ZIdNZocBDVvRKE0QmwB\r\nNYXQijQkWAs1oC2hNA2Z5TSh2c00fEGaNMT8ujTDZ5w0Y1z7NI2ELjWyxiA1AEAcNQ==",
                            "noiseTrainingType" : "default"
                          }
                        }
                    ],
                    "start" : 435,
                    "duration" : 437,
                    "mediaStart" : 314,
                    "mediaDuration" : 437,
                    "scalar" : 1,
                    "metadata" : {
                      "WinSubProjectDisplayName" : "",
                      "clipSpeedAttribute" : false
                    },
                    "animationTracks" : {

                    }
                  },
                  {
                    "id" : 346,
                    "_type" : "AMFile",
                    "src" : 15,
                    "trackNumber" : 0,
                    "attributes" : {
                      "ident" : "旁白_vis2021 1",
                      "sampleRate" : 44100,
                      "bitDepth" : 16,
                      "gain" : 1.0,
                      "mixToMono" : false
                    },
                      "channelNumber" : "0,1",
                    "effects" : [
                        {
                          "effectName" : "NoiseReduction",
                          "parameters" : {
                            "denoiserAmount" : 20.0,
                            "denoiserThreshold" : 0.0,
                            "noiseProfile" : "OWoAPH2pEz2x9Qw+d6HTPcva6j2sp089E2dtPD6vPDwfl1A8ScjwPJTr1Txy35g8LaEAPTpegDyh\r\n+807XKYVO6TEeztxHEg8k5enPOCDljxR1SA80RNNO5P/FTsAUsA78qcaO7cppTsc2vE7qgSrO6lQ\r\n2jukqvI7h92AO2yWGzx+tZU8JitaPFzIyTuXwYE7uY9XO8aQ0Dvqq2I88amYPMnb9DtB2j87KTBk\r\nOzy52zoRSDw7OCjBO9xi/DtxwE88KlbqO3j0qDtWJH47VJnsO9JoxDuANhs8tJ+AO6Qz9Tth+oI8\r\nbGt3O1T1Nzzjhew74A0cPJAvITwici89BseWPGFNtDxkw7o7MRvlOmld0jryf386QXGZOrHMrzuA\r\ngR46FrCVOsPpWDsY4v07HUbYO1nLPjsw9w47wr3FOrnZ+Drc3FY7lUkJO7DAJDv2mAY7Bol9O6Gv\r\nIjui8ek64NliOq5vmTrG/ZM6bCYbO5q5tzpF2YA69unhOXdvJDkMXx461iVVOpU6tTmIPdU5NZ4C\r\nOrLzrDlzv6053gyzOSasszlLTgc5O7atOcYrxzkKtYw6r9cjOpoinjlRRog6Q9QHOqLsbTo5k0E6\r\n9U47OqgHGzq2DIw6xrvIOkIITzrGgR86I/hwOsTOFzq0IQU6isQ5OkIP9DmC+Bw6hsx0OYy4pDnt\r\nMqk5f6afOfFKnDnqIvc5SsRQOpXvdDp8CiE703psOwEALztW+4A6r36ROtKuGDoo4s852RrZOQKM\r\nhDmkgtY4CBe5OXJ5jDnBcjY5RM9jObGZ+DmyHG05aluSOaagETnIyGM5Jt2dOdUxnTmBHwU6PPyu\r\nOQ2PETl6x7k5tcInOtV63TnmcCY6dHftOUWtBzoIt6w5qk+GOf1mbTk4DT454wsLOh2HAjoY+ZY5\r\nyr2VOQQurzmqnRg5LDMFOZLQUjkvV1Q5/g1+OSlxFzlITz85XmAkOdDG/DjiIfM4htxWOREUlTqh\r\nwcw5VnaGOWCBXjn90lA5cKzvOWPrqzkL/o45sEFOOTkyMDpUc5s51oo9ORByjjlGCco52p/tORKy\r\n8Tnit2E51lY0Ofo+ATq6o3Y5Z021OYTVGDlRAq45zuyhOeA4ZDk52eE5nw91ORI2OzlB2R85fgab\r\nOY8bMjkQ1TA5cCaFOXju/Dh2ghM59YD8OFHmfzmnKiQ58YpfOXsbtzlCtX45yEWKOLGkLDkayH45\r\nRUrSOSltyTgvk1U5NT2NOY45EjnfihY5JFlqOTokTjlSlV45Ir54OQ1W5jifjjI5bWS5OfA8NDkO\r\nXs44QhjgOLbnOjkr+iw5hK5/Ocz3Azl6HF45q6DlOIJb2DiR79I4esU3OWtGjDg4gBM5cVloOdzR\r\nDTlkchs5GGg7OVSTtziXOeg4XazEOCiMADmz6Tw5ueqOOVcmeTmS4Ms4nI0UOUTLnjhAXjc56pkE\r\nOdXdBznEOY85PIy4OMxI5zgkSxk5r6oQObvARTnCtUo4LoVEONjrVjnfUsw4msCWOCWAQjlc/y45\r\nJ4KtOCzJrjjGJZ84BKXjOIHj2jhi+yE5rqqOOdCIIzm9fIM56Oo3OUSjtzmiT/M4Wiv3OJw6ETmO\r\nS8w53FJpOdbu1DiJSZs4DaoFOWqKWDkkyvU4GPIdOchJLDmxKwA54MMWOVgzmjgl75M44OcEOVPH\r\n3Dhmzdw4X9sOOb2CyTguC7Y4VgEmOTaQxDjBUAQ5dAM9OarFHjmfj444qMgAOWZMDDmSlas4yUZQ\r\nOaDeMTmPogU5Wxe1OF0m3Dh6aDQ5tbkIObjoEzlqqg45EPLvOKyF+zhUmiE57MvFOPg/vDiW+Vo5\r\nmhyzOGFsBTldBEw4dL3pOOk/QDnXnJQ467sNONFyxDfGPDM3rTsZN+BixjZrWTk338GlNhf/FTe5\r\nNTk2RTSUNkMj3Taj0d02is2UNt0UDDYUXvI1aeXFNhijMjbAtYc2ikWgNuphZDY8D1I28gSnNv4k\r\nLTZRYDk2mtYGN70P5DaWBKc2RzXfNlQFKTeHIYk2IpjaNofVszbqlaM2PatTNiKTzDYjx6M2BMHZ\r\nNiXEdDbJOMs2FNCMNsnGRja2BpI2UsiGNvm1vzbR74Q2wLCoNnn3jDa4fK82VqGlNrSAsTYwh5o2\r\n00guNguj5DYiuZI2yg0BN6PItzbTY6w2VXFINoLcTDbWIk82WJ/cNvx6HDZGdqc2ta/1NVwQMDaG\r\n9VE24mqONlq9rDaNiSE2Lay+NpqbcTYGZ3Q2KPqfNicegDbQyZw27RAtNyQhVjazoMU2izz9Npf0\r\njzbhrAg2zKY4Njo2yjZ1hZE2WNZsNrbfvDZiyp42KRFjNr96jjbjaI02RTYRNmwjhzapnyI2B4XY\r\nNltT7jUOLSY20oDqNhJrxDaCZWw2Ct+VNg/LgjZZzMA2Ik1JNrzQuDZxy901azNqNvW2eDaUuVs2\r\ngu+KNta85ja8P/M1FmShNp/ipjb1OIE21Q/2Nr5JmzYXtZU2x6+qNk6LmTZnjYw2mIJGNul2Jjbc\r\nO3A2lquYNuovLTYtgfE1nUlUNgQzNzaIsDM2DIvUNjKBRja+0oY2ExJ5NgPdJzZaSLQ2EtYgN0Wc\r\nDDbIHow2IiiZNgZUVTa1JnM2v3wcNoN3YDYCtgE38JaENkzoaDb0JTc26/WJNoqw9jYFxFI29vNP\r\nNmdCvDZHFIU2xxObNr0sUTblHoc2JrM/NmrbFDYX93o2m4OpNgs6HDaFNl02Rb2TNpjkJjYAADk2\r\n/8chNn7/QTawezM30gsqNidJ8zWKfC02kBYuNmSnnTa80FY2mFN3NkYZWzY4aO41UHmKNkyZiDYh\r\nGC42h1Y6Np6cgzYSij81AnuaNnc6rzZUXG82vp9eNp4h/jWNsEY2k603NuKSjDbHWSo2RxYINlNS\r\nmTaAOlU2yvJmNkqftzZ5VEk26hV8NjWLezbKM9Y1ernFNWi/XDZaEHQ2dhvANhDaRjYMwy82EwC4\r\nNlCNVTbH4IU2Cx1LNk6XlDbcVNA2FB33NQHMjzY6eW02jpZONqrdMTa+lxk267lUNkhoNDZz+TQ3\r\nwulaNoXxEjYQdsQ2lXEcNsiYOjbfz9o2UzpENvQL0TSOQIM10f8gNcLzLzX5w2c1H4efNN2VyTQO\r\nn70011tKNT7aKTUG8/w0QEgiNUCRKjWhXKI03LYLNQzSrjUnb9E0iB65NCpfLzVs4tk0emppNQtw\r\n8zTy2+U0USoLNeRnDTU88Uc19BfdNFPdNDVtA7Q09QQJNdJhKTXqRNg0am3RNG251DQ1KrA0Oj/Y\r\nNOrxkjTQ8cI0+3eXNEYitDR9exs1YvMdNUBR5DR0pQE1EGj5NAq8KTXmxKs0ErgPNTXAAjVM71g1\r\n2McYNch2PjVA3vs0HZGgNJEIOTWY3M40B5RGNGfgUDUIWUw1AAKQNPuJvjRnt4w0M0qUNPpcxjR3\r\nCM0000dJNZjtnTSx6rQ09gISNSzUKjVHscM0TBtXNYWZEDWjpck07HS+NMuEnzTVZ0U1duMGNWCg\r\n6jTs3880YBEXNT+XujRa3bk0wUISNadMADU5AQ411F8ONePs/jS0pjA105FENQ/HnjQmcwg1WPKH\r\nNFq2nTSuOLI0S9MpNbyI/zTAPso0+sXPNPLB3DTur8o0PLbHNPmbnzT+MvY0YjqvNCUXJTXMJp80\r\nndUPNWmVEjXazkY1O5DgNMl4gzVmyAY1rYEfNXmSQTWIrhU1ikoVNSCqpDTaEbY0/AvpNLIwhDSh\r\nIww1MCwENb5Y/zSUBhw1UowYNbXtpzTvlg4155xcNZhCrDRWs9U0k616NIzznjRmnAQ1Khq/NEm9\r\nCTUki940fgEVNZA1JzWkzqg0RtjuNI+WjTW0QRg1omMcNXzDIDUDHKI0NVu3NMMpRDVCjIo0ViIs\r\nNfxAITWCVB81HXTcNB0NXDWG+bE03vcdNf6QMzXAn8s0Eg/NNATJsTQE9U01LMELNX7DoDSIEB41\r\nwLEGNUVbzTQ8Pwo1QFCINBFgFTVn0vo0JOCjNNaR8zQ1vx41DXUDNak+EjUNQYo08gC7NFzPoTSI\r\n7RU1kpUbNYXvKzWOx240VWf0NGRuBzU6PIo0wlCGNT7g9jSWZjw1Ml4BNRvl6jTQR3w1lmHdNGfd\r\nITTobvU0ypuvNEpF+jTjNY40JYO7NCfBbzQijsA0us84Na6J8TQIYwU1V3IrNSwmYTXQ1kU0zKTc\r\nNDTVfzTj6to0SbOuNHwCvTQ/eR01mcuPNPTduTRDjf806a+nNAj20DREKOo0nPlPNQTe+zQNWSo1\r\nlpGmNBv9xzT/tzk1CtkQNapg2jSMQlI1MDUTNRhOMjWh56Q0AygANa8srzRbOwQ187XxNOQlwDSQ\r\nNO80mTAVNaBD6TQbeoo0UM6FNHPMCjV4t7k0gIxkNE02BjXYBQo1AhAcNWJMijS64uA0zd0JNXWm\r\nEDWiijY1ZpSXNNpWpzTYT+k0QHbzNDaorzSGDHs0qT7ONBvuhzSyYys1dPYCNQdToDTk8uU0MwYH\r\nNWYw+TRbj4g1aJxzNHlxCDVIE8c0Nl2SNOyilTRoqUs1KtMvNbhJPjVmcCE12eGANQ1X8jSNKZo0\r\ndGHdNGrcDjXxZ0A0JhPPNJb14jSwx8o0morUNDmP2DTubH40SSbdNE1r7TRT3rk0EZGLNP35LjV1\r\n1640P7XhNLEsczQldYc02X7eNAZ67jSawbI0drgeNb6GtzSMN9U00j4cNQhrBzWSqgw14dAnNYUF\r\nnDTQSpg0P9OMNOHDLTULMsI0QH6VNI2nxDSl5Yc0WHyLNCaeLDXnc6Y0AaCFNBQP7TTJzR41kvoE\r\nNRykHjU6wZw0+cjVNJdR1TSiQQU10AuONaiUkzUExgY1MMYONaRkZTT9EAU11Bu0NC2j3jTIM4A0\r\nal8cNSoRTzXbrSk1FTDYNEBqkjTgDwA1sun9NP5ztDRWob80HSSSNGYkGDWnkuM0RaMANeGLITXo\r\nTow0GNvbNJlRuzSgsOY0CpP5NMVL9jRRErs0aS1TNVNWgDSmPp80Gvy3NBnwGDXWr7M0dB/VNIw8\r\n0DQBkZ410iF5NDXYLTVZSxU1T0S6NHIrqTRzbRA1XDWKNA2phjRVwpo0SPJ1NGzsODX8K6Y0ne6l\r\nNNU3JjWsl7M0wb+kNKhE5TQUaN8041HRNPhNtTRpfuQ09awXNcwLtDS6nqA0qbk4Nbg8qTQ3pSA0\r\nkRS8NLXO0DRqdcQ0b//eNLPvrDQGQu00fPstNS/HMTWPJMc0fIrENBIciDSLv/k00iuaNNjgPDWm\r\not00DFkCNfHQhDTO4qY0xTYDNbDSOTWNTjA1dLcPNZB1uzQDUrY08mkFNZaNRjXzzK00ErsDNVeQ\r\n3zS5HxA1pmTINLQDBTWIxP008Ny+NADrGDWeipI0eMHvM5R6CTWA3x01wRO2NE0PBDXZKrU0GFyV\r\nNOCJrzSgxtE0tQR+NKJP0zTmcMA0zgvvNFJN7TT5eA41x/eHNAie2jTBXoU1JbdYNQAAEDUAZAE8\r\nF6YTPaE6DT5EKNM9dQ3rPVEOUD0ioW480q89PCfdUDzbEfI8OKDUPGwsmDxHYgE9amiBPGR1zjsP\r\nPhU7a3x7OyhGRzygj6g8mBGWPCuBIDwy9E47Dr4TO1iRvDsOzBo7Kk6nOyjG8juQWao70ZvWOxbH\r\n8zuU8n07aPEbPGxKlzygoVs8TMfIO9+xhDsybFY7q+rTO/L8YTx2ZJg8LVf1O0mYPjuCWmQ7fLXf\r\nOt2APzt7zMI7O4D+Ox50Tzw8t+w7lE+pOzStezsIHeo7gHbGO/xxGTz7XIA7vAj1O108gzyol3g7\r\ntww5PFZa6zv7yxw8BjMgPKnvLj13cpY8hhS0PDysuTskGOc6fsrQOrACgDqdYpQ6nrawO0mtIzpq\r\niZQ6oWVXO4pL/Dsyi9U7isI/O5AADzuqPMM6Xcz3OuCjVjsJJAU70nAkO3xeCzuPI4E7G4YiO1p8\r\n7jrINmQ6RKiWOkNYjzquKxk7L5jEOkefiTpiBN05wkIqOcZGDTp6g046RrOpOQ6EwjmtPgQ6e2Gc\r\nOSSjpDlo8ZU55XS9ObmuBzlz4785N8m2OWCrjzo4vB06uHOTOSQohDrAdAk6ttpzOqV9QjpzGTY6\r\n3XEaOsgBjjqKt8k6HvZMOicoGjocq2w6ap4WOhHEADrfCzk63skBOgeJHDrUTnI5YkuiObHDpjmu\r\nSKM5/cCSOf1k+zmMGlI6inluOu+YIDu89m07RVI0O6+Kgzr+5446GKYWOsGMzDkpPtU5IguVOWYu\r\n0Thu2rs5wj2KOYr0Szln8mE5OIzqOdZKbDmJnpY5zvoYORbfcjmJJb45rPudOReeBTpaM7A5gOEv\r\nOfU4rjmBKBo6bN3fOQHYIDpCxO45IMMKOhDuqjnu5385nKuKOcsUJTnO6QY6IssJOqWwlTkE/nk5\r\n982pOYJKFzlMEgc5kM8qOTzQSjkjjFw5oLMhOb3XTTlwQiA5qwrfOFyxBDkkj0w5MGaVOpPkyzkA\r\nWYw5x/dWOdTGaDnThQM6cUq4OS/ykTn8pTU5cg8tOjmUnzmJETc5yAicOQHqsTm7VQY6AgbzOcxp\r\nYTnUlDk5COb3OVNucjnJjtA5lvYsOVSTlDlbCZA5jieCOevY/jld/5M5ZAsQOQCjIjmaXZk5X2sk\r\nOaKvQDn3w2A5sFLsOCInSDnjTPU4Pw52ORiOFTnxB085aOe5Oeymfzkdh5Q4b9kUOTcjiDlltOQ5\r\nW97hOK93TDk6TJo5GxUROfmZKDmqWVg5gnArOZiUUTljp2g5VN4COa51OjmCG6857I8hOQJUyDiy\r\nFeY4PzlIOQnaEjkNa105LJgJOedSTTmft9w4RFvhOEMPBjkBNUc5IxKaOKB0AzlHK0Y5uzfsOA7s\r\nCTnIO1A5K33WOKFk2jjp16849C8QOWZpPTn28K85JD91Ocr4pTiAdCY50TmeOH4OPTl/1vM4rUTC\r\nOKr9azkWMbo4F7ngOLhyVDn8tgw5pjZnOXrXVTgwxCo4OQx/OXmv4TiOkZs4EjRhOc/BKzm9HJg4\r\nmNmEOBptqTgOwN44isnuOMjHEDkVGqA5ZsgfOcwJgTn/qS85F5G9OSUi8Th4/wU58kwEOcGM0znk\r\nW1o5KBbSOPxmrjgoieg4mOJqOacY5jhwBhY5iXUjOeCfAjn89RI53mOTOE5nnDgXwQo59x/YOLsN\r\nvzisAgg5ZZXBONJSyTg4ChA5g0OvOOLhCzk2PkQ5yZUgOf1/lTgIavM4G5cEObRwszj5plM54Ngg\r\nOTpfCjmgXsE4/c7tOPbIHjng2QM52pkWOVEIBjnWdfE44lgEOVkCJTm3Js04paCwOJruaDnED7c4\r\nlngHOd1wSThLgdw4+MM6OWkNiTjQTig4ZOnTNxI6RTeeDew2cZ29Nv7NAjclhNM2iMnzNsyKczZM\r\nTqE2NwIANyN0CjdyN5Q2WgazNq/6RTZdvu82CgJ2NnBTbzZ2Y8g2nCmlNornMTbyM/U2XdYuNnYx\r\nDDZETwI3eL+nNkEyGTdWc042Yb0WNzGqlDaNeNI2vHqNNkA4sDYmdYE2+cmANhHYVzaKnIs2sgCG\r\nNgmRtTZMoZo22v10NnRMhzYJ96I2OKTLNuYomzb9GYQ2aZ4gNg34YTYuHZo2W3zKNg54fjYZjkw2\r\nf2wUN3Od0TYrN5w2qv+fNtmNlTawHlI20q1xNtWcgzbalsQ2aqh0NqiRqzZJr+Y1tKkfNvwthjbs\r\njso2aMOjNjtLWzaqzNg2QuVVNvmDcTZsOcU2ODthNmCKmjZkwsw2JO2RNrvV7zZ/j5g2X3SCNuWv\r\njDatdLA22aTFNuHopjZGQ1k280BwNm9ZdzZuF3o2uV16NukrgjZ0cmI2oP0yNtheUDbrCZM2IZD3\r\nNcjiiDbmV9M2x6S6NnU/pzZADwg2huV1NusKwzZOBTQ2+FGNNgbaCjZtFJo2oEWzNnsKijZWeO02\r\nGtuJNu8IdjY49Yg2Mr2ANg3ZzjZiM+s2PSKeNoMphDa/F582hoJcNt0QxjZWOKM2KJ8XNqxVQjbY\r\ngaI2GZ6aNs0bpTU+g5g2tEowNtIkZDYOlas2ZR1xNtIkgzZRo4A2kxo0Nq+R7DZCmS43Jnh6NgQS\r\nbDb4RYg2lNw9NuvPkzYiw3I2yo89NhID7TYcIIw26OkjNrMkKzbG26s2fgyyNkykhTarGu41ZVyZ\r\nNs59hja4/3g2DVwlNg8S/DWud6U2N9IvNgCXSjbgmnM2uSBPNn7iXza+E8Q2IrczNgAgGTbUpLw1\r\nmKpzNoJSGzdiAoM2ZpDFNfrlFDY4tAI2RI+mNgX6UTb+VoU2addaNhrNCTZZFHA2uMncNXzMSzbJ\r\nKYk2chpoNlUqsTVQL942eABrNmzNjTZ3X0o2gnWBNn72gTZLTEE2lwQzNgfuCjaKZ0A2Cn+pNqDa\r\nNzbbTXE2Jn7UNu4UKDZVMoQ2j46fNsCxMzbOjB026lnINRYmezYubI02j29ONiv6jzYkvQU24bo/\r\nNlRyPzacL0c24hOWNpYhiDbn4/U1XMKXNjdHgzYwUO01kmwQNsrkGjZWzx02IdkDNtNSCTdR2VE2\r\nthtfNuRpyzaptiM2tEQ0Nkz1XDaF2zA2q9VKNcwlKDW1Wt007vuJNFq4yzRjGzI175BhNbYW/jTC\r\n50I1fp2dNJ2JFzXcfBY1j6wVNck7ADXKUgk1IqzANOh0JjVVrrw0Msw2NZKFGTUaPUI1fBNaNcVN\r\nSTUON7Q0P4fQNFKuFzUxPlU1sICqNGd1ajTm2QI1i7CcNE6RhzRis6A0+Hg7Nbaz2zTd5O41Lo6Q\r\nNCC46jRqY4k02LwPNQsD+zQS2kY1DgsZNQCcHDWKMa00NY4gNbBtFDXqiRc1oiMKNXSGhzRgRxs1\r\nsvCONXglnTQaJsk0VZcVNTwSAjVbovE0HAgiNYYOkDWs+Bk1NoTxNOmQHzWwgbI0cTRKNEIM5zRm\r\n0Eo1Lt3NNDT7uTSlUH81fpTdNNbDuDR5QIA1bivBNDg8tDTqSAw1juzKNPjckTXYQus0QHrGNAe/\r\nzjT+Kxk1k1EENS6XETW7x+g0SgvDNLGCvzSIgvk0RU2fNNSwojQOc7k03IPMNCf6ETV8ef00kiUz\r\nNaCP5DSyjgI1NzurNDzYBDVnrxg1wWfANHpDdjTTMLM0SyeuNCZrpDTpSwg1kQXWNKnmtjTd4L00\r\nCjEvNe+3XjWZAko1Ym35NPTQoTRMXRI1/Kv1NNnw+TREn580ApgENQioMTUc6Qw1wGDtNMWVAjX6\r\nRmI1CN1MNL0nqzQdttc0yKQdNbOO9jSg9bU00Ta0NPpG8jRwfn81zM+VNG1DtzQjBjQ133YnNRiY\r\nzzSD58A0vVEGNeQz7TQc+8c0alDxNOYeqTRZjwM1A1X7NKFF9DRfJtM0Vc0BNUYGIjUIksE0MIwp\r\nNYA4xDQyT2E0+rrONBaUKjWcVbs0lgEXNQhoLjVqYfM0QkIHNXxZBjWjN9A04CoHNf4JgzRmC1I1\r\nHvk2NR48nDSMgG00Zf32NNotNDWhucs0OhP6NCbLvjSa08g0UXkUNWHkGjU2b7M0Jjf1NNWAHTX2\r\nAKk0D22rNDpwCjVAdSE1wIe3NKki1DQ7h1c0c56RNM+EHDWeNvs0MQ70NEBr+DSzItM00gbWNHQw\r\nKDULfMQ0x//kNPxv2TTQtDM1WH4UNV82NTXQGQs1zfzkNE4e5zQRzgg1/pbnNGCS0TTOFd40v6/x\r\nNAS1tjRCvqU0IwneNHHchzWWIeA0UM+4NK8f9TRyIZM0h7UINdtvGDWwIMU0f+g7NQZH3jSvXyg1\r\nQFDUNEfN1zTFaJE0vTVhNZhtEzVsOCo1lI2DNKvBcDU7hyA1G3lgNdKy/jT5BOE0W5yZNMVKxTQt\r\nffo0UfUYNfYY1jRmNic1cjOcNHhM3TQltw01y+wGNdUXAzWjaYQ1EAGsNAMnHTXG2Ok0b2sZNdaU\r\nnTTqTu80BYtpNRavBjXpXoY0gY8TNRz6MzTZ+bU0CwEyNeatmjTYpAw1XQ0NNS4fMDUD3N80w5kB\r\nNbZ+wDSHwM80LsdINflVQTXijxU12ckXNexXHTV3aAk1Y0gINRwPEzWrSkk1gEhcNcKckzRnQdM0\r\nylE8NZTlGjWZRXo1mYPiNKOIGDX9VSk1SDywNE/uAjVE05U0/LpeNYJ8uDT+TwI1K57TNKdFFTVQ\r\nmmw1bxHxNNasyjTwQdg0uDi0NKQl/jRwNLM0eBffNHVFvDRC6IA0QxjQNA8uczQLG6o0fGK7NO7j\r\nmzQBYqc0PLzWNLgI9DTcW6Q0a0AZNYg9STUbsVQ1+5sfNVyxoTRchak0ZlS/NIZF8DQC/LA0KHW2\r\nNAKVBzVhPRg1IxGrNNrwCDVtxBU1lnAcNYeauTTwp/s0RXHANLDJwzTVLtw0yWgLNdyaGTVZOe00\r\nJFcoNZ6B7TQG/MU0+DEUNQFt/DRtlSo14IBuNQxXyzRAZsw0OmxvNepc4TQsbOo0BX5pNeLZFjVa\r\nUP00/NC+NDfFxzSk/Jk0Xv9WNFcJFTUkCfs0nPhONWb3szQLn8U07ItQNLGo0DSMwQE17Z/PNNec\r\n0zRaof0076bINOo8GzXNlYU0hEQkNTyH5jT2YwU1rPNDNQ/OwzRUsuM0rNi/NPhc8DQKmUg1hNDu\r\nNFsmCjUDuzw1VasyNef7cjVSnrA0plT5NKXLhzSFNZ00Ed+nNCFdUDUWMQI1JJnbNNcqvjQMb+40\r\nMCZxNWBYzTTT7DQ1EXZRNffmaTV+3a80W4eUNHE8DjXgGu40gRDrNBPuqjTmEDY1ol3ONJbeJTVU\r\n2RE1pL7HNICD5TRWWw816jZdNU5+4zSdEBA1+UiKNPe7OzXoSB81ciQHNY2hujSihSE1Zmy4NC66\r\njjSDV6M0zDuqNH8orDToE6s0mAmlNNh/LDUtZTA1POHGNHfLdzTbIis17ZIdNZocBDVvRKE0QmwB\r\nNYXQijQkWAs1oC2hNA2Z5TSh2c00fEGaNMT8ujTDZ5w0Y1z7NI2ELjWyxiA1AEAcNQ==",
                            "noiseTrainingType" : "default"
                          }
                        }
                    ],
                    "start" : 872,
                    "duration" : 218,
                    "mediaStart" : 770,
                    "mediaDuration" : 218,
                    "scalar" : 1,
                    "metadata" : {
                      "WinSubProjectDisplayName" : "",
                      "clipSpeedAttribute" : false
                    },
                    "animationTracks" : {

                    }
                  },
                  {
                    "id" : 347,
                    "_type" : "AMFile",
                    "src" : 15,
                    "trackNumber" : 0,
                    "attributes" : {
                      "ident" : "旁白_vis2021 1",
                      "sampleRate" : 44100,
                      "bitDepth" : 16,
                      "gain" : 1.0,
                      "mixToMono" : false
                    },
                      "channelNumber" : "0,1",
                    "effects" : [
                        {
                          "effectName" : "NoiseReduction",
                          "parameters" : {
                            "denoiserAmount" : 20.0,
                            "denoiserThreshold" : 0.0,
                            "noiseProfile" : "OWoAPH2pEz2x9Qw+d6HTPcva6j2sp089E2dtPD6vPDwfl1A8ScjwPJTr1Txy35g8LaEAPTpegDyh\r\n+807XKYVO6TEeztxHEg8k5enPOCDljxR1SA80RNNO5P/FTsAUsA78qcaO7cppTsc2vE7qgSrO6lQ\r\n2jukqvI7h92AO2yWGzx+tZU8JitaPFzIyTuXwYE7uY9XO8aQ0Dvqq2I88amYPMnb9DtB2j87KTBk\r\nOzy52zoRSDw7OCjBO9xi/DtxwE88KlbqO3j0qDtWJH47VJnsO9JoxDuANhs8tJ+AO6Qz9Tth+oI8\r\nbGt3O1T1Nzzjhew74A0cPJAvITwici89BseWPGFNtDxkw7o7MRvlOmld0jryf386QXGZOrHMrzuA\r\ngR46FrCVOsPpWDsY4v07HUbYO1nLPjsw9w47wr3FOrnZ+Drc3FY7lUkJO7DAJDv2mAY7Bol9O6Gv\r\nIjui8ek64NliOq5vmTrG/ZM6bCYbO5q5tzpF2YA69unhOXdvJDkMXx461iVVOpU6tTmIPdU5NZ4C\r\nOrLzrDlzv6053gyzOSasszlLTgc5O7atOcYrxzkKtYw6r9cjOpoinjlRRog6Q9QHOqLsbTo5k0E6\r\n9U47OqgHGzq2DIw6xrvIOkIITzrGgR86I/hwOsTOFzq0IQU6isQ5OkIP9DmC+Bw6hsx0OYy4pDnt\r\nMqk5f6afOfFKnDnqIvc5SsRQOpXvdDp8CiE703psOwEALztW+4A6r36ROtKuGDoo4s852RrZOQKM\r\nhDmkgtY4CBe5OXJ5jDnBcjY5RM9jObGZ+DmyHG05aluSOaagETnIyGM5Jt2dOdUxnTmBHwU6PPyu\r\nOQ2PETl6x7k5tcInOtV63TnmcCY6dHftOUWtBzoIt6w5qk+GOf1mbTk4DT454wsLOh2HAjoY+ZY5\r\nyr2VOQQurzmqnRg5LDMFOZLQUjkvV1Q5/g1+OSlxFzlITz85XmAkOdDG/DjiIfM4htxWOREUlTqh\r\nwcw5VnaGOWCBXjn90lA5cKzvOWPrqzkL/o45sEFOOTkyMDpUc5s51oo9ORByjjlGCco52p/tORKy\r\n8Tnit2E51lY0Ofo+ATq6o3Y5Z021OYTVGDlRAq45zuyhOeA4ZDk52eE5nw91ORI2OzlB2R85fgab\r\nOY8bMjkQ1TA5cCaFOXju/Dh2ghM59YD8OFHmfzmnKiQ58YpfOXsbtzlCtX45yEWKOLGkLDkayH45\r\nRUrSOSltyTgvk1U5NT2NOY45EjnfihY5JFlqOTokTjlSlV45Ir54OQ1W5jifjjI5bWS5OfA8NDkO\r\nXs44QhjgOLbnOjkr+iw5hK5/Ocz3Azl6HF45q6DlOIJb2DiR79I4esU3OWtGjDg4gBM5cVloOdzR\r\nDTlkchs5GGg7OVSTtziXOeg4XazEOCiMADmz6Tw5ueqOOVcmeTmS4Ms4nI0UOUTLnjhAXjc56pkE\r\nOdXdBznEOY85PIy4OMxI5zgkSxk5r6oQObvARTnCtUo4LoVEONjrVjnfUsw4msCWOCWAQjlc/y45\r\nJ4KtOCzJrjjGJZ84BKXjOIHj2jhi+yE5rqqOOdCIIzm9fIM56Oo3OUSjtzmiT/M4Wiv3OJw6ETmO\r\nS8w53FJpOdbu1DiJSZs4DaoFOWqKWDkkyvU4GPIdOchJLDmxKwA54MMWOVgzmjgl75M44OcEOVPH\r\n3Dhmzdw4X9sOOb2CyTguC7Y4VgEmOTaQxDjBUAQ5dAM9OarFHjmfj444qMgAOWZMDDmSlas4yUZQ\r\nOaDeMTmPogU5Wxe1OF0m3Dh6aDQ5tbkIObjoEzlqqg45EPLvOKyF+zhUmiE57MvFOPg/vDiW+Vo5\r\nmhyzOGFsBTldBEw4dL3pOOk/QDnXnJQ467sNONFyxDfGPDM3rTsZN+BixjZrWTk338GlNhf/FTe5\r\nNTk2RTSUNkMj3Taj0d02is2UNt0UDDYUXvI1aeXFNhijMjbAtYc2ikWgNuphZDY8D1I28gSnNv4k\r\nLTZRYDk2mtYGN70P5DaWBKc2RzXfNlQFKTeHIYk2IpjaNofVszbqlaM2PatTNiKTzDYjx6M2BMHZ\r\nNiXEdDbJOMs2FNCMNsnGRja2BpI2UsiGNvm1vzbR74Q2wLCoNnn3jDa4fK82VqGlNrSAsTYwh5o2\r\n00guNguj5DYiuZI2yg0BN6PItzbTY6w2VXFINoLcTDbWIk82WJ/cNvx6HDZGdqc2ta/1NVwQMDaG\r\n9VE24mqONlq9rDaNiSE2Lay+NpqbcTYGZ3Q2KPqfNicegDbQyZw27RAtNyQhVjazoMU2izz9Npf0\r\njzbhrAg2zKY4Njo2yjZ1hZE2WNZsNrbfvDZiyp42KRFjNr96jjbjaI02RTYRNmwjhzapnyI2B4XY\r\nNltT7jUOLSY20oDqNhJrxDaCZWw2Ct+VNg/LgjZZzMA2Ik1JNrzQuDZxy901azNqNvW2eDaUuVs2\r\ngu+KNta85ja8P/M1FmShNp/ipjb1OIE21Q/2Nr5JmzYXtZU2x6+qNk6LmTZnjYw2mIJGNul2Jjbc\r\nO3A2lquYNuovLTYtgfE1nUlUNgQzNzaIsDM2DIvUNjKBRja+0oY2ExJ5NgPdJzZaSLQ2EtYgN0Wc\r\nDDbIHow2IiiZNgZUVTa1JnM2v3wcNoN3YDYCtgE38JaENkzoaDb0JTc26/WJNoqw9jYFxFI29vNP\r\nNmdCvDZHFIU2xxObNr0sUTblHoc2JrM/NmrbFDYX93o2m4OpNgs6HDaFNl02Rb2TNpjkJjYAADk2\r\n/8chNn7/QTawezM30gsqNidJ8zWKfC02kBYuNmSnnTa80FY2mFN3NkYZWzY4aO41UHmKNkyZiDYh\r\nGC42h1Y6Np6cgzYSij81AnuaNnc6rzZUXG82vp9eNp4h/jWNsEY2k603NuKSjDbHWSo2RxYINlNS\r\nmTaAOlU2yvJmNkqftzZ5VEk26hV8NjWLezbKM9Y1ernFNWi/XDZaEHQ2dhvANhDaRjYMwy82EwC4\r\nNlCNVTbH4IU2Cx1LNk6XlDbcVNA2FB33NQHMjzY6eW02jpZONqrdMTa+lxk267lUNkhoNDZz+TQ3\r\nwulaNoXxEjYQdsQ2lXEcNsiYOjbfz9o2UzpENvQL0TSOQIM10f8gNcLzLzX5w2c1H4efNN2VyTQO\r\nn70011tKNT7aKTUG8/w0QEgiNUCRKjWhXKI03LYLNQzSrjUnb9E0iB65NCpfLzVs4tk0emppNQtw\r\n8zTy2+U0USoLNeRnDTU88Uc19BfdNFPdNDVtA7Q09QQJNdJhKTXqRNg0am3RNG251DQ1KrA0Oj/Y\r\nNOrxkjTQ8cI0+3eXNEYitDR9exs1YvMdNUBR5DR0pQE1EGj5NAq8KTXmxKs0ErgPNTXAAjVM71g1\r\n2McYNch2PjVA3vs0HZGgNJEIOTWY3M40B5RGNGfgUDUIWUw1AAKQNPuJvjRnt4w0M0qUNPpcxjR3\r\nCM0000dJNZjtnTSx6rQ09gISNSzUKjVHscM0TBtXNYWZEDWjpck07HS+NMuEnzTVZ0U1duMGNWCg\r\n6jTs3880YBEXNT+XujRa3bk0wUISNadMADU5AQ411F8ONePs/jS0pjA105FENQ/HnjQmcwg1WPKH\r\nNFq2nTSuOLI0S9MpNbyI/zTAPso0+sXPNPLB3DTur8o0PLbHNPmbnzT+MvY0YjqvNCUXJTXMJp80\r\nndUPNWmVEjXazkY1O5DgNMl4gzVmyAY1rYEfNXmSQTWIrhU1ikoVNSCqpDTaEbY0/AvpNLIwhDSh\r\nIww1MCwENb5Y/zSUBhw1UowYNbXtpzTvlg4155xcNZhCrDRWs9U0k616NIzznjRmnAQ1Khq/NEm9\r\nCTUki940fgEVNZA1JzWkzqg0RtjuNI+WjTW0QRg1omMcNXzDIDUDHKI0NVu3NMMpRDVCjIo0ViIs\r\nNfxAITWCVB81HXTcNB0NXDWG+bE03vcdNf6QMzXAn8s0Eg/NNATJsTQE9U01LMELNX7DoDSIEB41\r\nwLEGNUVbzTQ8Pwo1QFCINBFgFTVn0vo0JOCjNNaR8zQ1vx41DXUDNak+EjUNQYo08gC7NFzPoTSI\r\n7RU1kpUbNYXvKzWOx240VWf0NGRuBzU6PIo0wlCGNT7g9jSWZjw1Ml4BNRvl6jTQR3w1lmHdNGfd\r\nITTobvU0ypuvNEpF+jTjNY40JYO7NCfBbzQijsA0us84Na6J8TQIYwU1V3IrNSwmYTXQ1kU0zKTc\r\nNDTVfzTj6to0SbOuNHwCvTQ/eR01mcuPNPTduTRDjf806a+nNAj20DREKOo0nPlPNQTe+zQNWSo1\r\nlpGmNBv9xzT/tzk1CtkQNapg2jSMQlI1MDUTNRhOMjWh56Q0AygANa8srzRbOwQ187XxNOQlwDSQ\r\nNO80mTAVNaBD6TQbeoo0UM6FNHPMCjV4t7k0gIxkNE02BjXYBQo1AhAcNWJMijS64uA0zd0JNXWm\r\nEDWiijY1ZpSXNNpWpzTYT+k0QHbzNDaorzSGDHs0qT7ONBvuhzSyYys1dPYCNQdToDTk8uU0MwYH\r\nNWYw+TRbj4g1aJxzNHlxCDVIE8c0Nl2SNOyilTRoqUs1KtMvNbhJPjVmcCE12eGANQ1X8jSNKZo0\r\ndGHdNGrcDjXxZ0A0JhPPNJb14jSwx8o0morUNDmP2DTubH40SSbdNE1r7TRT3rk0EZGLNP35LjV1\r\n1640P7XhNLEsczQldYc02X7eNAZ67jSawbI0drgeNb6GtzSMN9U00j4cNQhrBzWSqgw14dAnNYUF\r\nnDTQSpg0P9OMNOHDLTULMsI0QH6VNI2nxDSl5Yc0WHyLNCaeLDXnc6Y0AaCFNBQP7TTJzR41kvoE\r\nNRykHjU6wZw0+cjVNJdR1TSiQQU10AuONaiUkzUExgY1MMYONaRkZTT9EAU11Bu0NC2j3jTIM4A0\r\nal8cNSoRTzXbrSk1FTDYNEBqkjTgDwA1sun9NP5ztDRWob80HSSSNGYkGDWnkuM0RaMANeGLITXo\r\nTow0GNvbNJlRuzSgsOY0CpP5NMVL9jRRErs0aS1TNVNWgDSmPp80Gvy3NBnwGDXWr7M0dB/VNIw8\r\n0DQBkZ410iF5NDXYLTVZSxU1T0S6NHIrqTRzbRA1XDWKNA2phjRVwpo0SPJ1NGzsODX8K6Y0ne6l\r\nNNU3JjWsl7M0wb+kNKhE5TQUaN8041HRNPhNtTRpfuQ09awXNcwLtDS6nqA0qbk4Nbg8qTQ3pSA0\r\nkRS8NLXO0DRqdcQ0b//eNLPvrDQGQu00fPstNS/HMTWPJMc0fIrENBIciDSLv/k00iuaNNjgPDWm\r\not00DFkCNfHQhDTO4qY0xTYDNbDSOTWNTjA1dLcPNZB1uzQDUrY08mkFNZaNRjXzzK00ErsDNVeQ\r\n3zS5HxA1pmTINLQDBTWIxP008Ny+NADrGDWeipI0eMHvM5R6CTWA3x01wRO2NE0PBDXZKrU0GFyV\r\nNOCJrzSgxtE0tQR+NKJP0zTmcMA0zgvvNFJN7TT5eA41x/eHNAie2jTBXoU1JbdYNQAAEDUAZAE8\r\nF6YTPaE6DT5EKNM9dQ3rPVEOUD0ioW480q89PCfdUDzbEfI8OKDUPGwsmDxHYgE9amiBPGR1zjsP\r\nPhU7a3x7OyhGRzygj6g8mBGWPCuBIDwy9E47Dr4TO1iRvDsOzBo7Kk6nOyjG8juQWao70ZvWOxbH\r\n8zuU8n07aPEbPGxKlzygoVs8TMfIO9+xhDsybFY7q+rTO/L8YTx2ZJg8LVf1O0mYPjuCWmQ7fLXf\r\nOt2APzt7zMI7O4D+Ox50Tzw8t+w7lE+pOzStezsIHeo7gHbGO/xxGTz7XIA7vAj1O108gzyol3g7\r\ntww5PFZa6zv7yxw8BjMgPKnvLj13cpY8hhS0PDysuTskGOc6fsrQOrACgDqdYpQ6nrawO0mtIzpq\r\niZQ6oWVXO4pL/Dsyi9U7isI/O5AADzuqPMM6Xcz3OuCjVjsJJAU70nAkO3xeCzuPI4E7G4YiO1p8\r\n7jrINmQ6RKiWOkNYjzquKxk7L5jEOkefiTpiBN05wkIqOcZGDTp6g046RrOpOQ6EwjmtPgQ6e2Gc\r\nOSSjpDlo8ZU55XS9ObmuBzlz4785N8m2OWCrjzo4vB06uHOTOSQohDrAdAk6ttpzOqV9QjpzGTY6\r\n3XEaOsgBjjqKt8k6HvZMOicoGjocq2w6ap4WOhHEADrfCzk63skBOgeJHDrUTnI5YkuiObHDpjmu\r\nSKM5/cCSOf1k+zmMGlI6inluOu+YIDu89m07RVI0O6+Kgzr+5446GKYWOsGMzDkpPtU5IguVOWYu\r\n0Thu2rs5wj2KOYr0Szln8mE5OIzqOdZKbDmJnpY5zvoYORbfcjmJJb45rPudOReeBTpaM7A5gOEv\r\nOfU4rjmBKBo6bN3fOQHYIDpCxO45IMMKOhDuqjnu5385nKuKOcsUJTnO6QY6IssJOqWwlTkE/nk5\r\n982pOYJKFzlMEgc5kM8qOTzQSjkjjFw5oLMhOb3XTTlwQiA5qwrfOFyxBDkkj0w5MGaVOpPkyzkA\r\nWYw5x/dWOdTGaDnThQM6cUq4OS/ykTn8pTU5cg8tOjmUnzmJETc5yAicOQHqsTm7VQY6AgbzOcxp\r\nYTnUlDk5COb3OVNucjnJjtA5lvYsOVSTlDlbCZA5jieCOevY/jld/5M5ZAsQOQCjIjmaXZk5X2sk\r\nOaKvQDn3w2A5sFLsOCInSDnjTPU4Pw52ORiOFTnxB085aOe5Oeymfzkdh5Q4b9kUOTcjiDlltOQ5\r\nW97hOK93TDk6TJo5GxUROfmZKDmqWVg5gnArOZiUUTljp2g5VN4COa51OjmCG6857I8hOQJUyDiy\r\nFeY4PzlIOQnaEjkNa105LJgJOedSTTmft9w4RFvhOEMPBjkBNUc5IxKaOKB0AzlHK0Y5uzfsOA7s\r\nCTnIO1A5K33WOKFk2jjp16849C8QOWZpPTn28K85JD91Ocr4pTiAdCY50TmeOH4OPTl/1vM4rUTC\r\nOKr9azkWMbo4F7ngOLhyVDn8tgw5pjZnOXrXVTgwxCo4OQx/OXmv4TiOkZs4EjRhOc/BKzm9HJg4\r\nmNmEOBptqTgOwN44isnuOMjHEDkVGqA5ZsgfOcwJgTn/qS85F5G9OSUi8Th4/wU58kwEOcGM0znk\r\nW1o5KBbSOPxmrjgoieg4mOJqOacY5jhwBhY5iXUjOeCfAjn89RI53mOTOE5nnDgXwQo59x/YOLsN\r\nvzisAgg5ZZXBONJSyTg4ChA5g0OvOOLhCzk2PkQ5yZUgOf1/lTgIavM4G5cEObRwszj5plM54Ngg\r\nOTpfCjmgXsE4/c7tOPbIHjng2QM52pkWOVEIBjnWdfE44lgEOVkCJTm3Js04paCwOJruaDnED7c4\r\nlngHOd1wSThLgdw4+MM6OWkNiTjQTig4ZOnTNxI6RTeeDew2cZ29Nv7NAjclhNM2iMnzNsyKczZM\r\nTqE2NwIANyN0CjdyN5Q2WgazNq/6RTZdvu82CgJ2NnBTbzZ2Y8g2nCmlNornMTbyM/U2XdYuNnYx\r\nDDZETwI3eL+nNkEyGTdWc042Yb0WNzGqlDaNeNI2vHqNNkA4sDYmdYE2+cmANhHYVzaKnIs2sgCG\r\nNgmRtTZMoZo22v10NnRMhzYJ96I2OKTLNuYomzb9GYQ2aZ4gNg34YTYuHZo2W3zKNg54fjYZjkw2\r\nf2wUN3Od0TYrN5w2qv+fNtmNlTawHlI20q1xNtWcgzbalsQ2aqh0NqiRqzZJr+Y1tKkfNvwthjbs\r\njso2aMOjNjtLWzaqzNg2QuVVNvmDcTZsOcU2ODthNmCKmjZkwsw2JO2RNrvV7zZ/j5g2X3SCNuWv\r\njDatdLA22aTFNuHopjZGQ1k280BwNm9ZdzZuF3o2uV16NukrgjZ0cmI2oP0yNtheUDbrCZM2IZD3\r\nNcjiiDbmV9M2x6S6NnU/pzZADwg2huV1NusKwzZOBTQ2+FGNNgbaCjZtFJo2oEWzNnsKijZWeO02\r\nGtuJNu8IdjY49Yg2Mr2ANg3ZzjZiM+s2PSKeNoMphDa/F582hoJcNt0QxjZWOKM2KJ8XNqxVQjbY\r\ngaI2GZ6aNs0bpTU+g5g2tEowNtIkZDYOlas2ZR1xNtIkgzZRo4A2kxo0Nq+R7DZCmS43Jnh6NgQS\r\nbDb4RYg2lNw9NuvPkzYiw3I2yo89NhID7TYcIIw26OkjNrMkKzbG26s2fgyyNkykhTarGu41ZVyZ\r\nNs59hja4/3g2DVwlNg8S/DWud6U2N9IvNgCXSjbgmnM2uSBPNn7iXza+E8Q2IrczNgAgGTbUpLw1\r\nmKpzNoJSGzdiAoM2ZpDFNfrlFDY4tAI2RI+mNgX6UTb+VoU2addaNhrNCTZZFHA2uMncNXzMSzbJ\r\nKYk2chpoNlUqsTVQL942eABrNmzNjTZ3X0o2gnWBNn72gTZLTEE2lwQzNgfuCjaKZ0A2Cn+pNqDa\r\nNzbbTXE2Jn7UNu4UKDZVMoQ2j46fNsCxMzbOjB026lnINRYmezYubI02j29ONiv6jzYkvQU24bo/\r\nNlRyPzacL0c24hOWNpYhiDbn4/U1XMKXNjdHgzYwUO01kmwQNsrkGjZWzx02IdkDNtNSCTdR2VE2\r\nthtfNuRpyzaptiM2tEQ0Nkz1XDaF2zA2q9VKNcwlKDW1Wt007vuJNFq4yzRjGzI175BhNbYW/jTC\r\n50I1fp2dNJ2JFzXcfBY1j6wVNck7ADXKUgk1IqzANOh0JjVVrrw0Msw2NZKFGTUaPUI1fBNaNcVN\r\nSTUON7Q0P4fQNFKuFzUxPlU1sICqNGd1ajTm2QI1i7CcNE6RhzRis6A0+Hg7Nbaz2zTd5O41Lo6Q\r\nNCC46jRqY4k02LwPNQsD+zQS2kY1DgsZNQCcHDWKMa00NY4gNbBtFDXqiRc1oiMKNXSGhzRgRxs1\r\nsvCONXglnTQaJsk0VZcVNTwSAjVbovE0HAgiNYYOkDWs+Bk1NoTxNOmQHzWwgbI0cTRKNEIM5zRm\r\n0Eo1Lt3NNDT7uTSlUH81fpTdNNbDuDR5QIA1bivBNDg8tDTqSAw1juzKNPjckTXYQus0QHrGNAe/\r\nzjT+Kxk1k1EENS6XETW7x+g0SgvDNLGCvzSIgvk0RU2fNNSwojQOc7k03IPMNCf6ETV8ef00kiUz\r\nNaCP5DSyjgI1NzurNDzYBDVnrxg1wWfANHpDdjTTMLM0SyeuNCZrpDTpSwg1kQXWNKnmtjTd4L00\r\nCjEvNe+3XjWZAko1Ym35NPTQoTRMXRI1/Kv1NNnw+TREn580ApgENQioMTUc6Qw1wGDtNMWVAjX6\r\nRmI1CN1MNL0nqzQdttc0yKQdNbOO9jSg9bU00Ta0NPpG8jRwfn81zM+VNG1DtzQjBjQ133YnNRiY\r\nzzSD58A0vVEGNeQz7TQc+8c0alDxNOYeqTRZjwM1A1X7NKFF9DRfJtM0Vc0BNUYGIjUIksE0MIwp\r\nNYA4xDQyT2E0+rrONBaUKjWcVbs0lgEXNQhoLjVqYfM0QkIHNXxZBjWjN9A04CoHNf4JgzRmC1I1\r\nHvk2NR48nDSMgG00Zf32NNotNDWhucs0OhP6NCbLvjSa08g0UXkUNWHkGjU2b7M0Jjf1NNWAHTX2\r\nAKk0D22rNDpwCjVAdSE1wIe3NKki1DQ7h1c0c56RNM+EHDWeNvs0MQ70NEBr+DSzItM00gbWNHQw\r\nKDULfMQ0x//kNPxv2TTQtDM1WH4UNV82NTXQGQs1zfzkNE4e5zQRzgg1/pbnNGCS0TTOFd40v6/x\r\nNAS1tjRCvqU0IwneNHHchzWWIeA0UM+4NK8f9TRyIZM0h7UINdtvGDWwIMU0f+g7NQZH3jSvXyg1\r\nQFDUNEfN1zTFaJE0vTVhNZhtEzVsOCo1lI2DNKvBcDU7hyA1G3lgNdKy/jT5BOE0W5yZNMVKxTQt\r\nffo0UfUYNfYY1jRmNic1cjOcNHhM3TQltw01y+wGNdUXAzWjaYQ1EAGsNAMnHTXG2Ok0b2sZNdaU\r\nnTTqTu80BYtpNRavBjXpXoY0gY8TNRz6MzTZ+bU0CwEyNeatmjTYpAw1XQ0NNS4fMDUD3N80w5kB\r\nNbZ+wDSHwM80LsdINflVQTXijxU12ckXNexXHTV3aAk1Y0gINRwPEzWrSkk1gEhcNcKckzRnQdM0\r\nylE8NZTlGjWZRXo1mYPiNKOIGDX9VSk1SDywNE/uAjVE05U0/LpeNYJ8uDT+TwI1K57TNKdFFTVQ\r\nmmw1bxHxNNasyjTwQdg0uDi0NKQl/jRwNLM0eBffNHVFvDRC6IA0QxjQNA8uczQLG6o0fGK7NO7j\r\nmzQBYqc0PLzWNLgI9DTcW6Q0a0AZNYg9STUbsVQ1+5sfNVyxoTRchak0ZlS/NIZF8DQC/LA0KHW2\r\nNAKVBzVhPRg1IxGrNNrwCDVtxBU1lnAcNYeauTTwp/s0RXHANLDJwzTVLtw0yWgLNdyaGTVZOe00\r\nJFcoNZ6B7TQG/MU0+DEUNQFt/DRtlSo14IBuNQxXyzRAZsw0OmxvNepc4TQsbOo0BX5pNeLZFjVa\r\nUP00/NC+NDfFxzSk/Jk0Xv9WNFcJFTUkCfs0nPhONWb3szQLn8U07ItQNLGo0DSMwQE17Z/PNNec\r\n0zRaof0076bINOo8GzXNlYU0hEQkNTyH5jT2YwU1rPNDNQ/OwzRUsuM0rNi/NPhc8DQKmUg1hNDu\r\nNFsmCjUDuzw1VasyNef7cjVSnrA0plT5NKXLhzSFNZ00Ed+nNCFdUDUWMQI1JJnbNNcqvjQMb+40\r\nMCZxNWBYzTTT7DQ1EXZRNffmaTV+3a80W4eUNHE8DjXgGu40gRDrNBPuqjTmEDY1ol3ONJbeJTVU\r\n2RE1pL7HNICD5TRWWw816jZdNU5+4zSdEBA1+UiKNPe7OzXoSB81ciQHNY2hujSihSE1Zmy4NC66\r\njjSDV6M0zDuqNH8orDToE6s0mAmlNNh/LDUtZTA1POHGNHfLdzTbIis17ZIdNZocBDVvRKE0QmwB\r\nNYXQijQkWAs1oC2hNA2Z5TSh2c00fEGaNMT8ujTDZ5w0Y1z7NI2ELjWyxiA1AEAcNQ==",
                            "noiseTrainingType" : "default"
                          }
                        }
                    ],
                    "start" : 1090,
                    "duration" : 157,
                    "mediaStart" : 1030,
                    "mediaDuration" : 157,
                    "scalar" : 1,
                    "metadata" : {
                      "WinSubProjectDisplayName" : "",
                      "clipSpeedAttribute" : false
                    },
                    "animationTracks" : {

                    }
                  },
                  {
                    "id" : 348,
                    "_type" : "AMFile",
                    "src" : 15,
                    "trackNumber" : 0,
                    "attributes" : {
                      "ident" : "旁白_vis2021 1",
                      "sampleRate" : 44100,
                      "bitDepth" : 16,
                      "gain" : 1.0,
                      "mixToMono" : false
                    },
                      "channelNumber" : "0,1",
                    "effects" : [
                        {
                          "effectName" : "NoiseReduction",
                          "parameters" : {
                            "denoiserAmount" : 20.0,
                            "denoiserThreshold" : 0.0,
                            "noiseProfile" : "OWoAPH2pEz2x9Qw+d6HTPcva6j2sp089E2dtPD6vPDwfl1A8ScjwPJTr1Txy35g8LaEAPTpegDyh\r\n+807XKYVO6TEeztxHEg8k5enPOCDljxR1SA80RNNO5P/FTsAUsA78qcaO7cppTsc2vE7qgSrO6lQ\r\n2jukqvI7h92AO2yWGzx+tZU8JitaPFzIyTuXwYE7uY9XO8aQ0Dvqq2I88amYPMnb9DtB2j87KTBk\r\nOzy52zoRSDw7OCjBO9xi/DtxwE88KlbqO3j0qDtWJH47VJnsO9JoxDuANhs8tJ+AO6Qz9Tth+oI8\r\nbGt3O1T1Nzzjhew74A0cPJAvITwici89BseWPGFNtDxkw7o7MRvlOmld0jryf386QXGZOrHMrzuA\r\ngR46FrCVOsPpWDsY4v07HUbYO1nLPjsw9w47wr3FOrnZ+Drc3FY7lUkJO7DAJDv2mAY7Bol9O6Gv\r\nIjui8ek64NliOq5vmTrG/ZM6bCYbO5q5tzpF2YA69unhOXdvJDkMXx461iVVOpU6tTmIPdU5NZ4C\r\nOrLzrDlzv6053gyzOSasszlLTgc5O7atOcYrxzkKtYw6r9cjOpoinjlRRog6Q9QHOqLsbTo5k0E6\r\n9U47OqgHGzq2DIw6xrvIOkIITzrGgR86I/hwOsTOFzq0IQU6isQ5OkIP9DmC+Bw6hsx0OYy4pDnt\r\nMqk5f6afOfFKnDnqIvc5SsRQOpXvdDp8CiE703psOwEALztW+4A6r36ROtKuGDoo4s852RrZOQKM\r\nhDmkgtY4CBe5OXJ5jDnBcjY5RM9jObGZ+DmyHG05aluSOaagETnIyGM5Jt2dOdUxnTmBHwU6PPyu\r\nOQ2PETl6x7k5tcInOtV63TnmcCY6dHftOUWtBzoIt6w5qk+GOf1mbTk4DT454wsLOh2HAjoY+ZY5\r\nyr2VOQQurzmqnRg5LDMFOZLQUjkvV1Q5/g1+OSlxFzlITz85XmAkOdDG/DjiIfM4htxWOREUlTqh\r\nwcw5VnaGOWCBXjn90lA5cKzvOWPrqzkL/o45sEFOOTkyMDpUc5s51oo9ORByjjlGCco52p/tORKy\r\n8Tnit2E51lY0Ofo+ATq6o3Y5Z021OYTVGDlRAq45zuyhOeA4ZDk52eE5nw91ORI2OzlB2R85fgab\r\nOY8bMjkQ1TA5cCaFOXju/Dh2ghM59YD8OFHmfzmnKiQ58YpfOXsbtzlCtX45yEWKOLGkLDkayH45\r\nRUrSOSltyTgvk1U5NT2NOY45EjnfihY5JFlqOTokTjlSlV45Ir54OQ1W5jifjjI5bWS5OfA8NDkO\r\nXs44QhjgOLbnOjkr+iw5hK5/Ocz3Azl6HF45q6DlOIJb2DiR79I4esU3OWtGjDg4gBM5cVloOdzR\r\nDTlkchs5GGg7OVSTtziXOeg4XazEOCiMADmz6Tw5ueqOOVcmeTmS4Ms4nI0UOUTLnjhAXjc56pkE\r\nOdXdBznEOY85PIy4OMxI5zgkSxk5r6oQObvARTnCtUo4LoVEONjrVjnfUsw4msCWOCWAQjlc/y45\r\nJ4KtOCzJrjjGJZ84BKXjOIHj2jhi+yE5rqqOOdCIIzm9fIM56Oo3OUSjtzmiT/M4Wiv3OJw6ETmO\r\nS8w53FJpOdbu1DiJSZs4DaoFOWqKWDkkyvU4GPIdOchJLDmxKwA54MMWOVgzmjgl75M44OcEOVPH\r\n3Dhmzdw4X9sOOb2CyTguC7Y4VgEmOTaQxDjBUAQ5dAM9OarFHjmfj444qMgAOWZMDDmSlas4yUZQ\r\nOaDeMTmPogU5Wxe1OF0m3Dh6aDQ5tbkIObjoEzlqqg45EPLvOKyF+zhUmiE57MvFOPg/vDiW+Vo5\r\nmhyzOGFsBTldBEw4dL3pOOk/QDnXnJQ467sNONFyxDfGPDM3rTsZN+BixjZrWTk338GlNhf/FTe5\r\nNTk2RTSUNkMj3Taj0d02is2UNt0UDDYUXvI1aeXFNhijMjbAtYc2ikWgNuphZDY8D1I28gSnNv4k\r\nLTZRYDk2mtYGN70P5DaWBKc2RzXfNlQFKTeHIYk2IpjaNofVszbqlaM2PatTNiKTzDYjx6M2BMHZ\r\nNiXEdDbJOMs2FNCMNsnGRja2BpI2UsiGNvm1vzbR74Q2wLCoNnn3jDa4fK82VqGlNrSAsTYwh5o2\r\n00guNguj5DYiuZI2yg0BN6PItzbTY6w2VXFINoLcTDbWIk82WJ/cNvx6HDZGdqc2ta/1NVwQMDaG\r\n9VE24mqONlq9rDaNiSE2Lay+NpqbcTYGZ3Q2KPqfNicegDbQyZw27RAtNyQhVjazoMU2izz9Npf0\r\njzbhrAg2zKY4Njo2yjZ1hZE2WNZsNrbfvDZiyp42KRFjNr96jjbjaI02RTYRNmwjhzapnyI2B4XY\r\nNltT7jUOLSY20oDqNhJrxDaCZWw2Ct+VNg/LgjZZzMA2Ik1JNrzQuDZxy901azNqNvW2eDaUuVs2\r\ngu+KNta85ja8P/M1FmShNp/ipjb1OIE21Q/2Nr5JmzYXtZU2x6+qNk6LmTZnjYw2mIJGNul2Jjbc\r\nO3A2lquYNuovLTYtgfE1nUlUNgQzNzaIsDM2DIvUNjKBRja+0oY2ExJ5NgPdJzZaSLQ2EtYgN0Wc\r\nDDbIHow2IiiZNgZUVTa1JnM2v3wcNoN3YDYCtgE38JaENkzoaDb0JTc26/WJNoqw9jYFxFI29vNP\r\nNmdCvDZHFIU2xxObNr0sUTblHoc2JrM/NmrbFDYX93o2m4OpNgs6HDaFNl02Rb2TNpjkJjYAADk2\r\n/8chNn7/QTawezM30gsqNidJ8zWKfC02kBYuNmSnnTa80FY2mFN3NkYZWzY4aO41UHmKNkyZiDYh\r\nGC42h1Y6Np6cgzYSij81AnuaNnc6rzZUXG82vp9eNp4h/jWNsEY2k603NuKSjDbHWSo2RxYINlNS\r\nmTaAOlU2yvJmNkqftzZ5VEk26hV8NjWLezbKM9Y1ernFNWi/XDZaEHQ2dhvANhDaRjYMwy82EwC4\r\nNlCNVTbH4IU2Cx1LNk6XlDbcVNA2FB33NQHMjzY6eW02jpZONqrdMTa+lxk267lUNkhoNDZz+TQ3\r\nwulaNoXxEjYQdsQ2lXEcNsiYOjbfz9o2UzpENvQL0TSOQIM10f8gNcLzLzX5w2c1H4efNN2VyTQO\r\nn70011tKNT7aKTUG8/w0QEgiNUCRKjWhXKI03LYLNQzSrjUnb9E0iB65NCpfLzVs4tk0emppNQtw\r\n8zTy2+U0USoLNeRnDTU88Uc19BfdNFPdNDVtA7Q09QQJNdJhKTXqRNg0am3RNG251DQ1KrA0Oj/Y\r\nNOrxkjTQ8cI0+3eXNEYitDR9exs1YvMdNUBR5DR0pQE1EGj5NAq8KTXmxKs0ErgPNTXAAjVM71g1\r\n2McYNch2PjVA3vs0HZGgNJEIOTWY3M40B5RGNGfgUDUIWUw1AAKQNPuJvjRnt4w0M0qUNPpcxjR3\r\nCM0000dJNZjtnTSx6rQ09gISNSzUKjVHscM0TBtXNYWZEDWjpck07HS+NMuEnzTVZ0U1duMGNWCg\r\n6jTs3880YBEXNT+XujRa3bk0wUISNadMADU5AQ411F8ONePs/jS0pjA105FENQ/HnjQmcwg1WPKH\r\nNFq2nTSuOLI0S9MpNbyI/zTAPso0+sXPNPLB3DTur8o0PLbHNPmbnzT+MvY0YjqvNCUXJTXMJp80\r\nndUPNWmVEjXazkY1O5DgNMl4gzVmyAY1rYEfNXmSQTWIrhU1ikoVNSCqpDTaEbY0/AvpNLIwhDSh\r\nIww1MCwENb5Y/zSUBhw1UowYNbXtpzTvlg4155xcNZhCrDRWs9U0k616NIzznjRmnAQ1Khq/NEm9\r\nCTUki940fgEVNZA1JzWkzqg0RtjuNI+WjTW0QRg1omMcNXzDIDUDHKI0NVu3NMMpRDVCjIo0ViIs\r\nNfxAITWCVB81HXTcNB0NXDWG+bE03vcdNf6QMzXAn8s0Eg/NNATJsTQE9U01LMELNX7DoDSIEB41\r\nwLEGNUVbzTQ8Pwo1QFCINBFgFTVn0vo0JOCjNNaR8zQ1vx41DXUDNak+EjUNQYo08gC7NFzPoTSI\r\n7RU1kpUbNYXvKzWOx240VWf0NGRuBzU6PIo0wlCGNT7g9jSWZjw1Ml4BNRvl6jTQR3w1lmHdNGfd\r\nITTobvU0ypuvNEpF+jTjNY40JYO7NCfBbzQijsA0us84Na6J8TQIYwU1V3IrNSwmYTXQ1kU0zKTc\r\nNDTVfzTj6to0SbOuNHwCvTQ/eR01mcuPNPTduTRDjf806a+nNAj20DREKOo0nPlPNQTe+zQNWSo1\r\nlpGmNBv9xzT/tzk1CtkQNapg2jSMQlI1MDUTNRhOMjWh56Q0AygANa8srzRbOwQ187XxNOQlwDSQ\r\nNO80mTAVNaBD6TQbeoo0UM6FNHPMCjV4t7k0gIxkNE02BjXYBQo1AhAcNWJMijS64uA0zd0JNXWm\r\nEDWiijY1ZpSXNNpWpzTYT+k0QHbzNDaorzSGDHs0qT7ONBvuhzSyYys1dPYCNQdToDTk8uU0MwYH\r\nNWYw+TRbj4g1aJxzNHlxCDVIE8c0Nl2SNOyilTRoqUs1KtMvNbhJPjVmcCE12eGANQ1X8jSNKZo0\r\ndGHdNGrcDjXxZ0A0JhPPNJb14jSwx8o0morUNDmP2DTubH40SSbdNE1r7TRT3rk0EZGLNP35LjV1\r\n1640P7XhNLEsczQldYc02X7eNAZ67jSawbI0drgeNb6GtzSMN9U00j4cNQhrBzWSqgw14dAnNYUF\r\nnDTQSpg0P9OMNOHDLTULMsI0QH6VNI2nxDSl5Yc0WHyLNCaeLDXnc6Y0AaCFNBQP7TTJzR41kvoE\r\nNRykHjU6wZw0+cjVNJdR1TSiQQU10AuONaiUkzUExgY1MMYONaRkZTT9EAU11Bu0NC2j3jTIM4A0\r\nal8cNSoRTzXbrSk1FTDYNEBqkjTgDwA1sun9NP5ztDRWob80HSSSNGYkGDWnkuM0RaMANeGLITXo\r\nTow0GNvbNJlRuzSgsOY0CpP5NMVL9jRRErs0aS1TNVNWgDSmPp80Gvy3NBnwGDXWr7M0dB/VNIw8\r\n0DQBkZ410iF5NDXYLTVZSxU1T0S6NHIrqTRzbRA1XDWKNA2phjRVwpo0SPJ1NGzsODX8K6Y0ne6l\r\nNNU3JjWsl7M0wb+kNKhE5TQUaN8041HRNPhNtTRpfuQ09awXNcwLtDS6nqA0qbk4Nbg8qTQ3pSA0\r\nkRS8NLXO0DRqdcQ0b//eNLPvrDQGQu00fPstNS/HMTWPJMc0fIrENBIciDSLv/k00iuaNNjgPDWm\r\not00DFkCNfHQhDTO4qY0xTYDNbDSOTWNTjA1dLcPNZB1uzQDUrY08mkFNZaNRjXzzK00ErsDNVeQ\r\n3zS5HxA1pmTINLQDBTWIxP008Ny+NADrGDWeipI0eMHvM5R6CTWA3x01wRO2NE0PBDXZKrU0GFyV\r\nNOCJrzSgxtE0tQR+NKJP0zTmcMA0zgvvNFJN7TT5eA41x/eHNAie2jTBXoU1JbdYNQAAEDUAZAE8\r\nF6YTPaE6DT5EKNM9dQ3rPVEOUD0ioW480q89PCfdUDzbEfI8OKDUPGwsmDxHYgE9amiBPGR1zjsP\r\nPhU7a3x7OyhGRzygj6g8mBGWPCuBIDwy9E47Dr4TO1iRvDsOzBo7Kk6nOyjG8juQWao70ZvWOxbH\r\n8zuU8n07aPEbPGxKlzygoVs8TMfIO9+xhDsybFY7q+rTO/L8YTx2ZJg8LVf1O0mYPjuCWmQ7fLXf\r\nOt2APzt7zMI7O4D+Ox50Tzw8t+w7lE+pOzStezsIHeo7gHbGO/xxGTz7XIA7vAj1O108gzyol3g7\r\ntww5PFZa6zv7yxw8BjMgPKnvLj13cpY8hhS0PDysuTskGOc6fsrQOrACgDqdYpQ6nrawO0mtIzpq\r\niZQ6oWVXO4pL/Dsyi9U7isI/O5AADzuqPMM6Xcz3OuCjVjsJJAU70nAkO3xeCzuPI4E7G4YiO1p8\r\n7jrINmQ6RKiWOkNYjzquKxk7L5jEOkefiTpiBN05wkIqOcZGDTp6g046RrOpOQ6EwjmtPgQ6e2Gc\r\nOSSjpDlo8ZU55XS9ObmuBzlz4785N8m2OWCrjzo4vB06uHOTOSQohDrAdAk6ttpzOqV9QjpzGTY6\r\n3XEaOsgBjjqKt8k6HvZMOicoGjocq2w6ap4WOhHEADrfCzk63skBOgeJHDrUTnI5YkuiObHDpjmu\r\nSKM5/cCSOf1k+zmMGlI6inluOu+YIDu89m07RVI0O6+Kgzr+5446GKYWOsGMzDkpPtU5IguVOWYu\r\n0Thu2rs5wj2KOYr0Szln8mE5OIzqOdZKbDmJnpY5zvoYORbfcjmJJb45rPudOReeBTpaM7A5gOEv\r\nOfU4rjmBKBo6bN3fOQHYIDpCxO45IMMKOhDuqjnu5385nKuKOcsUJTnO6QY6IssJOqWwlTkE/nk5\r\n982pOYJKFzlMEgc5kM8qOTzQSjkjjFw5oLMhOb3XTTlwQiA5qwrfOFyxBDkkj0w5MGaVOpPkyzkA\r\nWYw5x/dWOdTGaDnThQM6cUq4OS/ykTn8pTU5cg8tOjmUnzmJETc5yAicOQHqsTm7VQY6AgbzOcxp\r\nYTnUlDk5COb3OVNucjnJjtA5lvYsOVSTlDlbCZA5jieCOevY/jld/5M5ZAsQOQCjIjmaXZk5X2sk\r\nOaKvQDn3w2A5sFLsOCInSDnjTPU4Pw52ORiOFTnxB085aOe5Oeymfzkdh5Q4b9kUOTcjiDlltOQ5\r\nW97hOK93TDk6TJo5GxUROfmZKDmqWVg5gnArOZiUUTljp2g5VN4COa51OjmCG6857I8hOQJUyDiy\r\nFeY4PzlIOQnaEjkNa105LJgJOedSTTmft9w4RFvhOEMPBjkBNUc5IxKaOKB0AzlHK0Y5uzfsOA7s\r\nCTnIO1A5K33WOKFk2jjp16849C8QOWZpPTn28K85JD91Ocr4pTiAdCY50TmeOH4OPTl/1vM4rUTC\r\nOKr9azkWMbo4F7ngOLhyVDn8tgw5pjZnOXrXVTgwxCo4OQx/OXmv4TiOkZs4EjRhOc/BKzm9HJg4\r\nmNmEOBptqTgOwN44isnuOMjHEDkVGqA5ZsgfOcwJgTn/qS85F5G9OSUi8Th4/wU58kwEOcGM0znk\r\nW1o5KBbSOPxmrjgoieg4mOJqOacY5jhwBhY5iXUjOeCfAjn89RI53mOTOE5nnDgXwQo59x/YOLsN\r\nvzisAgg5ZZXBONJSyTg4ChA5g0OvOOLhCzk2PkQ5yZUgOf1/lTgIavM4G5cEObRwszj5plM54Ngg\r\nOTpfCjmgXsE4/c7tOPbIHjng2QM52pkWOVEIBjnWdfE44lgEOVkCJTm3Js04paCwOJruaDnED7c4\r\nlngHOd1wSThLgdw4+MM6OWkNiTjQTig4ZOnTNxI6RTeeDew2cZ29Nv7NAjclhNM2iMnzNsyKczZM\r\nTqE2NwIANyN0CjdyN5Q2WgazNq/6RTZdvu82CgJ2NnBTbzZ2Y8g2nCmlNornMTbyM/U2XdYuNnYx\r\nDDZETwI3eL+nNkEyGTdWc042Yb0WNzGqlDaNeNI2vHqNNkA4sDYmdYE2+cmANhHYVzaKnIs2sgCG\r\nNgmRtTZMoZo22v10NnRMhzYJ96I2OKTLNuYomzb9GYQ2aZ4gNg34YTYuHZo2W3zKNg54fjYZjkw2\r\nf2wUN3Od0TYrN5w2qv+fNtmNlTawHlI20q1xNtWcgzbalsQ2aqh0NqiRqzZJr+Y1tKkfNvwthjbs\r\njso2aMOjNjtLWzaqzNg2QuVVNvmDcTZsOcU2ODthNmCKmjZkwsw2JO2RNrvV7zZ/j5g2X3SCNuWv\r\njDatdLA22aTFNuHopjZGQ1k280BwNm9ZdzZuF3o2uV16NukrgjZ0cmI2oP0yNtheUDbrCZM2IZD3\r\nNcjiiDbmV9M2x6S6NnU/pzZADwg2huV1NusKwzZOBTQ2+FGNNgbaCjZtFJo2oEWzNnsKijZWeO02\r\nGtuJNu8IdjY49Yg2Mr2ANg3ZzjZiM+s2PSKeNoMphDa/F582hoJcNt0QxjZWOKM2KJ8XNqxVQjbY\r\ngaI2GZ6aNs0bpTU+g5g2tEowNtIkZDYOlas2ZR1xNtIkgzZRo4A2kxo0Nq+R7DZCmS43Jnh6NgQS\r\nbDb4RYg2lNw9NuvPkzYiw3I2yo89NhID7TYcIIw26OkjNrMkKzbG26s2fgyyNkykhTarGu41ZVyZ\r\nNs59hja4/3g2DVwlNg8S/DWud6U2N9IvNgCXSjbgmnM2uSBPNn7iXza+E8Q2IrczNgAgGTbUpLw1\r\nmKpzNoJSGzdiAoM2ZpDFNfrlFDY4tAI2RI+mNgX6UTb+VoU2addaNhrNCTZZFHA2uMncNXzMSzbJ\r\nKYk2chpoNlUqsTVQL942eABrNmzNjTZ3X0o2gnWBNn72gTZLTEE2lwQzNgfuCjaKZ0A2Cn+pNqDa\r\nNzbbTXE2Jn7UNu4UKDZVMoQ2j46fNsCxMzbOjB026lnINRYmezYubI02j29ONiv6jzYkvQU24bo/\r\nNlRyPzacL0c24hOWNpYhiDbn4/U1XMKXNjdHgzYwUO01kmwQNsrkGjZWzx02IdkDNtNSCTdR2VE2\r\nthtfNuRpyzaptiM2tEQ0Nkz1XDaF2zA2q9VKNcwlKDW1Wt007vuJNFq4yzRjGzI175BhNbYW/jTC\r\n50I1fp2dNJ2JFzXcfBY1j6wVNck7ADXKUgk1IqzANOh0JjVVrrw0Msw2NZKFGTUaPUI1fBNaNcVN\r\nSTUON7Q0P4fQNFKuFzUxPlU1sICqNGd1ajTm2QI1i7CcNE6RhzRis6A0+Hg7Nbaz2zTd5O41Lo6Q\r\nNCC46jRqY4k02LwPNQsD+zQS2kY1DgsZNQCcHDWKMa00NY4gNbBtFDXqiRc1oiMKNXSGhzRgRxs1\r\nsvCONXglnTQaJsk0VZcVNTwSAjVbovE0HAgiNYYOkDWs+Bk1NoTxNOmQHzWwgbI0cTRKNEIM5zRm\r\n0Eo1Lt3NNDT7uTSlUH81fpTdNNbDuDR5QIA1bivBNDg8tDTqSAw1juzKNPjckTXYQus0QHrGNAe/\r\nzjT+Kxk1k1EENS6XETW7x+g0SgvDNLGCvzSIgvk0RU2fNNSwojQOc7k03IPMNCf6ETV8ef00kiUz\r\nNaCP5DSyjgI1NzurNDzYBDVnrxg1wWfANHpDdjTTMLM0SyeuNCZrpDTpSwg1kQXWNKnmtjTd4L00\r\nCjEvNe+3XjWZAko1Ym35NPTQoTRMXRI1/Kv1NNnw+TREn580ApgENQioMTUc6Qw1wGDtNMWVAjX6\r\nRmI1CN1MNL0nqzQdttc0yKQdNbOO9jSg9bU00Ta0NPpG8jRwfn81zM+VNG1DtzQjBjQ133YnNRiY\r\nzzSD58A0vVEGNeQz7TQc+8c0alDxNOYeqTRZjwM1A1X7NKFF9DRfJtM0Vc0BNUYGIjUIksE0MIwp\r\nNYA4xDQyT2E0+rrONBaUKjWcVbs0lgEXNQhoLjVqYfM0QkIHNXxZBjWjN9A04CoHNf4JgzRmC1I1\r\nHvk2NR48nDSMgG00Zf32NNotNDWhucs0OhP6NCbLvjSa08g0UXkUNWHkGjU2b7M0Jjf1NNWAHTX2\r\nAKk0D22rNDpwCjVAdSE1wIe3NKki1DQ7h1c0c56RNM+EHDWeNvs0MQ70NEBr+DSzItM00gbWNHQw\r\nKDULfMQ0x//kNPxv2TTQtDM1WH4UNV82NTXQGQs1zfzkNE4e5zQRzgg1/pbnNGCS0TTOFd40v6/x\r\nNAS1tjRCvqU0IwneNHHchzWWIeA0UM+4NK8f9TRyIZM0h7UINdtvGDWwIMU0f+g7NQZH3jSvXyg1\r\nQFDUNEfN1zTFaJE0vTVhNZhtEzVsOCo1lI2DNKvBcDU7hyA1G3lgNdKy/jT5BOE0W5yZNMVKxTQt\r\nffo0UfUYNfYY1jRmNic1cjOcNHhM3TQltw01y+wGNdUXAzWjaYQ1EAGsNAMnHTXG2Ok0b2sZNdaU\r\nnTTqTu80BYtpNRavBjXpXoY0gY8TNRz6MzTZ+bU0CwEyNeatmjTYpAw1XQ0NNS4fMDUD3N80w5kB\r\nNbZ+wDSHwM80LsdINflVQTXijxU12ckXNexXHTV3aAk1Y0gINRwPEzWrSkk1gEhcNcKckzRnQdM0\r\nylE8NZTlGjWZRXo1mYPiNKOIGDX9VSk1SDywNE/uAjVE05U0/LpeNYJ8uDT+TwI1K57TNKdFFTVQ\r\nmmw1bxHxNNasyjTwQdg0uDi0NKQl/jRwNLM0eBffNHVFvDRC6IA0QxjQNA8uczQLG6o0fGK7NO7j\r\nmzQBYqc0PLzWNLgI9DTcW6Q0a0AZNYg9STUbsVQ1+5sfNVyxoTRchak0ZlS/NIZF8DQC/LA0KHW2\r\nNAKVBzVhPRg1IxGrNNrwCDVtxBU1lnAcNYeauTTwp/s0RXHANLDJwzTVLtw0yWgLNdyaGTVZOe00\r\nJFcoNZ6B7TQG/MU0+DEUNQFt/DRtlSo14IBuNQxXyzRAZsw0OmxvNepc4TQsbOo0BX5pNeLZFjVa\r\nUP00/NC+NDfFxzSk/Jk0Xv9WNFcJFTUkCfs0nPhONWb3szQLn8U07ItQNLGo0DSMwQE17Z/PNNec\r\n0zRaof0076bINOo8GzXNlYU0hEQkNTyH5jT2YwU1rPNDNQ/OwzRUsuM0rNi/NPhc8DQKmUg1hNDu\r\nNFsmCjUDuzw1VasyNef7cjVSnrA0plT5NKXLhzSFNZ00Ed+nNCFdUDUWMQI1JJnbNNcqvjQMb+40\r\nMCZxNWBYzTTT7DQ1EXZRNffmaTV+3a80W4eUNHE8DjXgGu40gRDrNBPuqjTmEDY1ol3ONJbeJTVU\r\n2RE1pL7HNICD5TRWWw816jZdNU5+4zSdEBA1+UiKNPe7OzXoSB81ciQHNY2hujSihSE1Zmy4NC66\r\njjSDV6M0zDuqNH8orDToE6s0mAmlNNh/LDUtZTA1POHGNHfLdzTbIis17ZIdNZocBDVvRKE0QmwB\r\nNYXQijQkWAs1oC2hNA2Z5TSh2c00fEGaNMT8ujTDZ5w0Y1z7NI2ELjWyxiA1AEAcNQ==",
                            "noiseTrainingType" : "default"
                          }
                        }
                    ],
                    "start" : 1247,
                    "duration" : 24,
                    "mediaStart" : 1219,
                    "mediaDuration" : 24,
                    "scalar" : 1,
                    "metadata" : {
                      "WinSubProjectDisplayName" : "",
                      "clipSpeedAttribute" : false
                    },
                    "animationTracks" : {

                    }
                  },
                  {
                    "id" : 349,
                    "_type" : "AMFile",
                    "src" : 15,
                    "trackNumber" : 0,
                    "attributes" : {
                      "ident" : "旁白_vis2021 1",
                      "sampleRate" : 44100,
                      "bitDepth" : 16,
                      "gain" : 1.0,
                      "mixToMono" : false
                    },
                      "channelNumber" : "0,1",
                    "effects" : [
                        {
                          "effectName" : "NoiseReduction",
                          "parameters" : {
                            "denoiserAmount" : 20.0,
                            "denoiserThreshold" : 0.0,
                            "noiseProfile" : "OWoAPH2pEz2x9Qw+d6HTPcva6j2sp089E2dtPD6vPDwfl1A8ScjwPJTr1Txy35g8LaEAPTpegDyh\r\n+807XKYVO6TEeztxHEg8k5enPOCDljxR1SA80RNNO5P/FTsAUsA78qcaO7cppTsc2vE7qgSrO6lQ\r\n2jukqvI7h92AO2yWGzx+tZU8JitaPFzIyTuXwYE7uY9XO8aQ0Dvqq2I88amYPMnb9DtB2j87KTBk\r\nOzy52zoRSDw7OCjBO9xi/DtxwE88KlbqO3j0qDtWJH47VJnsO9JoxDuANhs8tJ+AO6Qz9Tth+oI8\r\nbGt3O1T1Nzzjhew74A0cPJAvITwici89BseWPGFNtDxkw7o7MRvlOmld0jryf386QXGZOrHMrzuA\r\ngR46FrCVOsPpWDsY4v07HUbYO1nLPjsw9w47wr3FOrnZ+Drc3FY7lUkJO7DAJDv2mAY7Bol9O6Gv\r\nIjui8ek64NliOq5vmTrG/ZM6bCYbO5q5tzpF2YA69unhOXdvJDkMXx461iVVOpU6tTmIPdU5NZ4C\r\nOrLzrDlzv6053gyzOSasszlLTgc5O7atOcYrxzkKtYw6r9cjOpoinjlRRog6Q9QHOqLsbTo5k0E6\r\n9U47OqgHGzq2DIw6xrvIOkIITzrGgR86I/hwOsTOFzq0IQU6isQ5OkIP9DmC+Bw6hsx0OYy4pDnt\r\nMqk5f6afOfFKnDnqIvc5SsRQOpXvdDp8CiE703psOwEALztW+4A6r36ROtKuGDoo4s852RrZOQKM\r\nhDmkgtY4CBe5OXJ5jDnBcjY5RM9jObGZ+DmyHG05aluSOaagETnIyGM5Jt2dOdUxnTmBHwU6PPyu\r\nOQ2PETl6x7k5tcInOtV63TnmcCY6dHftOUWtBzoIt6w5qk+GOf1mbTk4DT454wsLOh2HAjoY+ZY5\r\nyr2VOQQurzmqnRg5LDMFOZLQUjkvV1Q5/g1+OSlxFzlITz85XmAkOdDG/DjiIfM4htxWOREUlTqh\r\nwcw5VnaGOWCBXjn90lA5cKzvOWPrqzkL/o45sEFOOTkyMDpUc5s51oo9ORByjjlGCco52p/tORKy\r\n8Tnit2E51lY0Ofo+ATq6o3Y5Z021OYTVGDlRAq45zuyhOeA4ZDk52eE5nw91ORI2OzlB2R85fgab\r\nOY8bMjkQ1TA5cCaFOXju/Dh2ghM59YD8OFHmfzmnKiQ58YpfOXsbtzlCtX45yEWKOLGkLDkayH45\r\nRUrSOSltyTgvk1U5NT2NOY45EjnfihY5JFlqOTokTjlSlV45Ir54OQ1W5jifjjI5bWS5OfA8NDkO\r\nXs44QhjgOLbnOjkr+iw5hK5/Ocz3Azl6HF45q6DlOIJb2DiR79I4esU3OWtGjDg4gBM5cVloOdzR\r\nDTlkchs5GGg7OVSTtziXOeg4XazEOCiMADmz6Tw5ueqOOVcmeTmS4Ms4nI0UOUTLnjhAXjc56pkE\r\nOdXdBznEOY85PIy4OMxI5zgkSxk5r6oQObvARTnCtUo4LoVEONjrVjnfUsw4msCWOCWAQjlc/y45\r\nJ4KtOCzJrjjGJZ84BKXjOIHj2jhi+yE5rqqOOdCIIzm9fIM56Oo3OUSjtzmiT/M4Wiv3OJw6ETmO\r\nS8w53FJpOdbu1DiJSZs4DaoFOWqKWDkkyvU4GPIdOchJLDmxKwA54MMWOVgzmjgl75M44OcEOVPH\r\n3Dhmzdw4X9sOOb2CyTguC7Y4VgEmOTaQxDjBUAQ5dAM9OarFHjmfj444qMgAOWZMDDmSlas4yUZQ\r\nOaDeMTmPogU5Wxe1OF0m3Dh6aDQ5tbkIObjoEzlqqg45EPLvOKyF+zhUmiE57MvFOPg/vDiW+Vo5\r\nmhyzOGFsBTldBEw4dL3pOOk/QDnXnJQ467sNONFyxDfGPDM3rTsZN+BixjZrWTk338GlNhf/FTe5\r\nNTk2RTSUNkMj3Taj0d02is2UNt0UDDYUXvI1aeXFNhijMjbAtYc2ikWgNuphZDY8D1I28gSnNv4k\r\nLTZRYDk2mtYGN70P5DaWBKc2RzXfNlQFKTeHIYk2IpjaNofVszbqlaM2PatTNiKTzDYjx6M2BMHZ\r\nNiXEdDbJOMs2FNCMNsnGRja2BpI2UsiGNvm1vzbR74Q2wLCoNnn3jDa4fK82VqGlNrSAsTYwh5o2\r\n00guNguj5DYiuZI2yg0BN6PItzbTY6w2VXFINoLcTDbWIk82WJ/cNvx6HDZGdqc2ta/1NVwQMDaG\r\n9VE24mqONlq9rDaNiSE2Lay+NpqbcTYGZ3Q2KPqfNicegDbQyZw27RAtNyQhVjazoMU2izz9Npf0\r\njzbhrAg2zKY4Njo2yjZ1hZE2WNZsNrbfvDZiyp42KRFjNr96jjbjaI02RTYRNmwjhzapnyI2B4XY\r\nNltT7jUOLSY20oDqNhJrxDaCZWw2Ct+VNg/LgjZZzMA2Ik1JNrzQuDZxy901azNqNvW2eDaUuVs2\r\ngu+KNta85ja8P/M1FmShNp/ipjb1OIE21Q/2Nr5JmzYXtZU2x6+qNk6LmTZnjYw2mIJGNul2Jjbc\r\nO3A2lquYNuovLTYtgfE1nUlUNgQzNzaIsDM2DIvUNjKBRja+0oY2ExJ5NgPdJzZaSLQ2EtYgN0Wc\r\nDDbIHow2IiiZNgZUVTa1JnM2v3wcNoN3YDYCtgE38JaENkzoaDb0JTc26/WJNoqw9jYFxFI29vNP\r\nNmdCvDZHFIU2xxObNr0sUTblHoc2JrM/NmrbFDYX93o2m4OpNgs6HDaFNl02Rb2TNpjkJjYAADk2\r\n/8chNn7/QTawezM30gsqNidJ8zWKfC02kBYuNmSnnTa80FY2mFN3NkYZWzY4aO41UHmKNkyZiDYh\r\nGC42h1Y6Np6cgzYSij81AnuaNnc6rzZUXG82vp9eNp4h/jWNsEY2k603NuKSjDbHWSo2RxYINlNS\r\nmTaAOlU2yvJmNkqftzZ5VEk26hV8NjWLezbKM9Y1ernFNWi/XDZaEHQ2dhvANhDaRjYMwy82EwC4\r\nNlCNVTbH4IU2Cx1LNk6XlDbcVNA2FB33NQHMjzY6eW02jpZONqrdMTa+lxk267lUNkhoNDZz+TQ3\r\nwulaNoXxEjYQdsQ2lXEcNsiYOjbfz9o2UzpENvQL0TSOQIM10f8gNcLzLzX5w2c1H4efNN2VyTQO\r\nn70011tKNT7aKTUG8/w0QEgiNUCRKjWhXKI03LYLNQzSrjUnb9E0iB65NCpfLzVs4tk0emppNQtw\r\n8zTy2+U0USoLNeRnDTU88Uc19BfdNFPdNDVtA7Q09QQJNdJhKTXqRNg0am3RNG251DQ1KrA0Oj/Y\r\nNOrxkjTQ8cI0+3eXNEYitDR9exs1YvMdNUBR5DR0pQE1EGj5NAq8KTXmxKs0ErgPNTXAAjVM71g1\r\n2McYNch2PjVA3vs0HZGgNJEIOTWY3M40B5RGNGfgUDUIWUw1AAKQNPuJvjRnt4w0M0qUNPpcxjR3\r\nCM0000dJNZjtnTSx6rQ09gISNSzUKjVHscM0TBtXNYWZEDWjpck07HS+NMuEnzTVZ0U1duMGNWCg\r\n6jTs3880YBEXNT+XujRa3bk0wUISNadMADU5AQ411F8ONePs/jS0pjA105FENQ/HnjQmcwg1WPKH\r\nNFq2nTSuOLI0S9MpNbyI/zTAPso0+sXPNPLB3DTur8o0PLbHNPmbnzT+MvY0YjqvNCUXJTXMJp80\r\nndUPNWmVEjXazkY1O5DgNMl4gzVmyAY1rYEfNXmSQTWIrhU1ikoVNSCqpDTaEbY0/AvpNLIwhDSh\r\nIww1MCwENb5Y/zSUBhw1UowYNbXtpzTvlg4155xcNZhCrDRWs9U0k616NIzznjRmnAQ1Khq/NEm9\r\nCTUki940fgEVNZA1JzWkzqg0RtjuNI+WjTW0QRg1omMcNXzDIDUDHKI0NVu3NMMpRDVCjIo0ViIs\r\nNfxAITWCVB81HXTcNB0NXDWG+bE03vcdNf6QMzXAn8s0Eg/NNATJsTQE9U01LMELNX7DoDSIEB41\r\nwLEGNUVbzTQ8Pwo1QFCINBFgFTVn0vo0JOCjNNaR8zQ1vx41DXUDNak+EjUNQYo08gC7NFzPoTSI\r\n7RU1kpUbNYXvKzWOx240VWf0NGRuBzU6PIo0wlCGNT7g9jSWZjw1Ml4BNRvl6jTQR3w1lmHdNGfd\r\nITTobvU0ypuvNEpF+jTjNY40JYO7NCfBbzQijsA0us84Na6J8TQIYwU1V3IrNSwmYTXQ1kU0zKTc\r\nNDTVfzTj6to0SbOuNHwCvTQ/eR01mcuPNPTduTRDjf806a+nNAj20DREKOo0nPlPNQTe+zQNWSo1\r\nlpGmNBv9xzT/tzk1CtkQNapg2jSMQlI1MDUTNRhOMjWh56Q0AygANa8srzRbOwQ187XxNOQlwDSQ\r\nNO80mTAVNaBD6TQbeoo0UM6FNHPMCjV4t7k0gIxkNE02BjXYBQo1AhAcNWJMijS64uA0zd0JNXWm\r\nEDWiijY1ZpSXNNpWpzTYT+k0QHbzNDaorzSGDHs0qT7ONBvuhzSyYys1dPYCNQdToDTk8uU0MwYH\r\nNWYw+TRbj4g1aJxzNHlxCDVIE8c0Nl2SNOyilTRoqUs1KtMvNbhJPjVmcCE12eGANQ1X8jSNKZo0\r\ndGHdNGrcDjXxZ0A0JhPPNJb14jSwx8o0morUNDmP2DTubH40SSbdNE1r7TRT3rk0EZGLNP35LjV1\r\n1640P7XhNLEsczQldYc02X7eNAZ67jSawbI0drgeNb6GtzSMN9U00j4cNQhrBzWSqgw14dAnNYUF\r\nnDTQSpg0P9OMNOHDLTULMsI0QH6VNI2nxDSl5Yc0WHyLNCaeLDXnc6Y0AaCFNBQP7TTJzR41kvoE\r\nNRykHjU6wZw0+cjVNJdR1TSiQQU10AuONaiUkzUExgY1MMYONaRkZTT9EAU11Bu0NC2j3jTIM4A0\r\nal8cNSoRTzXbrSk1FTDYNEBqkjTgDwA1sun9NP5ztDRWob80HSSSNGYkGDWnkuM0RaMANeGLITXo\r\nTow0GNvbNJlRuzSgsOY0CpP5NMVL9jRRErs0aS1TNVNWgDSmPp80Gvy3NBnwGDXWr7M0dB/VNIw8\r\n0DQBkZ410iF5NDXYLTVZSxU1T0S6NHIrqTRzbRA1XDWKNA2phjRVwpo0SPJ1NGzsODX8K6Y0ne6l\r\nNNU3JjWsl7M0wb+kNKhE5TQUaN8041HRNPhNtTRpfuQ09awXNcwLtDS6nqA0qbk4Nbg8qTQ3pSA0\r\nkRS8NLXO0DRqdcQ0b//eNLPvrDQGQu00fPstNS/HMTWPJMc0fIrENBIciDSLv/k00iuaNNjgPDWm\r\not00DFkCNfHQhDTO4qY0xTYDNbDSOTWNTjA1dLcPNZB1uzQDUrY08mkFNZaNRjXzzK00ErsDNVeQ\r\n3zS5HxA1pmTINLQDBTWIxP008Ny+NADrGDWeipI0eMHvM5R6CTWA3x01wRO2NE0PBDXZKrU0GFyV\r\nNOCJrzSgxtE0tQR+NKJP0zTmcMA0zgvvNFJN7TT5eA41x/eHNAie2jTBXoU1JbdYNQAAEDUAZAE8\r\nF6YTPaE6DT5EKNM9dQ3rPVEOUD0ioW480q89PCfdUDzbEfI8OKDUPGwsmDxHYgE9amiBPGR1zjsP\r\nPhU7a3x7OyhGRzygj6g8mBGWPCuBIDwy9E47Dr4TO1iRvDsOzBo7Kk6nOyjG8juQWao70ZvWOxbH\r\n8zuU8n07aPEbPGxKlzygoVs8TMfIO9+xhDsybFY7q+rTO/L8YTx2ZJg8LVf1O0mYPjuCWmQ7fLXf\r\nOt2APzt7zMI7O4D+Ox50Tzw8t+w7lE+pOzStezsIHeo7gHbGO/xxGTz7XIA7vAj1O108gzyol3g7\r\ntww5PFZa6zv7yxw8BjMgPKnvLj13cpY8hhS0PDysuTskGOc6fsrQOrACgDqdYpQ6nrawO0mtIzpq\r\niZQ6oWVXO4pL/Dsyi9U7isI/O5AADzuqPMM6Xcz3OuCjVjsJJAU70nAkO3xeCzuPI4E7G4YiO1p8\r\n7jrINmQ6RKiWOkNYjzquKxk7L5jEOkefiTpiBN05wkIqOcZGDTp6g046RrOpOQ6EwjmtPgQ6e2Gc\r\nOSSjpDlo8ZU55XS9ObmuBzlz4785N8m2OWCrjzo4vB06uHOTOSQohDrAdAk6ttpzOqV9QjpzGTY6\r\n3XEaOsgBjjqKt8k6HvZMOicoGjocq2w6ap4WOhHEADrfCzk63skBOgeJHDrUTnI5YkuiObHDpjmu\r\nSKM5/cCSOf1k+zmMGlI6inluOu+YIDu89m07RVI0O6+Kgzr+5446GKYWOsGMzDkpPtU5IguVOWYu\r\n0Thu2rs5wj2KOYr0Szln8mE5OIzqOdZKbDmJnpY5zvoYORbfcjmJJb45rPudOReeBTpaM7A5gOEv\r\nOfU4rjmBKBo6bN3fOQHYIDpCxO45IMMKOhDuqjnu5385nKuKOcsUJTnO6QY6IssJOqWwlTkE/nk5\r\n982pOYJKFzlMEgc5kM8qOTzQSjkjjFw5oLMhOb3XTTlwQiA5qwrfOFyxBDkkj0w5MGaVOpPkyzkA\r\nWYw5x/dWOdTGaDnThQM6cUq4OS/ykTn8pTU5cg8tOjmUnzmJETc5yAicOQHqsTm7VQY6AgbzOcxp\r\nYTnUlDk5COb3OVNucjnJjtA5lvYsOVSTlDlbCZA5jieCOevY/jld/5M5ZAsQOQCjIjmaXZk5X2sk\r\nOaKvQDn3w2A5sFLsOCInSDnjTPU4Pw52ORiOFTnxB085aOe5Oeymfzkdh5Q4b9kUOTcjiDlltOQ5\r\nW97hOK93TDk6TJo5GxUROfmZKDmqWVg5gnArOZiUUTljp2g5VN4COa51OjmCG6857I8hOQJUyDiy\r\nFeY4PzlIOQnaEjkNa105LJgJOedSTTmft9w4RFvhOEMPBjkBNUc5IxKaOKB0AzlHK0Y5uzfsOA7s\r\nCTnIO1A5K33WOKFk2jjp16849C8QOWZpPTn28K85JD91Ocr4pTiAdCY50TmeOH4OPTl/1vM4rUTC\r\nOKr9azkWMbo4F7ngOLhyVDn8tgw5pjZnOXrXVTgwxCo4OQx/OXmv4TiOkZs4EjRhOc/BKzm9HJg4\r\nmNmEOBptqTgOwN44isnuOMjHEDkVGqA5ZsgfOcwJgTn/qS85F5G9OSUi8Th4/wU58kwEOcGM0znk\r\nW1o5KBbSOPxmrjgoieg4mOJqOacY5jhwBhY5iXUjOeCfAjn89RI53mOTOE5nnDgXwQo59x/YOLsN\r\nvzisAgg5ZZXBONJSyTg4ChA5g0OvOOLhCzk2PkQ5yZUgOf1/lTgIavM4G5cEObRwszj5plM54Ngg\r\nOTpfCjmgXsE4/c7tOPbIHjng2QM52pkWOVEIBjnWdfE44lgEOVkCJTm3Js04paCwOJruaDnED7c4\r\nlngHOd1wSThLgdw4+MM6OWkNiTjQTig4ZOnTNxI6RTeeDew2cZ29Nv7NAjclhNM2iMnzNsyKczZM\r\nTqE2NwIANyN0CjdyN5Q2WgazNq/6RTZdvu82CgJ2NnBTbzZ2Y8g2nCmlNornMTbyM/U2XdYuNnYx\r\nDDZETwI3eL+nNkEyGTdWc042Yb0WNzGqlDaNeNI2vHqNNkA4sDYmdYE2+cmANhHYVzaKnIs2sgCG\r\nNgmRtTZMoZo22v10NnRMhzYJ96I2OKTLNuYomzb9GYQ2aZ4gNg34YTYuHZo2W3zKNg54fjYZjkw2\r\nf2wUN3Od0TYrN5w2qv+fNtmNlTawHlI20q1xNtWcgzbalsQ2aqh0NqiRqzZJr+Y1tKkfNvwthjbs\r\njso2aMOjNjtLWzaqzNg2QuVVNvmDcTZsOcU2ODthNmCKmjZkwsw2JO2RNrvV7zZ/j5g2X3SCNuWv\r\njDatdLA22aTFNuHopjZGQ1k280BwNm9ZdzZuF3o2uV16NukrgjZ0cmI2oP0yNtheUDbrCZM2IZD3\r\nNcjiiDbmV9M2x6S6NnU/pzZADwg2huV1NusKwzZOBTQ2+FGNNgbaCjZtFJo2oEWzNnsKijZWeO02\r\nGtuJNu8IdjY49Yg2Mr2ANg3ZzjZiM+s2PSKeNoMphDa/F582hoJcNt0QxjZWOKM2KJ8XNqxVQjbY\r\ngaI2GZ6aNs0bpTU+g5g2tEowNtIkZDYOlas2ZR1xNtIkgzZRo4A2kxo0Nq+R7DZCmS43Jnh6NgQS\r\nbDb4RYg2lNw9NuvPkzYiw3I2yo89NhID7TYcIIw26OkjNrMkKzbG26s2fgyyNkykhTarGu41ZVyZ\r\nNs59hja4/3g2DVwlNg8S/DWud6U2N9IvNgCXSjbgmnM2uSBPNn7iXza+E8Q2IrczNgAgGTbUpLw1\r\nmKpzNoJSGzdiAoM2ZpDFNfrlFDY4tAI2RI+mNgX6UTb+VoU2addaNhrNCTZZFHA2uMncNXzMSzbJ\r\nKYk2chpoNlUqsTVQL942eABrNmzNjTZ3X0o2gnWBNn72gTZLTEE2lwQzNgfuCjaKZ0A2Cn+pNqDa\r\nNzbbTXE2Jn7UNu4UKDZVMoQ2j46fNsCxMzbOjB026lnINRYmezYubI02j29ONiv6jzYkvQU24bo/\r\nNlRyPzacL0c24hOWNpYhiDbn4/U1XMKXNjdHgzYwUO01kmwQNsrkGjZWzx02IdkDNtNSCTdR2VE2\r\nthtfNuRpyzaptiM2tEQ0Nkz1XDaF2zA2q9VKNcwlKDW1Wt007vuJNFq4yzRjGzI175BhNbYW/jTC\r\n50I1fp2dNJ2JFzXcfBY1j6wVNck7ADXKUgk1IqzANOh0JjVVrrw0Msw2NZKFGTUaPUI1fBNaNcVN\r\nSTUON7Q0P4fQNFKuFzUxPlU1sICqNGd1ajTm2QI1i7CcNE6RhzRis6A0+Hg7Nbaz2zTd5O41Lo6Q\r\nNCC46jRqY4k02LwPNQsD+zQS2kY1DgsZNQCcHDWKMa00NY4gNbBtFDXqiRc1oiMKNXSGhzRgRxs1\r\nsvCONXglnTQaJsk0VZcVNTwSAjVbovE0HAgiNYYOkDWs+Bk1NoTxNOmQHzWwgbI0cTRKNEIM5zRm\r\n0Eo1Lt3NNDT7uTSlUH81fpTdNNbDuDR5QIA1bivBNDg8tDTqSAw1juzKNPjckTXYQus0QHrGNAe/\r\nzjT+Kxk1k1EENS6XETW7x+g0SgvDNLGCvzSIgvk0RU2fNNSwojQOc7k03IPMNCf6ETV8ef00kiUz\r\nNaCP5DSyjgI1NzurNDzYBDVnrxg1wWfANHpDdjTTMLM0SyeuNCZrpDTpSwg1kQXWNKnmtjTd4L00\r\nCjEvNe+3XjWZAko1Ym35NPTQoTRMXRI1/Kv1NNnw+TREn580ApgENQioMTUc6Qw1wGDtNMWVAjX6\r\nRmI1CN1MNL0nqzQdttc0yKQdNbOO9jSg9bU00Ta0NPpG8jRwfn81zM+VNG1DtzQjBjQ133YnNRiY\r\nzzSD58A0vVEGNeQz7TQc+8c0alDxNOYeqTRZjwM1A1X7NKFF9DRfJtM0Vc0BNUYGIjUIksE0MIwp\r\nNYA4xDQyT2E0+rrONBaUKjWcVbs0lgEXNQhoLjVqYfM0QkIHNXxZBjWjN9A04CoHNf4JgzRmC1I1\r\nHvk2NR48nDSMgG00Zf32NNotNDWhucs0OhP6NCbLvjSa08g0UXkUNWHkGjU2b7M0Jjf1NNWAHTX2\r\nAKk0D22rNDpwCjVAdSE1wIe3NKki1DQ7h1c0c56RNM+EHDWeNvs0MQ70NEBr+DSzItM00gbWNHQw\r\nKDULfMQ0x//kNPxv2TTQtDM1WH4UNV82NTXQGQs1zfzkNE4e5zQRzgg1/pbnNGCS0TTOFd40v6/x\r\nNAS1tjRCvqU0IwneNHHchzWWIeA0UM+4NK8f9TRyIZM0h7UINdtvGDWwIMU0f+g7NQZH3jSvXyg1\r\nQFDUNEfN1zTFaJE0vTVhNZhtEzVsOCo1lI2DNKvBcDU7hyA1G3lgNdKy/jT5BOE0W5yZNMVKxTQt\r\nffo0UfUYNfYY1jRmNic1cjOcNHhM3TQltw01y+wGNdUXAzWjaYQ1EAGsNAMnHTXG2Ok0b2sZNdaU\r\nnTTqTu80BYtpNRavBjXpXoY0gY8TNRz6MzTZ+bU0CwEyNeatmjTYpAw1XQ0NNS4fMDUD3N80w5kB\r\nNbZ+wDSHwM80LsdINflVQTXijxU12ckXNexXHTV3aAk1Y0gINRwPEzWrSkk1gEhcNcKckzRnQdM0\r\nylE8NZTlGjWZRXo1mYPiNKOIGDX9VSk1SDywNE/uAjVE05U0/LpeNYJ8uDT+TwI1K57TNKdFFTVQ\r\nmmw1bxHxNNasyjTwQdg0uDi0NKQl/jRwNLM0eBffNHVFvDRC6IA0QxjQNA8uczQLG6o0fGK7NO7j\r\nmzQBYqc0PLzWNLgI9DTcW6Q0a0AZNYg9STUbsVQ1+5sfNVyxoTRchak0ZlS/NIZF8DQC/LA0KHW2\r\nNAKVBzVhPRg1IxGrNNrwCDVtxBU1lnAcNYeauTTwp/s0RXHANLDJwzTVLtw0yWgLNdyaGTVZOe00\r\nJFcoNZ6B7TQG/MU0+DEUNQFt/DRtlSo14IBuNQxXyzRAZsw0OmxvNepc4TQsbOo0BX5pNeLZFjVa\r\nUP00/NC+NDfFxzSk/Jk0Xv9WNFcJFTUkCfs0nPhONWb3szQLn8U07ItQNLGo0DSMwQE17Z/PNNec\r\n0zRaof0076bINOo8GzXNlYU0hEQkNTyH5jT2YwU1rPNDNQ/OwzRUsuM0rNi/NPhc8DQKmUg1hNDu\r\nNFsmCjUDuzw1VasyNef7cjVSnrA0plT5NKXLhzSFNZ00Ed+nNCFdUDUWMQI1JJnbNNcqvjQMb+40\r\nMCZxNWBYzTTT7DQ1EXZRNffmaTV+3a80W4eUNHE8DjXgGu40gRDrNBPuqjTmEDY1ol3ONJbeJTVU\r\n2RE1pL7HNICD5TRWWw816jZdNU5+4zSdEBA1+UiKNPe7OzXoSB81ciQHNY2hujSihSE1Zmy4NC66\r\njjSDV6M0zDuqNH8orDToE6s0mAmlNNh/LDUtZTA1POHGNHfLdzTbIis17ZIdNZocBDVvRKE0QmwB\r\nNYXQijQkWAs1oC2hNA2Z5TSh2c00fEGaNMT8ujTDZ5w0Y1z7NI2ELjWyxiA1AEAcNQ==",
                            "noiseTrainingType" : "default"
                          }
                        }
                    ],
                    "start" : 1273,
                    "duration" : 7,
                    "mediaStart" : 1247,
                    "mediaDuration" : 7,
                    "scalar" : 1,
                    "metadata" : {
                      "WinSubProjectDisplayName" : "",
                      "clipSpeedAttribute" : false
                    },
                    "animationTracks" : {

                    }
                  },
                  {
                    "id" : 350,
                    "_type" : "AMFile",
                    "src" : 15,
                    "trackNumber" : 0,
                    "attributes" : {
                      "ident" : "旁白_vis2021 1",
                      "sampleRate" : 44100,
                      "bitDepth" : 16,
                      "gain" : 1.0,
                      "mixToMono" : false
                    },
                      "channelNumber" : "0,1",
                    "effects" : [
                        {
                          "effectName" : "NoiseReduction",
                          "parameters" : {
                            "denoiserAmount" : 20.0,
                            "denoiserThreshold" : 0.0,
                            "noiseProfile" : "OWoAPH2pEz2x9Qw+d6HTPcva6j2sp089E2dtPD6vPDwfl1A8ScjwPJTr1Txy35g8LaEAPTpegDyh\r\n+807XKYVO6TEeztxHEg8k5enPOCDljxR1SA80RNNO5P/FTsAUsA78qcaO7cppTsc2vE7qgSrO6lQ\r\n2jukqvI7h92AO2yWGzx+tZU8JitaPFzIyTuXwYE7uY9XO8aQ0Dvqq2I88amYPMnb9DtB2j87KTBk\r\nOzy52zoRSDw7OCjBO9xi/DtxwE88KlbqO3j0qDtWJH47VJnsO9JoxDuANhs8tJ+AO6Qz9Tth+oI8\r\nbGt3O1T1Nzzjhew74A0cPJAvITwici89BseWPGFNtDxkw7o7MRvlOmld0jryf386QXGZOrHMrzuA\r\ngR46FrCVOsPpWDsY4v07HUbYO1nLPjsw9w47wr3FOrnZ+Drc3FY7lUkJO7DAJDv2mAY7Bol9O6Gv\r\nIjui8ek64NliOq5vmTrG/ZM6bCYbO5q5tzpF2YA69unhOXdvJDkMXx461iVVOpU6tTmIPdU5NZ4C\r\nOrLzrDlzv6053gyzOSasszlLTgc5O7atOcYrxzkKtYw6r9cjOpoinjlRRog6Q9QHOqLsbTo5k0E6\r\n9U47OqgHGzq2DIw6xrvIOkIITzrGgR86I/hwOsTOFzq0IQU6isQ5OkIP9DmC+Bw6hsx0OYy4pDnt\r\nMqk5f6afOfFKnDnqIvc5SsRQOpXvdDp8CiE703psOwEALztW+4A6r36ROtKuGDoo4s852RrZOQKM\r\nhDmkgtY4CBe5OXJ5jDnBcjY5RM9jObGZ+DmyHG05aluSOaagETnIyGM5Jt2dOdUxnTmBHwU6PPyu\r\nOQ2PETl6x7k5tcInOtV63TnmcCY6dHftOUWtBzoIt6w5qk+GOf1mbTk4DT454wsLOh2HAjoY+ZY5\r\nyr2VOQQurzmqnRg5LDMFOZLQUjkvV1Q5/g1+OSlxFzlITz85XmAkOdDG/DjiIfM4htxWOREUlTqh\r\nwcw5VnaGOWCBXjn90lA5cKzvOWPrqzkL/o45sEFOOTkyMDpUc5s51oo9ORByjjlGCco52p/tORKy\r\n8Tnit2E51lY0Ofo+ATq6o3Y5Z021OYTVGDlRAq45zuyhOeA4ZDk52eE5nw91ORI2OzlB2R85fgab\r\nOY8bMjkQ1TA5cCaFOXju/Dh2ghM59YD8OFHmfzmnKiQ58YpfOXsbtzlCtX45yEWKOLGkLDkayH45\r\nRUrSOSltyTgvk1U5NT2NOY45EjnfihY5JFlqOTokTjlSlV45Ir54OQ1W5jifjjI5bWS5OfA8NDkO\r\nXs44QhjgOLbnOjkr+iw5hK5/Ocz3Azl6HF45q6DlOIJb2DiR79I4esU3OWtGjDg4gBM5cVloOdzR\r\nDTlkchs5GGg7OVSTtziXOeg4XazEOCiMADmz6Tw5ueqOOVcmeTmS4Ms4nI0UOUTLnjhAXjc56pkE\r\nOdXdBznEOY85PIy4OMxI5zgkSxk5r6oQObvARTnCtUo4LoVEONjrVjnfUsw4msCWOCWAQjlc/y45\r\nJ4KtOCzJrjjGJZ84BKXjOIHj2jhi+yE5rqqOOdCIIzm9fIM56Oo3OUSjtzmiT/M4Wiv3OJw6ETmO\r\nS8w53FJpOdbu1DiJSZs4DaoFOWqKWDkkyvU4GPIdOchJLDmxKwA54MMWOVgzmjgl75M44OcEOVPH\r\n3Dhmzdw4X9sOOb2CyTguC7Y4VgEmOTaQxDjBUAQ5dAM9OarFHjmfj444qMgAOWZMDDmSlas4yUZQ\r\nOaDeMTmPogU5Wxe1OF0m3Dh6aDQ5tbkIObjoEzlqqg45EPLvOKyF+zhUmiE57MvFOPg/vDiW+Vo5\r\nmhyzOGFsBTldBEw4dL3pOOk/QDnXnJQ467sNONFyxDfGPDM3rTsZN+BixjZrWTk338GlNhf/FTe5\r\nNTk2RTSUNkMj3Taj0d02is2UNt0UDDYUXvI1aeXFNhijMjbAtYc2ikWgNuphZDY8D1I28gSnNv4k\r\nLTZRYDk2mtYGN70P5DaWBKc2RzXfNlQFKTeHIYk2IpjaNofVszbqlaM2PatTNiKTzDYjx6M2BMHZ\r\nNiXEdDbJOMs2FNCMNsnGRja2BpI2UsiGNvm1vzbR74Q2wLCoNnn3jDa4fK82VqGlNrSAsTYwh5o2\r\n00guNguj5DYiuZI2yg0BN6PItzbTY6w2VXFINoLcTDbWIk82WJ/cNvx6HDZGdqc2ta/1NVwQMDaG\r\n9VE24mqONlq9rDaNiSE2Lay+NpqbcTYGZ3Q2KPqfNicegDbQyZw27RAtNyQhVjazoMU2izz9Npf0\r\njzbhrAg2zKY4Njo2yjZ1hZE2WNZsNrbfvDZiyp42KRFjNr96jjbjaI02RTYRNmwjhzapnyI2B4XY\r\nNltT7jUOLSY20oDqNhJrxDaCZWw2Ct+VNg/LgjZZzMA2Ik1JNrzQuDZxy901azNqNvW2eDaUuVs2\r\ngu+KNta85ja8P/M1FmShNp/ipjb1OIE21Q/2Nr5JmzYXtZU2x6+qNk6LmTZnjYw2mIJGNul2Jjbc\r\nO3A2lquYNuovLTYtgfE1nUlUNgQzNzaIsDM2DIvUNjKBRja+0oY2ExJ5NgPdJzZaSLQ2EtYgN0Wc\r\nDDbIHow2IiiZNgZUVTa1JnM2v3wcNoN3YDYCtgE38JaENkzoaDb0JTc26/WJNoqw9jYFxFI29vNP\r\nNmdCvDZHFIU2xxObNr0sUTblHoc2JrM/NmrbFDYX93o2m4OpNgs6HDaFNl02Rb2TNpjkJjYAADk2\r\n/8chNn7/QTawezM30gsqNidJ8zWKfC02kBYuNmSnnTa80FY2mFN3NkYZWzY4aO41UHmKNkyZiDYh\r\nGC42h1Y6Np6cgzYSij81AnuaNnc6rzZUXG82vp9eNp4h/jWNsEY2k603NuKSjDbHWSo2RxYINlNS\r\nmTaAOlU2yvJmNkqftzZ5VEk26hV8NjWLezbKM9Y1ernFNWi/XDZaEHQ2dhvANhDaRjYMwy82EwC4\r\nNlCNVTbH4IU2Cx1LNk6XlDbcVNA2FB33NQHMjzY6eW02jpZONqrdMTa+lxk267lUNkhoNDZz+TQ3\r\nwulaNoXxEjYQdsQ2lXEcNsiYOjbfz9o2UzpENvQL0TSOQIM10f8gNcLzLzX5w2c1H4efNN2VyTQO\r\nn70011tKNT7aKTUG8/w0QEgiNUCRKjWhXKI03LYLNQzSrjUnb9E0iB65NCpfLzVs4tk0emppNQtw\r\n8zTy2+U0USoLNeRnDTU88Uc19BfdNFPdNDVtA7Q09QQJNdJhKTXqRNg0am3RNG251DQ1KrA0Oj/Y\r\nNOrxkjTQ8cI0+3eXNEYitDR9exs1YvMdNUBR5DR0pQE1EGj5NAq8KTXmxKs0ErgPNTXAAjVM71g1\r\n2McYNch2PjVA3vs0HZGgNJEIOTWY3M40B5RGNGfgUDUIWUw1AAKQNPuJvjRnt4w0M0qUNPpcxjR3\r\nCM0000dJNZjtnTSx6rQ09gISNSzUKjVHscM0TBtXNYWZEDWjpck07HS+NMuEnzTVZ0U1duMGNWCg\r\n6jTs3880YBEXNT+XujRa3bk0wUISNadMADU5AQ411F8ONePs/jS0pjA105FENQ/HnjQmcwg1WPKH\r\nNFq2nTSuOLI0S9MpNbyI/zTAPso0+sXPNPLB3DTur8o0PLbHNPmbnzT+MvY0YjqvNCUXJTXMJp80\r\nndUPNWmVEjXazkY1O5DgNMl4gzVmyAY1rYEfNXmSQTWIrhU1ikoVNSCqpDTaEbY0/AvpNLIwhDSh\r\nIww1MCwENb5Y/zSUBhw1UowYNbXtpzTvlg4155xcNZhCrDRWs9U0k616NIzznjRmnAQ1Khq/NEm9\r\nCTUki940fgEVNZA1JzWkzqg0RtjuNI+WjTW0QRg1omMcNXzDIDUDHKI0NVu3NMMpRDVCjIo0ViIs\r\nNfxAITWCVB81HXTcNB0NXDWG+bE03vcdNf6QMzXAn8s0Eg/NNATJsTQE9U01LMELNX7DoDSIEB41\r\nwLEGNUVbzTQ8Pwo1QFCINBFgFTVn0vo0JOCjNNaR8zQ1vx41DXUDNak+EjUNQYo08gC7NFzPoTSI\r\n7RU1kpUbNYXvKzWOx240VWf0NGRuBzU6PIo0wlCGNT7g9jSWZjw1Ml4BNRvl6jTQR3w1lmHdNGfd\r\nITTobvU0ypuvNEpF+jTjNY40JYO7NCfBbzQijsA0us84Na6J8TQIYwU1V3IrNSwmYTXQ1kU0zKTc\r\nNDTVfzTj6to0SbOuNHwCvTQ/eR01mcuPNPTduTRDjf806a+nNAj20DREKOo0nPlPNQTe+zQNWSo1\r\nlpGmNBv9xzT/tzk1CtkQNapg2jSMQlI1MDUTNRhOMjWh56Q0AygANa8srzRbOwQ187XxNOQlwDSQ\r\nNO80mTAVNaBD6TQbeoo0UM6FNHPMCjV4t7k0gIxkNE02BjXYBQo1AhAcNWJMijS64uA0zd0JNXWm\r\nEDWiijY1ZpSXNNpWpzTYT+k0QHbzNDaorzSGDHs0qT7ONBvuhzSyYys1dPYCNQdToDTk8uU0MwYH\r\nNWYw+TRbj4g1aJxzNHlxCDVIE8c0Nl2SNOyilTRoqUs1KtMvNbhJPjVmcCE12eGANQ1X8jSNKZo0\r\ndGHdNGrcDjXxZ0A0JhPPNJb14jSwx8o0morUNDmP2DTubH40SSbdNE1r7TRT3rk0EZGLNP35LjV1\r\n1640P7XhNLEsczQldYc02X7eNAZ67jSawbI0drgeNb6GtzSMN9U00j4cNQhrBzWSqgw14dAnNYUF\r\nnDTQSpg0P9OMNOHDLTULMsI0QH6VNI2nxDSl5Yc0WHyLNCaeLDXnc6Y0AaCFNBQP7TTJzR41kvoE\r\nNRykHjU6wZw0+cjVNJdR1TSiQQU10AuONaiUkzUExgY1MMYONaRkZTT9EAU11Bu0NC2j3jTIM4A0\r\nal8cNSoRTzXbrSk1FTDYNEBqkjTgDwA1sun9NP5ztDRWob80HSSSNGYkGDWnkuM0RaMANeGLITXo\r\nTow0GNvbNJlRuzSgsOY0CpP5NMVL9jRRErs0aS1TNVNWgDSmPp80Gvy3NBnwGDXWr7M0dB/VNIw8\r\n0DQBkZ410iF5NDXYLTVZSxU1T0S6NHIrqTRzbRA1XDWKNA2phjRVwpo0SPJ1NGzsODX8K6Y0ne6l\r\nNNU3JjWsl7M0wb+kNKhE5TQUaN8041HRNPhNtTRpfuQ09awXNcwLtDS6nqA0qbk4Nbg8qTQ3pSA0\r\nkRS8NLXO0DRqdcQ0b//eNLPvrDQGQu00fPstNS/HMTWPJMc0fIrENBIciDSLv/k00iuaNNjgPDWm\r\not00DFkCNfHQhDTO4qY0xTYDNbDSOTWNTjA1dLcPNZB1uzQDUrY08mkFNZaNRjXzzK00ErsDNVeQ\r\n3zS5HxA1pmTINLQDBTWIxP008Ny+NADrGDWeipI0eMHvM5R6CTWA3x01wRO2NE0PBDXZKrU0GFyV\r\nNOCJrzSgxtE0tQR+NKJP0zTmcMA0zgvvNFJN7TT5eA41x/eHNAie2jTBXoU1JbdYNQAAEDUAZAE8\r\nF6YTPaE6DT5EKNM9dQ3rPVEOUD0ioW480q89PCfdUDzbEfI8OKDUPGwsmDxHYgE9amiBPGR1zjsP\r\nPhU7a3x7OyhGRzygj6g8mBGWPCuBIDwy9E47Dr4TO1iRvDsOzBo7Kk6nOyjG8juQWao70ZvWOxbH\r\n8zuU8n07aPEbPGxKlzygoVs8TMfIO9+xhDsybFY7q+rTO/L8YTx2ZJg8LVf1O0mYPjuCWmQ7fLXf\r\nOt2APzt7zMI7O4D+Ox50Tzw8t+w7lE+pOzStezsIHeo7gHbGO/xxGTz7XIA7vAj1O108gzyol3g7\r\ntww5PFZa6zv7yxw8BjMgPKnvLj13cpY8hhS0PDysuTskGOc6fsrQOrACgDqdYpQ6nrawO0mtIzpq\r\niZQ6oWVXO4pL/Dsyi9U7isI/O5AADzuqPMM6Xcz3OuCjVjsJJAU70nAkO3xeCzuPI4E7G4YiO1p8\r\n7jrINmQ6RKiWOkNYjzquKxk7L5jEOkefiTpiBN05wkIqOcZGDTp6g046RrOpOQ6EwjmtPgQ6e2Gc\r\nOSSjpDlo8ZU55XS9ObmuBzlz4785N8m2OWCrjzo4vB06uHOTOSQohDrAdAk6ttpzOqV9QjpzGTY6\r\n3XEaOsgBjjqKt8k6HvZMOicoGjocq2w6ap4WOhHEADrfCzk63skBOgeJHDrUTnI5YkuiObHDpjmu\r\nSKM5/cCSOf1k+zmMGlI6inluOu+YIDu89m07RVI0O6+Kgzr+5446GKYWOsGMzDkpPtU5IguVOWYu\r\n0Thu2rs5wj2KOYr0Szln8mE5OIzqOdZKbDmJnpY5zvoYORbfcjmJJb45rPudOReeBTpaM7A5gOEv\r\nOfU4rjmBKBo6bN3fOQHYIDpCxO45IMMKOhDuqjnu5385nKuKOcsUJTnO6QY6IssJOqWwlTkE/nk5\r\n982pOYJKFzlMEgc5kM8qOTzQSjkjjFw5oLMhOb3XTTlwQiA5qwrfOFyxBDkkj0w5MGaVOpPkyzkA\r\nWYw5x/dWOdTGaDnThQM6cUq4OS/ykTn8pTU5cg8tOjmUnzmJETc5yAicOQHqsTm7VQY6AgbzOcxp\r\nYTnUlDk5COb3OVNucjnJjtA5lvYsOVSTlDlbCZA5jieCOevY/jld/5M5ZAsQOQCjIjmaXZk5X2sk\r\nOaKvQDn3w2A5sFLsOCInSDnjTPU4Pw52ORiOFTnxB085aOe5Oeymfzkdh5Q4b9kUOTcjiDlltOQ5\r\nW97hOK93TDk6TJo5GxUROfmZKDmqWVg5gnArOZiUUTljp2g5VN4COa51OjmCG6857I8hOQJUyDiy\r\nFeY4PzlIOQnaEjkNa105LJgJOedSTTmft9w4RFvhOEMPBjkBNUc5IxKaOKB0AzlHK0Y5uzfsOA7s\r\nCTnIO1A5K33WOKFk2jjp16849C8QOWZpPTn28K85JD91Ocr4pTiAdCY50TmeOH4OPTl/1vM4rUTC\r\nOKr9azkWMbo4F7ngOLhyVDn8tgw5pjZnOXrXVTgwxCo4OQx/OXmv4TiOkZs4EjRhOc/BKzm9HJg4\r\nmNmEOBptqTgOwN44isnuOMjHEDkVGqA5ZsgfOcwJgTn/qS85F5G9OSUi8Th4/wU58kwEOcGM0znk\r\nW1o5KBbSOPxmrjgoieg4mOJqOacY5jhwBhY5iXUjOeCfAjn89RI53mOTOE5nnDgXwQo59x/YOLsN\r\nvzisAgg5ZZXBONJSyTg4ChA5g0OvOOLhCzk2PkQ5yZUgOf1/lTgIavM4G5cEObRwszj5plM54Ngg\r\nOTpfCjmgXsE4/c7tOPbIHjng2QM52pkWOVEIBjnWdfE44lgEOVkCJTm3Js04paCwOJruaDnED7c4\r\nlngHOd1wSThLgdw4+MM6OWkNiTjQTig4ZOnTNxI6RTeeDew2cZ29Nv7NAjclhNM2iMnzNsyKczZM\r\nTqE2NwIANyN0CjdyN5Q2WgazNq/6RTZdvu82CgJ2NnBTbzZ2Y8g2nCmlNornMTbyM/U2XdYuNnYx\r\nDDZETwI3eL+nNkEyGTdWc042Yb0WNzGqlDaNeNI2vHqNNkA4sDYmdYE2+cmANhHYVzaKnIs2sgCG\r\nNgmRtTZMoZo22v10NnRMhzYJ96I2OKTLNuYomzb9GYQ2aZ4gNg34YTYuHZo2W3zKNg54fjYZjkw2\r\nf2wUN3Od0TYrN5w2qv+fNtmNlTawHlI20q1xNtWcgzbalsQ2aqh0NqiRqzZJr+Y1tKkfNvwthjbs\r\njso2aMOjNjtLWzaqzNg2QuVVNvmDcTZsOcU2ODthNmCKmjZkwsw2JO2RNrvV7zZ/j5g2X3SCNuWv\r\njDatdLA22aTFNuHopjZGQ1k280BwNm9ZdzZuF3o2uV16NukrgjZ0cmI2oP0yNtheUDbrCZM2IZD3\r\nNcjiiDbmV9M2x6S6NnU/pzZADwg2huV1NusKwzZOBTQ2+FGNNgbaCjZtFJo2oEWzNnsKijZWeO02\r\nGtuJNu8IdjY49Yg2Mr2ANg3ZzjZiM+s2PSKeNoMphDa/F582hoJcNt0QxjZWOKM2KJ8XNqxVQjbY\r\ngaI2GZ6aNs0bpTU+g5g2tEowNtIkZDYOlas2ZR1xNtIkgzZRo4A2kxo0Nq+R7DZCmS43Jnh6NgQS\r\nbDb4RYg2lNw9NuvPkzYiw3I2yo89NhID7TYcIIw26OkjNrMkKzbG26s2fgyyNkykhTarGu41ZVyZ\r\nNs59hja4/3g2DVwlNg8S/DWud6U2N9IvNgCXSjbgmnM2uSBPNn7iXza+E8Q2IrczNgAgGTbUpLw1\r\nmKpzNoJSGzdiAoM2ZpDFNfrlFDY4tAI2RI+mNgX6UTb+VoU2addaNhrNCTZZFHA2uMncNXzMSzbJ\r\nKYk2chpoNlUqsTVQL942eABrNmzNjTZ3X0o2gnWBNn72gTZLTEE2lwQzNgfuCjaKZ0A2Cn+pNqDa\r\nNzbbTXE2Jn7UNu4UKDZVMoQ2j46fNsCxMzbOjB026lnINRYmezYubI02j29ONiv6jzYkvQU24bo/\r\nNlRyPzacL0c24hOWNpYhiDbn4/U1XMKXNjdHgzYwUO01kmwQNsrkGjZWzx02IdkDNtNSCTdR2VE2\r\nthtfNuRpyzaptiM2tEQ0Nkz1XDaF2zA2q9VKNcwlKDW1Wt007vuJNFq4yzRjGzI175BhNbYW/jTC\r\n50I1fp2dNJ2JFzXcfBY1j6wVNck7ADXKUgk1IqzANOh0JjVVrrw0Msw2NZKFGTUaPUI1fBNaNcVN\r\nSTUON7Q0P4fQNFKuFzUxPlU1sICqNGd1ajTm2QI1i7CcNE6RhzRis6A0+Hg7Nbaz2zTd5O41Lo6Q\r\nNCC46jRqY4k02LwPNQsD+zQS2kY1DgsZNQCcHDWKMa00NY4gNbBtFDXqiRc1oiMKNXSGhzRgRxs1\r\nsvCONXglnTQaJsk0VZcVNTwSAjVbovE0HAgiNYYOkDWs+Bk1NoTxNOmQHzWwgbI0cTRKNEIM5zRm\r\n0Eo1Lt3NNDT7uTSlUH81fpTdNNbDuDR5QIA1bivBNDg8tDTqSAw1juzKNPjckTXYQus0QHrGNAe/\r\nzjT+Kxk1k1EENS6XETW7x+g0SgvDNLGCvzSIgvk0RU2fNNSwojQOc7k03IPMNCf6ETV8ef00kiUz\r\nNaCP5DSyjgI1NzurNDzYBDVnrxg1wWfANHpDdjTTMLM0SyeuNCZrpDTpSwg1kQXWNKnmtjTd4L00\r\nCjEvNe+3XjWZAko1Ym35NPTQoTRMXRI1/Kv1NNnw+TREn580ApgENQioMTUc6Qw1wGDtNMWVAjX6\r\nRmI1CN1MNL0nqzQdttc0yKQdNbOO9jSg9bU00Ta0NPpG8jRwfn81zM+VNG1DtzQjBjQ133YnNRiY\r\nzzSD58A0vVEGNeQz7TQc+8c0alDxNOYeqTRZjwM1A1X7NKFF9DRfJtM0Vc0BNUYGIjUIksE0MIwp\r\nNYA4xDQyT2E0+rrONBaUKjWcVbs0lgEXNQhoLjVqYfM0QkIHNXxZBjWjN9A04CoHNf4JgzRmC1I1\r\nHvk2NR48nDSMgG00Zf32NNotNDWhucs0OhP6NCbLvjSa08g0UXkUNWHkGjU2b7M0Jjf1NNWAHTX2\r\nAKk0D22rNDpwCjVAdSE1wIe3NKki1DQ7h1c0c56RNM+EHDWeNvs0MQ70NEBr+DSzItM00gbWNHQw\r\nKDULfMQ0x//kNPxv2TTQtDM1WH4UNV82NTXQGQs1zfzkNE4e5zQRzgg1/pbnNGCS0TTOFd40v6/x\r\nNAS1tjRCvqU0IwneNHHchzWWIeA0UM+4NK8f9TRyIZM0h7UINdtvGDWwIMU0f+g7NQZH3jSvXyg1\r\nQFDUNEfN1zTFaJE0vTVhNZhtEzVsOCo1lI2DNKvBcDU7hyA1G3lgNdKy/jT5BOE0W5yZNMVKxTQt\r\nffo0UfUYNfYY1jRmNic1cjOcNHhM3TQltw01y+wGNdUXAzWjaYQ1EAGsNAMnHTXG2Ok0b2sZNdaU\r\nnTTqTu80BYtpNRavBjXpXoY0gY8TNRz6MzTZ+bU0CwEyNeatmjTYpAw1XQ0NNS4fMDUD3N80w5kB\r\nNbZ+wDSHwM80LsdINflVQTXijxU12ckXNexXHTV3aAk1Y0gINRwPEzWrSkk1gEhcNcKckzRnQdM0\r\nylE8NZTlGjWZRXo1mYPiNKOIGDX9VSk1SDywNE/uAjVE05U0/LpeNYJ8uDT+TwI1K57TNKdFFTVQ\r\nmmw1bxHxNNasyjTwQdg0uDi0NKQl/jRwNLM0eBffNHVFvDRC6IA0QxjQNA8uczQLG6o0fGK7NO7j\r\nmzQBYqc0PLzWNLgI9DTcW6Q0a0AZNYg9STUbsVQ1+5sfNVyxoTRchak0ZlS/NIZF8DQC/LA0KHW2\r\nNAKVBzVhPRg1IxGrNNrwCDVtxBU1lnAcNYeauTTwp/s0RXHANLDJwzTVLtw0yWgLNdyaGTVZOe00\r\nJFcoNZ6B7TQG/MU0+DEUNQFt/DRtlSo14IBuNQxXyzRAZsw0OmxvNepc4TQsbOo0BX5pNeLZFjVa\r\nUP00/NC+NDfFxzSk/Jk0Xv9WNFcJFTUkCfs0nPhONWb3szQLn8U07ItQNLGo0DSMwQE17Z/PNNec\r\n0zRaof0076bINOo8GzXNlYU0hEQkNTyH5jT2YwU1rPNDNQ/OwzRUsuM0rNi/NPhc8DQKmUg1hNDu\r\nNFsmCjUDuzw1VasyNef7cjVSnrA0plT5NKXLhzSFNZ00Ed+nNCFdUDUWMQI1JJnbNNcqvjQMb+40\r\nMCZxNWBYzTTT7DQ1EXZRNffmaTV+3a80W4eUNHE8DjXgGu40gRDrNBPuqjTmEDY1ol3ONJbeJTVU\r\n2RE1pL7HNICD5TRWWw816jZdNU5+4zSdEBA1+UiKNPe7OzXoSB81ciQHNY2hujSihSE1Zmy4NC66\r\njjSDV6M0zDuqNH8orDToE6s0mAmlNNh/LDUtZTA1POHGNHfLdzTbIis17ZIdNZocBDVvRKE0QmwB\r\nNYXQijQkWAs1oC2hNA2Z5TSh2c00fEGaNMT8ujTDZ5w0Y1z7NI2ELjWyxiA1AEAcNQ==",
                            "noiseTrainingType" : "default"
                          }
                        }
                    ],
                    "start" : 1280,
                    "duration" : 8,
                    "mediaStart" : 894,
                    "mediaDuration" : 8,
                    "scalar" : 1,
                    "metadata" : {
                      "WinSubProjectDisplayName" : "",
                      "clipSpeedAttribute" : true
                    },
                    "animationTracks" : {

                    }
                  },
                  {
                    "id" : 351,
                    "_type" : "AMFile",
                    "src" : 15,
                    "trackNumber" : 0,
                    "attributes" : {
                      "ident" : "旁白_vis2021 1",
                      "sampleRate" : 44100,
                      "bitDepth" : 16,
                      "gain" : 1.0,
                      "mixToMono" : false
                    },
                      "channelNumber" : "0,1",
                    "effects" : [
                        {
                          "effectName" : "NoiseReduction",
                          "parameters" : {
                            "denoiserAmount" : 20.0,
                            "denoiserThreshold" : 0.0,
                            "noiseProfile" : "OWoAPH2pEz2x9Qw+d6HTPcva6j2sp089E2dtPD6vPDwfl1A8ScjwPJTr1Txy35g8LaEAPTpegDyh\r\n+807XKYVO6TEeztxHEg8k5enPOCDljxR1SA80RNNO5P/FTsAUsA78qcaO7cppTsc2vE7qgSrO6lQ\r\n2jukqvI7h92AO2yWGzx+tZU8JitaPFzIyTuXwYE7uY9XO8aQ0Dvqq2I88amYPMnb9DtB2j87KTBk\r\nOzy52zoRSDw7OCjBO9xi/DtxwE88KlbqO3j0qDtWJH47VJnsO9JoxDuANhs8tJ+AO6Qz9Tth+oI8\r\nbGt3O1T1Nzzjhew74A0cPJAvITwici89BseWPGFNtDxkw7o7MRvlOmld0jryf386QXGZOrHMrzuA\r\ngR46FrCVOsPpWDsY4v07HUbYO1nLPjsw9w47wr3FOrnZ+Drc3FY7lUkJO7DAJDv2mAY7Bol9O6Gv\r\nIjui8ek64NliOq5vmTrG/ZM6bCYbO5q5tzpF2YA69unhOXdvJDkMXx461iVVOpU6tTmIPdU5NZ4C\r\nOrLzrDlzv6053gyzOSasszlLTgc5O7atOcYrxzkKtYw6r9cjOpoinjlRRog6Q9QHOqLsbTo5k0E6\r\n9U47OqgHGzq2DIw6xrvIOkIITzrGgR86I/hwOsTOFzq0IQU6isQ5OkIP9DmC+Bw6hsx0OYy4pDnt\r\nMqk5f6afOfFKnDnqIvc5SsRQOpXvdDp8CiE703psOwEALztW+4A6r36ROtKuGDoo4s852RrZOQKM\r\nhDmkgtY4CBe5OXJ5jDnBcjY5RM9jObGZ+DmyHG05aluSOaagETnIyGM5Jt2dOdUxnTmBHwU6PPyu\r\nOQ2PETl6x7k5tcInOtV63TnmcCY6dHftOUWtBzoIt6w5qk+GOf1mbTk4DT454wsLOh2HAjoY+ZY5\r\nyr2VOQQurzmqnRg5LDMFOZLQUjkvV1Q5/g1+OSlxFzlITz85XmAkOdDG/DjiIfM4htxWOREUlTqh\r\nwcw5VnaGOWCBXjn90lA5cKzvOWPrqzkL/o45sEFOOTkyMDpUc5s51oo9ORByjjlGCco52p/tORKy\r\n8Tnit2E51lY0Ofo+ATq6o3Y5Z021OYTVGDlRAq45zuyhOeA4ZDk52eE5nw91ORI2OzlB2R85fgab\r\nOY8bMjkQ1TA5cCaFOXju/Dh2ghM59YD8OFHmfzmnKiQ58YpfOXsbtzlCtX45yEWKOLGkLDkayH45\r\nRUrSOSltyTgvk1U5NT2NOY45EjnfihY5JFlqOTokTjlSlV45Ir54OQ1W5jifjjI5bWS5OfA8NDkO\r\nXs44QhjgOLbnOjkr+iw5hK5/Ocz3Azl6HF45q6DlOIJb2DiR79I4esU3OWtGjDg4gBM5cVloOdzR\r\nDTlkchs5GGg7OVSTtziXOeg4XazEOCiMADmz6Tw5ueqOOVcmeTmS4Ms4nI0UOUTLnjhAXjc56pkE\r\nOdXdBznEOY85PIy4OMxI5zgkSxk5r6oQObvARTnCtUo4LoVEONjrVjnfUsw4msCWOCWAQjlc/y45\r\nJ4KtOCzJrjjGJZ84BKXjOIHj2jhi+yE5rqqOOdCIIzm9fIM56Oo3OUSjtzmiT/M4Wiv3OJw6ETmO\r\nS8w53FJpOdbu1DiJSZs4DaoFOWqKWDkkyvU4GPIdOchJLDmxKwA54MMWOVgzmjgl75M44OcEOVPH\r\n3Dhmzdw4X9sOOb2CyTguC7Y4VgEmOTaQxDjBUAQ5dAM9OarFHjmfj444qMgAOWZMDDmSlas4yUZQ\r\nOaDeMTmPogU5Wxe1OF0m3Dh6aDQ5tbkIObjoEzlqqg45EPLvOKyF+zhUmiE57MvFOPg/vDiW+Vo5\r\nmhyzOGFsBTldBEw4dL3pOOk/QDnXnJQ467sNONFyxDfGPDM3rTsZN+BixjZrWTk338GlNhf/FTe5\r\nNTk2RTSUNkMj3Taj0d02is2UNt0UDDYUXvI1aeXFNhijMjbAtYc2ikWgNuphZDY8D1I28gSnNv4k\r\nLTZRYDk2mtYGN70P5DaWBKc2RzXfNlQFKTeHIYk2IpjaNofVszbqlaM2PatTNiKTzDYjx6M2BMHZ\r\nNiXEdDbJOMs2FNCMNsnGRja2BpI2UsiGNvm1vzbR74Q2wLCoNnn3jDa4fK82VqGlNrSAsTYwh5o2\r\n00guNguj5DYiuZI2yg0BN6PItzbTY6w2VXFINoLcTDbWIk82WJ/cNvx6HDZGdqc2ta/1NVwQMDaG\r\n9VE24mqONlq9rDaNiSE2Lay+NpqbcTYGZ3Q2KPqfNicegDbQyZw27RAtNyQhVjazoMU2izz9Npf0\r\njzbhrAg2zKY4Njo2yjZ1hZE2WNZsNrbfvDZiyp42KRFjNr96jjbjaI02RTYRNmwjhzapnyI2B4XY\r\nNltT7jUOLSY20oDqNhJrxDaCZWw2Ct+VNg/LgjZZzMA2Ik1JNrzQuDZxy901azNqNvW2eDaUuVs2\r\ngu+KNta85ja8P/M1FmShNp/ipjb1OIE21Q/2Nr5JmzYXtZU2x6+qNk6LmTZnjYw2mIJGNul2Jjbc\r\nO3A2lquYNuovLTYtgfE1nUlUNgQzNzaIsDM2DIvUNjKBRja+0oY2ExJ5NgPdJzZaSLQ2EtYgN0Wc\r\nDDbIHow2IiiZNgZUVTa1JnM2v3wcNoN3YDYCtgE38JaENkzoaDb0JTc26/WJNoqw9jYFxFI29vNP\r\nNmdCvDZHFIU2xxObNr0sUTblHoc2JrM/NmrbFDYX93o2m4OpNgs6HDaFNl02Rb2TNpjkJjYAADk2\r\n/8chNn7/QTawezM30gsqNidJ8zWKfC02kBYuNmSnnTa80FY2mFN3NkYZWzY4aO41UHmKNkyZiDYh\r\nGC42h1Y6Np6cgzYSij81AnuaNnc6rzZUXG82vp9eNp4h/jWNsEY2k603NuKSjDbHWSo2RxYINlNS\r\nmTaAOlU2yvJmNkqftzZ5VEk26hV8NjWLezbKM9Y1ernFNWi/XDZaEHQ2dhvANhDaRjYMwy82EwC4\r\nNlCNVTbH4IU2Cx1LNk6XlDbcVNA2FB33NQHMjzY6eW02jpZONqrdMTa+lxk267lUNkhoNDZz+TQ3\r\nwulaNoXxEjYQdsQ2lXEcNsiYOjbfz9o2UzpENvQL0TSOQIM10f8gNcLzLzX5w2c1H4efNN2VyTQO\r\nn70011tKNT7aKTUG8/w0QEgiNUCRKjWhXKI03LYLNQzSrjUnb9E0iB65NCpfLzVs4tk0emppNQtw\r\n8zTy2+U0USoLNeRnDTU88Uc19BfdNFPdNDVtA7Q09QQJNdJhKTXqRNg0am3RNG251DQ1KrA0Oj/Y\r\nNOrxkjTQ8cI0+3eXNEYitDR9exs1YvMdNUBR5DR0pQE1EGj5NAq8KTXmxKs0ErgPNTXAAjVM71g1\r\n2McYNch2PjVA3vs0HZGgNJEIOTWY3M40B5RGNGfgUDUIWUw1AAKQNPuJvjRnt4w0M0qUNPpcxjR3\r\nCM0000dJNZjtnTSx6rQ09gISNSzUKjVHscM0TBtXNYWZEDWjpck07HS+NMuEnzTVZ0U1duMGNWCg\r\n6jTs3880YBEXNT+XujRa3bk0wUISNadMADU5AQ411F8ONePs/jS0pjA105FENQ/HnjQmcwg1WPKH\r\nNFq2nTSuOLI0S9MpNbyI/zTAPso0+sXPNPLB3DTur8o0PLbHNPmbnzT+MvY0YjqvNCUXJTXMJp80\r\nndUPNWmVEjXazkY1O5DgNMl4gzVmyAY1rYEfNXmSQTWIrhU1ikoVNSCqpDTaEbY0/AvpNLIwhDSh\r\nIww1MCwENb5Y/zSUBhw1UowYNbXtpzTvlg4155xcNZhCrDRWs9U0k616NIzznjRmnAQ1Khq/NEm9\r\nCTUki940fgEVNZA1JzWkzqg0RtjuNI+WjTW0QRg1omMcNXzDIDUDHKI0NVu3NMMpRDVCjIo0ViIs\r\nNfxAITWCVB81HXTcNB0NXDWG+bE03vcdNf6QMzXAn8s0Eg/NNATJsTQE9U01LMELNX7DoDSIEB41\r\nwLEGNUVbzTQ8Pwo1QFCINBFgFTVn0vo0JOCjNNaR8zQ1vx41DXUDNak+EjUNQYo08gC7NFzPoTSI\r\n7RU1kpUbNYXvKzWOx240VWf0NGRuBzU6PIo0wlCGNT7g9jSWZjw1Ml4BNRvl6jTQR3w1lmHdNGfd\r\nITTobvU0ypuvNEpF+jTjNY40JYO7NCfBbzQijsA0us84Na6J8TQIYwU1V3IrNSwmYTXQ1kU0zKTc\r\nNDTVfzTj6to0SbOuNHwCvTQ/eR01mcuPNPTduTRDjf806a+nNAj20DREKOo0nPlPNQTe+zQNWSo1\r\nlpGmNBv9xzT/tzk1CtkQNapg2jSMQlI1MDUTNRhOMjWh56Q0AygANa8srzRbOwQ187XxNOQlwDSQ\r\nNO80mTAVNaBD6TQbeoo0UM6FNHPMCjV4t7k0gIxkNE02BjXYBQo1AhAcNWJMijS64uA0zd0JNXWm\r\nEDWiijY1ZpSXNNpWpzTYT+k0QHbzNDaorzSGDHs0qT7ONBvuhzSyYys1dPYCNQdToDTk8uU0MwYH\r\nNWYw+TRbj4g1aJxzNHlxCDVIE8c0Nl2SNOyilTRoqUs1KtMvNbhJPjVmcCE12eGANQ1X8jSNKZo0\r\ndGHdNGrcDjXxZ0A0JhPPNJb14jSwx8o0morUNDmP2DTubH40SSbdNE1r7TRT3rk0EZGLNP35LjV1\r\n1640P7XhNLEsczQldYc02X7eNAZ67jSawbI0drgeNb6GtzSMN9U00j4cNQhrBzWSqgw14dAnNYUF\r\nnDTQSpg0P9OMNOHDLTULMsI0QH6VNI2nxDSl5Yc0WHyLNCaeLDXnc6Y0AaCFNBQP7TTJzR41kvoE\r\nNRykHjU6wZw0+cjVNJdR1TSiQQU10AuONaiUkzUExgY1MMYONaRkZTT9EAU11Bu0NC2j3jTIM4A0\r\nal8cNSoRTzXbrSk1FTDYNEBqkjTgDwA1sun9NP5ztDRWob80HSSSNGYkGDWnkuM0RaMANeGLITXo\r\nTow0GNvbNJlRuzSgsOY0CpP5NMVL9jRRErs0aS1TNVNWgDSmPp80Gvy3NBnwGDXWr7M0dB/VNIw8\r\n0DQBkZ410iF5NDXYLTVZSxU1T0S6NHIrqTRzbRA1XDWKNA2phjRVwpo0SPJ1NGzsODX8K6Y0ne6l\r\nNNU3JjWsl7M0wb+kNKhE5TQUaN8041HRNPhNtTRpfuQ09awXNcwLtDS6nqA0qbk4Nbg8qTQ3pSA0\r\nkRS8NLXO0DRqdcQ0b//eNLPvrDQGQu00fPstNS/HMTWPJMc0fIrENBIciDSLv/k00iuaNNjgPDWm\r\not00DFkCNfHQhDTO4qY0xTYDNbDSOTWNTjA1dLcPNZB1uzQDUrY08mkFNZaNRjXzzK00ErsDNVeQ\r\n3zS5HxA1pmTINLQDBTWIxP008Ny+NADrGDWeipI0eMHvM5R6CTWA3x01wRO2NE0PBDXZKrU0GFyV\r\nNOCJrzSgxtE0tQR+NKJP0zTmcMA0zgvvNFJN7TT5eA41x/eHNAie2jTBXoU1JbdYNQAAEDUAZAE8\r\nF6YTPaE6DT5EKNM9dQ3rPVEOUD0ioW480q89PCfdUDzbEfI8OKDUPGwsmDxHYgE9amiBPGR1zjsP\r\nPhU7a3x7OyhGRzygj6g8mBGWPCuBIDwy9E47Dr4TO1iRvDsOzBo7Kk6nOyjG8juQWao70ZvWOxbH\r\n8zuU8n07aPEbPGxKlzygoVs8TMfIO9+xhDsybFY7q+rTO/L8YTx2ZJg8LVf1O0mYPjuCWmQ7fLXf\r\nOt2APzt7zMI7O4D+Ox50Tzw8t+w7lE+pOzStezsIHeo7gHbGO/xxGTz7XIA7vAj1O108gzyol3g7\r\ntww5PFZa6zv7yxw8BjMgPKnvLj13cpY8hhS0PDysuTskGOc6fsrQOrACgDqdYpQ6nrawO0mtIzpq\r\niZQ6oWVXO4pL/Dsyi9U7isI/O5AADzuqPMM6Xcz3OuCjVjsJJAU70nAkO3xeCzuPI4E7G4YiO1p8\r\n7jrINmQ6RKiWOkNYjzquKxk7L5jEOkefiTpiBN05wkIqOcZGDTp6g046RrOpOQ6EwjmtPgQ6e2Gc\r\nOSSjpDlo8ZU55XS9ObmuBzlz4785N8m2OWCrjzo4vB06uHOTOSQohDrAdAk6ttpzOqV9QjpzGTY6\r\n3XEaOsgBjjqKt8k6HvZMOicoGjocq2w6ap4WOhHEADrfCzk63skBOgeJHDrUTnI5YkuiObHDpjmu\r\nSKM5/cCSOf1k+zmMGlI6inluOu+YIDu89m07RVI0O6+Kgzr+5446GKYWOsGMzDkpPtU5IguVOWYu\r\n0Thu2rs5wj2KOYr0Szln8mE5OIzqOdZKbDmJnpY5zvoYORbfcjmJJb45rPudOReeBTpaM7A5gOEv\r\nOfU4rjmBKBo6bN3fOQHYIDpCxO45IMMKOhDuqjnu5385nKuKOcsUJTnO6QY6IssJOqWwlTkE/nk5\r\n982pOYJKFzlMEgc5kM8qOTzQSjkjjFw5oLMhOb3XTTlwQiA5qwrfOFyxBDkkj0w5MGaVOpPkyzkA\r\nWYw5x/dWOdTGaDnThQM6cUq4OS/ykTn8pTU5cg8tOjmUnzmJETc5yAicOQHqsTm7VQY6AgbzOcxp\r\nYTnUlDk5COb3OVNucjnJjtA5lvYsOVSTlDlbCZA5jieCOevY/jld/5M5ZAsQOQCjIjmaXZk5X2sk\r\nOaKvQDn3w2A5sFLsOCInSDnjTPU4Pw52ORiOFTnxB085aOe5Oeymfzkdh5Q4b9kUOTcjiDlltOQ5\r\nW97hOK93TDk6TJo5GxUROfmZKDmqWVg5gnArOZiUUTljp2g5VN4COa51OjmCG6857I8hOQJUyDiy\r\nFeY4PzlIOQnaEjkNa105LJgJOedSTTmft9w4RFvhOEMPBjkBNUc5IxKaOKB0AzlHK0Y5uzfsOA7s\r\nCTnIO1A5K33WOKFk2jjp16849C8QOWZpPTn28K85JD91Ocr4pTiAdCY50TmeOH4OPTl/1vM4rUTC\r\nOKr9azkWMbo4F7ngOLhyVDn8tgw5pjZnOXrXVTgwxCo4OQx/OXmv4TiOkZs4EjRhOc/BKzm9HJg4\r\nmNmEOBptqTgOwN44isnuOMjHEDkVGqA5ZsgfOcwJgTn/qS85F5G9OSUi8Th4/wU58kwEOcGM0znk\r\nW1o5KBbSOPxmrjgoieg4mOJqOacY5jhwBhY5iXUjOeCfAjn89RI53mOTOE5nnDgXwQo59x/YOLsN\r\nvzisAgg5ZZXBONJSyTg4ChA5g0OvOOLhCzk2PkQ5yZUgOf1/lTgIavM4G5cEObRwszj5plM54Ngg\r\nOTpfCjmgXsE4/c7tOPbIHjng2QM52pkWOVEIBjnWdfE44lgEOVkCJTm3Js04paCwOJruaDnED7c4\r\nlngHOd1wSThLgdw4+MM6OWkNiTjQTig4ZOnTNxI6RTeeDew2cZ29Nv7NAjclhNM2iMnzNsyKczZM\r\nTqE2NwIANyN0CjdyN5Q2WgazNq/6RTZdvu82CgJ2NnBTbzZ2Y8g2nCmlNornMTbyM/U2XdYuNnYx\r\nDDZETwI3eL+nNkEyGTdWc042Yb0WNzGqlDaNeNI2vHqNNkA4sDYmdYE2+cmANhHYVzaKnIs2sgCG\r\nNgmRtTZMoZo22v10NnRMhzYJ96I2OKTLNuYomzb9GYQ2aZ4gNg34YTYuHZo2W3zKNg54fjYZjkw2\r\nf2wUN3Od0TYrN5w2qv+fNtmNlTawHlI20q1xNtWcgzbalsQ2aqh0NqiRqzZJr+Y1tKkfNvwthjbs\r\njso2aMOjNjtLWzaqzNg2QuVVNvmDcTZsOcU2ODthNmCKmjZkwsw2JO2RNrvV7zZ/j5g2X3SCNuWv\r\njDatdLA22aTFNuHopjZGQ1k280BwNm9ZdzZuF3o2uV16NukrgjZ0cmI2oP0yNtheUDbrCZM2IZD3\r\nNcjiiDbmV9M2x6S6NnU/pzZADwg2huV1NusKwzZOBTQ2+FGNNgbaCjZtFJo2oEWzNnsKijZWeO02\r\nGtuJNu8IdjY49Yg2Mr2ANg3ZzjZiM+s2PSKeNoMphDa/F582hoJcNt0QxjZWOKM2KJ8XNqxVQjbY\r\ngaI2GZ6aNs0bpTU+g5g2tEowNtIkZDYOlas2ZR1xNtIkgzZRo4A2kxo0Nq+R7DZCmS43Jnh6NgQS\r\nbDb4RYg2lNw9NuvPkzYiw3I2yo89NhID7TYcIIw26OkjNrMkKzbG26s2fgyyNkykhTarGu41ZVyZ\r\nNs59hja4/3g2DVwlNg8S/DWud6U2N9IvNgCXSjbgmnM2uSBPNn7iXza+E8Q2IrczNgAgGTbUpLw1\r\nmKpzNoJSGzdiAoM2ZpDFNfrlFDY4tAI2RI+mNgX6UTb+VoU2addaNhrNCTZZFHA2uMncNXzMSzbJ\r\nKYk2chpoNlUqsTVQL942eABrNmzNjTZ3X0o2gnWBNn72gTZLTEE2lwQzNgfuCjaKZ0A2Cn+pNqDa\r\nNzbbTXE2Jn7UNu4UKDZVMoQ2j46fNsCxMzbOjB026lnINRYmezYubI02j29ONiv6jzYkvQU24bo/\r\nNlRyPzacL0c24hOWNpYhiDbn4/U1XMKXNjdHgzYwUO01kmwQNsrkGjZWzx02IdkDNtNSCTdR2VE2\r\nthtfNuRpyzaptiM2tEQ0Nkz1XDaF2zA2q9VKNcwlKDW1Wt007vuJNFq4yzRjGzI175BhNbYW/jTC\r\n50I1fp2dNJ2JFzXcfBY1j6wVNck7ADXKUgk1IqzANOh0JjVVrrw0Msw2NZKFGTUaPUI1fBNaNcVN\r\nSTUON7Q0P4fQNFKuFzUxPlU1sICqNGd1ajTm2QI1i7CcNE6RhzRis6A0+Hg7Nbaz2zTd5O41Lo6Q\r\nNCC46jRqY4k02LwPNQsD+zQS2kY1DgsZNQCcHDWKMa00NY4gNbBtFDXqiRc1oiMKNXSGhzRgRxs1\r\nsvCONXglnTQaJsk0VZcVNTwSAjVbovE0HAgiNYYOkDWs+Bk1NoTxNOmQHzWwgbI0cTRKNEIM5zRm\r\n0Eo1Lt3NNDT7uTSlUH81fpTdNNbDuDR5QIA1bivBNDg8tDTqSAw1juzKNPjckTXYQus0QHrGNAe/\r\nzjT+Kxk1k1EENS6XETW7x+g0SgvDNLGCvzSIgvk0RU2fNNSwojQOc7k03IPMNCf6ETV8ef00kiUz\r\nNaCP5DSyjgI1NzurNDzYBDVnrxg1wWfANHpDdjTTMLM0SyeuNCZrpDTpSwg1kQXWNKnmtjTd4L00\r\nCjEvNe+3XjWZAko1Ym35NPTQoTRMXRI1/Kv1NNnw+TREn580ApgENQioMTUc6Qw1wGDtNMWVAjX6\r\nRmI1CN1MNL0nqzQdttc0yKQdNbOO9jSg9bU00Ta0NPpG8jRwfn81zM+VNG1DtzQjBjQ133YnNRiY\r\nzzSD58A0vVEGNeQz7TQc+8c0alDxNOYeqTRZjwM1A1X7NKFF9DRfJtM0Vc0BNUYGIjUIksE0MIwp\r\nNYA4xDQyT2E0+rrONBaUKjWcVbs0lgEXNQhoLjVqYfM0QkIHNXxZBjWjN9A04CoHNf4JgzRmC1I1\r\nHvk2NR48nDSMgG00Zf32NNotNDWhucs0OhP6NCbLvjSa08g0UXkUNWHkGjU2b7M0Jjf1NNWAHTX2\r\nAKk0D22rNDpwCjVAdSE1wIe3NKki1DQ7h1c0c56RNM+EHDWeNvs0MQ70NEBr+DSzItM00gbWNHQw\r\nKDULfMQ0x//kNPxv2TTQtDM1WH4UNV82NTXQGQs1zfzkNE4e5zQRzgg1/pbnNGCS0TTOFd40v6/x\r\nNAS1tjRCvqU0IwneNHHchzWWIeA0UM+4NK8f9TRyIZM0h7UINdtvGDWwIMU0f+g7NQZH3jSvXyg1\r\nQFDUNEfN1zTFaJE0vTVhNZhtEzVsOCo1lI2DNKvBcDU7hyA1G3lgNdKy/jT5BOE0W5yZNMVKxTQt\r\nffo0UfUYNfYY1jRmNic1cjOcNHhM3TQltw01y+wGNdUXAzWjaYQ1EAGsNAMnHTXG2Ok0b2sZNdaU\r\nnTTqTu80BYtpNRavBjXpXoY0gY8TNRz6MzTZ+bU0CwEyNeatmjTYpAw1XQ0NNS4fMDUD3N80w5kB\r\nNbZ+wDSHwM80LsdINflVQTXijxU12ckXNexXHTV3aAk1Y0gINRwPEzWrSkk1gEhcNcKckzRnQdM0\r\nylE8NZTlGjWZRXo1mYPiNKOIGDX9VSk1SDywNE/uAjVE05U0/LpeNYJ8uDT+TwI1K57TNKdFFTVQ\r\nmmw1bxHxNNasyjTwQdg0uDi0NKQl/jRwNLM0eBffNHVFvDRC6IA0QxjQNA8uczQLG6o0fGK7NO7j\r\nmzQBYqc0PLzWNLgI9DTcW6Q0a0AZNYg9STUbsVQ1+5sfNVyxoTRchak0ZlS/NIZF8DQC/LA0KHW2\r\nNAKVBzVhPRg1IxGrNNrwCDVtxBU1lnAcNYeauTTwp/s0RXHANLDJwzTVLtw0yWgLNdyaGTVZOe00\r\nJFcoNZ6B7TQG/MU0+DEUNQFt/DRtlSo14IBuNQxXyzRAZsw0OmxvNepc4TQsbOo0BX5pNeLZFjVa\r\nUP00/NC+NDfFxzSk/Jk0Xv9WNFcJFTUkCfs0nPhONWb3szQLn8U07ItQNLGo0DSMwQE17Z/PNNec\r\n0zRaof0076bINOo8GzXNlYU0hEQkNTyH5jT2YwU1rPNDNQ/OwzRUsuM0rNi/NPhc8DQKmUg1hNDu\r\nNFsmCjUDuzw1VasyNef7cjVSnrA0plT5NKXLhzSFNZ00Ed+nNCFdUDUWMQI1JJnbNNcqvjQMb+40\r\nMCZxNWBYzTTT7DQ1EXZRNffmaTV+3a80W4eUNHE8DjXgGu40gRDrNBPuqjTmEDY1ol3ONJbeJTVU\r\n2RE1pL7HNICD5TRWWw816jZdNU5+4zSdEBA1+UiKNPe7OzXoSB81ciQHNY2hujSihSE1Zmy4NC66\r\njjSDV6M0zDuqNH8orDToE6s0mAmlNNh/LDUtZTA1POHGNHfLdzTbIis17ZIdNZocBDVvRKE0QmwB\r\nNYXQijQkWAs1oC2hNA2Z5TSh2c00fEGaNMT8ujTDZ5w0Y1z7NI2ELjWyxiA1AEAcNQ==",
                            "noiseTrainingType" : "default"
                          }
                        }
                    ],
                    "start" : 1288,
                    "duration" : 79,
                    "mediaStart" : 1264,
                    "mediaDuration" : 79,
                    "scalar" : 1,
                    "metadata" : {
                      "WinSubProjectDisplayName" : "",
                      "clipSpeedAttribute" : false
                    },
                    "animationTracks" : {

                    }
                  },
                  {
                    "id" : 352,
                    "_type" : "AMFile",
                    "src" : 15,
                    "trackNumber" : 0,
                    "attributes" : {
                      "ident" : "旁白_vis2021 1",
                      "sampleRate" : 44100,
                      "bitDepth" : 16,
                      "gain" : 1.0,
                      "mixToMono" : false
                    },
                      "channelNumber" : "0,1",
                    "effects" : [
                        {
                          "effectName" : "NoiseReduction",
                          "parameters" : {
                            "denoiserAmount" : 20.0,
                            "denoiserThreshold" : 0.0,
                            "noiseProfile" : "OWoAPH2pEz2x9Qw+d6HTPcva6j2sp089E2dtPD6vPDwfl1A8ScjwPJTr1Txy35g8LaEAPTpegDyh\r\n+807XKYVO6TEeztxHEg8k5enPOCDljxR1SA80RNNO5P/FTsAUsA78qcaO7cppTsc2vE7qgSrO6lQ\r\n2jukqvI7h92AO2yWGzx+tZU8JitaPFzIyTuXwYE7uY9XO8aQ0Dvqq2I88amYPMnb9DtB2j87KTBk\r\nOzy52zoRSDw7OCjBO9xi/DtxwE88KlbqO3j0qDtWJH47VJnsO9JoxDuANhs8tJ+AO6Qz9Tth+oI8\r\nbGt3O1T1Nzzjhew74A0cPJAvITwici89BseWPGFNtDxkw7o7MRvlOmld0jryf386QXGZOrHMrzuA\r\ngR46FrCVOsPpWDsY4v07HUbYO1nLPjsw9w47wr3FOrnZ+Drc3FY7lUkJO7DAJDv2mAY7Bol9O6Gv\r\nIjui8ek64NliOq5vmTrG/ZM6bCYbO5q5tzpF2YA69unhOXdvJDkMXx461iVVOpU6tTmIPdU5NZ4C\r\nOrLzrDlzv6053gyzOSasszlLTgc5O7atOcYrxzkKtYw6r9cjOpoinjlRRog6Q9QHOqLsbTo5k0E6\r\n9U47OqgHGzq2DIw6xrvIOkIITzrGgR86I/hwOsTOFzq0IQU6isQ5OkIP9DmC+Bw6hsx0OYy4pDnt\r\nMqk5f6afOfFKnDnqIvc5SsRQOpXvdDp8CiE703psOwEALztW+4A6r36ROtKuGDoo4s852RrZOQKM\r\nhDmkgtY4CBe5OXJ5jDnBcjY5RM9jObGZ+DmyHG05aluSOaagETnIyGM5Jt2dOdUxnTmBHwU6PPyu\r\nOQ2PETl6x7k5tcInOtV63TnmcCY6dHftOUWtBzoIt6w5qk+GOf1mbTk4DT454wsLOh2HAjoY+ZY5\r\nyr2VOQQurzmqnRg5LDMFOZLQUjkvV1Q5/g1+OSlxFzlITz85XmAkOdDG/DjiIfM4htxWOREUlTqh\r\nwcw5VnaGOWCBXjn90lA5cKzvOWPrqzkL/o45sEFOOTkyMDpUc5s51oo9ORByjjlGCco52p/tORKy\r\n8Tnit2E51lY0Ofo+ATq6o3Y5Z021OYTVGDlRAq45zuyhOeA4ZDk52eE5nw91ORI2OzlB2R85fgab\r\nOY8bMjkQ1TA5cCaFOXju/Dh2ghM59YD8OFHmfzmnKiQ58YpfOXsbtzlCtX45yEWKOLGkLDkayH45\r\nRUrSOSltyTgvk1U5NT2NOY45EjnfihY5JFlqOTokTjlSlV45Ir54OQ1W5jifjjI5bWS5OfA8NDkO\r\nXs44QhjgOLbnOjkr+iw5hK5/Ocz3Azl6HF45q6DlOIJb2DiR79I4esU3OWtGjDg4gBM5cVloOdzR\r\nDTlkchs5GGg7OVSTtziXOeg4XazEOCiMADmz6Tw5ueqOOVcmeTmS4Ms4nI0UOUTLnjhAXjc56pkE\r\nOdXdBznEOY85PIy4OMxI5zgkSxk5r6oQObvARTnCtUo4LoVEONjrVjnfUsw4msCWOCWAQjlc/y45\r\nJ4KtOCzJrjjGJZ84BKXjOIHj2jhi+yE5rqqOOdCIIzm9fIM56Oo3OUSjtzmiT/M4Wiv3OJw6ETmO\r\nS8w53FJpOdbu1DiJSZs4DaoFOWqKWDkkyvU4GPIdOchJLDmxKwA54MMWOVgzmjgl75M44OcEOVPH\r\n3Dhmzdw4X9sOOb2CyTguC7Y4VgEmOTaQxDjBUAQ5dAM9OarFHjmfj444qMgAOWZMDDmSlas4yUZQ\r\nOaDeMTmPogU5Wxe1OF0m3Dh6aDQ5tbkIObjoEzlqqg45EPLvOKyF+zhUmiE57MvFOPg/vDiW+Vo5\r\nmhyzOGFsBTldBEw4dL3pOOk/QDnXnJQ467sNONFyxDfGPDM3rTsZN+BixjZrWTk338GlNhf/FTe5\r\nNTk2RTSUNkMj3Taj0d02is2UNt0UDDYUXvI1aeXFNhijMjbAtYc2ikWgNuphZDY8D1I28gSnNv4k\r\nLTZRYDk2mtYGN70P5DaWBKc2RzXfNlQFKTeHIYk2IpjaNofVszbqlaM2PatTNiKTzDYjx6M2BMHZ\r\nNiXEdDbJOMs2FNCMNsnGRja2BpI2UsiGNvm1vzbR74Q2wLCoNnn3jDa4fK82VqGlNrSAsTYwh5o2\r\n00guNguj5DYiuZI2yg0BN6PItzbTY6w2VXFINoLcTDbWIk82WJ/cNvx6HDZGdqc2ta/1NVwQMDaG\r\n9VE24mqONlq9rDaNiSE2Lay+NpqbcTYGZ3Q2KPqfNicegDbQyZw27RAtNyQhVjazoMU2izz9Npf0\r\njzbhrAg2zKY4Njo2yjZ1hZE2WNZsNrbfvDZiyp42KRFjNr96jjbjaI02RTYRNmwjhzapnyI2B4XY\r\nNltT7jUOLSY20oDqNhJrxDaCZWw2Ct+VNg/LgjZZzMA2Ik1JNrzQuDZxy901azNqNvW2eDaUuVs2\r\ngu+KNta85ja8P/M1FmShNp/ipjb1OIE21Q/2Nr5JmzYXtZU2x6+qNk6LmTZnjYw2mIJGNul2Jjbc\r\nO3A2lquYNuovLTYtgfE1nUlUNgQzNzaIsDM2DIvUNjKBRja+0oY2ExJ5NgPdJzZaSLQ2EtYgN0Wc\r\nDDbIHow2IiiZNgZUVTa1JnM2v3wcNoN3YDYCtgE38JaENkzoaDb0JTc26/WJNoqw9jYFxFI29vNP\r\nNmdCvDZHFIU2xxObNr0sUTblHoc2JrM/NmrbFDYX93o2m4OpNgs6HDaFNl02Rb2TNpjkJjYAADk2\r\n/8chNn7/QTawezM30gsqNidJ8zWKfC02kBYuNmSnnTa80FY2mFN3NkYZWzY4aO41UHmKNkyZiDYh\r\nGC42h1Y6Np6cgzYSij81AnuaNnc6rzZUXG82vp9eNp4h/jWNsEY2k603NuKSjDbHWSo2RxYINlNS\r\nmTaAOlU2yvJmNkqftzZ5VEk26hV8NjWLezbKM9Y1ernFNWi/XDZaEHQ2dhvANhDaRjYMwy82EwC4\r\nNlCNVTbH4IU2Cx1LNk6XlDbcVNA2FB33NQHMjzY6eW02jpZONqrdMTa+lxk267lUNkhoNDZz+TQ3\r\nwulaNoXxEjYQdsQ2lXEcNsiYOjbfz9o2UzpENvQL0TSOQIM10f8gNcLzLzX5w2c1H4efNN2VyTQO\r\nn70011tKNT7aKTUG8/w0QEgiNUCRKjWhXKI03LYLNQzSrjUnb9E0iB65NCpfLzVs4tk0emppNQtw\r\n8zTy2+U0USoLNeRnDTU88Uc19BfdNFPdNDVtA7Q09QQJNdJhKTXqRNg0am3RNG251DQ1KrA0Oj/Y\r\nNOrxkjTQ8cI0+3eXNEYitDR9exs1YvMdNUBR5DR0pQE1EGj5NAq8KTXmxKs0ErgPNTXAAjVM71g1\r\n2McYNch2PjVA3vs0HZGgNJEIOTWY3M40B5RGNGfgUDUIWUw1AAKQNPuJvjRnt4w0M0qUNPpcxjR3\r\nCM0000dJNZjtnTSx6rQ09gISNSzUKjVHscM0TBtXNYWZEDWjpck07HS+NMuEnzTVZ0U1duMGNWCg\r\n6jTs3880YBEXNT+XujRa3bk0wUISNadMADU5AQ411F8ONePs/jS0pjA105FENQ/HnjQmcwg1WPKH\r\nNFq2nTSuOLI0S9MpNbyI/zTAPso0+sXPNPLB3DTur8o0PLbHNPmbnzT+MvY0YjqvNCUXJTXMJp80\r\nndUPNWmVEjXazkY1O5DgNMl4gzVmyAY1rYEfNXmSQTWIrhU1ikoVNSCqpDTaEbY0/AvpNLIwhDSh\r\nIww1MCwENb5Y/zSUBhw1UowYNbXtpzTvlg4155xcNZhCrDRWs9U0k616NIzznjRmnAQ1Khq/NEm9\r\nCTUki940fgEVNZA1JzWkzqg0RtjuNI+WjTW0QRg1omMcNXzDIDUDHKI0NVu3NMMpRDVCjIo0ViIs\r\nNfxAITWCVB81HXTcNB0NXDWG+bE03vcdNf6QMzXAn8s0Eg/NNATJsTQE9U01LMELNX7DoDSIEB41\r\nwLEGNUVbzTQ8Pwo1QFCINBFgFTVn0vo0JOCjNNaR8zQ1vx41DXUDNak+EjUNQYo08gC7NFzPoTSI\r\n7RU1kpUbNYXvKzWOx240VWf0NGRuBzU6PIo0wlCGNT7g9jSWZjw1Ml4BNRvl6jTQR3w1lmHdNGfd\r\nITTobvU0ypuvNEpF+jTjNY40JYO7NCfBbzQijsA0us84Na6J8TQIYwU1V3IrNSwmYTXQ1kU0zKTc\r\nNDTVfzTj6to0SbOuNHwCvTQ/eR01mcuPNPTduTRDjf806a+nNAj20DREKOo0nPlPNQTe+zQNWSo1\r\nlpGmNBv9xzT/tzk1CtkQNapg2jSMQlI1MDUTNRhOMjWh56Q0AygANa8srzRbOwQ187XxNOQlwDSQ\r\nNO80mTAVNaBD6TQbeoo0UM6FNHPMCjV4t7k0gIxkNE02BjXYBQo1AhAcNWJMijS64uA0zd0JNXWm\r\nEDWiijY1ZpSXNNpWpzTYT+k0QHbzNDaorzSGDHs0qT7ONBvuhzSyYys1dPYCNQdToDTk8uU0MwYH\r\nNWYw+TRbj4g1aJxzNHlxCDVIE8c0Nl2SNOyilTRoqUs1KtMvNbhJPjVmcCE12eGANQ1X8jSNKZo0\r\ndGHdNGrcDjXxZ0A0JhPPNJb14jSwx8o0morUNDmP2DTubH40SSbdNE1r7TRT3rk0EZGLNP35LjV1\r\n1640P7XhNLEsczQldYc02X7eNAZ67jSawbI0drgeNb6GtzSMN9U00j4cNQhrBzWSqgw14dAnNYUF\r\nnDTQSpg0P9OMNOHDLTULMsI0QH6VNI2nxDSl5Yc0WHyLNCaeLDXnc6Y0AaCFNBQP7TTJzR41kvoE\r\nNRykHjU6wZw0+cjVNJdR1TSiQQU10AuONaiUkzUExgY1MMYONaRkZTT9EAU11Bu0NC2j3jTIM4A0\r\nal8cNSoRTzXbrSk1FTDYNEBqkjTgDwA1sun9NP5ztDRWob80HSSSNGYkGDWnkuM0RaMANeGLITXo\r\nTow0GNvbNJlRuzSgsOY0CpP5NMVL9jRRErs0aS1TNVNWgDSmPp80Gvy3NBnwGDXWr7M0dB/VNIw8\r\n0DQBkZ410iF5NDXYLTVZSxU1T0S6NHIrqTRzbRA1XDWKNA2phjRVwpo0SPJ1NGzsODX8K6Y0ne6l\r\nNNU3JjWsl7M0wb+kNKhE5TQUaN8041HRNPhNtTRpfuQ09awXNcwLtDS6nqA0qbk4Nbg8qTQ3pSA0\r\nkRS8NLXO0DRqdcQ0b//eNLPvrDQGQu00fPstNS/HMTWPJMc0fIrENBIciDSLv/k00iuaNNjgPDWm\r\not00DFkCNfHQhDTO4qY0xTYDNbDSOTWNTjA1dLcPNZB1uzQDUrY08mkFNZaNRjXzzK00ErsDNVeQ\r\n3zS5HxA1pmTINLQDBTWIxP008Ny+NADrGDWeipI0eMHvM5R6CTWA3x01wRO2NE0PBDXZKrU0GFyV\r\nNOCJrzSgxtE0tQR+NKJP0zTmcMA0zgvvNFJN7TT5eA41x/eHNAie2jTBXoU1JbdYNQAAEDUAZAE8\r\nF6YTPaE6DT5EKNM9dQ3rPVEOUD0ioW480q89PCfdUDzbEfI8OKDUPGwsmDxHYgE9amiBPGR1zjsP\r\nPhU7a3x7OyhGRzygj6g8mBGWPCuBIDwy9E47Dr4TO1iRvDsOzBo7Kk6nOyjG8juQWao70ZvWOxbH\r\n8zuU8n07aPEbPGxKlzygoVs8TMfIO9+xhDsybFY7q+rTO/L8YTx2ZJg8LVf1O0mYPjuCWmQ7fLXf\r\nOt2APzt7zMI7O4D+Ox50Tzw8t+w7lE+pOzStezsIHeo7gHbGO/xxGTz7XIA7vAj1O108gzyol3g7\r\ntww5PFZa6zv7yxw8BjMgPKnvLj13cpY8hhS0PDysuTskGOc6fsrQOrACgDqdYpQ6nrawO0mtIzpq\r\niZQ6oWVXO4pL/Dsyi9U7isI/O5AADzuqPMM6Xcz3OuCjVjsJJAU70nAkO3xeCzuPI4E7G4YiO1p8\r\n7jrINmQ6RKiWOkNYjzquKxk7L5jEOkefiTpiBN05wkIqOcZGDTp6g046RrOpOQ6EwjmtPgQ6e2Gc\r\nOSSjpDlo8ZU55XS9ObmuBzlz4785N8m2OWCrjzo4vB06uHOTOSQohDrAdAk6ttpzOqV9QjpzGTY6\r\n3XEaOsgBjjqKt8k6HvZMOicoGjocq2w6ap4WOhHEADrfCzk63skBOgeJHDrUTnI5YkuiObHDpjmu\r\nSKM5/cCSOf1k+zmMGlI6inluOu+YIDu89m07RVI0O6+Kgzr+5446GKYWOsGMzDkpPtU5IguVOWYu\r\n0Thu2rs5wj2KOYr0Szln8mE5OIzqOdZKbDmJnpY5zvoYORbfcjmJJb45rPudOReeBTpaM7A5gOEv\r\nOfU4rjmBKBo6bN3fOQHYIDpCxO45IMMKOhDuqjnu5385nKuKOcsUJTnO6QY6IssJOqWwlTkE/nk5\r\n982pOYJKFzlMEgc5kM8qOTzQSjkjjFw5oLMhOb3XTTlwQiA5qwrfOFyxBDkkj0w5MGaVOpPkyzkA\r\nWYw5x/dWOdTGaDnThQM6cUq4OS/ykTn8pTU5cg8tOjmUnzmJETc5yAicOQHqsTm7VQY6AgbzOcxp\r\nYTnUlDk5COb3OVNucjnJjtA5lvYsOVSTlDlbCZA5jieCOevY/jld/5M5ZAsQOQCjIjmaXZk5X2sk\r\nOaKvQDn3w2A5sFLsOCInSDnjTPU4Pw52ORiOFTnxB085aOe5Oeymfzkdh5Q4b9kUOTcjiDlltOQ5\r\nW97hOK93TDk6TJo5GxUROfmZKDmqWVg5gnArOZiUUTljp2g5VN4COa51OjmCG6857I8hOQJUyDiy\r\nFeY4PzlIOQnaEjkNa105LJgJOedSTTmft9w4RFvhOEMPBjkBNUc5IxKaOKB0AzlHK0Y5uzfsOA7s\r\nCTnIO1A5K33WOKFk2jjp16849C8QOWZpPTn28K85JD91Ocr4pTiAdCY50TmeOH4OPTl/1vM4rUTC\r\nOKr9azkWMbo4F7ngOLhyVDn8tgw5pjZnOXrXVTgwxCo4OQx/OXmv4TiOkZs4EjRhOc/BKzm9HJg4\r\nmNmEOBptqTgOwN44isnuOMjHEDkVGqA5ZsgfOcwJgTn/qS85F5G9OSUi8Th4/wU58kwEOcGM0znk\r\nW1o5KBbSOPxmrjgoieg4mOJqOacY5jhwBhY5iXUjOeCfAjn89RI53mOTOE5nnDgXwQo59x/YOLsN\r\nvzisAgg5ZZXBONJSyTg4ChA5g0OvOOLhCzk2PkQ5yZUgOf1/lTgIavM4G5cEObRwszj5plM54Ngg\r\nOTpfCjmgXsE4/c7tOPbIHjng2QM52pkWOVEIBjnWdfE44lgEOVkCJTm3Js04paCwOJruaDnED7c4\r\nlngHOd1wSThLgdw4+MM6OWkNiTjQTig4ZOnTNxI6RTeeDew2cZ29Nv7NAjclhNM2iMnzNsyKczZM\r\nTqE2NwIANyN0CjdyN5Q2WgazNq/6RTZdvu82CgJ2NnBTbzZ2Y8g2nCmlNornMTbyM/U2XdYuNnYx\r\nDDZETwI3eL+nNkEyGTdWc042Yb0WNzGqlDaNeNI2vHqNNkA4sDYmdYE2+cmANhHYVzaKnIs2sgCG\r\nNgmRtTZMoZo22v10NnRMhzYJ96I2OKTLNuYomzb9GYQ2aZ4gNg34YTYuHZo2W3zKNg54fjYZjkw2\r\nf2wUN3Od0TYrN5w2qv+fNtmNlTawHlI20q1xNtWcgzbalsQ2aqh0NqiRqzZJr+Y1tKkfNvwthjbs\r\njso2aMOjNjtLWzaqzNg2QuVVNvmDcTZsOcU2ODthNmCKmjZkwsw2JO2RNrvV7zZ/j5g2X3SCNuWv\r\njDatdLA22aTFNuHopjZGQ1k280BwNm9ZdzZuF3o2uV16NukrgjZ0cmI2oP0yNtheUDbrCZM2IZD3\r\nNcjiiDbmV9M2x6S6NnU/pzZADwg2huV1NusKwzZOBTQ2+FGNNgbaCjZtFJo2oEWzNnsKijZWeO02\r\nGtuJNu8IdjY49Yg2Mr2ANg3ZzjZiM+s2PSKeNoMphDa/F582hoJcNt0QxjZWOKM2KJ8XNqxVQjbY\r\ngaI2GZ6aNs0bpTU+g5g2tEowNtIkZDYOlas2ZR1xNtIkgzZRo4A2kxo0Nq+R7DZCmS43Jnh6NgQS\r\nbDb4RYg2lNw9NuvPkzYiw3I2yo89NhID7TYcIIw26OkjNrMkKzbG26s2fgyyNkykhTarGu41ZVyZ\r\nNs59hja4/3g2DVwlNg8S/DWud6U2N9IvNgCXSjbgmnM2uSBPNn7iXza+E8Q2IrczNgAgGTbUpLw1\r\nmKpzNoJSGzdiAoM2ZpDFNfrlFDY4tAI2RI+mNgX6UTb+VoU2addaNhrNCTZZFHA2uMncNXzMSzbJ\r\nKYk2chpoNlUqsTVQL942eABrNmzNjTZ3X0o2gnWBNn72gTZLTEE2lwQzNgfuCjaKZ0A2Cn+pNqDa\r\nNzbbTXE2Jn7UNu4UKDZVMoQ2j46fNsCxMzbOjB026lnINRYmezYubI02j29ONiv6jzYkvQU24bo/\r\nNlRyPzacL0c24hOWNpYhiDbn4/U1XMKXNjdHgzYwUO01kmwQNsrkGjZWzx02IdkDNtNSCTdR2VE2\r\nthtfNuRpyzaptiM2tEQ0Nkz1XDaF2zA2q9VKNcwlKDW1Wt007vuJNFq4yzRjGzI175BhNbYW/jTC\r\n50I1fp2dNJ2JFzXcfBY1j6wVNck7ADXKUgk1IqzANOh0JjVVrrw0Msw2NZKFGTUaPUI1fBNaNcVN\r\nSTUON7Q0P4fQNFKuFzUxPlU1sICqNGd1ajTm2QI1i7CcNE6RhzRis6A0+Hg7Nbaz2zTd5O41Lo6Q\r\nNCC46jRqY4k02LwPNQsD+zQS2kY1DgsZNQCcHDWKMa00NY4gNbBtFDXqiRc1oiMKNXSGhzRgRxs1\r\nsvCONXglnTQaJsk0VZcVNTwSAjVbovE0HAgiNYYOkDWs+Bk1NoTxNOmQHzWwgbI0cTRKNEIM5zRm\r\n0Eo1Lt3NNDT7uTSlUH81fpTdNNbDuDR5QIA1bivBNDg8tDTqSAw1juzKNPjckTXYQus0QHrGNAe/\r\nzjT+Kxk1k1EENS6XETW7x+g0SgvDNLGCvzSIgvk0RU2fNNSwojQOc7k03IPMNCf6ETV8ef00kiUz\r\nNaCP5DSyjgI1NzurNDzYBDVnrxg1wWfANHpDdjTTMLM0SyeuNCZrpDTpSwg1kQXWNKnmtjTd4L00\r\nCjEvNe+3XjWZAko1Ym35NPTQoTRMXRI1/Kv1NNnw+TREn580ApgENQioMTUc6Qw1wGDtNMWVAjX6\r\nRmI1CN1MNL0nqzQdttc0yKQdNbOO9jSg9bU00Ta0NPpG8jRwfn81zM+VNG1DtzQjBjQ133YnNRiY\r\nzzSD58A0vVEGNeQz7TQc+8c0alDxNOYeqTRZjwM1A1X7NKFF9DRfJtM0Vc0BNUYGIjUIksE0MIwp\r\nNYA4xDQyT2E0+rrONBaUKjWcVbs0lgEXNQhoLjVqYfM0QkIHNXxZBjWjN9A04CoHNf4JgzRmC1I1\r\nHvk2NR48nDSMgG00Zf32NNotNDWhucs0OhP6NCbLvjSa08g0UXkUNWHkGjU2b7M0Jjf1NNWAHTX2\r\nAKk0D22rNDpwCjVAdSE1wIe3NKki1DQ7h1c0c56RNM+EHDWeNvs0MQ70NEBr+DSzItM00gbWNHQw\r\nKDULfMQ0x//kNPxv2TTQtDM1WH4UNV82NTXQGQs1zfzkNE4e5zQRzgg1/pbnNGCS0TTOFd40v6/x\r\nNAS1tjRCvqU0IwneNHHchzWWIeA0UM+4NK8f9TRyIZM0h7UINdtvGDWwIMU0f+g7NQZH3jSvXyg1\r\nQFDUNEfN1zTFaJE0vTVhNZhtEzVsOCo1lI2DNKvBcDU7hyA1G3lgNdKy/jT5BOE0W5yZNMVKxTQt\r\nffo0UfUYNfYY1jRmNic1cjOcNHhM3TQltw01y+wGNdUXAzWjaYQ1EAGsNAMnHTXG2Ok0b2sZNdaU\r\nnTTqTu80BYtpNRavBjXpXoY0gY8TNRz6MzTZ+bU0CwEyNeatmjTYpAw1XQ0NNS4fMDUD3N80w5kB\r\nNbZ+wDSHwM80LsdINflVQTXijxU12ckXNexXHTV3aAk1Y0gINRwPEzWrSkk1gEhcNcKckzRnQdM0\r\nylE8NZTlGjWZRXo1mYPiNKOIGDX9VSk1SDywNE/uAjVE05U0/LpeNYJ8uDT+TwI1K57TNKdFFTVQ\r\nmmw1bxHxNNasyjTwQdg0uDi0NKQl/jRwNLM0eBffNHVFvDRC6IA0QxjQNA8uczQLG6o0fGK7NO7j\r\nmzQBYqc0PLzWNLgI9DTcW6Q0a0AZNYg9STUbsVQ1+5sfNVyxoTRchak0ZlS/NIZF8DQC/LA0KHW2\r\nNAKVBzVhPRg1IxGrNNrwCDVtxBU1lnAcNYeauTTwp/s0RXHANLDJwzTVLtw0yWgLNdyaGTVZOe00\r\nJFcoNZ6B7TQG/MU0+DEUNQFt/DRtlSo14IBuNQxXyzRAZsw0OmxvNepc4TQsbOo0BX5pNeLZFjVa\r\nUP00/NC+NDfFxzSk/Jk0Xv9WNFcJFTUkCfs0nPhONWb3szQLn8U07ItQNLGo0DSMwQE17Z/PNNec\r\n0zRaof0076bINOo8GzXNlYU0hEQkNTyH5jT2YwU1rPNDNQ/OwzRUsuM0rNi/NPhc8DQKmUg1hNDu\r\nNFsmCjUDuzw1VasyNef7cjVSnrA0plT5NKXLhzSFNZ00Ed+nNCFdUDUWMQI1JJnbNNcqvjQMb+40\r\nMCZxNWBYzTTT7DQ1EXZRNffmaTV+3a80W4eUNHE8DjXgGu40gRDrNBPuqjTmEDY1ol3ONJbeJTVU\r\n2RE1pL7HNICD5TRWWw816jZdNU5+4zSdEBA1+UiKNPe7OzXoSB81ciQHNY2hujSihSE1Zmy4NC66\r\njjSDV6M0zDuqNH8orDToE6s0mAmlNNh/LDUtZTA1POHGNHfLdzTbIis17ZIdNZocBDVvRKE0QmwB\r\nNYXQijQkWAs1oC2hNA2Z5TSh2c00fEGaNMT8ujTDZ5w0Y1z7NI2ELjWyxiA1AEAcNQ==",
                            "noiseTrainingType" : "default"
                          }
                        }
                    ],
                    "start" : 1367,
                    "duration" : 8,
                    "mediaStart" : 1346,
                    "mediaDuration" : 8,
                    "scalar" : 1,
                    "metadata" : {
                      "WinSubProjectDisplayName" : "",
                      "clipSpeedAttribute" : false
                    },
                    "animationTracks" : {

                    }
                  },
                  {
                    "id" : 353,
                    "_type" : "AMFile",
                    "src" : 15,
                    "trackNumber" : 0,
                    "attributes" : {
                      "ident" : "旁白_vis2021 1",
                      "sampleRate" : 44100,
                      "bitDepth" : 16,
                      "gain" : 1.0,
                      "mixToMono" : false
                    },
                      "channelNumber" : "0,1",
                    "effects" : [
                        {
                          "effectName" : "NoiseReduction",
                          "parameters" : {
                            "denoiserAmount" : 20.0,
                            "denoiserThreshold" : 0.0,
                            "noiseProfile" : "OWoAPH2pEz2x9Qw+d6HTPcva6j2sp089E2dtPD6vPDwfl1A8ScjwPJTr1Txy35g8LaEAPTpegDyh\r\n+807XKYVO6TEeztxHEg8k5enPOCDljxR1SA80RNNO5P/FTsAUsA78qcaO7cppTsc2vE7qgSrO6lQ\r\n2jukqvI7h92AO2yWGzx+tZU8JitaPFzIyTuXwYE7uY9XO8aQ0Dvqq2I88amYPMnb9DtB2j87KTBk\r\nOzy52zoRSDw7OCjBO9xi/DtxwE88KlbqO3j0qDtWJH47VJnsO9JoxDuANhs8tJ+AO6Qz9Tth+oI8\r\nbGt3O1T1Nzzjhew74A0cPJAvITwici89BseWPGFNtDxkw7o7MRvlOmld0jryf386QXGZOrHMrzuA\r\ngR46FrCVOsPpWDsY4v07HUbYO1nLPjsw9w47wr3FOrnZ+Drc3FY7lUkJO7DAJDv2mAY7Bol9O6Gv\r\nIjui8ek64NliOq5vmTrG/ZM6bCYbO5q5tzpF2YA69unhOXdvJDkMXx461iVVOpU6tTmIPdU5NZ4C\r\nOrLzrDlzv6053gyzOSasszlLTgc5O7atOcYrxzkKtYw6r9cjOpoinjlRRog6Q9QHOqLsbTo5k0E6\r\n9U47OqgHGzq2DIw6xrvIOkIITzrGgR86I/hwOsTOFzq0IQU6isQ5OkIP9DmC+Bw6hsx0OYy4pDnt\r\nMqk5f6afOfFKnDnqIvc5SsRQOpXvdDp8CiE703psOwEALztW+4A6r36ROtKuGDoo4s852RrZOQKM\r\nhDmkgtY4CBe5OXJ5jDnBcjY5RM9jObGZ+DmyHG05aluSOaagETnIyGM5Jt2dOdUxnTmBHwU6PPyu\r\nOQ2PETl6x7k5tcInOtV63TnmcCY6dHftOUWtBzoIt6w5qk+GOf1mbTk4DT454wsLOh2HAjoY+ZY5\r\nyr2VOQQurzmqnRg5LDMFOZLQUjkvV1Q5/g1+OSlxFzlITz85XmAkOdDG/DjiIfM4htxWOREUlTqh\r\nwcw5VnaGOWCBXjn90lA5cKzvOWPrqzkL/o45sEFOOTkyMDpUc5s51oo9ORByjjlGCco52p/tORKy\r\n8Tnit2E51lY0Ofo+ATq6o3Y5Z021OYTVGDlRAq45zuyhOeA4ZDk52eE5nw91ORI2OzlB2R85fgab\r\nOY8bMjkQ1TA5cCaFOXju/Dh2ghM59YD8OFHmfzmnKiQ58YpfOXsbtzlCtX45yEWKOLGkLDkayH45\r\nRUrSOSltyTgvk1U5NT2NOY45EjnfihY5JFlqOTokTjlSlV45Ir54OQ1W5jifjjI5bWS5OfA8NDkO\r\nXs44QhjgOLbnOjkr+iw5hK5/Ocz3Azl6HF45q6DlOIJb2DiR79I4esU3OWtGjDg4gBM5cVloOdzR\r\nDTlkchs5GGg7OVSTtziXOeg4XazEOCiMADmz6Tw5ueqOOVcmeTmS4Ms4nI0UOUTLnjhAXjc56pkE\r\nOdXdBznEOY85PIy4OMxI5zgkSxk5r6oQObvARTnCtUo4LoVEONjrVjnfUsw4msCWOCWAQjlc/y45\r\nJ4KtOCzJrjjGJZ84BKXjOIHj2jhi+yE5rqqOOdCIIzm9fIM56Oo3OUSjtzmiT/M4Wiv3OJw6ETmO\r\nS8w53FJpOdbu1DiJSZs4DaoFOWqKWDkkyvU4GPIdOchJLDmxKwA54MMWOVgzmjgl75M44OcEOVPH\r\n3Dhmzdw4X9sOOb2CyTguC7Y4VgEmOTaQxDjBUAQ5dAM9OarFHjmfj444qMgAOWZMDDmSlas4yUZQ\r\nOaDeMTmPogU5Wxe1OF0m3Dh6aDQ5tbkIObjoEzlqqg45EPLvOKyF+zhUmiE57MvFOPg/vDiW+Vo5\r\nmhyzOGFsBTldBEw4dL3pOOk/QDnXnJQ467sNONFyxDfGPDM3rTsZN+BixjZrWTk338GlNhf/FTe5\r\nNTk2RTSUNkMj3Taj0d02is2UNt0UDDYUXvI1aeXFNhijMjbAtYc2ikWgNuphZDY8D1I28gSnNv4k\r\nLTZRYDk2mtYGN70P5DaWBKc2RzXfNlQFKTeHIYk2IpjaNofVszbqlaM2PatTNiKTzDYjx6M2BMHZ\r\nNiXEdDbJOMs2FNCMNsnGRja2BpI2UsiGNvm1vzbR74Q2wLCoNnn3jDa4fK82VqGlNrSAsTYwh5o2\r\n00guNguj5DYiuZI2yg0BN6PItzbTY6w2VXFINoLcTDbWIk82WJ/cNvx6HDZGdqc2ta/1NVwQMDaG\r\n9VE24mqONlq9rDaNiSE2Lay+NpqbcTYGZ3Q2KPqfNicegDbQyZw27RAtNyQhVjazoMU2izz9Npf0\r\njzbhrAg2zKY4Njo2yjZ1hZE2WNZsNrbfvDZiyp42KRFjNr96jjbjaI02RTYRNmwjhzapnyI2B4XY\r\nNltT7jUOLSY20oDqNhJrxDaCZWw2Ct+VNg/LgjZZzMA2Ik1JNrzQuDZxy901azNqNvW2eDaUuVs2\r\ngu+KNta85ja8P/M1FmShNp/ipjb1OIE21Q/2Nr5JmzYXtZU2x6+qNk6LmTZnjYw2mIJGNul2Jjbc\r\nO3A2lquYNuovLTYtgfE1nUlUNgQzNzaIsDM2DIvUNjKBRja+0oY2ExJ5NgPdJzZaSLQ2EtYgN0Wc\r\nDDbIHow2IiiZNgZUVTa1JnM2v3wcNoN3YDYCtgE38JaENkzoaDb0JTc26/WJNoqw9jYFxFI29vNP\r\nNmdCvDZHFIU2xxObNr0sUTblHoc2JrM/NmrbFDYX93o2m4OpNgs6HDaFNl02Rb2TNpjkJjYAADk2\r\n/8chNn7/QTawezM30gsqNidJ8zWKfC02kBYuNmSnnTa80FY2mFN3NkYZWzY4aO41UHmKNkyZiDYh\r\nGC42h1Y6Np6cgzYSij81AnuaNnc6rzZUXG82vp9eNp4h/jWNsEY2k603NuKSjDbHWSo2RxYINlNS\r\nmTaAOlU2yvJmNkqftzZ5VEk26hV8NjWLezbKM9Y1ernFNWi/XDZaEHQ2dhvANhDaRjYMwy82EwC4\r\nNlCNVTbH4IU2Cx1LNk6XlDbcVNA2FB33NQHMjzY6eW02jpZONqrdMTa+lxk267lUNkhoNDZz+TQ3\r\nwulaNoXxEjYQdsQ2lXEcNsiYOjbfz9o2UzpENvQL0TSOQIM10f8gNcLzLzX5w2c1H4efNN2VyTQO\r\nn70011tKNT7aKTUG8/w0QEgiNUCRKjWhXKI03LYLNQzSrjUnb9E0iB65NCpfLzVs4tk0emppNQtw\r\n8zTy2+U0USoLNeRnDTU88Uc19BfdNFPdNDVtA7Q09QQJNdJhKTXqRNg0am3RNG251DQ1KrA0Oj/Y\r\nNOrxkjTQ8cI0+3eXNEYitDR9exs1YvMdNUBR5DR0pQE1EGj5NAq8KTXmxKs0ErgPNTXAAjVM71g1\r\n2McYNch2PjVA3vs0HZGgNJEIOTWY3M40B5RGNGfgUDUIWUw1AAKQNPuJvjRnt4w0M0qUNPpcxjR3\r\nCM0000dJNZjtnTSx6rQ09gISNSzUKjVHscM0TBtXNYWZEDWjpck07HS+NMuEnzTVZ0U1duMGNWCg\r\n6jTs3880YBEXNT+XujRa3bk0wUISNadMADU5AQ411F8ONePs/jS0pjA105FENQ/HnjQmcwg1WPKH\r\nNFq2nTSuOLI0S9MpNbyI/zTAPso0+sXPNPLB3DTur8o0PLbHNPmbnzT+MvY0YjqvNCUXJTXMJp80\r\nndUPNWmVEjXazkY1O5DgNMl4gzVmyAY1rYEfNXmSQTWIrhU1ikoVNSCqpDTaEbY0/AvpNLIwhDSh\r\nIww1MCwENb5Y/zSUBhw1UowYNbXtpzTvlg4155xcNZhCrDRWs9U0k616NIzznjRmnAQ1Khq/NEm9\r\nCTUki940fgEVNZA1JzWkzqg0RtjuNI+WjTW0QRg1omMcNXzDIDUDHKI0NVu3NMMpRDVCjIo0ViIs\r\nNfxAITWCVB81HXTcNB0NXDWG+bE03vcdNf6QMzXAn8s0Eg/NNATJsTQE9U01LMELNX7DoDSIEB41\r\nwLEGNUVbzTQ8Pwo1QFCINBFgFTVn0vo0JOCjNNaR8zQ1vx41DXUDNak+EjUNQYo08gC7NFzPoTSI\r\n7RU1kpUbNYXvKzWOx240VWf0NGRuBzU6PIo0wlCGNT7g9jSWZjw1Ml4BNRvl6jTQR3w1lmHdNGfd\r\nITTobvU0ypuvNEpF+jTjNY40JYO7NCfBbzQijsA0us84Na6J8TQIYwU1V3IrNSwmYTXQ1kU0zKTc\r\nNDTVfzTj6to0SbOuNHwCvTQ/eR01mcuPNPTduTRDjf806a+nNAj20DREKOo0nPlPNQTe+zQNWSo1\r\nlpGmNBv9xzT/tzk1CtkQNapg2jSMQlI1MDUTNRhOMjWh56Q0AygANa8srzRbOwQ187XxNOQlwDSQ\r\nNO80mTAVNaBD6TQbeoo0UM6FNHPMCjV4t7k0gIxkNE02BjXYBQo1AhAcNWJMijS64uA0zd0JNXWm\r\nEDWiijY1ZpSXNNpWpzTYT+k0QHbzNDaorzSGDHs0qT7ONBvuhzSyYys1dPYCNQdToDTk8uU0MwYH\r\nNWYw+TRbj4g1aJxzNHlxCDVIE8c0Nl2SNOyilTRoqUs1KtMvNbhJPjVmcCE12eGANQ1X8jSNKZo0\r\ndGHdNGrcDjXxZ0A0JhPPNJb14jSwx8o0morUNDmP2DTubH40SSbdNE1r7TRT3rk0EZGLNP35LjV1\r\n1640P7XhNLEsczQldYc02X7eNAZ67jSawbI0drgeNb6GtzSMN9U00j4cNQhrBzWSqgw14dAnNYUF\r\nnDTQSpg0P9OMNOHDLTULMsI0QH6VNI2nxDSl5Yc0WHyLNCaeLDXnc6Y0AaCFNBQP7TTJzR41kvoE\r\nNRykHjU6wZw0+cjVNJdR1TSiQQU10AuONaiUkzUExgY1MMYONaRkZTT9EAU11Bu0NC2j3jTIM4A0\r\nal8cNSoRTzXbrSk1FTDYNEBqkjTgDwA1sun9NP5ztDRWob80HSSSNGYkGDWnkuM0RaMANeGLITXo\r\nTow0GNvbNJlRuzSgsOY0CpP5NMVL9jRRErs0aS1TNVNWgDSmPp80Gvy3NBnwGDXWr7M0dB/VNIw8\r\n0DQBkZ410iF5NDXYLTVZSxU1T0S6NHIrqTRzbRA1XDWKNA2phjRVwpo0SPJ1NGzsODX8K6Y0ne6l\r\nNNU3JjWsl7M0wb+kNKhE5TQUaN8041HRNPhNtTRpfuQ09awXNcwLtDS6nqA0qbk4Nbg8qTQ3pSA0\r\nkRS8NLXO0DRqdcQ0b//eNLPvrDQGQu00fPstNS/HMTWPJMc0fIrENBIciDSLv/k00iuaNNjgPDWm\r\not00DFkCNfHQhDTO4qY0xTYDNbDSOTWNTjA1dLcPNZB1uzQDUrY08mkFNZaNRjXzzK00ErsDNVeQ\r\n3zS5HxA1pmTINLQDBTWIxP008Ny+NADrGDWeipI0eMHvM5R6CTWA3x01wRO2NE0PBDXZKrU0GFyV\r\nNOCJrzSgxtE0tQR+NKJP0zTmcMA0zgvvNFJN7TT5eA41x/eHNAie2jTBXoU1JbdYNQAAEDUAZAE8\r\nF6YTPaE6DT5EKNM9dQ3rPVEOUD0ioW480q89PCfdUDzbEfI8OKDUPGwsmDxHYgE9amiBPGR1zjsP\r\nPhU7a3x7OyhGRzygj6g8mBGWPCuBIDwy9E47Dr4TO1iRvDsOzBo7Kk6nOyjG8juQWao70ZvWOxbH\r\n8zuU8n07aPEbPGxKlzygoVs8TMfIO9+xhDsybFY7q+rTO/L8YTx2ZJg8LVf1O0mYPjuCWmQ7fLXf\r\nOt2APzt7zMI7O4D+Ox50Tzw8t+w7lE+pOzStezsIHeo7gHbGO/xxGTz7XIA7vAj1O108gzyol3g7\r\ntww5PFZa6zv7yxw8BjMgPKnvLj13cpY8hhS0PDysuTskGOc6fsrQOrACgDqdYpQ6nrawO0mtIzpq\r\niZQ6oWVXO4pL/Dsyi9U7isI/O5AADzuqPMM6Xcz3OuCjVjsJJAU70nAkO3xeCzuPI4E7G4YiO1p8\r\n7jrINmQ6RKiWOkNYjzquKxk7L5jEOkefiTpiBN05wkIqOcZGDTp6g046RrOpOQ6EwjmtPgQ6e2Gc\r\nOSSjpDlo8ZU55XS9ObmuBzlz4785N8m2OWCrjzo4vB06uHOTOSQohDrAdAk6ttpzOqV9QjpzGTY6\r\n3XEaOsgBjjqKt8k6HvZMOicoGjocq2w6ap4WOhHEADrfCzk63skBOgeJHDrUTnI5YkuiObHDpjmu\r\nSKM5/cCSOf1k+zmMGlI6inluOu+YIDu89m07RVI0O6+Kgzr+5446GKYWOsGMzDkpPtU5IguVOWYu\r\n0Thu2rs5wj2KOYr0Szln8mE5OIzqOdZKbDmJnpY5zvoYORbfcjmJJb45rPudOReeBTpaM7A5gOEv\r\nOfU4rjmBKBo6bN3fOQHYIDpCxO45IMMKOhDuqjnu5385nKuKOcsUJTnO6QY6IssJOqWwlTkE/nk5\r\n982pOYJKFzlMEgc5kM8qOTzQSjkjjFw5oLMhOb3XTTlwQiA5qwrfOFyxBDkkj0w5MGaVOpPkyzkA\r\nWYw5x/dWOdTGaDnThQM6cUq4OS/ykTn8pTU5cg8tOjmUnzmJETc5yAicOQHqsTm7VQY6AgbzOcxp\r\nYTnUlDk5COb3OVNucjnJjtA5lvYsOVSTlDlbCZA5jieCOevY/jld/5M5ZAsQOQCjIjmaXZk5X2sk\r\nOaKvQDn3w2A5sFLsOCInSDnjTPU4Pw52ORiOFTnxB085aOe5Oeymfzkdh5Q4b9kUOTcjiDlltOQ5\r\nW97hOK93TDk6TJo5GxUROfmZKDmqWVg5gnArOZiUUTljp2g5VN4COa51OjmCG6857I8hOQJUyDiy\r\nFeY4PzlIOQnaEjkNa105LJgJOedSTTmft9w4RFvhOEMPBjkBNUc5IxKaOKB0AzlHK0Y5uzfsOA7s\r\nCTnIO1A5K33WOKFk2jjp16849C8QOWZpPTn28K85JD91Ocr4pTiAdCY50TmeOH4OPTl/1vM4rUTC\r\nOKr9azkWMbo4F7ngOLhyVDn8tgw5pjZnOXrXVTgwxCo4OQx/OXmv4TiOkZs4EjRhOc/BKzm9HJg4\r\nmNmEOBptqTgOwN44isnuOMjHEDkVGqA5ZsgfOcwJgTn/qS85F5G9OSUi8Th4/wU58kwEOcGM0znk\r\nW1o5KBbSOPxmrjgoieg4mOJqOacY5jhwBhY5iXUjOeCfAjn89RI53mOTOE5nnDgXwQo59x/YOLsN\r\nvzisAgg5ZZXBONJSyTg4ChA5g0OvOOLhCzk2PkQ5yZUgOf1/lTgIavM4G5cEObRwszj5plM54Ngg\r\nOTpfCjmgXsE4/c7tOPbIHjng2QM52pkWOVEIBjnWdfE44lgEOVkCJTm3Js04paCwOJruaDnED7c4\r\nlngHOd1wSThLgdw4+MM6OWkNiTjQTig4ZOnTNxI6RTeeDew2cZ29Nv7NAjclhNM2iMnzNsyKczZM\r\nTqE2NwIANyN0CjdyN5Q2WgazNq/6RTZdvu82CgJ2NnBTbzZ2Y8g2nCmlNornMTbyM/U2XdYuNnYx\r\nDDZETwI3eL+nNkEyGTdWc042Yb0WNzGqlDaNeNI2vHqNNkA4sDYmdYE2+cmANhHYVzaKnIs2sgCG\r\nNgmRtTZMoZo22v10NnRMhzYJ96I2OKTLNuYomzb9GYQ2aZ4gNg34YTYuHZo2W3zKNg54fjYZjkw2\r\nf2wUN3Od0TYrN5w2qv+fNtmNlTawHlI20q1xNtWcgzbalsQ2aqh0NqiRqzZJr+Y1tKkfNvwthjbs\r\njso2aMOjNjtLWzaqzNg2QuVVNvmDcTZsOcU2ODthNmCKmjZkwsw2JO2RNrvV7zZ/j5g2X3SCNuWv\r\njDatdLA22aTFNuHopjZGQ1k280BwNm9ZdzZuF3o2uV16NukrgjZ0cmI2oP0yNtheUDbrCZM2IZD3\r\nNcjiiDbmV9M2x6S6NnU/pzZADwg2huV1NusKwzZOBTQ2+FGNNgbaCjZtFJo2oEWzNnsKijZWeO02\r\nGtuJNu8IdjY49Yg2Mr2ANg3ZzjZiM+s2PSKeNoMphDa/F582hoJcNt0QxjZWOKM2KJ8XNqxVQjbY\r\ngaI2GZ6aNs0bpTU+g5g2tEowNtIkZDYOlas2ZR1xNtIkgzZRo4A2kxo0Nq+R7DZCmS43Jnh6NgQS\r\nbDb4RYg2lNw9NuvPkzYiw3I2yo89NhID7TYcIIw26OkjNrMkKzbG26s2fgyyNkykhTarGu41ZVyZ\r\nNs59hja4/3g2DVwlNg8S/DWud6U2N9IvNgCXSjbgmnM2uSBPNn7iXza+E8Q2IrczNgAgGTbUpLw1\r\nmKpzNoJSGzdiAoM2ZpDFNfrlFDY4tAI2RI+mNgX6UTb+VoU2addaNhrNCTZZFHA2uMncNXzMSzbJ\r\nKYk2chpoNlUqsTVQL942eABrNmzNjTZ3X0o2gnWBNn72gTZLTEE2lwQzNgfuCjaKZ0A2Cn+pNqDa\r\nNzbbTXE2Jn7UNu4UKDZVMoQ2j46fNsCxMzbOjB026lnINRYmezYubI02j29ONiv6jzYkvQU24bo/\r\nNlRyPzacL0c24hOWNpYhiDbn4/U1XMKXNjdHgzYwUO01kmwQNsrkGjZWzx02IdkDNtNSCTdR2VE2\r\nthtfNuRpyzaptiM2tEQ0Nkz1XDaF2zA2q9VKNcwlKDW1Wt007vuJNFq4yzRjGzI175BhNbYW/jTC\r\n50I1fp2dNJ2JFzXcfBY1j6wVNck7ADXKUgk1IqzANOh0JjVVrrw0Msw2NZKFGTUaPUI1fBNaNcVN\r\nSTUON7Q0P4fQNFKuFzUxPlU1sICqNGd1ajTm2QI1i7CcNE6RhzRis6A0+Hg7Nbaz2zTd5O41Lo6Q\r\nNCC46jRqY4k02LwPNQsD+zQS2kY1DgsZNQCcHDWKMa00NY4gNbBtFDXqiRc1oiMKNXSGhzRgRxs1\r\nsvCONXglnTQaJsk0VZcVNTwSAjVbovE0HAgiNYYOkDWs+Bk1NoTxNOmQHzWwgbI0cTRKNEIM5zRm\r\n0Eo1Lt3NNDT7uTSlUH81fpTdNNbDuDR5QIA1bivBNDg8tDTqSAw1juzKNPjckTXYQus0QHrGNAe/\r\nzjT+Kxk1k1EENS6XETW7x+g0SgvDNLGCvzSIgvk0RU2fNNSwojQOc7k03IPMNCf6ETV8ef00kiUz\r\nNaCP5DSyjgI1NzurNDzYBDVnrxg1wWfANHpDdjTTMLM0SyeuNCZrpDTpSwg1kQXWNKnmtjTd4L00\r\nCjEvNe+3XjWZAko1Ym35NPTQoTRMXRI1/Kv1NNnw+TREn580ApgENQioMTUc6Qw1wGDtNMWVAjX6\r\nRmI1CN1MNL0nqzQdttc0yKQdNbOO9jSg9bU00Ta0NPpG8jRwfn81zM+VNG1DtzQjBjQ133YnNRiY\r\nzzSD58A0vVEGNeQz7TQc+8c0alDxNOYeqTRZjwM1A1X7NKFF9DRfJtM0Vc0BNUYGIjUIksE0MIwp\r\nNYA4xDQyT2E0+rrONBaUKjWcVbs0lgEXNQhoLjVqYfM0QkIHNXxZBjWjN9A04CoHNf4JgzRmC1I1\r\nHvk2NR48nDSMgG00Zf32NNotNDWhucs0OhP6NCbLvjSa08g0UXkUNWHkGjU2b7M0Jjf1NNWAHTX2\r\nAKk0D22rNDpwCjVAdSE1wIe3NKki1DQ7h1c0c56RNM+EHDWeNvs0MQ70NEBr+DSzItM00gbWNHQw\r\nKDULfMQ0x//kNPxv2TTQtDM1WH4UNV82NTXQGQs1zfzkNE4e5zQRzgg1/pbnNGCS0TTOFd40v6/x\r\nNAS1tjRCvqU0IwneNHHchzWWIeA0UM+4NK8f9TRyIZM0h7UINdtvGDWwIMU0f+g7NQZH3jSvXyg1\r\nQFDUNEfN1zTFaJE0vTVhNZhtEzVsOCo1lI2DNKvBcDU7hyA1G3lgNdKy/jT5BOE0W5yZNMVKxTQt\r\nffo0UfUYNfYY1jRmNic1cjOcNHhM3TQltw01y+wGNdUXAzWjaYQ1EAGsNAMnHTXG2Ok0b2sZNdaU\r\nnTTqTu80BYtpNRavBjXpXoY0gY8TNRz6MzTZ+bU0CwEyNeatmjTYpAw1XQ0NNS4fMDUD3N80w5kB\r\nNbZ+wDSHwM80LsdINflVQTXijxU12ckXNexXHTV3aAk1Y0gINRwPEzWrSkk1gEhcNcKckzRnQdM0\r\nylE8NZTlGjWZRXo1mYPiNKOIGDX9VSk1SDywNE/uAjVE05U0/LpeNYJ8uDT+TwI1K57TNKdFFTVQ\r\nmmw1bxHxNNasyjTwQdg0uDi0NKQl/jRwNLM0eBffNHVFvDRC6IA0QxjQNA8uczQLG6o0fGK7NO7j\r\nmzQBYqc0PLzWNLgI9DTcW6Q0a0AZNYg9STUbsVQ1+5sfNVyxoTRchak0ZlS/NIZF8DQC/LA0KHW2\r\nNAKVBzVhPRg1IxGrNNrwCDVtxBU1lnAcNYeauTTwp/s0RXHANLDJwzTVLtw0yWgLNdyaGTVZOe00\r\nJFcoNZ6B7TQG/MU0+DEUNQFt/DRtlSo14IBuNQxXyzRAZsw0OmxvNepc4TQsbOo0BX5pNeLZFjVa\r\nUP00/NC+NDfFxzSk/Jk0Xv9WNFcJFTUkCfs0nPhONWb3szQLn8U07ItQNLGo0DSMwQE17Z/PNNec\r\n0zRaof0076bINOo8GzXNlYU0hEQkNTyH5jT2YwU1rPNDNQ/OwzRUsuM0rNi/NPhc8DQKmUg1hNDu\r\nNFsmCjUDuzw1VasyNef7cjVSnrA0plT5NKXLhzSFNZ00Ed+nNCFdUDUWMQI1JJnbNNcqvjQMb+40\r\nMCZxNWBYzTTT7DQ1EXZRNffmaTV+3a80W4eUNHE8DjXgGu40gRDrNBPuqjTmEDY1ol3ONJbeJTVU\r\n2RE1pL7HNICD5TRWWw816jZdNU5+4zSdEBA1+UiKNPe7OzXoSB81ciQHNY2hujSihSE1Zmy4NC66\r\njjSDV6M0zDuqNH8orDToE6s0mAmlNNh/LDUtZTA1POHGNHfLdzTbIis17ZIdNZocBDVvRKE0QmwB\r\nNYXQijQkWAs1oC2hNA2Z5TSh2c00fEGaNMT8ujTDZ5w0Y1z7NI2ELjWyxiA1AEAcNQ==",
                            "noiseTrainingType" : "default"
                          }
                        }
                    ],
                    "start" : 1375,
                    "duration" : 26,
                    "mediaStart" : 1354,
                    "mediaDuration" : 27,
                    "scalar" : "26/27",
                    "metadata" : {
                      "WinSubProjectDisplayName" : "",
                      "clipSpeedAttribute" : true
                    },
                    "animationTracks" : {

                    }
                  },
                  {
                    "id" : 354,
                    "_type" : "AMFile",
                    "src" : 15,
                    "trackNumber" : 0,
                    "attributes" : {
                      "ident" : "旁白_vis2021 1",
                      "sampleRate" : 44100,
                      "bitDepth" : 16,
                      "gain" : 1.0,
                      "mixToMono" : false
                    },
                      "channelNumber" : "0,1",
                    "effects" : [
                        {
                          "effectName" : "NoiseReduction",
                          "parameters" : {
                            "denoiserAmount" : 20.0,
                            "denoiserThreshold" : 0.0,
                            "noiseProfile" : "OWoAPH2pEz2x9Qw+d6HTPcva6j2sp089E2dtPD6vPDwfl1A8ScjwPJTr1Txy35g8LaEAPTpegDyh\r\n+807XKYVO6TEeztxHEg8k5enPOCDljxR1SA80RNNO5P/FTsAUsA78qcaO7cppTsc2vE7qgSrO6lQ\r\n2jukqvI7h92AO2yWGzx+tZU8JitaPFzIyTuXwYE7uY9XO8aQ0Dvqq2I88amYPMnb9DtB2j87KTBk\r\nOzy52zoRSDw7OCjBO9xi/DtxwE88KlbqO3j0qDtWJH47VJnsO9JoxDuANhs8tJ+AO6Qz9Tth+oI8\r\nbGt3O1T1Nzzjhew74A0cPJAvITwici89BseWPGFNtDxkw7o7MRvlOmld0jryf386QXGZOrHMrzuA\r\ngR46FrCVOsPpWDsY4v07HUbYO1nLPjsw9w47wr3FOrnZ+Drc3FY7lUkJO7DAJDv2mAY7Bol9O6Gv\r\nIjui8ek64NliOq5vmTrG/ZM6bCYbO5q5tzpF2YA69unhOXdvJDkMXx461iVVOpU6tTmIPdU5NZ4C\r\nOrLzrDlzv6053gyzOSasszlLTgc5O7atOcYrxzkKtYw6r9cjOpoinjlRRog6Q9QHOqLsbTo5k0E6\r\n9U47OqgHGzq2DIw6xrvIOkIITzrGgR86I/hwOsTOFzq0IQU6isQ5OkIP9DmC+Bw6hsx0OYy4pDnt\r\nMqk5f6afOfFKnDnqIvc5SsRQOpXvdDp8CiE703psOwEALztW+4A6r36ROtKuGDoo4s852RrZOQKM\r\nhDmkgtY4CBe5OXJ5jDnBcjY5RM9jObGZ+DmyHG05aluSOaagETnIyGM5Jt2dOdUxnTmBHwU6PPyu\r\nOQ2PETl6x7k5tcInOtV63TnmcCY6dHftOUWtBzoIt6w5qk+GOf1mbTk4DT454wsLOh2HAjoY+ZY5\r\nyr2VOQQurzmqnRg5LDMFOZLQUjkvV1Q5/g1+OSlxFzlITz85XmAkOdDG/DjiIfM4htxWOREUlTqh\r\nwcw5VnaGOWCBXjn90lA5cKzvOWPrqzkL/o45sEFOOTkyMDpUc5s51oo9ORByjjlGCco52p/tORKy\r\n8Tnit2E51lY0Ofo+ATq6o3Y5Z021OYTVGDlRAq45zuyhOeA4ZDk52eE5nw91ORI2OzlB2R85fgab\r\nOY8bMjkQ1TA5cCaFOXju/Dh2ghM59YD8OFHmfzmnKiQ58YpfOXsbtzlCtX45yEWKOLGkLDkayH45\r\nRUrSOSltyTgvk1U5NT2NOY45EjnfihY5JFlqOTokTjlSlV45Ir54OQ1W5jifjjI5bWS5OfA8NDkO\r\nXs44QhjgOLbnOjkr+iw5hK5/Ocz3Azl6HF45q6DlOIJb2DiR79I4esU3OWtGjDg4gBM5cVloOdzR\r\nDTlkchs5GGg7OVSTtziXOeg4XazEOCiMADmz6Tw5ueqOOVcmeTmS4Ms4nI0UOUTLnjhAXjc56pkE\r\nOdXdBznEOY85PIy4OMxI5zgkSxk5r6oQObvARTnCtUo4LoVEONjrVjnfUsw4msCWOCWAQjlc/y45\r\nJ4KtOCzJrjjGJZ84BKXjOIHj2jhi+yE5rqqOOdCIIzm9fIM56Oo3OUSjtzmiT/M4Wiv3OJw6ETmO\r\nS8w53FJpOdbu1DiJSZs4DaoFOWqKWDkkyvU4GPIdOchJLDmxKwA54MMWOVgzmjgl75M44OcEOVPH\r\n3Dhmzdw4X9sOOb2CyTguC7Y4VgEmOTaQxDjBUAQ5dAM9OarFHjmfj444qMgAOWZMDDmSlas4yUZQ\r\nOaDeMTmPogU5Wxe1OF0m3Dh6aDQ5tbkIObjoEzlqqg45EPLvOKyF+zhUmiE57MvFOPg/vDiW+Vo5\r\nmhyzOGFsBTldBEw4dL3pOOk/QDnXnJQ467sNONFyxDfGPDM3rTsZN+BixjZrWTk338GlNhf/FTe5\r\nNTk2RTSUNkMj3Taj0d02is2UNt0UDDYUXvI1aeXFNhijMjbAtYc2ikWgNuphZDY8D1I28gSnNv4k\r\nLTZRYDk2mtYGN70P5DaWBKc2RzXfNlQFKTeHIYk2IpjaNofVszbqlaM2PatTNiKTzDYjx6M2BMHZ\r\nNiXEdDbJOMs2FNCMNsnGRja2BpI2UsiGNvm1vzbR74Q2wLCoNnn3jDa4fK82VqGlNrSAsTYwh5o2\r\n00guNguj5DYiuZI2yg0BN6PItzbTY6w2VXFINoLcTDbWIk82WJ/cNvx6HDZGdqc2ta/1NVwQMDaG\r\n9VE24mqONlq9rDaNiSE2Lay+NpqbcTYGZ3Q2KPqfNicegDbQyZw27RAtNyQhVjazoMU2izz9Npf0\r\njzbhrAg2zKY4Njo2yjZ1hZE2WNZsNrbfvDZiyp42KRFjNr96jjbjaI02RTYRNmwjhzapnyI2B4XY\r\nNltT7jUOLSY20oDqNhJrxDaCZWw2Ct+VNg/LgjZZzMA2Ik1JNrzQuDZxy901azNqNvW2eDaUuVs2\r\ngu+KNta85ja8P/M1FmShNp/ipjb1OIE21Q/2Nr5JmzYXtZU2x6+qNk6LmTZnjYw2mIJGNul2Jjbc\r\nO3A2lquYNuovLTYtgfE1nUlUNgQzNzaIsDM2DIvUNjKBRja+0oY2ExJ5NgPdJzZaSLQ2EtYgN0Wc\r\nDDbIHow2IiiZNgZUVTa1JnM2v3wcNoN3YDYCtgE38JaENkzoaDb0JTc26/WJNoqw9jYFxFI29vNP\r\nNmdCvDZHFIU2xxObNr0sUTblHoc2JrM/NmrbFDYX93o2m4OpNgs6HDaFNl02Rb2TNpjkJjYAADk2\r\n/8chNn7/QTawezM30gsqNidJ8zWKfC02kBYuNmSnnTa80FY2mFN3NkYZWzY4aO41UHmKNkyZiDYh\r\nGC42h1Y6Np6cgzYSij81AnuaNnc6rzZUXG82vp9eNp4h/jWNsEY2k603NuKSjDbHWSo2RxYINlNS\r\nmTaAOlU2yvJmNkqftzZ5VEk26hV8NjWLezbKM9Y1ernFNWi/XDZaEHQ2dhvANhDaRjYMwy82EwC4\r\nNlCNVTbH4IU2Cx1LNk6XlDbcVNA2FB33NQHMjzY6eW02jpZONqrdMTa+lxk267lUNkhoNDZz+TQ3\r\nwulaNoXxEjYQdsQ2lXEcNsiYOjbfz9o2UzpENvQL0TSOQIM10f8gNcLzLzX5w2c1H4efNN2VyTQO\r\nn70011tKNT7aKTUG8/w0QEgiNUCRKjWhXKI03LYLNQzSrjUnb9E0iB65NCpfLzVs4tk0emppNQtw\r\n8zTy2+U0USoLNeRnDTU88Uc19BfdNFPdNDVtA7Q09QQJNdJhKTXqRNg0am3RNG251DQ1KrA0Oj/Y\r\nNOrxkjTQ8cI0+3eXNEYitDR9exs1YvMdNUBR5DR0pQE1EGj5NAq8KTXmxKs0ErgPNTXAAjVM71g1\r\n2McYNch2PjVA3vs0HZGgNJEIOTWY3M40B5RGNGfgUDUIWUw1AAKQNPuJvjRnt4w0M0qUNPpcxjR3\r\nCM0000dJNZjtnTSx6rQ09gISNSzUKjVHscM0TBtXNYWZEDWjpck07HS+NMuEnzTVZ0U1duMGNWCg\r\n6jTs3880YBEXNT+XujRa3bk0wUISNadMADU5AQ411F8ONePs/jS0pjA105FENQ/HnjQmcwg1WPKH\r\nNFq2nTSuOLI0S9MpNbyI/zTAPso0+sXPNPLB3DTur8o0PLbHNPmbnzT+MvY0YjqvNCUXJTXMJp80\r\nndUPNWmVEjXazkY1O5DgNMl4gzVmyAY1rYEfNXmSQTWIrhU1ikoVNSCqpDTaEbY0/AvpNLIwhDSh\r\nIww1MCwENb5Y/zSUBhw1UowYNbXtpzTvlg4155xcNZhCrDRWs9U0k616NIzznjRmnAQ1Khq/NEm9\r\nCTUki940fgEVNZA1JzWkzqg0RtjuNI+WjTW0QRg1omMcNXzDIDUDHKI0NVu3NMMpRDVCjIo0ViIs\r\nNfxAITWCVB81HXTcNB0NXDWG+bE03vcdNf6QMzXAn8s0Eg/NNATJsTQE9U01LMELNX7DoDSIEB41\r\nwLEGNUVbzTQ8Pwo1QFCINBFgFTVn0vo0JOCjNNaR8zQ1vx41DXUDNak+EjUNQYo08gC7NFzPoTSI\r\n7RU1kpUbNYXvKzWOx240VWf0NGRuBzU6PIo0wlCGNT7g9jSWZjw1Ml4BNRvl6jTQR3w1lmHdNGfd\r\nITTobvU0ypuvNEpF+jTjNY40JYO7NCfBbzQijsA0us84Na6J8TQIYwU1V3IrNSwmYTXQ1kU0zKTc\r\nNDTVfzTj6to0SbOuNHwCvTQ/eR01mcuPNPTduTRDjf806a+nNAj20DREKOo0nPlPNQTe+zQNWSo1\r\nlpGmNBv9xzT/tzk1CtkQNapg2jSMQlI1MDUTNRhOMjWh56Q0AygANa8srzRbOwQ187XxNOQlwDSQ\r\nNO80mTAVNaBD6TQbeoo0UM6FNHPMCjV4t7k0gIxkNE02BjXYBQo1AhAcNWJMijS64uA0zd0JNXWm\r\nEDWiijY1ZpSXNNpWpzTYT+k0QHbzNDaorzSGDHs0qT7ONBvuhzSyYys1dPYCNQdToDTk8uU0MwYH\r\nNWYw+TRbj4g1aJxzNHlxCDVIE8c0Nl2SNOyilTRoqUs1KtMvNbhJPjVmcCE12eGANQ1X8jSNKZo0\r\ndGHdNGrcDjXxZ0A0JhPPNJb14jSwx8o0morUNDmP2DTubH40SSbdNE1r7TRT3rk0EZGLNP35LjV1\r\n1640P7XhNLEsczQldYc02X7eNAZ67jSawbI0drgeNb6GtzSMN9U00j4cNQhrBzWSqgw14dAnNYUF\r\nnDTQSpg0P9OMNOHDLTULMsI0QH6VNI2nxDSl5Yc0WHyLNCaeLDXnc6Y0AaCFNBQP7TTJzR41kvoE\r\nNRykHjU6wZw0+cjVNJdR1TSiQQU10AuONaiUkzUExgY1MMYONaRkZTT9EAU11Bu0NC2j3jTIM4A0\r\nal8cNSoRTzXbrSk1FTDYNEBqkjTgDwA1sun9NP5ztDRWob80HSSSNGYkGDWnkuM0RaMANeGLITXo\r\nTow0GNvbNJlRuzSgsOY0CpP5NMVL9jRRErs0aS1TNVNWgDSmPp80Gvy3NBnwGDXWr7M0dB/VNIw8\r\n0DQBkZ410iF5NDXYLTVZSxU1T0S6NHIrqTRzbRA1XDWKNA2phjRVwpo0SPJ1NGzsODX8K6Y0ne6l\r\nNNU3JjWsl7M0wb+kNKhE5TQUaN8041HRNPhNtTRpfuQ09awXNcwLtDS6nqA0qbk4Nbg8qTQ3pSA0\r\nkRS8NLXO0DRqdcQ0b//eNLPvrDQGQu00fPstNS/HMTWPJMc0fIrENBIciDSLv/k00iuaNNjgPDWm\r\not00DFkCNfHQhDTO4qY0xTYDNbDSOTWNTjA1dLcPNZB1uzQDUrY08mkFNZaNRjXzzK00ErsDNVeQ\r\n3zS5HxA1pmTINLQDBTWIxP008Ny+NADrGDWeipI0eMHvM5R6CTWA3x01wRO2NE0PBDXZKrU0GFyV\r\nNOCJrzSgxtE0tQR+NKJP0zTmcMA0zgvvNFJN7TT5eA41x/eHNAie2jTBXoU1JbdYNQAAEDUAZAE8\r\nF6YTPaE6DT5EKNM9dQ3rPVEOUD0ioW480q89PCfdUDzbEfI8OKDUPGwsmDxHYgE9amiBPGR1zjsP\r\nPhU7a3x7OyhGRzygj6g8mBGWPCuBIDwy9E47Dr4TO1iRvDsOzBo7Kk6nOyjG8juQWao70ZvWOxbH\r\n8zuU8n07aPEbPGxKlzygoVs8TMfIO9+xhDsybFY7q+rTO/L8YTx2ZJg8LVf1O0mYPjuCWmQ7fLXf\r\nOt2APzt7zMI7O4D+Ox50Tzw8t+w7lE+pOzStezsIHeo7gHbGO/xxGTz7XIA7vAj1O108gzyol3g7\r\ntww5PFZa6zv7yxw8BjMgPKnvLj13cpY8hhS0PDysuTskGOc6fsrQOrACgDqdYpQ6nrawO0mtIzpq\r\niZQ6oWVXO4pL/Dsyi9U7isI/O5AADzuqPMM6Xcz3OuCjVjsJJAU70nAkO3xeCzuPI4E7G4YiO1p8\r\n7jrINmQ6RKiWOkNYjzquKxk7L5jEOkefiTpiBN05wkIqOcZGDTp6g046RrOpOQ6EwjmtPgQ6e2Gc\r\nOSSjpDlo8ZU55XS9ObmuBzlz4785N8m2OWCrjzo4vB06uHOTOSQohDrAdAk6ttpzOqV9QjpzGTY6\r\n3XEaOsgBjjqKt8k6HvZMOicoGjocq2w6ap4WOhHEADrfCzk63skBOgeJHDrUTnI5YkuiObHDpjmu\r\nSKM5/cCSOf1k+zmMGlI6inluOu+YIDu89m07RVI0O6+Kgzr+5446GKYWOsGMzDkpPtU5IguVOWYu\r\n0Thu2rs5wj2KOYr0Szln8mE5OIzqOdZKbDmJnpY5zvoYORbfcjmJJb45rPudOReeBTpaM7A5gOEv\r\nOfU4rjmBKBo6bN3fOQHYIDpCxO45IMMKOhDuqjnu5385nKuKOcsUJTnO6QY6IssJOqWwlTkE/nk5\r\n982pOYJKFzlMEgc5kM8qOTzQSjkjjFw5oLMhOb3XTTlwQiA5qwrfOFyxBDkkj0w5MGaVOpPkyzkA\r\nWYw5x/dWOdTGaDnThQM6cUq4OS/ykTn8pTU5cg8tOjmUnzmJETc5yAicOQHqsTm7VQY6AgbzOcxp\r\nYTnUlDk5COb3OVNucjnJjtA5lvYsOVSTlDlbCZA5jieCOevY/jld/5M5ZAsQOQCjIjmaXZk5X2sk\r\nOaKvQDn3w2A5sFLsOCInSDnjTPU4Pw52ORiOFTnxB085aOe5Oeymfzkdh5Q4b9kUOTcjiDlltOQ5\r\nW97hOK93TDk6TJo5GxUROfmZKDmqWVg5gnArOZiUUTljp2g5VN4COa51OjmCG6857I8hOQJUyDiy\r\nFeY4PzlIOQnaEjkNa105LJgJOedSTTmft9w4RFvhOEMPBjkBNUc5IxKaOKB0AzlHK0Y5uzfsOA7s\r\nCTnIO1A5K33WOKFk2jjp16849C8QOWZpPTn28K85JD91Ocr4pTiAdCY50TmeOH4OPTl/1vM4rUTC\r\nOKr9azkWMbo4F7ngOLhyVDn8tgw5pjZnOXrXVTgwxCo4OQx/OXmv4TiOkZs4EjRhOc/BKzm9HJg4\r\nmNmEOBptqTgOwN44isnuOMjHEDkVGqA5ZsgfOcwJgTn/qS85F5G9OSUi8Th4/wU58kwEOcGM0znk\r\nW1o5KBbSOPxmrjgoieg4mOJqOacY5jhwBhY5iXUjOeCfAjn89RI53mOTOE5nnDgXwQo59x/YOLsN\r\nvzisAgg5ZZXBONJSyTg4ChA5g0OvOOLhCzk2PkQ5yZUgOf1/lTgIavM4G5cEObRwszj5plM54Ngg\r\nOTpfCjmgXsE4/c7tOPbIHjng2QM52pkWOVEIBjnWdfE44lgEOVkCJTm3Js04paCwOJruaDnED7c4\r\nlngHOd1wSThLgdw4+MM6OWkNiTjQTig4ZOnTNxI6RTeeDew2cZ29Nv7NAjclhNM2iMnzNsyKczZM\r\nTqE2NwIANyN0CjdyN5Q2WgazNq/6RTZdvu82CgJ2NnBTbzZ2Y8g2nCmlNornMTbyM/U2XdYuNnYx\r\nDDZETwI3eL+nNkEyGTdWc042Yb0WNzGqlDaNeNI2vHqNNkA4sDYmdYE2+cmANhHYVzaKnIs2sgCG\r\nNgmRtTZMoZo22v10NnRMhzYJ96I2OKTLNuYomzb9GYQ2aZ4gNg34YTYuHZo2W3zKNg54fjYZjkw2\r\nf2wUN3Od0TYrN5w2qv+fNtmNlTawHlI20q1xNtWcgzbalsQ2aqh0NqiRqzZJr+Y1tKkfNvwthjbs\r\njso2aMOjNjtLWzaqzNg2QuVVNvmDcTZsOcU2ODthNmCKmjZkwsw2JO2RNrvV7zZ/j5g2X3SCNuWv\r\njDatdLA22aTFNuHopjZGQ1k280BwNm9ZdzZuF3o2uV16NukrgjZ0cmI2oP0yNtheUDbrCZM2IZD3\r\nNcjiiDbmV9M2x6S6NnU/pzZADwg2huV1NusKwzZOBTQ2+FGNNgbaCjZtFJo2oEWzNnsKijZWeO02\r\nGtuJNu8IdjY49Yg2Mr2ANg3ZzjZiM+s2PSKeNoMphDa/F582hoJcNt0QxjZWOKM2KJ8XNqxVQjbY\r\ngaI2GZ6aNs0bpTU+g5g2tEowNtIkZDYOlas2ZR1xNtIkgzZRo4A2kxo0Nq+R7DZCmS43Jnh6NgQS\r\nbDb4RYg2lNw9NuvPkzYiw3I2yo89NhID7TYcIIw26OkjNrMkKzbG26s2fgyyNkykhTarGu41ZVyZ\r\nNs59hja4/3g2DVwlNg8S/DWud6U2N9IvNgCXSjbgmnM2uSBPNn7iXza+E8Q2IrczNgAgGTbUpLw1\r\nmKpzNoJSGzdiAoM2ZpDFNfrlFDY4tAI2RI+mNgX6UTb+VoU2addaNhrNCTZZFHA2uMncNXzMSzbJ\r\nKYk2chpoNlUqsTVQL942eABrNmzNjTZ3X0o2gnWBNn72gTZLTEE2lwQzNgfuCjaKZ0A2Cn+pNqDa\r\nNzbbTXE2Jn7UNu4UKDZVMoQ2j46fNsCxMzbOjB026lnINRYmezYubI02j29ONiv6jzYkvQU24bo/\r\nNlRyPzacL0c24hOWNpYhiDbn4/U1XMKXNjdHgzYwUO01kmwQNsrkGjZWzx02IdkDNtNSCTdR2VE2\r\nthtfNuRpyzaptiM2tEQ0Nkz1XDaF2zA2q9VKNcwlKDW1Wt007vuJNFq4yzRjGzI175BhNbYW/jTC\r\n50I1fp2dNJ2JFzXcfBY1j6wVNck7ADXKUgk1IqzANOh0JjVVrrw0Msw2NZKFGTUaPUI1fBNaNcVN\r\nSTUON7Q0P4fQNFKuFzUxPlU1sICqNGd1ajTm2QI1i7CcNE6RhzRis6A0+Hg7Nbaz2zTd5O41Lo6Q\r\nNCC46jRqY4k02LwPNQsD+zQS2kY1DgsZNQCcHDWKMa00NY4gNbBtFDXqiRc1oiMKNXSGhzRgRxs1\r\nsvCONXglnTQaJsk0VZcVNTwSAjVbovE0HAgiNYYOkDWs+Bk1NoTxNOmQHzWwgbI0cTRKNEIM5zRm\r\n0Eo1Lt3NNDT7uTSlUH81fpTdNNbDuDR5QIA1bivBNDg8tDTqSAw1juzKNPjckTXYQus0QHrGNAe/\r\nzjT+Kxk1k1EENS6XETW7x+g0SgvDNLGCvzSIgvk0RU2fNNSwojQOc7k03IPMNCf6ETV8ef00kiUz\r\nNaCP5DSyjgI1NzurNDzYBDVnrxg1wWfANHpDdjTTMLM0SyeuNCZrpDTpSwg1kQXWNKnmtjTd4L00\r\nCjEvNe+3XjWZAko1Ym35NPTQoTRMXRI1/Kv1NNnw+TREn580ApgENQioMTUc6Qw1wGDtNMWVAjX6\r\nRmI1CN1MNL0nqzQdttc0yKQdNbOO9jSg9bU00Ta0NPpG8jRwfn81zM+VNG1DtzQjBjQ133YnNRiY\r\nzzSD58A0vVEGNeQz7TQc+8c0alDxNOYeqTRZjwM1A1X7NKFF9DRfJtM0Vc0BNUYGIjUIksE0MIwp\r\nNYA4xDQyT2E0+rrONBaUKjWcVbs0lgEXNQhoLjVqYfM0QkIHNXxZBjWjN9A04CoHNf4JgzRmC1I1\r\nHvk2NR48nDSMgG00Zf32NNotNDWhucs0OhP6NCbLvjSa08g0UXkUNWHkGjU2b7M0Jjf1NNWAHTX2\r\nAKk0D22rNDpwCjVAdSE1wIe3NKki1DQ7h1c0c56RNM+EHDWeNvs0MQ70NEBr+DSzItM00gbWNHQw\r\nKDULfMQ0x//kNPxv2TTQtDM1WH4UNV82NTXQGQs1zfzkNE4e5zQRzgg1/pbnNGCS0TTOFd40v6/x\r\nNAS1tjRCvqU0IwneNHHchzWWIeA0UM+4NK8f9TRyIZM0h7UINdtvGDWwIMU0f+g7NQZH3jSvXyg1\r\nQFDUNEfN1zTFaJE0vTVhNZhtEzVsOCo1lI2DNKvBcDU7hyA1G3lgNdKy/jT5BOE0W5yZNMVKxTQt\r\nffo0UfUYNfYY1jRmNic1cjOcNHhM3TQltw01y+wGNdUXAzWjaYQ1EAGsNAMnHTXG2Ok0b2sZNdaU\r\nnTTqTu80BYtpNRavBjXpXoY0gY8TNRz6MzTZ+bU0CwEyNeatmjTYpAw1XQ0NNS4fMDUD3N80w5kB\r\nNbZ+wDSHwM80LsdINflVQTXijxU12ckXNexXHTV3aAk1Y0gINRwPEzWrSkk1gEhcNcKckzRnQdM0\r\nylE8NZTlGjWZRXo1mYPiNKOIGDX9VSk1SDywNE/uAjVE05U0/LpeNYJ8uDT+TwI1K57TNKdFFTVQ\r\nmmw1bxHxNNasyjTwQdg0uDi0NKQl/jRwNLM0eBffNHVFvDRC6IA0QxjQNA8uczQLG6o0fGK7NO7j\r\nmzQBYqc0PLzWNLgI9DTcW6Q0a0AZNYg9STUbsVQ1+5sfNVyxoTRchak0ZlS/NIZF8DQC/LA0KHW2\r\nNAKVBzVhPRg1IxGrNNrwCDVtxBU1lnAcNYeauTTwp/s0RXHANLDJwzTVLtw0yWgLNdyaGTVZOe00\r\nJFcoNZ6B7TQG/MU0+DEUNQFt/DRtlSo14IBuNQxXyzRAZsw0OmxvNepc4TQsbOo0BX5pNeLZFjVa\r\nUP00/NC+NDfFxzSk/Jk0Xv9WNFcJFTUkCfs0nPhONWb3szQLn8U07ItQNLGo0DSMwQE17Z/PNNec\r\n0zRaof0076bINOo8GzXNlYU0hEQkNTyH5jT2YwU1rPNDNQ/OwzRUsuM0rNi/NPhc8DQKmUg1hNDu\r\nNFsmCjUDuzw1VasyNef7cjVSnrA0plT5NKXLhzSFNZ00Ed+nNCFdUDUWMQI1JJnbNNcqvjQMb+40\r\nMCZxNWBYzTTT7DQ1EXZRNffmaTV+3a80W4eUNHE8DjXgGu40gRDrNBPuqjTmEDY1ol3ONJbeJTVU\r\n2RE1pL7HNICD5TRWWw816jZdNU5+4zSdEBA1+UiKNPe7OzXoSB81ciQHNY2hujSihSE1Zmy4NC66\r\njjSDV6M0zDuqNH8orDToE6s0mAmlNNh/LDUtZTA1POHGNHfLdzTbIis17ZIdNZocBDVvRKE0QmwB\r\nNYXQijQkWAs1oC2hNA2Z5TSh2c00fEGaNMT8ujTDZ5w0Y1z7NI2ELjWyxiA1AEAcNQ==",
                            "noiseTrainingType" : "default"
                          }
                        }
                    ],
                    "start" : 1401,
                    "duration" : 17,
                    "mediaStart" : 1383,
                    "mediaDuration" : 17,
                    "scalar" : 1,
                    "metadata" : {
                      "WinSubProjectDisplayName" : "",
                      "clipSpeedAttribute" : false
                    },
                    "animationTracks" : {

                    }
                  },
                  {
                    "id" : 355,
                    "_type" : "AMFile",
                    "src" : 15,
                    "trackNumber" : 0,
                    "attributes" : {
                      "ident" : "旁白_vis2021 1",
                      "sampleRate" : 44100,
                      "bitDepth" : 16,
                      "gain" : 1.0,
                      "mixToMono" : false
                    },
                      "channelNumber" : "0,1",
                    "effects" : [
                        {
                          "effectName" : "NoiseReduction",
                          "parameters" : {
                            "denoiserAmount" : 20.0,
                            "denoiserThreshold" : 0.0,
                            "noiseProfile" : "OWoAPH2pEz2x9Qw+d6HTPcva6j2sp089E2dtPD6vPDwfl1A8ScjwPJTr1Txy35g8LaEAPTpegDyh\r\n+807XKYVO6TEeztxHEg8k5enPOCDljxR1SA80RNNO5P/FTsAUsA78qcaO7cppTsc2vE7qgSrO6lQ\r\n2jukqvI7h92AO2yWGzx+tZU8JitaPFzIyTuXwYE7uY9XO8aQ0Dvqq2I88amYPMnb9DtB2j87KTBk\r\nOzy52zoRSDw7OCjBO9xi/DtxwE88KlbqO3j0qDtWJH47VJnsO9JoxDuANhs8tJ+AO6Qz9Tth+oI8\r\nbGt3O1T1Nzzjhew74A0cPJAvITwici89BseWPGFNtDxkw7o7MRvlOmld0jryf386QXGZOrHMrzuA\r\ngR46FrCVOsPpWDsY4v07HUbYO1nLPjsw9w47wr3FOrnZ+Drc3FY7lUkJO7DAJDv2mAY7Bol9O6Gv\r\nIjui8ek64NliOq5vmTrG/ZM6bCYbO5q5tzpF2YA69unhOXdvJDkMXx461iVVOpU6tTmIPdU5NZ4C\r\nOrLzrDlzv6053gyzOSasszlLTgc5O7atOcYrxzkKtYw6r9cjOpoinjlRRog6Q9QHOqLsbTo5k0E6\r\n9U47OqgHGzq2DIw6xrvIOkIITzrGgR86I/hwOsTOFzq0IQU6isQ5OkIP9DmC+Bw6hsx0OYy4pDnt\r\nMqk5f6afOfFKnDnqIvc5SsRQOpXvdDp8CiE703psOwEALztW+4A6r36ROtKuGDoo4s852RrZOQKM\r\nhDmkgtY4CBe5OXJ5jDnBcjY5RM9jObGZ+DmyHG05aluSOaagETnIyGM5Jt2dOdUxnTmBHwU6PPyu\r\nOQ2PETl6x7k5tcInOtV63TnmcCY6dHftOUWtBzoIt6w5qk+GOf1mbTk4DT454wsLOh2HAjoY+ZY5\r\nyr2VOQQurzmqnRg5LDMFOZLQUjkvV1Q5/g1+OSlxFzlITz85XmAkOdDG/DjiIfM4htxWOREUlTqh\r\nwcw5VnaGOWCBXjn90lA5cKzvOWPrqzkL/o45sEFOOTkyMDpUc5s51oo9ORByjjlGCco52p/tORKy\r\n8Tnit2E51lY0Ofo+ATq6o3Y5Z021OYTVGDlRAq45zuyhOeA4ZDk52eE5nw91ORI2OzlB2R85fgab\r\nOY8bMjkQ1TA5cCaFOXju/Dh2ghM59YD8OFHmfzmnKiQ58YpfOXsbtzlCtX45yEWKOLGkLDkayH45\r\nRUrSOSltyTgvk1U5NT2NOY45EjnfihY5JFlqOTokTjlSlV45Ir54OQ1W5jifjjI5bWS5OfA8NDkO\r\nXs44QhjgOLbnOjkr+iw5hK5/Ocz3Azl6HF45q6DlOIJb2DiR79I4esU3OWtGjDg4gBM5cVloOdzR\r\nDTlkchs5GGg7OVSTtziXOeg4XazEOCiMADmz6Tw5ueqOOVcmeTmS4Ms4nI0UOUTLnjhAXjc56pkE\r\nOdXdBznEOY85PIy4OMxI5zgkSxk5r6oQObvARTnCtUo4LoVEONjrVjnfUsw4msCWOCWAQjlc/y45\r\nJ4KtOCzJrjjGJZ84BKXjOIHj2jhi+yE5rqqOOdCIIzm9fIM56Oo3OUSjtzmiT/M4Wiv3OJw6ETmO\r\nS8w53FJpOdbu1DiJSZs4DaoFOWqKWDkkyvU4GPIdOchJLDmxKwA54MMWOVgzmjgl75M44OcEOVPH\r\n3Dhmzdw4X9sOOb2CyTguC7Y4VgEmOTaQxDjBUAQ5dAM9OarFHjmfj444qMgAOWZMDDmSlas4yUZQ\r\nOaDeMTmPogU5Wxe1OF0m3Dh6aDQ5tbkIObjoEzlqqg45EPLvOKyF+zhUmiE57MvFOPg/vDiW+Vo5\r\nmhyzOGFsBTldBEw4dL3pOOk/QDnXnJQ467sNONFyxDfGPDM3rTsZN+BixjZrWTk338GlNhf/FTe5\r\nNTk2RTSUNkMj3Taj0d02is2UNt0UDDYUXvI1aeXFNhijMjbAtYc2ikWgNuphZDY8D1I28gSnNv4k\r\nLTZRYDk2mtYGN70P5DaWBKc2RzXfNlQFKTeHIYk2IpjaNofVszbqlaM2PatTNiKTzDYjx6M2BMHZ\r\nNiXEdDbJOMs2FNCMNsnGRja2BpI2UsiGNvm1vzbR74Q2wLCoNnn3jDa4fK82VqGlNrSAsTYwh5o2\r\n00guNguj5DYiuZI2yg0BN6PItzbTY6w2VXFINoLcTDbWIk82WJ/cNvx6HDZGdqc2ta/1NVwQMDaG\r\n9VE24mqONlq9rDaNiSE2Lay+NpqbcTYGZ3Q2KPqfNicegDbQyZw27RAtNyQhVjazoMU2izz9Npf0\r\njzbhrAg2zKY4Njo2yjZ1hZE2WNZsNrbfvDZiyp42KRFjNr96jjbjaI02RTYRNmwjhzapnyI2B4XY\r\nNltT7jUOLSY20oDqNhJrxDaCZWw2Ct+VNg/LgjZZzMA2Ik1JNrzQuDZxy901azNqNvW2eDaUuVs2\r\ngu+KNta85ja8P/M1FmShNp/ipjb1OIE21Q/2Nr5JmzYXtZU2x6+qNk6LmTZnjYw2mIJGNul2Jjbc\r\nO3A2lquYNuovLTYtgfE1nUlUNgQzNzaIsDM2DIvUNjKBRja+0oY2ExJ5NgPdJzZaSLQ2EtYgN0Wc\r\nDDbIHow2IiiZNgZUVTa1JnM2v3wcNoN3YDYCtgE38JaENkzoaDb0JTc26/WJNoqw9jYFxFI29vNP\r\nNmdCvDZHFIU2xxObNr0sUTblHoc2JrM/NmrbFDYX93o2m4OpNgs6HDaFNl02Rb2TNpjkJjYAADk2\r\n/8chNn7/QTawezM30gsqNidJ8zWKfC02kBYuNmSnnTa80FY2mFN3NkYZWzY4aO41UHmKNkyZiDYh\r\nGC42h1Y6Np6cgzYSij81AnuaNnc6rzZUXG82vp9eNp4h/jWNsEY2k603NuKSjDbHWSo2RxYINlNS\r\nmTaAOlU2yvJmNkqftzZ5VEk26hV8NjWLezbKM9Y1ernFNWi/XDZaEHQ2dhvANhDaRjYMwy82EwC4\r\nNlCNVTbH4IU2Cx1LNk6XlDbcVNA2FB33NQHMjzY6eW02jpZONqrdMTa+lxk267lUNkhoNDZz+TQ3\r\nwulaNoXxEjYQdsQ2lXEcNsiYOjbfz9o2UzpENvQL0TSOQIM10f8gNcLzLzX5w2c1H4efNN2VyTQO\r\nn70011tKNT7aKTUG8/w0QEgiNUCRKjWhXKI03LYLNQzSrjUnb9E0iB65NCpfLzVs4tk0emppNQtw\r\n8zTy2+U0USoLNeRnDTU88Uc19BfdNFPdNDVtA7Q09QQJNdJhKTXqRNg0am3RNG251DQ1KrA0Oj/Y\r\nNOrxkjTQ8cI0+3eXNEYitDR9exs1YvMdNUBR5DR0pQE1EGj5NAq8KTXmxKs0ErgPNTXAAjVM71g1\r\n2McYNch2PjVA3vs0HZGgNJEIOTWY3M40B5RGNGfgUDUIWUw1AAKQNPuJvjRnt4w0M0qUNPpcxjR3\r\nCM0000dJNZjtnTSx6rQ09gISNSzUKjVHscM0TBtXNYWZEDWjpck07HS+NMuEnzTVZ0U1duMGNWCg\r\n6jTs3880YBEXNT+XujRa3bk0wUISNadMADU5AQ411F8ONePs/jS0pjA105FENQ/HnjQmcwg1WPKH\r\nNFq2nTSuOLI0S9MpNbyI/zTAPso0+sXPNPLB3DTur8o0PLbHNPmbnzT+MvY0YjqvNCUXJTXMJp80\r\nndUPNWmVEjXazkY1O5DgNMl4gzVmyAY1rYEfNXmSQTWIrhU1ikoVNSCqpDTaEbY0/AvpNLIwhDSh\r\nIww1MCwENb5Y/zSUBhw1UowYNbXtpzTvlg4155xcNZhCrDRWs9U0k616NIzznjRmnAQ1Khq/NEm9\r\nCTUki940fgEVNZA1JzWkzqg0RtjuNI+WjTW0QRg1omMcNXzDIDUDHKI0NVu3NMMpRDVCjIo0ViIs\r\nNfxAITWCVB81HXTcNB0NXDWG+bE03vcdNf6QMzXAn8s0Eg/NNATJsTQE9U01LMELNX7DoDSIEB41\r\nwLEGNUVbzTQ8Pwo1QFCINBFgFTVn0vo0JOCjNNaR8zQ1vx41DXUDNak+EjUNQYo08gC7NFzPoTSI\r\n7RU1kpUbNYXvKzWOx240VWf0NGRuBzU6PIo0wlCGNT7g9jSWZjw1Ml4BNRvl6jTQR3w1lmHdNGfd\r\nITTobvU0ypuvNEpF+jTjNY40JYO7NCfBbzQijsA0us84Na6J8TQIYwU1V3IrNSwmYTXQ1kU0zKTc\r\nNDTVfzTj6to0SbOuNHwCvTQ/eR01mcuPNPTduTRDjf806a+nNAj20DREKOo0nPlPNQTe+zQNWSo1\r\nlpGmNBv9xzT/tzk1CtkQNapg2jSMQlI1MDUTNRhOMjWh56Q0AygANa8srzRbOwQ187XxNOQlwDSQ\r\nNO80mTAVNaBD6TQbeoo0UM6FNHPMCjV4t7k0gIxkNE02BjXYBQo1AhAcNWJMijS64uA0zd0JNXWm\r\nEDWiijY1ZpSXNNpWpzTYT+k0QHbzNDaorzSGDHs0qT7ONBvuhzSyYys1dPYCNQdToDTk8uU0MwYH\r\nNWYw+TRbj4g1aJxzNHlxCDVIE8c0Nl2SNOyilTRoqUs1KtMvNbhJPjVmcCE12eGANQ1X8jSNKZo0\r\ndGHdNGrcDjXxZ0A0JhPPNJb14jSwx8o0morUNDmP2DTubH40SSbdNE1r7TRT3rk0EZGLNP35LjV1\r\n1640P7XhNLEsczQldYc02X7eNAZ67jSawbI0drgeNb6GtzSMN9U00j4cNQhrBzWSqgw14dAnNYUF\r\nnDTQSpg0P9OMNOHDLTULMsI0QH6VNI2nxDSl5Yc0WHyLNCaeLDXnc6Y0AaCFNBQP7TTJzR41kvoE\r\nNRykHjU6wZw0+cjVNJdR1TSiQQU10AuONaiUkzUExgY1MMYONaRkZTT9EAU11Bu0NC2j3jTIM4A0\r\nal8cNSoRTzXbrSk1FTDYNEBqkjTgDwA1sun9NP5ztDRWob80HSSSNGYkGDWnkuM0RaMANeGLITXo\r\nTow0GNvbNJlRuzSgsOY0CpP5NMVL9jRRErs0aS1TNVNWgDSmPp80Gvy3NBnwGDXWr7M0dB/VNIw8\r\n0DQBkZ410iF5NDXYLTVZSxU1T0S6NHIrqTRzbRA1XDWKNA2phjRVwpo0SPJ1NGzsODX8K6Y0ne6l\r\nNNU3JjWsl7M0wb+kNKhE5TQUaN8041HRNPhNtTRpfuQ09awXNcwLtDS6nqA0qbk4Nbg8qTQ3pSA0\r\nkRS8NLXO0DRqdcQ0b//eNLPvrDQGQu00fPstNS/HMTWPJMc0fIrENBIciDSLv/k00iuaNNjgPDWm\r\not00DFkCNfHQhDTO4qY0xTYDNbDSOTWNTjA1dLcPNZB1uzQDUrY08mkFNZaNRjXzzK00ErsDNVeQ\r\n3zS5HxA1pmTINLQDBTWIxP008Ny+NADrGDWeipI0eMHvM5R6CTWA3x01wRO2NE0PBDXZKrU0GFyV\r\nNOCJrzSgxtE0tQR+NKJP0zTmcMA0zgvvNFJN7TT5eA41x/eHNAie2jTBXoU1JbdYNQAAEDUAZAE8\r\nF6YTPaE6DT5EKNM9dQ3rPVEOUD0ioW480q89PCfdUDzbEfI8OKDUPGwsmDxHYgE9amiBPGR1zjsP\r\nPhU7a3x7OyhGRzygj6g8mBGWPCuBIDwy9E47Dr4TO1iRvDsOzBo7Kk6nOyjG8juQWao70ZvWOxbH\r\n8zuU8n07aPEbPGxKlzygoVs8TMfIO9+xhDsybFY7q+rTO/L8YTx2ZJg8LVf1O0mYPjuCWmQ7fLXf\r\nOt2APzt7zMI7O4D+Ox50Tzw8t+w7lE+pOzStezsIHeo7gHbGO/xxGTz7XIA7vAj1O108gzyol3g7\r\ntww5PFZa6zv7yxw8BjMgPKnvLj13cpY8hhS0PDysuTskGOc6fsrQOrACgDqdYpQ6nrawO0mtIzpq\r\niZQ6oWVXO4pL/Dsyi9U7isI/O5AADzuqPMM6Xcz3OuCjVjsJJAU70nAkO3xeCzuPI4E7G4YiO1p8\r\n7jrINmQ6RKiWOkNYjzquKxk7L5jEOkefiTpiBN05wkIqOcZGDTp6g046RrOpOQ6EwjmtPgQ6e2Gc\r\nOSSjpDlo8ZU55XS9ObmuBzlz4785N8m2OWCrjzo4vB06uHOTOSQohDrAdAk6ttpzOqV9QjpzGTY6\r\n3XEaOsgBjjqKt8k6HvZMOicoGjocq2w6ap4WOhHEADrfCzk63skBOgeJHDrUTnI5YkuiObHDpjmu\r\nSKM5/cCSOf1k+zmMGlI6inluOu+YIDu89m07RVI0O6+Kgzr+5446GKYWOsGMzDkpPtU5IguVOWYu\r\n0Thu2rs5wj2KOYr0Szln8mE5OIzqOdZKbDmJnpY5zvoYORbfcjmJJb45rPudOReeBTpaM7A5gOEv\r\nOfU4rjmBKBo6bN3fOQHYIDpCxO45IMMKOhDuqjnu5385nKuKOcsUJTnO6QY6IssJOqWwlTkE/nk5\r\n982pOYJKFzlMEgc5kM8qOTzQSjkjjFw5oLMhOb3XTTlwQiA5qwrfOFyxBDkkj0w5MGaVOpPkyzkA\r\nWYw5x/dWOdTGaDnThQM6cUq4OS/ykTn8pTU5cg8tOjmUnzmJETc5yAicOQHqsTm7VQY6AgbzOcxp\r\nYTnUlDk5COb3OVNucjnJjtA5lvYsOVSTlDlbCZA5jieCOevY/jld/5M5ZAsQOQCjIjmaXZk5X2sk\r\nOaKvQDn3w2A5sFLsOCInSDnjTPU4Pw52ORiOFTnxB085aOe5Oeymfzkdh5Q4b9kUOTcjiDlltOQ5\r\nW97hOK93TDk6TJo5GxUROfmZKDmqWVg5gnArOZiUUTljp2g5VN4COa51OjmCG6857I8hOQJUyDiy\r\nFeY4PzlIOQnaEjkNa105LJgJOedSTTmft9w4RFvhOEMPBjkBNUc5IxKaOKB0AzlHK0Y5uzfsOA7s\r\nCTnIO1A5K33WOKFk2jjp16849C8QOWZpPTn28K85JD91Ocr4pTiAdCY50TmeOH4OPTl/1vM4rUTC\r\nOKr9azkWMbo4F7ngOLhyVDn8tgw5pjZnOXrXVTgwxCo4OQx/OXmv4TiOkZs4EjRhOc/BKzm9HJg4\r\nmNmEOBptqTgOwN44isnuOMjHEDkVGqA5ZsgfOcwJgTn/qS85F5G9OSUi8Th4/wU58kwEOcGM0znk\r\nW1o5KBbSOPxmrjgoieg4mOJqOacY5jhwBhY5iXUjOeCfAjn89RI53mOTOE5nnDgXwQo59x/YOLsN\r\nvzisAgg5ZZXBONJSyTg4ChA5g0OvOOLhCzk2PkQ5yZUgOf1/lTgIavM4G5cEObRwszj5plM54Ngg\r\nOTpfCjmgXsE4/c7tOPbIHjng2QM52pkWOVEIBjnWdfE44lgEOVkCJTm3Js04paCwOJruaDnED7c4\r\nlngHOd1wSThLgdw4+MM6OWkNiTjQTig4ZOnTNxI6RTeeDew2cZ29Nv7NAjclhNM2iMnzNsyKczZM\r\nTqE2NwIANyN0CjdyN5Q2WgazNq/6RTZdvu82CgJ2NnBTbzZ2Y8g2nCmlNornMTbyM/U2XdYuNnYx\r\nDDZETwI3eL+nNkEyGTdWc042Yb0WNzGqlDaNeNI2vHqNNkA4sDYmdYE2+cmANhHYVzaKnIs2sgCG\r\nNgmRtTZMoZo22v10NnRMhzYJ96I2OKTLNuYomzb9GYQ2aZ4gNg34YTYuHZo2W3zKNg54fjYZjkw2\r\nf2wUN3Od0TYrN5w2qv+fNtmNlTawHlI20q1xNtWcgzbalsQ2aqh0NqiRqzZJr+Y1tKkfNvwthjbs\r\njso2aMOjNjtLWzaqzNg2QuVVNvmDcTZsOcU2ODthNmCKmjZkwsw2JO2RNrvV7zZ/j5g2X3SCNuWv\r\njDatdLA22aTFNuHopjZGQ1k280BwNm9ZdzZuF3o2uV16NukrgjZ0cmI2oP0yNtheUDbrCZM2IZD3\r\nNcjiiDbmV9M2x6S6NnU/pzZADwg2huV1NusKwzZOBTQ2+FGNNgbaCjZtFJo2oEWzNnsKijZWeO02\r\nGtuJNu8IdjY49Yg2Mr2ANg3ZzjZiM+s2PSKeNoMphDa/F582hoJcNt0QxjZWOKM2KJ8XNqxVQjbY\r\ngaI2GZ6aNs0bpTU+g5g2tEowNtIkZDYOlas2ZR1xNtIkgzZRo4A2kxo0Nq+R7DZCmS43Jnh6NgQS\r\nbDb4RYg2lNw9NuvPkzYiw3I2yo89NhID7TYcIIw26OkjNrMkKzbG26s2fgyyNkykhTarGu41ZVyZ\r\nNs59hja4/3g2DVwlNg8S/DWud6U2N9IvNgCXSjbgmnM2uSBPNn7iXza+E8Q2IrczNgAgGTbUpLw1\r\nmKpzNoJSGzdiAoM2ZpDFNfrlFDY4tAI2RI+mNgX6UTb+VoU2addaNhrNCTZZFHA2uMncNXzMSzbJ\r\nKYk2chpoNlUqsTVQL942eABrNmzNjTZ3X0o2gnWBNn72gTZLTEE2lwQzNgfuCjaKZ0A2Cn+pNqDa\r\nNzbbTXE2Jn7UNu4UKDZVMoQ2j46fNsCxMzbOjB026lnINRYmezYubI02j29ONiv6jzYkvQU24bo/\r\nNlRyPzacL0c24hOWNpYhiDbn4/U1XMKXNjdHgzYwUO01kmwQNsrkGjZWzx02IdkDNtNSCTdR2VE2\r\nthtfNuRpyzaptiM2tEQ0Nkz1XDaF2zA2q9VKNcwlKDW1Wt007vuJNFq4yzRjGzI175BhNbYW/jTC\r\n50I1fp2dNJ2JFzXcfBY1j6wVNck7ADXKUgk1IqzANOh0JjVVrrw0Msw2NZKFGTUaPUI1fBNaNcVN\r\nSTUON7Q0P4fQNFKuFzUxPlU1sICqNGd1ajTm2QI1i7CcNE6RhzRis6A0+Hg7Nbaz2zTd5O41Lo6Q\r\nNCC46jRqY4k02LwPNQsD+zQS2kY1DgsZNQCcHDWKMa00NY4gNbBtFDXqiRc1oiMKNXSGhzRgRxs1\r\nsvCONXglnTQaJsk0VZcVNTwSAjVbovE0HAgiNYYOkDWs+Bk1NoTxNOmQHzWwgbI0cTRKNEIM5zRm\r\n0Eo1Lt3NNDT7uTSlUH81fpTdNNbDuDR5QIA1bivBNDg8tDTqSAw1juzKNPjckTXYQus0QHrGNAe/\r\nzjT+Kxk1k1EENS6XETW7x+g0SgvDNLGCvzSIgvk0RU2fNNSwojQOc7k03IPMNCf6ETV8ef00kiUz\r\nNaCP5DSyjgI1NzurNDzYBDVnrxg1wWfANHpDdjTTMLM0SyeuNCZrpDTpSwg1kQXWNKnmtjTd4L00\r\nCjEvNe+3XjWZAko1Ym35NPTQoTRMXRI1/Kv1NNnw+TREn580ApgENQioMTUc6Qw1wGDtNMWVAjX6\r\nRmI1CN1MNL0nqzQdttc0yKQdNbOO9jSg9bU00Ta0NPpG8jRwfn81zM+VNG1DtzQjBjQ133YnNRiY\r\nzzSD58A0vVEGNeQz7TQc+8c0alDxNOYeqTRZjwM1A1X7NKFF9DRfJtM0Vc0BNUYGIjUIksE0MIwp\r\nNYA4xDQyT2E0+rrONBaUKjWcVbs0lgEXNQhoLjVqYfM0QkIHNXxZBjWjN9A04CoHNf4JgzRmC1I1\r\nHvk2NR48nDSMgG00Zf32NNotNDWhucs0OhP6NCbLvjSa08g0UXkUNWHkGjU2b7M0Jjf1NNWAHTX2\r\nAKk0D22rNDpwCjVAdSE1wIe3NKki1DQ7h1c0c56RNM+EHDWeNvs0MQ70NEBr+DSzItM00gbWNHQw\r\nKDULfMQ0x//kNPxv2TTQtDM1WH4UNV82NTXQGQs1zfzkNE4e5zQRzgg1/pbnNGCS0TTOFd40v6/x\r\nNAS1tjRCvqU0IwneNHHchzWWIeA0UM+4NK8f9TRyIZM0h7UINdtvGDWwIMU0f+g7NQZH3jSvXyg1\r\nQFDUNEfN1zTFaJE0vTVhNZhtEzVsOCo1lI2DNKvBcDU7hyA1G3lgNdKy/jT5BOE0W5yZNMVKxTQt\r\nffo0UfUYNfYY1jRmNic1cjOcNHhM3TQltw01y+wGNdUXAzWjaYQ1EAGsNAMnHTXG2Ok0b2sZNdaU\r\nnTTqTu80BYtpNRavBjXpXoY0gY8TNRz6MzTZ+bU0CwEyNeatmjTYpAw1XQ0NNS4fMDUD3N80w5kB\r\nNbZ+wDSHwM80LsdINflVQTXijxU12ckXNexXHTV3aAk1Y0gINRwPEzWrSkk1gEhcNcKckzRnQdM0\r\nylE8NZTlGjWZRXo1mYPiNKOIGDX9VSk1SDywNE/uAjVE05U0/LpeNYJ8uDT+TwI1K57TNKdFFTVQ\r\nmmw1bxHxNNasyjTwQdg0uDi0NKQl/jRwNLM0eBffNHVFvDRC6IA0QxjQNA8uczQLG6o0fGK7NO7j\r\nmzQBYqc0PLzWNLgI9DTcW6Q0a0AZNYg9STUbsVQ1+5sfNVyxoTRchak0ZlS/NIZF8DQC/LA0KHW2\r\nNAKVBzVhPRg1IxGrNNrwCDVtxBU1lnAcNYeauTTwp/s0RXHANLDJwzTVLtw0yWgLNdyaGTVZOe00\r\nJFcoNZ6B7TQG/MU0+DEUNQFt/DRtlSo14IBuNQxXyzRAZsw0OmxvNepc4TQsbOo0BX5pNeLZFjVa\r\nUP00/NC+NDfFxzSk/Jk0Xv9WNFcJFTUkCfs0nPhONWb3szQLn8U07ItQNLGo0DSMwQE17Z/PNNec\r\n0zRaof0076bINOo8GzXNlYU0hEQkNTyH5jT2YwU1rPNDNQ/OwzRUsuM0rNi/NPhc8DQKmUg1hNDu\r\nNFsmCjUDuzw1VasyNef7cjVSnrA0plT5NKXLhzSFNZ00Ed+nNCFdUDUWMQI1JJnbNNcqvjQMb+40\r\nMCZxNWBYzTTT7DQ1EXZRNffmaTV+3a80W4eUNHE8DjXgGu40gRDrNBPuqjTmEDY1ol3ONJbeJTVU\r\n2RE1pL7HNICD5TRWWw816jZdNU5+4zSdEBA1+UiKNPe7OzXoSB81ciQHNY2hujSihSE1Zmy4NC66\r\njjSDV6M0zDuqNH8orDToE6s0mAmlNNh/LDUtZTA1POHGNHfLdzTbIis17ZIdNZocBDVvRKE0QmwB\r\nNYXQijQkWAs1oC2hNA2Z5TSh2c00fEGaNMT8ujTDZ5w0Y1z7NI2ELjWyxiA1AEAcNQ==",
                            "noiseTrainingType" : "default"
                          }
                        }
                    ],
                    "start" : 1418,
                    "duration" : 366,
                    "mediaStart" : 1495,
                    "mediaDuration" : 366,
                    "scalar" : 1,
                    "metadata" : {
                      "WinSubProjectDisplayName" : "",
                      "clipSpeedAttribute" : false
                    },
                    "animationTracks" : {

                    }
                  },
                  {
                    "id" : 356,
                    "_type" : "AMFile",
                    "src" : 15,
                    "trackNumber" : 0,
                    "attributes" : {
                      "ident" : "旁白_vis2021 1",
                      "sampleRate" : 44100,
                      "bitDepth" : 16,
                      "gain" : 1.0,
                      "mixToMono" : false
                    },
                      "channelNumber" : "0,1",
                    "effects" : [
                        {
                          "effectName" : "NoiseReduction",
                          "parameters" : {
                            "denoiserAmount" : 20.0,
                            "denoiserThreshold" : 0.0,
                            "noiseProfile" : "OWoAPH2pEz2x9Qw+d6HTPcva6j2sp089E2dtPD6vPDwfl1A8ScjwPJTr1Txy35g8LaEAPTpegDyh\r\n+807XKYVO6TEeztxHEg8k5enPOCDljxR1SA80RNNO5P/FTsAUsA78qcaO7cppTsc2vE7qgSrO6lQ\r\n2jukqvI7h92AO2yWGzx+tZU8JitaPFzIyTuXwYE7uY9XO8aQ0Dvqq2I88amYPMnb9DtB2j87KTBk\r\nOzy52zoRSDw7OCjBO9xi/DtxwE88KlbqO3j0qDtWJH47VJnsO9JoxDuANhs8tJ+AO6Qz9Tth+oI8\r\nbGt3O1T1Nzzjhew74A0cPJAvITwici89BseWPGFNtDxkw7o7MRvlOmld0jryf386QXGZOrHMrzuA\r\ngR46FrCVOsPpWDsY4v07HUbYO1nLPjsw9w47wr3FOrnZ+Drc3FY7lUkJO7DAJDv2mAY7Bol9O6Gv\r\nIjui8ek64NliOq5vmTrG/ZM6bCYbO5q5tzpF2YA69unhOXdvJDkMXx461iVVOpU6tTmIPdU5NZ4C\r\nOrLzrDlzv6053gyzOSasszlLTgc5O7atOcYrxzkKtYw6r9cjOpoinjlRRog6Q9QHOqLsbTo5k0E6\r\n9U47OqgHGzq2DIw6xrvIOkIITzrGgR86I/hwOsTOFzq0IQU6isQ5OkIP9DmC+Bw6hsx0OYy4pDnt\r\nMqk5f6afOfFKnDnqIvc5SsRQOpXvdDp8CiE703psOwEALztW+4A6r36ROtKuGDoo4s852RrZOQKM\r\nhDmkgtY4CBe5OXJ5jDnBcjY5RM9jObGZ+DmyHG05aluSOaagETnIyGM5Jt2dOdUxnTmBHwU6PPyu\r\nOQ2PETl6x7k5tcInOtV63TnmcCY6dHftOUWtBzoIt6w5qk+GOf1mbTk4DT454wsLOh2HAjoY+ZY5\r\nyr2VOQQurzmqnRg5LDMFOZLQUjkvV1Q5/g1+OSlxFzlITz85XmAkOdDG/DjiIfM4htxWOREUlTqh\r\nwcw5VnaGOWCBXjn90lA5cKzvOWPrqzkL/o45sEFOOTkyMDpUc5s51oo9ORByjjlGCco52p/tORKy\r\n8Tnit2E51lY0Ofo+ATq6o3Y5Z021OYTVGDlRAq45zuyhOeA4ZDk52eE5nw91ORI2OzlB2R85fgab\r\nOY8bMjkQ1TA5cCaFOXju/Dh2ghM59YD8OFHmfzmnKiQ58YpfOXsbtzlCtX45yEWKOLGkLDkayH45\r\nRUrSOSltyTgvk1U5NT2NOY45EjnfihY5JFlqOTokTjlSlV45Ir54OQ1W5jifjjI5bWS5OfA8NDkO\r\nXs44QhjgOLbnOjkr+iw5hK5/Ocz3Azl6HF45q6DlOIJb2DiR79I4esU3OWtGjDg4gBM5cVloOdzR\r\nDTlkchs5GGg7OVSTtziXOeg4XazEOCiMADmz6Tw5ueqOOVcmeTmS4Ms4nI0UOUTLnjhAXjc56pkE\r\nOdXdBznEOY85PIy4OMxI5zgkSxk5r6oQObvARTnCtUo4LoVEONjrVjnfUsw4msCWOCWAQjlc/y45\r\nJ4KtOCzJrjjGJZ84BKXjOIHj2jhi+yE5rqqOOdCIIzm9fIM56Oo3OUSjtzmiT/M4Wiv3OJw6ETmO\r\nS8w53FJpOdbu1DiJSZs4DaoFOWqKWDkkyvU4GPIdOchJLDmxKwA54MMWOVgzmjgl75M44OcEOVPH\r\n3Dhmzdw4X9sOOb2CyTguC7Y4VgEmOTaQxDjBUAQ5dAM9OarFHjmfj444qMgAOWZMDDmSlas4yUZQ\r\nOaDeMTmPogU5Wxe1OF0m3Dh6aDQ5tbkIObjoEzlqqg45EPLvOKyF+zhUmiE57MvFOPg/vDiW+Vo5\r\nmhyzOGFsBTldBEw4dL3pOOk/QDnXnJQ467sNONFyxDfGPDM3rTsZN+BixjZrWTk338GlNhf/FTe5\r\nNTk2RTSUNkMj3Taj0d02is2UNt0UDDYUXvI1aeXFNhijMjbAtYc2ikWgNuphZDY8D1I28gSnNv4k\r\nLTZRYDk2mtYGN70P5DaWBKc2RzXfNlQFKTeHIYk2IpjaNofVszbqlaM2PatTNiKTzDYjx6M2BMHZ\r\nNiXEdDbJOMs2FNCMNsnGRja2BpI2UsiGNvm1vzbR74Q2wLCoNnn3jDa4fK82VqGlNrSAsTYwh5o2\r\n00guNguj5DYiuZI2yg0BN6PItzbTY6w2VXFINoLcTDbWIk82WJ/cNvx6HDZGdqc2ta/1NVwQMDaG\r\n9VE24mqONlq9rDaNiSE2Lay+NpqbcTYGZ3Q2KPqfNicegDbQyZw27RAtNyQhVjazoMU2izz9Npf0\r\njzbhrAg2zKY4Njo2yjZ1hZE2WNZsNrbfvDZiyp42KRFjNr96jjbjaI02RTYRNmwjhzapnyI2B4XY\r\nNltT7jUOLSY20oDqNhJrxDaCZWw2Ct+VNg/LgjZZzMA2Ik1JNrzQuDZxy901azNqNvW2eDaUuVs2\r\ngu+KNta85ja8P/M1FmShNp/ipjb1OIE21Q/2Nr5JmzYXtZU2x6+qNk6LmTZnjYw2mIJGNul2Jjbc\r\nO3A2lquYNuovLTYtgfE1nUlUNgQzNzaIsDM2DIvUNjKBRja+0oY2ExJ5NgPdJzZaSLQ2EtYgN0Wc\r\nDDbIHow2IiiZNgZUVTa1JnM2v3wcNoN3YDYCtgE38JaENkzoaDb0JTc26/WJNoqw9jYFxFI29vNP\r\nNmdCvDZHFIU2xxObNr0sUTblHoc2JrM/NmrbFDYX93o2m4OpNgs6HDaFNl02Rb2TNpjkJjYAADk2\r\n/8chNn7/QTawezM30gsqNidJ8zWKfC02kBYuNmSnnTa80FY2mFN3NkYZWzY4aO41UHmKNkyZiDYh\r\nGC42h1Y6Np6cgzYSij81AnuaNnc6rzZUXG82vp9eNp4h/jWNsEY2k603NuKSjDbHWSo2RxYINlNS\r\nmTaAOlU2yvJmNkqftzZ5VEk26hV8NjWLezbKM9Y1ernFNWi/XDZaEHQ2dhvANhDaRjYMwy82EwC4\r\nNlCNVTbH4IU2Cx1LNk6XlDbcVNA2FB33NQHMjzY6eW02jpZONqrdMTa+lxk267lUNkhoNDZz+TQ3\r\nwulaNoXxEjYQdsQ2lXEcNsiYOjbfz9o2UzpENvQL0TSOQIM10f8gNcLzLzX5w2c1H4efNN2VyTQO\r\nn70011tKNT7aKTUG8/w0QEgiNUCRKjWhXKI03LYLNQzSrjUnb9E0iB65NCpfLzVs4tk0emppNQtw\r\n8zTy2+U0USoLNeRnDTU88Uc19BfdNFPdNDVtA7Q09QQJNdJhKTXqRNg0am3RNG251DQ1KrA0Oj/Y\r\nNOrxkjTQ8cI0+3eXNEYitDR9exs1YvMdNUBR5DR0pQE1EGj5NAq8KTXmxKs0ErgPNTXAAjVM71g1\r\n2McYNch2PjVA3vs0HZGgNJEIOTWY3M40B5RGNGfgUDUIWUw1AAKQNPuJvjRnt4w0M0qUNPpcxjR3\r\nCM0000dJNZjtnTSx6rQ09gISNSzUKjVHscM0TBtXNYWZEDWjpck07HS+NMuEnzTVZ0U1duMGNWCg\r\n6jTs3880YBEXNT+XujRa3bk0wUISNadMADU5AQ411F8ONePs/jS0pjA105FENQ/HnjQmcwg1WPKH\r\nNFq2nTSuOLI0S9MpNbyI/zTAPso0+sXPNPLB3DTur8o0PLbHNPmbnzT+MvY0YjqvNCUXJTXMJp80\r\nndUPNWmVEjXazkY1O5DgNMl4gzVmyAY1rYEfNXmSQTWIrhU1ikoVNSCqpDTaEbY0/AvpNLIwhDSh\r\nIww1MCwENb5Y/zSUBhw1UowYNbXtpzTvlg4155xcNZhCrDRWs9U0k616NIzznjRmnAQ1Khq/NEm9\r\nCTUki940fgEVNZA1JzWkzqg0RtjuNI+WjTW0QRg1omMcNXzDIDUDHKI0NVu3NMMpRDVCjIo0ViIs\r\nNfxAITWCVB81HXTcNB0NXDWG+bE03vcdNf6QMzXAn8s0Eg/NNATJsTQE9U01LMELNX7DoDSIEB41\r\nwLEGNUVbzTQ8Pwo1QFCINBFgFTVn0vo0JOCjNNaR8zQ1vx41DXUDNak+EjUNQYo08gC7NFzPoTSI\r\n7RU1kpUbNYXvKzWOx240VWf0NGRuBzU6PIo0wlCGNT7g9jSWZjw1Ml4BNRvl6jTQR3w1lmHdNGfd\r\nITTobvU0ypuvNEpF+jTjNY40JYO7NCfBbzQijsA0us84Na6J8TQIYwU1V3IrNSwmYTXQ1kU0zKTc\r\nNDTVfzTj6to0SbOuNHwCvTQ/eR01mcuPNPTduTRDjf806a+nNAj20DREKOo0nPlPNQTe+zQNWSo1\r\nlpGmNBv9xzT/tzk1CtkQNapg2jSMQlI1MDUTNRhOMjWh56Q0AygANa8srzRbOwQ187XxNOQlwDSQ\r\nNO80mTAVNaBD6TQbeoo0UM6FNHPMCjV4t7k0gIxkNE02BjXYBQo1AhAcNWJMijS64uA0zd0JNXWm\r\nEDWiijY1ZpSXNNpWpzTYT+k0QHbzNDaorzSGDHs0qT7ONBvuhzSyYys1dPYCNQdToDTk8uU0MwYH\r\nNWYw+TRbj4g1aJxzNHlxCDVIE8c0Nl2SNOyilTRoqUs1KtMvNbhJPjVmcCE12eGANQ1X8jSNKZo0\r\ndGHdNGrcDjXxZ0A0JhPPNJb14jSwx8o0morUNDmP2DTubH40SSbdNE1r7TRT3rk0EZGLNP35LjV1\r\n1640P7XhNLEsczQldYc02X7eNAZ67jSawbI0drgeNb6GtzSMN9U00j4cNQhrBzWSqgw14dAnNYUF\r\nnDTQSpg0P9OMNOHDLTULMsI0QH6VNI2nxDSl5Yc0WHyLNCaeLDXnc6Y0AaCFNBQP7TTJzR41kvoE\r\nNRykHjU6wZw0+cjVNJdR1TSiQQU10AuONaiUkzUExgY1MMYONaRkZTT9EAU11Bu0NC2j3jTIM4A0\r\nal8cNSoRTzXbrSk1FTDYNEBqkjTgDwA1sun9NP5ztDRWob80HSSSNGYkGDWnkuM0RaMANeGLITXo\r\nTow0GNvbNJlRuzSgsOY0CpP5NMVL9jRRErs0aS1TNVNWgDSmPp80Gvy3NBnwGDXWr7M0dB/VNIw8\r\n0DQBkZ410iF5NDXYLTVZSxU1T0S6NHIrqTRzbRA1XDWKNA2phjRVwpo0SPJ1NGzsODX8K6Y0ne6l\r\nNNU3JjWsl7M0wb+kNKhE5TQUaN8041HRNPhNtTRpfuQ09awXNcwLtDS6nqA0qbk4Nbg8qTQ3pSA0\r\nkRS8NLXO0DRqdcQ0b//eNLPvrDQGQu00fPstNS/HMTWPJMc0fIrENBIciDSLv/k00iuaNNjgPDWm\r\not00DFkCNfHQhDTO4qY0xTYDNbDSOTWNTjA1dLcPNZB1uzQDUrY08mkFNZaNRjXzzK00ErsDNVeQ\r\n3zS5HxA1pmTINLQDBTWIxP008Ny+NADrGDWeipI0eMHvM5R6CTWA3x01wRO2NE0PBDXZKrU0GFyV\r\nNOCJrzSgxtE0tQR+NKJP0zTmcMA0zgvvNFJN7TT5eA41x/eHNAie2jTBXoU1JbdYNQAAEDUAZAE8\r\nF6YTPaE6DT5EKNM9dQ3rPVEOUD0ioW480q89PCfdUDzbEfI8OKDUPGwsmDxHYgE9amiBPGR1zjsP\r\nPhU7a3x7OyhGRzygj6g8mBGWPCuBIDwy9E47Dr4TO1iRvDsOzBo7Kk6nOyjG8juQWao70ZvWOxbH\r\n8zuU8n07aPEbPGxKlzygoVs8TMfIO9+xhDsybFY7q+rTO/L8YTx2ZJg8LVf1O0mYPjuCWmQ7fLXf\r\nOt2APzt7zMI7O4D+Ox50Tzw8t+w7lE+pOzStezsIHeo7gHbGO/xxGTz7XIA7vAj1O108gzyol3g7\r\ntww5PFZa6zv7yxw8BjMgPKnvLj13cpY8hhS0PDysuTskGOc6fsrQOrACgDqdYpQ6nrawO0mtIzpq\r\niZQ6oWVXO4pL/Dsyi9U7isI/O5AADzuqPMM6Xcz3OuCjVjsJJAU70nAkO3xeCzuPI4E7G4YiO1p8\r\n7jrINmQ6RKiWOkNYjzquKxk7L5jEOkefiTpiBN05wkIqOcZGDTp6g046RrOpOQ6EwjmtPgQ6e2Gc\r\nOSSjpDlo8ZU55XS9ObmuBzlz4785N8m2OWCrjzo4vB06uHOTOSQohDrAdAk6ttpzOqV9QjpzGTY6\r\n3XEaOsgBjjqKt8k6HvZMOicoGjocq2w6ap4WOhHEADrfCzk63skBOgeJHDrUTnI5YkuiObHDpjmu\r\nSKM5/cCSOf1k+zmMGlI6inluOu+YIDu89m07RVI0O6+Kgzr+5446GKYWOsGMzDkpPtU5IguVOWYu\r\n0Thu2rs5wj2KOYr0Szln8mE5OIzqOdZKbDmJnpY5zvoYORbfcjmJJb45rPudOReeBTpaM7A5gOEv\r\nOfU4rjmBKBo6bN3fOQHYIDpCxO45IMMKOhDuqjnu5385nKuKOcsUJTnO6QY6IssJOqWwlTkE/nk5\r\n982pOYJKFzlMEgc5kM8qOTzQSjkjjFw5oLMhOb3XTTlwQiA5qwrfOFyxBDkkj0w5MGaVOpPkyzkA\r\nWYw5x/dWOdTGaDnThQM6cUq4OS/ykTn8pTU5cg8tOjmUnzmJETc5yAicOQHqsTm7VQY6AgbzOcxp\r\nYTnUlDk5COb3OVNucjnJjtA5lvYsOVSTlDlbCZA5jieCOevY/jld/5M5ZAsQOQCjIjmaXZk5X2sk\r\nOaKvQDn3w2A5sFLsOCInSDnjTPU4Pw52ORiOFTnxB085aOe5Oeymfzkdh5Q4b9kUOTcjiDlltOQ5\r\nW97hOK93TDk6TJo5GxUROfmZKDmqWVg5gnArOZiUUTljp2g5VN4COa51OjmCG6857I8hOQJUyDiy\r\nFeY4PzlIOQnaEjkNa105LJgJOedSTTmft9w4RFvhOEMPBjkBNUc5IxKaOKB0AzlHK0Y5uzfsOA7s\r\nCTnIO1A5K33WOKFk2jjp16849C8QOWZpPTn28K85JD91Ocr4pTiAdCY50TmeOH4OPTl/1vM4rUTC\r\nOKr9azkWMbo4F7ngOLhyVDn8tgw5pjZnOXrXVTgwxCo4OQx/OXmv4TiOkZs4EjRhOc/BKzm9HJg4\r\nmNmEOBptqTgOwN44isnuOMjHEDkVGqA5ZsgfOcwJgTn/qS85F5G9OSUi8Th4/wU58kwEOcGM0znk\r\nW1o5KBbSOPxmrjgoieg4mOJqOacY5jhwBhY5iXUjOeCfAjn89RI53mOTOE5nnDgXwQo59x/YOLsN\r\nvzisAgg5ZZXBONJSyTg4ChA5g0OvOOLhCzk2PkQ5yZUgOf1/lTgIavM4G5cEObRwszj5plM54Ngg\r\nOTpfCjmgXsE4/c7tOPbIHjng2QM52pkWOVEIBjnWdfE44lgEOVkCJTm3Js04paCwOJruaDnED7c4\r\nlngHOd1wSThLgdw4+MM6OWkNiTjQTig4ZOnTNxI6RTeeDew2cZ29Nv7NAjclhNM2iMnzNsyKczZM\r\nTqE2NwIANyN0CjdyN5Q2WgazNq/6RTZdvu82CgJ2NnBTbzZ2Y8g2nCmlNornMTbyM/U2XdYuNnYx\r\nDDZETwI3eL+nNkEyGTdWc042Yb0WNzGqlDaNeNI2vHqNNkA4sDYmdYE2+cmANhHYVzaKnIs2sgCG\r\nNgmRtTZMoZo22v10NnRMhzYJ96I2OKTLNuYomzb9GYQ2aZ4gNg34YTYuHZo2W3zKNg54fjYZjkw2\r\nf2wUN3Od0TYrN5w2qv+fNtmNlTawHlI20q1xNtWcgzbalsQ2aqh0NqiRqzZJr+Y1tKkfNvwthjbs\r\njso2aMOjNjtLWzaqzNg2QuVVNvmDcTZsOcU2ODthNmCKmjZkwsw2JO2RNrvV7zZ/j5g2X3SCNuWv\r\njDatdLA22aTFNuHopjZGQ1k280BwNm9ZdzZuF3o2uV16NukrgjZ0cmI2oP0yNtheUDbrCZM2IZD3\r\nNcjiiDbmV9M2x6S6NnU/pzZADwg2huV1NusKwzZOBTQ2+FGNNgbaCjZtFJo2oEWzNnsKijZWeO02\r\nGtuJNu8IdjY49Yg2Mr2ANg3ZzjZiM+s2PSKeNoMphDa/F582hoJcNt0QxjZWOKM2KJ8XNqxVQjbY\r\ngaI2GZ6aNs0bpTU+g5g2tEowNtIkZDYOlas2ZR1xNtIkgzZRo4A2kxo0Nq+R7DZCmS43Jnh6NgQS\r\nbDb4RYg2lNw9NuvPkzYiw3I2yo89NhID7TYcIIw26OkjNrMkKzbG26s2fgyyNkykhTarGu41ZVyZ\r\nNs59hja4/3g2DVwlNg8S/DWud6U2N9IvNgCXSjbgmnM2uSBPNn7iXza+E8Q2IrczNgAgGTbUpLw1\r\nmKpzNoJSGzdiAoM2ZpDFNfrlFDY4tAI2RI+mNgX6UTb+VoU2addaNhrNCTZZFHA2uMncNXzMSzbJ\r\nKYk2chpoNlUqsTVQL942eABrNmzNjTZ3X0o2gnWBNn72gTZLTEE2lwQzNgfuCjaKZ0A2Cn+pNqDa\r\nNzbbTXE2Jn7UNu4UKDZVMoQ2j46fNsCxMzbOjB026lnINRYmezYubI02j29ONiv6jzYkvQU24bo/\r\nNlRyPzacL0c24hOWNpYhiDbn4/U1XMKXNjdHgzYwUO01kmwQNsrkGjZWzx02IdkDNtNSCTdR2VE2\r\nthtfNuRpyzaptiM2tEQ0Nkz1XDaF2zA2q9VKNcwlKDW1Wt007vuJNFq4yzRjGzI175BhNbYW/jTC\r\n50I1fp2dNJ2JFzXcfBY1j6wVNck7ADXKUgk1IqzANOh0JjVVrrw0Msw2NZKFGTUaPUI1fBNaNcVN\r\nSTUON7Q0P4fQNFKuFzUxPlU1sICqNGd1ajTm2QI1i7CcNE6RhzRis6A0+Hg7Nbaz2zTd5O41Lo6Q\r\nNCC46jRqY4k02LwPNQsD+zQS2kY1DgsZNQCcHDWKMa00NY4gNbBtFDXqiRc1oiMKNXSGhzRgRxs1\r\nsvCONXglnTQaJsk0VZcVNTwSAjVbovE0HAgiNYYOkDWs+Bk1NoTxNOmQHzWwgbI0cTRKNEIM5zRm\r\n0Eo1Lt3NNDT7uTSlUH81fpTdNNbDuDR5QIA1bivBNDg8tDTqSAw1juzKNPjckTXYQus0QHrGNAe/\r\nzjT+Kxk1k1EENS6XETW7x+g0SgvDNLGCvzSIgvk0RU2fNNSwojQOc7k03IPMNCf6ETV8ef00kiUz\r\nNaCP5DSyjgI1NzurNDzYBDVnrxg1wWfANHpDdjTTMLM0SyeuNCZrpDTpSwg1kQXWNKnmtjTd4L00\r\nCjEvNe+3XjWZAko1Ym35NPTQoTRMXRI1/Kv1NNnw+TREn580ApgENQioMTUc6Qw1wGDtNMWVAjX6\r\nRmI1CN1MNL0nqzQdttc0yKQdNbOO9jSg9bU00Ta0NPpG8jRwfn81zM+VNG1DtzQjBjQ133YnNRiY\r\nzzSD58A0vVEGNeQz7TQc+8c0alDxNOYeqTRZjwM1A1X7NKFF9DRfJtM0Vc0BNUYGIjUIksE0MIwp\r\nNYA4xDQyT2E0+rrONBaUKjWcVbs0lgEXNQhoLjVqYfM0QkIHNXxZBjWjN9A04CoHNf4JgzRmC1I1\r\nHvk2NR48nDSMgG00Zf32NNotNDWhucs0OhP6NCbLvjSa08g0UXkUNWHkGjU2b7M0Jjf1NNWAHTX2\r\nAKk0D22rNDpwCjVAdSE1wIe3NKki1DQ7h1c0c56RNM+EHDWeNvs0MQ70NEBr+DSzItM00gbWNHQw\r\nKDULfMQ0x//kNPxv2TTQtDM1WH4UNV82NTXQGQs1zfzkNE4e5zQRzgg1/pbnNGCS0TTOFd40v6/x\r\nNAS1tjRCvqU0IwneNHHchzWWIeA0UM+4NK8f9TRyIZM0h7UINdtvGDWwIMU0f+g7NQZH3jSvXyg1\r\nQFDUNEfN1zTFaJE0vTVhNZhtEzVsOCo1lI2DNKvBcDU7hyA1G3lgNdKy/jT5BOE0W5yZNMVKxTQt\r\nffo0UfUYNfYY1jRmNic1cjOcNHhM3TQltw01y+wGNdUXAzWjaYQ1EAGsNAMnHTXG2Ok0b2sZNdaU\r\nnTTqTu80BYtpNRavBjXpXoY0gY8TNRz6MzTZ+bU0CwEyNeatmjTYpAw1XQ0NNS4fMDUD3N80w5kB\r\nNbZ+wDSHwM80LsdINflVQTXijxU12ckXNexXHTV3aAk1Y0gINRwPEzWrSkk1gEhcNcKckzRnQdM0\r\nylE8NZTlGjWZRXo1mYPiNKOIGDX9VSk1SDywNE/uAjVE05U0/LpeNYJ8uDT+TwI1K57TNKdFFTVQ\r\nmmw1bxHxNNasyjTwQdg0uDi0NKQl/jRwNLM0eBffNHVFvDRC6IA0QxjQNA8uczQLG6o0fGK7NO7j\r\nmzQBYqc0PLzWNLgI9DTcW6Q0a0AZNYg9STUbsVQ1+5sfNVyxoTRchak0ZlS/NIZF8DQC/LA0KHW2\r\nNAKVBzVhPRg1IxGrNNrwCDVtxBU1lnAcNYeauTTwp/s0RXHANLDJwzTVLtw0yWgLNdyaGTVZOe00\r\nJFcoNZ6B7TQG/MU0+DEUNQFt/DRtlSo14IBuNQxXyzRAZsw0OmxvNepc4TQsbOo0BX5pNeLZFjVa\r\nUP00/NC+NDfFxzSk/Jk0Xv9WNFcJFTUkCfs0nPhONWb3szQLn8U07ItQNLGo0DSMwQE17Z/PNNec\r\n0zRaof0076bINOo8GzXNlYU0hEQkNTyH5jT2YwU1rPNDNQ/OwzRUsuM0rNi/NPhc8DQKmUg1hNDu\r\nNFsmCjUDuzw1VasyNef7cjVSnrA0plT5NKXLhzSFNZ00Ed+nNCFdUDUWMQI1JJnbNNcqvjQMb+40\r\nMCZxNWBYzTTT7DQ1EXZRNffmaTV+3a80W4eUNHE8DjXgGu40gRDrNBPuqjTmEDY1ol3ONJbeJTVU\r\n2RE1pL7HNICD5TRWWw816jZdNU5+4zSdEBA1+UiKNPe7OzXoSB81ciQHNY2hujSihSE1Zmy4NC66\r\njjSDV6M0zDuqNH8orDToE6s0mAmlNNh/LDUtZTA1POHGNHfLdzTbIis17ZIdNZocBDVvRKE0QmwB\r\nNYXQijQkWAs1oC2hNA2Z5TSh2c00fEGaNMT8ujTDZ5w0Y1z7NI2ELjWyxiA1AEAcNQ==",
                            "noiseTrainingType" : "default"
                          }
                        }
                    ],
                    "start" : 1784,
                    "duration" : 36,
                    "mediaStart" : 1865,
                    "mediaDuration" : 36,
                    "scalar" : 1,
                    "metadata" : {
                      "WinSubProjectDisplayName" : "",
                      "clipSpeedAttribute" : false
                    },
                    "animationTracks" : {

                    }
                  },
                  {
                    "id" : 357,
                    "_type" : "AMFile",
                    "src" : 15,
                    "trackNumber" : 0,
                    "attributes" : {
                      "ident" : "旁白_vis2021 1",
                      "sampleRate" : 44100,
                      "bitDepth" : 16,
                      "gain" : 1.0,
                      "mixToMono" : false
                    },
                      "channelNumber" : "0,1",
                    "effects" : [
                        {
                          "effectName" : "NoiseReduction",
                          "parameters" : {
                            "denoiserAmount" : 20.0,
                            "denoiserThreshold" : 0.0,
                            "noiseProfile" : "OWoAPH2pEz2x9Qw+d6HTPcva6j2sp089E2dtPD6vPDwfl1A8ScjwPJTr1Txy35g8LaEAPTpegDyh\r\n+807XKYVO6TEeztxHEg8k5enPOCDljxR1SA80RNNO5P/FTsAUsA78qcaO7cppTsc2vE7qgSrO6lQ\r\n2jukqvI7h92AO2yWGzx+tZU8JitaPFzIyTuXwYE7uY9XO8aQ0Dvqq2I88amYPMnb9DtB2j87KTBk\r\nOzy52zoRSDw7OCjBO9xi/DtxwE88KlbqO3j0qDtWJH47VJnsO9JoxDuANhs8tJ+AO6Qz9Tth+oI8\r\nbGt3O1T1Nzzjhew74A0cPJAvITwici89BseWPGFNtDxkw7o7MRvlOmld0jryf386QXGZOrHMrzuA\r\ngR46FrCVOsPpWDsY4v07HUbYO1nLPjsw9w47wr3FOrnZ+Drc3FY7lUkJO7DAJDv2mAY7Bol9O6Gv\r\nIjui8ek64NliOq5vmTrG/ZM6bCYbO5q5tzpF2YA69unhOXdvJDkMXx461iVVOpU6tTmIPdU5NZ4C\r\nOrLzrDlzv6053gyzOSasszlLTgc5O7atOcYrxzkKtYw6r9cjOpoinjlRRog6Q9QHOqLsbTo5k0E6\r\n9U47OqgHGzq2DIw6xrvIOkIITzrGgR86I/hwOsTOFzq0IQU6isQ5OkIP9DmC+Bw6hsx0OYy4pDnt\r\nMqk5f6afOfFKnDnqIvc5SsRQOpXvdDp8CiE703psOwEALztW+4A6r36ROtKuGDoo4s852RrZOQKM\r\nhDmkgtY4CBe5OXJ5jDnBcjY5RM9jObGZ+DmyHG05aluSOaagETnIyGM5Jt2dOdUxnTmBHwU6PPyu\r\nOQ2PETl6x7k5tcInOtV63TnmcCY6dHftOUWtBzoIt6w5qk+GOf1mbTk4DT454wsLOh2HAjoY+ZY5\r\nyr2VOQQurzmqnRg5LDMFOZLQUjkvV1Q5/g1+OSlxFzlITz85XmAkOdDG/DjiIfM4htxWOREUlTqh\r\nwcw5VnaGOWCBXjn90lA5cKzvOWPrqzkL/o45sEFOOTkyMDpUc5s51oo9ORByjjlGCco52p/tORKy\r\n8Tnit2E51lY0Ofo+ATq6o3Y5Z021OYTVGDlRAq45zuyhOeA4ZDk52eE5nw91ORI2OzlB2R85fgab\r\nOY8bMjkQ1TA5cCaFOXju/Dh2ghM59YD8OFHmfzmnKiQ58YpfOXsbtzlCtX45yEWKOLGkLDkayH45\r\nRUrSOSltyTgvk1U5NT2NOY45EjnfihY5JFlqOTokTjlSlV45Ir54OQ1W5jifjjI5bWS5OfA8NDkO\r\nXs44QhjgOLbnOjkr+iw5hK5/Ocz3Azl6HF45q6DlOIJb2DiR79I4esU3OWtGjDg4gBM5cVloOdzR\r\nDTlkchs5GGg7OVSTtziXOeg4XazEOCiMADmz6Tw5ueqOOVcmeTmS4Ms4nI0UOUTLnjhAXjc56pkE\r\nOdXdBznEOY85PIy4OMxI5zgkSxk5r6oQObvARTnCtUo4LoVEONjrVjnfUsw4msCWOCWAQjlc/y45\r\nJ4KtOCzJrjjGJZ84BKXjOIHj2jhi+yE5rqqOOdCIIzm9fIM56Oo3OUSjtzmiT/M4Wiv3OJw6ETmO\r\nS8w53FJpOdbu1DiJSZs4DaoFOWqKWDkkyvU4GPIdOchJLDmxKwA54MMWOVgzmjgl75M44OcEOVPH\r\n3Dhmzdw4X9sOOb2CyTguC7Y4VgEmOTaQxDjBUAQ5dAM9OarFHjmfj444qMgAOWZMDDmSlas4yUZQ\r\nOaDeMTmPogU5Wxe1OF0m3Dh6aDQ5tbkIObjoEzlqqg45EPLvOKyF+zhUmiE57MvFOPg/vDiW+Vo5\r\nmhyzOGFsBTldBEw4dL3pOOk/QDnXnJQ467sNONFyxDfGPDM3rTsZN+BixjZrWTk338GlNhf/FTe5\r\nNTk2RTSUNkMj3Taj0d02is2UNt0UDDYUXvI1aeXFNhijMjbAtYc2ikWgNuphZDY8D1I28gSnNv4k\r\nLTZRYDk2mtYGN70P5DaWBKc2RzXfNlQFKTeHIYk2IpjaNofVszbqlaM2PatTNiKTzDYjx6M2BMHZ\r\nNiXEdDbJOMs2FNCMNsnGRja2BpI2UsiGNvm1vzbR74Q2wLCoNnn3jDa4fK82VqGlNrSAsTYwh5o2\r\n00guNguj5DYiuZI2yg0BN6PItzbTY6w2VXFINoLcTDbWIk82WJ/cNvx6HDZGdqc2ta/1NVwQMDaG\r\n9VE24mqONlq9rDaNiSE2Lay+NpqbcTYGZ3Q2KPqfNicegDbQyZw27RAtNyQhVjazoMU2izz9Npf0\r\njzbhrAg2zKY4Njo2yjZ1hZE2WNZsNrbfvDZiyp42KRFjNr96jjbjaI02RTYRNmwjhzapnyI2B4XY\r\nNltT7jUOLSY20oDqNhJrxDaCZWw2Ct+VNg/LgjZZzMA2Ik1JNrzQuDZxy901azNqNvW2eDaUuVs2\r\ngu+KNta85ja8P/M1FmShNp/ipjb1OIE21Q/2Nr5JmzYXtZU2x6+qNk6LmTZnjYw2mIJGNul2Jjbc\r\nO3A2lquYNuovLTYtgfE1nUlUNgQzNzaIsDM2DIvUNjKBRja+0oY2ExJ5NgPdJzZaSLQ2EtYgN0Wc\r\nDDbIHow2IiiZNgZUVTa1JnM2v3wcNoN3YDYCtgE38JaENkzoaDb0JTc26/WJNoqw9jYFxFI29vNP\r\nNmdCvDZHFIU2xxObNr0sUTblHoc2JrM/NmrbFDYX93o2m4OpNgs6HDaFNl02Rb2TNpjkJjYAADk2\r\n/8chNn7/QTawezM30gsqNidJ8zWKfC02kBYuNmSnnTa80FY2mFN3NkYZWzY4aO41UHmKNkyZiDYh\r\nGC42h1Y6Np6cgzYSij81AnuaNnc6rzZUXG82vp9eNp4h/jWNsEY2k603NuKSjDbHWSo2RxYINlNS\r\nmTaAOlU2yvJmNkqftzZ5VEk26hV8NjWLezbKM9Y1ernFNWi/XDZaEHQ2dhvANhDaRjYMwy82EwC4\r\nNlCNVTbH4IU2Cx1LNk6XlDbcVNA2FB33NQHMjzY6eW02jpZONqrdMTa+lxk267lUNkhoNDZz+TQ3\r\nwulaNoXxEjYQdsQ2lXEcNsiYOjbfz9o2UzpENvQL0TSOQIM10f8gNcLzLzX5w2c1H4efNN2VyTQO\r\nn70011tKNT7aKTUG8/w0QEgiNUCRKjWhXKI03LYLNQzSrjUnb9E0iB65NCpfLzVs4tk0emppNQtw\r\n8zTy2+U0USoLNeRnDTU88Uc19BfdNFPdNDVtA7Q09QQJNdJhKTXqRNg0am3RNG251DQ1KrA0Oj/Y\r\nNOrxkjTQ8cI0+3eXNEYitDR9exs1YvMdNUBR5DR0pQE1EGj5NAq8KTXmxKs0ErgPNTXAAjVM71g1\r\n2McYNch2PjVA3vs0HZGgNJEIOTWY3M40B5RGNGfgUDUIWUw1AAKQNPuJvjRnt4w0M0qUNPpcxjR3\r\nCM0000dJNZjtnTSx6rQ09gISNSzUKjVHscM0TBtXNYWZEDWjpck07HS+NMuEnzTVZ0U1duMGNWCg\r\n6jTs3880YBEXNT+XujRa3bk0wUISNadMADU5AQ411F8ONePs/jS0pjA105FENQ/HnjQmcwg1WPKH\r\nNFq2nTSuOLI0S9MpNbyI/zTAPso0+sXPNPLB3DTur8o0PLbHNPmbnzT+MvY0YjqvNCUXJTXMJp80\r\nndUPNWmVEjXazkY1O5DgNMl4gzVmyAY1rYEfNXmSQTWIrhU1ikoVNSCqpDTaEbY0/AvpNLIwhDSh\r\nIww1MCwENb5Y/zSUBhw1UowYNbXtpzTvlg4155xcNZhCrDRWs9U0k616NIzznjRmnAQ1Khq/NEm9\r\nCTUki940fgEVNZA1JzWkzqg0RtjuNI+WjTW0QRg1omMcNXzDIDUDHKI0NVu3NMMpRDVCjIo0ViIs\r\nNfxAITWCVB81HXTcNB0NXDWG+bE03vcdNf6QMzXAn8s0Eg/NNATJsTQE9U01LMELNX7DoDSIEB41\r\nwLEGNUVbzTQ8Pwo1QFCINBFgFTVn0vo0JOCjNNaR8zQ1vx41DXUDNak+EjUNQYo08gC7NFzPoTSI\r\n7RU1kpUbNYXvKzWOx240VWf0NGRuBzU6PIo0wlCGNT7g9jSWZjw1Ml4BNRvl6jTQR3w1lmHdNGfd\r\nITTobvU0ypuvNEpF+jTjNY40JYO7NCfBbzQijsA0us84Na6J8TQIYwU1V3IrNSwmYTXQ1kU0zKTc\r\nNDTVfzTj6to0SbOuNHwCvTQ/eR01mcuPNPTduTRDjf806a+nNAj20DREKOo0nPlPNQTe+zQNWSo1\r\nlpGmNBv9xzT/tzk1CtkQNapg2jSMQlI1MDUTNRhOMjWh56Q0AygANa8srzRbOwQ187XxNOQlwDSQ\r\nNO80mTAVNaBD6TQbeoo0UM6FNHPMCjV4t7k0gIxkNE02BjXYBQo1AhAcNWJMijS64uA0zd0JNXWm\r\nEDWiijY1ZpSXNNpWpzTYT+k0QHbzNDaorzSGDHs0qT7ONBvuhzSyYys1dPYCNQdToDTk8uU0MwYH\r\nNWYw+TRbj4g1aJxzNHlxCDVIE8c0Nl2SNOyilTRoqUs1KtMvNbhJPjVmcCE12eGANQ1X8jSNKZo0\r\ndGHdNGrcDjXxZ0A0JhPPNJb14jSwx8o0morUNDmP2DTubH40SSbdNE1r7TRT3rk0EZGLNP35LjV1\r\n1640P7XhNLEsczQldYc02X7eNAZ67jSawbI0drgeNb6GtzSMN9U00j4cNQhrBzWSqgw14dAnNYUF\r\nnDTQSpg0P9OMNOHDLTULMsI0QH6VNI2nxDSl5Yc0WHyLNCaeLDXnc6Y0AaCFNBQP7TTJzR41kvoE\r\nNRykHjU6wZw0+cjVNJdR1TSiQQU10AuONaiUkzUExgY1MMYONaRkZTT9EAU11Bu0NC2j3jTIM4A0\r\nal8cNSoRTzXbrSk1FTDYNEBqkjTgDwA1sun9NP5ztDRWob80HSSSNGYkGDWnkuM0RaMANeGLITXo\r\nTow0GNvbNJlRuzSgsOY0CpP5NMVL9jRRErs0aS1TNVNWgDSmPp80Gvy3NBnwGDXWr7M0dB/VNIw8\r\n0DQBkZ410iF5NDXYLTVZSxU1T0S6NHIrqTRzbRA1XDWKNA2phjRVwpo0SPJ1NGzsODX8K6Y0ne6l\r\nNNU3JjWsl7M0wb+kNKhE5TQUaN8041HRNPhNtTRpfuQ09awXNcwLtDS6nqA0qbk4Nbg8qTQ3pSA0\r\nkRS8NLXO0DRqdcQ0b//eNLPvrDQGQu00fPstNS/HMTWPJMc0fIrENBIciDSLv/k00iuaNNjgPDWm\r\not00DFkCNfHQhDTO4qY0xTYDNbDSOTWNTjA1dLcPNZB1uzQDUrY08mkFNZaNRjXzzK00ErsDNVeQ\r\n3zS5HxA1pmTINLQDBTWIxP008Ny+NADrGDWeipI0eMHvM5R6CTWA3x01wRO2NE0PBDXZKrU0GFyV\r\nNOCJrzSgxtE0tQR+NKJP0zTmcMA0zgvvNFJN7TT5eA41x/eHNAie2jTBXoU1JbdYNQAAEDUAZAE8\r\nF6YTPaE6DT5EKNM9dQ3rPVEOUD0ioW480q89PCfdUDzbEfI8OKDUPGwsmDxHYgE9amiBPGR1zjsP\r\nPhU7a3x7OyhGRzygj6g8mBGWPCuBIDwy9E47Dr4TO1iRvDsOzBo7Kk6nOyjG8juQWao70ZvWOxbH\r\n8zuU8n07aPEbPGxKlzygoVs8TMfIO9+xhDsybFY7q+rTO/L8YTx2ZJg8LVf1O0mYPjuCWmQ7fLXf\r\nOt2APzt7zMI7O4D+Ox50Tzw8t+w7lE+pOzStezsIHeo7gHbGO/xxGTz7XIA7vAj1O108gzyol3g7\r\ntww5PFZa6zv7yxw8BjMgPKnvLj13cpY8hhS0PDysuTskGOc6fsrQOrACgDqdYpQ6nrawO0mtIzpq\r\niZQ6oWVXO4pL/Dsyi9U7isI/O5AADzuqPMM6Xcz3OuCjVjsJJAU70nAkO3xeCzuPI4E7G4YiO1p8\r\n7jrINmQ6RKiWOkNYjzquKxk7L5jEOkefiTpiBN05wkIqOcZGDTp6g046RrOpOQ6EwjmtPgQ6e2Gc\r\nOSSjpDlo8ZU55XS9ObmuBzlz4785N8m2OWCrjzo4vB06uHOTOSQohDrAdAk6ttpzOqV9QjpzGTY6\r\n3XEaOsgBjjqKt8k6HvZMOicoGjocq2w6ap4WOhHEADrfCzk63skBOgeJHDrUTnI5YkuiObHDpjmu\r\nSKM5/cCSOf1k+zmMGlI6inluOu+YIDu89m07RVI0O6+Kgzr+5446GKYWOsGMzDkpPtU5IguVOWYu\r\n0Thu2rs5wj2KOYr0Szln8mE5OIzqOdZKbDmJnpY5zvoYORbfcjmJJb45rPudOReeBTpaM7A5gOEv\r\nOfU4rjmBKBo6bN3fOQHYIDpCxO45IMMKOhDuqjnu5385nKuKOcsUJTnO6QY6IssJOqWwlTkE/nk5\r\n982pOYJKFzlMEgc5kM8qOTzQSjkjjFw5oLMhOb3XTTlwQiA5qwrfOFyxBDkkj0w5MGaVOpPkyzkA\r\nWYw5x/dWOdTGaDnThQM6cUq4OS/ykTn8pTU5cg8tOjmUnzmJETc5yAicOQHqsTm7VQY6AgbzOcxp\r\nYTnUlDk5COb3OVNucjnJjtA5lvYsOVSTlDlbCZA5jieCOevY/jld/5M5ZAsQOQCjIjmaXZk5X2sk\r\nOaKvQDn3w2A5sFLsOCInSDnjTPU4Pw52ORiOFTnxB085aOe5Oeymfzkdh5Q4b9kUOTcjiDlltOQ5\r\nW97hOK93TDk6TJo5GxUROfmZKDmqWVg5gnArOZiUUTljp2g5VN4COa51OjmCG6857I8hOQJUyDiy\r\nFeY4PzlIOQnaEjkNa105LJgJOedSTTmft9w4RFvhOEMPBjkBNUc5IxKaOKB0AzlHK0Y5uzfsOA7s\r\nCTnIO1A5K33WOKFk2jjp16849C8QOWZpPTn28K85JD91Ocr4pTiAdCY50TmeOH4OPTl/1vM4rUTC\r\nOKr9azkWMbo4F7ngOLhyVDn8tgw5pjZnOXrXVTgwxCo4OQx/OXmv4TiOkZs4EjRhOc/BKzm9HJg4\r\nmNmEOBptqTgOwN44isnuOMjHEDkVGqA5ZsgfOcwJgTn/qS85F5G9OSUi8Th4/wU58kwEOcGM0znk\r\nW1o5KBbSOPxmrjgoieg4mOJqOacY5jhwBhY5iXUjOeCfAjn89RI53mOTOE5nnDgXwQo59x/YOLsN\r\nvzisAgg5ZZXBONJSyTg4ChA5g0OvOOLhCzk2PkQ5yZUgOf1/lTgIavM4G5cEObRwszj5plM54Ngg\r\nOTpfCjmgXsE4/c7tOPbIHjng2QM52pkWOVEIBjnWdfE44lgEOVkCJTm3Js04paCwOJruaDnED7c4\r\nlngHOd1wSThLgdw4+MM6OWkNiTjQTig4ZOnTNxI6RTeeDew2cZ29Nv7NAjclhNM2iMnzNsyKczZM\r\nTqE2NwIANyN0CjdyN5Q2WgazNq/6RTZdvu82CgJ2NnBTbzZ2Y8g2nCmlNornMTbyM/U2XdYuNnYx\r\nDDZETwI3eL+nNkEyGTdWc042Yb0WNzGqlDaNeNI2vHqNNkA4sDYmdYE2+cmANhHYVzaKnIs2sgCG\r\nNgmRtTZMoZo22v10NnRMhzYJ96I2OKTLNuYomzb9GYQ2aZ4gNg34YTYuHZo2W3zKNg54fjYZjkw2\r\nf2wUN3Od0TYrN5w2qv+fNtmNlTawHlI20q1xNtWcgzbalsQ2aqh0NqiRqzZJr+Y1tKkfNvwthjbs\r\njso2aMOjNjtLWzaqzNg2QuVVNvmDcTZsOcU2ODthNmCKmjZkwsw2JO2RNrvV7zZ/j5g2X3SCNuWv\r\njDatdLA22aTFNuHopjZGQ1k280BwNm9ZdzZuF3o2uV16NukrgjZ0cmI2oP0yNtheUDbrCZM2IZD3\r\nNcjiiDbmV9M2x6S6NnU/pzZADwg2huV1NusKwzZOBTQ2+FGNNgbaCjZtFJo2oEWzNnsKijZWeO02\r\nGtuJNu8IdjY49Yg2Mr2ANg3ZzjZiM+s2PSKeNoMphDa/F582hoJcNt0QxjZWOKM2KJ8XNqxVQjbY\r\ngaI2GZ6aNs0bpTU+g5g2tEowNtIkZDYOlas2ZR1xNtIkgzZRo4A2kxo0Nq+R7DZCmS43Jnh6NgQS\r\nbDb4RYg2lNw9NuvPkzYiw3I2yo89NhID7TYcIIw26OkjNrMkKzbG26s2fgyyNkykhTarGu41ZVyZ\r\nNs59hja4/3g2DVwlNg8S/DWud6U2N9IvNgCXSjbgmnM2uSBPNn7iXza+E8Q2IrczNgAgGTbUpLw1\r\nmKpzNoJSGzdiAoM2ZpDFNfrlFDY4tAI2RI+mNgX6UTb+VoU2addaNhrNCTZZFHA2uMncNXzMSzbJ\r\nKYk2chpoNlUqsTVQL942eABrNmzNjTZ3X0o2gnWBNn72gTZLTEE2lwQzNgfuCjaKZ0A2Cn+pNqDa\r\nNzbbTXE2Jn7UNu4UKDZVMoQ2j46fNsCxMzbOjB026lnINRYmezYubI02j29ONiv6jzYkvQU24bo/\r\nNlRyPzacL0c24hOWNpYhiDbn4/U1XMKXNjdHgzYwUO01kmwQNsrkGjZWzx02IdkDNtNSCTdR2VE2\r\nthtfNuRpyzaptiM2tEQ0Nkz1XDaF2zA2q9VKNcwlKDW1Wt007vuJNFq4yzRjGzI175BhNbYW/jTC\r\n50I1fp2dNJ2JFzXcfBY1j6wVNck7ADXKUgk1IqzANOh0JjVVrrw0Msw2NZKFGTUaPUI1fBNaNcVN\r\nSTUON7Q0P4fQNFKuFzUxPlU1sICqNGd1ajTm2QI1i7CcNE6RhzRis6A0+Hg7Nbaz2zTd5O41Lo6Q\r\nNCC46jRqY4k02LwPNQsD+zQS2kY1DgsZNQCcHDWKMa00NY4gNbBtFDXqiRc1oiMKNXSGhzRgRxs1\r\nsvCONXglnTQaJsk0VZcVNTwSAjVbovE0HAgiNYYOkDWs+Bk1NoTxNOmQHzWwgbI0cTRKNEIM5zRm\r\n0Eo1Lt3NNDT7uTSlUH81fpTdNNbDuDR5QIA1bivBNDg8tDTqSAw1juzKNPjckTXYQus0QHrGNAe/\r\nzjT+Kxk1k1EENS6XETW7x+g0SgvDNLGCvzSIgvk0RU2fNNSwojQOc7k03IPMNCf6ETV8ef00kiUz\r\nNaCP5DSyjgI1NzurNDzYBDVnrxg1wWfANHpDdjTTMLM0SyeuNCZrpDTpSwg1kQXWNKnmtjTd4L00\r\nCjEvNe+3XjWZAko1Ym35NPTQoTRMXRI1/Kv1NNnw+TREn580ApgENQioMTUc6Qw1wGDtNMWVAjX6\r\nRmI1CN1MNL0nqzQdttc0yKQdNbOO9jSg9bU00Ta0NPpG8jRwfn81zM+VNG1DtzQjBjQ133YnNRiY\r\nzzSD58A0vVEGNeQz7TQc+8c0alDxNOYeqTRZjwM1A1X7NKFF9DRfJtM0Vc0BNUYGIjUIksE0MIwp\r\nNYA4xDQyT2E0+rrONBaUKjWcVbs0lgEXNQhoLjVqYfM0QkIHNXxZBjWjN9A04CoHNf4JgzRmC1I1\r\nHvk2NR48nDSMgG00Zf32NNotNDWhucs0OhP6NCbLvjSa08g0UXkUNWHkGjU2b7M0Jjf1NNWAHTX2\r\nAKk0D22rNDpwCjVAdSE1wIe3NKki1DQ7h1c0c56RNM+EHDWeNvs0MQ70NEBr+DSzItM00gbWNHQw\r\nKDULfMQ0x//kNPxv2TTQtDM1WH4UNV82NTXQGQs1zfzkNE4e5zQRzgg1/pbnNGCS0TTOFd40v6/x\r\nNAS1tjRCvqU0IwneNHHchzWWIeA0UM+4NK8f9TRyIZM0h7UINdtvGDWwIMU0f+g7NQZH3jSvXyg1\r\nQFDUNEfN1zTFaJE0vTVhNZhtEzVsOCo1lI2DNKvBcDU7hyA1G3lgNdKy/jT5BOE0W5yZNMVKxTQt\r\nffo0UfUYNfYY1jRmNic1cjOcNHhM3TQltw01y+wGNdUXAzWjaYQ1EAGsNAMnHTXG2Ok0b2sZNdaU\r\nnTTqTu80BYtpNRavBjXpXoY0gY8TNRz6MzTZ+bU0CwEyNeatmjTYpAw1XQ0NNS4fMDUD3N80w5kB\r\nNbZ+wDSHwM80LsdINflVQTXijxU12ckXNexXHTV3aAk1Y0gINRwPEzWrSkk1gEhcNcKckzRnQdM0\r\nylE8NZTlGjWZRXo1mYPiNKOIGDX9VSk1SDywNE/uAjVE05U0/LpeNYJ8uDT+TwI1K57TNKdFFTVQ\r\nmmw1bxHxNNasyjTwQdg0uDi0NKQl/jRwNLM0eBffNHVFvDRC6IA0QxjQNA8uczQLG6o0fGK7NO7j\r\nmzQBYqc0PLzWNLgI9DTcW6Q0a0AZNYg9STUbsVQ1+5sfNVyxoTRchak0ZlS/NIZF8DQC/LA0KHW2\r\nNAKVBzVhPRg1IxGrNNrwCDVtxBU1lnAcNYeauTTwp/s0RXHANLDJwzTVLtw0yWgLNdyaGTVZOe00\r\nJFcoNZ6B7TQG/MU0+DEUNQFt/DRtlSo14IBuNQxXyzRAZsw0OmxvNepc4TQsbOo0BX5pNeLZFjVa\r\nUP00/NC+NDfFxzSk/Jk0Xv9WNFcJFTUkCfs0nPhONWb3szQLn8U07ItQNLGo0DSMwQE17Z/PNNec\r\n0zRaof0076bINOo8GzXNlYU0hEQkNTyH5jT2YwU1rPNDNQ/OwzRUsuM0rNi/NPhc8DQKmUg1hNDu\r\nNFsmCjUDuzw1VasyNef7cjVSnrA0plT5NKXLhzSFNZ00Ed+nNCFdUDUWMQI1JJnbNNcqvjQMb+40\r\nMCZxNWBYzTTT7DQ1EXZRNffmaTV+3a80W4eUNHE8DjXgGu40gRDrNBPuqjTmEDY1ol3ONJbeJTVU\r\n2RE1pL7HNICD5TRWWw816jZdNU5+4zSdEBA1+UiKNPe7OzXoSB81ciQHNY2hujSihSE1Zmy4NC66\r\njjSDV6M0zDuqNH8orDToE6s0mAmlNNh/LDUtZTA1POHGNHfLdzTbIis17ZIdNZocBDVvRKE0QmwB\r\nNYXQijQkWAs1oC2hNA2Z5TSh2c00fEGaNMT8ujTDZ5w0Y1z7NI2ELjWyxiA1AEAcNQ==",
                            "noiseTrainingType" : "default"
                          }
                        }
                    ],
                    "start" : 1820,
                    "duration" : 58,
                    "mediaStart" : 1911,
                    "mediaDuration" : 58,
                    "scalar" : 1,
                    "metadata" : {
                      "WinSubProjectDisplayName" : "",
                      "clipSpeedAttribute" : false
                    },
                    "animationTracks" : {

                    }
                  },
                  {
                    "id" : 358,
                    "_type" : "AMFile",
                    "src" : 15,
                    "trackNumber" : 0,
                    "attributes" : {
                      "ident" : "旁白_vis2021 1",
                      "sampleRate" : 44100,
                      "bitDepth" : 16,
                      "gain" : 1.0,
                      "mixToMono" : false
                    },
                      "channelNumber" : "0,1",
                    "effects" : [
                        {
                          "effectName" : "NoiseReduction",
                          "parameters" : {
                            "denoiserAmount" : 20.0,
                            "denoiserThreshold" : 0.0,
                            "noiseProfile" : "OWoAPH2pEz2x9Qw+d6HTPcva6j2sp089E2dtPD6vPDwfl1A8ScjwPJTr1Txy35g8LaEAPTpegDyh\r\n+807XKYVO6TEeztxHEg8k5enPOCDljxR1SA80RNNO5P/FTsAUsA78qcaO7cppTsc2vE7qgSrO6lQ\r\n2jukqvI7h92AO2yWGzx+tZU8JitaPFzIyTuXwYE7uY9XO8aQ0Dvqq2I88amYPMnb9DtB2j87KTBk\r\nOzy52zoRSDw7OCjBO9xi/DtxwE88KlbqO3j0qDtWJH47VJnsO9JoxDuANhs8tJ+AO6Qz9Tth+oI8\r\nbGt3O1T1Nzzjhew74A0cPJAvITwici89BseWPGFNtDxkw7o7MRvlOmld0jryf386QXGZOrHMrzuA\r\ngR46FrCVOsPpWDsY4v07HUbYO1nLPjsw9w47wr3FOrnZ+Drc3FY7lUkJO7DAJDv2mAY7Bol9O6Gv\r\nIjui8ek64NliOq5vmTrG/ZM6bCYbO5q5tzpF2YA69unhOXdvJDkMXx461iVVOpU6tTmIPdU5NZ4C\r\nOrLzrDlzv6053gyzOSasszlLTgc5O7atOcYrxzkKtYw6r9cjOpoinjlRRog6Q9QHOqLsbTo5k0E6\r\n9U47OqgHGzq2DIw6xrvIOkIITzrGgR86I/hwOsTOFzq0IQU6isQ5OkIP9DmC+Bw6hsx0OYy4pDnt\r\nMqk5f6afOfFKnDnqIvc5SsRQOpXvdDp8CiE703psOwEALztW+4A6r36ROtKuGDoo4s852RrZOQKM\r\nhDmkgtY4CBe5OXJ5jDnBcjY5RM9jObGZ+DmyHG05aluSOaagETnIyGM5Jt2dOdUxnTmBHwU6PPyu\r\nOQ2PETl6x7k5tcInOtV63TnmcCY6dHftOUWtBzoIt6w5qk+GOf1mbTk4DT454wsLOh2HAjoY+ZY5\r\nyr2VOQQurzmqnRg5LDMFOZLQUjkvV1Q5/g1+OSlxFzlITz85XmAkOdDG/DjiIfM4htxWOREUlTqh\r\nwcw5VnaGOWCBXjn90lA5cKzvOWPrqzkL/o45sEFOOTkyMDpUc5s51oo9ORByjjlGCco52p/tORKy\r\n8Tnit2E51lY0Ofo+ATq6o3Y5Z021OYTVGDlRAq45zuyhOeA4ZDk52eE5nw91ORI2OzlB2R85fgab\r\nOY8bMjkQ1TA5cCaFOXju/Dh2ghM59YD8OFHmfzmnKiQ58YpfOXsbtzlCtX45yEWKOLGkLDkayH45\r\nRUrSOSltyTgvk1U5NT2NOY45EjnfihY5JFlqOTokTjlSlV45Ir54OQ1W5jifjjI5bWS5OfA8NDkO\r\nXs44QhjgOLbnOjkr+iw5hK5/Ocz3Azl6HF45q6DlOIJb2DiR79I4esU3OWtGjDg4gBM5cVloOdzR\r\nDTlkchs5GGg7OVSTtziXOeg4XazEOCiMADmz6Tw5ueqOOVcmeTmS4Ms4nI0UOUTLnjhAXjc56pkE\r\nOdXdBznEOY85PIy4OMxI5zgkSxk5r6oQObvARTnCtUo4LoVEONjrVjnfUsw4msCWOCWAQjlc/y45\r\nJ4KtOCzJrjjGJZ84BKXjOIHj2jhi+yE5rqqOOdCIIzm9fIM56Oo3OUSjtzmiT/M4Wiv3OJw6ETmO\r\nS8w53FJpOdbu1DiJSZs4DaoFOWqKWDkkyvU4GPIdOchJLDmxKwA54MMWOVgzmjgl75M44OcEOVPH\r\n3Dhmzdw4X9sOOb2CyTguC7Y4VgEmOTaQxDjBUAQ5dAM9OarFHjmfj444qMgAOWZMDDmSlas4yUZQ\r\nOaDeMTmPogU5Wxe1OF0m3Dh6aDQ5tbkIObjoEzlqqg45EPLvOKyF+zhUmiE57MvFOPg/vDiW+Vo5\r\nmhyzOGFsBTldBEw4dL3pOOk/QDnXnJQ467sNONFyxDfGPDM3rTsZN+BixjZrWTk338GlNhf/FTe5\r\nNTk2RTSUNkMj3Taj0d02is2UNt0UDDYUXvI1aeXFNhijMjbAtYc2ikWgNuphZDY8D1I28gSnNv4k\r\nLTZRYDk2mtYGN70P5DaWBKc2RzXfNlQFKTeHIYk2IpjaNofVszbqlaM2PatTNiKTzDYjx6M2BMHZ\r\nNiXEdDbJOMs2FNCMNsnGRja2BpI2UsiGNvm1vzbR74Q2wLCoNnn3jDa4fK82VqGlNrSAsTYwh5o2\r\n00guNguj5DYiuZI2yg0BN6PItzbTY6w2VXFINoLcTDbWIk82WJ/cNvx6HDZGdqc2ta/1NVwQMDaG\r\n9VE24mqONlq9rDaNiSE2Lay+NpqbcTYGZ3Q2KPqfNicegDbQyZw27RAtNyQhVjazoMU2izz9Npf0\r\njzbhrAg2zKY4Njo2yjZ1hZE2WNZsNrbfvDZiyp42KRFjNr96jjbjaI02RTYRNmwjhzapnyI2B4XY\r\nNltT7jUOLSY20oDqNhJrxDaCZWw2Ct+VNg/LgjZZzMA2Ik1JNrzQuDZxy901azNqNvW2eDaUuVs2\r\ngu+KNta85ja8P/M1FmShNp/ipjb1OIE21Q/2Nr5JmzYXtZU2x6+qNk6LmTZnjYw2mIJGNul2Jjbc\r\nO3A2lquYNuovLTYtgfE1nUlUNgQzNzaIsDM2DIvUNjKBRja+0oY2ExJ5NgPdJzZaSLQ2EtYgN0Wc\r\nDDbIHow2IiiZNgZUVTa1JnM2v3wcNoN3YDYCtgE38JaENkzoaDb0JTc26/WJNoqw9jYFxFI29vNP\r\nNmdCvDZHFIU2xxObNr0sUTblHoc2JrM/NmrbFDYX93o2m4OpNgs6HDaFNl02Rb2TNpjkJjYAADk2\r\n/8chNn7/QTawezM30gsqNidJ8zWKfC02kBYuNmSnnTa80FY2mFN3NkYZWzY4aO41UHmKNkyZiDYh\r\nGC42h1Y6Np6cgzYSij81AnuaNnc6rzZUXG82vp9eNp4h/jWNsEY2k603NuKSjDbHWSo2RxYINlNS\r\nmTaAOlU2yvJmNkqftzZ5VEk26hV8NjWLezbKM9Y1ernFNWi/XDZaEHQ2dhvANhDaRjYMwy82EwC4\r\nNlCNVTbH4IU2Cx1LNk6XlDbcVNA2FB33NQHMjzY6eW02jpZONqrdMTa+lxk267lUNkhoNDZz+TQ3\r\nwulaNoXxEjYQdsQ2lXEcNsiYOjbfz9o2UzpENvQL0TSOQIM10f8gNcLzLzX5w2c1H4efNN2VyTQO\r\nn70011tKNT7aKTUG8/w0QEgiNUCRKjWhXKI03LYLNQzSrjUnb9E0iB65NCpfLzVs4tk0emppNQtw\r\n8zTy2+U0USoLNeRnDTU88Uc19BfdNFPdNDVtA7Q09QQJNdJhKTXqRNg0am3RNG251DQ1KrA0Oj/Y\r\nNOrxkjTQ8cI0+3eXNEYitDR9exs1YvMdNUBR5DR0pQE1EGj5NAq8KTXmxKs0ErgPNTXAAjVM71g1\r\n2McYNch2PjVA3vs0HZGgNJEIOTWY3M40B5RGNGfgUDUIWUw1AAKQNPuJvjRnt4w0M0qUNPpcxjR3\r\nCM0000dJNZjtnTSx6rQ09gISNSzUKjVHscM0TBtXNYWZEDWjpck07HS+NMuEnzTVZ0U1duMGNWCg\r\n6jTs3880YBEXNT+XujRa3bk0wUISNadMADU5AQ411F8ONePs/jS0pjA105FENQ/HnjQmcwg1WPKH\r\nNFq2nTSuOLI0S9MpNbyI/zTAPso0+sXPNPLB3DTur8o0PLbHNPmbnzT+MvY0YjqvNCUXJTXMJp80\r\nndUPNWmVEjXazkY1O5DgNMl4gzVmyAY1rYEfNXmSQTWIrhU1ikoVNSCqpDTaEbY0/AvpNLIwhDSh\r\nIww1MCwENb5Y/zSUBhw1UowYNbXtpzTvlg4155xcNZhCrDRWs9U0k616NIzznjRmnAQ1Khq/NEm9\r\nCTUki940fgEVNZA1JzWkzqg0RtjuNI+WjTW0QRg1omMcNXzDIDUDHKI0NVu3NMMpRDVCjIo0ViIs\r\nNfxAITWCVB81HXTcNB0NXDWG+bE03vcdNf6QMzXAn8s0Eg/NNATJsTQE9U01LMELNX7DoDSIEB41\r\nwLEGNUVbzTQ8Pwo1QFCINBFgFTVn0vo0JOCjNNaR8zQ1vx41DXUDNak+EjUNQYo08gC7NFzPoTSI\r\n7RU1kpUbNYXvKzWOx240VWf0NGRuBzU6PIo0wlCGNT7g9jSWZjw1Ml4BNRvl6jTQR3w1lmHdNGfd\r\nITTobvU0ypuvNEpF+jTjNY40JYO7NCfBbzQijsA0us84Na6J8TQIYwU1V3IrNSwmYTXQ1kU0zKTc\r\nNDTVfzTj6to0SbOuNHwCvTQ/eR01mcuPNPTduTRDjf806a+nNAj20DREKOo0nPlPNQTe+zQNWSo1\r\nlpGmNBv9xzT/tzk1CtkQNapg2jSMQlI1MDUTNRhOMjWh56Q0AygANa8srzRbOwQ187XxNOQlwDSQ\r\nNO80mTAVNaBD6TQbeoo0UM6FNHPMCjV4t7k0gIxkNE02BjXYBQo1AhAcNWJMijS64uA0zd0JNXWm\r\nEDWiijY1ZpSXNNpWpzTYT+k0QHbzNDaorzSGDHs0qT7ONBvuhzSyYys1dPYCNQdToDTk8uU0MwYH\r\nNWYw+TRbj4g1aJxzNHlxCDVIE8c0Nl2SNOyilTRoqUs1KtMvNbhJPjVmcCE12eGANQ1X8jSNKZo0\r\ndGHdNGrcDjXxZ0A0JhPPNJb14jSwx8o0morUNDmP2DTubH40SSbdNE1r7TRT3rk0EZGLNP35LjV1\r\n1640P7XhNLEsczQldYc02X7eNAZ67jSawbI0drgeNb6GtzSMN9U00j4cNQhrBzWSqgw14dAnNYUF\r\nnDTQSpg0P9OMNOHDLTULMsI0QH6VNI2nxDSl5Yc0WHyLNCaeLDXnc6Y0AaCFNBQP7TTJzR41kvoE\r\nNRykHjU6wZw0+cjVNJdR1TSiQQU10AuONaiUkzUExgY1MMYONaRkZTT9EAU11Bu0NC2j3jTIM4A0\r\nal8cNSoRTzXbrSk1FTDYNEBqkjTgDwA1sun9NP5ztDRWob80HSSSNGYkGDWnkuM0RaMANeGLITXo\r\nTow0GNvbNJlRuzSgsOY0CpP5NMVL9jRRErs0aS1TNVNWgDSmPp80Gvy3NBnwGDXWr7M0dB/VNIw8\r\n0DQBkZ410iF5NDXYLTVZSxU1T0S6NHIrqTRzbRA1XDWKNA2phjRVwpo0SPJ1NGzsODX8K6Y0ne6l\r\nNNU3JjWsl7M0wb+kNKhE5TQUaN8041HRNPhNtTRpfuQ09awXNcwLtDS6nqA0qbk4Nbg8qTQ3pSA0\r\nkRS8NLXO0DRqdcQ0b//eNLPvrDQGQu00fPstNS/HMTWPJMc0fIrENBIciDSLv/k00iuaNNjgPDWm\r\not00DFkCNfHQhDTO4qY0xTYDNbDSOTWNTjA1dLcPNZB1uzQDUrY08mkFNZaNRjXzzK00ErsDNVeQ\r\n3zS5HxA1pmTINLQDBTWIxP008Ny+NADrGDWeipI0eMHvM5R6CTWA3x01wRO2NE0PBDXZKrU0GFyV\r\nNOCJrzSgxtE0tQR+NKJP0zTmcMA0zgvvNFJN7TT5eA41x/eHNAie2jTBXoU1JbdYNQAAEDUAZAE8\r\nF6YTPaE6DT5EKNM9dQ3rPVEOUD0ioW480q89PCfdUDzbEfI8OKDUPGwsmDxHYgE9amiBPGR1zjsP\r\nPhU7a3x7OyhGRzygj6g8mBGWPCuBIDwy9E47Dr4TO1iRvDsOzBo7Kk6nOyjG8juQWao70ZvWOxbH\r\n8zuU8n07aPEbPGxKlzygoVs8TMfIO9+xhDsybFY7q+rTO/L8YTx2ZJg8LVf1O0mYPjuCWmQ7fLXf\r\nOt2APzt7zMI7O4D+Ox50Tzw8t+w7lE+pOzStezsIHeo7gHbGO/xxGTz7XIA7vAj1O108gzyol3g7\r\ntww5PFZa6zv7yxw8BjMgPKnvLj13cpY8hhS0PDysuTskGOc6fsrQOrACgDqdYpQ6nrawO0mtIzpq\r\niZQ6oWVXO4pL/Dsyi9U7isI/O5AADzuqPMM6Xcz3OuCjVjsJJAU70nAkO3xeCzuPI4E7G4YiO1p8\r\n7jrINmQ6RKiWOkNYjzquKxk7L5jEOkefiTpiBN05wkIqOcZGDTp6g046RrOpOQ6EwjmtPgQ6e2Gc\r\nOSSjpDlo8ZU55XS9ObmuBzlz4785N8m2OWCrjzo4vB06uHOTOSQohDrAdAk6ttpzOqV9QjpzGTY6\r\n3XEaOsgBjjqKt8k6HvZMOicoGjocq2w6ap4WOhHEADrfCzk63skBOgeJHDrUTnI5YkuiObHDpjmu\r\nSKM5/cCSOf1k+zmMGlI6inluOu+YIDu89m07RVI0O6+Kgzr+5446GKYWOsGMzDkpPtU5IguVOWYu\r\n0Thu2rs5wj2KOYr0Szln8mE5OIzqOdZKbDmJnpY5zvoYORbfcjmJJb45rPudOReeBTpaM7A5gOEv\r\nOfU4rjmBKBo6bN3fOQHYIDpCxO45IMMKOhDuqjnu5385nKuKOcsUJTnO6QY6IssJOqWwlTkE/nk5\r\n982pOYJKFzlMEgc5kM8qOTzQSjkjjFw5oLMhOb3XTTlwQiA5qwrfOFyxBDkkj0w5MGaVOpPkyzkA\r\nWYw5x/dWOdTGaDnThQM6cUq4OS/ykTn8pTU5cg8tOjmUnzmJETc5yAicOQHqsTm7VQY6AgbzOcxp\r\nYTnUlDk5COb3OVNucjnJjtA5lvYsOVSTlDlbCZA5jieCOevY/jld/5M5ZAsQOQCjIjmaXZk5X2sk\r\nOaKvQDn3w2A5sFLsOCInSDnjTPU4Pw52ORiOFTnxB085aOe5Oeymfzkdh5Q4b9kUOTcjiDlltOQ5\r\nW97hOK93TDk6TJo5GxUROfmZKDmqWVg5gnArOZiUUTljp2g5VN4COa51OjmCG6857I8hOQJUyDiy\r\nFeY4PzlIOQnaEjkNa105LJgJOedSTTmft9w4RFvhOEMPBjkBNUc5IxKaOKB0AzlHK0Y5uzfsOA7s\r\nCTnIO1A5K33WOKFk2jjp16849C8QOWZpPTn28K85JD91Ocr4pTiAdCY50TmeOH4OPTl/1vM4rUTC\r\nOKr9azkWMbo4F7ngOLhyVDn8tgw5pjZnOXrXVTgwxCo4OQx/OXmv4TiOkZs4EjRhOc/BKzm9HJg4\r\nmNmEOBptqTgOwN44isnuOMjHEDkVGqA5ZsgfOcwJgTn/qS85F5G9OSUi8Th4/wU58kwEOcGM0znk\r\nW1o5KBbSOPxmrjgoieg4mOJqOacY5jhwBhY5iXUjOeCfAjn89RI53mOTOE5nnDgXwQo59x/YOLsN\r\nvzisAgg5ZZXBONJSyTg4ChA5g0OvOOLhCzk2PkQ5yZUgOf1/lTgIavM4G5cEObRwszj5plM54Ngg\r\nOTpfCjmgXsE4/c7tOPbIHjng2QM52pkWOVEIBjnWdfE44lgEOVkCJTm3Js04paCwOJruaDnED7c4\r\nlngHOd1wSThLgdw4+MM6OWkNiTjQTig4ZOnTNxI6RTeeDew2cZ29Nv7NAjclhNM2iMnzNsyKczZM\r\nTqE2NwIANyN0CjdyN5Q2WgazNq/6RTZdvu82CgJ2NnBTbzZ2Y8g2nCmlNornMTbyM/U2XdYuNnYx\r\nDDZETwI3eL+nNkEyGTdWc042Yb0WNzGqlDaNeNI2vHqNNkA4sDYmdYE2+cmANhHYVzaKnIs2sgCG\r\nNgmRtTZMoZo22v10NnRMhzYJ96I2OKTLNuYomzb9GYQ2aZ4gNg34YTYuHZo2W3zKNg54fjYZjkw2\r\nf2wUN3Od0TYrN5w2qv+fNtmNlTawHlI20q1xNtWcgzbalsQ2aqh0NqiRqzZJr+Y1tKkfNvwthjbs\r\njso2aMOjNjtLWzaqzNg2QuVVNvmDcTZsOcU2ODthNmCKmjZkwsw2JO2RNrvV7zZ/j5g2X3SCNuWv\r\njDatdLA22aTFNuHopjZGQ1k280BwNm9ZdzZuF3o2uV16NukrgjZ0cmI2oP0yNtheUDbrCZM2IZD3\r\nNcjiiDbmV9M2x6S6NnU/pzZADwg2huV1NusKwzZOBTQ2+FGNNgbaCjZtFJo2oEWzNnsKijZWeO02\r\nGtuJNu8IdjY49Yg2Mr2ANg3ZzjZiM+s2PSKeNoMphDa/F582hoJcNt0QxjZWOKM2KJ8XNqxVQjbY\r\ngaI2GZ6aNs0bpTU+g5g2tEowNtIkZDYOlas2ZR1xNtIkgzZRo4A2kxo0Nq+R7DZCmS43Jnh6NgQS\r\nbDb4RYg2lNw9NuvPkzYiw3I2yo89NhID7TYcIIw26OkjNrMkKzbG26s2fgyyNkykhTarGu41ZVyZ\r\nNs59hja4/3g2DVwlNg8S/DWud6U2N9IvNgCXSjbgmnM2uSBPNn7iXza+E8Q2IrczNgAgGTbUpLw1\r\nmKpzNoJSGzdiAoM2ZpDFNfrlFDY4tAI2RI+mNgX6UTb+VoU2addaNhrNCTZZFHA2uMncNXzMSzbJ\r\nKYk2chpoNlUqsTVQL942eABrNmzNjTZ3X0o2gnWBNn72gTZLTEE2lwQzNgfuCjaKZ0A2Cn+pNqDa\r\nNzbbTXE2Jn7UNu4UKDZVMoQ2j46fNsCxMzbOjB026lnINRYmezYubI02j29ONiv6jzYkvQU24bo/\r\nNlRyPzacL0c24hOWNpYhiDbn4/U1XMKXNjdHgzYwUO01kmwQNsrkGjZWzx02IdkDNtNSCTdR2VE2\r\nthtfNuRpyzaptiM2tEQ0Nkz1XDaF2zA2q9VKNcwlKDW1Wt007vuJNFq4yzRjGzI175BhNbYW/jTC\r\n50I1fp2dNJ2JFzXcfBY1j6wVNck7ADXKUgk1IqzANOh0JjVVrrw0Msw2NZKFGTUaPUI1fBNaNcVN\r\nSTUON7Q0P4fQNFKuFzUxPlU1sICqNGd1ajTm2QI1i7CcNE6RhzRis6A0+Hg7Nbaz2zTd5O41Lo6Q\r\nNCC46jRqY4k02LwPNQsD+zQS2kY1DgsZNQCcHDWKMa00NY4gNbBtFDXqiRc1oiMKNXSGhzRgRxs1\r\nsvCONXglnTQaJsk0VZcVNTwSAjVbovE0HAgiNYYOkDWs+Bk1NoTxNOmQHzWwgbI0cTRKNEIM5zRm\r\n0Eo1Lt3NNDT7uTSlUH81fpTdNNbDuDR5QIA1bivBNDg8tDTqSAw1juzKNPjckTXYQus0QHrGNAe/\r\nzjT+Kxk1k1EENS6XETW7x+g0SgvDNLGCvzSIgvk0RU2fNNSwojQOc7k03IPMNCf6ETV8ef00kiUz\r\nNaCP5DSyjgI1NzurNDzYBDVnrxg1wWfANHpDdjTTMLM0SyeuNCZrpDTpSwg1kQXWNKnmtjTd4L00\r\nCjEvNe+3XjWZAko1Ym35NPTQoTRMXRI1/Kv1NNnw+TREn580ApgENQioMTUc6Qw1wGDtNMWVAjX6\r\nRmI1CN1MNL0nqzQdttc0yKQdNbOO9jSg9bU00Ta0NPpG8jRwfn81zM+VNG1DtzQjBjQ133YnNRiY\r\nzzSD58A0vVEGNeQz7TQc+8c0alDxNOYeqTRZjwM1A1X7NKFF9DRfJtM0Vc0BNUYGIjUIksE0MIwp\r\nNYA4xDQyT2E0+rrONBaUKjWcVbs0lgEXNQhoLjVqYfM0QkIHNXxZBjWjN9A04CoHNf4JgzRmC1I1\r\nHvk2NR48nDSMgG00Zf32NNotNDWhucs0OhP6NCbLvjSa08g0UXkUNWHkGjU2b7M0Jjf1NNWAHTX2\r\nAKk0D22rNDpwCjVAdSE1wIe3NKki1DQ7h1c0c56RNM+EHDWeNvs0MQ70NEBr+DSzItM00gbWNHQw\r\nKDULfMQ0x//kNPxv2TTQtDM1WH4UNV82NTXQGQs1zfzkNE4e5zQRzgg1/pbnNGCS0TTOFd40v6/x\r\nNAS1tjRCvqU0IwneNHHchzWWIeA0UM+4NK8f9TRyIZM0h7UINdtvGDWwIMU0f+g7NQZH3jSvXyg1\r\nQFDUNEfN1zTFaJE0vTVhNZhtEzVsOCo1lI2DNKvBcDU7hyA1G3lgNdKy/jT5BOE0W5yZNMVKxTQt\r\nffo0UfUYNfYY1jRmNic1cjOcNHhM3TQltw01y+wGNdUXAzWjaYQ1EAGsNAMnHTXG2Ok0b2sZNdaU\r\nnTTqTu80BYtpNRavBjXpXoY0gY8TNRz6MzTZ+bU0CwEyNeatmjTYpAw1XQ0NNS4fMDUD3N80w5kB\r\nNbZ+wDSHwM80LsdINflVQTXijxU12ckXNexXHTV3aAk1Y0gINRwPEzWrSkk1gEhcNcKckzRnQdM0\r\nylE8NZTlGjWZRXo1mYPiNKOIGDX9VSk1SDywNE/uAjVE05U0/LpeNYJ8uDT+TwI1K57TNKdFFTVQ\r\nmmw1bxHxNNasyjTwQdg0uDi0NKQl/jRwNLM0eBffNHVFvDRC6IA0QxjQNA8uczQLG6o0fGK7NO7j\r\nmzQBYqc0PLzWNLgI9DTcW6Q0a0AZNYg9STUbsVQ1+5sfNVyxoTRchak0ZlS/NIZF8DQC/LA0KHW2\r\nNAKVBzVhPRg1IxGrNNrwCDVtxBU1lnAcNYeauTTwp/s0RXHANLDJwzTVLtw0yWgLNdyaGTVZOe00\r\nJFcoNZ6B7TQG/MU0+DEUNQFt/DRtlSo14IBuNQxXyzRAZsw0OmxvNepc4TQsbOo0BX5pNeLZFjVa\r\nUP00/NC+NDfFxzSk/Jk0Xv9WNFcJFTUkCfs0nPhONWb3szQLn8U07ItQNLGo0DSMwQE17Z/PNNec\r\n0zRaof0076bINOo8GzXNlYU0hEQkNTyH5jT2YwU1rPNDNQ/OwzRUsuM0rNi/NPhc8DQKmUg1hNDu\r\nNFsmCjUDuzw1VasyNef7cjVSnrA0plT5NKXLhzSFNZ00Ed+nNCFdUDUWMQI1JJnbNNcqvjQMb+40\r\nMCZxNWBYzTTT7DQ1EXZRNffmaTV+3a80W4eUNHE8DjXgGu40gRDrNBPuqjTmEDY1ol3ONJbeJTVU\r\n2RE1pL7HNICD5TRWWw816jZdNU5+4zSdEBA1+UiKNPe7OzXoSB81ciQHNY2hujSihSE1Zmy4NC66\r\njjSDV6M0zDuqNH8orDToE6s0mAmlNNh/LDUtZTA1POHGNHfLdzTbIis17ZIdNZocBDVvRKE0QmwB\r\nNYXQijQkWAs1oC2hNA2Z5TSh2c00fEGaNMT8ujTDZ5w0Y1z7NI2ELjWyxiA1AEAcNQ==",
                            "noiseTrainingType" : "default"
                          }
                        }
                    ],
                    "start" : 1878,
                    "duration" : 17,
                    "mediaStart" : 2012,
                    "mediaDuration" : 17,
                    "scalar" : 1,
                    "metadata" : {
                      "WinSubProjectDisplayName" : "",
                      "clipSpeedAttribute" : false
                    },
                    "animationTracks" : {

                    }
                  },
                  {
                    "id" : 359,
                    "_type" : "AMFile",
                    "src" : 15,
                    "trackNumber" : 0,
                    "attributes" : {
                      "ident" : "旁白_vis2021 1",
                      "sampleRate" : 44100,
                      "bitDepth" : 16,
                      "gain" : 1.0,
                      "mixToMono" : false
                    },
                      "channelNumber" : "0,1",
                    "effects" : [
                        {
                          "effectName" : "NoiseReduction",
                          "parameters" : {
                            "denoiserAmount" : 20.0,
                            "denoiserThreshold" : 0.0,
                            "noiseProfile" : "OWoAPH2pEz2x9Qw+d6HTPcva6j2sp089E2dtPD6vPDwfl1A8ScjwPJTr1Txy35g8LaEAPTpegDyh\r\n+807XKYVO6TEeztxHEg8k5enPOCDljxR1SA80RNNO5P/FTsAUsA78qcaO7cppTsc2vE7qgSrO6lQ\r\n2jukqvI7h92AO2yWGzx+tZU8JitaPFzIyTuXwYE7uY9XO8aQ0Dvqq2I88amYPMnb9DtB2j87KTBk\r\nOzy52zoRSDw7OCjBO9xi/DtxwE88KlbqO3j0qDtWJH47VJnsO9JoxDuANhs8tJ+AO6Qz9Tth+oI8\r\nbGt3O1T1Nzzjhew74A0cPJAvITwici89BseWPGFNtDxkw7o7MRvlOmld0jryf386QXGZOrHMrzuA\r\ngR46FrCVOsPpWDsY4v07HUbYO1nLPjsw9w47wr3FOrnZ+Drc3FY7lUkJO7DAJDv2mAY7Bol9O6Gv\r\nIjui8ek64NliOq5vmTrG/ZM6bCYbO5q5tzpF2YA69unhOXdvJDkMXx461iVVOpU6tTmIPdU5NZ4C\r\nOrLzrDlzv6053gyzOSasszlLTgc5O7atOcYrxzkKtYw6r9cjOpoinjlRRog6Q9QHOqLsbTo5k0E6\r\n9U47OqgHGzq2DIw6xrvIOkIITzrGgR86I/hwOsTOFzq0IQU6isQ5OkIP9DmC+Bw6hsx0OYy4pDnt\r\nMqk5f6afOfFKnDnqIvc5SsRQOpXvdDp8CiE703psOwEALztW+4A6r36ROtKuGDoo4s852RrZOQKM\r\nhDmkgtY4CBe5OXJ5jDnBcjY5RM9jObGZ+DmyHG05aluSOaagETnIyGM5Jt2dOdUxnTmBHwU6PPyu\r\nOQ2PETl6x7k5tcInOtV63TnmcCY6dHftOUWtBzoIt6w5qk+GOf1mbTk4DT454wsLOh2HAjoY+ZY5\r\nyr2VOQQurzmqnRg5LDMFOZLQUjkvV1Q5/g1+OSlxFzlITz85XmAkOdDG/DjiIfM4htxWOREUlTqh\r\nwcw5VnaGOWCBXjn90lA5cKzvOWPrqzkL/o45sEFOOTkyMDpUc5s51oo9ORByjjlGCco52p/tORKy\r\n8Tnit2E51lY0Ofo+ATq6o3Y5Z021OYTVGDlRAq45zuyhOeA4ZDk52eE5nw91ORI2OzlB2R85fgab\r\nOY8bMjkQ1TA5cCaFOXju/Dh2ghM59YD8OFHmfzmnKiQ58YpfOXsbtzlCtX45yEWKOLGkLDkayH45\r\nRUrSOSltyTgvk1U5NT2NOY45EjnfihY5JFlqOTokTjlSlV45Ir54OQ1W5jifjjI5bWS5OfA8NDkO\r\nXs44QhjgOLbnOjkr+iw5hK5/Ocz3Azl6HF45q6DlOIJb2DiR79I4esU3OWtGjDg4gBM5cVloOdzR\r\nDTlkchs5GGg7OVSTtziXOeg4XazEOCiMADmz6Tw5ueqOOVcmeTmS4Ms4nI0UOUTLnjhAXjc56pkE\r\nOdXdBznEOY85PIy4OMxI5zgkSxk5r6oQObvARTnCtUo4LoVEONjrVjnfUsw4msCWOCWAQjlc/y45\r\nJ4KtOCzJrjjGJZ84BKXjOIHj2jhi+yE5rqqOOdCIIzm9fIM56Oo3OUSjtzmiT/M4Wiv3OJw6ETmO\r\nS8w53FJpOdbu1DiJSZs4DaoFOWqKWDkkyvU4GPIdOchJLDmxKwA54MMWOVgzmjgl75M44OcEOVPH\r\n3Dhmzdw4X9sOOb2CyTguC7Y4VgEmOTaQxDjBUAQ5dAM9OarFHjmfj444qMgAOWZMDDmSlas4yUZQ\r\nOaDeMTmPogU5Wxe1OF0m3Dh6aDQ5tbkIObjoEzlqqg45EPLvOKyF+zhUmiE57MvFOPg/vDiW+Vo5\r\nmhyzOGFsBTldBEw4dL3pOOk/QDnXnJQ467sNONFyxDfGPDM3rTsZN+BixjZrWTk338GlNhf/FTe5\r\nNTk2RTSUNkMj3Taj0d02is2UNt0UDDYUXvI1aeXFNhijMjbAtYc2ikWgNuphZDY8D1I28gSnNv4k\r\nLTZRYDk2mtYGN70P5DaWBKc2RzXfNlQFKTeHIYk2IpjaNofVszbqlaM2PatTNiKTzDYjx6M2BMHZ\r\nNiXEdDbJOMs2FNCMNsnGRja2BpI2UsiGNvm1vzbR74Q2wLCoNnn3jDa4fK82VqGlNrSAsTYwh5o2\r\n00guNguj5DYiuZI2yg0BN6PItzbTY6w2VXFINoLcTDbWIk82WJ/cNvx6HDZGdqc2ta/1NVwQMDaG\r\n9VE24mqONlq9rDaNiSE2Lay+NpqbcTYGZ3Q2KPqfNicegDbQyZw27RAtNyQhVjazoMU2izz9Npf0\r\njzbhrAg2zKY4Njo2yjZ1hZE2WNZsNrbfvDZiyp42KRFjNr96jjbjaI02RTYRNmwjhzapnyI2B4XY\r\nNltT7jUOLSY20oDqNhJrxDaCZWw2Ct+VNg/LgjZZzMA2Ik1JNrzQuDZxy901azNqNvW2eDaUuVs2\r\ngu+KNta85ja8P/M1FmShNp/ipjb1OIE21Q/2Nr5JmzYXtZU2x6+qNk6LmTZnjYw2mIJGNul2Jjbc\r\nO3A2lquYNuovLTYtgfE1nUlUNgQzNzaIsDM2DIvUNjKBRja+0oY2ExJ5NgPdJzZaSLQ2EtYgN0Wc\r\nDDbIHow2IiiZNgZUVTa1JnM2v3wcNoN3YDYCtgE38JaENkzoaDb0JTc26/WJNoqw9jYFxFI29vNP\r\nNmdCvDZHFIU2xxObNr0sUTblHoc2JrM/NmrbFDYX93o2m4OpNgs6HDaFNl02Rb2TNpjkJjYAADk2\r\n/8chNn7/QTawezM30gsqNidJ8zWKfC02kBYuNmSnnTa80FY2mFN3NkYZWzY4aO41UHmKNkyZiDYh\r\nGC42h1Y6Np6cgzYSij81AnuaNnc6rzZUXG82vp9eNp4h/jWNsEY2k603NuKSjDbHWSo2RxYINlNS\r\nmTaAOlU2yvJmNkqftzZ5VEk26hV8NjWLezbKM9Y1ernFNWi/XDZaEHQ2dhvANhDaRjYMwy82EwC4\r\nNlCNVTbH4IU2Cx1LNk6XlDbcVNA2FB33NQHMjzY6eW02jpZONqrdMTa+lxk267lUNkhoNDZz+TQ3\r\nwulaNoXxEjYQdsQ2lXEcNsiYOjbfz9o2UzpENvQL0TSOQIM10f8gNcLzLzX5w2c1H4efNN2VyTQO\r\nn70011tKNT7aKTUG8/w0QEgiNUCRKjWhXKI03LYLNQzSrjUnb9E0iB65NCpfLzVs4tk0emppNQtw\r\n8zTy2+U0USoLNeRnDTU88Uc19BfdNFPdNDVtA7Q09QQJNdJhKTXqRNg0am3RNG251DQ1KrA0Oj/Y\r\nNOrxkjTQ8cI0+3eXNEYitDR9exs1YvMdNUBR5DR0pQE1EGj5NAq8KTXmxKs0ErgPNTXAAjVM71g1\r\n2McYNch2PjVA3vs0HZGgNJEIOTWY3M40B5RGNGfgUDUIWUw1AAKQNPuJvjRnt4w0M0qUNPpcxjR3\r\nCM0000dJNZjtnTSx6rQ09gISNSzUKjVHscM0TBtXNYWZEDWjpck07HS+NMuEnzTVZ0U1duMGNWCg\r\n6jTs3880YBEXNT+XujRa3bk0wUISNadMADU5AQ411F8ONePs/jS0pjA105FENQ/HnjQmcwg1WPKH\r\nNFq2nTSuOLI0S9MpNbyI/zTAPso0+sXPNPLB3DTur8o0PLbHNPmbnzT+MvY0YjqvNCUXJTXMJp80\r\nndUPNWmVEjXazkY1O5DgNMl4gzVmyAY1rYEfNXmSQTWIrhU1ikoVNSCqpDTaEbY0/AvpNLIwhDSh\r\nIww1MCwENb5Y/zSUBhw1UowYNbXtpzTvlg4155xcNZhCrDRWs9U0k616NIzznjRmnAQ1Khq/NEm9\r\nCTUki940fgEVNZA1JzWkzqg0RtjuNI+WjTW0QRg1omMcNXzDIDUDHKI0NVu3NMMpRDVCjIo0ViIs\r\nNfxAITWCVB81HXTcNB0NXDWG+bE03vcdNf6QMzXAn8s0Eg/NNATJsTQE9U01LMELNX7DoDSIEB41\r\nwLEGNUVbzTQ8Pwo1QFCINBFgFTVn0vo0JOCjNNaR8zQ1vx41DXUDNak+EjUNQYo08gC7NFzPoTSI\r\n7RU1kpUbNYXvKzWOx240VWf0NGRuBzU6PIo0wlCGNT7g9jSWZjw1Ml4BNRvl6jTQR3w1lmHdNGfd\r\nITTobvU0ypuvNEpF+jTjNY40JYO7NCfBbzQijsA0us84Na6J8TQIYwU1V3IrNSwmYTXQ1kU0zKTc\r\nNDTVfzTj6to0SbOuNHwCvTQ/eR01mcuPNPTduTRDjf806a+nNAj20DREKOo0nPlPNQTe+zQNWSo1\r\nlpGmNBv9xzT/tzk1CtkQNapg2jSMQlI1MDUTNRhOMjWh56Q0AygANa8srzRbOwQ187XxNOQlwDSQ\r\nNO80mTAVNaBD6TQbeoo0UM6FNHPMCjV4t7k0gIxkNE02BjXYBQo1AhAcNWJMijS64uA0zd0JNXWm\r\nEDWiijY1ZpSXNNpWpzTYT+k0QHbzNDaorzSGDHs0qT7ONBvuhzSyYys1dPYCNQdToDTk8uU0MwYH\r\nNWYw+TRbj4g1aJxzNHlxCDVIE8c0Nl2SNOyilTRoqUs1KtMvNbhJPjVmcCE12eGANQ1X8jSNKZo0\r\ndGHdNGrcDjXxZ0A0JhPPNJb14jSwx8o0morUNDmP2DTubH40SSbdNE1r7TRT3rk0EZGLNP35LjV1\r\n1640P7XhNLEsczQldYc02X7eNAZ67jSawbI0drgeNb6GtzSMN9U00j4cNQhrBzWSqgw14dAnNYUF\r\nnDTQSpg0P9OMNOHDLTULMsI0QH6VNI2nxDSl5Yc0WHyLNCaeLDXnc6Y0AaCFNBQP7TTJzR41kvoE\r\nNRykHjU6wZw0+cjVNJdR1TSiQQU10AuONaiUkzUExgY1MMYONaRkZTT9EAU11Bu0NC2j3jTIM4A0\r\nal8cNSoRTzXbrSk1FTDYNEBqkjTgDwA1sun9NP5ztDRWob80HSSSNGYkGDWnkuM0RaMANeGLITXo\r\nTow0GNvbNJlRuzSgsOY0CpP5NMVL9jRRErs0aS1TNVNWgDSmPp80Gvy3NBnwGDXWr7M0dB/VNIw8\r\n0DQBkZ410iF5NDXYLTVZSxU1T0S6NHIrqTRzbRA1XDWKNA2phjRVwpo0SPJ1NGzsODX8K6Y0ne6l\r\nNNU3JjWsl7M0wb+kNKhE5TQUaN8041HRNPhNtTRpfuQ09awXNcwLtDS6nqA0qbk4Nbg8qTQ3pSA0\r\nkRS8NLXO0DRqdcQ0b//eNLPvrDQGQu00fPstNS/HMTWPJMc0fIrENBIciDSLv/k00iuaNNjgPDWm\r\not00DFkCNfHQhDTO4qY0xTYDNbDSOTWNTjA1dLcPNZB1uzQDUrY08mkFNZaNRjXzzK00ErsDNVeQ\r\n3zS5HxA1pmTINLQDBTWIxP008Ny+NADrGDWeipI0eMHvM5R6CTWA3x01wRO2NE0PBDXZKrU0GFyV\r\nNOCJrzSgxtE0tQR+NKJP0zTmcMA0zgvvNFJN7TT5eA41x/eHNAie2jTBXoU1JbdYNQAAEDUAZAE8\r\nF6YTPaE6DT5EKNM9dQ3rPVEOUD0ioW480q89PCfdUDzbEfI8OKDUPGwsmDxHYgE9amiBPGR1zjsP\r\nPhU7a3x7OyhGRzygj6g8mBGWPCuBIDwy9E47Dr4TO1iRvDsOzBo7Kk6nOyjG8juQWao70ZvWOxbH\r\n8zuU8n07aPEbPGxKlzygoVs8TMfIO9+xhDsybFY7q+rTO/L8YTx2ZJg8LVf1O0mYPjuCWmQ7fLXf\r\nOt2APzt7zMI7O4D+Ox50Tzw8t+w7lE+pOzStezsIHeo7gHbGO/xxGTz7XIA7vAj1O108gzyol3g7\r\ntww5PFZa6zv7yxw8BjMgPKnvLj13cpY8hhS0PDysuTskGOc6fsrQOrACgDqdYpQ6nrawO0mtIzpq\r\niZQ6oWVXO4pL/Dsyi9U7isI/O5AADzuqPMM6Xcz3OuCjVjsJJAU70nAkO3xeCzuPI4E7G4YiO1p8\r\n7jrINmQ6RKiWOkNYjzquKxk7L5jEOkefiTpiBN05wkIqOcZGDTp6g046RrOpOQ6EwjmtPgQ6e2Gc\r\nOSSjpDlo8ZU55XS9ObmuBzlz4785N8m2OWCrjzo4vB06uHOTOSQohDrAdAk6ttpzOqV9QjpzGTY6\r\n3XEaOsgBjjqKt8k6HvZMOicoGjocq2w6ap4WOhHEADrfCzk63skBOgeJHDrUTnI5YkuiObHDpjmu\r\nSKM5/cCSOf1k+zmMGlI6inluOu+YIDu89m07RVI0O6+Kgzr+5446GKYWOsGMzDkpPtU5IguVOWYu\r\n0Thu2rs5wj2KOYr0Szln8mE5OIzqOdZKbDmJnpY5zvoYORbfcjmJJb45rPudOReeBTpaM7A5gOEv\r\nOfU4rjmBKBo6bN3fOQHYIDpCxO45IMMKOhDuqjnu5385nKuKOcsUJTnO6QY6IssJOqWwlTkE/nk5\r\n982pOYJKFzlMEgc5kM8qOTzQSjkjjFw5oLMhOb3XTTlwQiA5qwrfOFyxBDkkj0w5MGaVOpPkyzkA\r\nWYw5x/dWOdTGaDnThQM6cUq4OS/ykTn8pTU5cg8tOjmUnzmJETc5yAicOQHqsTm7VQY6AgbzOcxp\r\nYTnUlDk5COb3OVNucjnJjtA5lvYsOVSTlDlbCZA5jieCOevY/jld/5M5ZAsQOQCjIjmaXZk5X2sk\r\nOaKvQDn3w2A5sFLsOCInSDnjTPU4Pw52ORiOFTnxB085aOe5Oeymfzkdh5Q4b9kUOTcjiDlltOQ5\r\nW97hOK93TDk6TJo5GxUROfmZKDmqWVg5gnArOZiUUTljp2g5VN4COa51OjmCG6857I8hOQJUyDiy\r\nFeY4PzlIOQnaEjkNa105LJgJOedSTTmft9w4RFvhOEMPBjkBNUc5IxKaOKB0AzlHK0Y5uzfsOA7s\r\nCTnIO1A5K33WOKFk2jjp16849C8QOWZpPTn28K85JD91Ocr4pTiAdCY50TmeOH4OPTl/1vM4rUTC\r\nOKr9azkWMbo4F7ngOLhyVDn8tgw5pjZnOXrXVTgwxCo4OQx/OXmv4TiOkZs4EjRhOc/BKzm9HJg4\r\nmNmEOBptqTgOwN44isnuOMjHEDkVGqA5ZsgfOcwJgTn/qS85F5G9OSUi8Th4/wU58kwEOcGM0znk\r\nW1o5KBbSOPxmrjgoieg4mOJqOacY5jhwBhY5iXUjOeCfAjn89RI53mOTOE5nnDgXwQo59x/YOLsN\r\nvzisAgg5ZZXBONJSyTg4ChA5g0OvOOLhCzk2PkQ5yZUgOf1/lTgIavM4G5cEObRwszj5plM54Ngg\r\nOTpfCjmgXsE4/c7tOPbIHjng2QM52pkWOVEIBjnWdfE44lgEOVkCJTm3Js04paCwOJruaDnED7c4\r\nlngHOd1wSThLgdw4+MM6OWkNiTjQTig4ZOnTNxI6RTeeDew2cZ29Nv7NAjclhNM2iMnzNsyKczZM\r\nTqE2NwIANyN0CjdyN5Q2WgazNq/6RTZdvu82CgJ2NnBTbzZ2Y8g2nCmlNornMTbyM/U2XdYuNnYx\r\nDDZETwI3eL+nNkEyGTdWc042Yb0WNzGqlDaNeNI2vHqNNkA4sDYmdYE2+cmANhHYVzaKnIs2sgCG\r\nNgmRtTZMoZo22v10NnRMhzYJ96I2OKTLNuYomzb9GYQ2aZ4gNg34YTYuHZo2W3zKNg54fjYZjkw2\r\nf2wUN3Od0TYrN5w2qv+fNtmNlTawHlI20q1xNtWcgzbalsQ2aqh0NqiRqzZJr+Y1tKkfNvwthjbs\r\njso2aMOjNjtLWzaqzNg2QuVVNvmDcTZsOcU2ODthNmCKmjZkwsw2JO2RNrvV7zZ/j5g2X3SCNuWv\r\njDatdLA22aTFNuHopjZGQ1k280BwNm9ZdzZuF3o2uV16NukrgjZ0cmI2oP0yNtheUDbrCZM2IZD3\r\nNcjiiDbmV9M2x6S6NnU/pzZADwg2huV1NusKwzZOBTQ2+FGNNgbaCjZtFJo2oEWzNnsKijZWeO02\r\nGtuJNu8IdjY49Yg2Mr2ANg3ZzjZiM+s2PSKeNoMphDa/F582hoJcNt0QxjZWOKM2KJ8XNqxVQjbY\r\ngaI2GZ6aNs0bpTU+g5g2tEowNtIkZDYOlas2ZR1xNtIkgzZRo4A2kxo0Nq+R7DZCmS43Jnh6NgQS\r\nbDb4RYg2lNw9NuvPkzYiw3I2yo89NhID7TYcIIw26OkjNrMkKzbG26s2fgyyNkykhTarGu41ZVyZ\r\nNs59hja4/3g2DVwlNg8S/DWud6U2N9IvNgCXSjbgmnM2uSBPNn7iXza+E8Q2IrczNgAgGTbUpLw1\r\nmKpzNoJSGzdiAoM2ZpDFNfrlFDY4tAI2RI+mNgX6UTb+VoU2addaNhrNCTZZFHA2uMncNXzMSzbJ\r\nKYk2chpoNlUqsTVQL942eABrNmzNjTZ3X0o2gnWBNn72gTZLTEE2lwQzNgfuCjaKZ0A2Cn+pNqDa\r\nNzbbTXE2Jn7UNu4UKDZVMoQ2j46fNsCxMzbOjB026lnINRYmezYubI02j29ONiv6jzYkvQU24bo/\r\nNlRyPzacL0c24hOWNpYhiDbn4/U1XMKXNjdHgzYwUO01kmwQNsrkGjZWzx02IdkDNtNSCTdR2VE2\r\nthtfNuRpyzaptiM2tEQ0Nkz1XDaF2zA2q9VKNcwlKDW1Wt007vuJNFq4yzRjGzI175BhNbYW/jTC\r\n50I1fp2dNJ2JFzXcfBY1j6wVNck7ADXKUgk1IqzANOh0JjVVrrw0Msw2NZKFGTUaPUI1fBNaNcVN\r\nSTUON7Q0P4fQNFKuFzUxPlU1sICqNGd1ajTm2QI1i7CcNE6RhzRis6A0+Hg7Nbaz2zTd5O41Lo6Q\r\nNCC46jRqY4k02LwPNQsD+zQS2kY1DgsZNQCcHDWKMa00NY4gNbBtFDXqiRc1oiMKNXSGhzRgRxs1\r\nsvCONXglnTQaJsk0VZcVNTwSAjVbovE0HAgiNYYOkDWs+Bk1NoTxNOmQHzWwgbI0cTRKNEIM5zRm\r\n0Eo1Lt3NNDT7uTSlUH81fpTdNNbDuDR5QIA1bivBNDg8tDTqSAw1juzKNPjckTXYQus0QHrGNAe/\r\nzjT+Kxk1k1EENS6XETW7x+g0SgvDNLGCvzSIgvk0RU2fNNSwojQOc7k03IPMNCf6ETV8ef00kiUz\r\nNaCP5DSyjgI1NzurNDzYBDVnrxg1wWfANHpDdjTTMLM0SyeuNCZrpDTpSwg1kQXWNKnmtjTd4L00\r\nCjEvNe+3XjWZAko1Ym35NPTQoTRMXRI1/Kv1NNnw+TREn580ApgENQioMTUc6Qw1wGDtNMWVAjX6\r\nRmI1CN1MNL0nqzQdttc0yKQdNbOO9jSg9bU00Ta0NPpG8jRwfn81zM+VNG1DtzQjBjQ133YnNRiY\r\nzzSD58A0vVEGNeQz7TQc+8c0alDxNOYeqTRZjwM1A1X7NKFF9DRfJtM0Vc0BNUYGIjUIksE0MIwp\r\nNYA4xDQyT2E0+rrONBaUKjWcVbs0lgEXNQhoLjVqYfM0QkIHNXxZBjWjN9A04CoHNf4JgzRmC1I1\r\nHvk2NR48nDSMgG00Zf32NNotNDWhucs0OhP6NCbLvjSa08g0UXkUNWHkGjU2b7M0Jjf1NNWAHTX2\r\nAKk0D22rNDpwCjVAdSE1wIe3NKki1DQ7h1c0c56RNM+EHDWeNvs0MQ70NEBr+DSzItM00gbWNHQw\r\nKDULfMQ0x//kNPxv2TTQtDM1WH4UNV82NTXQGQs1zfzkNE4e5zQRzgg1/pbnNGCS0TTOFd40v6/x\r\nNAS1tjRCvqU0IwneNHHchzWWIeA0UM+4NK8f9TRyIZM0h7UINdtvGDWwIMU0f+g7NQZH3jSvXyg1\r\nQFDUNEfN1zTFaJE0vTVhNZhtEzVsOCo1lI2DNKvBcDU7hyA1G3lgNdKy/jT5BOE0W5yZNMVKxTQt\r\nffo0UfUYNfYY1jRmNic1cjOcNHhM3TQltw01y+wGNdUXAzWjaYQ1EAGsNAMnHTXG2Ok0b2sZNdaU\r\nnTTqTu80BYtpNRavBjXpXoY0gY8TNRz6MzTZ+bU0CwEyNeatmjTYpAw1XQ0NNS4fMDUD3N80w5kB\r\nNbZ+wDSHwM80LsdINflVQTXijxU12ckXNexXHTV3aAk1Y0gINRwPEzWrSkk1gEhcNcKckzRnQdM0\r\nylE8NZTlGjWZRXo1mYPiNKOIGDX9VSk1SDywNE/uAjVE05U0/LpeNYJ8uDT+TwI1K57TNKdFFTVQ\r\nmmw1bxHxNNasyjTwQdg0uDi0NKQl/jRwNLM0eBffNHVFvDRC6IA0QxjQNA8uczQLG6o0fGK7NO7j\r\nmzQBYqc0PLzWNLgI9DTcW6Q0a0AZNYg9STUbsVQ1+5sfNVyxoTRchak0ZlS/NIZF8DQC/LA0KHW2\r\nNAKVBzVhPRg1IxGrNNrwCDVtxBU1lnAcNYeauTTwp/s0RXHANLDJwzTVLtw0yWgLNdyaGTVZOe00\r\nJFcoNZ6B7TQG/MU0+DEUNQFt/DRtlSo14IBuNQxXyzRAZsw0OmxvNepc4TQsbOo0BX5pNeLZFjVa\r\nUP00/NC+NDfFxzSk/Jk0Xv9WNFcJFTUkCfs0nPhONWb3szQLn8U07ItQNLGo0DSMwQE17Z/PNNec\r\n0zRaof0076bINOo8GzXNlYU0hEQkNTyH5jT2YwU1rPNDNQ/OwzRUsuM0rNi/NPhc8DQKmUg1hNDu\r\nNFsmCjUDuzw1VasyNef7cjVSnrA0plT5NKXLhzSFNZ00Ed+nNCFdUDUWMQI1JJnbNNcqvjQMb+40\r\nMCZxNWBYzTTT7DQ1EXZRNffmaTV+3a80W4eUNHE8DjXgGu40gRDrNBPuqjTmEDY1ol3ONJbeJTVU\r\n2RE1pL7HNICD5TRWWw816jZdNU5+4zSdEBA1+UiKNPe7OzXoSB81ciQHNY2hujSihSE1Zmy4NC66\r\njjSDV6M0zDuqNH8orDToE6s0mAmlNNh/LDUtZTA1POHGNHfLdzTbIis17ZIdNZocBDVvRKE0QmwB\r\nNYXQijQkWAs1oC2hNA2Z5TSh2c00fEGaNMT8ujTDZ5w0Y1z7NI2ELjWyxiA1AEAcNQ==",
                            "noiseTrainingType" : "default"
                          }
                        }
                    ],
                    "start" : 1903,
                    "duration" : 15,
                    "mediaStart" : 2115,
                    "mediaDuration" : 15,
                    "scalar" : 1,
                    "metadata" : {
                      "WinSubProjectDisplayName" : "",
                      "clipSpeedAttribute" : false
                    },
                    "animationTracks" : {

                    }
                  },
                  {
                    "id" : 360,
                    "_type" : "AMFile",
                    "src" : 15,
                    "trackNumber" : 0,
                    "attributes" : {
                      "ident" : "旁白_vis2021 1",
                      "sampleRate" : 44100,
                      "bitDepth" : 16,
                      "gain" : 1.0,
                      "mixToMono" : false
                    },
                      "channelNumber" : "0,1",
                    "effects" : [
                        {
                          "effectName" : "NoiseReduction",
                          "parameters" : {
                            "denoiserAmount" : 20.0,
                            "denoiserThreshold" : 0.0,
                            "noiseProfile" : "OWoAPH2pEz2x9Qw+d6HTPcva6j2sp089E2dtPD6vPDwfl1A8ScjwPJTr1Txy35g8LaEAPTpegDyh\r\n+807XKYVO6TEeztxHEg8k5enPOCDljxR1SA80RNNO5P/FTsAUsA78qcaO7cppTsc2vE7qgSrO6lQ\r\n2jukqvI7h92AO2yWGzx+tZU8JitaPFzIyTuXwYE7uY9XO8aQ0Dvqq2I88amYPMnb9DtB2j87KTBk\r\nOzy52zoRSDw7OCjBO9xi/DtxwE88KlbqO3j0qDtWJH47VJnsO9JoxDuANhs8tJ+AO6Qz9Tth+oI8\r\nbGt3O1T1Nzzjhew74A0cPJAvITwici89BseWPGFNtDxkw7o7MRvlOmld0jryf386QXGZOrHMrzuA\r\ngR46FrCVOsPpWDsY4v07HUbYO1nLPjsw9w47wr3FOrnZ+Drc3FY7lUkJO7DAJDv2mAY7Bol9O6Gv\r\nIjui8ek64NliOq5vmTrG/ZM6bCYbO5q5tzpF2YA69unhOXdvJDkMXx461iVVOpU6tTmIPdU5NZ4C\r\nOrLzrDlzv6053gyzOSasszlLTgc5O7atOcYrxzkKtYw6r9cjOpoinjlRRog6Q9QHOqLsbTo5k0E6\r\n9U47OqgHGzq2DIw6xrvIOkIITzrGgR86I/hwOsTOFzq0IQU6isQ5OkIP9DmC+Bw6hsx0OYy4pDnt\r\nMqk5f6afOfFKnDnqIvc5SsRQOpXvdDp8CiE703psOwEALztW+4A6r36ROtKuGDoo4s852RrZOQKM\r\nhDmkgtY4CBe5OXJ5jDnBcjY5RM9jObGZ+DmyHG05aluSOaagETnIyGM5Jt2dOdUxnTmBHwU6PPyu\r\nOQ2PETl6x7k5tcInOtV63TnmcCY6dHftOUWtBzoIt6w5qk+GOf1mbTk4DT454wsLOh2HAjoY+ZY5\r\nyr2VOQQurzmqnRg5LDMFOZLQUjkvV1Q5/g1+OSlxFzlITz85XmAkOdDG/DjiIfM4htxWOREUlTqh\r\nwcw5VnaGOWCBXjn90lA5cKzvOWPrqzkL/o45sEFOOTkyMDpUc5s51oo9ORByjjlGCco52p/tORKy\r\n8Tnit2E51lY0Ofo+ATq6o3Y5Z021OYTVGDlRAq45zuyhOeA4ZDk52eE5nw91ORI2OzlB2R85fgab\r\nOY8bMjkQ1TA5cCaFOXju/Dh2ghM59YD8OFHmfzmnKiQ58YpfOXsbtzlCtX45yEWKOLGkLDkayH45\r\nRUrSOSltyTgvk1U5NT2NOY45EjnfihY5JFlqOTokTjlSlV45Ir54OQ1W5jifjjI5bWS5OfA8NDkO\r\nXs44QhjgOLbnOjkr+iw5hK5/Ocz3Azl6HF45q6DlOIJb2DiR79I4esU3OWtGjDg4gBM5cVloOdzR\r\nDTlkchs5GGg7OVSTtziXOeg4XazEOCiMADmz6Tw5ueqOOVcmeTmS4Ms4nI0UOUTLnjhAXjc56pkE\r\nOdXdBznEOY85PIy4OMxI5zgkSxk5r6oQObvARTnCtUo4LoVEONjrVjnfUsw4msCWOCWAQjlc/y45\r\nJ4KtOCzJrjjGJZ84BKXjOIHj2jhi+yE5rqqOOdCIIzm9fIM56Oo3OUSjtzmiT/M4Wiv3OJw6ETmO\r\nS8w53FJpOdbu1DiJSZs4DaoFOWqKWDkkyvU4GPIdOchJLDmxKwA54MMWOVgzmjgl75M44OcEOVPH\r\n3Dhmzdw4X9sOOb2CyTguC7Y4VgEmOTaQxDjBUAQ5dAM9OarFHjmfj444qMgAOWZMDDmSlas4yUZQ\r\nOaDeMTmPogU5Wxe1OF0m3Dh6aDQ5tbkIObjoEzlqqg45EPLvOKyF+zhUmiE57MvFOPg/vDiW+Vo5\r\nmhyzOGFsBTldBEw4dL3pOOk/QDnXnJQ467sNONFyxDfGPDM3rTsZN+BixjZrWTk338GlNhf/FTe5\r\nNTk2RTSUNkMj3Taj0d02is2UNt0UDDYUXvI1aeXFNhijMjbAtYc2ikWgNuphZDY8D1I28gSnNv4k\r\nLTZRYDk2mtYGN70P5DaWBKc2RzXfNlQFKTeHIYk2IpjaNofVszbqlaM2PatTNiKTzDYjx6M2BMHZ\r\nNiXEdDbJOMs2FNCMNsnGRja2BpI2UsiGNvm1vzbR74Q2wLCoNnn3jDa4fK82VqGlNrSAsTYwh5o2\r\n00guNguj5DYiuZI2yg0BN6PItzbTY6w2VXFINoLcTDbWIk82WJ/cNvx6HDZGdqc2ta/1NVwQMDaG\r\n9VE24mqONlq9rDaNiSE2Lay+NpqbcTYGZ3Q2KPqfNicegDbQyZw27RAtNyQhVjazoMU2izz9Npf0\r\njzbhrAg2zKY4Njo2yjZ1hZE2WNZsNrbfvDZiyp42KRFjNr96jjbjaI02RTYRNmwjhzapnyI2B4XY\r\nNltT7jUOLSY20oDqNhJrxDaCZWw2Ct+VNg/LgjZZzMA2Ik1JNrzQuDZxy901azNqNvW2eDaUuVs2\r\ngu+KNta85ja8P/M1FmShNp/ipjb1OIE21Q/2Nr5JmzYXtZU2x6+qNk6LmTZnjYw2mIJGNul2Jjbc\r\nO3A2lquYNuovLTYtgfE1nUlUNgQzNzaIsDM2DIvUNjKBRja+0oY2ExJ5NgPdJzZaSLQ2EtYgN0Wc\r\nDDbIHow2IiiZNgZUVTa1JnM2v3wcNoN3YDYCtgE38JaENkzoaDb0JTc26/WJNoqw9jYFxFI29vNP\r\nNmdCvDZHFIU2xxObNr0sUTblHoc2JrM/NmrbFDYX93o2m4OpNgs6HDaFNl02Rb2TNpjkJjYAADk2\r\n/8chNn7/QTawezM30gsqNidJ8zWKfC02kBYuNmSnnTa80FY2mFN3NkYZWzY4aO41UHmKNkyZiDYh\r\nGC42h1Y6Np6cgzYSij81AnuaNnc6rzZUXG82vp9eNp4h/jWNsEY2k603NuKSjDbHWSo2RxYINlNS\r\nmTaAOlU2yvJmNkqftzZ5VEk26hV8NjWLezbKM9Y1ernFNWi/XDZaEHQ2dhvANhDaRjYMwy82EwC4\r\nNlCNVTbH4IU2Cx1LNk6XlDbcVNA2FB33NQHMjzY6eW02jpZONqrdMTa+lxk267lUNkhoNDZz+TQ3\r\nwulaNoXxEjYQdsQ2lXEcNsiYOjbfz9o2UzpENvQL0TSOQIM10f8gNcLzLzX5w2c1H4efNN2VyTQO\r\nn70011tKNT7aKTUG8/w0QEgiNUCRKjWhXKI03LYLNQzSrjUnb9E0iB65NCpfLzVs4tk0emppNQtw\r\n8zTy2+U0USoLNeRnDTU88Uc19BfdNFPdNDVtA7Q09QQJNdJhKTXqRNg0am3RNG251DQ1KrA0Oj/Y\r\nNOrxkjTQ8cI0+3eXNEYitDR9exs1YvMdNUBR5DR0pQE1EGj5NAq8KTXmxKs0ErgPNTXAAjVM71g1\r\n2McYNch2PjVA3vs0HZGgNJEIOTWY3M40B5RGNGfgUDUIWUw1AAKQNPuJvjRnt4w0M0qUNPpcxjR3\r\nCM0000dJNZjtnTSx6rQ09gISNSzUKjVHscM0TBtXNYWZEDWjpck07HS+NMuEnzTVZ0U1duMGNWCg\r\n6jTs3880YBEXNT+XujRa3bk0wUISNadMADU5AQ411F8ONePs/jS0pjA105FENQ/HnjQmcwg1WPKH\r\nNFq2nTSuOLI0S9MpNbyI/zTAPso0+sXPNPLB3DTur8o0PLbHNPmbnzT+MvY0YjqvNCUXJTXMJp80\r\nndUPNWmVEjXazkY1O5DgNMl4gzVmyAY1rYEfNXmSQTWIrhU1ikoVNSCqpDTaEbY0/AvpNLIwhDSh\r\nIww1MCwENb5Y/zSUBhw1UowYNbXtpzTvlg4155xcNZhCrDRWs9U0k616NIzznjRmnAQ1Khq/NEm9\r\nCTUki940fgEVNZA1JzWkzqg0RtjuNI+WjTW0QRg1omMcNXzDIDUDHKI0NVu3NMMpRDVCjIo0ViIs\r\nNfxAITWCVB81HXTcNB0NXDWG+bE03vcdNf6QMzXAn8s0Eg/NNATJsTQE9U01LMELNX7DoDSIEB41\r\nwLEGNUVbzTQ8Pwo1QFCINBFgFTVn0vo0JOCjNNaR8zQ1vx41DXUDNak+EjUNQYo08gC7NFzPoTSI\r\n7RU1kpUbNYXvKzWOx240VWf0NGRuBzU6PIo0wlCGNT7g9jSWZjw1Ml4BNRvl6jTQR3w1lmHdNGfd\r\nITTobvU0ypuvNEpF+jTjNY40JYO7NCfBbzQijsA0us84Na6J8TQIYwU1V3IrNSwmYTXQ1kU0zKTc\r\nNDTVfzTj6to0SbOuNHwCvTQ/eR01mcuPNPTduTRDjf806a+nNAj20DREKOo0nPlPNQTe+zQNWSo1\r\nlpGmNBv9xzT/tzk1CtkQNapg2jSMQlI1MDUTNRhOMjWh56Q0AygANa8srzRbOwQ187XxNOQlwDSQ\r\nNO80mTAVNaBD6TQbeoo0UM6FNHPMCjV4t7k0gIxkNE02BjXYBQo1AhAcNWJMijS64uA0zd0JNXWm\r\nEDWiijY1ZpSXNNpWpzTYT+k0QHbzNDaorzSGDHs0qT7ONBvuhzSyYys1dPYCNQdToDTk8uU0MwYH\r\nNWYw+TRbj4g1aJxzNHlxCDVIE8c0Nl2SNOyilTRoqUs1KtMvNbhJPjVmcCE12eGANQ1X8jSNKZo0\r\ndGHdNGrcDjXxZ0A0JhPPNJb14jSwx8o0morUNDmP2DTubH40SSbdNE1r7TRT3rk0EZGLNP35LjV1\r\n1640P7XhNLEsczQldYc02X7eNAZ67jSawbI0drgeNb6GtzSMN9U00j4cNQhrBzWSqgw14dAnNYUF\r\nnDTQSpg0P9OMNOHDLTULMsI0QH6VNI2nxDSl5Yc0WHyLNCaeLDXnc6Y0AaCFNBQP7TTJzR41kvoE\r\nNRykHjU6wZw0+cjVNJdR1TSiQQU10AuONaiUkzUExgY1MMYONaRkZTT9EAU11Bu0NC2j3jTIM4A0\r\nal8cNSoRTzXbrSk1FTDYNEBqkjTgDwA1sun9NP5ztDRWob80HSSSNGYkGDWnkuM0RaMANeGLITXo\r\nTow0GNvbNJlRuzSgsOY0CpP5NMVL9jRRErs0aS1TNVNWgDSmPp80Gvy3NBnwGDXWr7M0dB/VNIw8\r\n0DQBkZ410iF5NDXYLTVZSxU1T0S6NHIrqTRzbRA1XDWKNA2phjRVwpo0SPJ1NGzsODX8K6Y0ne6l\r\nNNU3JjWsl7M0wb+kNKhE5TQUaN8041HRNPhNtTRpfuQ09awXNcwLtDS6nqA0qbk4Nbg8qTQ3pSA0\r\nkRS8NLXO0DRqdcQ0b//eNLPvrDQGQu00fPstNS/HMTWPJMc0fIrENBIciDSLv/k00iuaNNjgPDWm\r\not00DFkCNfHQhDTO4qY0xTYDNbDSOTWNTjA1dLcPNZB1uzQDUrY08mkFNZaNRjXzzK00ErsDNVeQ\r\n3zS5HxA1pmTINLQDBTWIxP008Ny+NADrGDWeipI0eMHvM5R6CTWA3x01wRO2NE0PBDXZKrU0GFyV\r\nNOCJrzSgxtE0tQR+NKJP0zTmcMA0zgvvNFJN7TT5eA41x/eHNAie2jTBXoU1JbdYNQAAEDUAZAE8\r\nF6YTPaE6DT5EKNM9dQ3rPVEOUD0ioW480q89PCfdUDzbEfI8OKDUPGwsmDxHYgE9amiBPGR1zjsP\r\nPhU7a3x7OyhGRzygj6g8mBGWPCuBIDwy9E47Dr4TO1iRvDsOzBo7Kk6nOyjG8juQWao70ZvWOxbH\r\n8zuU8n07aPEbPGxKlzygoVs8TMfIO9+xhDsybFY7q+rTO/L8YTx2ZJg8LVf1O0mYPjuCWmQ7fLXf\r\nOt2APzt7zMI7O4D+Ox50Tzw8t+w7lE+pOzStezsIHeo7gHbGO/xxGTz7XIA7vAj1O108gzyol3g7\r\ntww5PFZa6zv7yxw8BjMgPKnvLj13cpY8hhS0PDysuTskGOc6fsrQOrACgDqdYpQ6nrawO0mtIzpq\r\niZQ6oWVXO4pL/Dsyi9U7isI/O5AADzuqPMM6Xcz3OuCjVjsJJAU70nAkO3xeCzuPI4E7G4YiO1p8\r\n7jrINmQ6RKiWOkNYjzquKxk7L5jEOkefiTpiBN05wkIqOcZGDTp6g046RrOpOQ6EwjmtPgQ6e2Gc\r\nOSSjpDlo8ZU55XS9ObmuBzlz4785N8m2OWCrjzo4vB06uHOTOSQohDrAdAk6ttpzOqV9QjpzGTY6\r\n3XEaOsgBjjqKt8k6HvZMOicoGjocq2w6ap4WOhHEADrfCzk63skBOgeJHDrUTnI5YkuiObHDpjmu\r\nSKM5/cCSOf1k+zmMGlI6inluOu+YIDu89m07RVI0O6+Kgzr+5446GKYWOsGMzDkpPtU5IguVOWYu\r\n0Thu2rs5wj2KOYr0Szln8mE5OIzqOdZKbDmJnpY5zvoYORbfcjmJJb45rPudOReeBTpaM7A5gOEv\r\nOfU4rjmBKBo6bN3fOQHYIDpCxO45IMMKOhDuqjnu5385nKuKOcsUJTnO6QY6IssJOqWwlTkE/nk5\r\n982pOYJKFzlMEgc5kM8qOTzQSjkjjFw5oLMhOb3XTTlwQiA5qwrfOFyxBDkkj0w5MGaVOpPkyzkA\r\nWYw5x/dWOdTGaDnThQM6cUq4OS/ykTn8pTU5cg8tOjmUnzmJETc5yAicOQHqsTm7VQY6AgbzOcxp\r\nYTnUlDk5COb3OVNucjnJjtA5lvYsOVSTlDlbCZA5jieCOevY/jld/5M5ZAsQOQCjIjmaXZk5X2sk\r\nOaKvQDn3w2A5sFLsOCInSDnjTPU4Pw52ORiOFTnxB085aOe5Oeymfzkdh5Q4b9kUOTcjiDlltOQ5\r\nW97hOK93TDk6TJo5GxUROfmZKDmqWVg5gnArOZiUUTljp2g5VN4COa51OjmCG6857I8hOQJUyDiy\r\nFeY4PzlIOQnaEjkNa105LJgJOedSTTmft9w4RFvhOEMPBjkBNUc5IxKaOKB0AzlHK0Y5uzfsOA7s\r\nCTnIO1A5K33WOKFk2jjp16849C8QOWZpPTn28K85JD91Ocr4pTiAdCY50TmeOH4OPTl/1vM4rUTC\r\nOKr9azkWMbo4F7ngOLhyVDn8tgw5pjZnOXrXVTgwxCo4OQx/OXmv4TiOkZs4EjRhOc/BKzm9HJg4\r\nmNmEOBptqTgOwN44isnuOMjHEDkVGqA5ZsgfOcwJgTn/qS85F5G9OSUi8Th4/wU58kwEOcGM0znk\r\nW1o5KBbSOPxmrjgoieg4mOJqOacY5jhwBhY5iXUjOeCfAjn89RI53mOTOE5nnDgXwQo59x/YOLsN\r\nvzisAgg5ZZXBONJSyTg4ChA5g0OvOOLhCzk2PkQ5yZUgOf1/lTgIavM4G5cEObRwszj5plM54Ngg\r\nOTpfCjmgXsE4/c7tOPbIHjng2QM52pkWOVEIBjnWdfE44lgEOVkCJTm3Js04paCwOJruaDnED7c4\r\nlngHOd1wSThLgdw4+MM6OWkNiTjQTig4ZOnTNxI6RTeeDew2cZ29Nv7NAjclhNM2iMnzNsyKczZM\r\nTqE2NwIANyN0CjdyN5Q2WgazNq/6RTZdvu82CgJ2NnBTbzZ2Y8g2nCmlNornMTbyM/U2XdYuNnYx\r\nDDZETwI3eL+nNkEyGTdWc042Yb0WNzGqlDaNeNI2vHqNNkA4sDYmdYE2+cmANhHYVzaKnIs2sgCG\r\nNgmRtTZMoZo22v10NnRMhzYJ96I2OKTLNuYomzb9GYQ2aZ4gNg34YTYuHZo2W3zKNg54fjYZjkw2\r\nf2wUN3Od0TYrN5w2qv+fNtmNlTawHlI20q1xNtWcgzbalsQ2aqh0NqiRqzZJr+Y1tKkfNvwthjbs\r\njso2aMOjNjtLWzaqzNg2QuVVNvmDcTZsOcU2ODthNmCKmjZkwsw2JO2RNrvV7zZ/j5g2X3SCNuWv\r\njDatdLA22aTFNuHopjZGQ1k280BwNm9ZdzZuF3o2uV16NukrgjZ0cmI2oP0yNtheUDbrCZM2IZD3\r\nNcjiiDbmV9M2x6S6NnU/pzZADwg2huV1NusKwzZOBTQ2+FGNNgbaCjZtFJo2oEWzNnsKijZWeO02\r\nGtuJNu8IdjY49Yg2Mr2ANg3ZzjZiM+s2PSKeNoMphDa/F582hoJcNt0QxjZWOKM2KJ8XNqxVQjbY\r\ngaI2GZ6aNs0bpTU+g5g2tEowNtIkZDYOlas2ZR1xNtIkgzZRo4A2kxo0Nq+R7DZCmS43Jnh6NgQS\r\nbDb4RYg2lNw9NuvPkzYiw3I2yo89NhID7TYcIIw26OkjNrMkKzbG26s2fgyyNkykhTarGu41ZVyZ\r\nNs59hja4/3g2DVwlNg8S/DWud6U2N9IvNgCXSjbgmnM2uSBPNn7iXza+E8Q2IrczNgAgGTbUpLw1\r\nmKpzNoJSGzdiAoM2ZpDFNfrlFDY4tAI2RI+mNgX6UTb+VoU2addaNhrNCTZZFHA2uMncNXzMSzbJ\r\nKYk2chpoNlUqsTVQL942eABrNmzNjTZ3X0o2gnWBNn72gTZLTEE2lwQzNgfuCjaKZ0A2Cn+pNqDa\r\nNzbbTXE2Jn7UNu4UKDZVMoQ2j46fNsCxMzbOjB026lnINRYmezYubI02j29ONiv6jzYkvQU24bo/\r\nNlRyPzacL0c24hOWNpYhiDbn4/U1XMKXNjdHgzYwUO01kmwQNsrkGjZWzx02IdkDNtNSCTdR2VE2\r\nthtfNuRpyzaptiM2tEQ0Nkz1XDaF2zA2q9VKNcwlKDW1Wt007vuJNFq4yzRjGzI175BhNbYW/jTC\r\n50I1fp2dNJ2JFzXcfBY1j6wVNck7ADXKUgk1IqzANOh0JjVVrrw0Msw2NZKFGTUaPUI1fBNaNcVN\r\nSTUON7Q0P4fQNFKuFzUxPlU1sICqNGd1ajTm2QI1i7CcNE6RhzRis6A0+Hg7Nbaz2zTd5O41Lo6Q\r\nNCC46jRqY4k02LwPNQsD+zQS2kY1DgsZNQCcHDWKMa00NY4gNbBtFDXqiRc1oiMKNXSGhzRgRxs1\r\nsvCONXglnTQaJsk0VZcVNTwSAjVbovE0HAgiNYYOkDWs+Bk1NoTxNOmQHzWwgbI0cTRKNEIM5zRm\r\n0Eo1Lt3NNDT7uTSlUH81fpTdNNbDuDR5QIA1bivBNDg8tDTqSAw1juzKNPjckTXYQus0QHrGNAe/\r\nzjT+Kxk1k1EENS6XETW7x+g0SgvDNLGCvzSIgvk0RU2fNNSwojQOc7k03IPMNCf6ETV8ef00kiUz\r\nNaCP5DSyjgI1NzurNDzYBDVnrxg1wWfANHpDdjTTMLM0SyeuNCZrpDTpSwg1kQXWNKnmtjTd4L00\r\nCjEvNe+3XjWZAko1Ym35NPTQoTRMXRI1/Kv1NNnw+TREn580ApgENQioMTUc6Qw1wGDtNMWVAjX6\r\nRmI1CN1MNL0nqzQdttc0yKQdNbOO9jSg9bU00Ta0NPpG8jRwfn81zM+VNG1DtzQjBjQ133YnNRiY\r\nzzSD58A0vVEGNeQz7TQc+8c0alDxNOYeqTRZjwM1A1X7NKFF9DRfJtM0Vc0BNUYGIjUIksE0MIwp\r\nNYA4xDQyT2E0+rrONBaUKjWcVbs0lgEXNQhoLjVqYfM0QkIHNXxZBjWjN9A04CoHNf4JgzRmC1I1\r\nHvk2NR48nDSMgG00Zf32NNotNDWhucs0OhP6NCbLvjSa08g0UXkUNWHkGjU2b7M0Jjf1NNWAHTX2\r\nAKk0D22rNDpwCjVAdSE1wIe3NKki1DQ7h1c0c56RNM+EHDWeNvs0MQ70NEBr+DSzItM00gbWNHQw\r\nKDULfMQ0x//kNPxv2TTQtDM1WH4UNV82NTXQGQs1zfzkNE4e5zQRzgg1/pbnNGCS0TTOFd40v6/x\r\nNAS1tjRCvqU0IwneNHHchzWWIeA0UM+4NK8f9TRyIZM0h7UINdtvGDWwIMU0f+g7NQZH3jSvXyg1\r\nQFDUNEfN1zTFaJE0vTVhNZhtEzVsOCo1lI2DNKvBcDU7hyA1G3lgNdKy/jT5BOE0W5yZNMVKxTQt\r\nffo0UfUYNfYY1jRmNic1cjOcNHhM3TQltw01y+wGNdUXAzWjaYQ1EAGsNAMnHTXG2Ok0b2sZNdaU\r\nnTTqTu80BYtpNRavBjXpXoY0gY8TNRz6MzTZ+bU0CwEyNeatmjTYpAw1XQ0NNS4fMDUD3N80w5kB\r\nNbZ+wDSHwM80LsdINflVQTXijxU12ckXNexXHTV3aAk1Y0gINRwPEzWrSkk1gEhcNcKckzRnQdM0\r\nylE8NZTlGjWZRXo1mYPiNKOIGDX9VSk1SDywNE/uAjVE05U0/LpeNYJ8uDT+TwI1K57TNKdFFTVQ\r\nmmw1bxHxNNasyjTwQdg0uDi0NKQl/jRwNLM0eBffNHVFvDRC6IA0QxjQNA8uczQLG6o0fGK7NO7j\r\nmzQBYqc0PLzWNLgI9DTcW6Q0a0AZNYg9STUbsVQ1+5sfNVyxoTRchak0ZlS/NIZF8DQC/LA0KHW2\r\nNAKVBzVhPRg1IxGrNNrwCDVtxBU1lnAcNYeauTTwp/s0RXHANLDJwzTVLtw0yWgLNdyaGTVZOe00\r\nJFcoNZ6B7TQG/MU0+DEUNQFt/DRtlSo14IBuNQxXyzRAZsw0OmxvNepc4TQsbOo0BX5pNeLZFjVa\r\nUP00/NC+NDfFxzSk/Jk0Xv9WNFcJFTUkCfs0nPhONWb3szQLn8U07ItQNLGo0DSMwQE17Z/PNNec\r\n0zRaof0076bINOo8GzXNlYU0hEQkNTyH5jT2YwU1rPNDNQ/OwzRUsuM0rNi/NPhc8DQKmUg1hNDu\r\nNFsmCjUDuzw1VasyNef7cjVSnrA0plT5NKXLhzSFNZ00Ed+nNCFdUDUWMQI1JJnbNNcqvjQMb+40\r\nMCZxNWBYzTTT7DQ1EXZRNffmaTV+3a80W4eUNHE8DjXgGu40gRDrNBPuqjTmEDY1ol3ONJbeJTVU\r\n2RE1pL7HNICD5TRWWw816jZdNU5+4zSdEBA1+UiKNPe7OzXoSB81ciQHNY2hujSihSE1Zmy4NC66\r\njjSDV6M0zDuqNH8orDToE6s0mAmlNNh/LDUtZTA1POHGNHfLdzTbIis17ZIdNZocBDVvRKE0QmwB\r\nNYXQijQkWAs1oC2hNA2Z5TSh2c00fEGaNMT8ujTDZ5w0Y1z7NI2ELjWyxiA1AEAcNQ==",
                            "noiseTrainingType" : "default"
                          }
                        }
                    ],
                    "start" : 1918,
                    "duration" : 104,
                    "mediaStart" : 2196,
                    "mediaDuration" : 104,
                    "scalar" : 1,
                    "metadata" : {
                      "WinSubProjectDisplayName" : "",
                      "clipSpeedAttribute" : false
                    },
                    "animationTracks" : {

                    }
                  },
                  {
                    "id" : 361,
                    "_type" : "AMFile",
                    "src" : 15,
                    "trackNumber" : 0,
                    "attributes" : {
                      "ident" : "旁白_vis2021 1",
                      "sampleRate" : 44100,
                      "bitDepth" : 16,
                      "gain" : 1.0,
                      "mixToMono" : false
                    },
                      "channelNumber" : "0,1",
                    "effects" : [
                        {
                          "effectName" : "NoiseReduction",
                          "parameters" : {
                            "denoiserAmount" : 20.0,
                            "denoiserThreshold" : 0.0,
                            "noiseProfile" : "OWoAPH2pEz2x9Qw+d6HTPcva6j2sp089E2dtPD6vPDwfl1A8ScjwPJTr1Txy35g8LaEAPTpegDyh\r\n+807XKYVO6TEeztxHEg8k5enPOCDljxR1SA80RNNO5P/FTsAUsA78qcaO7cppTsc2vE7qgSrO6lQ\r\n2jukqvI7h92AO2yWGzx+tZU8JitaPFzIyTuXwYE7uY9XO8aQ0Dvqq2I88amYPMnb9DtB2j87KTBk\r\nOzy52zoRSDw7OCjBO9xi/DtxwE88KlbqO3j0qDtWJH47VJnsO9JoxDuANhs8tJ+AO6Qz9Tth+oI8\r\nbGt3O1T1Nzzjhew74A0cPJAvITwici89BseWPGFNtDxkw7o7MRvlOmld0jryf386QXGZOrHMrzuA\r\ngR46FrCVOsPpWDsY4v07HUbYO1nLPjsw9w47wr3FOrnZ+Drc3FY7lUkJO7DAJDv2mAY7Bol9O6Gv\r\nIjui8ek64NliOq5vmTrG/ZM6bCYbO5q5tzpF2YA69unhOXdvJDkMXx461iVVOpU6tTmIPdU5NZ4C\r\nOrLzrDlzv6053gyzOSasszlLTgc5O7atOcYrxzkKtYw6r9cjOpoinjlRRog6Q9QHOqLsbTo5k0E6\r\n9U47OqgHGzq2DIw6xrvIOkIITzrGgR86I/hwOsTOFzq0IQU6isQ5OkIP9DmC+Bw6hsx0OYy4pDnt\r\nMqk5f6afOfFKnDnqIvc5SsRQOpXvdDp8CiE703psOwEALztW+4A6r36ROtKuGDoo4s852RrZOQKM\r\nhDmkgtY4CBe5OXJ5jDnBcjY5RM9jObGZ+DmyHG05aluSOaagETnIyGM5Jt2dOdUxnTmBHwU6PPyu\r\nOQ2PETl6x7k5tcInOtV63TnmcCY6dHftOUWtBzoIt6w5qk+GOf1mbTk4DT454wsLOh2HAjoY+ZY5\r\nyr2VOQQurzmqnRg5LDMFOZLQUjkvV1Q5/g1+OSlxFzlITz85XmAkOdDG/DjiIfM4htxWOREUlTqh\r\nwcw5VnaGOWCBXjn90lA5cKzvOWPrqzkL/o45sEFOOTkyMDpUc5s51oo9ORByjjlGCco52p/tORKy\r\n8Tnit2E51lY0Ofo+ATq6o3Y5Z021OYTVGDlRAq45zuyhOeA4ZDk52eE5nw91ORI2OzlB2R85fgab\r\nOY8bMjkQ1TA5cCaFOXju/Dh2ghM59YD8OFHmfzmnKiQ58YpfOXsbtzlCtX45yEWKOLGkLDkayH45\r\nRUrSOSltyTgvk1U5NT2NOY45EjnfihY5JFlqOTokTjlSlV45Ir54OQ1W5jifjjI5bWS5OfA8NDkO\r\nXs44QhjgOLbnOjkr+iw5hK5/Ocz3Azl6HF45q6DlOIJb2DiR79I4esU3OWtGjDg4gBM5cVloOdzR\r\nDTlkchs5GGg7OVSTtziXOeg4XazEOCiMADmz6Tw5ueqOOVcmeTmS4Ms4nI0UOUTLnjhAXjc56pkE\r\nOdXdBznEOY85PIy4OMxI5zgkSxk5r6oQObvARTnCtUo4LoVEONjrVjnfUsw4msCWOCWAQjlc/y45\r\nJ4KtOCzJrjjGJZ84BKXjOIHj2jhi+yE5rqqOOdCIIzm9fIM56Oo3OUSjtzmiT/M4Wiv3OJw6ETmO\r\nS8w53FJpOdbu1DiJSZs4DaoFOWqKWDkkyvU4GPIdOchJLDmxKwA54MMWOVgzmjgl75M44OcEOVPH\r\n3Dhmzdw4X9sOOb2CyTguC7Y4VgEmOTaQxDjBUAQ5dAM9OarFHjmfj444qMgAOWZMDDmSlas4yUZQ\r\nOaDeMTmPogU5Wxe1OF0m3Dh6aDQ5tbkIObjoEzlqqg45EPLvOKyF+zhUmiE57MvFOPg/vDiW+Vo5\r\nmhyzOGFsBTldBEw4dL3pOOk/QDnXnJQ467sNONFyxDfGPDM3rTsZN+BixjZrWTk338GlNhf/FTe5\r\nNTk2RTSUNkMj3Taj0d02is2UNt0UDDYUXvI1aeXFNhijMjbAtYc2ikWgNuphZDY8D1I28gSnNv4k\r\nLTZRYDk2mtYGN70P5DaWBKc2RzXfNlQFKTeHIYk2IpjaNofVszbqlaM2PatTNiKTzDYjx6M2BMHZ\r\nNiXEdDbJOMs2FNCMNsnGRja2BpI2UsiGNvm1vzbR74Q2wLCoNnn3jDa4fK82VqGlNrSAsTYwh5o2\r\n00guNguj5DYiuZI2yg0BN6PItzbTY6w2VXFINoLcTDbWIk82WJ/cNvx6HDZGdqc2ta/1NVwQMDaG\r\n9VE24mqONlq9rDaNiSE2Lay+NpqbcTYGZ3Q2KPqfNicegDbQyZw27RAtNyQhVjazoMU2izz9Npf0\r\njzbhrAg2zKY4Njo2yjZ1hZE2WNZsNrbfvDZiyp42KRFjNr96jjbjaI02RTYRNmwjhzapnyI2B4XY\r\nNltT7jUOLSY20oDqNhJrxDaCZWw2Ct+VNg/LgjZZzMA2Ik1JNrzQuDZxy901azNqNvW2eDaUuVs2\r\ngu+KNta85ja8P/M1FmShNp/ipjb1OIE21Q/2Nr5JmzYXtZU2x6+qNk6LmTZnjYw2mIJGNul2Jjbc\r\nO3A2lquYNuovLTYtgfE1nUlUNgQzNzaIsDM2DIvUNjKBRja+0oY2ExJ5NgPdJzZaSLQ2EtYgN0Wc\r\nDDbIHow2IiiZNgZUVTa1JnM2v3wcNoN3YDYCtgE38JaENkzoaDb0JTc26/WJNoqw9jYFxFI29vNP\r\nNmdCvDZHFIU2xxObNr0sUTblHoc2JrM/NmrbFDYX93o2m4OpNgs6HDaFNl02Rb2TNpjkJjYAADk2\r\n/8chNn7/QTawezM30gsqNidJ8zWKfC02kBYuNmSnnTa80FY2mFN3NkYZWzY4aO41UHmKNkyZiDYh\r\nGC42h1Y6Np6cgzYSij81AnuaNnc6rzZUXG82vp9eNp4h/jWNsEY2k603NuKSjDbHWSo2RxYINlNS\r\nmTaAOlU2yvJmNkqftzZ5VEk26hV8NjWLezbKM9Y1ernFNWi/XDZaEHQ2dhvANhDaRjYMwy82EwC4\r\nNlCNVTbH4IU2Cx1LNk6XlDbcVNA2FB33NQHMjzY6eW02jpZONqrdMTa+lxk267lUNkhoNDZz+TQ3\r\nwulaNoXxEjYQdsQ2lXEcNsiYOjbfz9o2UzpENvQL0TSOQIM10f8gNcLzLzX5w2c1H4efNN2VyTQO\r\nn70011tKNT7aKTUG8/w0QEgiNUCRKjWhXKI03LYLNQzSrjUnb9E0iB65NCpfLzVs4tk0emppNQtw\r\n8zTy2+U0USoLNeRnDTU88Uc19BfdNFPdNDVtA7Q09QQJNdJhKTXqRNg0am3RNG251DQ1KrA0Oj/Y\r\nNOrxkjTQ8cI0+3eXNEYitDR9exs1YvMdNUBR5DR0pQE1EGj5NAq8KTXmxKs0ErgPNTXAAjVM71g1\r\n2McYNch2PjVA3vs0HZGgNJEIOTWY3M40B5RGNGfgUDUIWUw1AAKQNPuJvjRnt4w0M0qUNPpcxjR3\r\nCM0000dJNZjtnTSx6rQ09gISNSzUKjVHscM0TBtXNYWZEDWjpck07HS+NMuEnzTVZ0U1duMGNWCg\r\n6jTs3880YBEXNT+XujRa3bk0wUISNadMADU5AQ411F8ONePs/jS0pjA105FENQ/HnjQmcwg1WPKH\r\nNFq2nTSuOLI0S9MpNbyI/zTAPso0+sXPNPLB3DTur8o0PLbHNPmbnzT+MvY0YjqvNCUXJTXMJp80\r\nndUPNWmVEjXazkY1O5DgNMl4gzVmyAY1rYEfNXmSQTWIrhU1ikoVNSCqpDTaEbY0/AvpNLIwhDSh\r\nIww1MCwENb5Y/zSUBhw1UowYNbXtpzTvlg4155xcNZhCrDRWs9U0k616NIzznjRmnAQ1Khq/NEm9\r\nCTUki940fgEVNZA1JzWkzqg0RtjuNI+WjTW0QRg1omMcNXzDIDUDHKI0NVu3NMMpRDVCjIo0ViIs\r\nNfxAITWCVB81HXTcNB0NXDWG+bE03vcdNf6QMzXAn8s0Eg/NNATJsTQE9U01LMELNX7DoDSIEB41\r\nwLEGNUVbzTQ8Pwo1QFCINBFgFTVn0vo0JOCjNNaR8zQ1vx41DXUDNak+EjUNQYo08gC7NFzPoTSI\r\n7RU1kpUbNYXvKzWOx240VWf0NGRuBzU6PIo0wlCGNT7g9jSWZjw1Ml4BNRvl6jTQR3w1lmHdNGfd\r\nITTobvU0ypuvNEpF+jTjNY40JYO7NCfBbzQijsA0us84Na6J8TQIYwU1V3IrNSwmYTXQ1kU0zKTc\r\nNDTVfzTj6to0SbOuNHwCvTQ/eR01mcuPNPTduTRDjf806a+nNAj20DREKOo0nPlPNQTe+zQNWSo1\r\nlpGmNBv9xzT/tzk1CtkQNapg2jSMQlI1MDUTNRhOMjWh56Q0AygANa8srzRbOwQ187XxNOQlwDSQ\r\nNO80mTAVNaBD6TQbeoo0UM6FNHPMCjV4t7k0gIxkNE02BjXYBQo1AhAcNWJMijS64uA0zd0JNXWm\r\nEDWiijY1ZpSXNNpWpzTYT+k0QHbzNDaorzSGDHs0qT7ONBvuhzSyYys1dPYCNQdToDTk8uU0MwYH\r\nNWYw+TRbj4g1aJxzNHlxCDVIE8c0Nl2SNOyilTRoqUs1KtMvNbhJPjVmcCE12eGANQ1X8jSNKZo0\r\ndGHdNGrcDjXxZ0A0JhPPNJb14jSwx8o0morUNDmP2DTubH40SSbdNE1r7TRT3rk0EZGLNP35LjV1\r\n1640P7XhNLEsczQldYc02X7eNAZ67jSawbI0drgeNb6GtzSMN9U00j4cNQhrBzWSqgw14dAnNYUF\r\nnDTQSpg0P9OMNOHDLTULMsI0QH6VNI2nxDSl5Yc0WHyLNCaeLDXnc6Y0AaCFNBQP7TTJzR41kvoE\r\nNRykHjU6wZw0+cjVNJdR1TSiQQU10AuONaiUkzUExgY1MMYONaRkZTT9EAU11Bu0NC2j3jTIM4A0\r\nal8cNSoRTzXbrSk1FTDYNEBqkjTgDwA1sun9NP5ztDRWob80HSSSNGYkGDWnkuM0RaMANeGLITXo\r\nTow0GNvbNJlRuzSgsOY0CpP5NMVL9jRRErs0aS1TNVNWgDSmPp80Gvy3NBnwGDXWr7M0dB/VNIw8\r\n0DQBkZ410iF5NDXYLTVZSxU1T0S6NHIrqTRzbRA1XDWKNA2phjRVwpo0SPJ1NGzsODX8K6Y0ne6l\r\nNNU3JjWsl7M0wb+kNKhE5TQUaN8041HRNPhNtTRpfuQ09awXNcwLtDS6nqA0qbk4Nbg8qTQ3pSA0\r\nkRS8NLXO0DRqdcQ0b//eNLPvrDQGQu00fPstNS/HMTWPJMc0fIrENBIciDSLv/k00iuaNNjgPDWm\r\not00DFkCNfHQhDTO4qY0xTYDNbDSOTWNTjA1dLcPNZB1uzQDUrY08mkFNZaNRjXzzK00ErsDNVeQ\r\n3zS5HxA1pmTINLQDBTWIxP008Ny+NADrGDWeipI0eMHvM5R6CTWA3x01wRO2NE0PBDXZKrU0GFyV\r\nNOCJrzSgxtE0tQR+NKJP0zTmcMA0zgvvNFJN7TT5eA41x/eHNAie2jTBXoU1JbdYNQAAEDUAZAE8\r\nF6YTPaE6DT5EKNM9dQ3rPVEOUD0ioW480q89PCfdUDzbEfI8OKDUPGwsmDxHYgE9amiBPGR1zjsP\r\nPhU7a3x7OyhGRzygj6g8mBGWPCuBIDwy9E47Dr4TO1iRvDsOzBo7Kk6nOyjG8juQWao70ZvWOxbH\r\n8zuU8n07aPEbPGxKlzygoVs8TMfIO9+xhDsybFY7q+rTO/L8YTx2ZJg8LVf1O0mYPjuCWmQ7fLXf\r\nOt2APzt7zMI7O4D+Ox50Tzw8t+w7lE+pOzStezsIHeo7gHbGO/xxGTz7XIA7vAj1O108gzyol3g7\r\ntww5PFZa6zv7yxw8BjMgPKnvLj13cpY8hhS0PDysuTskGOc6fsrQOrACgDqdYpQ6nrawO0mtIzpq\r\niZQ6oWVXO4pL/Dsyi9U7isI/O5AADzuqPMM6Xcz3OuCjVjsJJAU70nAkO3xeCzuPI4E7G4YiO1p8\r\n7jrINmQ6RKiWOkNYjzquKxk7L5jEOkefiTpiBN05wkIqOcZGDTp6g046RrOpOQ6EwjmtPgQ6e2Gc\r\nOSSjpDlo8ZU55XS9ObmuBzlz4785N8m2OWCrjzo4vB06uHOTOSQohDrAdAk6ttpzOqV9QjpzGTY6\r\n3XEaOsgBjjqKt8k6HvZMOicoGjocq2w6ap4WOhHEADrfCzk63skBOgeJHDrUTnI5YkuiObHDpjmu\r\nSKM5/cCSOf1k+zmMGlI6inluOu+YIDu89m07RVI0O6+Kgzr+5446GKYWOsGMzDkpPtU5IguVOWYu\r\n0Thu2rs5wj2KOYr0Szln8mE5OIzqOdZKbDmJnpY5zvoYORbfcjmJJb45rPudOReeBTpaM7A5gOEv\r\nOfU4rjmBKBo6bN3fOQHYIDpCxO45IMMKOhDuqjnu5385nKuKOcsUJTnO6QY6IssJOqWwlTkE/nk5\r\n982pOYJKFzlMEgc5kM8qOTzQSjkjjFw5oLMhOb3XTTlwQiA5qwrfOFyxBDkkj0w5MGaVOpPkyzkA\r\nWYw5x/dWOdTGaDnThQM6cUq4OS/ykTn8pTU5cg8tOjmUnzmJETc5yAicOQHqsTm7VQY6AgbzOcxp\r\nYTnUlDk5COb3OVNucjnJjtA5lvYsOVSTlDlbCZA5jieCOevY/jld/5M5ZAsQOQCjIjmaXZk5X2sk\r\nOaKvQDn3w2A5sFLsOCInSDnjTPU4Pw52ORiOFTnxB085aOe5Oeymfzkdh5Q4b9kUOTcjiDlltOQ5\r\nW97hOK93TDk6TJo5GxUROfmZKDmqWVg5gnArOZiUUTljp2g5VN4COa51OjmCG6857I8hOQJUyDiy\r\nFeY4PzlIOQnaEjkNa105LJgJOedSTTmft9w4RFvhOEMPBjkBNUc5IxKaOKB0AzlHK0Y5uzfsOA7s\r\nCTnIO1A5K33WOKFk2jjp16849C8QOWZpPTn28K85JD91Ocr4pTiAdCY50TmeOH4OPTl/1vM4rUTC\r\nOKr9azkWMbo4F7ngOLhyVDn8tgw5pjZnOXrXVTgwxCo4OQx/OXmv4TiOkZs4EjRhOc/BKzm9HJg4\r\nmNmEOBptqTgOwN44isnuOMjHEDkVGqA5ZsgfOcwJgTn/qS85F5G9OSUi8Th4/wU58kwEOcGM0znk\r\nW1o5KBbSOPxmrjgoieg4mOJqOacY5jhwBhY5iXUjOeCfAjn89RI53mOTOE5nnDgXwQo59x/YOLsN\r\nvzisAgg5ZZXBONJSyTg4ChA5g0OvOOLhCzk2PkQ5yZUgOf1/lTgIavM4G5cEObRwszj5plM54Ngg\r\nOTpfCjmgXsE4/c7tOPbIHjng2QM52pkWOVEIBjnWdfE44lgEOVkCJTm3Js04paCwOJruaDnED7c4\r\nlngHOd1wSThLgdw4+MM6OWkNiTjQTig4ZOnTNxI6RTeeDew2cZ29Nv7NAjclhNM2iMnzNsyKczZM\r\nTqE2NwIANyN0CjdyN5Q2WgazNq/6RTZdvu82CgJ2NnBTbzZ2Y8g2nCmlNornMTbyM/U2XdYuNnYx\r\nDDZETwI3eL+nNkEyGTdWc042Yb0WNzGqlDaNeNI2vHqNNkA4sDYmdYE2+cmANhHYVzaKnIs2sgCG\r\nNgmRtTZMoZo22v10NnRMhzYJ96I2OKTLNuYomzb9GYQ2aZ4gNg34YTYuHZo2W3zKNg54fjYZjkw2\r\nf2wUN3Od0TYrN5w2qv+fNtmNlTawHlI20q1xNtWcgzbalsQ2aqh0NqiRqzZJr+Y1tKkfNvwthjbs\r\njso2aMOjNjtLWzaqzNg2QuVVNvmDcTZsOcU2ODthNmCKmjZkwsw2JO2RNrvV7zZ/j5g2X3SCNuWv\r\njDatdLA22aTFNuHopjZGQ1k280BwNm9ZdzZuF3o2uV16NukrgjZ0cmI2oP0yNtheUDbrCZM2IZD3\r\nNcjiiDbmV9M2x6S6NnU/pzZADwg2huV1NusKwzZOBTQ2+FGNNgbaCjZtFJo2oEWzNnsKijZWeO02\r\nGtuJNu8IdjY49Yg2Mr2ANg3ZzjZiM+s2PSKeNoMphDa/F582hoJcNt0QxjZWOKM2KJ8XNqxVQjbY\r\ngaI2GZ6aNs0bpTU+g5g2tEowNtIkZDYOlas2ZR1xNtIkgzZRo4A2kxo0Nq+R7DZCmS43Jnh6NgQS\r\nbDb4RYg2lNw9NuvPkzYiw3I2yo89NhID7TYcIIw26OkjNrMkKzbG26s2fgyyNkykhTarGu41ZVyZ\r\nNs59hja4/3g2DVwlNg8S/DWud6U2N9IvNgCXSjbgmnM2uSBPNn7iXza+E8Q2IrczNgAgGTbUpLw1\r\nmKpzNoJSGzdiAoM2ZpDFNfrlFDY4tAI2RI+mNgX6UTb+VoU2addaNhrNCTZZFHA2uMncNXzMSzbJ\r\nKYk2chpoNlUqsTVQL942eABrNmzNjTZ3X0o2gnWBNn72gTZLTEE2lwQzNgfuCjaKZ0A2Cn+pNqDa\r\nNzbbTXE2Jn7UNu4UKDZVMoQ2j46fNsCxMzbOjB026lnINRYmezYubI02j29ONiv6jzYkvQU24bo/\r\nNlRyPzacL0c24hOWNpYhiDbn4/U1XMKXNjdHgzYwUO01kmwQNsrkGjZWzx02IdkDNtNSCTdR2VE2\r\nthtfNuRpyzaptiM2tEQ0Nkz1XDaF2zA2q9VKNcwlKDW1Wt007vuJNFq4yzRjGzI175BhNbYW/jTC\r\n50I1fp2dNJ2JFzXcfBY1j6wVNck7ADXKUgk1IqzANOh0JjVVrrw0Msw2NZKFGTUaPUI1fBNaNcVN\r\nSTUON7Q0P4fQNFKuFzUxPlU1sICqNGd1ajTm2QI1i7CcNE6RhzRis6A0+Hg7Nbaz2zTd5O41Lo6Q\r\nNCC46jRqY4k02LwPNQsD+zQS2kY1DgsZNQCcHDWKMa00NY4gNbBtFDXqiRc1oiMKNXSGhzRgRxs1\r\nsvCONXglnTQaJsk0VZcVNTwSAjVbovE0HAgiNYYOkDWs+Bk1NoTxNOmQHzWwgbI0cTRKNEIM5zRm\r\n0Eo1Lt3NNDT7uTSlUH81fpTdNNbDuDR5QIA1bivBNDg8tDTqSAw1juzKNPjckTXYQus0QHrGNAe/\r\nzjT+Kxk1k1EENS6XETW7x+g0SgvDNLGCvzSIgvk0RU2fNNSwojQOc7k03IPMNCf6ETV8ef00kiUz\r\nNaCP5DSyjgI1NzurNDzYBDVnrxg1wWfANHpDdjTTMLM0SyeuNCZrpDTpSwg1kQXWNKnmtjTd4L00\r\nCjEvNe+3XjWZAko1Ym35NPTQoTRMXRI1/Kv1NNnw+TREn580ApgENQioMTUc6Qw1wGDtNMWVAjX6\r\nRmI1CN1MNL0nqzQdttc0yKQdNbOO9jSg9bU00Ta0NPpG8jRwfn81zM+VNG1DtzQjBjQ133YnNRiY\r\nzzSD58A0vVEGNeQz7TQc+8c0alDxNOYeqTRZjwM1A1X7NKFF9DRfJtM0Vc0BNUYGIjUIksE0MIwp\r\nNYA4xDQyT2E0+rrONBaUKjWcVbs0lgEXNQhoLjVqYfM0QkIHNXxZBjWjN9A04CoHNf4JgzRmC1I1\r\nHvk2NR48nDSMgG00Zf32NNotNDWhucs0OhP6NCbLvjSa08g0UXkUNWHkGjU2b7M0Jjf1NNWAHTX2\r\nAKk0D22rNDpwCjVAdSE1wIe3NKki1DQ7h1c0c56RNM+EHDWeNvs0MQ70NEBr+DSzItM00gbWNHQw\r\nKDULfMQ0x//kNPxv2TTQtDM1WH4UNV82NTXQGQs1zfzkNE4e5zQRzgg1/pbnNGCS0TTOFd40v6/x\r\nNAS1tjRCvqU0IwneNHHchzWWIeA0UM+4NK8f9TRyIZM0h7UINdtvGDWwIMU0f+g7NQZH3jSvXyg1\r\nQFDUNEfN1zTFaJE0vTVhNZhtEzVsOCo1lI2DNKvBcDU7hyA1G3lgNdKy/jT5BOE0W5yZNMVKxTQt\r\nffo0UfUYNfYY1jRmNic1cjOcNHhM3TQltw01y+wGNdUXAzWjaYQ1EAGsNAMnHTXG2Ok0b2sZNdaU\r\nnTTqTu80BYtpNRavBjXpXoY0gY8TNRz6MzTZ+bU0CwEyNeatmjTYpAw1XQ0NNS4fMDUD3N80w5kB\r\nNbZ+wDSHwM80LsdINflVQTXijxU12ckXNexXHTV3aAk1Y0gINRwPEzWrSkk1gEhcNcKckzRnQdM0\r\nylE8NZTlGjWZRXo1mYPiNKOIGDX9VSk1SDywNE/uAjVE05U0/LpeNYJ8uDT+TwI1K57TNKdFFTVQ\r\nmmw1bxHxNNasyjTwQdg0uDi0NKQl/jRwNLM0eBffNHVFvDRC6IA0QxjQNA8uczQLG6o0fGK7NO7j\r\nmzQBYqc0PLzWNLgI9DTcW6Q0a0AZNYg9STUbsVQ1+5sfNVyxoTRchak0ZlS/NIZF8DQC/LA0KHW2\r\nNAKVBzVhPRg1IxGrNNrwCDVtxBU1lnAcNYeauTTwp/s0RXHANLDJwzTVLtw0yWgLNdyaGTVZOe00\r\nJFcoNZ6B7TQG/MU0+DEUNQFt/DRtlSo14IBuNQxXyzRAZsw0OmxvNepc4TQsbOo0BX5pNeLZFjVa\r\nUP00/NC+NDfFxzSk/Jk0Xv9WNFcJFTUkCfs0nPhONWb3szQLn8U07ItQNLGo0DSMwQE17Z/PNNec\r\n0zRaof0076bINOo8GzXNlYU0hEQkNTyH5jT2YwU1rPNDNQ/OwzRUsuM0rNi/NPhc8DQKmUg1hNDu\r\nNFsmCjUDuzw1VasyNef7cjVSnrA0plT5NKXLhzSFNZ00Ed+nNCFdUDUWMQI1JJnbNNcqvjQMb+40\r\nMCZxNWBYzTTT7DQ1EXZRNffmaTV+3a80W4eUNHE8DjXgGu40gRDrNBPuqjTmEDY1ol3ONJbeJTVU\r\n2RE1pL7HNICD5TRWWw816jZdNU5+4zSdEBA1+UiKNPe7OzXoSB81ciQHNY2hujSihSE1Zmy4NC66\r\njjSDV6M0zDuqNH8orDToE6s0mAmlNNh/LDUtZTA1POHGNHfLdzTbIis17ZIdNZocBDVvRKE0QmwB\r\nNYXQijQkWAs1oC2hNA2Z5TSh2c00fEGaNMT8ujTDZ5w0Y1z7NI2ELjWyxiA1AEAcNQ==",
                            "noiseTrainingType" : "default"
                          }
                        }
                    ],
                    "start" : 2022,
                    "duration" : 72,
                    "mediaStart" : 2300,
                    "mediaDuration" : 76,
                    "scalar" : "18/19",
                    "metadata" : {
                      "WinSubProjectDisplayName" : "",
                      "clipSpeedAttribute" : true
                    },
                    "animationTracks" : {

                    }
                  },
                  {
                    "id" : 362,
                    "_type" : "AMFile",
                    "src" : 15,
                    "trackNumber" : 0,
                    "attributes" : {
                      "ident" : "旁白_vis2021 1",
                      "sampleRate" : 44100,
                      "bitDepth" : 16,
                      "gain" : 1.0,
                      "mixToMono" : false
                    },
                      "channelNumber" : "0,1",
                    "effects" : [
                        {
                          "effectName" : "NoiseReduction",
                          "parameters" : {
                            "denoiserAmount" : 20.0,
                            "denoiserThreshold" : 0.0,
                            "noiseProfile" : "OWoAPH2pEz2x9Qw+d6HTPcva6j2sp089E2dtPD6vPDwfl1A8ScjwPJTr1Txy35g8LaEAPTpegDyh\r\n+807XKYVO6TEeztxHEg8k5enPOCDljxR1SA80RNNO5P/FTsAUsA78qcaO7cppTsc2vE7qgSrO6lQ\r\n2jukqvI7h92AO2yWGzx+tZU8JitaPFzIyTuXwYE7uY9XO8aQ0Dvqq2I88amYPMnb9DtB2j87KTBk\r\nOzy52zoRSDw7OCjBO9xi/DtxwE88KlbqO3j0qDtWJH47VJnsO9JoxDuANhs8tJ+AO6Qz9Tth+oI8\r\nbGt3O1T1Nzzjhew74A0cPJAvITwici89BseWPGFNtDxkw7o7MRvlOmld0jryf386QXGZOrHMrzuA\r\ngR46FrCVOsPpWDsY4v07HUbYO1nLPjsw9w47wr3FOrnZ+Drc3FY7lUkJO7DAJDv2mAY7Bol9O6Gv\r\nIjui8ek64NliOq5vmTrG/ZM6bCYbO5q5tzpF2YA69unhOXdvJDkMXx461iVVOpU6tTmIPdU5NZ4C\r\nOrLzrDlzv6053gyzOSasszlLTgc5O7atOcYrxzkKtYw6r9cjOpoinjlRRog6Q9QHOqLsbTo5k0E6\r\n9U47OqgHGzq2DIw6xrvIOkIITzrGgR86I/hwOsTOFzq0IQU6isQ5OkIP9DmC+Bw6hsx0OYy4pDnt\r\nMqk5f6afOfFKnDnqIvc5SsRQOpXvdDp8CiE703psOwEALztW+4A6r36ROtKuGDoo4s852RrZOQKM\r\nhDmkgtY4CBe5OXJ5jDnBcjY5RM9jObGZ+DmyHG05aluSOaagETnIyGM5Jt2dOdUxnTmBHwU6PPyu\r\nOQ2PETl6x7k5tcInOtV63TnmcCY6dHftOUWtBzoIt6w5qk+GOf1mbTk4DT454wsLOh2HAjoY+ZY5\r\nyr2VOQQurzmqnRg5LDMFOZLQUjkvV1Q5/g1+OSlxFzlITz85XmAkOdDG/DjiIfM4htxWOREUlTqh\r\nwcw5VnaGOWCBXjn90lA5cKzvOWPrqzkL/o45sEFOOTkyMDpUc5s51oo9ORByjjlGCco52p/tORKy\r\n8Tnit2E51lY0Ofo+ATq6o3Y5Z021OYTVGDlRAq45zuyhOeA4ZDk52eE5nw91ORI2OzlB2R85fgab\r\nOY8bMjkQ1TA5cCaFOXju/Dh2ghM59YD8OFHmfzmnKiQ58YpfOXsbtzlCtX45yEWKOLGkLDkayH45\r\nRUrSOSltyTgvk1U5NT2NOY45EjnfihY5JFlqOTokTjlSlV45Ir54OQ1W5jifjjI5bWS5OfA8NDkO\r\nXs44QhjgOLbnOjkr+iw5hK5/Ocz3Azl6HF45q6DlOIJb2DiR79I4esU3OWtGjDg4gBM5cVloOdzR\r\nDTlkchs5GGg7OVSTtziXOeg4XazEOCiMADmz6Tw5ueqOOVcmeTmS4Ms4nI0UOUTLnjhAXjc56pkE\r\nOdXdBznEOY85PIy4OMxI5zgkSxk5r6oQObvARTnCtUo4LoVEONjrVjnfUsw4msCWOCWAQjlc/y45\r\nJ4KtOCzJrjjGJZ84BKXjOIHj2jhi+yE5rqqOOdCIIzm9fIM56Oo3OUSjtzmiT/M4Wiv3OJw6ETmO\r\nS8w53FJpOdbu1DiJSZs4DaoFOWqKWDkkyvU4GPIdOchJLDmxKwA54MMWOVgzmjgl75M44OcEOVPH\r\n3Dhmzdw4X9sOOb2CyTguC7Y4VgEmOTaQxDjBUAQ5dAM9OarFHjmfj444qMgAOWZMDDmSlas4yUZQ\r\nOaDeMTmPogU5Wxe1OF0m3Dh6aDQ5tbkIObjoEzlqqg45EPLvOKyF+zhUmiE57MvFOPg/vDiW+Vo5\r\nmhyzOGFsBTldBEw4dL3pOOk/QDnXnJQ467sNONFyxDfGPDM3rTsZN+BixjZrWTk338GlNhf/FTe5\r\nNTk2RTSUNkMj3Taj0d02is2UNt0UDDYUXvI1aeXFNhijMjbAtYc2ikWgNuphZDY8D1I28gSnNv4k\r\nLTZRYDk2mtYGN70P5DaWBKc2RzXfNlQFKTeHIYk2IpjaNofVszbqlaM2PatTNiKTzDYjx6M2BMHZ\r\nNiXEdDbJOMs2FNCMNsnGRja2BpI2UsiGNvm1vzbR74Q2wLCoNnn3jDa4fK82VqGlNrSAsTYwh5o2\r\n00guNguj5DYiuZI2yg0BN6PItzbTY6w2VXFINoLcTDbWIk82WJ/cNvx6HDZGdqc2ta/1NVwQMDaG\r\n9VE24mqONlq9rDaNiSE2Lay+NpqbcTYGZ3Q2KPqfNicegDbQyZw27RAtNyQhVjazoMU2izz9Npf0\r\njzbhrAg2zKY4Njo2yjZ1hZE2WNZsNrbfvDZiyp42KRFjNr96jjbjaI02RTYRNmwjhzapnyI2B4XY\r\nNltT7jUOLSY20oDqNhJrxDaCZWw2Ct+VNg/LgjZZzMA2Ik1JNrzQuDZxy901azNqNvW2eDaUuVs2\r\ngu+KNta85ja8P/M1FmShNp/ipjb1OIE21Q/2Nr5JmzYXtZU2x6+qNk6LmTZnjYw2mIJGNul2Jjbc\r\nO3A2lquYNuovLTYtgfE1nUlUNgQzNzaIsDM2DIvUNjKBRja+0oY2ExJ5NgPdJzZaSLQ2EtYgN0Wc\r\nDDbIHow2IiiZNgZUVTa1JnM2v3wcNoN3YDYCtgE38JaENkzoaDb0JTc26/WJNoqw9jYFxFI29vNP\r\nNmdCvDZHFIU2xxObNr0sUTblHoc2JrM/NmrbFDYX93o2m4OpNgs6HDaFNl02Rb2TNpjkJjYAADk2\r\n/8chNn7/QTawezM30gsqNidJ8zWKfC02kBYuNmSnnTa80FY2mFN3NkYZWzY4aO41UHmKNkyZiDYh\r\nGC42h1Y6Np6cgzYSij81AnuaNnc6rzZUXG82vp9eNp4h/jWNsEY2k603NuKSjDbHWSo2RxYINlNS\r\nmTaAOlU2yvJmNkqftzZ5VEk26hV8NjWLezbKM9Y1ernFNWi/XDZaEHQ2dhvANhDaRjYMwy82EwC4\r\nNlCNVTbH4IU2Cx1LNk6XlDbcVNA2FB33NQHMjzY6eW02jpZONqrdMTa+lxk267lUNkhoNDZz+TQ3\r\nwulaNoXxEjYQdsQ2lXEcNsiYOjbfz9o2UzpENvQL0TSOQIM10f8gNcLzLzX5w2c1H4efNN2VyTQO\r\nn70011tKNT7aKTUG8/w0QEgiNUCRKjWhXKI03LYLNQzSrjUnb9E0iB65NCpfLzVs4tk0emppNQtw\r\n8zTy2+U0USoLNeRnDTU88Uc19BfdNFPdNDVtA7Q09QQJNdJhKTXqRNg0am3RNG251DQ1KrA0Oj/Y\r\nNOrxkjTQ8cI0+3eXNEYitDR9exs1YvMdNUBR5DR0pQE1EGj5NAq8KTXmxKs0ErgPNTXAAjVM71g1\r\n2McYNch2PjVA3vs0HZGgNJEIOTWY3M40B5RGNGfgUDUIWUw1AAKQNPuJvjRnt4w0M0qUNPpcxjR3\r\nCM0000dJNZjtnTSx6rQ09gISNSzUKjVHscM0TBtXNYWZEDWjpck07HS+NMuEnzTVZ0U1duMGNWCg\r\n6jTs3880YBEXNT+XujRa3bk0wUISNadMADU5AQ411F8ONePs/jS0pjA105FENQ/HnjQmcwg1WPKH\r\nNFq2nTSuOLI0S9MpNbyI/zTAPso0+sXPNPLB3DTur8o0PLbHNPmbnzT+MvY0YjqvNCUXJTXMJp80\r\nndUPNWmVEjXazkY1O5DgNMl4gzVmyAY1rYEfNXmSQTWIrhU1ikoVNSCqpDTaEbY0/AvpNLIwhDSh\r\nIww1MCwENb5Y/zSUBhw1UowYNbXtpzTvlg4155xcNZhCrDRWs9U0k616NIzznjRmnAQ1Khq/NEm9\r\nCTUki940fgEVNZA1JzWkzqg0RtjuNI+WjTW0QRg1omMcNXzDIDUDHKI0NVu3NMMpRDVCjIo0ViIs\r\nNfxAITWCVB81HXTcNB0NXDWG+bE03vcdNf6QMzXAn8s0Eg/NNATJsTQE9U01LMELNX7DoDSIEB41\r\nwLEGNUVbzTQ8Pwo1QFCINBFgFTVn0vo0JOCjNNaR8zQ1vx41DXUDNak+EjUNQYo08gC7NFzPoTSI\r\n7RU1kpUbNYXvKzWOx240VWf0NGRuBzU6PIo0wlCGNT7g9jSWZjw1Ml4BNRvl6jTQR3w1lmHdNGfd\r\nITTobvU0ypuvNEpF+jTjNY40JYO7NCfBbzQijsA0us84Na6J8TQIYwU1V3IrNSwmYTXQ1kU0zKTc\r\nNDTVfzTj6to0SbOuNHwCvTQ/eR01mcuPNPTduTRDjf806a+nNAj20DREKOo0nPlPNQTe+zQNWSo1\r\nlpGmNBv9xzT/tzk1CtkQNapg2jSMQlI1MDUTNRhOMjWh56Q0AygANa8srzRbOwQ187XxNOQlwDSQ\r\nNO80mTAVNaBD6TQbeoo0UM6FNHPMCjV4t7k0gIxkNE02BjXYBQo1AhAcNWJMijS64uA0zd0JNXWm\r\nEDWiijY1ZpSXNNpWpzTYT+k0QHbzNDaorzSGDHs0qT7ONBvuhzSyYys1dPYCNQdToDTk8uU0MwYH\r\nNWYw+TRbj4g1aJxzNHlxCDVIE8c0Nl2SNOyilTRoqUs1KtMvNbhJPjVmcCE12eGANQ1X8jSNKZo0\r\ndGHdNGrcDjXxZ0A0JhPPNJb14jSwx8o0morUNDmP2DTubH40SSbdNE1r7TRT3rk0EZGLNP35LjV1\r\n1640P7XhNLEsczQldYc02X7eNAZ67jSawbI0drgeNb6GtzSMN9U00j4cNQhrBzWSqgw14dAnNYUF\r\nnDTQSpg0P9OMNOHDLTULMsI0QH6VNI2nxDSl5Yc0WHyLNCaeLDXnc6Y0AaCFNBQP7TTJzR41kvoE\r\nNRykHjU6wZw0+cjVNJdR1TSiQQU10AuONaiUkzUExgY1MMYONaRkZTT9EAU11Bu0NC2j3jTIM4A0\r\nal8cNSoRTzXbrSk1FTDYNEBqkjTgDwA1sun9NP5ztDRWob80HSSSNGYkGDWnkuM0RaMANeGLITXo\r\nTow0GNvbNJlRuzSgsOY0CpP5NMVL9jRRErs0aS1TNVNWgDSmPp80Gvy3NBnwGDXWr7M0dB/VNIw8\r\n0DQBkZ410iF5NDXYLTVZSxU1T0S6NHIrqTRzbRA1XDWKNA2phjRVwpo0SPJ1NGzsODX8K6Y0ne6l\r\nNNU3JjWsl7M0wb+kNKhE5TQUaN8041HRNPhNtTRpfuQ09awXNcwLtDS6nqA0qbk4Nbg8qTQ3pSA0\r\nkRS8NLXO0DRqdcQ0b//eNLPvrDQGQu00fPstNS/HMTWPJMc0fIrENBIciDSLv/k00iuaNNjgPDWm\r\not00DFkCNfHQhDTO4qY0xTYDNbDSOTWNTjA1dLcPNZB1uzQDUrY08mkFNZaNRjXzzK00ErsDNVeQ\r\n3zS5HxA1pmTINLQDBTWIxP008Ny+NADrGDWeipI0eMHvM5R6CTWA3x01wRO2NE0PBDXZKrU0GFyV\r\nNOCJrzSgxtE0tQR+NKJP0zTmcMA0zgvvNFJN7TT5eA41x/eHNAie2jTBXoU1JbdYNQAAEDUAZAE8\r\nF6YTPaE6DT5EKNM9dQ3rPVEOUD0ioW480q89PCfdUDzbEfI8OKDUPGwsmDxHYgE9amiBPGR1zjsP\r\nPhU7a3x7OyhGRzygj6g8mBGWPCuBIDwy9E47Dr4TO1iRvDsOzBo7Kk6nOyjG8juQWao70ZvWOxbH\r\n8zuU8n07aPEbPGxKlzygoVs8TMfIO9+xhDsybFY7q+rTO/L8YTx2ZJg8LVf1O0mYPjuCWmQ7fLXf\r\nOt2APzt7zMI7O4D+Ox50Tzw8t+w7lE+pOzStezsIHeo7gHbGO/xxGTz7XIA7vAj1O108gzyol3g7\r\ntww5PFZa6zv7yxw8BjMgPKnvLj13cpY8hhS0PDysuTskGOc6fsrQOrACgDqdYpQ6nrawO0mtIzpq\r\niZQ6oWVXO4pL/Dsyi9U7isI/O5AADzuqPMM6Xcz3OuCjVjsJJAU70nAkO3xeCzuPI4E7G4YiO1p8\r\n7jrINmQ6RKiWOkNYjzquKxk7L5jEOkefiTpiBN05wkIqOcZGDTp6g046RrOpOQ6EwjmtPgQ6e2Gc\r\nOSSjpDlo8ZU55XS9ObmuBzlz4785N8m2OWCrjzo4vB06uHOTOSQohDrAdAk6ttpzOqV9QjpzGTY6\r\n3XEaOsgBjjqKt8k6HvZMOicoGjocq2w6ap4WOhHEADrfCzk63skBOgeJHDrUTnI5YkuiObHDpjmu\r\nSKM5/cCSOf1k+zmMGlI6inluOu+YIDu89m07RVI0O6+Kgzr+5446GKYWOsGMzDkpPtU5IguVOWYu\r\n0Thu2rs5wj2KOYr0Szln8mE5OIzqOdZKbDmJnpY5zvoYORbfcjmJJb45rPudOReeBTpaM7A5gOEv\r\nOfU4rjmBKBo6bN3fOQHYIDpCxO45IMMKOhDuqjnu5385nKuKOcsUJTnO6QY6IssJOqWwlTkE/nk5\r\n982pOYJKFzlMEgc5kM8qOTzQSjkjjFw5oLMhOb3XTTlwQiA5qwrfOFyxBDkkj0w5MGaVOpPkyzkA\r\nWYw5x/dWOdTGaDnThQM6cUq4OS/ykTn8pTU5cg8tOjmUnzmJETc5yAicOQHqsTm7VQY6AgbzOcxp\r\nYTnUlDk5COb3OVNucjnJjtA5lvYsOVSTlDlbCZA5jieCOevY/jld/5M5ZAsQOQCjIjmaXZk5X2sk\r\nOaKvQDn3w2A5sFLsOCInSDnjTPU4Pw52ORiOFTnxB085aOe5Oeymfzkdh5Q4b9kUOTcjiDlltOQ5\r\nW97hOK93TDk6TJo5GxUROfmZKDmqWVg5gnArOZiUUTljp2g5VN4COa51OjmCG6857I8hOQJUyDiy\r\nFeY4PzlIOQnaEjkNa105LJgJOedSTTmft9w4RFvhOEMPBjkBNUc5IxKaOKB0AzlHK0Y5uzfsOA7s\r\nCTnIO1A5K33WOKFk2jjp16849C8QOWZpPTn28K85JD91Ocr4pTiAdCY50TmeOH4OPTl/1vM4rUTC\r\nOKr9azkWMbo4F7ngOLhyVDn8tgw5pjZnOXrXVTgwxCo4OQx/OXmv4TiOkZs4EjRhOc/BKzm9HJg4\r\nmNmEOBptqTgOwN44isnuOMjHEDkVGqA5ZsgfOcwJgTn/qS85F5G9OSUi8Th4/wU58kwEOcGM0znk\r\nW1o5KBbSOPxmrjgoieg4mOJqOacY5jhwBhY5iXUjOeCfAjn89RI53mOTOE5nnDgXwQo59x/YOLsN\r\nvzisAgg5ZZXBONJSyTg4ChA5g0OvOOLhCzk2PkQ5yZUgOf1/lTgIavM4G5cEObRwszj5plM54Ngg\r\nOTpfCjmgXsE4/c7tOPbIHjng2QM52pkWOVEIBjnWdfE44lgEOVkCJTm3Js04paCwOJruaDnED7c4\r\nlngHOd1wSThLgdw4+MM6OWkNiTjQTig4ZOnTNxI6RTeeDew2cZ29Nv7NAjclhNM2iMnzNsyKczZM\r\nTqE2NwIANyN0CjdyN5Q2WgazNq/6RTZdvu82CgJ2NnBTbzZ2Y8g2nCmlNornMTbyM/U2XdYuNnYx\r\nDDZETwI3eL+nNkEyGTdWc042Yb0WNzGqlDaNeNI2vHqNNkA4sDYmdYE2+cmANhHYVzaKnIs2sgCG\r\nNgmRtTZMoZo22v10NnRMhzYJ96I2OKTLNuYomzb9GYQ2aZ4gNg34YTYuHZo2W3zKNg54fjYZjkw2\r\nf2wUN3Od0TYrN5w2qv+fNtmNlTawHlI20q1xNtWcgzbalsQ2aqh0NqiRqzZJr+Y1tKkfNvwthjbs\r\njso2aMOjNjtLWzaqzNg2QuVVNvmDcTZsOcU2ODthNmCKmjZkwsw2JO2RNrvV7zZ/j5g2X3SCNuWv\r\njDatdLA22aTFNuHopjZGQ1k280BwNm9ZdzZuF3o2uV16NukrgjZ0cmI2oP0yNtheUDbrCZM2IZD3\r\nNcjiiDbmV9M2x6S6NnU/pzZADwg2huV1NusKwzZOBTQ2+FGNNgbaCjZtFJo2oEWzNnsKijZWeO02\r\nGtuJNu8IdjY49Yg2Mr2ANg3ZzjZiM+s2PSKeNoMphDa/F582hoJcNt0QxjZWOKM2KJ8XNqxVQjbY\r\ngaI2GZ6aNs0bpTU+g5g2tEowNtIkZDYOlas2ZR1xNtIkgzZRo4A2kxo0Nq+R7DZCmS43Jnh6NgQS\r\nbDb4RYg2lNw9NuvPkzYiw3I2yo89NhID7TYcIIw26OkjNrMkKzbG26s2fgyyNkykhTarGu41ZVyZ\r\nNs59hja4/3g2DVwlNg8S/DWud6U2N9IvNgCXSjbgmnM2uSBPNn7iXza+E8Q2IrczNgAgGTbUpLw1\r\nmKpzNoJSGzdiAoM2ZpDFNfrlFDY4tAI2RI+mNgX6UTb+VoU2addaNhrNCTZZFHA2uMncNXzMSzbJ\r\nKYk2chpoNlUqsTVQL942eABrNmzNjTZ3X0o2gnWBNn72gTZLTEE2lwQzNgfuCjaKZ0A2Cn+pNqDa\r\nNzbbTXE2Jn7UNu4UKDZVMoQ2j46fNsCxMzbOjB026lnINRYmezYubI02j29ONiv6jzYkvQU24bo/\r\nNlRyPzacL0c24hOWNpYhiDbn4/U1XMKXNjdHgzYwUO01kmwQNsrkGjZWzx02IdkDNtNSCTdR2VE2\r\nthtfNuRpyzaptiM2tEQ0Nkz1XDaF2zA2q9VKNcwlKDW1Wt007vuJNFq4yzRjGzI175BhNbYW/jTC\r\n50I1fp2dNJ2JFzXcfBY1j6wVNck7ADXKUgk1IqzANOh0JjVVrrw0Msw2NZKFGTUaPUI1fBNaNcVN\r\nSTUON7Q0P4fQNFKuFzUxPlU1sICqNGd1ajTm2QI1i7CcNE6RhzRis6A0+Hg7Nbaz2zTd5O41Lo6Q\r\nNCC46jRqY4k02LwPNQsD+zQS2kY1DgsZNQCcHDWKMa00NY4gNbBtFDXqiRc1oiMKNXSGhzRgRxs1\r\nsvCONXglnTQaJsk0VZcVNTwSAjVbovE0HAgiNYYOkDWs+Bk1NoTxNOmQHzWwgbI0cTRKNEIM5zRm\r\n0Eo1Lt3NNDT7uTSlUH81fpTdNNbDuDR5QIA1bivBNDg8tDTqSAw1juzKNPjckTXYQus0QHrGNAe/\r\nzjT+Kxk1k1EENS6XETW7x+g0SgvDNLGCvzSIgvk0RU2fNNSwojQOc7k03IPMNCf6ETV8ef00kiUz\r\nNaCP5DSyjgI1NzurNDzYBDVnrxg1wWfANHpDdjTTMLM0SyeuNCZrpDTpSwg1kQXWNKnmtjTd4L00\r\nCjEvNe+3XjWZAko1Ym35NPTQoTRMXRI1/Kv1NNnw+TREn580ApgENQioMTUc6Qw1wGDtNMWVAjX6\r\nRmI1CN1MNL0nqzQdttc0yKQdNbOO9jSg9bU00Ta0NPpG8jRwfn81zM+VNG1DtzQjBjQ133YnNRiY\r\nzzSD58A0vVEGNeQz7TQc+8c0alDxNOYeqTRZjwM1A1X7NKFF9DRfJtM0Vc0BNUYGIjUIksE0MIwp\r\nNYA4xDQyT2E0+rrONBaUKjWcVbs0lgEXNQhoLjVqYfM0QkIHNXxZBjWjN9A04CoHNf4JgzRmC1I1\r\nHvk2NR48nDSMgG00Zf32NNotNDWhucs0OhP6NCbLvjSa08g0UXkUNWHkGjU2b7M0Jjf1NNWAHTX2\r\nAKk0D22rNDpwCjVAdSE1wIe3NKki1DQ7h1c0c56RNM+EHDWeNvs0MQ70NEBr+DSzItM00gbWNHQw\r\nKDULfMQ0x//kNPxv2TTQtDM1WH4UNV82NTXQGQs1zfzkNE4e5zQRzgg1/pbnNGCS0TTOFd40v6/x\r\nNAS1tjRCvqU0IwneNHHchzWWIeA0UM+4NK8f9TRyIZM0h7UINdtvGDWwIMU0f+g7NQZH3jSvXyg1\r\nQFDUNEfN1zTFaJE0vTVhNZhtEzVsOCo1lI2DNKvBcDU7hyA1G3lgNdKy/jT5BOE0W5yZNMVKxTQt\r\nffo0UfUYNfYY1jRmNic1cjOcNHhM3TQltw01y+wGNdUXAzWjaYQ1EAGsNAMnHTXG2Ok0b2sZNdaU\r\nnTTqTu80BYtpNRavBjXpXoY0gY8TNRz6MzTZ+bU0CwEyNeatmjTYpAw1XQ0NNS4fMDUD3N80w5kB\r\nNbZ+wDSHwM80LsdINflVQTXijxU12ckXNexXHTV3aAk1Y0gINRwPEzWrSkk1gEhcNcKckzRnQdM0\r\nylE8NZTlGjWZRXo1mYPiNKOIGDX9VSk1SDywNE/uAjVE05U0/LpeNYJ8uDT+TwI1K57TNKdFFTVQ\r\nmmw1bxHxNNasyjTwQdg0uDi0NKQl/jRwNLM0eBffNHVFvDRC6IA0QxjQNA8uczQLG6o0fGK7NO7j\r\nmzQBYqc0PLzWNLgI9DTcW6Q0a0AZNYg9STUbsVQ1+5sfNVyxoTRchak0ZlS/NIZF8DQC/LA0KHW2\r\nNAKVBzVhPRg1IxGrNNrwCDVtxBU1lnAcNYeauTTwp/s0RXHANLDJwzTVLtw0yWgLNdyaGTVZOe00\r\nJFcoNZ6B7TQG/MU0+DEUNQFt/DRtlSo14IBuNQxXyzRAZsw0OmxvNepc4TQsbOo0BX5pNeLZFjVa\r\nUP00/NC+NDfFxzSk/Jk0Xv9WNFcJFTUkCfs0nPhONWb3szQLn8U07ItQNLGo0DSMwQE17Z/PNNec\r\n0zRaof0076bINOo8GzXNlYU0hEQkNTyH5jT2YwU1rPNDNQ/OwzRUsuM0rNi/NPhc8DQKmUg1hNDu\r\nNFsmCjUDuzw1VasyNef7cjVSnrA0plT5NKXLhzSFNZ00Ed+nNCFdUDUWMQI1JJnbNNcqvjQMb+40\r\nMCZxNWBYzTTT7DQ1EXZRNffmaTV+3a80W4eUNHE8DjXgGu40gRDrNBPuqjTmEDY1ol3ONJbeJTVU\r\n2RE1pL7HNICD5TRWWw816jZdNU5+4zSdEBA1+UiKNPe7OzXoSB81ciQHNY2hujSihSE1Zmy4NC66\r\njjSDV6M0zDuqNH8orDToE6s0mAmlNNh/LDUtZTA1POHGNHfLdzTbIis17ZIdNZocBDVvRKE0QmwB\r\nNYXQijQkWAs1oC2hNA2Z5TSh2c00fEGaNMT8ujTDZ5w0Y1z7NI2ELjWyxiA1AEAcNQ==",
                            "noiseTrainingType" : "default"
                          }
                        }
                    ],
                    "start" : 2101,
                    "duration" : 20,
                    "mediaStart" : 2398,
                    "mediaDuration" : 20,
                    "scalar" : 1,
                    "metadata" : {
                      "WinSubProjectDisplayName" : "",
                      "clipSpeedAttribute" : false
                    },
                    "animationTracks" : {

                    }
                  },
                  {
                    "id" : 363,
                    "_type" : "AMFile",
                    "src" : 15,
                    "trackNumber" : 0,
                    "attributes" : {
                      "ident" : "旁白_vis2021 1",
                      "sampleRate" : 44100,
                      "bitDepth" : 16,
                      "gain" : 1.0,
                      "mixToMono" : false
                    },
                      "channelNumber" : "0,1",
                    "effects" : [
                        {
                          "effectName" : "NoiseReduction",
                          "parameters" : {
                            "denoiserAmount" : 20.0,
                            "denoiserThreshold" : 0.0,
                            "noiseProfile" : "OWoAPH2pEz2x9Qw+d6HTPcva6j2sp089E2dtPD6vPDwfl1A8ScjwPJTr1Txy35g8LaEAPTpegDyh\r\n+807XKYVO6TEeztxHEg8k5enPOCDljxR1SA80RNNO5P/FTsAUsA78qcaO7cppTsc2vE7qgSrO6lQ\r\n2jukqvI7h92AO2yWGzx+tZU8JitaPFzIyTuXwYE7uY9XO8aQ0Dvqq2I88amYPMnb9DtB2j87KTBk\r\nOzy52zoRSDw7OCjBO9xi/DtxwE88KlbqO3j0qDtWJH47VJnsO9JoxDuANhs8tJ+AO6Qz9Tth+oI8\r\nbGt3O1T1Nzzjhew74A0cPJAvITwici89BseWPGFNtDxkw7o7MRvlOmld0jryf386QXGZOrHMrzuA\r\ngR46FrCVOsPpWDsY4v07HUbYO1nLPjsw9w47wr3FOrnZ+Drc3FY7lUkJO7DAJDv2mAY7Bol9O6Gv\r\nIjui8ek64NliOq5vmTrG/ZM6bCYbO5q5tzpF2YA69unhOXdvJDkMXx461iVVOpU6tTmIPdU5NZ4C\r\nOrLzrDlzv6053gyzOSasszlLTgc5O7atOcYrxzkKtYw6r9cjOpoinjlRRog6Q9QHOqLsbTo5k0E6\r\n9U47OqgHGzq2DIw6xrvIOkIITzrGgR86I/hwOsTOFzq0IQU6isQ5OkIP9DmC+Bw6hsx0OYy4pDnt\r\nMqk5f6afOfFKnDnqIvc5SsRQOpXvdDp8CiE703psOwEALztW+4A6r36ROtKuGDoo4s852RrZOQKM\r\nhDmkgtY4CBe5OXJ5jDnBcjY5RM9jObGZ+DmyHG05aluSOaagETnIyGM5Jt2dOdUxnTmBHwU6PPyu\r\nOQ2PETl6x7k5tcInOtV63TnmcCY6dHftOUWtBzoIt6w5qk+GOf1mbTk4DT454wsLOh2HAjoY+ZY5\r\nyr2VOQQurzmqnRg5LDMFOZLQUjkvV1Q5/g1+OSlxFzlITz85XmAkOdDG/DjiIfM4htxWOREUlTqh\r\nwcw5VnaGOWCBXjn90lA5cKzvOWPrqzkL/o45sEFOOTkyMDpUc5s51oo9ORByjjlGCco52p/tORKy\r\n8Tnit2E51lY0Ofo+ATq6o3Y5Z021OYTVGDlRAq45zuyhOeA4ZDk52eE5nw91ORI2OzlB2R85fgab\r\nOY8bMjkQ1TA5cCaFOXju/Dh2ghM59YD8OFHmfzmnKiQ58YpfOXsbtzlCtX45yEWKOLGkLDkayH45\r\nRUrSOSltyTgvk1U5NT2NOY45EjnfihY5JFlqOTokTjlSlV45Ir54OQ1W5jifjjI5bWS5OfA8NDkO\r\nXs44QhjgOLbnOjkr+iw5hK5/Ocz3Azl6HF45q6DlOIJb2DiR79I4esU3OWtGjDg4gBM5cVloOdzR\r\nDTlkchs5GGg7OVSTtziXOeg4XazEOCiMADmz6Tw5ueqOOVcmeTmS4Ms4nI0UOUTLnjhAXjc56pkE\r\nOdXdBznEOY85PIy4OMxI5zgkSxk5r6oQObvARTnCtUo4LoVEONjrVjnfUsw4msCWOCWAQjlc/y45\r\nJ4KtOCzJrjjGJZ84BKXjOIHj2jhi+yE5rqqOOdCIIzm9fIM56Oo3OUSjtzmiT/M4Wiv3OJw6ETmO\r\nS8w53FJpOdbu1DiJSZs4DaoFOWqKWDkkyvU4GPIdOchJLDmxKwA54MMWOVgzmjgl75M44OcEOVPH\r\n3Dhmzdw4X9sOOb2CyTguC7Y4VgEmOTaQxDjBUAQ5dAM9OarFHjmfj444qMgAOWZMDDmSlas4yUZQ\r\nOaDeMTmPogU5Wxe1OF0m3Dh6aDQ5tbkIObjoEzlqqg45EPLvOKyF+zhUmiE57MvFOPg/vDiW+Vo5\r\nmhyzOGFsBTldBEw4dL3pOOk/QDnXnJQ467sNONFyxDfGPDM3rTsZN+BixjZrWTk338GlNhf/FTe5\r\nNTk2RTSUNkMj3Taj0d02is2UNt0UDDYUXvI1aeXFNhijMjbAtYc2ikWgNuphZDY8D1I28gSnNv4k\r\nLTZRYDk2mtYGN70P5DaWBKc2RzXfNlQFKTeHIYk2IpjaNofVszbqlaM2PatTNiKTzDYjx6M2BMHZ\r\nNiXEdDbJOMs2FNCMNsnGRja2BpI2UsiGNvm1vzbR74Q2wLCoNnn3jDa4fK82VqGlNrSAsTYwh5o2\r\n00guNguj5DYiuZI2yg0BN6PItzbTY6w2VXFINoLcTDbWIk82WJ/cNvx6HDZGdqc2ta/1NVwQMDaG\r\n9VE24mqONlq9rDaNiSE2Lay+NpqbcTYGZ3Q2KPqfNicegDbQyZw27RAtNyQhVjazoMU2izz9Npf0\r\njzbhrAg2zKY4Njo2yjZ1hZE2WNZsNrbfvDZiyp42KRFjNr96jjbjaI02RTYRNmwjhzapnyI2B4XY\r\nNltT7jUOLSY20oDqNhJrxDaCZWw2Ct+VNg/LgjZZzMA2Ik1JNrzQuDZxy901azNqNvW2eDaUuVs2\r\ngu+KNta85ja8P/M1FmShNp/ipjb1OIE21Q/2Nr5JmzYXtZU2x6+qNk6LmTZnjYw2mIJGNul2Jjbc\r\nO3A2lquYNuovLTYtgfE1nUlUNgQzNzaIsDM2DIvUNjKBRja+0oY2ExJ5NgPdJzZaSLQ2EtYgN0Wc\r\nDDbIHow2IiiZNgZUVTa1JnM2v3wcNoN3YDYCtgE38JaENkzoaDb0JTc26/WJNoqw9jYFxFI29vNP\r\nNmdCvDZHFIU2xxObNr0sUTblHoc2JrM/NmrbFDYX93o2m4OpNgs6HDaFNl02Rb2TNpjkJjYAADk2\r\n/8chNn7/QTawezM30gsqNidJ8zWKfC02kBYuNmSnnTa80FY2mFN3NkYZWzY4aO41UHmKNkyZiDYh\r\nGC42h1Y6Np6cgzYSij81AnuaNnc6rzZUXG82vp9eNp4h/jWNsEY2k603NuKSjDbHWSo2RxYINlNS\r\nmTaAOlU2yvJmNkqftzZ5VEk26hV8NjWLezbKM9Y1ernFNWi/XDZaEHQ2dhvANhDaRjYMwy82EwC4\r\nNlCNVTbH4IU2Cx1LNk6XlDbcVNA2FB33NQHMjzY6eW02jpZONqrdMTa+lxk267lUNkhoNDZz+TQ3\r\nwulaNoXxEjYQdsQ2lXEcNsiYOjbfz9o2UzpENvQL0TSOQIM10f8gNcLzLzX5w2c1H4efNN2VyTQO\r\nn70011tKNT7aKTUG8/w0QEgiNUCRKjWhXKI03LYLNQzSrjUnb9E0iB65NCpfLzVs4tk0emppNQtw\r\n8zTy2+U0USoLNeRnDTU88Uc19BfdNFPdNDVtA7Q09QQJNdJhKTXqRNg0am3RNG251DQ1KrA0Oj/Y\r\nNOrxkjTQ8cI0+3eXNEYitDR9exs1YvMdNUBR5DR0pQE1EGj5NAq8KTXmxKs0ErgPNTXAAjVM71g1\r\n2McYNch2PjVA3vs0HZGgNJEIOTWY3M40B5RGNGfgUDUIWUw1AAKQNPuJvjRnt4w0M0qUNPpcxjR3\r\nCM0000dJNZjtnTSx6rQ09gISNSzUKjVHscM0TBtXNYWZEDWjpck07HS+NMuEnzTVZ0U1duMGNWCg\r\n6jTs3880YBEXNT+XujRa3bk0wUISNadMADU5AQ411F8ONePs/jS0pjA105FENQ/HnjQmcwg1WPKH\r\nNFq2nTSuOLI0S9MpNbyI/zTAPso0+sXPNPLB3DTur8o0PLbHNPmbnzT+MvY0YjqvNCUXJTXMJp80\r\nndUPNWmVEjXazkY1O5DgNMl4gzVmyAY1rYEfNXmSQTWIrhU1ikoVNSCqpDTaEbY0/AvpNLIwhDSh\r\nIww1MCwENb5Y/zSUBhw1UowYNbXtpzTvlg4155xcNZhCrDRWs9U0k616NIzznjRmnAQ1Khq/NEm9\r\nCTUki940fgEVNZA1JzWkzqg0RtjuNI+WjTW0QRg1omMcNXzDIDUDHKI0NVu3NMMpRDVCjIo0ViIs\r\nNfxAITWCVB81HXTcNB0NXDWG+bE03vcdNf6QMzXAn8s0Eg/NNATJsTQE9U01LMELNX7DoDSIEB41\r\nwLEGNUVbzTQ8Pwo1QFCINBFgFTVn0vo0JOCjNNaR8zQ1vx41DXUDNak+EjUNQYo08gC7NFzPoTSI\r\n7RU1kpUbNYXvKzWOx240VWf0NGRuBzU6PIo0wlCGNT7g9jSWZjw1Ml4BNRvl6jTQR3w1lmHdNGfd\r\nITTobvU0ypuvNEpF+jTjNY40JYO7NCfBbzQijsA0us84Na6J8TQIYwU1V3IrNSwmYTXQ1kU0zKTc\r\nNDTVfzTj6to0SbOuNHwCvTQ/eR01mcuPNPTduTRDjf806a+nNAj20DREKOo0nPlPNQTe+zQNWSo1\r\nlpGmNBv9xzT/tzk1CtkQNapg2jSMQlI1MDUTNRhOMjWh56Q0AygANa8srzRbOwQ187XxNOQlwDSQ\r\nNO80mTAVNaBD6TQbeoo0UM6FNHPMCjV4t7k0gIxkNE02BjXYBQo1AhAcNWJMijS64uA0zd0JNXWm\r\nEDWiijY1ZpSXNNpWpzTYT+k0QHbzNDaorzSGDHs0qT7ONBvuhzSyYys1dPYCNQdToDTk8uU0MwYH\r\nNWYw+TRbj4g1aJxzNHlxCDVIE8c0Nl2SNOyilTRoqUs1KtMvNbhJPjVmcCE12eGANQ1X8jSNKZo0\r\ndGHdNGrcDjXxZ0A0JhPPNJb14jSwx8o0morUNDmP2DTubH40SSbdNE1r7TRT3rk0EZGLNP35LjV1\r\n1640P7XhNLEsczQldYc02X7eNAZ67jSawbI0drgeNb6GtzSMN9U00j4cNQhrBzWSqgw14dAnNYUF\r\nnDTQSpg0P9OMNOHDLTULMsI0QH6VNI2nxDSl5Yc0WHyLNCaeLDXnc6Y0AaCFNBQP7TTJzR41kvoE\r\nNRykHjU6wZw0+cjVNJdR1TSiQQU10AuONaiUkzUExgY1MMYONaRkZTT9EAU11Bu0NC2j3jTIM4A0\r\nal8cNSoRTzXbrSk1FTDYNEBqkjTgDwA1sun9NP5ztDRWob80HSSSNGYkGDWnkuM0RaMANeGLITXo\r\nTow0GNvbNJlRuzSgsOY0CpP5NMVL9jRRErs0aS1TNVNWgDSmPp80Gvy3NBnwGDXWr7M0dB/VNIw8\r\n0DQBkZ410iF5NDXYLTVZSxU1T0S6NHIrqTRzbRA1XDWKNA2phjRVwpo0SPJ1NGzsODX8K6Y0ne6l\r\nNNU3JjWsl7M0wb+kNKhE5TQUaN8041HRNPhNtTRpfuQ09awXNcwLtDS6nqA0qbk4Nbg8qTQ3pSA0\r\nkRS8NLXO0DRqdcQ0b//eNLPvrDQGQu00fPstNS/HMTWPJMc0fIrENBIciDSLv/k00iuaNNjgPDWm\r\not00DFkCNfHQhDTO4qY0xTYDNbDSOTWNTjA1dLcPNZB1uzQDUrY08mkFNZaNRjXzzK00ErsDNVeQ\r\n3zS5HxA1pmTINLQDBTWIxP008Ny+NADrGDWeipI0eMHvM5R6CTWA3x01wRO2NE0PBDXZKrU0GFyV\r\nNOCJrzSgxtE0tQR+NKJP0zTmcMA0zgvvNFJN7TT5eA41x/eHNAie2jTBXoU1JbdYNQAAEDUAZAE8\r\nF6YTPaE6DT5EKNM9dQ3rPVEOUD0ioW480q89PCfdUDzbEfI8OKDUPGwsmDxHYgE9amiBPGR1zjsP\r\nPhU7a3x7OyhGRzygj6g8mBGWPCuBIDwy9E47Dr4TO1iRvDsOzBo7Kk6nOyjG8juQWao70ZvWOxbH\r\n8zuU8n07aPEbPGxKlzygoVs8TMfIO9+xhDsybFY7q+rTO/L8YTx2ZJg8LVf1O0mYPjuCWmQ7fLXf\r\nOt2APzt7zMI7O4D+Ox50Tzw8t+w7lE+pOzStezsIHeo7gHbGO/xxGTz7XIA7vAj1O108gzyol3g7\r\ntww5PFZa6zv7yxw8BjMgPKnvLj13cpY8hhS0PDysuTskGOc6fsrQOrACgDqdYpQ6nrawO0mtIzpq\r\niZQ6oWVXO4pL/Dsyi9U7isI/O5AADzuqPMM6Xcz3OuCjVjsJJAU70nAkO3xeCzuPI4E7G4YiO1p8\r\n7jrINmQ6RKiWOkNYjzquKxk7L5jEOkefiTpiBN05wkIqOcZGDTp6g046RrOpOQ6EwjmtPgQ6e2Gc\r\nOSSjpDlo8ZU55XS9ObmuBzlz4785N8m2OWCrjzo4vB06uHOTOSQohDrAdAk6ttpzOqV9QjpzGTY6\r\n3XEaOsgBjjqKt8k6HvZMOicoGjocq2w6ap4WOhHEADrfCzk63skBOgeJHDrUTnI5YkuiObHDpjmu\r\nSKM5/cCSOf1k+zmMGlI6inluOu+YIDu89m07RVI0O6+Kgzr+5446GKYWOsGMzDkpPtU5IguVOWYu\r\n0Thu2rs5wj2KOYr0Szln8mE5OIzqOdZKbDmJnpY5zvoYORbfcjmJJb45rPudOReeBTpaM7A5gOEv\r\nOfU4rjmBKBo6bN3fOQHYIDpCxO45IMMKOhDuqjnu5385nKuKOcsUJTnO6QY6IssJOqWwlTkE/nk5\r\n982pOYJKFzlMEgc5kM8qOTzQSjkjjFw5oLMhOb3XTTlwQiA5qwrfOFyxBDkkj0w5MGaVOpPkyzkA\r\nWYw5x/dWOdTGaDnThQM6cUq4OS/ykTn8pTU5cg8tOjmUnzmJETc5yAicOQHqsTm7VQY6AgbzOcxp\r\nYTnUlDk5COb3OVNucjnJjtA5lvYsOVSTlDlbCZA5jieCOevY/jld/5M5ZAsQOQCjIjmaXZk5X2sk\r\nOaKvQDn3w2A5sFLsOCInSDnjTPU4Pw52ORiOFTnxB085aOe5Oeymfzkdh5Q4b9kUOTcjiDlltOQ5\r\nW97hOK93TDk6TJo5GxUROfmZKDmqWVg5gnArOZiUUTljp2g5VN4COa51OjmCG6857I8hOQJUyDiy\r\nFeY4PzlIOQnaEjkNa105LJgJOedSTTmft9w4RFvhOEMPBjkBNUc5IxKaOKB0AzlHK0Y5uzfsOA7s\r\nCTnIO1A5K33WOKFk2jjp16849C8QOWZpPTn28K85JD91Ocr4pTiAdCY50TmeOH4OPTl/1vM4rUTC\r\nOKr9azkWMbo4F7ngOLhyVDn8tgw5pjZnOXrXVTgwxCo4OQx/OXmv4TiOkZs4EjRhOc/BKzm9HJg4\r\nmNmEOBptqTgOwN44isnuOMjHEDkVGqA5ZsgfOcwJgTn/qS85F5G9OSUi8Th4/wU58kwEOcGM0znk\r\nW1o5KBbSOPxmrjgoieg4mOJqOacY5jhwBhY5iXUjOeCfAjn89RI53mOTOE5nnDgXwQo59x/YOLsN\r\nvzisAgg5ZZXBONJSyTg4ChA5g0OvOOLhCzk2PkQ5yZUgOf1/lTgIavM4G5cEObRwszj5plM54Ngg\r\nOTpfCjmgXsE4/c7tOPbIHjng2QM52pkWOVEIBjnWdfE44lgEOVkCJTm3Js04paCwOJruaDnED7c4\r\nlngHOd1wSThLgdw4+MM6OWkNiTjQTig4ZOnTNxI6RTeeDew2cZ29Nv7NAjclhNM2iMnzNsyKczZM\r\nTqE2NwIANyN0CjdyN5Q2WgazNq/6RTZdvu82CgJ2NnBTbzZ2Y8g2nCmlNornMTbyM/U2XdYuNnYx\r\nDDZETwI3eL+nNkEyGTdWc042Yb0WNzGqlDaNeNI2vHqNNkA4sDYmdYE2+cmANhHYVzaKnIs2sgCG\r\nNgmRtTZMoZo22v10NnRMhzYJ96I2OKTLNuYomzb9GYQ2aZ4gNg34YTYuHZo2W3zKNg54fjYZjkw2\r\nf2wUN3Od0TYrN5w2qv+fNtmNlTawHlI20q1xNtWcgzbalsQ2aqh0NqiRqzZJr+Y1tKkfNvwthjbs\r\njso2aMOjNjtLWzaqzNg2QuVVNvmDcTZsOcU2ODthNmCKmjZkwsw2JO2RNrvV7zZ/j5g2X3SCNuWv\r\njDatdLA22aTFNuHopjZGQ1k280BwNm9ZdzZuF3o2uV16NukrgjZ0cmI2oP0yNtheUDbrCZM2IZD3\r\nNcjiiDbmV9M2x6S6NnU/pzZADwg2huV1NusKwzZOBTQ2+FGNNgbaCjZtFJo2oEWzNnsKijZWeO02\r\nGtuJNu8IdjY49Yg2Mr2ANg3ZzjZiM+s2PSKeNoMphDa/F582hoJcNt0QxjZWOKM2KJ8XNqxVQjbY\r\ngaI2GZ6aNs0bpTU+g5g2tEowNtIkZDYOlas2ZR1xNtIkgzZRo4A2kxo0Nq+R7DZCmS43Jnh6NgQS\r\nbDb4RYg2lNw9NuvPkzYiw3I2yo89NhID7TYcIIw26OkjNrMkKzbG26s2fgyyNkykhTarGu41ZVyZ\r\nNs59hja4/3g2DVwlNg8S/DWud6U2N9IvNgCXSjbgmnM2uSBPNn7iXza+E8Q2IrczNgAgGTbUpLw1\r\nmKpzNoJSGzdiAoM2ZpDFNfrlFDY4tAI2RI+mNgX6UTb+VoU2addaNhrNCTZZFHA2uMncNXzMSzbJ\r\nKYk2chpoNlUqsTVQL942eABrNmzNjTZ3X0o2gnWBNn72gTZLTEE2lwQzNgfuCjaKZ0A2Cn+pNqDa\r\nNzbbTXE2Jn7UNu4UKDZVMoQ2j46fNsCxMzbOjB026lnINRYmezYubI02j29ONiv6jzYkvQU24bo/\r\nNlRyPzacL0c24hOWNpYhiDbn4/U1XMKXNjdHgzYwUO01kmwQNsrkGjZWzx02IdkDNtNSCTdR2VE2\r\nthtfNuRpyzaptiM2tEQ0Nkz1XDaF2zA2q9VKNcwlKDW1Wt007vuJNFq4yzRjGzI175BhNbYW/jTC\r\n50I1fp2dNJ2JFzXcfBY1j6wVNck7ADXKUgk1IqzANOh0JjVVrrw0Msw2NZKFGTUaPUI1fBNaNcVN\r\nSTUON7Q0P4fQNFKuFzUxPlU1sICqNGd1ajTm2QI1i7CcNE6RhzRis6A0+Hg7Nbaz2zTd5O41Lo6Q\r\nNCC46jRqY4k02LwPNQsD+zQS2kY1DgsZNQCcHDWKMa00NY4gNbBtFDXqiRc1oiMKNXSGhzRgRxs1\r\nsvCONXglnTQaJsk0VZcVNTwSAjVbovE0HAgiNYYOkDWs+Bk1NoTxNOmQHzWwgbI0cTRKNEIM5zRm\r\n0Eo1Lt3NNDT7uTSlUH81fpTdNNbDuDR5QIA1bivBNDg8tDTqSAw1juzKNPjckTXYQus0QHrGNAe/\r\nzjT+Kxk1k1EENS6XETW7x+g0SgvDNLGCvzSIgvk0RU2fNNSwojQOc7k03IPMNCf6ETV8ef00kiUz\r\nNaCP5DSyjgI1NzurNDzYBDVnrxg1wWfANHpDdjTTMLM0SyeuNCZrpDTpSwg1kQXWNKnmtjTd4L00\r\nCjEvNe+3XjWZAko1Ym35NPTQoTRMXRI1/Kv1NNnw+TREn580ApgENQioMTUc6Qw1wGDtNMWVAjX6\r\nRmI1CN1MNL0nqzQdttc0yKQdNbOO9jSg9bU00Ta0NPpG8jRwfn81zM+VNG1DtzQjBjQ133YnNRiY\r\nzzSD58A0vVEGNeQz7TQc+8c0alDxNOYeqTRZjwM1A1X7NKFF9DRfJtM0Vc0BNUYGIjUIksE0MIwp\r\nNYA4xDQyT2E0+rrONBaUKjWcVbs0lgEXNQhoLjVqYfM0QkIHNXxZBjWjN9A04CoHNf4JgzRmC1I1\r\nHvk2NR48nDSMgG00Zf32NNotNDWhucs0OhP6NCbLvjSa08g0UXkUNWHkGjU2b7M0Jjf1NNWAHTX2\r\nAKk0D22rNDpwCjVAdSE1wIe3NKki1DQ7h1c0c56RNM+EHDWeNvs0MQ70NEBr+DSzItM00gbWNHQw\r\nKDULfMQ0x//kNPxv2TTQtDM1WH4UNV82NTXQGQs1zfzkNE4e5zQRzgg1/pbnNGCS0TTOFd40v6/x\r\nNAS1tjRCvqU0IwneNHHchzWWIeA0UM+4NK8f9TRyIZM0h7UINdtvGDWwIMU0f+g7NQZH3jSvXyg1\r\nQFDUNEfN1zTFaJE0vTVhNZhtEzVsOCo1lI2DNKvBcDU7hyA1G3lgNdKy/jT5BOE0W5yZNMVKxTQt\r\nffo0UfUYNfYY1jRmNic1cjOcNHhM3TQltw01y+wGNdUXAzWjaYQ1EAGsNAMnHTXG2Ok0b2sZNdaU\r\nnTTqTu80BYtpNRavBjXpXoY0gY8TNRz6MzTZ+bU0CwEyNeatmjTYpAw1XQ0NNS4fMDUD3N80w5kB\r\nNbZ+wDSHwM80LsdINflVQTXijxU12ckXNexXHTV3aAk1Y0gINRwPEzWrSkk1gEhcNcKckzRnQdM0\r\nylE8NZTlGjWZRXo1mYPiNKOIGDX9VSk1SDywNE/uAjVE05U0/LpeNYJ8uDT+TwI1K57TNKdFFTVQ\r\nmmw1bxHxNNasyjTwQdg0uDi0NKQl/jRwNLM0eBffNHVFvDRC6IA0QxjQNA8uczQLG6o0fGK7NO7j\r\nmzQBYqc0PLzWNLgI9DTcW6Q0a0AZNYg9STUbsVQ1+5sfNVyxoTRchak0ZlS/NIZF8DQC/LA0KHW2\r\nNAKVBzVhPRg1IxGrNNrwCDVtxBU1lnAcNYeauTTwp/s0RXHANLDJwzTVLtw0yWgLNdyaGTVZOe00\r\nJFcoNZ6B7TQG/MU0+DEUNQFt/DRtlSo14IBuNQxXyzRAZsw0OmxvNepc4TQsbOo0BX5pNeLZFjVa\r\nUP00/NC+NDfFxzSk/Jk0Xv9WNFcJFTUkCfs0nPhONWb3szQLn8U07ItQNLGo0DSMwQE17Z/PNNec\r\n0zRaof0076bINOo8GzXNlYU0hEQkNTyH5jT2YwU1rPNDNQ/OwzRUsuM0rNi/NPhc8DQKmUg1hNDu\r\nNFsmCjUDuzw1VasyNef7cjVSnrA0plT5NKXLhzSFNZ00Ed+nNCFdUDUWMQI1JJnbNNcqvjQMb+40\r\nMCZxNWBYzTTT7DQ1EXZRNffmaTV+3a80W4eUNHE8DjXgGu40gRDrNBPuqjTmEDY1ol3ONJbeJTVU\r\n2RE1pL7HNICD5TRWWw816jZdNU5+4zSdEBA1+UiKNPe7OzXoSB81ciQHNY2hujSihSE1Zmy4NC66\r\njjSDV6M0zDuqNH8orDToE6s0mAmlNNh/LDUtZTA1POHGNHfLdzTbIis17ZIdNZocBDVvRKE0QmwB\r\nNYXQijQkWAs1oC2hNA2Z5TSh2c00fEGaNMT8ujTDZ5w0Y1z7NI2ELjWyxiA1AEAcNQ==",
                            "noiseTrainingType" : "default"
                          }
                        }
                    ],
                    "start" : 2121,
                    "duration" : 38,
                    "mediaStart" : 2421,
                    "mediaDuration" : 38,
                    "scalar" : 1,
                    "metadata" : {
                      "WinSubProjectDisplayName" : "",
                      "clipSpeedAttribute" : false
                    },
                    "animationTracks" : {

                    }
                  },
                  {
                    "id" : 364,
                    "_type" : "AMFile",
                    "src" : 15,
                    "trackNumber" : 0,
                    "attributes" : {
                      "ident" : "旁白_vis2021 1",
                      "sampleRate" : 44100,
                      "bitDepth" : 16,
                      "gain" : 1.0,
                      "mixToMono" : false
                    },
                      "channelNumber" : "0,1",
                    "effects" : [
                        {
                          "effectName" : "NoiseReduction",
                          "parameters" : {
                            "denoiserAmount" : 20.0,
                            "denoiserThreshold" : 0.0,
                            "noiseProfile" : "OWoAPH2pEz2x9Qw+d6HTPcva6j2sp089E2dtPD6vPDwfl1A8ScjwPJTr1Txy35g8LaEAPTpegDyh\r\n+807XKYVO6TEeztxHEg8k5enPOCDljxR1SA80RNNO5P/FTsAUsA78qcaO7cppTsc2vE7qgSrO6lQ\r\n2jukqvI7h92AO2yWGzx+tZU8JitaPFzIyTuXwYE7uY9XO8aQ0Dvqq2I88amYPMnb9DtB2j87KTBk\r\nOzy52zoRSDw7OCjBO9xi/DtxwE88KlbqO3j0qDtWJH47VJnsO9JoxDuANhs8tJ+AO6Qz9Tth+oI8\r\nbGt3O1T1Nzzjhew74A0cPJAvITwici89BseWPGFNtDxkw7o7MRvlOmld0jryf386QXGZOrHMrzuA\r\ngR46FrCVOsPpWDsY4v07HUbYO1nLPjsw9w47wr3FOrnZ+Drc3FY7lUkJO7DAJDv2mAY7Bol9O6Gv\r\nIjui8ek64NliOq5vmTrG/ZM6bCYbO5q5tzpF2YA69unhOXdvJDkMXx461iVVOpU6tTmIPdU5NZ4C\r\nOrLzrDlzv6053gyzOSasszlLTgc5O7atOcYrxzkKtYw6r9cjOpoinjlRRog6Q9QHOqLsbTo5k0E6\r\n9U47OqgHGzq2DIw6xrvIOkIITzrGgR86I/hwOsTOFzq0IQU6isQ5OkIP9DmC+Bw6hsx0OYy4pDnt\r\nMqk5f6afOfFKnDnqIvc5SsRQOpXvdDp8CiE703psOwEALztW+4A6r36ROtKuGDoo4s852RrZOQKM\r\nhDmkgtY4CBe5OXJ5jDnBcjY5RM9jObGZ+DmyHG05aluSOaagETnIyGM5Jt2dOdUxnTmBHwU6PPyu\r\nOQ2PETl6x7k5tcInOtV63TnmcCY6dHftOUWtBzoIt6w5qk+GOf1mbTk4DT454wsLOh2HAjoY+ZY5\r\nyr2VOQQurzmqnRg5LDMFOZLQUjkvV1Q5/g1+OSlxFzlITz85XmAkOdDG/DjiIfM4htxWOREUlTqh\r\nwcw5VnaGOWCBXjn90lA5cKzvOWPrqzkL/o45sEFOOTkyMDpUc5s51oo9ORByjjlGCco52p/tORKy\r\n8Tnit2E51lY0Ofo+ATq6o3Y5Z021OYTVGDlRAq45zuyhOeA4ZDk52eE5nw91ORI2OzlB2R85fgab\r\nOY8bMjkQ1TA5cCaFOXju/Dh2ghM59YD8OFHmfzmnKiQ58YpfOXsbtzlCtX45yEWKOLGkLDkayH45\r\nRUrSOSltyTgvk1U5NT2NOY45EjnfihY5JFlqOTokTjlSlV45Ir54OQ1W5jifjjI5bWS5OfA8NDkO\r\nXs44QhjgOLbnOjkr+iw5hK5/Ocz3Azl6HF45q6DlOIJb2DiR79I4esU3OWtGjDg4gBM5cVloOdzR\r\nDTlkchs5GGg7OVSTtziXOeg4XazEOCiMADmz6Tw5ueqOOVcmeTmS4Ms4nI0UOUTLnjhAXjc56pkE\r\nOdXdBznEOY85PIy4OMxI5zgkSxk5r6oQObvARTnCtUo4LoVEONjrVjnfUsw4msCWOCWAQjlc/y45\r\nJ4KtOCzJrjjGJZ84BKXjOIHj2jhi+yE5rqqOOdCIIzm9fIM56Oo3OUSjtzmiT/M4Wiv3OJw6ETmO\r\nS8w53FJpOdbu1DiJSZs4DaoFOWqKWDkkyvU4GPIdOchJLDmxKwA54MMWOVgzmjgl75M44OcEOVPH\r\n3Dhmzdw4X9sOOb2CyTguC7Y4VgEmOTaQxDjBUAQ5dAM9OarFHjmfj444qMgAOWZMDDmSlas4yUZQ\r\nOaDeMTmPogU5Wxe1OF0m3Dh6aDQ5tbkIObjoEzlqqg45EPLvOKyF+zhUmiE57MvFOPg/vDiW+Vo5\r\nmhyzOGFsBTldBEw4dL3pOOk/QDnXnJQ467sNONFyxDfGPDM3rTsZN+BixjZrWTk338GlNhf/FTe5\r\nNTk2RTSUNkMj3Taj0d02is2UNt0UDDYUXvI1aeXFNhijMjbAtYc2ikWgNuphZDY8D1I28gSnNv4k\r\nLTZRYDk2mtYGN70P5DaWBKc2RzXfNlQFKTeHIYk2IpjaNofVszbqlaM2PatTNiKTzDYjx6M2BMHZ\r\nNiXEdDbJOMs2FNCMNsnGRja2BpI2UsiGNvm1vzbR74Q2wLCoNnn3jDa4fK82VqGlNrSAsTYwh5o2\r\n00guNguj5DYiuZI2yg0BN6PItzbTY6w2VXFINoLcTDbWIk82WJ/cNvx6HDZGdqc2ta/1NVwQMDaG\r\n9VE24mqONlq9rDaNiSE2Lay+NpqbcTYGZ3Q2KPqfNicegDbQyZw27RAtNyQhVjazoMU2izz9Npf0\r\njzbhrAg2zKY4Njo2yjZ1hZE2WNZsNrbfvDZiyp42KRFjNr96jjbjaI02RTYRNmwjhzapnyI2B4XY\r\nNltT7jUOLSY20oDqNhJrxDaCZWw2Ct+VNg/LgjZZzMA2Ik1JNrzQuDZxy901azNqNvW2eDaUuVs2\r\ngu+KNta85ja8P/M1FmShNp/ipjb1OIE21Q/2Nr5JmzYXtZU2x6+qNk6LmTZnjYw2mIJGNul2Jjbc\r\nO3A2lquYNuovLTYtgfE1nUlUNgQzNzaIsDM2DIvUNjKBRja+0oY2ExJ5NgPdJzZaSLQ2EtYgN0Wc\r\nDDbIHow2IiiZNgZUVTa1JnM2v3wcNoN3YDYCtgE38JaENkzoaDb0JTc26/WJNoqw9jYFxFI29vNP\r\nNmdCvDZHFIU2xxObNr0sUTblHoc2JrM/NmrbFDYX93o2m4OpNgs6HDaFNl02Rb2TNpjkJjYAADk2\r\n/8chNn7/QTawezM30gsqNidJ8zWKfC02kBYuNmSnnTa80FY2mFN3NkYZWzY4aO41UHmKNkyZiDYh\r\nGC42h1Y6Np6cgzYSij81AnuaNnc6rzZUXG82vp9eNp4h/jWNsEY2k603NuKSjDbHWSo2RxYINlNS\r\nmTaAOlU2yvJmNkqftzZ5VEk26hV8NjWLezbKM9Y1ernFNWi/XDZaEHQ2dhvANhDaRjYMwy82EwC4\r\nNlCNVTbH4IU2Cx1LNk6XlDbcVNA2FB33NQHMjzY6eW02jpZONqrdMTa+lxk267lUNkhoNDZz+TQ3\r\nwulaNoXxEjYQdsQ2lXEcNsiYOjbfz9o2UzpENvQL0TSOQIM10f8gNcLzLzX5w2c1H4efNN2VyTQO\r\nn70011tKNT7aKTUG8/w0QEgiNUCRKjWhXKI03LYLNQzSrjUnb9E0iB65NCpfLzVs4tk0emppNQtw\r\n8zTy2+U0USoLNeRnDTU88Uc19BfdNFPdNDVtA7Q09QQJNdJhKTXqRNg0am3RNG251DQ1KrA0Oj/Y\r\nNOrxkjTQ8cI0+3eXNEYitDR9exs1YvMdNUBR5DR0pQE1EGj5NAq8KTXmxKs0ErgPNTXAAjVM71g1\r\n2McYNch2PjVA3vs0HZGgNJEIOTWY3M40B5RGNGfgUDUIWUw1AAKQNPuJvjRnt4w0M0qUNPpcxjR3\r\nCM0000dJNZjtnTSx6rQ09gISNSzUKjVHscM0TBtXNYWZEDWjpck07HS+NMuEnzTVZ0U1duMGNWCg\r\n6jTs3880YBEXNT+XujRa3bk0wUISNadMADU5AQ411F8ONePs/jS0pjA105FENQ/HnjQmcwg1WPKH\r\nNFq2nTSuOLI0S9MpNbyI/zTAPso0+sXPNPLB3DTur8o0PLbHNPmbnzT+MvY0YjqvNCUXJTXMJp80\r\nndUPNWmVEjXazkY1O5DgNMl4gzVmyAY1rYEfNXmSQTWIrhU1ikoVNSCqpDTaEbY0/AvpNLIwhDSh\r\nIww1MCwENb5Y/zSUBhw1UowYNbXtpzTvlg4155xcNZhCrDRWs9U0k616NIzznjRmnAQ1Khq/NEm9\r\nCTUki940fgEVNZA1JzWkzqg0RtjuNI+WjTW0QRg1omMcNXzDIDUDHKI0NVu3NMMpRDVCjIo0ViIs\r\nNfxAITWCVB81HXTcNB0NXDWG+bE03vcdNf6QMzXAn8s0Eg/NNATJsTQE9U01LMELNX7DoDSIEB41\r\nwLEGNUVbzTQ8Pwo1QFCINBFgFTVn0vo0JOCjNNaR8zQ1vx41DXUDNak+EjUNQYo08gC7NFzPoTSI\r\n7RU1kpUbNYXvKzWOx240VWf0NGRuBzU6PIo0wlCGNT7g9jSWZjw1Ml4BNRvl6jTQR3w1lmHdNGfd\r\nITTobvU0ypuvNEpF+jTjNY40JYO7NCfBbzQijsA0us84Na6J8TQIYwU1V3IrNSwmYTXQ1kU0zKTc\r\nNDTVfzTj6to0SbOuNHwCvTQ/eR01mcuPNPTduTRDjf806a+nNAj20DREKOo0nPlPNQTe+zQNWSo1\r\nlpGmNBv9xzT/tzk1CtkQNapg2jSMQlI1MDUTNRhOMjWh56Q0AygANa8srzRbOwQ187XxNOQlwDSQ\r\nNO80mTAVNaBD6TQbeoo0UM6FNHPMCjV4t7k0gIxkNE02BjXYBQo1AhAcNWJMijS64uA0zd0JNXWm\r\nEDWiijY1ZpSXNNpWpzTYT+k0QHbzNDaorzSGDHs0qT7ONBvuhzSyYys1dPYCNQdToDTk8uU0MwYH\r\nNWYw+TRbj4g1aJxzNHlxCDVIE8c0Nl2SNOyilTRoqUs1KtMvNbhJPjVmcCE12eGANQ1X8jSNKZo0\r\ndGHdNGrcDjXxZ0A0JhPPNJb14jSwx8o0morUNDmP2DTubH40SSbdNE1r7TRT3rk0EZGLNP35LjV1\r\n1640P7XhNLEsczQldYc02X7eNAZ67jSawbI0drgeNb6GtzSMN9U00j4cNQhrBzWSqgw14dAnNYUF\r\nnDTQSpg0P9OMNOHDLTULMsI0QH6VNI2nxDSl5Yc0WHyLNCaeLDXnc6Y0AaCFNBQP7TTJzR41kvoE\r\nNRykHjU6wZw0+cjVNJdR1TSiQQU10AuONaiUkzUExgY1MMYONaRkZTT9EAU11Bu0NC2j3jTIM4A0\r\nal8cNSoRTzXbrSk1FTDYNEBqkjTgDwA1sun9NP5ztDRWob80HSSSNGYkGDWnkuM0RaMANeGLITXo\r\nTow0GNvbNJlRuzSgsOY0CpP5NMVL9jRRErs0aS1TNVNWgDSmPp80Gvy3NBnwGDXWr7M0dB/VNIw8\r\n0DQBkZ410iF5NDXYLTVZSxU1T0S6NHIrqTRzbRA1XDWKNA2phjRVwpo0SPJ1NGzsODX8K6Y0ne6l\r\nNNU3JjWsl7M0wb+kNKhE5TQUaN8041HRNPhNtTRpfuQ09awXNcwLtDS6nqA0qbk4Nbg8qTQ3pSA0\r\nkRS8NLXO0DRqdcQ0b//eNLPvrDQGQu00fPstNS/HMTWPJMc0fIrENBIciDSLv/k00iuaNNjgPDWm\r\not00DFkCNfHQhDTO4qY0xTYDNbDSOTWNTjA1dLcPNZB1uzQDUrY08mkFNZaNRjXzzK00ErsDNVeQ\r\n3zS5HxA1pmTINLQDBTWIxP008Ny+NADrGDWeipI0eMHvM5R6CTWA3x01wRO2NE0PBDXZKrU0GFyV\r\nNOCJrzSgxtE0tQR+NKJP0zTmcMA0zgvvNFJN7TT5eA41x/eHNAie2jTBXoU1JbdYNQAAEDUAZAE8\r\nF6YTPaE6DT5EKNM9dQ3rPVEOUD0ioW480q89PCfdUDzbEfI8OKDUPGwsmDxHYgE9amiBPGR1zjsP\r\nPhU7a3x7OyhGRzygj6g8mBGWPCuBIDwy9E47Dr4TO1iRvDsOzBo7Kk6nOyjG8juQWao70ZvWOxbH\r\n8zuU8n07aPEbPGxKlzygoVs8TMfIO9+xhDsybFY7q+rTO/L8YTx2ZJg8LVf1O0mYPjuCWmQ7fLXf\r\nOt2APzt7zMI7O4D+Ox50Tzw8t+w7lE+pOzStezsIHeo7gHbGO/xxGTz7XIA7vAj1O108gzyol3g7\r\ntww5PFZa6zv7yxw8BjMgPKnvLj13cpY8hhS0PDysuTskGOc6fsrQOrACgDqdYpQ6nrawO0mtIzpq\r\niZQ6oWVXO4pL/Dsyi9U7isI/O5AADzuqPMM6Xcz3OuCjVjsJJAU70nAkO3xeCzuPI4E7G4YiO1p8\r\n7jrINmQ6RKiWOkNYjzquKxk7L5jEOkefiTpiBN05wkIqOcZGDTp6g046RrOpOQ6EwjmtPgQ6e2Gc\r\nOSSjpDlo8ZU55XS9ObmuBzlz4785N8m2OWCrjzo4vB06uHOTOSQohDrAdAk6ttpzOqV9QjpzGTY6\r\n3XEaOsgBjjqKt8k6HvZMOicoGjocq2w6ap4WOhHEADrfCzk63skBOgeJHDrUTnI5YkuiObHDpjmu\r\nSKM5/cCSOf1k+zmMGlI6inluOu+YIDu89m07RVI0O6+Kgzr+5446GKYWOsGMzDkpPtU5IguVOWYu\r\n0Thu2rs5wj2KOYr0Szln8mE5OIzqOdZKbDmJnpY5zvoYORbfcjmJJb45rPudOReeBTpaM7A5gOEv\r\nOfU4rjmBKBo6bN3fOQHYIDpCxO45IMMKOhDuqjnu5385nKuKOcsUJTnO6QY6IssJOqWwlTkE/nk5\r\n982pOYJKFzlMEgc5kM8qOTzQSjkjjFw5oLMhOb3XTTlwQiA5qwrfOFyxBDkkj0w5MGaVOpPkyzkA\r\nWYw5x/dWOdTGaDnThQM6cUq4OS/ykTn8pTU5cg8tOjmUnzmJETc5yAicOQHqsTm7VQY6AgbzOcxp\r\nYTnUlDk5COb3OVNucjnJjtA5lvYsOVSTlDlbCZA5jieCOevY/jld/5M5ZAsQOQCjIjmaXZk5X2sk\r\nOaKvQDn3w2A5sFLsOCInSDnjTPU4Pw52ORiOFTnxB085aOe5Oeymfzkdh5Q4b9kUOTcjiDlltOQ5\r\nW97hOK93TDk6TJo5GxUROfmZKDmqWVg5gnArOZiUUTljp2g5VN4COa51OjmCG6857I8hOQJUyDiy\r\nFeY4PzlIOQnaEjkNa105LJgJOedSTTmft9w4RFvhOEMPBjkBNUc5IxKaOKB0AzlHK0Y5uzfsOA7s\r\nCTnIO1A5K33WOKFk2jjp16849C8QOWZpPTn28K85JD91Ocr4pTiAdCY50TmeOH4OPTl/1vM4rUTC\r\nOKr9azkWMbo4F7ngOLhyVDn8tgw5pjZnOXrXVTgwxCo4OQx/OXmv4TiOkZs4EjRhOc/BKzm9HJg4\r\nmNmEOBptqTgOwN44isnuOMjHEDkVGqA5ZsgfOcwJgTn/qS85F5G9OSUi8Th4/wU58kwEOcGM0znk\r\nW1o5KBbSOPxmrjgoieg4mOJqOacY5jhwBhY5iXUjOeCfAjn89RI53mOTOE5nnDgXwQo59x/YOLsN\r\nvzisAgg5ZZXBONJSyTg4ChA5g0OvOOLhCzk2PkQ5yZUgOf1/lTgIavM4G5cEObRwszj5plM54Ngg\r\nOTpfCjmgXsE4/c7tOPbIHjng2QM52pkWOVEIBjnWdfE44lgEOVkCJTm3Js04paCwOJruaDnED7c4\r\nlngHOd1wSThLgdw4+MM6OWkNiTjQTig4ZOnTNxI6RTeeDew2cZ29Nv7NAjclhNM2iMnzNsyKczZM\r\nTqE2NwIANyN0CjdyN5Q2WgazNq/6RTZdvu82CgJ2NnBTbzZ2Y8g2nCmlNornMTbyM/U2XdYuNnYx\r\nDDZETwI3eL+nNkEyGTdWc042Yb0WNzGqlDaNeNI2vHqNNkA4sDYmdYE2+cmANhHYVzaKnIs2sgCG\r\nNgmRtTZMoZo22v10NnRMhzYJ96I2OKTLNuYomzb9GYQ2aZ4gNg34YTYuHZo2W3zKNg54fjYZjkw2\r\nf2wUN3Od0TYrN5w2qv+fNtmNlTawHlI20q1xNtWcgzbalsQ2aqh0NqiRqzZJr+Y1tKkfNvwthjbs\r\njso2aMOjNjtLWzaqzNg2QuVVNvmDcTZsOcU2ODthNmCKmjZkwsw2JO2RNrvV7zZ/j5g2X3SCNuWv\r\njDatdLA22aTFNuHopjZGQ1k280BwNm9ZdzZuF3o2uV16NukrgjZ0cmI2oP0yNtheUDbrCZM2IZD3\r\nNcjiiDbmV9M2x6S6NnU/pzZADwg2huV1NusKwzZOBTQ2+FGNNgbaCjZtFJo2oEWzNnsKijZWeO02\r\nGtuJNu8IdjY49Yg2Mr2ANg3ZzjZiM+s2PSKeNoMphDa/F582hoJcNt0QxjZWOKM2KJ8XNqxVQjbY\r\ngaI2GZ6aNs0bpTU+g5g2tEowNtIkZDYOlas2ZR1xNtIkgzZRo4A2kxo0Nq+R7DZCmS43Jnh6NgQS\r\nbDb4RYg2lNw9NuvPkzYiw3I2yo89NhID7TYcIIw26OkjNrMkKzbG26s2fgyyNkykhTarGu41ZVyZ\r\nNs59hja4/3g2DVwlNg8S/DWud6U2N9IvNgCXSjbgmnM2uSBPNn7iXza+E8Q2IrczNgAgGTbUpLw1\r\nmKpzNoJSGzdiAoM2ZpDFNfrlFDY4tAI2RI+mNgX6UTb+VoU2addaNhrNCTZZFHA2uMncNXzMSzbJ\r\nKYk2chpoNlUqsTVQL942eABrNmzNjTZ3X0o2gnWBNn72gTZLTEE2lwQzNgfuCjaKZ0A2Cn+pNqDa\r\nNzbbTXE2Jn7UNu4UKDZVMoQ2j46fNsCxMzbOjB026lnINRYmezYubI02j29ONiv6jzYkvQU24bo/\r\nNlRyPzacL0c24hOWNpYhiDbn4/U1XMKXNjdHgzYwUO01kmwQNsrkGjZWzx02IdkDNtNSCTdR2VE2\r\nthtfNuRpyzaptiM2tEQ0Nkz1XDaF2zA2q9VKNcwlKDW1Wt007vuJNFq4yzRjGzI175BhNbYW/jTC\r\n50I1fp2dNJ2JFzXcfBY1j6wVNck7ADXKUgk1IqzANOh0JjVVrrw0Msw2NZKFGTUaPUI1fBNaNcVN\r\nSTUON7Q0P4fQNFKuFzUxPlU1sICqNGd1ajTm2QI1i7CcNE6RhzRis6A0+Hg7Nbaz2zTd5O41Lo6Q\r\nNCC46jRqY4k02LwPNQsD+zQS2kY1DgsZNQCcHDWKMa00NY4gNbBtFDXqiRc1oiMKNXSGhzRgRxs1\r\nsvCONXglnTQaJsk0VZcVNTwSAjVbovE0HAgiNYYOkDWs+Bk1NoTxNOmQHzWwgbI0cTRKNEIM5zRm\r\n0Eo1Lt3NNDT7uTSlUH81fpTdNNbDuDR5QIA1bivBNDg8tDTqSAw1juzKNPjckTXYQus0QHrGNAe/\r\nzjT+Kxk1k1EENS6XETW7x+g0SgvDNLGCvzSIgvk0RU2fNNSwojQOc7k03IPMNCf6ETV8ef00kiUz\r\nNaCP5DSyjgI1NzurNDzYBDVnrxg1wWfANHpDdjTTMLM0SyeuNCZrpDTpSwg1kQXWNKnmtjTd4L00\r\nCjEvNe+3XjWZAko1Ym35NPTQoTRMXRI1/Kv1NNnw+TREn580ApgENQioMTUc6Qw1wGDtNMWVAjX6\r\nRmI1CN1MNL0nqzQdttc0yKQdNbOO9jSg9bU00Ta0NPpG8jRwfn81zM+VNG1DtzQjBjQ133YnNRiY\r\nzzSD58A0vVEGNeQz7TQc+8c0alDxNOYeqTRZjwM1A1X7NKFF9DRfJtM0Vc0BNUYGIjUIksE0MIwp\r\nNYA4xDQyT2E0+rrONBaUKjWcVbs0lgEXNQhoLjVqYfM0QkIHNXxZBjWjN9A04CoHNf4JgzRmC1I1\r\nHvk2NR48nDSMgG00Zf32NNotNDWhucs0OhP6NCbLvjSa08g0UXkUNWHkGjU2b7M0Jjf1NNWAHTX2\r\nAKk0D22rNDpwCjVAdSE1wIe3NKki1DQ7h1c0c56RNM+EHDWeNvs0MQ70NEBr+DSzItM00gbWNHQw\r\nKDULfMQ0x//kNPxv2TTQtDM1WH4UNV82NTXQGQs1zfzkNE4e5zQRzgg1/pbnNGCS0TTOFd40v6/x\r\nNAS1tjRCvqU0IwneNHHchzWWIeA0UM+4NK8f9TRyIZM0h7UINdtvGDWwIMU0f+g7NQZH3jSvXyg1\r\nQFDUNEfN1zTFaJE0vTVhNZhtEzVsOCo1lI2DNKvBcDU7hyA1G3lgNdKy/jT5BOE0W5yZNMVKxTQt\r\nffo0UfUYNfYY1jRmNic1cjOcNHhM3TQltw01y+wGNdUXAzWjaYQ1EAGsNAMnHTXG2Ok0b2sZNdaU\r\nnTTqTu80BYtpNRavBjXpXoY0gY8TNRz6MzTZ+bU0CwEyNeatmjTYpAw1XQ0NNS4fMDUD3N80w5kB\r\nNbZ+wDSHwM80LsdINflVQTXijxU12ckXNexXHTV3aAk1Y0gINRwPEzWrSkk1gEhcNcKckzRnQdM0\r\nylE8NZTlGjWZRXo1mYPiNKOIGDX9VSk1SDywNE/uAjVE05U0/LpeNYJ8uDT+TwI1K57TNKdFFTVQ\r\nmmw1bxHxNNasyjTwQdg0uDi0NKQl/jRwNLM0eBffNHVFvDRC6IA0QxjQNA8uczQLG6o0fGK7NO7j\r\nmzQBYqc0PLzWNLgI9DTcW6Q0a0AZNYg9STUbsVQ1+5sfNVyxoTRchak0ZlS/NIZF8DQC/LA0KHW2\r\nNAKVBzVhPRg1IxGrNNrwCDVtxBU1lnAcNYeauTTwp/s0RXHANLDJwzTVLtw0yWgLNdyaGTVZOe00\r\nJFcoNZ6B7TQG/MU0+DEUNQFt/DRtlSo14IBuNQxXyzRAZsw0OmxvNepc4TQsbOo0BX5pNeLZFjVa\r\nUP00/NC+NDfFxzSk/Jk0Xv9WNFcJFTUkCfs0nPhONWb3szQLn8U07ItQNLGo0DSMwQE17Z/PNNec\r\n0zRaof0076bINOo8GzXNlYU0hEQkNTyH5jT2YwU1rPNDNQ/OwzRUsuM0rNi/NPhc8DQKmUg1hNDu\r\nNFsmCjUDuzw1VasyNef7cjVSnrA0plT5NKXLhzSFNZ00Ed+nNCFdUDUWMQI1JJnbNNcqvjQMb+40\r\nMCZxNWBYzTTT7DQ1EXZRNffmaTV+3a80W4eUNHE8DjXgGu40gRDrNBPuqjTmEDY1ol3ONJbeJTVU\r\n2RE1pL7HNICD5TRWWw816jZdNU5+4zSdEBA1+UiKNPe7OzXoSB81ciQHNY2hujSihSE1Zmy4NC66\r\njjSDV6M0zDuqNH8orDToE6s0mAmlNNh/LDUtZTA1POHGNHfLdzTbIis17ZIdNZocBDVvRKE0QmwB\r\nNYXQijQkWAs1oC2hNA2Z5TSh2c00fEGaNMT8ujTDZ5w0Y1z7NI2ELjWyxiA1AEAcNQ==",
                            "noiseTrainingType" : "default"
                          }
                        }
                    ],
                    "start" : 2159,
                    "duration" : 57,
                    "mediaStart" : 2459,
                    "mediaDuration" : 59,
                    "scalar" : "57/59",
                    "metadata" : {
                      "WinSubProjectDisplayName" : "",
                      "clipSpeedAttribute" : true
                    },
                    "animationTracks" : {

                    }
                  },
                  {
                    "id" : 365,
                    "_type" : "AMFile",
                    "src" : 15,
                    "trackNumber" : 0,
                    "attributes" : {
                      "ident" : "旁白_vis2021 1",
                      "sampleRate" : 44100,
                      "bitDepth" : 16,
                      "gain" : 1.0,
                      "mixToMono" : false
                    },
                      "channelNumber" : "0,1",
                    "effects" : [
                        {
                          "effectName" : "NoiseReduction",
                          "parameters" : {
                            "denoiserAmount" : 20.0,
                            "denoiserThreshold" : 0.0,
                            "noiseProfile" : "OWoAPH2pEz2x9Qw+d6HTPcva6j2sp089E2dtPD6vPDwfl1A8ScjwPJTr1Txy35g8LaEAPTpegDyh\r\n+807XKYVO6TEeztxHEg8k5enPOCDljxR1SA80RNNO5P/FTsAUsA78qcaO7cppTsc2vE7qgSrO6lQ\r\n2jukqvI7h92AO2yWGzx+tZU8JitaPFzIyTuXwYE7uY9XO8aQ0Dvqq2I88amYPMnb9DtB2j87KTBk\r\nOzy52zoRSDw7OCjBO9xi/DtxwE88KlbqO3j0qDtWJH47VJnsO9JoxDuANhs8tJ+AO6Qz9Tth+oI8\r\nbGt3O1T1Nzzjhew74A0cPJAvITwici89BseWPGFNtDxkw7o7MRvlOmld0jryf386QXGZOrHMrzuA\r\ngR46FrCVOsPpWDsY4v07HUbYO1nLPjsw9w47wr3FOrnZ+Drc3FY7lUkJO7DAJDv2mAY7Bol9O6Gv\r\nIjui8ek64NliOq5vmTrG/ZM6bCYbO5q5tzpF2YA69unhOXdvJDkMXx461iVVOpU6tTmIPdU5NZ4C\r\nOrLzrDlzv6053gyzOSasszlLTgc5O7atOcYrxzkKtYw6r9cjOpoinjlRRog6Q9QHOqLsbTo5k0E6\r\n9U47OqgHGzq2DIw6xrvIOkIITzrGgR86I/hwOsTOFzq0IQU6isQ5OkIP9DmC+Bw6hsx0OYy4pDnt\r\nMqk5f6afOfFKnDnqIvc5SsRQOpXvdDp8CiE703psOwEALztW+4A6r36ROtKuGDoo4s852RrZOQKM\r\nhDmkgtY4CBe5OXJ5jDnBcjY5RM9jObGZ+DmyHG05aluSOaagETnIyGM5Jt2dOdUxnTmBHwU6PPyu\r\nOQ2PETl6x7k5tcInOtV63TnmcCY6dHftOUWtBzoIt6w5qk+GOf1mbTk4DT454wsLOh2HAjoY+ZY5\r\nyr2VOQQurzmqnRg5LDMFOZLQUjkvV1Q5/g1+OSlxFzlITz85XmAkOdDG/DjiIfM4htxWOREUlTqh\r\nwcw5VnaGOWCBXjn90lA5cKzvOWPrqzkL/o45sEFOOTkyMDpUc5s51oo9ORByjjlGCco52p/tORKy\r\n8Tnit2E51lY0Ofo+ATq6o3Y5Z021OYTVGDlRAq45zuyhOeA4ZDk52eE5nw91ORI2OzlB2R85fgab\r\nOY8bMjkQ1TA5cCaFOXju/Dh2ghM59YD8OFHmfzmnKiQ58YpfOXsbtzlCtX45yEWKOLGkLDkayH45\r\nRUrSOSltyTgvk1U5NT2NOY45EjnfihY5JFlqOTokTjlSlV45Ir54OQ1W5jifjjI5bWS5OfA8NDkO\r\nXs44QhjgOLbnOjkr+iw5hK5/Ocz3Azl6HF45q6DlOIJb2DiR79I4esU3OWtGjDg4gBM5cVloOdzR\r\nDTlkchs5GGg7OVSTtziXOeg4XazEOCiMADmz6Tw5ueqOOVcmeTmS4Ms4nI0UOUTLnjhAXjc56pkE\r\nOdXdBznEOY85PIy4OMxI5zgkSxk5r6oQObvARTnCtUo4LoVEONjrVjnfUsw4msCWOCWAQjlc/y45\r\nJ4KtOCzJrjjGJZ84BKXjOIHj2jhi+yE5rqqOOdCIIzm9fIM56Oo3OUSjtzmiT/M4Wiv3OJw6ETmO\r\nS8w53FJpOdbu1DiJSZs4DaoFOWqKWDkkyvU4GPIdOchJLDmxKwA54MMWOVgzmjgl75M44OcEOVPH\r\n3Dhmzdw4X9sOOb2CyTguC7Y4VgEmOTaQxDjBUAQ5dAM9OarFHjmfj444qMgAOWZMDDmSlas4yUZQ\r\nOaDeMTmPogU5Wxe1OF0m3Dh6aDQ5tbkIObjoEzlqqg45EPLvOKyF+zhUmiE57MvFOPg/vDiW+Vo5\r\nmhyzOGFsBTldBEw4dL3pOOk/QDnXnJQ467sNONFyxDfGPDM3rTsZN+BixjZrWTk338GlNhf/FTe5\r\nNTk2RTSUNkMj3Taj0d02is2UNt0UDDYUXvI1aeXFNhijMjbAtYc2ikWgNuphZDY8D1I28gSnNv4k\r\nLTZRYDk2mtYGN70P5DaWBKc2RzXfNlQFKTeHIYk2IpjaNofVszbqlaM2PatTNiKTzDYjx6M2BMHZ\r\nNiXEdDbJOMs2FNCMNsnGRja2BpI2UsiGNvm1vzbR74Q2wLCoNnn3jDa4fK82VqGlNrSAsTYwh5o2\r\n00guNguj5DYiuZI2yg0BN6PItzbTY6w2VXFINoLcTDbWIk82WJ/cNvx6HDZGdqc2ta/1NVwQMDaG\r\n9VE24mqONlq9rDaNiSE2Lay+NpqbcTYGZ3Q2KPqfNicegDbQyZw27RAtNyQhVjazoMU2izz9Npf0\r\njzbhrAg2zKY4Njo2yjZ1hZE2WNZsNrbfvDZiyp42KRFjNr96jjbjaI02RTYRNmwjhzapnyI2B4XY\r\nNltT7jUOLSY20oDqNhJrxDaCZWw2Ct+VNg/LgjZZzMA2Ik1JNrzQuDZxy901azNqNvW2eDaUuVs2\r\ngu+KNta85ja8P/M1FmShNp/ipjb1OIE21Q/2Nr5JmzYXtZU2x6+qNk6LmTZnjYw2mIJGNul2Jjbc\r\nO3A2lquYNuovLTYtgfE1nUlUNgQzNzaIsDM2DIvUNjKBRja+0oY2ExJ5NgPdJzZaSLQ2EtYgN0Wc\r\nDDbIHow2IiiZNgZUVTa1JnM2v3wcNoN3YDYCtgE38JaENkzoaDb0JTc26/WJNoqw9jYFxFI29vNP\r\nNmdCvDZHFIU2xxObNr0sUTblHoc2JrM/NmrbFDYX93o2m4OpNgs6HDaFNl02Rb2TNpjkJjYAADk2\r\n/8chNn7/QTawezM30gsqNidJ8zWKfC02kBYuNmSnnTa80FY2mFN3NkYZWzY4aO41UHmKNkyZiDYh\r\nGC42h1Y6Np6cgzYSij81AnuaNnc6rzZUXG82vp9eNp4h/jWNsEY2k603NuKSjDbHWSo2RxYINlNS\r\nmTaAOlU2yvJmNkqftzZ5VEk26hV8NjWLezbKM9Y1ernFNWi/XDZaEHQ2dhvANhDaRjYMwy82EwC4\r\nNlCNVTbH4IU2Cx1LNk6XlDbcVNA2FB33NQHMjzY6eW02jpZONqrdMTa+lxk267lUNkhoNDZz+TQ3\r\nwulaNoXxEjYQdsQ2lXEcNsiYOjbfz9o2UzpENvQL0TSOQIM10f8gNcLzLzX5w2c1H4efNN2VyTQO\r\nn70011tKNT7aKTUG8/w0QEgiNUCRKjWhXKI03LYLNQzSrjUnb9E0iB65NCpfLzVs4tk0emppNQtw\r\n8zTy2+U0USoLNeRnDTU88Uc19BfdNFPdNDVtA7Q09QQJNdJhKTXqRNg0am3RNG251DQ1KrA0Oj/Y\r\nNOrxkjTQ8cI0+3eXNEYitDR9exs1YvMdNUBR5DR0pQE1EGj5NAq8KTXmxKs0ErgPNTXAAjVM71g1\r\n2McYNch2PjVA3vs0HZGgNJEIOTWY3M40B5RGNGfgUDUIWUw1AAKQNPuJvjRnt4w0M0qUNPpcxjR3\r\nCM0000dJNZjtnTSx6rQ09gISNSzUKjVHscM0TBtXNYWZEDWjpck07HS+NMuEnzTVZ0U1duMGNWCg\r\n6jTs3880YBEXNT+XujRa3bk0wUISNadMADU5AQ411F8ONePs/jS0pjA105FENQ/HnjQmcwg1WPKH\r\nNFq2nTSuOLI0S9MpNbyI/zTAPso0+sXPNPLB3DTur8o0PLbHNPmbnzT+MvY0YjqvNCUXJTXMJp80\r\nndUPNWmVEjXazkY1O5DgNMl4gzVmyAY1rYEfNXmSQTWIrhU1ikoVNSCqpDTaEbY0/AvpNLIwhDSh\r\nIww1MCwENb5Y/zSUBhw1UowYNbXtpzTvlg4155xcNZhCrDRWs9U0k616NIzznjRmnAQ1Khq/NEm9\r\nCTUki940fgEVNZA1JzWkzqg0RtjuNI+WjTW0QRg1omMcNXzDIDUDHKI0NVu3NMMpRDVCjIo0ViIs\r\nNfxAITWCVB81HXTcNB0NXDWG+bE03vcdNf6QMzXAn8s0Eg/NNATJsTQE9U01LMELNX7DoDSIEB41\r\nwLEGNUVbzTQ8Pwo1QFCINBFgFTVn0vo0JOCjNNaR8zQ1vx41DXUDNak+EjUNQYo08gC7NFzPoTSI\r\n7RU1kpUbNYXvKzWOx240VWf0NGRuBzU6PIo0wlCGNT7g9jSWZjw1Ml4BNRvl6jTQR3w1lmHdNGfd\r\nITTobvU0ypuvNEpF+jTjNY40JYO7NCfBbzQijsA0us84Na6J8TQIYwU1V3IrNSwmYTXQ1kU0zKTc\r\nNDTVfzTj6to0SbOuNHwCvTQ/eR01mcuPNPTduTRDjf806a+nNAj20DREKOo0nPlPNQTe+zQNWSo1\r\nlpGmNBv9xzT/tzk1CtkQNapg2jSMQlI1MDUTNRhOMjWh56Q0AygANa8srzRbOwQ187XxNOQlwDSQ\r\nNO80mTAVNaBD6TQbeoo0UM6FNHPMCjV4t7k0gIxkNE02BjXYBQo1AhAcNWJMijS64uA0zd0JNXWm\r\nEDWiijY1ZpSXNNpWpzTYT+k0QHbzNDaorzSGDHs0qT7ONBvuhzSyYys1dPYCNQdToDTk8uU0MwYH\r\nNWYw+TRbj4g1aJxzNHlxCDVIE8c0Nl2SNOyilTRoqUs1KtMvNbhJPjVmcCE12eGANQ1X8jSNKZo0\r\ndGHdNGrcDjXxZ0A0JhPPNJb14jSwx8o0morUNDmP2DTubH40SSbdNE1r7TRT3rk0EZGLNP35LjV1\r\n1640P7XhNLEsczQldYc02X7eNAZ67jSawbI0drgeNb6GtzSMN9U00j4cNQhrBzWSqgw14dAnNYUF\r\nnDTQSpg0P9OMNOHDLTULMsI0QH6VNI2nxDSl5Yc0WHyLNCaeLDXnc6Y0AaCFNBQP7TTJzR41kvoE\r\nNRykHjU6wZw0+cjVNJdR1TSiQQU10AuONaiUkzUExgY1MMYONaRkZTT9EAU11Bu0NC2j3jTIM4A0\r\nal8cNSoRTzXbrSk1FTDYNEBqkjTgDwA1sun9NP5ztDRWob80HSSSNGYkGDWnkuM0RaMANeGLITXo\r\nTow0GNvbNJlRuzSgsOY0CpP5NMVL9jRRErs0aS1TNVNWgDSmPp80Gvy3NBnwGDXWr7M0dB/VNIw8\r\n0DQBkZ410iF5NDXYLTVZSxU1T0S6NHIrqTRzbRA1XDWKNA2phjRVwpo0SPJ1NGzsODX8K6Y0ne6l\r\nNNU3JjWsl7M0wb+kNKhE5TQUaN8041HRNPhNtTRpfuQ09awXNcwLtDS6nqA0qbk4Nbg8qTQ3pSA0\r\nkRS8NLXO0DRqdcQ0b//eNLPvrDQGQu00fPstNS/HMTWPJMc0fIrENBIciDSLv/k00iuaNNjgPDWm\r\not00DFkCNfHQhDTO4qY0xTYDNbDSOTWNTjA1dLcPNZB1uzQDUrY08mkFNZaNRjXzzK00ErsDNVeQ\r\n3zS5HxA1pmTINLQDBTWIxP008Ny+NADrGDWeipI0eMHvM5R6CTWA3x01wRO2NE0PBDXZKrU0GFyV\r\nNOCJrzSgxtE0tQR+NKJP0zTmcMA0zgvvNFJN7TT5eA41x/eHNAie2jTBXoU1JbdYNQAAEDUAZAE8\r\nF6YTPaE6DT5EKNM9dQ3rPVEOUD0ioW480q89PCfdUDzbEfI8OKDUPGwsmDxHYgE9amiBPGR1zjsP\r\nPhU7a3x7OyhGRzygj6g8mBGWPCuBIDwy9E47Dr4TO1iRvDsOzBo7Kk6nOyjG8juQWao70ZvWOxbH\r\n8zuU8n07aPEbPGxKlzygoVs8TMfIO9+xhDsybFY7q+rTO/L8YTx2ZJg8LVf1O0mYPjuCWmQ7fLXf\r\nOt2APzt7zMI7O4D+Ox50Tzw8t+w7lE+pOzStezsIHeo7gHbGO/xxGTz7XIA7vAj1O108gzyol3g7\r\ntww5PFZa6zv7yxw8BjMgPKnvLj13cpY8hhS0PDysuTskGOc6fsrQOrACgDqdYpQ6nrawO0mtIzpq\r\niZQ6oWVXO4pL/Dsyi9U7isI/O5AADzuqPMM6Xcz3OuCjVjsJJAU70nAkO3xeCzuPI4E7G4YiO1p8\r\n7jrINmQ6RKiWOkNYjzquKxk7L5jEOkefiTpiBN05wkIqOcZGDTp6g046RrOpOQ6EwjmtPgQ6e2Gc\r\nOSSjpDlo8ZU55XS9ObmuBzlz4785N8m2OWCrjzo4vB06uHOTOSQohDrAdAk6ttpzOqV9QjpzGTY6\r\n3XEaOsgBjjqKt8k6HvZMOicoGjocq2w6ap4WOhHEADrfCzk63skBOgeJHDrUTnI5YkuiObHDpjmu\r\nSKM5/cCSOf1k+zmMGlI6inluOu+YIDu89m07RVI0O6+Kgzr+5446GKYWOsGMzDkpPtU5IguVOWYu\r\n0Thu2rs5wj2KOYr0Szln8mE5OIzqOdZKbDmJnpY5zvoYORbfcjmJJb45rPudOReeBTpaM7A5gOEv\r\nOfU4rjmBKBo6bN3fOQHYIDpCxO45IMMKOhDuqjnu5385nKuKOcsUJTnO6QY6IssJOqWwlTkE/nk5\r\n982pOYJKFzlMEgc5kM8qOTzQSjkjjFw5oLMhOb3XTTlwQiA5qwrfOFyxBDkkj0w5MGaVOpPkyzkA\r\nWYw5x/dWOdTGaDnThQM6cUq4OS/ykTn8pTU5cg8tOjmUnzmJETc5yAicOQHqsTm7VQY6AgbzOcxp\r\nYTnUlDk5COb3OVNucjnJjtA5lvYsOVSTlDlbCZA5jieCOevY/jld/5M5ZAsQOQCjIjmaXZk5X2sk\r\nOaKvQDn3w2A5sFLsOCInSDnjTPU4Pw52ORiOFTnxB085aOe5Oeymfzkdh5Q4b9kUOTcjiDlltOQ5\r\nW97hOK93TDk6TJo5GxUROfmZKDmqWVg5gnArOZiUUTljp2g5VN4COa51OjmCG6857I8hOQJUyDiy\r\nFeY4PzlIOQnaEjkNa105LJgJOedSTTmft9w4RFvhOEMPBjkBNUc5IxKaOKB0AzlHK0Y5uzfsOA7s\r\nCTnIO1A5K33WOKFk2jjp16849C8QOWZpPTn28K85JD91Ocr4pTiAdCY50TmeOH4OPTl/1vM4rUTC\r\nOKr9azkWMbo4F7ngOLhyVDn8tgw5pjZnOXrXVTgwxCo4OQx/OXmv4TiOkZs4EjRhOc/BKzm9HJg4\r\nmNmEOBptqTgOwN44isnuOMjHEDkVGqA5ZsgfOcwJgTn/qS85F5G9OSUi8Th4/wU58kwEOcGM0znk\r\nW1o5KBbSOPxmrjgoieg4mOJqOacY5jhwBhY5iXUjOeCfAjn89RI53mOTOE5nnDgXwQo59x/YOLsN\r\nvzisAgg5ZZXBONJSyTg4ChA5g0OvOOLhCzk2PkQ5yZUgOf1/lTgIavM4G5cEObRwszj5plM54Ngg\r\nOTpfCjmgXsE4/c7tOPbIHjng2QM52pkWOVEIBjnWdfE44lgEOVkCJTm3Js04paCwOJruaDnED7c4\r\nlngHOd1wSThLgdw4+MM6OWkNiTjQTig4ZOnTNxI6RTeeDew2cZ29Nv7NAjclhNM2iMnzNsyKczZM\r\nTqE2NwIANyN0CjdyN5Q2WgazNq/6RTZdvu82CgJ2NnBTbzZ2Y8g2nCmlNornMTbyM/U2XdYuNnYx\r\nDDZETwI3eL+nNkEyGTdWc042Yb0WNzGqlDaNeNI2vHqNNkA4sDYmdYE2+cmANhHYVzaKnIs2sgCG\r\nNgmRtTZMoZo22v10NnRMhzYJ96I2OKTLNuYomzb9GYQ2aZ4gNg34YTYuHZo2W3zKNg54fjYZjkw2\r\nf2wUN3Od0TYrN5w2qv+fNtmNlTawHlI20q1xNtWcgzbalsQ2aqh0NqiRqzZJr+Y1tKkfNvwthjbs\r\njso2aMOjNjtLWzaqzNg2QuVVNvmDcTZsOcU2ODthNmCKmjZkwsw2JO2RNrvV7zZ/j5g2X3SCNuWv\r\njDatdLA22aTFNuHopjZGQ1k280BwNm9ZdzZuF3o2uV16NukrgjZ0cmI2oP0yNtheUDbrCZM2IZD3\r\nNcjiiDbmV9M2x6S6NnU/pzZADwg2huV1NusKwzZOBTQ2+FGNNgbaCjZtFJo2oEWzNnsKijZWeO02\r\nGtuJNu8IdjY49Yg2Mr2ANg3ZzjZiM+s2PSKeNoMphDa/F582hoJcNt0QxjZWOKM2KJ8XNqxVQjbY\r\ngaI2GZ6aNs0bpTU+g5g2tEowNtIkZDYOlas2ZR1xNtIkgzZRo4A2kxo0Nq+R7DZCmS43Jnh6NgQS\r\nbDb4RYg2lNw9NuvPkzYiw3I2yo89NhID7TYcIIw26OkjNrMkKzbG26s2fgyyNkykhTarGu41ZVyZ\r\nNs59hja4/3g2DVwlNg8S/DWud6U2N9IvNgCXSjbgmnM2uSBPNn7iXza+E8Q2IrczNgAgGTbUpLw1\r\nmKpzNoJSGzdiAoM2ZpDFNfrlFDY4tAI2RI+mNgX6UTb+VoU2addaNhrNCTZZFHA2uMncNXzMSzbJ\r\nKYk2chpoNlUqsTVQL942eABrNmzNjTZ3X0o2gnWBNn72gTZLTEE2lwQzNgfuCjaKZ0A2Cn+pNqDa\r\nNzbbTXE2Jn7UNu4UKDZVMoQ2j46fNsCxMzbOjB026lnINRYmezYubI02j29ONiv6jzYkvQU24bo/\r\nNlRyPzacL0c24hOWNpYhiDbn4/U1XMKXNjdHgzYwUO01kmwQNsrkGjZWzx02IdkDNtNSCTdR2VE2\r\nthtfNuRpyzaptiM2tEQ0Nkz1XDaF2zA2q9VKNcwlKDW1Wt007vuJNFq4yzRjGzI175BhNbYW/jTC\r\n50I1fp2dNJ2JFzXcfBY1j6wVNck7ADXKUgk1IqzANOh0JjVVrrw0Msw2NZKFGTUaPUI1fBNaNcVN\r\nSTUON7Q0P4fQNFKuFzUxPlU1sICqNGd1ajTm2QI1i7CcNE6RhzRis6A0+Hg7Nbaz2zTd5O41Lo6Q\r\nNCC46jRqY4k02LwPNQsD+zQS2kY1DgsZNQCcHDWKMa00NY4gNbBtFDXqiRc1oiMKNXSGhzRgRxs1\r\nsvCONXglnTQaJsk0VZcVNTwSAjVbovE0HAgiNYYOkDWs+Bk1NoTxNOmQHzWwgbI0cTRKNEIM5zRm\r\n0Eo1Lt3NNDT7uTSlUH81fpTdNNbDuDR5QIA1bivBNDg8tDTqSAw1juzKNPjckTXYQus0QHrGNAe/\r\nzjT+Kxk1k1EENS6XETW7x+g0SgvDNLGCvzSIgvk0RU2fNNSwojQOc7k03IPMNCf6ETV8ef00kiUz\r\nNaCP5DSyjgI1NzurNDzYBDVnrxg1wWfANHpDdjTTMLM0SyeuNCZrpDTpSwg1kQXWNKnmtjTd4L00\r\nCjEvNe+3XjWZAko1Ym35NPTQoTRMXRI1/Kv1NNnw+TREn580ApgENQioMTUc6Qw1wGDtNMWVAjX6\r\nRmI1CN1MNL0nqzQdttc0yKQdNbOO9jSg9bU00Ta0NPpG8jRwfn81zM+VNG1DtzQjBjQ133YnNRiY\r\nzzSD58A0vVEGNeQz7TQc+8c0alDxNOYeqTRZjwM1A1X7NKFF9DRfJtM0Vc0BNUYGIjUIksE0MIwp\r\nNYA4xDQyT2E0+rrONBaUKjWcVbs0lgEXNQhoLjVqYfM0QkIHNXxZBjWjN9A04CoHNf4JgzRmC1I1\r\nHvk2NR48nDSMgG00Zf32NNotNDWhucs0OhP6NCbLvjSa08g0UXkUNWHkGjU2b7M0Jjf1NNWAHTX2\r\nAKk0D22rNDpwCjVAdSE1wIe3NKki1DQ7h1c0c56RNM+EHDWeNvs0MQ70NEBr+DSzItM00gbWNHQw\r\nKDULfMQ0x//kNPxv2TTQtDM1WH4UNV82NTXQGQs1zfzkNE4e5zQRzgg1/pbnNGCS0TTOFd40v6/x\r\nNAS1tjRCvqU0IwneNHHchzWWIeA0UM+4NK8f9TRyIZM0h7UINdtvGDWwIMU0f+g7NQZH3jSvXyg1\r\nQFDUNEfN1zTFaJE0vTVhNZhtEzVsOCo1lI2DNKvBcDU7hyA1G3lgNdKy/jT5BOE0W5yZNMVKxTQt\r\nffo0UfUYNfYY1jRmNic1cjOcNHhM3TQltw01y+wGNdUXAzWjaYQ1EAGsNAMnHTXG2Ok0b2sZNdaU\r\nnTTqTu80BYtpNRavBjXpXoY0gY8TNRz6MzTZ+bU0CwEyNeatmjTYpAw1XQ0NNS4fMDUD3N80w5kB\r\nNbZ+wDSHwM80LsdINflVQTXijxU12ckXNexXHTV3aAk1Y0gINRwPEzWrSkk1gEhcNcKckzRnQdM0\r\nylE8NZTlGjWZRXo1mYPiNKOIGDX9VSk1SDywNE/uAjVE05U0/LpeNYJ8uDT+TwI1K57TNKdFFTVQ\r\nmmw1bxHxNNasyjTwQdg0uDi0NKQl/jRwNLM0eBffNHVFvDRC6IA0QxjQNA8uczQLG6o0fGK7NO7j\r\nmzQBYqc0PLzWNLgI9DTcW6Q0a0AZNYg9STUbsVQ1+5sfNVyxoTRchak0ZlS/NIZF8DQC/LA0KHW2\r\nNAKVBzVhPRg1IxGrNNrwCDVtxBU1lnAcNYeauTTwp/s0RXHANLDJwzTVLtw0yWgLNdyaGTVZOe00\r\nJFcoNZ6B7TQG/MU0+DEUNQFt/DRtlSo14IBuNQxXyzRAZsw0OmxvNepc4TQsbOo0BX5pNeLZFjVa\r\nUP00/NC+NDfFxzSk/Jk0Xv9WNFcJFTUkCfs0nPhONWb3szQLn8U07ItQNLGo0DSMwQE17Z/PNNec\r\n0zRaof0076bINOo8GzXNlYU0hEQkNTyH5jT2YwU1rPNDNQ/OwzRUsuM0rNi/NPhc8DQKmUg1hNDu\r\nNFsmCjUDuzw1VasyNef7cjVSnrA0plT5NKXLhzSFNZ00Ed+nNCFdUDUWMQI1JJnbNNcqvjQMb+40\r\nMCZxNWBYzTTT7DQ1EXZRNffmaTV+3a80W4eUNHE8DjXgGu40gRDrNBPuqjTmEDY1ol3ONJbeJTVU\r\n2RE1pL7HNICD5TRWWw816jZdNU5+4zSdEBA1+UiKNPe7OzXoSB81ciQHNY2hujSihSE1Zmy4NC66\r\njjSDV6M0zDuqNH8orDToE6s0mAmlNNh/LDUtZTA1POHGNHfLdzTbIis17ZIdNZocBDVvRKE0QmwB\r\nNYXQijQkWAs1oC2hNA2Z5TSh2c00fEGaNMT8ujTDZ5w0Y1z7NI2ELjWyxiA1AEAcNQ==",
                            "noiseTrainingType" : "default"
                          }
                        }
                    ],
                    "start" : 2224,
                    "duration" : 142,
                    "mediaStart" : 2783,
                    "mediaDuration" : 148,
                    "scalar" : "71/74",
                    "metadata" : {
                      "WinSubProjectDisplayName" : "",
                      "clipSpeedAttribute" : true
                    },
                    "animationTracks" : {

                    }
                  },
                  {
                    "id" : 366,
                    "_type" : "AMFile",
                    "src" : 15,
                    "trackNumber" : 0,
                    "attributes" : {
                      "ident" : "旁白_vis2021 1",
                      "sampleRate" : 44100,
                      "bitDepth" : 16,
                      "gain" : 1.0,
                      "mixToMono" : false
                    },
                      "channelNumber" : "0,1",
                    "effects" : [
                        {
                          "effectName" : "NoiseReduction",
                          "parameters" : {
                            "denoiserAmount" : 20.0,
                            "denoiserThreshold" : 0.0,
                            "noiseProfile" : "OWoAPH2pEz2x9Qw+d6HTPcva6j2sp089E2dtPD6vPDwfl1A8ScjwPJTr1Txy35g8LaEAPTpegDyh\r\n+807XKYVO6TEeztxHEg8k5enPOCDljxR1SA80RNNO5P/FTsAUsA78qcaO7cppTsc2vE7qgSrO6lQ\r\n2jukqvI7h92AO2yWGzx+tZU8JitaPFzIyTuXwYE7uY9XO8aQ0Dvqq2I88amYPMnb9DtB2j87KTBk\r\nOzy52zoRSDw7OCjBO9xi/DtxwE88KlbqO3j0qDtWJH47VJnsO9JoxDuANhs8tJ+AO6Qz9Tth+oI8\r\nbGt3O1T1Nzzjhew74A0cPJAvITwici89BseWPGFNtDxkw7o7MRvlOmld0jryf386QXGZOrHMrzuA\r\ngR46FrCVOsPpWDsY4v07HUbYO1nLPjsw9w47wr3FOrnZ+Drc3FY7lUkJO7DAJDv2mAY7Bol9O6Gv\r\nIjui8ek64NliOq5vmTrG/ZM6bCYbO5q5tzpF2YA69unhOXdvJDkMXx461iVVOpU6tTmIPdU5NZ4C\r\nOrLzrDlzv6053gyzOSasszlLTgc5O7atOcYrxzkKtYw6r9cjOpoinjlRRog6Q9QHOqLsbTo5k0E6\r\n9U47OqgHGzq2DIw6xrvIOkIITzrGgR86I/hwOsTOFzq0IQU6isQ5OkIP9DmC+Bw6hsx0OYy4pDnt\r\nMqk5f6afOfFKnDnqIvc5SsRQOpXvdDp8CiE703psOwEALztW+4A6r36ROtKuGDoo4s852RrZOQKM\r\nhDmkgtY4CBe5OXJ5jDnBcjY5RM9jObGZ+DmyHG05aluSOaagETnIyGM5Jt2dOdUxnTmBHwU6PPyu\r\nOQ2PETl6x7k5tcInOtV63TnmcCY6dHftOUWtBzoIt6w5qk+GOf1mbTk4DT454wsLOh2HAjoY+ZY5\r\nyr2VOQQurzmqnRg5LDMFOZLQUjkvV1Q5/g1+OSlxFzlITz85XmAkOdDG/DjiIfM4htxWOREUlTqh\r\nwcw5VnaGOWCBXjn90lA5cKzvOWPrqzkL/o45sEFOOTkyMDpUc5s51oo9ORByjjlGCco52p/tORKy\r\n8Tnit2E51lY0Ofo+ATq6o3Y5Z021OYTVGDlRAq45zuyhOeA4ZDk52eE5nw91ORI2OzlB2R85fgab\r\nOY8bMjkQ1TA5cCaFOXju/Dh2ghM59YD8OFHmfzmnKiQ58YpfOXsbtzlCtX45yEWKOLGkLDkayH45\r\nRUrSOSltyTgvk1U5NT2NOY45EjnfihY5JFlqOTokTjlSlV45Ir54OQ1W5jifjjI5bWS5OfA8NDkO\r\nXs44QhjgOLbnOjkr+iw5hK5/Ocz3Azl6HF45q6DlOIJb2DiR79I4esU3OWtGjDg4gBM5cVloOdzR\r\nDTlkchs5GGg7OVSTtziXOeg4XazEOCiMADmz6Tw5ueqOOVcmeTmS4Ms4nI0UOUTLnjhAXjc56pkE\r\nOdXdBznEOY85PIy4OMxI5zgkSxk5r6oQObvARTnCtUo4LoVEONjrVjnfUsw4msCWOCWAQjlc/y45\r\nJ4KtOCzJrjjGJZ84BKXjOIHj2jhi+yE5rqqOOdCIIzm9fIM56Oo3OUSjtzmiT/M4Wiv3OJw6ETmO\r\nS8w53FJpOdbu1DiJSZs4DaoFOWqKWDkkyvU4GPIdOchJLDmxKwA54MMWOVgzmjgl75M44OcEOVPH\r\n3Dhmzdw4X9sOOb2CyTguC7Y4VgEmOTaQxDjBUAQ5dAM9OarFHjmfj444qMgAOWZMDDmSlas4yUZQ\r\nOaDeMTmPogU5Wxe1OF0m3Dh6aDQ5tbkIObjoEzlqqg45EPLvOKyF+zhUmiE57MvFOPg/vDiW+Vo5\r\nmhyzOGFsBTldBEw4dL3pOOk/QDnXnJQ467sNONFyxDfGPDM3rTsZN+BixjZrWTk338GlNhf/FTe5\r\nNTk2RTSUNkMj3Taj0d02is2UNt0UDDYUXvI1aeXFNhijMjbAtYc2ikWgNuphZDY8D1I28gSnNv4k\r\nLTZRYDk2mtYGN70P5DaWBKc2RzXfNlQFKTeHIYk2IpjaNofVszbqlaM2PatTNiKTzDYjx6M2BMHZ\r\nNiXEdDbJOMs2FNCMNsnGRja2BpI2UsiGNvm1vzbR74Q2wLCoNnn3jDa4fK82VqGlNrSAsTYwh5o2\r\n00guNguj5DYiuZI2yg0BN6PItzbTY6w2VXFINoLcTDbWIk82WJ/cNvx6HDZGdqc2ta/1NVwQMDaG\r\n9VE24mqONlq9rDaNiSE2Lay+NpqbcTYGZ3Q2KPqfNicegDbQyZw27RAtNyQhVjazoMU2izz9Npf0\r\njzbhrAg2zKY4Njo2yjZ1hZE2WNZsNrbfvDZiyp42KRFjNr96jjbjaI02RTYRNmwjhzapnyI2B4XY\r\nNltT7jUOLSY20oDqNhJrxDaCZWw2Ct+VNg/LgjZZzMA2Ik1JNrzQuDZxy901azNqNvW2eDaUuVs2\r\ngu+KNta85ja8P/M1FmShNp/ipjb1OIE21Q/2Nr5JmzYXtZU2x6+qNk6LmTZnjYw2mIJGNul2Jjbc\r\nO3A2lquYNuovLTYtgfE1nUlUNgQzNzaIsDM2DIvUNjKBRja+0oY2ExJ5NgPdJzZaSLQ2EtYgN0Wc\r\nDDbIHow2IiiZNgZUVTa1JnM2v3wcNoN3YDYCtgE38JaENkzoaDb0JTc26/WJNoqw9jYFxFI29vNP\r\nNmdCvDZHFIU2xxObNr0sUTblHoc2JrM/NmrbFDYX93o2m4OpNgs6HDaFNl02Rb2TNpjkJjYAADk2\r\n/8chNn7/QTawezM30gsqNidJ8zWKfC02kBYuNmSnnTa80FY2mFN3NkYZWzY4aO41UHmKNkyZiDYh\r\nGC42h1Y6Np6cgzYSij81AnuaNnc6rzZUXG82vp9eNp4h/jWNsEY2k603NuKSjDbHWSo2RxYINlNS\r\nmTaAOlU2yvJmNkqftzZ5VEk26hV8NjWLezbKM9Y1ernFNWi/XDZaEHQ2dhvANhDaRjYMwy82EwC4\r\nNlCNVTbH4IU2Cx1LNk6XlDbcVNA2FB33NQHMjzY6eW02jpZONqrdMTa+lxk267lUNkhoNDZz+TQ3\r\nwulaNoXxEjYQdsQ2lXEcNsiYOjbfz9o2UzpENvQL0TSOQIM10f8gNcLzLzX5w2c1H4efNN2VyTQO\r\nn70011tKNT7aKTUG8/w0QEgiNUCRKjWhXKI03LYLNQzSrjUnb9E0iB65NCpfLzVs4tk0emppNQtw\r\n8zTy2+U0USoLNeRnDTU88Uc19BfdNFPdNDVtA7Q09QQJNdJhKTXqRNg0am3RNG251DQ1KrA0Oj/Y\r\nNOrxkjTQ8cI0+3eXNEYitDR9exs1YvMdNUBR5DR0pQE1EGj5NAq8KTXmxKs0ErgPNTXAAjVM71g1\r\n2McYNch2PjVA3vs0HZGgNJEIOTWY3M40B5RGNGfgUDUIWUw1AAKQNPuJvjRnt4w0M0qUNPpcxjR3\r\nCM0000dJNZjtnTSx6rQ09gISNSzUKjVHscM0TBtXNYWZEDWjpck07HS+NMuEnzTVZ0U1duMGNWCg\r\n6jTs3880YBEXNT+XujRa3bk0wUISNadMADU5AQ411F8ONePs/jS0pjA105FENQ/HnjQmcwg1WPKH\r\nNFq2nTSuOLI0S9MpNbyI/zTAPso0+sXPNPLB3DTur8o0PLbHNPmbnzT+MvY0YjqvNCUXJTXMJp80\r\nndUPNWmVEjXazkY1O5DgNMl4gzVmyAY1rYEfNXmSQTWIrhU1ikoVNSCqpDTaEbY0/AvpNLIwhDSh\r\nIww1MCwENb5Y/zSUBhw1UowYNbXtpzTvlg4155xcNZhCrDRWs9U0k616NIzznjRmnAQ1Khq/NEm9\r\nCTUki940fgEVNZA1JzWkzqg0RtjuNI+WjTW0QRg1omMcNXzDIDUDHKI0NVu3NMMpRDVCjIo0ViIs\r\nNfxAITWCVB81HXTcNB0NXDWG+bE03vcdNf6QMzXAn8s0Eg/NNATJsTQE9U01LMELNX7DoDSIEB41\r\nwLEGNUVbzTQ8Pwo1QFCINBFgFTVn0vo0JOCjNNaR8zQ1vx41DXUDNak+EjUNQYo08gC7NFzPoTSI\r\n7RU1kpUbNYXvKzWOx240VWf0NGRuBzU6PIo0wlCGNT7g9jSWZjw1Ml4BNRvl6jTQR3w1lmHdNGfd\r\nITTobvU0ypuvNEpF+jTjNY40JYO7NCfBbzQijsA0us84Na6J8TQIYwU1V3IrNSwmYTXQ1kU0zKTc\r\nNDTVfzTj6to0SbOuNHwCvTQ/eR01mcuPNPTduTRDjf806a+nNAj20DREKOo0nPlPNQTe+zQNWSo1\r\nlpGmNBv9xzT/tzk1CtkQNapg2jSMQlI1MDUTNRhOMjWh56Q0AygANa8srzRbOwQ187XxNOQlwDSQ\r\nNO80mTAVNaBD6TQbeoo0UM6FNHPMCjV4t7k0gIxkNE02BjXYBQo1AhAcNWJMijS64uA0zd0JNXWm\r\nEDWiijY1ZpSXNNpWpzTYT+k0QHbzNDaorzSGDHs0qT7ONBvuhzSyYys1dPYCNQdToDTk8uU0MwYH\r\nNWYw+TRbj4g1aJxzNHlxCDVIE8c0Nl2SNOyilTRoqUs1KtMvNbhJPjVmcCE12eGANQ1X8jSNKZo0\r\ndGHdNGrcDjXxZ0A0JhPPNJb14jSwx8o0morUNDmP2DTubH40SSbdNE1r7TRT3rk0EZGLNP35LjV1\r\n1640P7XhNLEsczQldYc02X7eNAZ67jSawbI0drgeNb6GtzSMN9U00j4cNQhrBzWSqgw14dAnNYUF\r\nnDTQSpg0P9OMNOHDLTULMsI0QH6VNI2nxDSl5Yc0WHyLNCaeLDXnc6Y0AaCFNBQP7TTJzR41kvoE\r\nNRykHjU6wZw0+cjVNJdR1TSiQQU10AuONaiUkzUExgY1MMYONaRkZTT9EAU11Bu0NC2j3jTIM4A0\r\nal8cNSoRTzXbrSk1FTDYNEBqkjTgDwA1sun9NP5ztDRWob80HSSSNGYkGDWnkuM0RaMANeGLITXo\r\nTow0GNvbNJlRuzSgsOY0CpP5NMVL9jRRErs0aS1TNVNWgDSmPp80Gvy3NBnwGDXWr7M0dB/VNIw8\r\n0DQBkZ410iF5NDXYLTVZSxU1T0S6NHIrqTRzbRA1XDWKNA2phjRVwpo0SPJ1NGzsODX8K6Y0ne6l\r\nNNU3JjWsl7M0wb+kNKhE5TQUaN8041HRNPhNtTRpfuQ09awXNcwLtDS6nqA0qbk4Nbg8qTQ3pSA0\r\nkRS8NLXO0DRqdcQ0b//eNLPvrDQGQu00fPstNS/HMTWPJMc0fIrENBIciDSLv/k00iuaNNjgPDWm\r\not00DFkCNfHQhDTO4qY0xTYDNbDSOTWNTjA1dLcPNZB1uzQDUrY08mkFNZaNRjXzzK00ErsDNVeQ\r\n3zS5HxA1pmTINLQDBTWIxP008Ny+NADrGDWeipI0eMHvM5R6CTWA3x01wRO2NE0PBDXZKrU0GFyV\r\nNOCJrzSgxtE0tQR+NKJP0zTmcMA0zgvvNFJN7TT5eA41x/eHNAie2jTBXoU1JbdYNQAAEDUAZAE8\r\nF6YTPaE6DT5EKNM9dQ3rPVEOUD0ioW480q89PCfdUDzbEfI8OKDUPGwsmDxHYgE9amiBPGR1zjsP\r\nPhU7a3x7OyhGRzygj6g8mBGWPCuBIDwy9E47Dr4TO1iRvDsOzBo7Kk6nOyjG8juQWao70ZvWOxbH\r\n8zuU8n07aPEbPGxKlzygoVs8TMfIO9+xhDsybFY7q+rTO/L8YTx2ZJg8LVf1O0mYPjuCWmQ7fLXf\r\nOt2APzt7zMI7O4D+Ox50Tzw8t+w7lE+pOzStezsIHeo7gHbGO/xxGTz7XIA7vAj1O108gzyol3g7\r\ntww5PFZa6zv7yxw8BjMgPKnvLj13cpY8hhS0PDysuTskGOc6fsrQOrACgDqdYpQ6nrawO0mtIzpq\r\niZQ6oWVXO4pL/Dsyi9U7isI/O5AADzuqPMM6Xcz3OuCjVjsJJAU70nAkO3xeCzuPI4E7G4YiO1p8\r\n7jrINmQ6RKiWOkNYjzquKxk7L5jEOkefiTpiBN05wkIqOcZGDTp6g046RrOpOQ6EwjmtPgQ6e2Gc\r\nOSSjpDlo8ZU55XS9ObmuBzlz4785N8m2OWCrjzo4vB06uHOTOSQohDrAdAk6ttpzOqV9QjpzGTY6\r\n3XEaOsgBjjqKt8k6HvZMOicoGjocq2w6ap4WOhHEADrfCzk63skBOgeJHDrUTnI5YkuiObHDpjmu\r\nSKM5/cCSOf1k+zmMGlI6inluOu+YIDu89m07RVI0O6+Kgzr+5446GKYWOsGMzDkpPtU5IguVOWYu\r\n0Thu2rs5wj2KOYr0Szln8mE5OIzqOdZKbDmJnpY5zvoYORbfcjmJJb45rPudOReeBTpaM7A5gOEv\r\nOfU4rjmBKBo6bN3fOQHYIDpCxO45IMMKOhDuqjnu5385nKuKOcsUJTnO6QY6IssJOqWwlTkE/nk5\r\n982pOYJKFzlMEgc5kM8qOTzQSjkjjFw5oLMhOb3XTTlwQiA5qwrfOFyxBDkkj0w5MGaVOpPkyzkA\r\nWYw5x/dWOdTGaDnThQM6cUq4OS/ykTn8pTU5cg8tOjmUnzmJETc5yAicOQHqsTm7VQY6AgbzOcxp\r\nYTnUlDk5COb3OVNucjnJjtA5lvYsOVSTlDlbCZA5jieCOevY/jld/5M5ZAsQOQCjIjmaXZk5X2sk\r\nOaKvQDn3w2A5sFLsOCInSDnjTPU4Pw52ORiOFTnxB085aOe5Oeymfzkdh5Q4b9kUOTcjiDlltOQ5\r\nW97hOK93TDk6TJo5GxUROfmZKDmqWVg5gnArOZiUUTljp2g5VN4COa51OjmCG6857I8hOQJUyDiy\r\nFeY4PzlIOQnaEjkNa105LJgJOedSTTmft9w4RFvhOEMPBjkBNUc5IxKaOKB0AzlHK0Y5uzfsOA7s\r\nCTnIO1A5K33WOKFk2jjp16849C8QOWZpPTn28K85JD91Ocr4pTiAdCY50TmeOH4OPTl/1vM4rUTC\r\nOKr9azkWMbo4F7ngOLhyVDn8tgw5pjZnOXrXVTgwxCo4OQx/OXmv4TiOkZs4EjRhOc/BKzm9HJg4\r\nmNmEOBptqTgOwN44isnuOMjHEDkVGqA5ZsgfOcwJgTn/qS85F5G9OSUi8Th4/wU58kwEOcGM0znk\r\nW1o5KBbSOPxmrjgoieg4mOJqOacY5jhwBhY5iXUjOeCfAjn89RI53mOTOE5nnDgXwQo59x/YOLsN\r\nvzisAgg5ZZXBONJSyTg4ChA5g0OvOOLhCzk2PkQ5yZUgOf1/lTgIavM4G5cEObRwszj5plM54Ngg\r\nOTpfCjmgXsE4/c7tOPbIHjng2QM52pkWOVEIBjnWdfE44lgEOVkCJTm3Js04paCwOJruaDnED7c4\r\nlngHOd1wSThLgdw4+MM6OWkNiTjQTig4ZOnTNxI6RTeeDew2cZ29Nv7NAjclhNM2iMnzNsyKczZM\r\nTqE2NwIANyN0CjdyN5Q2WgazNq/6RTZdvu82CgJ2NnBTbzZ2Y8g2nCmlNornMTbyM/U2XdYuNnYx\r\nDDZETwI3eL+nNkEyGTdWc042Yb0WNzGqlDaNeNI2vHqNNkA4sDYmdYE2+cmANhHYVzaKnIs2sgCG\r\nNgmRtTZMoZo22v10NnRMhzYJ96I2OKTLNuYomzb9GYQ2aZ4gNg34YTYuHZo2W3zKNg54fjYZjkw2\r\nf2wUN3Od0TYrN5w2qv+fNtmNlTawHlI20q1xNtWcgzbalsQ2aqh0NqiRqzZJr+Y1tKkfNvwthjbs\r\njso2aMOjNjtLWzaqzNg2QuVVNvmDcTZsOcU2ODthNmCKmjZkwsw2JO2RNrvV7zZ/j5g2X3SCNuWv\r\njDatdLA22aTFNuHopjZGQ1k280BwNm9ZdzZuF3o2uV16NukrgjZ0cmI2oP0yNtheUDbrCZM2IZD3\r\nNcjiiDbmV9M2x6S6NnU/pzZADwg2huV1NusKwzZOBTQ2+FGNNgbaCjZtFJo2oEWzNnsKijZWeO02\r\nGtuJNu8IdjY49Yg2Mr2ANg3ZzjZiM+s2PSKeNoMphDa/F582hoJcNt0QxjZWOKM2KJ8XNqxVQjbY\r\ngaI2GZ6aNs0bpTU+g5g2tEowNtIkZDYOlas2ZR1xNtIkgzZRo4A2kxo0Nq+R7DZCmS43Jnh6NgQS\r\nbDb4RYg2lNw9NuvPkzYiw3I2yo89NhID7TYcIIw26OkjNrMkKzbG26s2fgyyNkykhTarGu41ZVyZ\r\nNs59hja4/3g2DVwlNg8S/DWud6U2N9IvNgCXSjbgmnM2uSBPNn7iXza+E8Q2IrczNgAgGTbUpLw1\r\nmKpzNoJSGzdiAoM2ZpDFNfrlFDY4tAI2RI+mNgX6UTb+VoU2addaNhrNCTZZFHA2uMncNXzMSzbJ\r\nKYk2chpoNlUqsTVQL942eABrNmzNjTZ3X0o2gnWBNn72gTZLTEE2lwQzNgfuCjaKZ0A2Cn+pNqDa\r\nNzbbTXE2Jn7UNu4UKDZVMoQ2j46fNsCxMzbOjB026lnINRYmezYubI02j29ONiv6jzYkvQU24bo/\r\nNlRyPzacL0c24hOWNpYhiDbn4/U1XMKXNjdHgzYwUO01kmwQNsrkGjZWzx02IdkDNtNSCTdR2VE2\r\nthtfNuRpyzaptiM2tEQ0Nkz1XDaF2zA2q9VKNcwlKDW1Wt007vuJNFq4yzRjGzI175BhNbYW/jTC\r\n50I1fp2dNJ2JFzXcfBY1j6wVNck7ADXKUgk1IqzANOh0JjVVrrw0Msw2NZKFGTUaPUI1fBNaNcVN\r\nSTUON7Q0P4fQNFKuFzUxPlU1sICqNGd1ajTm2QI1i7CcNE6RhzRis6A0+Hg7Nbaz2zTd5O41Lo6Q\r\nNCC46jRqY4k02LwPNQsD+zQS2kY1DgsZNQCcHDWKMa00NY4gNbBtFDXqiRc1oiMKNXSGhzRgRxs1\r\nsvCONXglnTQaJsk0VZcVNTwSAjVbovE0HAgiNYYOkDWs+Bk1NoTxNOmQHzWwgbI0cTRKNEIM5zRm\r\n0Eo1Lt3NNDT7uTSlUH81fpTdNNbDuDR5QIA1bivBNDg8tDTqSAw1juzKNPjckTXYQus0QHrGNAe/\r\nzjT+Kxk1k1EENS6XETW7x+g0SgvDNLGCvzSIgvk0RU2fNNSwojQOc7k03IPMNCf6ETV8ef00kiUz\r\nNaCP5DSyjgI1NzurNDzYBDVnrxg1wWfANHpDdjTTMLM0SyeuNCZrpDTpSwg1kQXWNKnmtjTd4L00\r\nCjEvNe+3XjWZAko1Ym35NPTQoTRMXRI1/Kv1NNnw+TREn580ApgENQioMTUc6Qw1wGDtNMWVAjX6\r\nRmI1CN1MNL0nqzQdttc0yKQdNbOO9jSg9bU00Ta0NPpG8jRwfn81zM+VNG1DtzQjBjQ133YnNRiY\r\nzzSD58A0vVEGNeQz7TQc+8c0alDxNOYeqTRZjwM1A1X7NKFF9DRfJtM0Vc0BNUYGIjUIksE0MIwp\r\nNYA4xDQyT2E0+rrONBaUKjWcVbs0lgEXNQhoLjVqYfM0QkIHNXxZBjWjN9A04CoHNf4JgzRmC1I1\r\nHvk2NR48nDSMgG00Zf32NNotNDWhucs0OhP6NCbLvjSa08g0UXkUNWHkGjU2b7M0Jjf1NNWAHTX2\r\nAKk0D22rNDpwCjVAdSE1wIe3NKki1DQ7h1c0c56RNM+EHDWeNvs0MQ70NEBr+DSzItM00gbWNHQw\r\nKDULfMQ0x//kNPxv2TTQtDM1WH4UNV82NTXQGQs1zfzkNE4e5zQRzgg1/pbnNGCS0TTOFd40v6/x\r\nNAS1tjRCvqU0IwneNHHchzWWIeA0UM+4NK8f9TRyIZM0h7UINdtvGDWwIMU0f+g7NQZH3jSvXyg1\r\nQFDUNEfN1zTFaJE0vTVhNZhtEzVsOCo1lI2DNKvBcDU7hyA1G3lgNdKy/jT5BOE0W5yZNMVKxTQt\r\nffo0UfUYNfYY1jRmNic1cjOcNHhM3TQltw01y+wGNdUXAzWjaYQ1EAGsNAMnHTXG2Ok0b2sZNdaU\r\nnTTqTu80BYtpNRavBjXpXoY0gY8TNRz6MzTZ+bU0CwEyNeatmjTYpAw1XQ0NNS4fMDUD3N80w5kB\r\nNbZ+wDSHwM80LsdINflVQTXijxU12ckXNexXHTV3aAk1Y0gINRwPEzWrSkk1gEhcNcKckzRnQdM0\r\nylE8NZTlGjWZRXo1mYPiNKOIGDX9VSk1SDywNE/uAjVE05U0/LpeNYJ8uDT+TwI1K57TNKdFFTVQ\r\nmmw1bxHxNNasyjTwQdg0uDi0NKQl/jRwNLM0eBffNHVFvDRC6IA0QxjQNA8uczQLG6o0fGK7NO7j\r\nmzQBYqc0PLzWNLgI9DTcW6Q0a0AZNYg9STUbsVQ1+5sfNVyxoTRchak0ZlS/NIZF8DQC/LA0KHW2\r\nNAKVBzVhPRg1IxGrNNrwCDVtxBU1lnAcNYeauTTwp/s0RXHANLDJwzTVLtw0yWgLNdyaGTVZOe00\r\nJFcoNZ6B7TQG/MU0+DEUNQFt/DRtlSo14IBuNQxXyzRAZsw0OmxvNepc4TQsbOo0BX5pNeLZFjVa\r\nUP00/NC+NDfFxzSk/Jk0Xv9WNFcJFTUkCfs0nPhONWb3szQLn8U07ItQNLGo0DSMwQE17Z/PNNec\r\n0zRaof0076bINOo8GzXNlYU0hEQkNTyH5jT2YwU1rPNDNQ/OwzRUsuM0rNi/NPhc8DQKmUg1hNDu\r\nNFsmCjUDuzw1VasyNef7cjVSnrA0plT5NKXLhzSFNZ00Ed+nNCFdUDUWMQI1JJnbNNcqvjQMb+40\r\nMCZxNWBYzTTT7DQ1EXZRNffmaTV+3a80W4eUNHE8DjXgGu40gRDrNBPuqjTmEDY1ol3ONJbeJTVU\r\n2RE1pL7HNICD5TRWWw816jZdNU5+4zSdEBA1+UiKNPe7OzXoSB81ciQHNY2hujSihSE1Zmy4NC66\r\njjSDV6M0zDuqNH8orDToE6s0mAmlNNh/LDUtZTA1POHGNHfLdzTbIis17ZIdNZocBDVvRKE0QmwB\r\nNYXQijQkWAs1oC2hNA2Z5TSh2c00fEGaNMT8ujTDZ5w0Y1z7NI2ELjWyxiA1AEAcNQ==",
                            "noiseTrainingType" : "default"
                          }
                        }
                    ],
                    "start" : 2366,
                    "duration" : 45,
                    "mediaStart" : 2941,
                    "mediaDuration" : 45,
                    "scalar" : 1,
                    "metadata" : {
                      "WinSubProjectDisplayName" : "",
                      "clipSpeedAttribute" : false
                    },
                    "animationTracks" : {

                    }
                  },
                  {
                    "id" : 367,
                    "_type" : "AMFile",
                    "src" : 15,
                    "trackNumber" : 0,
                    "attributes" : {
                      "ident" : "旁白_vis2021 1",
                      "sampleRate" : 44100,
                      "bitDepth" : 16,
                      "gain" : 1.0,
                      "mixToMono" : false
                    },
                      "channelNumber" : "0,1",
                    "effects" : [
                        {
                          "effectName" : "NoiseReduction",
                          "parameters" : {
                            "denoiserAmount" : 20.0,
                            "denoiserThreshold" : 0.0,
                            "noiseProfile" : "OWoAPH2pEz2x9Qw+d6HTPcva6j2sp089E2dtPD6vPDwfl1A8ScjwPJTr1Txy35g8LaEAPTpegDyh\r\n+807XKYVO6TEeztxHEg8k5enPOCDljxR1SA80RNNO5P/FTsAUsA78qcaO7cppTsc2vE7qgSrO6lQ\r\n2jukqvI7h92AO2yWGzx+tZU8JitaPFzIyTuXwYE7uY9XO8aQ0Dvqq2I88amYPMnb9DtB2j87KTBk\r\nOzy52zoRSDw7OCjBO9xi/DtxwE88KlbqO3j0qDtWJH47VJnsO9JoxDuANhs8tJ+AO6Qz9Tth+oI8\r\nbGt3O1T1Nzzjhew74A0cPJAvITwici89BseWPGFNtDxkw7o7MRvlOmld0jryf386QXGZOrHMrzuA\r\ngR46FrCVOsPpWDsY4v07HUbYO1nLPjsw9w47wr3FOrnZ+Drc3FY7lUkJO7DAJDv2mAY7Bol9O6Gv\r\nIjui8ek64NliOq5vmTrG/ZM6bCYbO5q5tzpF2YA69unhOXdvJDkMXx461iVVOpU6tTmIPdU5NZ4C\r\nOrLzrDlzv6053gyzOSasszlLTgc5O7atOcYrxzkKtYw6r9cjOpoinjlRRog6Q9QHOqLsbTo5k0E6\r\n9U47OqgHGzq2DIw6xrvIOkIITzrGgR86I/hwOsTOFzq0IQU6isQ5OkIP9DmC+Bw6hsx0OYy4pDnt\r\nMqk5f6afOfFKnDnqIvc5SsRQOpXvdDp8CiE703psOwEALztW+4A6r36ROtKuGDoo4s852RrZOQKM\r\nhDmkgtY4CBe5OXJ5jDnBcjY5RM9jObGZ+DmyHG05aluSOaagETnIyGM5Jt2dOdUxnTmBHwU6PPyu\r\nOQ2PETl6x7k5tcInOtV63TnmcCY6dHftOUWtBzoIt6w5qk+GOf1mbTk4DT454wsLOh2HAjoY+ZY5\r\nyr2VOQQurzmqnRg5LDMFOZLQUjkvV1Q5/g1+OSlxFzlITz85XmAkOdDG/DjiIfM4htxWOREUlTqh\r\nwcw5VnaGOWCBXjn90lA5cKzvOWPrqzkL/o45sEFOOTkyMDpUc5s51oo9ORByjjlGCco52p/tORKy\r\n8Tnit2E51lY0Ofo+ATq6o3Y5Z021OYTVGDlRAq45zuyhOeA4ZDk52eE5nw91ORI2OzlB2R85fgab\r\nOY8bMjkQ1TA5cCaFOXju/Dh2ghM59YD8OFHmfzmnKiQ58YpfOXsbtzlCtX45yEWKOLGkLDkayH45\r\nRUrSOSltyTgvk1U5NT2NOY45EjnfihY5JFlqOTokTjlSlV45Ir54OQ1W5jifjjI5bWS5OfA8NDkO\r\nXs44QhjgOLbnOjkr+iw5hK5/Ocz3Azl6HF45q6DlOIJb2DiR79I4esU3OWtGjDg4gBM5cVloOdzR\r\nDTlkchs5GGg7OVSTtziXOeg4XazEOCiMADmz6Tw5ueqOOVcmeTmS4Ms4nI0UOUTLnjhAXjc56pkE\r\nOdXdBznEOY85PIy4OMxI5zgkSxk5r6oQObvARTnCtUo4LoVEONjrVjnfUsw4msCWOCWAQjlc/y45\r\nJ4KtOCzJrjjGJZ84BKXjOIHj2jhi+yE5rqqOOdCIIzm9fIM56Oo3OUSjtzmiT/M4Wiv3OJw6ETmO\r\nS8w53FJpOdbu1DiJSZs4DaoFOWqKWDkkyvU4GPIdOchJLDmxKwA54MMWOVgzmjgl75M44OcEOVPH\r\n3Dhmzdw4X9sOOb2CyTguC7Y4VgEmOTaQxDjBUAQ5dAM9OarFHjmfj444qMgAOWZMDDmSlas4yUZQ\r\nOaDeMTmPogU5Wxe1OF0m3Dh6aDQ5tbkIObjoEzlqqg45EPLvOKyF+zhUmiE57MvFOPg/vDiW+Vo5\r\nmhyzOGFsBTldBEw4dL3pOOk/QDnXnJQ467sNONFyxDfGPDM3rTsZN+BixjZrWTk338GlNhf/FTe5\r\nNTk2RTSUNkMj3Taj0d02is2UNt0UDDYUXvI1aeXFNhijMjbAtYc2ikWgNuphZDY8D1I28gSnNv4k\r\nLTZRYDk2mtYGN70P5DaWBKc2RzXfNlQFKTeHIYk2IpjaNofVszbqlaM2PatTNiKTzDYjx6M2BMHZ\r\nNiXEdDbJOMs2FNCMNsnGRja2BpI2UsiGNvm1vzbR74Q2wLCoNnn3jDa4fK82VqGlNrSAsTYwh5o2\r\n00guNguj5DYiuZI2yg0BN6PItzbTY6w2VXFINoLcTDbWIk82WJ/cNvx6HDZGdqc2ta/1NVwQMDaG\r\n9VE24mqONlq9rDaNiSE2Lay+NpqbcTYGZ3Q2KPqfNicegDbQyZw27RAtNyQhVjazoMU2izz9Npf0\r\njzbhrAg2zKY4Njo2yjZ1hZE2WNZsNrbfvDZiyp42KRFjNr96jjbjaI02RTYRNmwjhzapnyI2B4XY\r\nNltT7jUOLSY20oDqNhJrxDaCZWw2Ct+VNg/LgjZZzMA2Ik1JNrzQuDZxy901azNqNvW2eDaUuVs2\r\ngu+KNta85ja8P/M1FmShNp/ipjb1OIE21Q/2Nr5JmzYXtZU2x6+qNk6LmTZnjYw2mIJGNul2Jjbc\r\nO3A2lquYNuovLTYtgfE1nUlUNgQzNzaIsDM2DIvUNjKBRja+0oY2ExJ5NgPdJzZaSLQ2EtYgN0Wc\r\nDDbIHow2IiiZNgZUVTa1JnM2v3wcNoN3YDYCtgE38JaENkzoaDb0JTc26/WJNoqw9jYFxFI29vNP\r\nNmdCvDZHFIU2xxObNr0sUTblHoc2JrM/NmrbFDYX93o2m4OpNgs6HDaFNl02Rb2TNpjkJjYAADk2\r\n/8chNn7/QTawezM30gsqNidJ8zWKfC02kBYuNmSnnTa80FY2mFN3NkYZWzY4aO41UHmKNkyZiDYh\r\nGC42h1Y6Np6cgzYSij81AnuaNnc6rzZUXG82vp9eNp4h/jWNsEY2k603NuKSjDbHWSo2RxYINlNS\r\nmTaAOlU2yvJmNkqftzZ5VEk26hV8NjWLezbKM9Y1ernFNWi/XDZaEHQ2dhvANhDaRjYMwy82EwC4\r\nNlCNVTbH4IU2Cx1LNk6XlDbcVNA2FB33NQHMjzY6eW02jpZONqrdMTa+lxk267lUNkhoNDZz+TQ3\r\nwulaNoXxEjYQdsQ2lXEcNsiYOjbfz9o2UzpENvQL0TSOQIM10f8gNcLzLzX5w2c1H4efNN2VyTQO\r\nn70011tKNT7aKTUG8/w0QEgiNUCRKjWhXKI03LYLNQzSrjUnb9E0iB65NCpfLzVs4tk0emppNQtw\r\n8zTy2+U0USoLNeRnDTU88Uc19BfdNFPdNDVtA7Q09QQJNdJhKTXqRNg0am3RNG251DQ1KrA0Oj/Y\r\nNOrxkjTQ8cI0+3eXNEYitDR9exs1YvMdNUBR5DR0pQE1EGj5NAq8KTXmxKs0ErgPNTXAAjVM71g1\r\n2McYNch2PjVA3vs0HZGgNJEIOTWY3M40B5RGNGfgUDUIWUw1AAKQNPuJvjRnt4w0M0qUNPpcxjR3\r\nCM0000dJNZjtnTSx6rQ09gISNSzUKjVHscM0TBtXNYWZEDWjpck07HS+NMuEnzTVZ0U1duMGNWCg\r\n6jTs3880YBEXNT+XujRa3bk0wUISNadMADU5AQ411F8ONePs/jS0pjA105FENQ/HnjQmcwg1WPKH\r\nNFq2nTSuOLI0S9MpNbyI/zTAPso0+sXPNPLB3DTur8o0PLbHNPmbnzT+MvY0YjqvNCUXJTXMJp80\r\nndUPNWmVEjXazkY1O5DgNMl4gzVmyAY1rYEfNXmSQTWIrhU1ikoVNSCqpDTaEbY0/AvpNLIwhDSh\r\nIww1MCwENb5Y/zSUBhw1UowYNbXtpzTvlg4155xcNZhCrDRWs9U0k616NIzznjRmnAQ1Khq/NEm9\r\nCTUki940fgEVNZA1JzWkzqg0RtjuNI+WjTW0QRg1omMcNXzDIDUDHKI0NVu3NMMpRDVCjIo0ViIs\r\nNfxAITWCVB81HXTcNB0NXDWG+bE03vcdNf6QMzXAn8s0Eg/NNATJsTQE9U01LMELNX7DoDSIEB41\r\nwLEGNUVbzTQ8Pwo1QFCINBFgFTVn0vo0JOCjNNaR8zQ1vx41DXUDNak+EjUNQYo08gC7NFzPoTSI\r\n7RU1kpUbNYXvKzWOx240VWf0NGRuBzU6PIo0wlCGNT7g9jSWZjw1Ml4BNRvl6jTQR3w1lmHdNGfd\r\nITTobvU0ypuvNEpF+jTjNY40JYO7NCfBbzQijsA0us84Na6J8TQIYwU1V3IrNSwmYTXQ1kU0zKTc\r\nNDTVfzTj6to0SbOuNHwCvTQ/eR01mcuPNPTduTRDjf806a+nNAj20DREKOo0nPlPNQTe+zQNWSo1\r\nlpGmNBv9xzT/tzk1CtkQNapg2jSMQlI1MDUTNRhOMjWh56Q0AygANa8srzRbOwQ187XxNOQlwDSQ\r\nNO80mTAVNaBD6TQbeoo0UM6FNHPMCjV4t7k0gIxkNE02BjXYBQo1AhAcNWJMijS64uA0zd0JNXWm\r\nEDWiijY1ZpSXNNpWpzTYT+k0QHbzNDaorzSGDHs0qT7ONBvuhzSyYys1dPYCNQdToDTk8uU0MwYH\r\nNWYw+TRbj4g1aJxzNHlxCDVIE8c0Nl2SNOyilTRoqUs1KtMvNbhJPjVmcCE12eGANQ1X8jSNKZo0\r\ndGHdNGrcDjXxZ0A0JhPPNJb14jSwx8o0morUNDmP2DTubH40SSbdNE1r7TRT3rk0EZGLNP35LjV1\r\n1640P7XhNLEsczQldYc02X7eNAZ67jSawbI0drgeNb6GtzSMN9U00j4cNQhrBzWSqgw14dAnNYUF\r\nnDTQSpg0P9OMNOHDLTULMsI0QH6VNI2nxDSl5Yc0WHyLNCaeLDXnc6Y0AaCFNBQP7TTJzR41kvoE\r\nNRykHjU6wZw0+cjVNJdR1TSiQQU10AuONaiUkzUExgY1MMYONaRkZTT9EAU11Bu0NC2j3jTIM4A0\r\nal8cNSoRTzXbrSk1FTDYNEBqkjTgDwA1sun9NP5ztDRWob80HSSSNGYkGDWnkuM0RaMANeGLITXo\r\nTow0GNvbNJlRuzSgsOY0CpP5NMVL9jRRErs0aS1TNVNWgDSmPp80Gvy3NBnwGDXWr7M0dB/VNIw8\r\n0DQBkZ410iF5NDXYLTVZSxU1T0S6NHIrqTRzbRA1XDWKNA2phjRVwpo0SPJ1NGzsODX8K6Y0ne6l\r\nNNU3JjWsl7M0wb+kNKhE5TQUaN8041HRNPhNtTRpfuQ09awXNcwLtDS6nqA0qbk4Nbg8qTQ3pSA0\r\nkRS8NLXO0DRqdcQ0b//eNLPvrDQGQu00fPstNS/HMTWPJMc0fIrENBIciDSLv/k00iuaNNjgPDWm\r\not00DFkCNfHQhDTO4qY0xTYDNbDSOTWNTjA1dLcPNZB1uzQDUrY08mkFNZaNRjXzzK00ErsDNVeQ\r\n3zS5HxA1pmTINLQDBTWIxP008Ny+NADrGDWeipI0eMHvM5R6CTWA3x01wRO2NE0PBDXZKrU0GFyV\r\nNOCJrzSgxtE0tQR+NKJP0zTmcMA0zgvvNFJN7TT5eA41x/eHNAie2jTBXoU1JbdYNQAAEDUAZAE8\r\nF6YTPaE6DT5EKNM9dQ3rPVEOUD0ioW480q89PCfdUDzbEfI8OKDUPGwsmDxHYgE9amiBPGR1zjsP\r\nPhU7a3x7OyhGRzygj6g8mBGWPCuBIDwy9E47Dr4TO1iRvDsOzBo7Kk6nOyjG8juQWao70ZvWOxbH\r\n8zuU8n07aPEbPGxKlzygoVs8TMfIO9+xhDsybFY7q+rTO/L8YTx2ZJg8LVf1O0mYPjuCWmQ7fLXf\r\nOt2APzt7zMI7O4D+Ox50Tzw8t+w7lE+pOzStezsIHeo7gHbGO/xxGTz7XIA7vAj1O108gzyol3g7\r\ntww5PFZa6zv7yxw8BjMgPKnvLj13cpY8hhS0PDysuTskGOc6fsrQOrACgDqdYpQ6nrawO0mtIzpq\r\niZQ6oWVXO4pL/Dsyi9U7isI/O5AADzuqPMM6Xcz3OuCjVjsJJAU70nAkO3xeCzuPI4E7G4YiO1p8\r\n7jrINmQ6RKiWOkNYjzquKxk7L5jEOkefiTpiBN05wkIqOcZGDTp6g046RrOpOQ6EwjmtPgQ6e2Gc\r\nOSSjpDlo8ZU55XS9ObmuBzlz4785N8m2OWCrjzo4vB06uHOTOSQohDrAdAk6ttpzOqV9QjpzGTY6\r\n3XEaOsgBjjqKt8k6HvZMOicoGjocq2w6ap4WOhHEADrfCzk63skBOgeJHDrUTnI5YkuiObHDpjmu\r\nSKM5/cCSOf1k+zmMGlI6inluOu+YIDu89m07RVI0O6+Kgzr+5446GKYWOsGMzDkpPtU5IguVOWYu\r\n0Thu2rs5wj2KOYr0Szln8mE5OIzqOdZKbDmJnpY5zvoYORbfcjmJJb45rPudOReeBTpaM7A5gOEv\r\nOfU4rjmBKBo6bN3fOQHYIDpCxO45IMMKOhDuqjnu5385nKuKOcsUJTnO6QY6IssJOqWwlTkE/nk5\r\n982pOYJKFzlMEgc5kM8qOTzQSjkjjFw5oLMhOb3XTTlwQiA5qwrfOFyxBDkkj0w5MGaVOpPkyzkA\r\nWYw5x/dWOdTGaDnThQM6cUq4OS/ykTn8pTU5cg8tOjmUnzmJETc5yAicOQHqsTm7VQY6AgbzOcxp\r\nYTnUlDk5COb3OVNucjnJjtA5lvYsOVSTlDlbCZA5jieCOevY/jld/5M5ZAsQOQCjIjmaXZk5X2sk\r\nOaKvQDn3w2A5sFLsOCInSDnjTPU4Pw52ORiOFTnxB085aOe5Oeymfzkdh5Q4b9kUOTcjiDlltOQ5\r\nW97hOK93TDk6TJo5GxUROfmZKDmqWVg5gnArOZiUUTljp2g5VN4COa51OjmCG6857I8hOQJUyDiy\r\nFeY4PzlIOQnaEjkNa105LJgJOedSTTmft9w4RFvhOEMPBjkBNUc5IxKaOKB0AzlHK0Y5uzfsOA7s\r\nCTnIO1A5K33WOKFk2jjp16849C8QOWZpPTn28K85JD91Ocr4pTiAdCY50TmeOH4OPTl/1vM4rUTC\r\nOKr9azkWMbo4F7ngOLhyVDn8tgw5pjZnOXrXVTgwxCo4OQx/OXmv4TiOkZs4EjRhOc/BKzm9HJg4\r\nmNmEOBptqTgOwN44isnuOMjHEDkVGqA5ZsgfOcwJgTn/qS85F5G9OSUi8Th4/wU58kwEOcGM0znk\r\nW1o5KBbSOPxmrjgoieg4mOJqOacY5jhwBhY5iXUjOeCfAjn89RI53mOTOE5nnDgXwQo59x/YOLsN\r\nvzisAgg5ZZXBONJSyTg4ChA5g0OvOOLhCzk2PkQ5yZUgOf1/lTgIavM4G5cEObRwszj5plM54Ngg\r\nOTpfCjmgXsE4/c7tOPbIHjng2QM52pkWOVEIBjnWdfE44lgEOVkCJTm3Js04paCwOJruaDnED7c4\r\nlngHOd1wSThLgdw4+MM6OWkNiTjQTig4ZOnTNxI6RTeeDew2cZ29Nv7NAjclhNM2iMnzNsyKczZM\r\nTqE2NwIANyN0CjdyN5Q2WgazNq/6RTZdvu82CgJ2NnBTbzZ2Y8g2nCmlNornMTbyM/U2XdYuNnYx\r\nDDZETwI3eL+nNkEyGTdWc042Yb0WNzGqlDaNeNI2vHqNNkA4sDYmdYE2+cmANhHYVzaKnIs2sgCG\r\nNgmRtTZMoZo22v10NnRMhzYJ96I2OKTLNuYomzb9GYQ2aZ4gNg34YTYuHZo2W3zKNg54fjYZjkw2\r\nf2wUN3Od0TYrN5w2qv+fNtmNlTawHlI20q1xNtWcgzbalsQ2aqh0NqiRqzZJr+Y1tKkfNvwthjbs\r\njso2aMOjNjtLWzaqzNg2QuVVNvmDcTZsOcU2ODthNmCKmjZkwsw2JO2RNrvV7zZ/j5g2X3SCNuWv\r\njDatdLA22aTFNuHopjZGQ1k280BwNm9ZdzZuF3o2uV16NukrgjZ0cmI2oP0yNtheUDbrCZM2IZD3\r\nNcjiiDbmV9M2x6S6NnU/pzZADwg2huV1NusKwzZOBTQ2+FGNNgbaCjZtFJo2oEWzNnsKijZWeO02\r\nGtuJNu8IdjY49Yg2Mr2ANg3ZzjZiM+s2PSKeNoMphDa/F582hoJcNt0QxjZWOKM2KJ8XNqxVQjbY\r\ngaI2GZ6aNs0bpTU+g5g2tEowNtIkZDYOlas2ZR1xNtIkgzZRo4A2kxo0Nq+R7DZCmS43Jnh6NgQS\r\nbDb4RYg2lNw9NuvPkzYiw3I2yo89NhID7TYcIIw26OkjNrMkKzbG26s2fgyyNkykhTarGu41ZVyZ\r\nNs59hja4/3g2DVwlNg8S/DWud6U2N9IvNgCXSjbgmnM2uSBPNn7iXza+E8Q2IrczNgAgGTbUpLw1\r\nmKpzNoJSGzdiAoM2ZpDFNfrlFDY4tAI2RI+mNgX6UTb+VoU2addaNhrNCTZZFHA2uMncNXzMSzbJ\r\nKYk2chpoNlUqsTVQL942eABrNmzNjTZ3X0o2gnWBNn72gTZLTEE2lwQzNgfuCjaKZ0A2Cn+pNqDa\r\nNzbbTXE2Jn7UNu4UKDZVMoQ2j46fNsCxMzbOjB026lnINRYmezYubI02j29ONiv6jzYkvQU24bo/\r\nNlRyPzacL0c24hOWNpYhiDbn4/U1XMKXNjdHgzYwUO01kmwQNsrkGjZWzx02IdkDNtNSCTdR2VE2\r\nthtfNuRpyzaptiM2tEQ0Nkz1XDaF2zA2q9VKNcwlKDW1Wt007vuJNFq4yzRjGzI175BhNbYW/jTC\r\n50I1fp2dNJ2JFzXcfBY1j6wVNck7ADXKUgk1IqzANOh0JjVVrrw0Msw2NZKFGTUaPUI1fBNaNcVN\r\nSTUON7Q0P4fQNFKuFzUxPlU1sICqNGd1ajTm2QI1i7CcNE6RhzRis6A0+Hg7Nbaz2zTd5O41Lo6Q\r\nNCC46jRqY4k02LwPNQsD+zQS2kY1DgsZNQCcHDWKMa00NY4gNbBtFDXqiRc1oiMKNXSGhzRgRxs1\r\nsvCONXglnTQaJsk0VZcVNTwSAjVbovE0HAgiNYYOkDWs+Bk1NoTxNOmQHzWwgbI0cTRKNEIM5zRm\r\n0Eo1Lt3NNDT7uTSlUH81fpTdNNbDuDR5QIA1bivBNDg8tDTqSAw1juzKNPjckTXYQus0QHrGNAe/\r\nzjT+Kxk1k1EENS6XETW7x+g0SgvDNLGCvzSIgvk0RU2fNNSwojQOc7k03IPMNCf6ETV8ef00kiUz\r\nNaCP5DSyjgI1NzurNDzYBDVnrxg1wWfANHpDdjTTMLM0SyeuNCZrpDTpSwg1kQXWNKnmtjTd4L00\r\nCjEvNe+3XjWZAko1Ym35NPTQoTRMXRI1/Kv1NNnw+TREn580ApgENQioMTUc6Qw1wGDtNMWVAjX6\r\nRmI1CN1MNL0nqzQdttc0yKQdNbOO9jSg9bU00Ta0NPpG8jRwfn81zM+VNG1DtzQjBjQ133YnNRiY\r\nzzSD58A0vVEGNeQz7TQc+8c0alDxNOYeqTRZjwM1A1X7NKFF9DRfJtM0Vc0BNUYGIjUIksE0MIwp\r\nNYA4xDQyT2E0+rrONBaUKjWcVbs0lgEXNQhoLjVqYfM0QkIHNXxZBjWjN9A04CoHNf4JgzRmC1I1\r\nHvk2NR48nDSMgG00Zf32NNotNDWhucs0OhP6NCbLvjSa08g0UXkUNWHkGjU2b7M0Jjf1NNWAHTX2\r\nAKk0D22rNDpwCjVAdSE1wIe3NKki1DQ7h1c0c56RNM+EHDWeNvs0MQ70NEBr+DSzItM00gbWNHQw\r\nKDULfMQ0x//kNPxv2TTQtDM1WH4UNV82NTXQGQs1zfzkNE4e5zQRzgg1/pbnNGCS0TTOFd40v6/x\r\nNAS1tjRCvqU0IwneNHHchzWWIeA0UM+4NK8f9TRyIZM0h7UINdtvGDWwIMU0f+g7NQZH3jSvXyg1\r\nQFDUNEfN1zTFaJE0vTVhNZhtEzVsOCo1lI2DNKvBcDU7hyA1G3lgNdKy/jT5BOE0W5yZNMVKxTQt\r\nffo0UfUYNfYY1jRmNic1cjOcNHhM3TQltw01y+wGNdUXAzWjaYQ1EAGsNAMnHTXG2Ok0b2sZNdaU\r\nnTTqTu80BYtpNRavBjXpXoY0gY8TNRz6MzTZ+bU0CwEyNeatmjTYpAw1XQ0NNS4fMDUD3N80w5kB\r\nNbZ+wDSHwM80LsdINflVQTXijxU12ckXNexXHTV3aAk1Y0gINRwPEzWrSkk1gEhcNcKckzRnQdM0\r\nylE8NZTlGjWZRXo1mYPiNKOIGDX9VSk1SDywNE/uAjVE05U0/LpeNYJ8uDT+TwI1K57TNKdFFTVQ\r\nmmw1bxHxNNasyjTwQdg0uDi0NKQl/jRwNLM0eBffNHVFvDRC6IA0QxjQNA8uczQLG6o0fGK7NO7j\r\nmzQBYqc0PLzWNLgI9DTcW6Q0a0AZNYg9STUbsVQ1+5sfNVyxoTRchak0ZlS/NIZF8DQC/LA0KHW2\r\nNAKVBzVhPRg1IxGrNNrwCDVtxBU1lnAcNYeauTTwp/s0RXHANLDJwzTVLtw0yWgLNdyaGTVZOe00\r\nJFcoNZ6B7TQG/MU0+DEUNQFt/DRtlSo14IBuNQxXyzRAZsw0OmxvNepc4TQsbOo0BX5pNeLZFjVa\r\nUP00/NC+NDfFxzSk/Jk0Xv9WNFcJFTUkCfs0nPhONWb3szQLn8U07ItQNLGo0DSMwQE17Z/PNNec\r\n0zRaof0076bINOo8GzXNlYU0hEQkNTyH5jT2YwU1rPNDNQ/OwzRUsuM0rNi/NPhc8DQKmUg1hNDu\r\nNFsmCjUDuzw1VasyNef7cjVSnrA0plT5NKXLhzSFNZ00Ed+nNCFdUDUWMQI1JJnbNNcqvjQMb+40\r\nMCZxNWBYzTTT7DQ1EXZRNffmaTV+3a80W4eUNHE8DjXgGu40gRDrNBPuqjTmEDY1ol3ONJbeJTVU\r\n2RE1pL7HNICD5TRWWw816jZdNU5+4zSdEBA1+UiKNPe7OzXoSB81ciQHNY2hujSihSE1Zmy4NC66\r\njjSDV6M0zDuqNH8orDToE6s0mAmlNNh/LDUtZTA1POHGNHfLdzTbIis17ZIdNZocBDVvRKE0QmwB\r\nNYXQijQkWAs1oC2hNA2Z5TSh2c00fEGaNMT8ujTDZ5w0Y1z7NI2ELjWyxiA1AEAcNQ==",
                            "noiseTrainingType" : "default"
                          }
                        }
                    ],
                    "start" : 2480,
                    "duration" : 303,
                    "mediaStart" : 3055,
                    "mediaDuration" : 303,
                    "scalar" : 1,
                    "metadata" : {
                      "WinSubProjectDisplayName" : "",
                      "clipSpeedAttribute" : false
                    },
                    "animationTracks" : {

                    }
                  },
                  {
                    "id" : 368,
                    "_type" : "AMFile",
                    "src" : 15,
                    "trackNumber" : 0,
                    "attributes" : {
                      "ident" : "旁白_vis2021 1",
                      "sampleRate" : 44100,
                      "bitDepth" : 16,
                      "gain" : 1.0,
                      "mixToMono" : false
                    },
                      "channelNumber" : "0,1",
                    "effects" : [
                        {
                          "effectName" : "NoiseReduction",
                          "parameters" : {
                            "denoiserAmount" : 20.0,
                            "denoiserThreshold" : 0.0,
                            "noiseProfile" : "OWoAPH2pEz2x9Qw+d6HTPcva6j2sp089E2dtPD6vPDwfl1A8ScjwPJTr1Txy35g8LaEAPTpegDyh\r\n+807XKYVO6TEeztxHEg8k5enPOCDljxR1SA80RNNO5P/FTsAUsA78qcaO7cppTsc2vE7qgSrO6lQ\r\n2jukqvI7h92AO2yWGzx+tZU8JitaPFzIyTuXwYE7uY9XO8aQ0Dvqq2I88amYPMnb9DtB2j87KTBk\r\nOzy52zoRSDw7OCjBO9xi/DtxwE88KlbqO3j0qDtWJH47VJnsO9JoxDuANhs8tJ+AO6Qz9Tth+oI8\r\nbGt3O1T1Nzzjhew74A0cPJAvITwici89BseWPGFNtDxkw7o7MRvlOmld0jryf386QXGZOrHMrzuA\r\ngR46FrCVOsPpWDsY4v07HUbYO1nLPjsw9w47wr3FOrnZ+Drc3FY7lUkJO7DAJDv2mAY7Bol9O6Gv\r\nIjui8ek64NliOq5vmTrG/ZM6bCYbO5q5tzpF2YA69unhOXdvJDkMXx461iVVOpU6tTmIPdU5NZ4C\r\nOrLzrDlzv6053gyzOSasszlLTgc5O7atOcYrxzkKtYw6r9cjOpoinjlRRog6Q9QHOqLsbTo5k0E6\r\n9U47OqgHGzq2DIw6xrvIOkIITzrGgR86I/hwOsTOFzq0IQU6isQ5OkIP9DmC+Bw6hsx0OYy4pDnt\r\nMqk5f6afOfFKnDnqIvc5SsRQOpXvdDp8CiE703psOwEALztW+4A6r36ROtKuGDoo4s852RrZOQKM\r\nhDmkgtY4CBe5OXJ5jDnBcjY5RM9jObGZ+DmyHG05aluSOaagETnIyGM5Jt2dOdUxnTmBHwU6PPyu\r\nOQ2PETl6x7k5tcInOtV63TnmcCY6dHftOUWtBzoIt6w5qk+GOf1mbTk4DT454wsLOh2HAjoY+ZY5\r\nyr2VOQQurzmqnRg5LDMFOZLQUjkvV1Q5/g1+OSlxFzlITz85XmAkOdDG/DjiIfM4htxWOREUlTqh\r\nwcw5VnaGOWCBXjn90lA5cKzvOWPrqzkL/o45sEFOOTkyMDpUc5s51oo9ORByjjlGCco52p/tORKy\r\n8Tnit2E51lY0Ofo+ATq6o3Y5Z021OYTVGDlRAq45zuyhOeA4ZDk52eE5nw91ORI2OzlB2R85fgab\r\nOY8bMjkQ1TA5cCaFOXju/Dh2ghM59YD8OFHmfzmnKiQ58YpfOXsbtzlCtX45yEWKOLGkLDkayH45\r\nRUrSOSltyTgvk1U5NT2NOY45EjnfihY5JFlqOTokTjlSlV45Ir54OQ1W5jifjjI5bWS5OfA8NDkO\r\nXs44QhjgOLbnOjkr+iw5hK5/Ocz3Azl6HF45q6DlOIJb2DiR79I4esU3OWtGjDg4gBM5cVloOdzR\r\nDTlkchs5GGg7OVSTtziXOeg4XazEOCiMADmz6Tw5ueqOOVcmeTmS4Ms4nI0UOUTLnjhAXjc56pkE\r\nOdXdBznEOY85PIy4OMxI5zgkSxk5r6oQObvARTnCtUo4LoVEONjrVjnfUsw4msCWOCWAQjlc/y45\r\nJ4KtOCzJrjjGJZ84BKXjOIHj2jhi+yE5rqqOOdCIIzm9fIM56Oo3OUSjtzmiT/M4Wiv3OJw6ETmO\r\nS8w53FJpOdbu1DiJSZs4DaoFOWqKWDkkyvU4GPIdOchJLDmxKwA54MMWOVgzmjgl75M44OcEOVPH\r\n3Dhmzdw4X9sOOb2CyTguC7Y4VgEmOTaQxDjBUAQ5dAM9OarFHjmfj444qMgAOWZMDDmSlas4yUZQ\r\nOaDeMTmPogU5Wxe1OF0m3Dh6aDQ5tbkIObjoEzlqqg45EPLvOKyF+zhUmiE57MvFOPg/vDiW+Vo5\r\nmhyzOGFsBTldBEw4dL3pOOk/QDnXnJQ467sNONFyxDfGPDM3rTsZN+BixjZrWTk338GlNhf/FTe5\r\nNTk2RTSUNkMj3Taj0d02is2UNt0UDDYUXvI1aeXFNhijMjbAtYc2ikWgNuphZDY8D1I28gSnNv4k\r\nLTZRYDk2mtYGN70P5DaWBKc2RzXfNlQFKTeHIYk2IpjaNofVszbqlaM2PatTNiKTzDYjx6M2BMHZ\r\nNiXEdDbJOMs2FNCMNsnGRja2BpI2UsiGNvm1vzbR74Q2wLCoNnn3jDa4fK82VqGlNrSAsTYwh5o2\r\n00guNguj5DYiuZI2yg0BN6PItzbTY6w2VXFINoLcTDbWIk82WJ/cNvx6HDZGdqc2ta/1NVwQMDaG\r\n9VE24mqONlq9rDaNiSE2Lay+NpqbcTYGZ3Q2KPqfNicegDbQyZw27RAtNyQhVjazoMU2izz9Npf0\r\njzbhrAg2zKY4Njo2yjZ1hZE2WNZsNrbfvDZiyp42KRFjNr96jjbjaI02RTYRNmwjhzapnyI2B4XY\r\nNltT7jUOLSY20oDqNhJrxDaCZWw2Ct+VNg/LgjZZzMA2Ik1JNrzQuDZxy901azNqNvW2eDaUuVs2\r\ngu+KNta85ja8P/M1FmShNp/ipjb1OIE21Q/2Nr5JmzYXtZU2x6+qNk6LmTZnjYw2mIJGNul2Jjbc\r\nO3A2lquYNuovLTYtgfE1nUlUNgQzNzaIsDM2DIvUNjKBRja+0oY2ExJ5NgPdJzZaSLQ2EtYgN0Wc\r\nDDbIHow2IiiZNgZUVTa1JnM2v3wcNoN3YDYCtgE38JaENkzoaDb0JTc26/WJNoqw9jYFxFI29vNP\r\nNmdCvDZHFIU2xxObNr0sUTblHoc2JrM/NmrbFDYX93o2m4OpNgs6HDaFNl02Rb2TNpjkJjYAADk2\r\n/8chNn7/QTawezM30gsqNidJ8zWKfC02kBYuNmSnnTa80FY2mFN3NkYZWzY4aO41UHmKNkyZiDYh\r\nGC42h1Y6Np6cgzYSij81AnuaNnc6rzZUXG82vp9eNp4h/jWNsEY2k603NuKSjDbHWSo2RxYINlNS\r\nmTaAOlU2yvJmNkqftzZ5VEk26hV8NjWLezbKM9Y1ernFNWi/XDZaEHQ2dhvANhDaRjYMwy82EwC4\r\nNlCNVTbH4IU2Cx1LNk6XlDbcVNA2FB33NQHMjzY6eW02jpZONqrdMTa+lxk267lUNkhoNDZz+TQ3\r\nwulaNoXxEjYQdsQ2lXEcNsiYOjbfz9o2UzpENvQL0TSOQIM10f8gNcLzLzX5w2c1H4efNN2VyTQO\r\nn70011tKNT7aKTUG8/w0QEgiNUCRKjWhXKI03LYLNQzSrjUnb9E0iB65NCpfLzVs4tk0emppNQtw\r\n8zTy2+U0USoLNeRnDTU88Uc19BfdNFPdNDVtA7Q09QQJNdJhKTXqRNg0am3RNG251DQ1KrA0Oj/Y\r\nNOrxkjTQ8cI0+3eXNEYitDR9exs1YvMdNUBR5DR0pQE1EGj5NAq8KTXmxKs0ErgPNTXAAjVM71g1\r\n2McYNch2PjVA3vs0HZGgNJEIOTWY3M40B5RGNGfgUDUIWUw1AAKQNPuJvjRnt4w0M0qUNPpcxjR3\r\nCM0000dJNZjtnTSx6rQ09gISNSzUKjVHscM0TBtXNYWZEDWjpck07HS+NMuEnzTVZ0U1duMGNWCg\r\n6jTs3880YBEXNT+XujRa3bk0wUISNadMADU5AQ411F8ONePs/jS0pjA105FENQ/HnjQmcwg1WPKH\r\nNFq2nTSuOLI0S9MpNbyI/zTAPso0+sXPNPLB3DTur8o0PLbHNPmbnzT+MvY0YjqvNCUXJTXMJp80\r\nndUPNWmVEjXazkY1O5DgNMl4gzVmyAY1rYEfNXmSQTWIrhU1ikoVNSCqpDTaEbY0/AvpNLIwhDSh\r\nIww1MCwENb5Y/zSUBhw1UowYNbXtpzTvlg4155xcNZhCrDRWs9U0k616NIzznjRmnAQ1Khq/NEm9\r\nCTUki940fgEVNZA1JzWkzqg0RtjuNI+WjTW0QRg1omMcNXzDIDUDHKI0NVu3NMMpRDVCjIo0ViIs\r\nNfxAITWCVB81HXTcNB0NXDWG+bE03vcdNf6QMzXAn8s0Eg/NNATJsTQE9U01LMELNX7DoDSIEB41\r\nwLEGNUVbzTQ8Pwo1QFCINBFgFTVn0vo0JOCjNNaR8zQ1vx41DXUDNak+EjUNQYo08gC7NFzPoTSI\r\n7RU1kpUbNYXvKzWOx240VWf0NGRuBzU6PIo0wlCGNT7g9jSWZjw1Ml4BNRvl6jTQR3w1lmHdNGfd\r\nITTobvU0ypuvNEpF+jTjNY40JYO7NCfBbzQijsA0us84Na6J8TQIYwU1V3IrNSwmYTXQ1kU0zKTc\r\nNDTVfzTj6to0SbOuNHwCvTQ/eR01mcuPNPTduTRDjf806a+nNAj20DREKOo0nPlPNQTe+zQNWSo1\r\nlpGmNBv9xzT/tzk1CtkQNapg2jSMQlI1MDUTNRhOMjWh56Q0AygANa8srzRbOwQ187XxNOQlwDSQ\r\nNO80mTAVNaBD6TQbeoo0UM6FNHPMCjV4t7k0gIxkNE02BjXYBQo1AhAcNWJMijS64uA0zd0JNXWm\r\nEDWiijY1ZpSXNNpWpzTYT+k0QHbzNDaorzSGDHs0qT7ONBvuhzSyYys1dPYCNQdToDTk8uU0MwYH\r\nNWYw+TRbj4g1aJxzNHlxCDVIE8c0Nl2SNOyilTRoqUs1KtMvNbhJPjVmcCE12eGANQ1X8jSNKZo0\r\ndGHdNGrcDjXxZ0A0JhPPNJb14jSwx8o0morUNDmP2DTubH40SSbdNE1r7TRT3rk0EZGLNP35LjV1\r\n1640P7XhNLEsczQldYc02X7eNAZ67jSawbI0drgeNb6GtzSMN9U00j4cNQhrBzWSqgw14dAnNYUF\r\nnDTQSpg0P9OMNOHDLTULMsI0QH6VNI2nxDSl5Yc0WHyLNCaeLDXnc6Y0AaCFNBQP7TTJzR41kvoE\r\nNRykHjU6wZw0+cjVNJdR1TSiQQU10AuONaiUkzUExgY1MMYONaRkZTT9EAU11Bu0NC2j3jTIM4A0\r\nal8cNSoRTzXbrSk1FTDYNEBqkjTgDwA1sun9NP5ztDRWob80HSSSNGYkGDWnkuM0RaMANeGLITXo\r\nTow0GNvbNJlRuzSgsOY0CpP5NMVL9jRRErs0aS1TNVNWgDSmPp80Gvy3NBnwGDXWr7M0dB/VNIw8\r\n0DQBkZ410iF5NDXYLTVZSxU1T0S6NHIrqTRzbRA1XDWKNA2phjRVwpo0SPJ1NGzsODX8K6Y0ne6l\r\nNNU3JjWsl7M0wb+kNKhE5TQUaN8041HRNPhNtTRpfuQ09awXNcwLtDS6nqA0qbk4Nbg8qTQ3pSA0\r\nkRS8NLXO0DRqdcQ0b//eNLPvrDQGQu00fPstNS/HMTWPJMc0fIrENBIciDSLv/k00iuaNNjgPDWm\r\not00DFkCNfHQhDTO4qY0xTYDNbDSOTWNTjA1dLcPNZB1uzQDUrY08mkFNZaNRjXzzK00ErsDNVeQ\r\n3zS5HxA1pmTINLQDBTWIxP008Ny+NADrGDWeipI0eMHvM5R6CTWA3x01wRO2NE0PBDXZKrU0GFyV\r\nNOCJrzSgxtE0tQR+NKJP0zTmcMA0zgvvNFJN7TT5eA41x/eHNAie2jTBXoU1JbdYNQAAEDUAZAE8\r\nF6YTPaE6DT5EKNM9dQ3rPVEOUD0ioW480q89PCfdUDzbEfI8OKDUPGwsmDxHYgE9amiBPGR1zjsP\r\nPhU7a3x7OyhGRzygj6g8mBGWPCuBIDwy9E47Dr4TO1iRvDsOzBo7Kk6nOyjG8juQWao70ZvWOxbH\r\n8zuU8n07aPEbPGxKlzygoVs8TMfIO9+xhDsybFY7q+rTO/L8YTx2ZJg8LVf1O0mYPjuCWmQ7fLXf\r\nOt2APzt7zMI7O4D+Ox50Tzw8t+w7lE+pOzStezsIHeo7gHbGO/xxGTz7XIA7vAj1O108gzyol3g7\r\ntww5PFZa6zv7yxw8BjMgPKnvLj13cpY8hhS0PDysuTskGOc6fsrQOrACgDqdYpQ6nrawO0mtIzpq\r\niZQ6oWVXO4pL/Dsyi9U7isI/O5AADzuqPMM6Xcz3OuCjVjsJJAU70nAkO3xeCzuPI4E7G4YiO1p8\r\n7jrINmQ6RKiWOkNYjzquKxk7L5jEOkefiTpiBN05wkIqOcZGDTp6g046RrOpOQ6EwjmtPgQ6e2Gc\r\nOSSjpDlo8ZU55XS9ObmuBzlz4785N8m2OWCrjzo4vB06uHOTOSQohDrAdAk6ttpzOqV9QjpzGTY6\r\n3XEaOsgBjjqKt8k6HvZMOicoGjocq2w6ap4WOhHEADrfCzk63skBOgeJHDrUTnI5YkuiObHDpjmu\r\nSKM5/cCSOf1k+zmMGlI6inluOu+YIDu89m07RVI0O6+Kgzr+5446GKYWOsGMzDkpPtU5IguVOWYu\r\n0Thu2rs5wj2KOYr0Szln8mE5OIzqOdZKbDmJnpY5zvoYORbfcjmJJb45rPudOReeBTpaM7A5gOEv\r\nOfU4rjmBKBo6bN3fOQHYIDpCxO45IMMKOhDuqjnu5385nKuKOcsUJTnO6QY6IssJOqWwlTkE/nk5\r\n982pOYJKFzlMEgc5kM8qOTzQSjkjjFw5oLMhOb3XTTlwQiA5qwrfOFyxBDkkj0w5MGaVOpPkyzkA\r\nWYw5x/dWOdTGaDnThQM6cUq4OS/ykTn8pTU5cg8tOjmUnzmJETc5yAicOQHqsTm7VQY6AgbzOcxp\r\nYTnUlDk5COb3OVNucjnJjtA5lvYsOVSTlDlbCZA5jieCOevY/jld/5M5ZAsQOQCjIjmaXZk5X2sk\r\nOaKvQDn3w2A5sFLsOCInSDnjTPU4Pw52ORiOFTnxB085aOe5Oeymfzkdh5Q4b9kUOTcjiDlltOQ5\r\nW97hOK93TDk6TJo5GxUROfmZKDmqWVg5gnArOZiUUTljp2g5VN4COa51OjmCG6857I8hOQJUyDiy\r\nFeY4PzlIOQnaEjkNa105LJgJOedSTTmft9w4RFvhOEMPBjkBNUc5IxKaOKB0AzlHK0Y5uzfsOA7s\r\nCTnIO1A5K33WOKFk2jjp16849C8QOWZpPTn28K85JD91Ocr4pTiAdCY50TmeOH4OPTl/1vM4rUTC\r\nOKr9azkWMbo4F7ngOLhyVDn8tgw5pjZnOXrXVTgwxCo4OQx/OXmv4TiOkZs4EjRhOc/BKzm9HJg4\r\nmNmEOBptqTgOwN44isnuOMjHEDkVGqA5ZsgfOcwJgTn/qS85F5G9OSUi8Th4/wU58kwEOcGM0znk\r\nW1o5KBbSOPxmrjgoieg4mOJqOacY5jhwBhY5iXUjOeCfAjn89RI53mOTOE5nnDgXwQo59x/YOLsN\r\nvzisAgg5ZZXBONJSyTg4ChA5g0OvOOLhCzk2PkQ5yZUgOf1/lTgIavM4G5cEObRwszj5plM54Ngg\r\nOTpfCjmgXsE4/c7tOPbIHjng2QM52pkWOVEIBjnWdfE44lgEOVkCJTm3Js04paCwOJruaDnED7c4\r\nlngHOd1wSThLgdw4+MM6OWkNiTjQTig4ZOnTNxI6RTeeDew2cZ29Nv7NAjclhNM2iMnzNsyKczZM\r\nTqE2NwIANyN0CjdyN5Q2WgazNq/6RTZdvu82CgJ2NnBTbzZ2Y8g2nCmlNornMTbyM/U2XdYuNnYx\r\nDDZETwI3eL+nNkEyGTdWc042Yb0WNzGqlDaNeNI2vHqNNkA4sDYmdYE2+cmANhHYVzaKnIs2sgCG\r\nNgmRtTZMoZo22v10NnRMhzYJ96I2OKTLNuYomzb9GYQ2aZ4gNg34YTYuHZo2W3zKNg54fjYZjkw2\r\nf2wUN3Od0TYrN5w2qv+fNtmNlTawHlI20q1xNtWcgzbalsQ2aqh0NqiRqzZJr+Y1tKkfNvwthjbs\r\njso2aMOjNjtLWzaqzNg2QuVVNvmDcTZsOcU2ODthNmCKmjZkwsw2JO2RNrvV7zZ/j5g2X3SCNuWv\r\njDatdLA22aTFNuHopjZGQ1k280BwNm9ZdzZuF3o2uV16NukrgjZ0cmI2oP0yNtheUDbrCZM2IZD3\r\nNcjiiDbmV9M2x6S6NnU/pzZADwg2huV1NusKwzZOBTQ2+FGNNgbaCjZtFJo2oEWzNnsKijZWeO02\r\nGtuJNu8IdjY49Yg2Mr2ANg3ZzjZiM+s2PSKeNoMphDa/F582hoJcNt0QxjZWOKM2KJ8XNqxVQjbY\r\ngaI2GZ6aNs0bpTU+g5g2tEowNtIkZDYOlas2ZR1xNtIkgzZRo4A2kxo0Nq+R7DZCmS43Jnh6NgQS\r\nbDb4RYg2lNw9NuvPkzYiw3I2yo89NhID7TYcIIw26OkjNrMkKzbG26s2fgyyNkykhTarGu41ZVyZ\r\nNs59hja4/3g2DVwlNg8S/DWud6U2N9IvNgCXSjbgmnM2uSBPNn7iXza+E8Q2IrczNgAgGTbUpLw1\r\nmKpzNoJSGzdiAoM2ZpDFNfrlFDY4tAI2RI+mNgX6UTb+VoU2addaNhrNCTZZFHA2uMncNXzMSzbJ\r\nKYk2chpoNlUqsTVQL942eABrNmzNjTZ3X0o2gnWBNn72gTZLTEE2lwQzNgfuCjaKZ0A2Cn+pNqDa\r\nNzbbTXE2Jn7UNu4UKDZVMoQ2j46fNsCxMzbOjB026lnINRYmezYubI02j29ONiv6jzYkvQU24bo/\r\nNlRyPzacL0c24hOWNpYhiDbn4/U1XMKXNjdHgzYwUO01kmwQNsrkGjZWzx02IdkDNtNSCTdR2VE2\r\nthtfNuRpyzaptiM2tEQ0Nkz1XDaF2zA2q9VKNcwlKDW1Wt007vuJNFq4yzRjGzI175BhNbYW/jTC\r\n50I1fp2dNJ2JFzXcfBY1j6wVNck7ADXKUgk1IqzANOh0JjVVrrw0Msw2NZKFGTUaPUI1fBNaNcVN\r\nSTUON7Q0P4fQNFKuFzUxPlU1sICqNGd1ajTm2QI1i7CcNE6RhzRis6A0+Hg7Nbaz2zTd5O41Lo6Q\r\nNCC46jRqY4k02LwPNQsD+zQS2kY1DgsZNQCcHDWKMa00NY4gNbBtFDXqiRc1oiMKNXSGhzRgRxs1\r\nsvCONXglnTQaJsk0VZcVNTwSAjVbovE0HAgiNYYOkDWs+Bk1NoTxNOmQHzWwgbI0cTRKNEIM5zRm\r\n0Eo1Lt3NNDT7uTSlUH81fpTdNNbDuDR5QIA1bivBNDg8tDTqSAw1juzKNPjckTXYQus0QHrGNAe/\r\nzjT+Kxk1k1EENS6XETW7x+g0SgvDNLGCvzSIgvk0RU2fNNSwojQOc7k03IPMNCf6ETV8ef00kiUz\r\nNaCP5DSyjgI1NzurNDzYBDVnrxg1wWfANHpDdjTTMLM0SyeuNCZrpDTpSwg1kQXWNKnmtjTd4L00\r\nCjEvNe+3XjWZAko1Ym35NPTQoTRMXRI1/Kv1NNnw+TREn580ApgENQioMTUc6Qw1wGDtNMWVAjX6\r\nRmI1CN1MNL0nqzQdttc0yKQdNbOO9jSg9bU00Ta0NPpG8jRwfn81zM+VNG1DtzQjBjQ133YnNRiY\r\nzzSD58A0vVEGNeQz7TQc+8c0alDxNOYeqTRZjwM1A1X7NKFF9DRfJtM0Vc0BNUYGIjUIksE0MIwp\r\nNYA4xDQyT2E0+rrONBaUKjWcVbs0lgEXNQhoLjVqYfM0QkIHNXxZBjWjN9A04CoHNf4JgzRmC1I1\r\nHvk2NR48nDSMgG00Zf32NNotNDWhucs0OhP6NCbLvjSa08g0UXkUNWHkGjU2b7M0Jjf1NNWAHTX2\r\nAKk0D22rNDpwCjVAdSE1wIe3NKki1DQ7h1c0c56RNM+EHDWeNvs0MQ70NEBr+DSzItM00gbWNHQw\r\nKDULfMQ0x//kNPxv2TTQtDM1WH4UNV82NTXQGQs1zfzkNE4e5zQRzgg1/pbnNGCS0TTOFd40v6/x\r\nNAS1tjRCvqU0IwneNHHchzWWIeA0UM+4NK8f9TRyIZM0h7UINdtvGDWwIMU0f+g7NQZH3jSvXyg1\r\nQFDUNEfN1zTFaJE0vTVhNZhtEzVsOCo1lI2DNKvBcDU7hyA1G3lgNdKy/jT5BOE0W5yZNMVKxTQt\r\nffo0UfUYNfYY1jRmNic1cjOcNHhM3TQltw01y+wGNdUXAzWjaYQ1EAGsNAMnHTXG2Ok0b2sZNdaU\r\nnTTqTu80BYtpNRavBjXpXoY0gY8TNRz6MzTZ+bU0CwEyNeatmjTYpAw1XQ0NNS4fMDUD3N80w5kB\r\nNbZ+wDSHwM80LsdINflVQTXijxU12ckXNexXHTV3aAk1Y0gINRwPEzWrSkk1gEhcNcKckzRnQdM0\r\nylE8NZTlGjWZRXo1mYPiNKOIGDX9VSk1SDywNE/uAjVE05U0/LpeNYJ8uDT+TwI1K57TNKdFFTVQ\r\nmmw1bxHxNNasyjTwQdg0uDi0NKQl/jRwNLM0eBffNHVFvDRC6IA0QxjQNA8uczQLG6o0fGK7NO7j\r\nmzQBYqc0PLzWNLgI9DTcW6Q0a0AZNYg9STUbsVQ1+5sfNVyxoTRchak0ZlS/NIZF8DQC/LA0KHW2\r\nNAKVBzVhPRg1IxGrNNrwCDVtxBU1lnAcNYeauTTwp/s0RXHANLDJwzTVLtw0yWgLNdyaGTVZOe00\r\nJFcoNZ6B7TQG/MU0+DEUNQFt/DRtlSo14IBuNQxXyzRAZsw0OmxvNepc4TQsbOo0BX5pNeLZFjVa\r\nUP00/NC+NDfFxzSk/Jk0Xv9WNFcJFTUkCfs0nPhONWb3szQLn8U07ItQNLGo0DSMwQE17Z/PNNec\r\n0zRaof0076bINOo8GzXNlYU0hEQkNTyH5jT2YwU1rPNDNQ/OwzRUsuM0rNi/NPhc8DQKmUg1hNDu\r\nNFsmCjUDuzw1VasyNef7cjVSnrA0plT5NKXLhzSFNZ00Ed+nNCFdUDUWMQI1JJnbNNcqvjQMb+40\r\nMCZxNWBYzTTT7DQ1EXZRNffmaTV+3a80W4eUNHE8DjXgGu40gRDrNBPuqjTmEDY1ol3ONJbeJTVU\r\n2RE1pL7HNICD5TRWWw816jZdNU5+4zSdEBA1+UiKNPe7OzXoSB81ciQHNY2hujSihSE1Zmy4NC66\r\njjSDV6M0zDuqNH8orDToE6s0mAmlNNh/LDUtZTA1POHGNHfLdzTbIis17ZIdNZocBDVvRKE0QmwB\r\nNYXQijQkWAs1oC2hNA2Z5TSh2c00fEGaNMT8ujTDZ5w0Y1z7NI2ELjWyxiA1AEAcNQ==",
                            "noiseTrainingType" : "default"
                          }
                        }
                    ],
                    "start" : 2783,
                    "duration" : 181,
                    "mediaStart" : 3376,
                    "mediaDuration" : 181,
                    "scalar" : 1,
                    "metadata" : {
                      "WinSubProjectDisplayName" : "",
                      "clipSpeedAttribute" : false
                    },
                    "animationTracks" : {

                    }
                  },
                  {
                    "id" : 369,
                    "_type" : "AMFile",
                    "src" : 15,
                    "trackNumber" : 0,
                    "attributes" : {
                      "ident" : "旁白_vis2021 1",
                      "sampleRate" : 44100,
                      "bitDepth" : 16,
                      "gain" : 1.0,
                      "mixToMono" : false
                    },
                      "channelNumber" : "0,1",
                    "effects" : [
                        {
                          "effectName" : "NoiseReduction",
                          "parameters" : {
                            "denoiserAmount" : 20.0,
                            "denoiserThreshold" : 0.0,
                            "noiseProfile" : "OWoAPH2pEz2x9Qw+d6HTPcva6j2sp089E2dtPD6vPDwfl1A8ScjwPJTr1Txy35g8LaEAPTpegDyh\r\n+807XKYVO6TEeztxHEg8k5enPOCDljxR1SA80RNNO5P/FTsAUsA78qcaO7cppTsc2vE7qgSrO6lQ\r\n2jukqvI7h92AO2yWGzx+tZU8JitaPFzIyTuXwYE7uY9XO8aQ0Dvqq2I88amYPMnb9DtB2j87KTBk\r\nOzy52zoRSDw7OCjBO9xi/DtxwE88KlbqO3j0qDtWJH47VJnsO9JoxDuANhs8tJ+AO6Qz9Tth+oI8\r\nbGt3O1T1Nzzjhew74A0cPJAvITwici89BseWPGFNtDxkw7o7MRvlOmld0jryf386QXGZOrHMrzuA\r\ngR46FrCVOsPpWDsY4v07HUbYO1nLPjsw9w47wr3FOrnZ+Drc3FY7lUkJO7DAJDv2mAY7Bol9O6Gv\r\nIjui8ek64NliOq5vmTrG/ZM6bCYbO5q5tzpF2YA69unhOXdvJDkMXx461iVVOpU6tTmIPdU5NZ4C\r\nOrLzrDlzv6053gyzOSasszlLTgc5O7atOcYrxzkKtYw6r9cjOpoinjlRRog6Q9QHOqLsbTo5k0E6\r\n9U47OqgHGzq2DIw6xrvIOkIITzrGgR86I/hwOsTOFzq0IQU6isQ5OkIP9DmC+Bw6hsx0OYy4pDnt\r\nMqk5f6afOfFKnDnqIvc5SsRQOpXvdDp8CiE703psOwEALztW+4A6r36ROtKuGDoo4s852RrZOQKM\r\nhDmkgtY4CBe5OXJ5jDnBcjY5RM9jObGZ+DmyHG05aluSOaagETnIyGM5Jt2dOdUxnTmBHwU6PPyu\r\nOQ2PETl6x7k5tcInOtV63TnmcCY6dHftOUWtBzoIt6w5qk+GOf1mbTk4DT454wsLOh2HAjoY+ZY5\r\nyr2VOQQurzmqnRg5LDMFOZLQUjkvV1Q5/g1+OSlxFzlITz85XmAkOdDG/DjiIfM4htxWOREUlTqh\r\nwcw5VnaGOWCBXjn90lA5cKzvOWPrqzkL/o45sEFOOTkyMDpUc5s51oo9ORByjjlGCco52p/tORKy\r\n8Tnit2E51lY0Ofo+ATq6o3Y5Z021OYTVGDlRAq45zuyhOeA4ZDk52eE5nw91ORI2OzlB2R85fgab\r\nOY8bMjkQ1TA5cCaFOXju/Dh2ghM59YD8OFHmfzmnKiQ58YpfOXsbtzlCtX45yEWKOLGkLDkayH45\r\nRUrSOSltyTgvk1U5NT2NOY45EjnfihY5JFlqOTokTjlSlV45Ir54OQ1W5jifjjI5bWS5OfA8NDkO\r\nXs44QhjgOLbnOjkr+iw5hK5/Ocz3Azl6HF45q6DlOIJb2DiR79I4esU3OWtGjDg4gBM5cVloOdzR\r\nDTlkchs5GGg7OVSTtziXOeg4XazEOCiMADmz6Tw5ueqOOVcmeTmS4Ms4nI0UOUTLnjhAXjc56pkE\r\nOdXdBznEOY85PIy4OMxI5zgkSxk5r6oQObvARTnCtUo4LoVEONjrVjnfUsw4msCWOCWAQjlc/y45\r\nJ4KtOCzJrjjGJZ84BKXjOIHj2jhi+yE5rqqOOdCIIzm9fIM56Oo3OUSjtzmiT/M4Wiv3OJw6ETmO\r\nS8w53FJpOdbu1DiJSZs4DaoFOWqKWDkkyvU4GPIdOchJLDmxKwA54MMWOVgzmjgl75M44OcEOVPH\r\n3Dhmzdw4X9sOOb2CyTguC7Y4VgEmOTaQxDjBUAQ5dAM9OarFHjmfj444qMgAOWZMDDmSlas4yUZQ\r\nOaDeMTmPogU5Wxe1OF0m3Dh6aDQ5tbkIObjoEzlqqg45EPLvOKyF+zhUmiE57MvFOPg/vDiW+Vo5\r\nmhyzOGFsBTldBEw4dL3pOOk/QDnXnJQ467sNONFyxDfGPDM3rTsZN+BixjZrWTk338GlNhf/FTe5\r\nNTk2RTSUNkMj3Taj0d02is2UNt0UDDYUXvI1aeXFNhijMjbAtYc2ikWgNuphZDY8D1I28gSnNv4k\r\nLTZRYDk2mtYGN70P5DaWBKc2RzXfNlQFKTeHIYk2IpjaNofVszbqlaM2PatTNiKTzDYjx6M2BMHZ\r\nNiXEdDbJOMs2FNCMNsnGRja2BpI2UsiGNvm1vzbR74Q2wLCoNnn3jDa4fK82VqGlNrSAsTYwh5o2\r\n00guNguj5DYiuZI2yg0BN6PItzbTY6w2VXFINoLcTDbWIk82WJ/cNvx6HDZGdqc2ta/1NVwQMDaG\r\n9VE24mqONlq9rDaNiSE2Lay+NpqbcTYGZ3Q2KPqfNicegDbQyZw27RAtNyQhVjazoMU2izz9Npf0\r\njzbhrAg2zKY4Njo2yjZ1hZE2WNZsNrbfvDZiyp42KRFjNr96jjbjaI02RTYRNmwjhzapnyI2B4XY\r\nNltT7jUOLSY20oDqNhJrxDaCZWw2Ct+VNg/LgjZZzMA2Ik1JNrzQuDZxy901azNqNvW2eDaUuVs2\r\ngu+KNta85ja8P/M1FmShNp/ipjb1OIE21Q/2Nr5JmzYXtZU2x6+qNk6LmTZnjYw2mIJGNul2Jjbc\r\nO3A2lquYNuovLTYtgfE1nUlUNgQzNzaIsDM2DIvUNjKBRja+0oY2ExJ5NgPdJzZaSLQ2EtYgN0Wc\r\nDDbIHow2IiiZNgZUVTa1JnM2v3wcNoN3YDYCtgE38JaENkzoaDb0JTc26/WJNoqw9jYFxFI29vNP\r\nNmdCvDZHFIU2xxObNr0sUTblHoc2JrM/NmrbFDYX93o2m4OpNgs6HDaFNl02Rb2TNpjkJjYAADk2\r\n/8chNn7/QTawezM30gsqNidJ8zWKfC02kBYuNmSnnTa80FY2mFN3NkYZWzY4aO41UHmKNkyZiDYh\r\nGC42h1Y6Np6cgzYSij81AnuaNnc6rzZUXG82vp9eNp4h/jWNsEY2k603NuKSjDbHWSo2RxYINlNS\r\nmTaAOlU2yvJmNkqftzZ5VEk26hV8NjWLezbKM9Y1ernFNWi/XDZaEHQ2dhvANhDaRjYMwy82EwC4\r\nNlCNVTbH4IU2Cx1LNk6XlDbcVNA2FB33NQHMjzY6eW02jpZONqrdMTa+lxk267lUNkhoNDZz+TQ3\r\nwulaNoXxEjYQdsQ2lXEcNsiYOjbfz9o2UzpENvQL0TSOQIM10f8gNcLzLzX5w2c1H4efNN2VyTQO\r\nn70011tKNT7aKTUG8/w0QEgiNUCRKjWhXKI03LYLNQzSrjUnb9E0iB65NCpfLzVs4tk0emppNQtw\r\n8zTy2+U0USoLNeRnDTU88Uc19BfdNFPdNDVtA7Q09QQJNdJhKTXqRNg0am3RNG251DQ1KrA0Oj/Y\r\nNOrxkjTQ8cI0+3eXNEYitDR9exs1YvMdNUBR5DR0pQE1EGj5NAq8KTXmxKs0ErgPNTXAAjVM71g1\r\n2McYNch2PjVA3vs0HZGgNJEIOTWY3M40B5RGNGfgUDUIWUw1AAKQNPuJvjRnt4w0M0qUNPpcxjR3\r\nCM0000dJNZjtnTSx6rQ09gISNSzUKjVHscM0TBtXNYWZEDWjpck07HS+NMuEnzTVZ0U1duMGNWCg\r\n6jTs3880YBEXNT+XujRa3bk0wUISNadMADU5AQ411F8ONePs/jS0pjA105FENQ/HnjQmcwg1WPKH\r\nNFq2nTSuOLI0S9MpNbyI/zTAPso0+sXPNPLB3DTur8o0PLbHNPmbnzT+MvY0YjqvNCUXJTXMJp80\r\nndUPNWmVEjXazkY1O5DgNMl4gzVmyAY1rYEfNXmSQTWIrhU1ikoVNSCqpDTaEbY0/AvpNLIwhDSh\r\nIww1MCwENb5Y/zSUBhw1UowYNbXtpzTvlg4155xcNZhCrDRWs9U0k616NIzznjRmnAQ1Khq/NEm9\r\nCTUki940fgEVNZA1JzWkzqg0RtjuNI+WjTW0QRg1omMcNXzDIDUDHKI0NVu3NMMpRDVCjIo0ViIs\r\nNfxAITWCVB81HXTcNB0NXDWG+bE03vcdNf6QMzXAn8s0Eg/NNATJsTQE9U01LMELNX7DoDSIEB41\r\nwLEGNUVbzTQ8Pwo1QFCINBFgFTVn0vo0JOCjNNaR8zQ1vx41DXUDNak+EjUNQYo08gC7NFzPoTSI\r\n7RU1kpUbNYXvKzWOx240VWf0NGRuBzU6PIo0wlCGNT7g9jSWZjw1Ml4BNRvl6jTQR3w1lmHdNGfd\r\nITTobvU0ypuvNEpF+jTjNY40JYO7NCfBbzQijsA0us84Na6J8TQIYwU1V3IrNSwmYTXQ1kU0zKTc\r\nNDTVfzTj6to0SbOuNHwCvTQ/eR01mcuPNPTduTRDjf806a+nNAj20DREKOo0nPlPNQTe+zQNWSo1\r\nlpGmNBv9xzT/tzk1CtkQNapg2jSMQlI1MDUTNRhOMjWh56Q0AygANa8srzRbOwQ187XxNOQlwDSQ\r\nNO80mTAVNaBD6TQbeoo0UM6FNHPMCjV4t7k0gIxkNE02BjXYBQo1AhAcNWJMijS64uA0zd0JNXWm\r\nEDWiijY1ZpSXNNpWpzTYT+k0QHbzNDaorzSGDHs0qT7ONBvuhzSyYys1dPYCNQdToDTk8uU0MwYH\r\nNWYw+TRbj4g1aJxzNHlxCDVIE8c0Nl2SNOyilTRoqUs1KtMvNbhJPjVmcCE12eGANQ1X8jSNKZo0\r\ndGHdNGrcDjXxZ0A0JhPPNJb14jSwx8o0morUNDmP2DTubH40SSbdNE1r7TRT3rk0EZGLNP35LjV1\r\n1640P7XhNLEsczQldYc02X7eNAZ67jSawbI0drgeNb6GtzSMN9U00j4cNQhrBzWSqgw14dAnNYUF\r\nnDTQSpg0P9OMNOHDLTULMsI0QH6VNI2nxDSl5Yc0WHyLNCaeLDXnc6Y0AaCFNBQP7TTJzR41kvoE\r\nNRykHjU6wZw0+cjVNJdR1TSiQQU10AuONaiUkzUExgY1MMYONaRkZTT9EAU11Bu0NC2j3jTIM4A0\r\nal8cNSoRTzXbrSk1FTDYNEBqkjTgDwA1sun9NP5ztDRWob80HSSSNGYkGDWnkuM0RaMANeGLITXo\r\nTow0GNvbNJlRuzSgsOY0CpP5NMVL9jRRErs0aS1TNVNWgDSmPp80Gvy3NBnwGDXWr7M0dB/VNIw8\r\n0DQBkZ410iF5NDXYLTVZSxU1T0S6NHIrqTRzbRA1XDWKNA2phjRVwpo0SPJ1NGzsODX8K6Y0ne6l\r\nNNU3JjWsl7M0wb+kNKhE5TQUaN8041HRNPhNtTRpfuQ09awXNcwLtDS6nqA0qbk4Nbg8qTQ3pSA0\r\nkRS8NLXO0DRqdcQ0b//eNLPvrDQGQu00fPstNS/HMTWPJMc0fIrENBIciDSLv/k00iuaNNjgPDWm\r\not00DFkCNfHQhDTO4qY0xTYDNbDSOTWNTjA1dLcPNZB1uzQDUrY08mkFNZaNRjXzzK00ErsDNVeQ\r\n3zS5HxA1pmTINLQDBTWIxP008Ny+NADrGDWeipI0eMHvM5R6CTWA3x01wRO2NE0PBDXZKrU0GFyV\r\nNOCJrzSgxtE0tQR+NKJP0zTmcMA0zgvvNFJN7TT5eA41x/eHNAie2jTBXoU1JbdYNQAAEDUAZAE8\r\nF6YTPaE6DT5EKNM9dQ3rPVEOUD0ioW480q89PCfdUDzbEfI8OKDUPGwsmDxHYgE9amiBPGR1zjsP\r\nPhU7a3x7OyhGRzygj6g8mBGWPCuBIDwy9E47Dr4TO1iRvDsOzBo7Kk6nOyjG8juQWao70ZvWOxbH\r\n8zuU8n07aPEbPGxKlzygoVs8TMfIO9+xhDsybFY7q+rTO/L8YTx2ZJg8LVf1O0mYPjuCWmQ7fLXf\r\nOt2APzt7zMI7O4D+Ox50Tzw8t+w7lE+pOzStezsIHeo7gHbGO/xxGTz7XIA7vAj1O108gzyol3g7\r\ntww5PFZa6zv7yxw8BjMgPKnvLj13cpY8hhS0PDysuTskGOc6fsrQOrACgDqdYpQ6nrawO0mtIzpq\r\niZQ6oWVXO4pL/Dsyi9U7isI/O5AADzuqPMM6Xcz3OuCjVjsJJAU70nAkO3xeCzuPI4E7G4YiO1p8\r\n7jrINmQ6RKiWOkNYjzquKxk7L5jEOkefiTpiBN05wkIqOcZGDTp6g046RrOpOQ6EwjmtPgQ6e2Gc\r\nOSSjpDlo8ZU55XS9ObmuBzlz4785N8m2OWCrjzo4vB06uHOTOSQohDrAdAk6ttpzOqV9QjpzGTY6\r\n3XEaOsgBjjqKt8k6HvZMOicoGjocq2w6ap4WOhHEADrfCzk63skBOgeJHDrUTnI5YkuiObHDpjmu\r\nSKM5/cCSOf1k+zmMGlI6inluOu+YIDu89m07RVI0O6+Kgzr+5446GKYWOsGMzDkpPtU5IguVOWYu\r\n0Thu2rs5wj2KOYr0Szln8mE5OIzqOdZKbDmJnpY5zvoYORbfcjmJJb45rPudOReeBTpaM7A5gOEv\r\nOfU4rjmBKBo6bN3fOQHYIDpCxO45IMMKOhDuqjnu5385nKuKOcsUJTnO6QY6IssJOqWwlTkE/nk5\r\n982pOYJKFzlMEgc5kM8qOTzQSjkjjFw5oLMhOb3XTTlwQiA5qwrfOFyxBDkkj0w5MGaVOpPkyzkA\r\nWYw5x/dWOdTGaDnThQM6cUq4OS/ykTn8pTU5cg8tOjmUnzmJETc5yAicOQHqsTm7VQY6AgbzOcxp\r\nYTnUlDk5COb3OVNucjnJjtA5lvYsOVSTlDlbCZA5jieCOevY/jld/5M5ZAsQOQCjIjmaXZk5X2sk\r\nOaKvQDn3w2A5sFLsOCInSDnjTPU4Pw52ORiOFTnxB085aOe5Oeymfzkdh5Q4b9kUOTcjiDlltOQ5\r\nW97hOK93TDk6TJo5GxUROfmZKDmqWVg5gnArOZiUUTljp2g5VN4COa51OjmCG6857I8hOQJUyDiy\r\nFeY4PzlIOQnaEjkNa105LJgJOedSTTmft9w4RFvhOEMPBjkBNUc5IxKaOKB0AzlHK0Y5uzfsOA7s\r\nCTnIO1A5K33WOKFk2jjp16849C8QOWZpPTn28K85JD91Ocr4pTiAdCY50TmeOH4OPTl/1vM4rUTC\r\nOKr9azkWMbo4F7ngOLhyVDn8tgw5pjZnOXrXVTgwxCo4OQx/OXmv4TiOkZs4EjRhOc/BKzm9HJg4\r\nmNmEOBptqTgOwN44isnuOMjHEDkVGqA5ZsgfOcwJgTn/qS85F5G9OSUi8Th4/wU58kwEOcGM0znk\r\nW1o5KBbSOPxmrjgoieg4mOJqOacY5jhwBhY5iXUjOeCfAjn89RI53mOTOE5nnDgXwQo59x/YOLsN\r\nvzisAgg5ZZXBONJSyTg4ChA5g0OvOOLhCzk2PkQ5yZUgOf1/lTgIavM4G5cEObRwszj5plM54Ngg\r\nOTpfCjmgXsE4/c7tOPbIHjng2QM52pkWOVEIBjnWdfE44lgEOVkCJTm3Js04paCwOJruaDnED7c4\r\nlngHOd1wSThLgdw4+MM6OWkNiTjQTig4ZOnTNxI6RTeeDew2cZ29Nv7NAjclhNM2iMnzNsyKczZM\r\nTqE2NwIANyN0CjdyN5Q2WgazNq/6RTZdvu82CgJ2NnBTbzZ2Y8g2nCmlNornMTbyM/U2XdYuNnYx\r\nDDZETwI3eL+nNkEyGTdWc042Yb0WNzGqlDaNeNI2vHqNNkA4sDYmdYE2+cmANhHYVzaKnIs2sgCG\r\nNgmRtTZMoZo22v10NnRMhzYJ96I2OKTLNuYomzb9GYQ2aZ4gNg34YTYuHZo2W3zKNg54fjYZjkw2\r\nf2wUN3Od0TYrN5w2qv+fNtmNlTawHlI20q1xNtWcgzbalsQ2aqh0NqiRqzZJr+Y1tKkfNvwthjbs\r\njso2aMOjNjtLWzaqzNg2QuVVNvmDcTZsOcU2ODthNmCKmjZkwsw2JO2RNrvV7zZ/j5g2X3SCNuWv\r\njDatdLA22aTFNuHopjZGQ1k280BwNm9ZdzZuF3o2uV16NukrgjZ0cmI2oP0yNtheUDbrCZM2IZD3\r\nNcjiiDbmV9M2x6S6NnU/pzZADwg2huV1NusKwzZOBTQ2+FGNNgbaCjZtFJo2oEWzNnsKijZWeO02\r\nGtuJNu8IdjY49Yg2Mr2ANg3ZzjZiM+s2PSKeNoMphDa/F582hoJcNt0QxjZWOKM2KJ8XNqxVQjbY\r\ngaI2GZ6aNs0bpTU+g5g2tEowNtIkZDYOlas2ZR1xNtIkgzZRo4A2kxo0Nq+R7DZCmS43Jnh6NgQS\r\nbDb4RYg2lNw9NuvPkzYiw3I2yo89NhID7TYcIIw26OkjNrMkKzbG26s2fgyyNkykhTarGu41ZVyZ\r\nNs59hja4/3g2DVwlNg8S/DWud6U2N9IvNgCXSjbgmnM2uSBPNn7iXza+E8Q2IrczNgAgGTbUpLw1\r\nmKpzNoJSGzdiAoM2ZpDFNfrlFDY4tAI2RI+mNgX6UTb+VoU2addaNhrNCTZZFHA2uMncNXzMSzbJ\r\nKYk2chpoNlUqsTVQL942eABrNmzNjTZ3X0o2gnWBNn72gTZLTEE2lwQzNgfuCjaKZ0A2Cn+pNqDa\r\nNzbbTXE2Jn7UNu4UKDZVMoQ2j46fNsCxMzbOjB026lnINRYmezYubI02j29ONiv6jzYkvQU24bo/\r\nNlRyPzacL0c24hOWNpYhiDbn4/U1XMKXNjdHgzYwUO01kmwQNsrkGjZWzx02IdkDNtNSCTdR2VE2\r\nthtfNuRpyzaptiM2tEQ0Nkz1XDaF2zA2q9VKNcwlKDW1Wt007vuJNFq4yzRjGzI175BhNbYW/jTC\r\n50I1fp2dNJ2JFzXcfBY1j6wVNck7ADXKUgk1IqzANOh0JjVVrrw0Msw2NZKFGTUaPUI1fBNaNcVN\r\nSTUON7Q0P4fQNFKuFzUxPlU1sICqNGd1ajTm2QI1i7CcNE6RhzRis6A0+Hg7Nbaz2zTd5O41Lo6Q\r\nNCC46jRqY4k02LwPNQsD+zQS2kY1DgsZNQCcHDWKMa00NY4gNbBtFDXqiRc1oiMKNXSGhzRgRxs1\r\nsvCONXglnTQaJsk0VZcVNTwSAjVbovE0HAgiNYYOkDWs+Bk1NoTxNOmQHzWwgbI0cTRKNEIM5zRm\r\n0Eo1Lt3NNDT7uTSlUH81fpTdNNbDuDR5QIA1bivBNDg8tDTqSAw1juzKNPjckTXYQus0QHrGNAe/\r\nzjT+Kxk1k1EENS6XETW7x+g0SgvDNLGCvzSIgvk0RU2fNNSwojQOc7k03IPMNCf6ETV8ef00kiUz\r\nNaCP5DSyjgI1NzurNDzYBDVnrxg1wWfANHpDdjTTMLM0SyeuNCZrpDTpSwg1kQXWNKnmtjTd4L00\r\nCjEvNe+3XjWZAko1Ym35NPTQoTRMXRI1/Kv1NNnw+TREn580ApgENQioMTUc6Qw1wGDtNMWVAjX6\r\nRmI1CN1MNL0nqzQdttc0yKQdNbOO9jSg9bU00Ta0NPpG8jRwfn81zM+VNG1DtzQjBjQ133YnNRiY\r\nzzSD58A0vVEGNeQz7TQc+8c0alDxNOYeqTRZjwM1A1X7NKFF9DRfJtM0Vc0BNUYGIjUIksE0MIwp\r\nNYA4xDQyT2E0+rrONBaUKjWcVbs0lgEXNQhoLjVqYfM0QkIHNXxZBjWjN9A04CoHNf4JgzRmC1I1\r\nHvk2NR48nDSMgG00Zf32NNotNDWhucs0OhP6NCbLvjSa08g0UXkUNWHkGjU2b7M0Jjf1NNWAHTX2\r\nAKk0D22rNDpwCjVAdSE1wIe3NKki1DQ7h1c0c56RNM+EHDWeNvs0MQ70NEBr+DSzItM00gbWNHQw\r\nKDULfMQ0x//kNPxv2TTQtDM1WH4UNV82NTXQGQs1zfzkNE4e5zQRzgg1/pbnNGCS0TTOFd40v6/x\r\nNAS1tjRCvqU0IwneNHHchzWWIeA0UM+4NK8f9TRyIZM0h7UINdtvGDWwIMU0f+g7NQZH3jSvXyg1\r\nQFDUNEfN1zTFaJE0vTVhNZhtEzVsOCo1lI2DNKvBcDU7hyA1G3lgNdKy/jT5BOE0W5yZNMVKxTQt\r\nffo0UfUYNfYY1jRmNic1cjOcNHhM3TQltw01y+wGNdUXAzWjaYQ1EAGsNAMnHTXG2Ok0b2sZNdaU\r\nnTTqTu80BYtpNRavBjXpXoY0gY8TNRz6MzTZ+bU0CwEyNeatmjTYpAw1XQ0NNS4fMDUD3N80w5kB\r\nNbZ+wDSHwM80LsdINflVQTXijxU12ckXNexXHTV3aAk1Y0gINRwPEzWrSkk1gEhcNcKckzRnQdM0\r\nylE8NZTlGjWZRXo1mYPiNKOIGDX9VSk1SDywNE/uAjVE05U0/LpeNYJ8uDT+TwI1K57TNKdFFTVQ\r\nmmw1bxHxNNasyjTwQdg0uDi0NKQl/jRwNLM0eBffNHVFvDRC6IA0QxjQNA8uczQLG6o0fGK7NO7j\r\nmzQBYqc0PLzWNLgI9DTcW6Q0a0AZNYg9STUbsVQ1+5sfNVyxoTRchak0ZlS/NIZF8DQC/LA0KHW2\r\nNAKVBzVhPRg1IxGrNNrwCDVtxBU1lnAcNYeauTTwp/s0RXHANLDJwzTVLtw0yWgLNdyaGTVZOe00\r\nJFcoNZ6B7TQG/MU0+DEUNQFt/DRtlSo14IBuNQxXyzRAZsw0OmxvNepc4TQsbOo0BX5pNeLZFjVa\r\nUP00/NC+NDfFxzSk/Jk0Xv9WNFcJFTUkCfs0nPhONWb3szQLn8U07ItQNLGo0DSMwQE17Z/PNNec\r\n0zRaof0076bINOo8GzXNlYU0hEQkNTyH5jT2YwU1rPNDNQ/OwzRUsuM0rNi/NPhc8DQKmUg1hNDu\r\nNFsmCjUDuzw1VasyNef7cjVSnrA0plT5NKXLhzSFNZ00Ed+nNCFdUDUWMQI1JJnbNNcqvjQMb+40\r\nMCZxNWBYzTTT7DQ1EXZRNffmaTV+3a80W4eUNHE8DjXgGu40gRDrNBPuqjTmEDY1ol3ONJbeJTVU\r\n2RE1pL7HNICD5TRWWw816jZdNU5+4zSdEBA1+UiKNPe7OzXoSB81ciQHNY2hujSihSE1Zmy4NC66\r\njjSDV6M0zDuqNH8orDToE6s0mAmlNNh/LDUtZTA1POHGNHfLdzTbIis17ZIdNZocBDVvRKE0QmwB\r\nNYXQijQkWAs1oC2hNA2Z5TSh2c00fEGaNMT8ujTDZ5w0Y1z7NI2ELjWyxiA1AEAcNQ==",
                            "noiseTrainingType" : "default"
                          }
                        }
                    ],
                    "start" : 2964,
                    "duration" : 48,
                    "mediaStart" : 3562,
                    "mediaDuration" : 48,
                    "scalar" : 1,
                    "metadata" : {
                      "WinSubProjectDisplayName" : "",
                      "clipSpeedAttribute" : false
                    },
                    "animationTracks" : {

                    }
                  },
                  {
                    "id" : 370,
                    "_type" : "AMFile",
                    "src" : 15,
                    "trackNumber" : 0,
                    "attributes" : {
                      "ident" : "旁白_vis2021 1",
                      "sampleRate" : 44100,
                      "bitDepth" : 16,
                      "gain" : 1.0,
                      "mixToMono" : false
                    },
                      "channelNumber" : "0,1",
                    "effects" : [
                        {
                          "effectName" : "NoiseReduction",
                          "parameters" : {
                            "denoiserAmount" : 20.0,
                            "denoiserThreshold" : 0.0,
                            "noiseProfile" : "OWoAPH2pEz2x9Qw+d6HTPcva6j2sp089E2dtPD6vPDwfl1A8ScjwPJTr1Txy35g8LaEAPTpegDyh\r\n+807XKYVO6TEeztxHEg8k5enPOCDljxR1SA80RNNO5P/FTsAUsA78qcaO7cppTsc2vE7qgSrO6lQ\r\n2jukqvI7h92AO2yWGzx+tZU8JitaPFzIyTuXwYE7uY9XO8aQ0Dvqq2I88amYPMnb9DtB2j87KTBk\r\nOzy52zoRSDw7OCjBO9xi/DtxwE88KlbqO3j0qDtWJH47VJnsO9JoxDuANhs8tJ+AO6Qz9Tth+oI8\r\nbGt3O1T1Nzzjhew74A0cPJAvITwici89BseWPGFNtDxkw7o7MRvlOmld0jryf386QXGZOrHMrzuA\r\ngR46FrCVOsPpWDsY4v07HUbYO1nLPjsw9w47wr3FOrnZ+Drc3FY7lUkJO7DAJDv2mAY7Bol9O6Gv\r\nIjui8ek64NliOq5vmTrG/ZM6bCYbO5q5tzpF2YA69unhOXdvJDkMXx461iVVOpU6tTmIPdU5NZ4C\r\nOrLzrDlzv6053gyzOSasszlLTgc5O7atOcYrxzkKtYw6r9cjOpoinjlRRog6Q9QHOqLsbTo5k0E6\r\n9U47OqgHGzq2DIw6xrvIOkIITzrGgR86I/hwOsTOFzq0IQU6isQ5OkIP9DmC+Bw6hsx0OYy4pDnt\r\nMqk5f6afOfFKnDnqIvc5SsRQOpXvdDp8CiE703psOwEALztW+4A6r36ROtKuGDoo4s852RrZOQKM\r\nhDmkgtY4CBe5OXJ5jDnBcjY5RM9jObGZ+DmyHG05aluSOaagETnIyGM5Jt2dOdUxnTmBHwU6PPyu\r\nOQ2PETl6x7k5tcInOtV63TnmcCY6dHftOUWtBzoIt6w5qk+GOf1mbTk4DT454wsLOh2HAjoY+ZY5\r\nyr2VOQQurzmqnRg5LDMFOZLQUjkvV1Q5/g1+OSlxFzlITz85XmAkOdDG/DjiIfM4htxWOREUlTqh\r\nwcw5VnaGOWCBXjn90lA5cKzvOWPrqzkL/o45sEFOOTkyMDpUc5s51oo9ORByjjlGCco52p/tORKy\r\n8Tnit2E51lY0Ofo+ATq6o3Y5Z021OYTVGDlRAq45zuyhOeA4ZDk52eE5nw91ORI2OzlB2R85fgab\r\nOY8bMjkQ1TA5cCaFOXju/Dh2ghM59YD8OFHmfzmnKiQ58YpfOXsbtzlCtX45yEWKOLGkLDkayH45\r\nRUrSOSltyTgvk1U5NT2NOY45EjnfihY5JFlqOTokTjlSlV45Ir54OQ1W5jifjjI5bWS5OfA8NDkO\r\nXs44QhjgOLbnOjkr+iw5hK5/Ocz3Azl6HF45q6DlOIJb2DiR79I4esU3OWtGjDg4gBM5cVloOdzR\r\nDTlkchs5GGg7OVSTtziXOeg4XazEOCiMADmz6Tw5ueqOOVcmeTmS4Ms4nI0UOUTLnjhAXjc56pkE\r\nOdXdBznEOY85PIy4OMxI5zgkSxk5r6oQObvARTnCtUo4LoVEONjrVjnfUsw4msCWOCWAQjlc/y45\r\nJ4KtOCzJrjjGJZ84BKXjOIHj2jhi+yE5rqqOOdCIIzm9fIM56Oo3OUSjtzmiT/M4Wiv3OJw6ETmO\r\nS8w53FJpOdbu1DiJSZs4DaoFOWqKWDkkyvU4GPIdOchJLDmxKwA54MMWOVgzmjgl75M44OcEOVPH\r\n3Dhmzdw4X9sOOb2CyTguC7Y4VgEmOTaQxDjBUAQ5dAM9OarFHjmfj444qMgAOWZMDDmSlas4yUZQ\r\nOaDeMTmPogU5Wxe1OF0m3Dh6aDQ5tbkIObjoEzlqqg45EPLvOKyF+zhUmiE57MvFOPg/vDiW+Vo5\r\nmhyzOGFsBTldBEw4dL3pOOk/QDnXnJQ467sNONFyxDfGPDM3rTsZN+BixjZrWTk338GlNhf/FTe5\r\nNTk2RTSUNkMj3Taj0d02is2UNt0UDDYUXvI1aeXFNhijMjbAtYc2ikWgNuphZDY8D1I28gSnNv4k\r\nLTZRYDk2mtYGN70P5DaWBKc2RzXfNlQFKTeHIYk2IpjaNofVszbqlaM2PatTNiKTzDYjx6M2BMHZ\r\nNiXEdDbJOMs2FNCMNsnGRja2BpI2UsiGNvm1vzbR74Q2wLCoNnn3jDa4fK82VqGlNrSAsTYwh5o2\r\n00guNguj5DYiuZI2yg0BN6PItzbTY6w2VXFINoLcTDbWIk82WJ/cNvx6HDZGdqc2ta/1NVwQMDaG\r\n9VE24mqONlq9rDaNiSE2Lay+NpqbcTYGZ3Q2KPqfNicegDbQyZw27RAtNyQhVjazoMU2izz9Npf0\r\njzbhrAg2zKY4Njo2yjZ1hZE2WNZsNrbfvDZiyp42KRFjNr96jjbjaI02RTYRNmwjhzapnyI2B4XY\r\nNltT7jUOLSY20oDqNhJrxDaCZWw2Ct+VNg/LgjZZzMA2Ik1JNrzQuDZxy901azNqNvW2eDaUuVs2\r\ngu+KNta85ja8P/M1FmShNp/ipjb1OIE21Q/2Nr5JmzYXtZU2x6+qNk6LmTZnjYw2mIJGNul2Jjbc\r\nO3A2lquYNuovLTYtgfE1nUlUNgQzNzaIsDM2DIvUNjKBRja+0oY2ExJ5NgPdJzZaSLQ2EtYgN0Wc\r\nDDbIHow2IiiZNgZUVTa1JnM2v3wcNoN3YDYCtgE38JaENkzoaDb0JTc26/WJNoqw9jYFxFI29vNP\r\nNmdCvDZHFIU2xxObNr0sUTblHoc2JrM/NmrbFDYX93o2m4OpNgs6HDaFNl02Rb2TNpjkJjYAADk2\r\n/8chNn7/QTawezM30gsqNidJ8zWKfC02kBYuNmSnnTa80FY2mFN3NkYZWzY4aO41UHmKNkyZiDYh\r\nGC42h1Y6Np6cgzYSij81AnuaNnc6rzZUXG82vp9eNp4h/jWNsEY2k603NuKSjDbHWSo2RxYINlNS\r\nmTaAOlU2yvJmNkqftzZ5VEk26hV8NjWLezbKM9Y1ernFNWi/XDZaEHQ2dhvANhDaRjYMwy82EwC4\r\nNlCNVTbH4IU2Cx1LNk6XlDbcVNA2FB33NQHMjzY6eW02jpZONqrdMTa+lxk267lUNkhoNDZz+TQ3\r\nwulaNoXxEjYQdsQ2lXEcNsiYOjbfz9o2UzpENvQL0TSOQIM10f8gNcLzLzX5w2c1H4efNN2VyTQO\r\nn70011tKNT7aKTUG8/w0QEgiNUCRKjWhXKI03LYLNQzSrjUnb9E0iB65NCpfLzVs4tk0emppNQtw\r\n8zTy2+U0USoLNeRnDTU88Uc19BfdNFPdNDVtA7Q09QQJNdJhKTXqRNg0am3RNG251DQ1KrA0Oj/Y\r\nNOrxkjTQ8cI0+3eXNEYitDR9exs1YvMdNUBR5DR0pQE1EGj5NAq8KTXmxKs0ErgPNTXAAjVM71g1\r\n2McYNch2PjVA3vs0HZGgNJEIOTWY3M40B5RGNGfgUDUIWUw1AAKQNPuJvjRnt4w0M0qUNPpcxjR3\r\nCM0000dJNZjtnTSx6rQ09gISNSzUKjVHscM0TBtXNYWZEDWjpck07HS+NMuEnzTVZ0U1duMGNWCg\r\n6jTs3880YBEXNT+XujRa3bk0wUISNadMADU5AQ411F8ONePs/jS0pjA105FENQ/HnjQmcwg1WPKH\r\nNFq2nTSuOLI0S9MpNbyI/zTAPso0+sXPNPLB3DTur8o0PLbHNPmbnzT+MvY0YjqvNCUXJTXMJp80\r\nndUPNWmVEjXazkY1O5DgNMl4gzVmyAY1rYEfNXmSQTWIrhU1ikoVNSCqpDTaEbY0/AvpNLIwhDSh\r\nIww1MCwENb5Y/zSUBhw1UowYNbXtpzTvlg4155xcNZhCrDRWs9U0k616NIzznjRmnAQ1Khq/NEm9\r\nCTUki940fgEVNZA1JzWkzqg0RtjuNI+WjTW0QRg1omMcNXzDIDUDHKI0NVu3NMMpRDVCjIo0ViIs\r\nNfxAITWCVB81HXTcNB0NXDWG+bE03vcdNf6QMzXAn8s0Eg/NNATJsTQE9U01LMELNX7DoDSIEB41\r\nwLEGNUVbzTQ8Pwo1QFCINBFgFTVn0vo0JOCjNNaR8zQ1vx41DXUDNak+EjUNQYo08gC7NFzPoTSI\r\n7RU1kpUbNYXvKzWOx240VWf0NGRuBzU6PIo0wlCGNT7g9jSWZjw1Ml4BNRvl6jTQR3w1lmHdNGfd\r\nITTobvU0ypuvNEpF+jTjNY40JYO7NCfBbzQijsA0us84Na6J8TQIYwU1V3IrNSwmYTXQ1kU0zKTc\r\nNDTVfzTj6to0SbOuNHwCvTQ/eR01mcuPNPTduTRDjf806a+nNAj20DREKOo0nPlPNQTe+zQNWSo1\r\nlpGmNBv9xzT/tzk1CtkQNapg2jSMQlI1MDUTNRhOMjWh56Q0AygANa8srzRbOwQ187XxNOQlwDSQ\r\nNO80mTAVNaBD6TQbeoo0UM6FNHPMCjV4t7k0gIxkNE02BjXYBQo1AhAcNWJMijS64uA0zd0JNXWm\r\nEDWiijY1ZpSXNNpWpzTYT+k0QHbzNDaorzSGDHs0qT7ONBvuhzSyYys1dPYCNQdToDTk8uU0MwYH\r\nNWYw+TRbj4g1aJxzNHlxCDVIE8c0Nl2SNOyilTRoqUs1KtMvNbhJPjVmcCE12eGANQ1X8jSNKZo0\r\ndGHdNGrcDjXxZ0A0JhPPNJb14jSwx8o0morUNDmP2DTubH40SSbdNE1r7TRT3rk0EZGLNP35LjV1\r\n1640P7XhNLEsczQldYc02X7eNAZ67jSawbI0drgeNb6GtzSMN9U00j4cNQhrBzWSqgw14dAnNYUF\r\nnDTQSpg0P9OMNOHDLTULMsI0QH6VNI2nxDSl5Yc0WHyLNCaeLDXnc6Y0AaCFNBQP7TTJzR41kvoE\r\nNRykHjU6wZw0+cjVNJdR1TSiQQU10AuONaiUkzUExgY1MMYONaRkZTT9EAU11Bu0NC2j3jTIM4A0\r\nal8cNSoRTzXbrSk1FTDYNEBqkjTgDwA1sun9NP5ztDRWob80HSSSNGYkGDWnkuM0RaMANeGLITXo\r\nTow0GNvbNJlRuzSgsOY0CpP5NMVL9jRRErs0aS1TNVNWgDSmPp80Gvy3NBnwGDXWr7M0dB/VNIw8\r\n0DQBkZ410iF5NDXYLTVZSxU1T0S6NHIrqTRzbRA1XDWKNA2phjRVwpo0SPJ1NGzsODX8K6Y0ne6l\r\nNNU3JjWsl7M0wb+kNKhE5TQUaN8041HRNPhNtTRpfuQ09awXNcwLtDS6nqA0qbk4Nbg8qTQ3pSA0\r\nkRS8NLXO0DRqdcQ0b//eNLPvrDQGQu00fPstNS/HMTWPJMc0fIrENBIciDSLv/k00iuaNNjgPDWm\r\not00DFkCNfHQhDTO4qY0xTYDNbDSOTWNTjA1dLcPNZB1uzQDUrY08mkFNZaNRjXzzK00ErsDNVeQ\r\n3zS5HxA1pmTINLQDBTWIxP008Ny+NADrGDWeipI0eMHvM5R6CTWA3x01wRO2NE0PBDXZKrU0GFyV\r\nNOCJrzSgxtE0tQR+NKJP0zTmcMA0zgvvNFJN7TT5eA41x/eHNAie2jTBXoU1JbdYNQAAEDUAZAE8\r\nF6YTPaE6DT5EKNM9dQ3rPVEOUD0ioW480q89PCfdUDzbEfI8OKDUPGwsmDxHYgE9amiBPGR1zjsP\r\nPhU7a3x7OyhGRzygj6g8mBGWPCuBIDwy9E47Dr4TO1iRvDsOzBo7Kk6nOyjG8juQWao70ZvWOxbH\r\n8zuU8n07aPEbPGxKlzygoVs8TMfIO9+xhDsybFY7q+rTO/L8YTx2ZJg8LVf1O0mYPjuCWmQ7fLXf\r\nOt2APzt7zMI7O4D+Ox50Tzw8t+w7lE+pOzStezsIHeo7gHbGO/xxGTz7XIA7vAj1O108gzyol3g7\r\ntww5PFZa6zv7yxw8BjMgPKnvLj13cpY8hhS0PDysuTskGOc6fsrQOrACgDqdYpQ6nrawO0mtIzpq\r\niZQ6oWVXO4pL/Dsyi9U7isI/O5AADzuqPMM6Xcz3OuCjVjsJJAU70nAkO3xeCzuPI4E7G4YiO1p8\r\n7jrINmQ6RKiWOkNYjzquKxk7L5jEOkefiTpiBN05wkIqOcZGDTp6g046RrOpOQ6EwjmtPgQ6e2Gc\r\nOSSjpDlo8ZU55XS9ObmuBzlz4785N8m2OWCrjzo4vB06uHOTOSQohDrAdAk6ttpzOqV9QjpzGTY6\r\n3XEaOsgBjjqKt8k6HvZMOicoGjocq2w6ap4WOhHEADrfCzk63skBOgeJHDrUTnI5YkuiObHDpjmu\r\nSKM5/cCSOf1k+zmMGlI6inluOu+YIDu89m07RVI0O6+Kgzr+5446GKYWOsGMzDkpPtU5IguVOWYu\r\n0Thu2rs5wj2KOYr0Szln8mE5OIzqOdZKbDmJnpY5zvoYORbfcjmJJb45rPudOReeBTpaM7A5gOEv\r\nOfU4rjmBKBo6bN3fOQHYIDpCxO45IMMKOhDuqjnu5385nKuKOcsUJTnO6QY6IssJOqWwlTkE/nk5\r\n982pOYJKFzlMEgc5kM8qOTzQSjkjjFw5oLMhOb3XTTlwQiA5qwrfOFyxBDkkj0w5MGaVOpPkyzkA\r\nWYw5x/dWOdTGaDnThQM6cUq4OS/ykTn8pTU5cg8tOjmUnzmJETc5yAicOQHqsTm7VQY6AgbzOcxp\r\nYTnUlDk5COb3OVNucjnJjtA5lvYsOVSTlDlbCZA5jieCOevY/jld/5M5ZAsQOQCjIjmaXZk5X2sk\r\nOaKvQDn3w2A5sFLsOCInSDnjTPU4Pw52ORiOFTnxB085aOe5Oeymfzkdh5Q4b9kUOTcjiDlltOQ5\r\nW97hOK93TDk6TJo5GxUROfmZKDmqWVg5gnArOZiUUTljp2g5VN4COa51OjmCG6857I8hOQJUyDiy\r\nFeY4PzlIOQnaEjkNa105LJgJOedSTTmft9w4RFvhOEMPBjkBNUc5IxKaOKB0AzlHK0Y5uzfsOA7s\r\nCTnIO1A5K33WOKFk2jjp16849C8QOWZpPTn28K85JD91Ocr4pTiAdCY50TmeOH4OPTl/1vM4rUTC\r\nOKr9azkWMbo4F7ngOLhyVDn8tgw5pjZnOXrXVTgwxCo4OQx/OXmv4TiOkZs4EjRhOc/BKzm9HJg4\r\nmNmEOBptqTgOwN44isnuOMjHEDkVGqA5ZsgfOcwJgTn/qS85F5G9OSUi8Th4/wU58kwEOcGM0znk\r\nW1o5KBbSOPxmrjgoieg4mOJqOacY5jhwBhY5iXUjOeCfAjn89RI53mOTOE5nnDgXwQo59x/YOLsN\r\nvzisAgg5ZZXBONJSyTg4ChA5g0OvOOLhCzk2PkQ5yZUgOf1/lTgIavM4G5cEObRwszj5plM54Ngg\r\nOTpfCjmgXsE4/c7tOPbIHjng2QM52pkWOVEIBjnWdfE44lgEOVkCJTm3Js04paCwOJruaDnED7c4\r\nlngHOd1wSThLgdw4+MM6OWkNiTjQTig4ZOnTNxI6RTeeDew2cZ29Nv7NAjclhNM2iMnzNsyKczZM\r\nTqE2NwIANyN0CjdyN5Q2WgazNq/6RTZdvu82CgJ2NnBTbzZ2Y8g2nCmlNornMTbyM/U2XdYuNnYx\r\nDDZETwI3eL+nNkEyGTdWc042Yb0WNzGqlDaNeNI2vHqNNkA4sDYmdYE2+cmANhHYVzaKnIs2sgCG\r\nNgmRtTZMoZo22v10NnRMhzYJ96I2OKTLNuYomzb9GYQ2aZ4gNg34YTYuHZo2W3zKNg54fjYZjkw2\r\nf2wUN3Od0TYrN5w2qv+fNtmNlTawHlI20q1xNtWcgzbalsQ2aqh0NqiRqzZJr+Y1tKkfNvwthjbs\r\njso2aMOjNjtLWzaqzNg2QuVVNvmDcTZsOcU2ODthNmCKmjZkwsw2JO2RNrvV7zZ/j5g2X3SCNuWv\r\njDatdLA22aTFNuHopjZGQ1k280BwNm9ZdzZuF3o2uV16NukrgjZ0cmI2oP0yNtheUDbrCZM2IZD3\r\nNcjiiDbmV9M2x6S6NnU/pzZADwg2huV1NusKwzZOBTQ2+FGNNgbaCjZtFJo2oEWzNnsKijZWeO02\r\nGtuJNu8IdjY49Yg2Mr2ANg3ZzjZiM+s2PSKeNoMphDa/F582hoJcNt0QxjZWOKM2KJ8XNqxVQjbY\r\ngaI2GZ6aNs0bpTU+g5g2tEowNtIkZDYOlas2ZR1xNtIkgzZRo4A2kxo0Nq+R7DZCmS43Jnh6NgQS\r\nbDb4RYg2lNw9NuvPkzYiw3I2yo89NhID7TYcIIw26OkjNrMkKzbG26s2fgyyNkykhTarGu41ZVyZ\r\nNs59hja4/3g2DVwlNg8S/DWud6U2N9IvNgCXSjbgmnM2uSBPNn7iXza+E8Q2IrczNgAgGTbUpLw1\r\nmKpzNoJSGzdiAoM2ZpDFNfrlFDY4tAI2RI+mNgX6UTb+VoU2addaNhrNCTZZFHA2uMncNXzMSzbJ\r\nKYk2chpoNlUqsTVQL942eABrNmzNjTZ3X0o2gnWBNn72gTZLTEE2lwQzNgfuCjaKZ0A2Cn+pNqDa\r\nNzbbTXE2Jn7UNu4UKDZVMoQ2j46fNsCxMzbOjB026lnINRYmezYubI02j29ONiv6jzYkvQU24bo/\r\nNlRyPzacL0c24hOWNpYhiDbn4/U1XMKXNjdHgzYwUO01kmwQNsrkGjZWzx02IdkDNtNSCTdR2VE2\r\nthtfNuRpyzaptiM2tEQ0Nkz1XDaF2zA2q9VKNcwlKDW1Wt007vuJNFq4yzRjGzI175BhNbYW/jTC\r\n50I1fp2dNJ2JFzXcfBY1j6wVNck7ADXKUgk1IqzANOh0JjVVrrw0Msw2NZKFGTUaPUI1fBNaNcVN\r\nSTUON7Q0P4fQNFKuFzUxPlU1sICqNGd1ajTm2QI1i7CcNE6RhzRis6A0+Hg7Nbaz2zTd5O41Lo6Q\r\nNCC46jRqY4k02LwPNQsD+zQS2kY1DgsZNQCcHDWKMa00NY4gNbBtFDXqiRc1oiMKNXSGhzRgRxs1\r\nsvCONXglnTQaJsk0VZcVNTwSAjVbovE0HAgiNYYOkDWs+Bk1NoTxNOmQHzWwgbI0cTRKNEIM5zRm\r\n0Eo1Lt3NNDT7uTSlUH81fpTdNNbDuDR5QIA1bivBNDg8tDTqSAw1juzKNPjckTXYQus0QHrGNAe/\r\nzjT+Kxk1k1EENS6XETW7x+g0SgvDNLGCvzSIgvk0RU2fNNSwojQOc7k03IPMNCf6ETV8ef00kiUz\r\nNaCP5DSyjgI1NzurNDzYBDVnrxg1wWfANHpDdjTTMLM0SyeuNCZrpDTpSwg1kQXWNKnmtjTd4L00\r\nCjEvNe+3XjWZAko1Ym35NPTQoTRMXRI1/Kv1NNnw+TREn580ApgENQioMTUc6Qw1wGDtNMWVAjX6\r\nRmI1CN1MNL0nqzQdttc0yKQdNbOO9jSg9bU00Ta0NPpG8jRwfn81zM+VNG1DtzQjBjQ133YnNRiY\r\nzzSD58A0vVEGNeQz7TQc+8c0alDxNOYeqTRZjwM1A1X7NKFF9DRfJtM0Vc0BNUYGIjUIksE0MIwp\r\nNYA4xDQyT2E0+rrONBaUKjWcVbs0lgEXNQhoLjVqYfM0QkIHNXxZBjWjN9A04CoHNf4JgzRmC1I1\r\nHvk2NR48nDSMgG00Zf32NNotNDWhucs0OhP6NCbLvjSa08g0UXkUNWHkGjU2b7M0Jjf1NNWAHTX2\r\nAKk0D22rNDpwCjVAdSE1wIe3NKki1DQ7h1c0c56RNM+EHDWeNvs0MQ70NEBr+DSzItM00gbWNHQw\r\nKDULfMQ0x//kNPxv2TTQtDM1WH4UNV82NTXQGQs1zfzkNE4e5zQRzgg1/pbnNGCS0TTOFd40v6/x\r\nNAS1tjRCvqU0IwneNHHchzWWIeA0UM+4NK8f9TRyIZM0h7UINdtvGDWwIMU0f+g7NQZH3jSvXyg1\r\nQFDUNEfN1zTFaJE0vTVhNZhtEzVsOCo1lI2DNKvBcDU7hyA1G3lgNdKy/jT5BOE0W5yZNMVKxTQt\r\nffo0UfUYNfYY1jRmNic1cjOcNHhM3TQltw01y+wGNdUXAzWjaYQ1EAGsNAMnHTXG2Ok0b2sZNdaU\r\nnTTqTu80BYtpNRavBjXpXoY0gY8TNRz6MzTZ+bU0CwEyNeatmjTYpAw1XQ0NNS4fMDUD3N80w5kB\r\nNbZ+wDSHwM80LsdINflVQTXijxU12ckXNexXHTV3aAk1Y0gINRwPEzWrSkk1gEhcNcKckzRnQdM0\r\nylE8NZTlGjWZRXo1mYPiNKOIGDX9VSk1SDywNE/uAjVE05U0/LpeNYJ8uDT+TwI1K57TNKdFFTVQ\r\nmmw1bxHxNNasyjTwQdg0uDi0NKQl/jRwNLM0eBffNHVFvDRC6IA0QxjQNA8uczQLG6o0fGK7NO7j\r\nmzQBYqc0PLzWNLgI9DTcW6Q0a0AZNYg9STUbsVQ1+5sfNVyxoTRchak0ZlS/NIZF8DQC/LA0KHW2\r\nNAKVBzVhPRg1IxGrNNrwCDVtxBU1lnAcNYeauTTwp/s0RXHANLDJwzTVLtw0yWgLNdyaGTVZOe00\r\nJFcoNZ6B7TQG/MU0+DEUNQFt/DRtlSo14IBuNQxXyzRAZsw0OmxvNepc4TQsbOo0BX5pNeLZFjVa\r\nUP00/NC+NDfFxzSk/Jk0Xv9WNFcJFTUkCfs0nPhONWb3szQLn8U07ItQNLGo0DSMwQE17Z/PNNec\r\n0zRaof0076bINOo8GzXNlYU0hEQkNTyH5jT2YwU1rPNDNQ/OwzRUsuM0rNi/NPhc8DQKmUg1hNDu\r\nNFsmCjUDuzw1VasyNef7cjVSnrA0plT5NKXLhzSFNZ00Ed+nNCFdUDUWMQI1JJnbNNcqvjQMb+40\r\nMCZxNWBYzTTT7DQ1EXZRNffmaTV+3a80W4eUNHE8DjXgGu40gRDrNBPuqjTmEDY1ol3ONJbeJTVU\r\n2RE1pL7HNICD5TRWWw816jZdNU5+4zSdEBA1+UiKNPe7OzXoSB81ciQHNY2hujSihSE1Zmy4NC66\r\njjSDV6M0zDuqNH8orDToE6s0mAmlNNh/LDUtZTA1POHGNHfLdzTbIis17ZIdNZocBDVvRKE0QmwB\r\nNYXQijQkWAs1oC2hNA2Z5TSh2c00fEGaNMT8ujTDZ5w0Y1z7NI2ELjWyxiA1AEAcNQ==",
                            "noiseTrainingType" : "default"
                          }
                        }
                    ],
                    "start" : 3012,
                    "duration" : 335,
                    "mediaStart" : 3832,
                    "mediaDuration" : 335,
                    "scalar" : 1,
                    "metadata" : {
                      "WinSubProjectDisplayName" : "",
                      "clipSpeedAttribute" : false
                    },
                    "animationTracks" : {

                    }
                  },
                  {
                    "id" : 371,
                    "_type" : "AMFile",
                    "src" : 15,
                    "trackNumber" : 0,
                    "attributes" : {
                      "ident" : "旁白_vis2021 1",
                      "sampleRate" : 44100,
                      "bitDepth" : 16,
                      "gain" : 1.0,
                      "mixToMono" : false
                    },
                      "channelNumber" : "0,1",
                    "effects" : [
                        {
                          "effectName" : "NoiseReduction",
                          "parameters" : {
                            "denoiserAmount" : 20.0,
                            "denoiserThreshold" : 0.0,
                            "noiseProfile" : "OWoAPH2pEz2x9Qw+d6HTPcva6j2sp089E2dtPD6vPDwfl1A8ScjwPJTr1Txy35g8LaEAPTpegDyh\r\n+807XKYVO6TEeztxHEg8k5enPOCDljxR1SA80RNNO5P/FTsAUsA78qcaO7cppTsc2vE7qgSrO6lQ\r\n2jukqvI7h92AO2yWGzx+tZU8JitaPFzIyTuXwYE7uY9XO8aQ0Dvqq2I88amYPMnb9DtB2j87KTBk\r\nOzy52zoRSDw7OCjBO9xi/DtxwE88KlbqO3j0qDtWJH47VJnsO9JoxDuANhs8tJ+AO6Qz9Tth+oI8\r\nbGt3O1T1Nzzjhew74A0cPJAvITwici89BseWPGFNtDxkw7o7MRvlOmld0jryf386QXGZOrHMrzuA\r\ngR46FrCVOsPpWDsY4v07HUbYO1nLPjsw9w47wr3FOrnZ+Drc3FY7lUkJO7DAJDv2mAY7Bol9O6Gv\r\nIjui8ek64NliOq5vmTrG/ZM6bCYbO5q5tzpF2YA69unhOXdvJDkMXx461iVVOpU6tTmIPdU5NZ4C\r\nOrLzrDlzv6053gyzOSasszlLTgc5O7atOcYrxzkKtYw6r9cjOpoinjlRRog6Q9QHOqLsbTo5k0E6\r\n9U47OqgHGzq2DIw6xrvIOkIITzrGgR86I/hwOsTOFzq0IQU6isQ5OkIP9DmC+Bw6hsx0OYy4pDnt\r\nMqk5f6afOfFKnDnqIvc5SsRQOpXvdDp8CiE703psOwEALztW+4A6r36ROtKuGDoo4s852RrZOQKM\r\nhDmkgtY4CBe5OXJ5jDnBcjY5RM9jObGZ+DmyHG05aluSOaagETnIyGM5Jt2dOdUxnTmBHwU6PPyu\r\nOQ2PETl6x7k5tcInOtV63TnmcCY6dHftOUWtBzoIt6w5qk+GOf1mbTk4DT454wsLOh2HAjoY+ZY5\r\nyr2VOQQurzmqnRg5LDMFOZLQUjkvV1Q5/g1+OSlxFzlITz85XmAkOdDG/DjiIfM4htxWOREUlTqh\r\nwcw5VnaGOWCBXjn90lA5cKzvOWPrqzkL/o45sEFOOTkyMDpUc5s51oo9ORByjjlGCco52p/tORKy\r\n8Tnit2E51lY0Ofo+ATq6o3Y5Z021OYTVGDlRAq45zuyhOeA4ZDk52eE5nw91ORI2OzlB2R85fgab\r\nOY8bMjkQ1TA5cCaFOXju/Dh2ghM59YD8OFHmfzmnKiQ58YpfOXsbtzlCtX45yEWKOLGkLDkayH45\r\nRUrSOSltyTgvk1U5NT2NOY45EjnfihY5JFlqOTokTjlSlV45Ir54OQ1W5jifjjI5bWS5OfA8NDkO\r\nXs44QhjgOLbnOjkr+iw5hK5/Ocz3Azl6HF45q6DlOIJb2DiR79I4esU3OWtGjDg4gBM5cVloOdzR\r\nDTlkchs5GGg7OVSTtziXOeg4XazEOCiMADmz6Tw5ueqOOVcmeTmS4Ms4nI0UOUTLnjhAXjc56pkE\r\nOdXdBznEOY85PIy4OMxI5zgkSxk5r6oQObvARTnCtUo4LoVEONjrVjnfUsw4msCWOCWAQjlc/y45\r\nJ4KtOCzJrjjGJZ84BKXjOIHj2jhi+yE5rqqOOdCIIzm9fIM56Oo3OUSjtzmiT/M4Wiv3OJw6ETmO\r\nS8w53FJpOdbu1DiJSZs4DaoFOWqKWDkkyvU4GPIdOchJLDmxKwA54MMWOVgzmjgl75M44OcEOVPH\r\n3Dhmzdw4X9sOOb2CyTguC7Y4VgEmOTaQxDjBUAQ5dAM9OarFHjmfj444qMgAOWZMDDmSlas4yUZQ\r\nOaDeMTmPogU5Wxe1OF0m3Dh6aDQ5tbkIObjoEzlqqg45EPLvOKyF+zhUmiE57MvFOPg/vDiW+Vo5\r\nmhyzOGFsBTldBEw4dL3pOOk/QDnXnJQ467sNONFyxDfGPDM3rTsZN+BixjZrWTk338GlNhf/FTe5\r\nNTk2RTSUNkMj3Taj0d02is2UNt0UDDYUXvI1aeXFNhijMjbAtYc2ikWgNuphZDY8D1I28gSnNv4k\r\nLTZRYDk2mtYGN70P5DaWBKc2RzXfNlQFKTeHIYk2IpjaNofVszbqlaM2PatTNiKTzDYjx6M2BMHZ\r\nNiXEdDbJOMs2FNCMNsnGRja2BpI2UsiGNvm1vzbR74Q2wLCoNnn3jDa4fK82VqGlNrSAsTYwh5o2\r\n00guNguj5DYiuZI2yg0BN6PItzbTY6w2VXFINoLcTDbWIk82WJ/cNvx6HDZGdqc2ta/1NVwQMDaG\r\n9VE24mqONlq9rDaNiSE2Lay+NpqbcTYGZ3Q2KPqfNicegDbQyZw27RAtNyQhVjazoMU2izz9Npf0\r\njzbhrAg2zKY4Njo2yjZ1hZE2WNZsNrbfvDZiyp42KRFjNr96jjbjaI02RTYRNmwjhzapnyI2B4XY\r\nNltT7jUOLSY20oDqNhJrxDaCZWw2Ct+VNg/LgjZZzMA2Ik1JNrzQuDZxy901azNqNvW2eDaUuVs2\r\ngu+KNta85ja8P/M1FmShNp/ipjb1OIE21Q/2Nr5JmzYXtZU2x6+qNk6LmTZnjYw2mIJGNul2Jjbc\r\nO3A2lquYNuovLTYtgfE1nUlUNgQzNzaIsDM2DIvUNjKBRja+0oY2ExJ5NgPdJzZaSLQ2EtYgN0Wc\r\nDDbIHow2IiiZNgZUVTa1JnM2v3wcNoN3YDYCtgE38JaENkzoaDb0JTc26/WJNoqw9jYFxFI29vNP\r\nNmdCvDZHFIU2xxObNr0sUTblHoc2JrM/NmrbFDYX93o2m4OpNgs6HDaFNl02Rb2TNpjkJjYAADk2\r\n/8chNn7/QTawezM30gsqNidJ8zWKfC02kBYuNmSnnTa80FY2mFN3NkYZWzY4aO41UHmKNkyZiDYh\r\nGC42h1Y6Np6cgzYSij81AnuaNnc6rzZUXG82vp9eNp4h/jWNsEY2k603NuKSjDbHWSo2RxYINlNS\r\nmTaAOlU2yvJmNkqftzZ5VEk26hV8NjWLezbKM9Y1ernFNWi/XDZaEHQ2dhvANhDaRjYMwy82EwC4\r\nNlCNVTbH4IU2Cx1LNk6XlDbcVNA2FB33NQHMjzY6eW02jpZONqrdMTa+lxk267lUNkhoNDZz+TQ3\r\nwulaNoXxEjYQdsQ2lXEcNsiYOjbfz9o2UzpENvQL0TSOQIM10f8gNcLzLzX5w2c1H4efNN2VyTQO\r\nn70011tKNT7aKTUG8/w0QEgiNUCRKjWhXKI03LYLNQzSrjUnb9E0iB65NCpfLzVs4tk0emppNQtw\r\n8zTy2+U0USoLNeRnDTU88Uc19BfdNFPdNDVtA7Q09QQJNdJhKTXqRNg0am3RNG251DQ1KrA0Oj/Y\r\nNOrxkjTQ8cI0+3eXNEYitDR9exs1YvMdNUBR5DR0pQE1EGj5NAq8KTXmxKs0ErgPNTXAAjVM71g1\r\n2McYNch2PjVA3vs0HZGgNJEIOTWY3M40B5RGNGfgUDUIWUw1AAKQNPuJvjRnt4w0M0qUNPpcxjR3\r\nCM0000dJNZjtnTSx6rQ09gISNSzUKjVHscM0TBtXNYWZEDWjpck07HS+NMuEnzTVZ0U1duMGNWCg\r\n6jTs3880YBEXNT+XujRa3bk0wUISNadMADU5AQ411F8ONePs/jS0pjA105FENQ/HnjQmcwg1WPKH\r\nNFq2nTSuOLI0S9MpNbyI/zTAPso0+sXPNPLB3DTur8o0PLbHNPmbnzT+MvY0YjqvNCUXJTXMJp80\r\nndUPNWmVEjXazkY1O5DgNMl4gzVmyAY1rYEfNXmSQTWIrhU1ikoVNSCqpDTaEbY0/AvpNLIwhDSh\r\nIww1MCwENb5Y/zSUBhw1UowYNbXtpzTvlg4155xcNZhCrDRWs9U0k616NIzznjRmnAQ1Khq/NEm9\r\nCTUki940fgEVNZA1JzWkzqg0RtjuNI+WjTW0QRg1omMcNXzDIDUDHKI0NVu3NMMpRDVCjIo0ViIs\r\nNfxAITWCVB81HXTcNB0NXDWG+bE03vcdNf6QMzXAn8s0Eg/NNATJsTQE9U01LMELNX7DoDSIEB41\r\nwLEGNUVbzTQ8Pwo1QFCINBFgFTVn0vo0JOCjNNaR8zQ1vx41DXUDNak+EjUNQYo08gC7NFzPoTSI\r\n7RU1kpUbNYXvKzWOx240VWf0NGRuBzU6PIo0wlCGNT7g9jSWZjw1Ml4BNRvl6jTQR3w1lmHdNGfd\r\nITTobvU0ypuvNEpF+jTjNY40JYO7NCfBbzQijsA0us84Na6J8TQIYwU1V3IrNSwmYTXQ1kU0zKTc\r\nNDTVfzTj6to0SbOuNHwCvTQ/eR01mcuPNPTduTRDjf806a+nNAj20DREKOo0nPlPNQTe+zQNWSo1\r\nlpGmNBv9xzT/tzk1CtkQNapg2jSMQlI1MDUTNRhOMjWh56Q0AygANa8srzRbOwQ187XxNOQlwDSQ\r\nNO80mTAVNaBD6TQbeoo0UM6FNHPMCjV4t7k0gIxkNE02BjXYBQo1AhAcNWJMijS64uA0zd0JNXWm\r\nEDWiijY1ZpSXNNpWpzTYT+k0QHbzNDaorzSGDHs0qT7ONBvuhzSyYys1dPYCNQdToDTk8uU0MwYH\r\nNWYw+TRbj4g1aJxzNHlxCDVIE8c0Nl2SNOyilTRoqUs1KtMvNbhJPjVmcCE12eGANQ1X8jSNKZo0\r\ndGHdNGrcDjXxZ0A0JhPPNJb14jSwx8o0morUNDmP2DTubH40SSbdNE1r7TRT3rk0EZGLNP35LjV1\r\n1640P7XhNLEsczQldYc02X7eNAZ67jSawbI0drgeNb6GtzSMN9U00j4cNQhrBzWSqgw14dAnNYUF\r\nnDTQSpg0P9OMNOHDLTULMsI0QH6VNI2nxDSl5Yc0WHyLNCaeLDXnc6Y0AaCFNBQP7TTJzR41kvoE\r\nNRykHjU6wZw0+cjVNJdR1TSiQQU10AuONaiUkzUExgY1MMYONaRkZTT9EAU11Bu0NC2j3jTIM4A0\r\nal8cNSoRTzXbrSk1FTDYNEBqkjTgDwA1sun9NP5ztDRWob80HSSSNGYkGDWnkuM0RaMANeGLITXo\r\nTow0GNvbNJlRuzSgsOY0CpP5NMVL9jRRErs0aS1TNVNWgDSmPp80Gvy3NBnwGDXWr7M0dB/VNIw8\r\n0DQBkZ410iF5NDXYLTVZSxU1T0S6NHIrqTRzbRA1XDWKNA2phjRVwpo0SPJ1NGzsODX8K6Y0ne6l\r\nNNU3JjWsl7M0wb+kNKhE5TQUaN8041HRNPhNtTRpfuQ09awXNcwLtDS6nqA0qbk4Nbg8qTQ3pSA0\r\nkRS8NLXO0DRqdcQ0b//eNLPvrDQGQu00fPstNS/HMTWPJMc0fIrENBIciDSLv/k00iuaNNjgPDWm\r\not00DFkCNfHQhDTO4qY0xTYDNbDSOTWNTjA1dLcPNZB1uzQDUrY08mkFNZaNRjXzzK00ErsDNVeQ\r\n3zS5HxA1pmTINLQDBTWIxP008Ny+NADrGDWeipI0eMHvM5R6CTWA3x01wRO2NE0PBDXZKrU0GFyV\r\nNOCJrzSgxtE0tQR+NKJP0zTmcMA0zgvvNFJN7TT5eA41x/eHNAie2jTBXoU1JbdYNQAAEDUAZAE8\r\nF6YTPaE6DT5EKNM9dQ3rPVEOUD0ioW480q89PCfdUDzbEfI8OKDUPGwsmDxHYgE9amiBPGR1zjsP\r\nPhU7a3x7OyhGRzygj6g8mBGWPCuBIDwy9E47Dr4TO1iRvDsOzBo7Kk6nOyjG8juQWao70ZvWOxbH\r\n8zuU8n07aPEbPGxKlzygoVs8TMfIO9+xhDsybFY7q+rTO/L8YTx2ZJg8LVf1O0mYPjuCWmQ7fLXf\r\nOt2APzt7zMI7O4D+Ox50Tzw8t+w7lE+pOzStezsIHeo7gHbGO/xxGTz7XIA7vAj1O108gzyol3g7\r\ntww5PFZa6zv7yxw8BjMgPKnvLj13cpY8hhS0PDysuTskGOc6fsrQOrACgDqdYpQ6nrawO0mtIzpq\r\niZQ6oWVXO4pL/Dsyi9U7isI/O5AADzuqPMM6Xcz3OuCjVjsJJAU70nAkO3xeCzuPI4E7G4YiO1p8\r\n7jrINmQ6RKiWOkNYjzquKxk7L5jEOkefiTpiBN05wkIqOcZGDTp6g046RrOpOQ6EwjmtPgQ6e2Gc\r\nOSSjpDlo8ZU55XS9ObmuBzlz4785N8m2OWCrjzo4vB06uHOTOSQohDrAdAk6ttpzOqV9QjpzGTY6\r\n3XEaOsgBjjqKt8k6HvZMOicoGjocq2w6ap4WOhHEADrfCzk63skBOgeJHDrUTnI5YkuiObHDpjmu\r\nSKM5/cCSOf1k+zmMGlI6inluOu+YIDu89m07RVI0O6+Kgzr+5446GKYWOsGMzDkpPtU5IguVOWYu\r\n0Thu2rs5wj2KOYr0Szln8mE5OIzqOdZKbDmJnpY5zvoYORbfcjmJJb45rPudOReeBTpaM7A5gOEv\r\nOfU4rjmBKBo6bN3fOQHYIDpCxO45IMMKOhDuqjnu5385nKuKOcsUJTnO6QY6IssJOqWwlTkE/nk5\r\n982pOYJKFzlMEgc5kM8qOTzQSjkjjFw5oLMhOb3XTTlwQiA5qwrfOFyxBDkkj0w5MGaVOpPkyzkA\r\nWYw5x/dWOdTGaDnThQM6cUq4OS/ykTn8pTU5cg8tOjmUnzmJETc5yAicOQHqsTm7VQY6AgbzOcxp\r\nYTnUlDk5COb3OVNucjnJjtA5lvYsOVSTlDlbCZA5jieCOevY/jld/5M5ZAsQOQCjIjmaXZk5X2sk\r\nOaKvQDn3w2A5sFLsOCInSDnjTPU4Pw52ORiOFTnxB085aOe5Oeymfzkdh5Q4b9kUOTcjiDlltOQ5\r\nW97hOK93TDk6TJo5GxUROfmZKDmqWVg5gnArOZiUUTljp2g5VN4COa51OjmCG6857I8hOQJUyDiy\r\nFeY4PzlIOQnaEjkNa105LJgJOedSTTmft9w4RFvhOEMPBjkBNUc5IxKaOKB0AzlHK0Y5uzfsOA7s\r\nCTnIO1A5K33WOKFk2jjp16849C8QOWZpPTn28K85JD91Ocr4pTiAdCY50TmeOH4OPTl/1vM4rUTC\r\nOKr9azkWMbo4F7ngOLhyVDn8tgw5pjZnOXrXVTgwxCo4OQx/OXmv4TiOkZs4EjRhOc/BKzm9HJg4\r\nmNmEOBptqTgOwN44isnuOMjHEDkVGqA5ZsgfOcwJgTn/qS85F5G9OSUi8Th4/wU58kwEOcGM0znk\r\nW1o5KBbSOPxmrjgoieg4mOJqOacY5jhwBhY5iXUjOeCfAjn89RI53mOTOE5nnDgXwQo59x/YOLsN\r\nvzisAgg5ZZXBONJSyTg4ChA5g0OvOOLhCzk2PkQ5yZUgOf1/lTgIavM4G5cEObRwszj5plM54Ngg\r\nOTpfCjmgXsE4/c7tOPbIHjng2QM52pkWOVEIBjnWdfE44lgEOVkCJTm3Js04paCwOJruaDnED7c4\r\nlngHOd1wSThLgdw4+MM6OWkNiTjQTig4ZOnTNxI6RTeeDew2cZ29Nv7NAjclhNM2iMnzNsyKczZM\r\nTqE2NwIANyN0CjdyN5Q2WgazNq/6RTZdvu82CgJ2NnBTbzZ2Y8g2nCmlNornMTbyM/U2XdYuNnYx\r\nDDZETwI3eL+nNkEyGTdWc042Yb0WNzGqlDaNeNI2vHqNNkA4sDYmdYE2+cmANhHYVzaKnIs2sgCG\r\nNgmRtTZMoZo22v10NnRMhzYJ96I2OKTLNuYomzb9GYQ2aZ4gNg34YTYuHZo2W3zKNg54fjYZjkw2\r\nf2wUN3Od0TYrN5w2qv+fNtmNlTawHlI20q1xNtWcgzbalsQ2aqh0NqiRqzZJr+Y1tKkfNvwthjbs\r\njso2aMOjNjtLWzaqzNg2QuVVNvmDcTZsOcU2ODthNmCKmjZkwsw2JO2RNrvV7zZ/j5g2X3SCNuWv\r\njDatdLA22aTFNuHopjZGQ1k280BwNm9ZdzZuF3o2uV16NukrgjZ0cmI2oP0yNtheUDbrCZM2IZD3\r\nNcjiiDbmV9M2x6S6NnU/pzZADwg2huV1NusKwzZOBTQ2+FGNNgbaCjZtFJo2oEWzNnsKijZWeO02\r\nGtuJNu8IdjY49Yg2Mr2ANg3ZzjZiM+s2PSKeNoMphDa/F582hoJcNt0QxjZWOKM2KJ8XNqxVQjbY\r\ngaI2GZ6aNs0bpTU+g5g2tEowNtIkZDYOlas2ZR1xNtIkgzZRo4A2kxo0Nq+R7DZCmS43Jnh6NgQS\r\nbDb4RYg2lNw9NuvPkzYiw3I2yo89NhID7TYcIIw26OkjNrMkKzbG26s2fgyyNkykhTarGu41ZVyZ\r\nNs59hja4/3g2DVwlNg8S/DWud6U2N9IvNgCXSjbgmnM2uSBPNn7iXza+E8Q2IrczNgAgGTbUpLw1\r\nmKpzNoJSGzdiAoM2ZpDFNfrlFDY4tAI2RI+mNgX6UTb+VoU2addaNhrNCTZZFHA2uMncNXzMSzbJ\r\nKYk2chpoNlUqsTVQL942eABrNmzNjTZ3X0o2gnWBNn72gTZLTEE2lwQzNgfuCjaKZ0A2Cn+pNqDa\r\nNzbbTXE2Jn7UNu4UKDZVMoQ2j46fNsCxMzbOjB026lnINRYmezYubI02j29ONiv6jzYkvQU24bo/\r\nNlRyPzacL0c24hOWNpYhiDbn4/U1XMKXNjdHgzYwUO01kmwQNsrkGjZWzx02IdkDNtNSCTdR2VE2\r\nthtfNuRpyzaptiM2tEQ0Nkz1XDaF2zA2q9VKNcwlKDW1Wt007vuJNFq4yzRjGzI175BhNbYW/jTC\r\n50I1fp2dNJ2JFzXcfBY1j6wVNck7ADXKUgk1IqzANOh0JjVVrrw0Msw2NZKFGTUaPUI1fBNaNcVN\r\nSTUON7Q0P4fQNFKuFzUxPlU1sICqNGd1ajTm2QI1i7CcNE6RhzRis6A0+Hg7Nbaz2zTd5O41Lo6Q\r\nNCC46jRqY4k02LwPNQsD+zQS2kY1DgsZNQCcHDWKMa00NY4gNbBtFDXqiRc1oiMKNXSGhzRgRxs1\r\nsvCONXglnTQaJsk0VZcVNTwSAjVbovE0HAgiNYYOkDWs+Bk1NoTxNOmQHzWwgbI0cTRKNEIM5zRm\r\n0Eo1Lt3NNDT7uTSlUH81fpTdNNbDuDR5QIA1bivBNDg8tDTqSAw1juzKNPjckTXYQus0QHrGNAe/\r\nzjT+Kxk1k1EENS6XETW7x+g0SgvDNLGCvzSIgvk0RU2fNNSwojQOc7k03IPMNCf6ETV8ef00kiUz\r\nNaCP5DSyjgI1NzurNDzYBDVnrxg1wWfANHpDdjTTMLM0SyeuNCZrpDTpSwg1kQXWNKnmtjTd4L00\r\nCjEvNe+3XjWZAko1Ym35NPTQoTRMXRI1/Kv1NNnw+TREn580ApgENQioMTUc6Qw1wGDtNMWVAjX6\r\nRmI1CN1MNL0nqzQdttc0yKQdNbOO9jSg9bU00Ta0NPpG8jRwfn81zM+VNG1DtzQjBjQ133YnNRiY\r\nzzSD58A0vVEGNeQz7TQc+8c0alDxNOYeqTRZjwM1A1X7NKFF9DRfJtM0Vc0BNUYGIjUIksE0MIwp\r\nNYA4xDQyT2E0+rrONBaUKjWcVbs0lgEXNQhoLjVqYfM0QkIHNXxZBjWjN9A04CoHNf4JgzRmC1I1\r\nHvk2NR48nDSMgG00Zf32NNotNDWhucs0OhP6NCbLvjSa08g0UXkUNWHkGjU2b7M0Jjf1NNWAHTX2\r\nAKk0D22rNDpwCjVAdSE1wIe3NKki1DQ7h1c0c56RNM+EHDWeNvs0MQ70NEBr+DSzItM00gbWNHQw\r\nKDULfMQ0x//kNPxv2TTQtDM1WH4UNV82NTXQGQs1zfzkNE4e5zQRzgg1/pbnNGCS0TTOFd40v6/x\r\nNAS1tjRCvqU0IwneNHHchzWWIeA0UM+4NK8f9TRyIZM0h7UINdtvGDWwIMU0f+g7NQZH3jSvXyg1\r\nQFDUNEfN1zTFaJE0vTVhNZhtEzVsOCo1lI2DNKvBcDU7hyA1G3lgNdKy/jT5BOE0W5yZNMVKxTQt\r\nffo0UfUYNfYY1jRmNic1cjOcNHhM3TQltw01y+wGNdUXAzWjaYQ1EAGsNAMnHTXG2Ok0b2sZNdaU\r\nnTTqTu80BYtpNRavBjXpXoY0gY8TNRz6MzTZ+bU0CwEyNeatmjTYpAw1XQ0NNS4fMDUD3N80w5kB\r\nNbZ+wDSHwM80LsdINflVQTXijxU12ckXNexXHTV3aAk1Y0gINRwPEzWrSkk1gEhcNcKckzRnQdM0\r\nylE8NZTlGjWZRXo1mYPiNKOIGDX9VSk1SDywNE/uAjVE05U0/LpeNYJ8uDT+TwI1K57TNKdFFTVQ\r\nmmw1bxHxNNasyjTwQdg0uDi0NKQl/jRwNLM0eBffNHVFvDRC6IA0QxjQNA8uczQLG6o0fGK7NO7j\r\nmzQBYqc0PLzWNLgI9DTcW6Q0a0AZNYg9STUbsVQ1+5sfNVyxoTRchak0ZlS/NIZF8DQC/LA0KHW2\r\nNAKVBzVhPRg1IxGrNNrwCDVtxBU1lnAcNYeauTTwp/s0RXHANLDJwzTVLtw0yWgLNdyaGTVZOe00\r\nJFcoNZ6B7TQG/MU0+DEUNQFt/DRtlSo14IBuNQxXyzRAZsw0OmxvNepc4TQsbOo0BX5pNeLZFjVa\r\nUP00/NC+NDfFxzSk/Jk0Xv9WNFcJFTUkCfs0nPhONWb3szQLn8U07ItQNLGo0DSMwQE17Z/PNNec\r\n0zRaof0076bINOo8GzXNlYU0hEQkNTyH5jT2YwU1rPNDNQ/OwzRUsuM0rNi/NPhc8DQKmUg1hNDu\r\nNFsmCjUDuzw1VasyNef7cjVSnrA0plT5NKXLhzSFNZ00Ed+nNCFdUDUWMQI1JJnbNNcqvjQMb+40\r\nMCZxNWBYzTTT7DQ1EXZRNffmaTV+3a80W4eUNHE8DjXgGu40gRDrNBPuqjTmEDY1ol3ONJbeJTVU\r\n2RE1pL7HNICD5TRWWw816jZdNU5+4zSdEBA1+UiKNPe7OzXoSB81ciQHNY2hujSihSE1Zmy4NC66\r\njjSDV6M0zDuqNH8orDToE6s0mAmlNNh/LDUtZTA1POHGNHfLdzTbIis17ZIdNZocBDVvRKE0QmwB\r\nNYXQijQkWAs1oC2hNA2Z5TSh2c00fEGaNMT8ujTDZ5w0Y1z7NI2ELjWyxiA1AEAcNQ==",
                            "noiseTrainingType" : "default"
                          }
                        }
                    ],
                    "start" : 3347,
                    "duration" : 249,
                    "mediaStart" : 4205,
                    "mediaDuration" : 249,
                    "scalar" : 1,
                    "metadata" : {
                      "WinSubProjectDisplayName" : "",
                      "clipSpeedAttribute" : false
                    },
                    "animationTracks" : {

                    }
                  },
                  {
                    "id" : 372,
                    "_type" : "AMFile",
                    "src" : 15,
                    "trackNumber" : 0,
                    "attributes" : {
                      "ident" : "旁白_vis2021 1",
                      "sampleRate" : 44100,
                      "bitDepth" : 16,
                      "gain" : 1.0,
                      "mixToMono" : false
                    },
                      "channelNumber" : "0,1",
                    "effects" : [
                        {
                          "effectName" : "NoiseReduction",
                          "parameters" : {
                            "denoiserAmount" : 20.0,
                            "denoiserThreshold" : 0.0,
                            "noiseProfile" : "OWoAPH2pEz2x9Qw+d6HTPcva6j2sp089E2dtPD6vPDwfl1A8ScjwPJTr1Txy35g8LaEAPTpegDyh\r\n+807XKYVO6TEeztxHEg8k5enPOCDljxR1SA80RNNO5P/FTsAUsA78qcaO7cppTsc2vE7qgSrO6lQ\r\n2jukqvI7h92AO2yWGzx+tZU8JitaPFzIyTuXwYE7uY9XO8aQ0Dvqq2I88amYPMnb9DtB2j87KTBk\r\nOzy52zoRSDw7OCjBO9xi/DtxwE88KlbqO3j0qDtWJH47VJnsO9JoxDuANhs8tJ+AO6Qz9Tth+oI8\r\nbGt3O1T1Nzzjhew74A0cPJAvITwici89BseWPGFNtDxkw7o7MRvlOmld0jryf386QXGZOrHMrzuA\r\ngR46FrCVOsPpWDsY4v07HUbYO1nLPjsw9w47wr3FOrnZ+Drc3FY7lUkJO7DAJDv2mAY7Bol9O6Gv\r\nIjui8ek64NliOq5vmTrG/ZM6bCYbO5q5tzpF2YA69unhOXdvJDkMXx461iVVOpU6tTmIPdU5NZ4C\r\nOrLzrDlzv6053gyzOSasszlLTgc5O7atOcYrxzkKtYw6r9cjOpoinjlRRog6Q9QHOqLsbTo5k0E6\r\n9U47OqgHGzq2DIw6xrvIOkIITzrGgR86I/hwOsTOFzq0IQU6isQ5OkIP9DmC+Bw6hsx0OYy4pDnt\r\nMqk5f6afOfFKnDnqIvc5SsRQOpXvdDp8CiE703psOwEALztW+4A6r36ROtKuGDoo4s852RrZOQKM\r\nhDmkgtY4CBe5OXJ5jDnBcjY5RM9jObGZ+DmyHG05aluSOaagETnIyGM5Jt2dOdUxnTmBHwU6PPyu\r\nOQ2PETl6x7k5tcInOtV63TnmcCY6dHftOUWtBzoIt6w5qk+GOf1mbTk4DT454wsLOh2HAjoY+ZY5\r\nyr2VOQQurzmqnRg5LDMFOZLQUjkvV1Q5/g1+OSlxFzlITz85XmAkOdDG/DjiIfM4htxWOREUlTqh\r\nwcw5VnaGOWCBXjn90lA5cKzvOWPrqzkL/o45sEFOOTkyMDpUc5s51oo9ORByjjlGCco52p/tORKy\r\n8Tnit2E51lY0Ofo+ATq6o3Y5Z021OYTVGDlRAq45zuyhOeA4ZDk52eE5nw91ORI2OzlB2R85fgab\r\nOY8bMjkQ1TA5cCaFOXju/Dh2ghM59YD8OFHmfzmnKiQ58YpfOXsbtzlCtX45yEWKOLGkLDkayH45\r\nRUrSOSltyTgvk1U5NT2NOY45EjnfihY5JFlqOTokTjlSlV45Ir54OQ1W5jifjjI5bWS5OfA8NDkO\r\nXs44QhjgOLbnOjkr+iw5hK5/Ocz3Azl6HF45q6DlOIJb2DiR79I4esU3OWtGjDg4gBM5cVloOdzR\r\nDTlkchs5GGg7OVSTtziXOeg4XazEOCiMADmz6Tw5ueqOOVcmeTmS4Ms4nI0UOUTLnjhAXjc56pkE\r\nOdXdBznEOY85PIy4OMxI5zgkSxk5r6oQObvARTnCtUo4LoVEONjrVjnfUsw4msCWOCWAQjlc/y45\r\nJ4KtOCzJrjjGJZ84BKXjOIHj2jhi+yE5rqqOOdCIIzm9fIM56Oo3OUSjtzmiT/M4Wiv3OJw6ETmO\r\nS8w53FJpOdbu1DiJSZs4DaoFOWqKWDkkyvU4GPIdOchJLDmxKwA54MMWOVgzmjgl75M44OcEOVPH\r\n3Dhmzdw4X9sOOb2CyTguC7Y4VgEmOTaQxDjBUAQ5dAM9OarFHjmfj444qMgAOWZMDDmSlas4yUZQ\r\nOaDeMTmPogU5Wxe1OF0m3Dh6aDQ5tbkIObjoEzlqqg45EPLvOKyF+zhUmiE57MvFOPg/vDiW+Vo5\r\nmhyzOGFsBTldBEw4dL3pOOk/QDnXnJQ467sNONFyxDfGPDM3rTsZN+BixjZrWTk338GlNhf/FTe5\r\nNTk2RTSUNkMj3Taj0d02is2UNt0UDDYUXvI1aeXFNhijMjbAtYc2ikWgNuphZDY8D1I28gSnNv4k\r\nLTZRYDk2mtYGN70P5DaWBKc2RzXfNlQFKTeHIYk2IpjaNofVszbqlaM2PatTNiKTzDYjx6M2BMHZ\r\nNiXEdDbJOMs2FNCMNsnGRja2BpI2UsiGNvm1vzbR74Q2wLCoNnn3jDa4fK82VqGlNrSAsTYwh5o2\r\n00guNguj5DYiuZI2yg0BN6PItzbTY6w2VXFINoLcTDbWIk82WJ/cNvx6HDZGdqc2ta/1NVwQMDaG\r\n9VE24mqONlq9rDaNiSE2Lay+NpqbcTYGZ3Q2KPqfNicegDbQyZw27RAtNyQhVjazoMU2izz9Npf0\r\njzbhrAg2zKY4Njo2yjZ1hZE2WNZsNrbfvDZiyp42KRFjNr96jjbjaI02RTYRNmwjhzapnyI2B4XY\r\nNltT7jUOLSY20oDqNhJrxDaCZWw2Ct+VNg/LgjZZzMA2Ik1JNrzQuDZxy901azNqNvW2eDaUuVs2\r\ngu+KNta85ja8P/M1FmShNp/ipjb1OIE21Q/2Nr5JmzYXtZU2x6+qNk6LmTZnjYw2mIJGNul2Jjbc\r\nO3A2lquYNuovLTYtgfE1nUlUNgQzNzaIsDM2DIvUNjKBRja+0oY2ExJ5NgPdJzZaSLQ2EtYgN0Wc\r\nDDbIHow2IiiZNgZUVTa1JnM2v3wcNoN3YDYCtgE38JaENkzoaDb0JTc26/WJNoqw9jYFxFI29vNP\r\nNmdCvDZHFIU2xxObNr0sUTblHoc2JrM/NmrbFDYX93o2m4OpNgs6HDaFNl02Rb2TNpjkJjYAADk2\r\n/8chNn7/QTawezM30gsqNidJ8zWKfC02kBYuNmSnnTa80FY2mFN3NkYZWzY4aO41UHmKNkyZiDYh\r\nGC42h1Y6Np6cgzYSij81AnuaNnc6rzZUXG82vp9eNp4h/jWNsEY2k603NuKSjDbHWSo2RxYINlNS\r\nmTaAOlU2yvJmNkqftzZ5VEk26hV8NjWLezbKM9Y1ernFNWi/XDZaEHQ2dhvANhDaRjYMwy82EwC4\r\nNlCNVTbH4IU2Cx1LNk6XlDbcVNA2FB33NQHMjzY6eW02jpZONqrdMTa+lxk267lUNkhoNDZz+TQ3\r\nwulaNoXxEjYQdsQ2lXEcNsiYOjbfz9o2UzpENvQL0TSOQIM10f8gNcLzLzX5w2c1H4efNN2VyTQO\r\nn70011tKNT7aKTUG8/w0QEgiNUCRKjWhXKI03LYLNQzSrjUnb9E0iB65NCpfLzVs4tk0emppNQtw\r\n8zTy2+U0USoLNeRnDTU88Uc19BfdNFPdNDVtA7Q09QQJNdJhKTXqRNg0am3RNG251DQ1KrA0Oj/Y\r\nNOrxkjTQ8cI0+3eXNEYitDR9exs1YvMdNUBR5DR0pQE1EGj5NAq8KTXmxKs0ErgPNTXAAjVM71g1\r\n2McYNch2PjVA3vs0HZGgNJEIOTWY3M40B5RGNGfgUDUIWUw1AAKQNPuJvjRnt4w0M0qUNPpcxjR3\r\nCM0000dJNZjtnTSx6rQ09gISNSzUKjVHscM0TBtXNYWZEDWjpck07HS+NMuEnzTVZ0U1duMGNWCg\r\n6jTs3880YBEXNT+XujRa3bk0wUISNadMADU5AQ411F8ONePs/jS0pjA105FENQ/HnjQmcwg1WPKH\r\nNFq2nTSuOLI0S9MpNbyI/zTAPso0+sXPNPLB3DTur8o0PLbHNPmbnzT+MvY0YjqvNCUXJTXMJp80\r\nndUPNWmVEjXazkY1O5DgNMl4gzVmyAY1rYEfNXmSQTWIrhU1ikoVNSCqpDTaEbY0/AvpNLIwhDSh\r\nIww1MCwENb5Y/zSUBhw1UowYNbXtpzTvlg4155xcNZhCrDRWs9U0k616NIzznjRmnAQ1Khq/NEm9\r\nCTUki940fgEVNZA1JzWkzqg0RtjuNI+WjTW0QRg1omMcNXzDIDUDHKI0NVu3NMMpRDVCjIo0ViIs\r\nNfxAITWCVB81HXTcNB0NXDWG+bE03vcdNf6QMzXAn8s0Eg/NNATJsTQE9U01LMELNX7DoDSIEB41\r\nwLEGNUVbzTQ8Pwo1QFCINBFgFTVn0vo0JOCjNNaR8zQ1vx41DXUDNak+EjUNQYo08gC7NFzPoTSI\r\n7RU1kpUbNYXvKzWOx240VWf0NGRuBzU6PIo0wlCGNT7g9jSWZjw1Ml4BNRvl6jTQR3w1lmHdNGfd\r\nITTobvU0ypuvNEpF+jTjNY40JYO7NCfBbzQijsA0us84Na6J8TQIYwU1V3IrNSwmYTXQ1kU0zKTc\r\nNDTVfzTj6to0SbOuNHwCvTQ/eR01mcuPNPTduTRDjf806a+nNAj20DREKOo0nPlPNQTe+zQNWSo1\r\nlpGmNBv9xzT/tzk1CtkQNapg2jSMQlI1MDUTNRhOMjWh56Q0AygANa8srzRbOwQ187XxNOQlwDSQ\r\nNO80mTAVNaBD6TQbeoo0UM6FNHPMCjV4t7k0gIxkNE02BjXYBQo1AhAcNWJMijS64uA0zd0JNXWm\r\nEDWiijY1ZpSXNNpWpzTYT+k0QHbzNDaorzSGDHs0qT7ONBvuhzSyYys1dPYCNQdToDTk8uU0MwYH\r\nNWYw+TRbj4g1aJxzNHlxCDVIE8c0Nl2SNOyilTRoqUs1KtMvNbhJPjVmcCE12eGANQ1X8jSNKZo0\r\ndGHdNGrcDjXxZ0A0JhPPNJb14jSwx8o0morUNDmP2DTubH40SSbdNE1r7TRT3rk0EZGLNP35LjV1\r\n1640P7XhNLEsczQldYc02X7eNAZ67jSawbI0drgeNb6GtzSMN9U00j4cNQhrBzWSqgw14dAnNYUF\r\nnDTQSpg0P9OMNOHDLTULMsI0QH6VNI2nxDSl5Yc0WHyLNCaeLDXnc6Y0AaCFNBQP7TTJzR41kvoE\r\nNRykHjU6wZw0+cjVNJdR1TSiQQU10AuONaiUkzUExgY1MMYONaRkZTT9EAU11Bu0NC2j3jTIM4A0\r\nal8cNSoRTzXbrSk1FTDYNEBqkjTgDwA1sun9NP5ztDRWob80HSSSNGYkGDWnkuM0RaMANeGLITXo\r\nTow0GNvbNJlRuzSgsOY0CpP5NMVL9jRRErs0aS1TNVNWgDSmPp80Gvy3NBnwGDXWr7M0dB/VNIw8\r\n0DQBkZ410iF5NDXYLTVZSxU1T0S6NHIrqTRzbRA1XDWKNA2phjRVwpo0SPJ1NGzsODX8K6Y0ne6l\r\nNNU3JjWsl7M0wb+kNKhE5TQUaN8041HRNPhNtTRpfuQ09awXNcwLtDS6nqA0qbk4Nbg8qTQ3pSA0\r\nkRS8NLXO0DRqdcQ0b//eNLPvrDQGQu00fPstNS/HMTWPJMc0fIrENBIciDSLv/k00iuaNNjgPDWm\r\not00DFkCNfHQhDTO4qY0xTYDNbDSOTWNTjA1dLcPNZB1uzQDUrY08mkFNZaNRjXzzK00ErsDNVeQ\r\n3zS5HxA1pmTINLQDBTWIxP008Ny+NADrGDWeipI0eMHvM5R6CTWA3x01wRO2NE0PBDXZKrU0GFyV\r\nNOCJrzSgxtE0tQR+NKJP0zTmcMA0zgvvNFJN7TT5eA41x/eHNAie2jTBXoU1JbdYNQAAEDUAZAE8\r\nF6YTPaE6DT5EKNM9dQ3rPVEOUD0ioW480q89PCfdUDzbEfI8OKDUPGwsmDxHYgE9amiBPGR1zjsP\r\nPhU7a3x7OyhGRzygj6g8mBGWPCuBIDwy9E47Dr4TO1iRvDsOzBo7Kk6nOyjG8juQWao70ZvWOxbH\r\n8zuU8n07aPEbPGxKlzygoVs8TMfIO9+xhDsybFY7q+rTO/L8YTx2ZJg8LVf1O0mYPjuCWmQ7fLXf\r\nOt2APzt7zMI7O4D+Ox50Tzw8t+w7lE+pOzStezsIHeo7gHbGO/xxGTz7XIA7vAj1O108gzyol3g7\r\ntww5PFZa6zv7yxw8BjMgPKnvLj13cpY8hhS0PDysuTskGOc6fsrQOrACgDqdYpQ6nrawO0mtIzpq\r\niZQ6oWVXO4pL/Dsyi9U7isI/O5AADzuqPMM6Xcz3OuCjVjsJJAU70nAkO3xeCzuPI4E7G4YiO1p8\r\n7jrINmQ6RKiWOkNYjzquKxk7L5jEOkefiTpiBN05wkIqOcZGDTp6g046RrOpOQ6EwjmtPgQ6e2Gc\r\nOSSjpDlo8ZU55XS9ObmuBzlz4785N8m2OWCrjzo4vB06uHOTOSQohDrAdAk6ttpzOqV9QjpzGTY6\r\n3XEaOsgBjjqKt8k6HvZMOicoGjocq2w6ap4WOhHEADrfCzk63skBOgeJHDrUTnI5YkuiObHDpjmu\r\nSKM5/cCSOf1k+zmMGlI6inluOu+YIDu89m07RVI0O6+Kgzr+5446GKYWOsGMzDkpPtU5IguVOWYu\r\n0Thu2rs5wj2KOYr0Szln8mE5OIzqOdZKbDmJnpY5zvoYORbfcjmJJb45rPudOReeBTpaM7A5gOEv\r\nOfU4rjmBKBo6bN3fOQHYIDpCxO45IMMKOhDuqjnu5385nKuKOcsUJTnO6QY6IssJOqWwlTkE/nk5\r\n982pOYJKFzlMEgc5kM8qOTzQSjkjjFw5oLMhOb3XTTlwQiA5qwrfOFyxBDkkj0w5MGaVOpPkyzkA\r\nWYw5x/dWOdTGaDnThQM6cUq4OS/ykTn8pTU5cg8tOjmUnzmJETc5yAicOQHqsTm7VQY6AgbzOcxp\r\nYTnUlDk5COb3OVNucjnJjtA5lvYsOVSTlDlbCZA5jieCOevY/jld/5M5ZAsQOQCjIjmaXZk5X2sk\r\nOaKvQDn3w2A5sFLsOCInSDnjTPU4Pw52ORiOFTnxB085aOe5Oeymfzkdh5Q4b9kUOTcjiDlltOQ5\r\nW97hOK93TDk6TJo5GxUROfmZKDmqWVg5gnArOZiUUTljp2g5VN4COa51OjmCG6857I8hOQJUyDiy\r\nFeY4PzlIOQnaEjkNa105LJgJOedSTTmft9w4RFvhOEMPBjkBNUc5IxKaOKB0AzlHK0Y5uzfsOA7s\r\nCTnIO1A5K33WOKFk2jjp16849C8QOWZpPTn28K85JD91Ocr4pTiAdCY50TmeOH4OPTl/1vM4rUTC\r\nOKr9azkWMbo4F7ngOLhyVDn8tgw5pjZnOXrXVTgwxCo4OQx/OXmv4TiOkZs4EjRhOc/BKzm9HJg4\r\nmNmEOBptqTgOwN44isnuOMjHEDkVGqA5ZsgfOcwJgTn/qS85F5G9OSUi8Th4/wU58kwEOcGM0znk\r\nW1o5KBbSOPxmrjgoieg4mOJqOacY5jhwBhY5iXUjOeCfAjn89RI53mOTOE5nnDgXwQo59x/YOLsN\r\nvzisAgg5ZZXBONJSyTg4ChA5g0OvOOLhCzk2PkQ5yZUgOf1/lTgIavM4G5cEObRwszj5plM54Ngg\r\nOTpfCjmgXsE4/c7tOPbIHjng2QM52pkWOVEIBjnWdfE44lgEOVkCJTm3Js04paCwOJruaDnED7c4\r\nlngHOd1wSThLgdw4+MM6OWkNiTjQTig4ZOnTNxI6RTeeDew2cZ29Nv7NAjclhNM2iMnzNsyKczZM\r\nTqE2NwIANyN0CjdyN5Q2WgazNq/6RTZdvu82CgJ2NnBTbzZ2Y8g2nCmlNornMTbyM/U2XdYuNnYx\r\nDDZETwI3eL+nNkEyGTdWc042Yb0WNzGqlDaNeNI2vHqNNkA4sDYmdYE2+cmANhHYVzaKnIs2sgCG\r\nNgmRtTZMoZo22v10NnRMhzYJ96I2OKTLNuYomzb9GYQ2aZ4gNg34YTYuHZo2W3zKNg54fjYZjkw2\r\nf2wUN3Od0TYrN5w2qv+fNtmNlTawHlI20q1xNtWcgzbalsQ2aqh0NqiRqzZJr+Y1tKkfNvwthjbs\r\njso2aMOjNjtLWzaqzNg2QuVVNvmDcTZsOcU2ODthNmCKmjZkwsw2JO2RNrvV7zZ/j5g2X3SCNuWv\r\njDatdLA22aTFNuHopjZGQ1k280BwNm9ZdzZuF3o2uV16NukrgjZ0cmI2oP0yNtheUDbrCZM2IZD3\r\nNcjiiDbmV9M2x6S6NnU/pzZADwg2huV1NusKwzZOBTQ2+FGNNgbaCjZtFJo2oEWzNnsKijZWeO02\r\nGtuJNu8IdjY49Yg2Mr2ANg3ZzjZiM+s2PSKeNoMphDa/F582hoJcNt0QxjZWOKM2KJ8XNqxVQjbY\r\ngaI2GZ6aNs0bpTU+g5g2tEowNtIkZDYOlas2ZR1xNtIkgzZRo4A2kxo0Nq+R7DZCmS43Jnh6NgQS\r\nbDb4RYg2lNw9NuvPkzYiw3I2yo89NhID7TYcIIw26OkjNrMkKzbG26s2fgyyNkykhTarGu41ZVyZ\r\nNs59hja4/3g2DVwlNg8S/DWud6U2N9IvNgCXSjbgmnM2uSBPNn7iXza+E8Q2IrczNgAgGTbUpLw1\r\nmKpzNoJSGzdiAoM2ZpDFNfrlFDY4tAI2RI+mNgX6UTb+VoU2addaNhrNCTZZFHA2uMncNXzMSzbJ\r\nKYk2chpoNlUqsTVQL942eABrNmzNjTZ3X0o2gnWBNn72gTZLTEE2lwQzNgfuCjaKZ0A2Cn+pNqDa\r\nNzbbTXE2Jn7UNu4UKDZVMoQ2j46fNsCxMzbOjB026lnINRYmezYubI02j29ONiv6jzYkvQU24bo/\r\nNlRyPzacL0c24hOWNpYhiDbn4/U1XMKXNjdHgzYwUO01kmwQNsrkGjZWzx02IdkDNtNSCTdR2VE2\r\nthtfNuRpyzaptiM2tEQ0Nkz1XDaF2zA2q9VKNcwlKDW1Wt007vuJNFq4yzRjGzI175BhNbYW/jTC\r\n50I1fp2dNJ2JFzXcfBY1j6wVNck7ADXKUgk1IqzANOh0JjVVrrw0Msw2NZKFGTUaPUI1fBNaNcVN\r\nSTUON7Q0P4fQNFKuFzUxPlU1sICqNGd1ajTm2QI1i7CcNE6RhzRis6A0+Hg7Nbaz2zTd5O41Lo6Q\r\nNCC46jRqY4k02LwPNQsD+zQS2kY1DgsZNQCcHDWKMa00NY4gNbBtFDXqiRc1oiMKNXSGhzRgRxs1\r\nsvCONXglnTQaJsk0VZcVNTwSAjVbovE0HAgiNYYOkDWs+Bk1NoTxNOmQHzWwgbI0cTRKNEIM5zRm\r\n0Eo1Lt3NNDT7uTSlUH81fpTdNNbDuDR5QIA1bivBNDg8tDTqSAw1juzKNPjckTXYQus0QHrGNAe/\r\nzjT+Kxk1k1EENS6XETW7x+g0SgvDNLGCvzSIgvk0RU2fNNSwojQOc7k03IPMNCf6ETV8ef00kiUz\r\nNaCP5DSyjgI1NzurNDzYBDVnrxg1wWfANHpDdjTTMLM0SyeuNCZrpDTpSwg1kQXWNKnmtjTd4L00\r\nCjEvNe+3XjWZAko1Ym35NPTQoTRMXRI1/Kv1NNnw+TREn580ApgENQioMTUc6Qw1wGDtNMWVAjX6\r\nRmI1CN1MNL0nqzQdttc0yKQdNbOO9jSg9bU00Ta0NPpG8jRwfn81zM+VNG1DtzQjBjQ133YnNRiY\r\nzzSD58A0vVEGNeQz7TQc+8c0alDxNOYeqTRZjwM1A1X7NKFF9DRfJtM0Vc0BNUYGIjUIksE0MIwp\r\nNYA4xDQyT2E0+rrONBaUKjWcVbs0lgEXNQhoLjVqYfM0QkIHNXxZBjWjN9A04CoHNf4JgzRmC1I1\r\nHvk2NR48nDSMgG00Zf32NNotNDWhucs0OhP6NCbLvjSa08g0UXkUNWHkGjU2b7M0Jjf1NNWAHTX2\r\nAKk0D22rNDpwCjVAdSE1wIe3NKki1DQ7h1c0c56RNM+EHDWeNvs0MQ70NEBr+DSzItM00gbWNHQw\r\nKDULfMQ0x//kNPxv2TTQtDM1WH4UNV82NTXQGQs1zfzkNE4e5zQRzgg1/pbnNGCS0TTOFd40v6/x\r\nNAS1tjRCvqU0IwneNHHchzWWIeA0UM+4NK8f9TRyIZM0h7UINdtvGDWwIMU0f+g7NQZH3jSvXyg1\r\nQFDUNEfN1zTFaJE0vTVhNZhtEzVsOCo1lI2DNKvBcDU7hyA1G3lgNdKy/jT5BOE0W5yZNMVKxTQt\r\nffo0UfUYNfYY1jRmNic1cjOcNHhM3TQltw01y+wGNdUXAzWjaYQ1EAGsNAMnHTXG2Ok0b2sZNdaU\r\nnTTqTu80BYtpNRavBjXpXoY0gY8TNRz6MzTZ+bU0CwEyNeatmjTYpAw1XQ0NNS4fMDUD3N80w5kB\r\nNbZ+wDSHwM80LsdINflVQTXijxU12ckXNexXHTV3aAk1Y0gINRwPEzWrSkk1gEhcNcKckzRnQdM0\r\nylE8NZTlGjWZRXo1mYPiNKOIGDX9VSk1SDywNE/uAjVE05U0/LpeNYJ8uDT+TwI1K57TNKdFFTVQ\r\nmmw1bxHxNNasyjTwQdg0uDi0NKQl/jRwNLM0eBffNHVFvDRC6IA0QxjQNA8uczQLG6o0fGK7NO7j\r\nmzQBYqc0PLzWNLgI9DTcW6Q0a0AZNYg9STUbsVQ1+5sfNVyxoTRchak0ZlS/NIZF8DQC/LA0KHW2\r\nNAKVBzVhPRg1IxGrNNrwCDVtxBU1lnAcNYeauTTwp/s0RXHANLDJwzTVLtw0yWgLNdyaGTVZOe00\r\nJFcoNZ6B7TQG/MU0+DEUNQFt/DRtlSo14IBuNQxXyzRAZsw0OmxvNepc4TQsbOo0BX5pNeLZFjVa\r\nUP00/NC+NDfFxzSk/Jk0Xv9WNFcJFTUkCfs0nPhONWb3szQLn8U07ItQNLGo0DSMwQE17Z/PNNec\r\n0zRaof0076bINOo8GzXNlYU0hEQkNTyH5jT2YwU1rPNDNQ/OwzRUsuM0rNi/NPhc8DQKmUg1hNDu\r\nNFsmCjUDuzw1VasyNef7cjVSnrA0plT5NKXLhzSFNZ00Ed+nNCFdUDUWMQI1JJnbNNcqvjQMb+40\r\nMCZxNWBYzTTT7DQ1EXZRNffmaTV+3a80W4eUNHE8DjXgGu40gRDrNBPuqjTmEDY1ol3ONJbeJTVU\r\n2RE1pL7HNICD5TRWWw816jZdNU5+4zSdEBA1+UiKNPe7OzXoSB81ciQHNY2hujSihSE1Zmy4NC66\r\njjSDV6M0zDuqNH8orDToE6s0mAmlNNh/LDUtZTA1POHGNHfLdzTbIis17ZIdNZocBDVvRKE0QmwB\r\nNYXQijQkWAs1oC2hNA2Z5TSh2c00fEGaNMT8ujTDZ5w0Y1z7NI2ELjWyxiA1AEAcNQ==",
                            "noiseTrainingType" : "default"
                          }
                        }
                    ],
                    "start" : 3596,
                    "duration" : 109,
                    "mediaStart" : 4474,
                    "mediaDuration" : 109,
                    "scalar" : 1,
                    "metadata" : {
                      "WinSubProjectDisplayName" : "",
                      "clipSpeedAttribute" : false
                    },
                    "animationTracks" : {

                    }
                  },
                  {
                    "id" : 373,
                    "_type" : "AMFile",
                    "src" : 15,
                    "trackNumber" : 0,
                    "attributes" : {
                      "ident" : "旁白_vis2021 1",
                      "sampleRate" : 44100,
                      "bitDepth" : 16,
                      "gain" : 1.0,
                      "mixToMono" : false
                    },
                      "channelNumber" : "0,1",
                    "effects" : [
                        {
                          "effectName" : "NoiseReduction",
                          "parameters" : {
                            "denoiserAmount" : 20.0,
                            "denoiserThreshold" : 0.0,
                            "noiseProfile" : "OWoAPH2pEz2x9Qw+d6HTPcva6j2sp089E2dtPD6vPDwfl1A8ScjwPJTr1Txy35g8LaEAPTpegDyh\r\n+807XKYVO6TEeztxHEg8k5enPOCDljxR1SA80RNNO5P/FTsAUsA78qcaO7cppTsc2vE7qgSrO6lQ\r\n2jukqvI7h92AO2yWGzx+tZU8JitaPFzIyTuXwYE7uY9XO8aQ0Dvqq2I88amYPMnb9DtB2j87KTBk\r\nOzy52zoRSDw7OCjBO9xi/DtxwE88KlbqO3j0qDtWJH47VJnsO9JoxDuANhs8tJ+AO6Qz9Tth+oI8\r\nbGt3O1T1Nzzjhew74A0cPJAvITwici89BseWPGFNtDxkw7o7MRvlOmld0jryf386QXGZOrHMrzuA\r\ngR46FrCVOsPpWDsY4v07HUbYO1nLPjsw9w47wr3FOrnZ+Drc3FY7lUkJO7DAJDv2mAY7Bol9O6Gv\r\nIjui8ek64NliOq5vmTrG/ZM6bCYbO5q5tzpF2YA69unhOXdvJDkMXx461iVVOpU6tTmIPdU5NZ4C\r\nOrLzrDlzv6053gyzOSasszlLTgc5O7atOcYrxzkKtYw6r9cjOpoinjlRRog6Q9QHOqLsbTo5k0E6\r\n9U47OqgHGzq2DIw6xrvIOkIITzrGgR86I/hwOsTOFzq0IQU6isQ5OkIP9DmC+Bw6hsx0OYy4pDnt\r\nMqk5f6afOfFKnDnqIvc5SsRQOpXvdDp8CiE703psOwEALztW+4A6r36ROtKuGDoo4s852RrZOQKM\r\nhDmkgtY4CBe5OXJ5jDnBcjY5RM9jObGZ+DmyHG05aluSOaagETnIyGM5Jt2dOdUxnTmBHwU6PPyu\r\nOQ2PETl6x7k5tcInOtV63TnmcCY6dHftOUWtBzoIt6w5qk+GOf1mbTk4DT454wsLOh2HAjoY+ZY5\r\nyr2VOQQurzmqnRg5LDMFOZLQUjkvV1Q5/g1+OSlxFzlITz85XmAkOdDG/DjiIfM4htxWOREUlTqh\r\nwcw5VnaGOWCBXjn90lA5cKzvOWPrqzkL/o45sEFOOTkyMDpUc5s51oo9ORByjjlGCco52p/tORKy\r\n8Tnit2E51lY0Ofo+ATq6o3Y5Z021OYTVGDlRAq45zuyhOeA4ZDk52eE5nw91ORI2OzlB2R85fgab\r\nOY8bMjkQ1TA5cCaFOXju/Dh2ghM59YD8OFHmfzmnKiQ58YpfOXsbtzlCtX45yEWKOLGkLDkayH45\r\nRUrSOSltyTgvk1U5NT2NOY45EjnfihY5JFlqOTokTjlSlV45Ir54OQ1W5jifjjI5bWS5OfA8NDkO\r\nXs44QhjgOLbnOjkr+iw5hK5/Ocz3Azl6HF45q6DlOIJb2DiR79I4esU3OWtGjDg4gBM5cVloOdzR\r\nDTlkchs5GGg7OVSTtziXOeg4XazEOCiMADmz6Tw5ueqOOVcmeTmS4Ms4nI0UOUTLnjhAXjc56pkE\r\nOdXdBznEOY85PIy4OMxI5zgkSxk5r6oQObvARTnCtUo4LoVEONjrVjnfUsw4msCWOCWAQjlc/y45\r\nJ4KtOCzJrjjGJZ84BKXjOIHj2jhi+yE5rqqOOdCIIzm9fIM56Oo3OUSjtzmiT/M4Wiv3OJw6ETmO\r\nS8w53FJpOdbu1DiJSZs4DaoFOWqKWDkkyvU4GPIdOchJLDmxKwA54MMWOVgzmjgl75M44OcEOVPH\r\n3Dhmzdw4X9sOOb2CyTguC7Y4VgEmOTaQxDjBUAQ5dAM9OarFHjmfj444qMgAOWZMDDmSlas4yUZQ\r\nOaDeMTmPogU5Wxe1OF0m3Dh6aDQ5tbkIObjoEzlqqg45EPLvOKyF+zhUmiE57MvFOPg/vDiW+Vo5\r\nmhyzOGFsBTldBEw4dL3pOOk/QDnXnJQ467sNONFyxDfGPDM3rTsZN+BixjZrWTk338GlNhf/FTe5\r\nNTk2RTSUNkMj3Taj0d02is2UNt0UDDYUXvI1aeXFNhijMjbAtYc2ikWgNuphZDY8D1I28gSnNv4k\r\nLTZRYDk2mtYGN70P5DaWBKc2RzXfNlQFKTeHIYk2IpjaNofVszbqlaM2PatTNiKTzDYjx6M2BMHZ\r\nNiXEdDbJOMs2FNCMNsnGRja2BpI2UsiGNvm1vzbR74Q2wLCoNnn3jDa4fK82VqGlNrSAsTYwh5o2\r\n00guNguj5DYiuZI2yg0BN6PItzbTY6w2VXFINoLcTDbWIk82WJ/cNvx6HDZGdqc2ta/1NVwQMDaG\r\n9VE24mqONlq9rDaNiSE2Lay+NpqbcTYGZ3Q2KPqfNicegDbQyZw27RAtNyQhVjazoMU2izz9Npf0\r\njzbhrAg2zKY4Njo2yjZ1hZE2WNZsNrbfvDZiyp42KRFjNr96jjbjaI02RTYRNmwjhzapnyI2B4XY\r\nNltT7jUOLSY20oDqNhJrxDaCZWw2Ct+VNg/LgjZZzMA2Ik1JNrzQuDZxy901azNqNvW2eDaUuVs2\r\ngu+KNta85ja8P/M1FmShNp/ipjb1OIE21Q/2Nr5JmzYXtZU2x6+qNk6LmTZnjYw2mIJGNul2Jjbc\r\nO3A2lquYNuovLTYtgfE1nUlUNgQzNzaIsDM2DIvUNjKBRja+0oY2ExJ5NgPdJzZaSLQ2EtYgN0Wc\r\nDDbIHow2IiiZNgZUVTa1JnM2v3wcNoN3YDYCtgE38JaENkzoaDb0JTc26/WJNoqw9jYFxFI29vNP\r\nNmdCvDZHFIU2xxObNr0sUTblHoc2JrM/NmrbFDYX93o2m4OpNgs6HDaFNl02Rb2TNpjkJjYAADk2\r\n/8chNn7/QTawezM30gsqNidJ8zWKfC02kBYuNmSnnTa80FY2mFN3NkYZWzY4aO41UHmKNkyZiDYh\r\nGC42h1Y6Np6cgzYSij81AnuaNnc6rzZUXG82vp9eNp4h/jWNsEY2k603NuKSjDbHWSo2RxYINlNS\r\nmTaAOlU2yvJmNkqftzZ5VEk26hV8NjWLezbKM9Y1ernFNWi/XDZaEHQ2dhvANhDaRjYMwy82EwC4\r\nNlCNVTbH4IU2Cx1LNk6XlDbcVNA2FB33NQHMjzY6eW02jpZONqrdMTa+lxk267lUNkhoNDZz+TQ3\r\nwulaNoXxEjYQdsQ2lXEcNsiYOjbfz9o2UzpENvQL0TSOQIM10f8gNcLzLzX5w2c1H4efNN2VyTQO\r\nn70011tKNT7aKTUG8/w0QEgiNUCRKjWhXKI03LYLNQzSrjUnb9E0iB65NCpfLzVs4tk0emppNQtw\r\n8zTy2+U0USoLNeRnDTU88Uc19BfdNFPdNDVtA7Q09QQJNdJhKTXqRNg0am3RNG251DQ1KrA0Oj/Y\r\nNOrxkjTQ8cI0+3eXNEYitDR9exs1YvMdNUBR5DR0pQE1EGj5NAq8KTXmxKs0ErgPNTXAAjVM71g1\r\n2McYNch2PjVA3vs0HZGgNJEIOTWY3M40B5RGNGfgUDUIWUw1AAKQNPuJvjRnt4w0M0qUNPpcxjR3\r\nCM0000dJNZjtnTSx6rQ09gISNSzUKjVHscM0TBtXNYWZEDWjpck07HS+NMuEnzTVZ0U1duMGNWCg\r\n6jTs3880YBEXNT+XujRa3bk0wUISNadMADU5AQ411F8ONePs/jS0pjA105FENQ/HnjQmcwg1WPKH\r\nNFq2nTSuOLI0S9MpNbyI/zTAPso0+sXPNPLB3DTur8o0PLbHNPmbnzT+MvY0YjqvNCUXJTXMJp80\r\nndUPNWmVEjXazkY1O5DgNMl4gzVmyAY1rYEfNXmSQTWIrhU1ikoVNSCqpDTaEbY0/AvpNLIwhDSh\r\nIww1MCwENb5Y/zSUBhw1UowYNbXtpzTvlg4155xcNZhCrDRWs9U0k616NIzznjRmnAQ1Khq/NEm9\r\nCTUki940fgEVNZA1JzWkzqg0RtjuNI+WjTW0QRg1omMcNXzDIDUDHKI0NVu3NMMpRDVCjIo0ViIs\r\nNfxAITWCVB81HXTcNB0NXDWG+bE03vcdNf6QMzXAn8s0Eg/NNATJsTQE9U01LMELNX7DoDSIEB41\r\nwLEGNUVbzTQ8Pwo1QFCINBFgFTVn0vo0JOCjNNaR8zQ1vx41DXUDNak+EjUNQYo08gC7NFzPoTSI\r\n7RU1kpUbNYXvKzWOx240VWf0NGRuBzU6PIo0wlCGNT7g9jSWZjw1Ml4BNRvl6jTQR3w1lmHdNGfd\r\nITTobvU0ypuvNEpF+jTjNY40JYO7NCfBbzQijsA0us84Na6J8TQIYwU1V3IrNSwmYTXQ1kU0zKTc\r\nNDTVfzTj6to0SbOuNHwCvTQ/eR01mcuPNPTduTRDjf806a+nNAj20DREKOo0nPlPNQTe+zQNWSo1\r\nlpGmNBv9xzT/tzk1CtkQNapg2jSMQlI1MDUTNRhOMjWh56Q0AygANa8srzRbOwQ187XxNOQlwDSQ\r\nNO80mTAVNaBD6TQbeoo0UM6FNHPMCjV4t7k0gIxkNE02BjXYBQo1AhAcNWJMijS64uA0zd0JNXWm\r\nEDWiijY1ZpSXNNpWpzTYT+k0QHbzNDaorzSGDHs0qT7ONBvuhzSyYys1dPYCNQdToDTk8uU0MwYH\r\nNWYw+TRbj4g1aJxzNHlxCDVIE8c0Nl2SNOyilTRoqUs1KtMvNbhJPjVmcCE12eGANQ1X8jSNKZo0\r\ndGHdNGrcDjXxZ0A0JhPPNJb14jSwx8o0morUNDmP2DTubH40SSbdNE1r7TRT3rk0EZGLNP35LjV1\r\n1640P7XhNLEsczQldYc02X7eNAZ67jSawbI0drgeNb6GtzSMN9U00j4cNQhrBzWSqgw14dAnNYUF\r\nnDTQSpg0P9OMNOHDLTULMsI0QH6VNI2nxDSl5Yc0WHyLNCaeLDXnc6Y0AaCFNBQP7TTJzR41kvoE\r\nNRykHjU6wZw0+cjVNJdR1TSiQQU10AuONaiUkzUExgY1MMYONaRkZTT9EAU11Bu0NC2j3jTIM4A0\r\nal8cNSoRTzXbrSk1FTDYNEBqkjTgDwA1sun9NP5ztDRWob80HSSSNGYkGDWnkuM0RaMANeGLITXo\r\nTow0GNvbNJlRuzSgsOY0CpP5NMVL9jRRErs0aS1TNVNWgDSmPp80Gvy3NBnwGDXWr7M0dB/VNIw8\r\n0DQBkZ410iF5NDXYLTVZSxU1T0S6NHIrqTRzbRA1XDWKNA2phjRVwpo0SPJ1NGzsODX8K6Y0ne6l\r\nNNU3JjWsl7M0wb+kNKhE5TQUaN8041HRNPhNtTRpfuQ09awXNcwLtDS6nqA0qbk4Nbg8qTQ3pSA0\r\nkRS8NLXO0DRqdcQ0b//eNLPvrDQGQu00fPstNS/HMTWPJMc0fIrENBIciDSLv/k00iuaNNjgPDWm\r\not00DFkCNfHQhDTO4qY0xTYDNbDSOTWNTjA1dLcPNZB1uzQDUrY08mkFNZaNRjXzzK00ErsDNVeQ\r\n3zS5HxA1pmTINLQDBTWIxP008Ny+NADrGDWeipI0eMHvM5R6CTWA3x01wRO2NE0PBDXZKrU0GFyV\r\nNOCJrzSgxtE0tQR+NKJP0zTmcMA0zgvvNFJN7TT5eA41x/eHNAie2jTBXoU1JbdYNQAAEDUAZAE8\r\nF6YTPaE6DT5EKNM9dQ3rPVEOUD0ioW480q89PCfdUDzbEfI8OKDUPGwsmDxHYgE9amiBPGR1zjsP\r\nPhU7a3x7OyhGRzygj6g8mBGWPCuBIDwy9E47Dr4TO1iRvDsOzBo7Kk6nOyjG8juQWao70ZvWOxbH\r\n8zuU8n07aPEbPGxKlzygoVs8TMfIO9+xhDsybFY7q+rTO/L8YTx2ZJg8LVf1O0mYPjuCWmQ7fLXf\r\nOt2APzt7zMI7O4D+Ox50Tzw8t+w7lE+pOzStezsIHeo7gHbGO/xxGTz7XIA7vAj1O108gzyol3g7\r\ntww5PFZa6zv7yxw8BjMgPKnvLj13cpY8hhS0PDysuTskGOc6fsrQOrACgDqdYpQ6nrawO0mtIzpq\r\niZQ6oWVXO4pL/Dsyi9U7isI/O5AADzuqPMM6Xcz3OuCjVjsJJAU70nAkO3xeCzuPI4E7G4YiO1p8\r\n7jrINmQ6RKiWOkNYjzquKxk7L5jEOkefiTpiBN05wkIqOcZGDTp6g046RrOpOQ6EwjmtPgQ6e2Gc\r\nOSSjpDlo8ZU55XS9ObmuBzlz4785N8m2OWCrjzo4vB06uHOTOSQohDrAdAk6ttpzOqV9QjpzGTY6\r\n3XEaOsgBjjqKt8k6HvZMOicoGjocq2w6ap4WOhHEADrfCzk63skBOgeJHDrUTnI5YkuiObHDpjmu\r\nSKM5/cCSOf1k+zmMGlI6inluOu+YIDu89m07RVI0O6+Kgzr+5446GKYWOsGMzDkpPtU5IguVOWYu\r\n0Thu2rs5wj2KOYr0Szln8mE5OIzqOdZKbDmJnpY5zvoYORbfcjmJJb45rPudOReeBTpaM7A5gOEv\r\nOfU4rjmBKBo6bN3fOQHYIDpCxO45IMMKOhDuqjnu5385nKuKOcsUJTnO6QY6IssJOqWwlTkE/nk5\r\n982pOYJKFzlMEgc5kM8qOTzQSjkjjFw5oLMhOb3XTTlwQiA5qwrfOFyxBDkkj0w5MGaVOpPkyzkA\r\nWYw5x/dWOdTGaDnThQM6cUq4OS/ykTn8pTU5cg8tOjmUnzmJETc5yAicOQHqsTm7VQY6AgbzOcxp\r\nYTnUlDk5COb3OVNucjnJjtA5lvYsOVSTlDlbCZA5jieCOevY/jld/5M5ZAsQOQCjIjmaXZk5X2sk\r\nOaKvQDn3w2A5sFLsOCInSDnjTPU4Pw52ORiOFTnxB085aOe5Oeymfzkdh5Q4b9kUOTcjiDlltOQ5\r\nW97hOK93TDk6TJo5GxUROfmZKDmqWVg5gnArOZiUUTljp2g5VN4COa51OjmCG6857I8hOQJUyDiy\r\nFeY4PzlIOQnaEjkNa105LJgJOedSTTmft9w4RFvhOEMPBjkBNUc5IxKaOKB0AzlHK0Y5uzfsOA7s\r\nCTnIO1A5K33WOKFk2jjp16849C8QOWZpPTn28K85JD91Ocr4pTiAdCY50TmeOH4OPTl/1vM4rUTC\r\nOKr9azkWMbo4F7ngOLhyVDn8tgw5pjZnOXrXVTgwxCo4OQx/OXmv4TiOkZs4EjRhOc/BKzm9HJg4\r\nmNmEOBptqTgOwN44isnuOMjHEDkVGqA5ZsgfOcwJgTn/qS85F5G9OSUi8Th4/wU58kwEOcGM0znk\r\nW1o5KBbSOPxmrjgoieg4mOJqOacY5jhwBhY5iXUjOeCfAjn89RI53mOTOE5nnDgXwQo59x/YOLsN\r\nvzisAgg5ZZXBONJSyTg4ChA5g0OvOOLhCzk2PkQ5yZUgOf1/lTgIavM4G5cEObRwszj5plM54Ngg\r\nOTpfCjmgXsE4/c7tOPbIHjng2QM52pkWOVEIBjnWdfE44lgEOVkCJTm3Js04paCwOJruaDnED7c4\r\nlngHOd1wSThLgdw4+MM6OWkNiTjQTig4ZOnTNxI6RTeeDew2cZ29Nv7NAjclhNM2iMnzNsyKczZM\r\nTqE2NwIANyN0CjdyN5Q2WgazNq/6RTZdvu82CgJ2NnBTbzZ2Y8g2nCmlNornMTbyM/U2XdYuNnYx\r\nDDZETwI3eL+nNkEyGTdWc042Yb0WNzGqlDaNeNI2vHqNNkA4sDYmdYE2+cmANhHYVzaKnIs2sgCG\r\nNgmRtTZMoZo22v10NnRMhzYJ96I2OKTLNuYomzb9GYQ2aZ4gNg34YTYuHZo2W3zKNg54fjYZjkw2\r\nf2wUN3Od0TYrN5w2qv+fNtmNlTawHlI20q1xNtWcgzbalsQ2aqh0NqiRqzZJr+Y1tKkfNvwthjbs\r\njso2aMOjNjtLWzaqzNg2QuVVNvmDcTZsOcU2ODthNmCKmjZkwsw2JO2RNrvV7zZ/j5g2X3SCNuWv\r\njDatdLA22aTFNuHopjZGQ1k280BwNm9ZdzZuF3o2uV16NukrgjZ0cmI2oP0yNtheUDbrCZM2IZD3\r\nNcjiiDbmV9M2x6S6NnU/pzZADwg2huV1NusKwzZOBTQ2+FGNNgbaCjZtFJo2oEWzNnsKijZWeO02\r\nGtuJNu8IdjY49Yg2Mr2ANg3ZzjZiM+s2PSKeNoMphDa/F582hoJcNt0QxjZWOKM2KJ8XNqxVQjbY\r\ngaI2GZ6aNs0bpTU+g5g2tEowNtIkZDYOlas2ZR1xNtIkgzZRo4A2kxo0Nq+R7DZCmS43Jnh6NgQS\r\nbDb4RYg2lNw9NuvPkzYiw3I2yo89NhID7TYcIIw26OkjNrMkKzbG26s2fgyyNkykhTarGu41ZVyZ\r\nNs59hja4/3g2DVwlNg8S/DWud6U2N9IvNgCXSjbgmnM2uSBPNn7iXza+E8Q2IrczNgAgGTbUpLw1\r\nmKpzNoJSGzdiAoM2ZpDFNfrlFDY4tAI2RI+mNgX6UTb+VoU2addaNhrNCTZZFHA2uMncNXzMSzbJ\r\nKYk2chpoNlUqsTVQL942eABrNmzNjTZ3X0o2gnWBNn72gTZLTEE2lwQzNgfuCjaKZ0A2Cn+pNqDa\r\nNzbbTXE2Jn7UNu4UKDZVMoQ2j46fNsCxMzbOjB026lnINRYmezYubI02j29ONiv6jzYkvQU24bo/\r\nNlRyPzacL0c24hOWNpYhiDbn4/U1XMKXNjdHgzYwUO01kmwQNsrkGjZWzx02IdkDNtNSCTdR2VE2\r\nthtfNuRpyzaptiM2tEQ0Nkz1XDaF2zA2q9VKNcwlKDW1Wt007vuJNFq4yzRjGzI175BhNbYW/jTC\r\n50I1fp2dNJ2JFzXcfBY1j6wVNck7ADXKUgk1IqzANOh0JjVVrrw0Msw2NZKFGTUaPUI1fBNaNcVN\r\nSTUON7Q0P4fQNFKuFzUxPlU1sICqNGd1ajTm2QI1i7CcNE6RhzRis6A0+Hg7Nbaz2zTd5O41Lo6Q\r\nNCC46jRqY4k02LwPNQsD+zQS2kY1DgsZNQCcHDWKMa00NY4gNbBtFDXqiRc1oiMKNXSGhzRgRxs1\r\nsvCONXglnTQaJsk0VZcVNTwSAjVbovE0HAgiNYYOkDWs+Bk1NoTxNOmQHzWwgbI0cTRKNEIM5zRm\r\n0Eo1Lt3NNDT7uTSlUH81fpTdNNbDuDR5QIA1bivBNDg8tDTqSAw1juzKNPjckTXYQus0QHrGNAe/\r\nzjT+Kxk1k1EENS6XETW7x+g0SgvDNLGCvzSIgvk0RU2fNNSwojQOc7k03IPMNCf6ETV8ef00kiUz\r\nNaCP5DSyjgI1NzurNDzYBDVnrxg1wWfANHpDdjTTMLM0SyeuNCZrpDTpSwg1kQXWNKnmtjTd4L00\r\nCjEvNe+3XjWZAko1Ym35NPTQoTRMXRI1/Kv1NNnw+TREn580ApgENQioMTUc6Qw1wGDtNMWVAjX6\r\nRmI1CN1MNL0nqzQdttc0yKQdNbOO9jSg9bU00Ta0NPpG8jRwfn81zM+VNG1DtzQjBjQ133YnNRiY\r\nzzSD58A0vVEGNeQz7TQc+8c0alDxNOYeqTRZjwM1A1X7NKFF9DRfJtM0Vc0BNUYGIjUIksE0MIwp\r\nNYA4xDQyT2E0+rrONBaUKjWcVbs0lgEXNQhoLjVqYfM0QkIHNXxZBjWjN9A04CoHNf4JgzRmC1I1\r\nHvk2NR48nDSMgG00Zf32NNotNDWhucs0OhP6NCbLvjSa08g0UXkUNWHkGjU2b7M0Jjf1NNWAHTX2\r\nAKk0D22rNDpwCjVAdSE1wIe3NKki1DQ7h1c0c56RNM+EHDWeNvs0MQ70NEBr+DSzItM00gbWNHQw\r\nKDULfMQ0x//kNPxv2TTQtDM1WH4UNV82NTXQGQs1zfzkNE4e5zQRzgg1/pbnNGCS0TTOFd40v6/x\r\nNAS1tjRCvqU0IwneNHHchzWWIeA0UM+4NK8f9TRyIZM0h7UINdtvGDWwIMU0f+g7NQZH3jSvXyg1\r\nQFDUNEfN1zTFaJE0vTVhNZhtEzVsOCo1lI2DNKvBcDU7hyA1G3lgNdKy/jT5BOE0W5yZNMVKxTQt\r\nffo0UfUYNfYY1jRmNic1cjOcNHhM3TQltw01y+wGNdUXAzWjaYQ1EAGsNAMnHTXG2Ok0b2sZNdaU\r\nnTTqTu80BYtpNRavBjXpXoY0gY8TNRz6MzTZ+bU0CwEyNeatmjTYpAw1XQ0NNS4fMDUD3N80w5kB\r\nNbZ+wDSHwM80LsdINflVQTXijxU12ckXNexXHTV3aAk1Y0gINRwPEzWrSkk1gEhcNcKckzRnQdM0\r\nylE8NZTlGjWZRXo1mYPiNKOIGDX9VSk1SDywNE/uAjVE05U0/LpeNYJ8uDT+TwI1K57TNKdFFTVQ\r\nmmw1bxHxNNasyjTwQdg0uDi0NKQl/jRwNLM0eBffNHVFvDRC6IA0QxjQNA8uczQLG6o0fGK7NO7j\r\nmzQBYqc0PLzWNLgI9DTcW6Q0a0AZNYg9STUbsVQ1+5sfNVyxoTRchak0ZlS/NIZF8DQC/LA0KHW2\r\nNAKVBzVhPRg1IxGrNNrwCDVtxBU1lnAcNYeauTTwp/s0RXHANLDJwzTVLtw0yWgLNdyaGTVZOe00\r\nJFcoNZ6B7TQG/MU0+DEUNQFt/DRtlSo14IBuNQxXyzRAZsw0OmxvNepc4TQsbOo0BX5pNeLZFjVa\r\nUP00/NC+NDfFxzSk/Jk0Xv9WNFcJFTUkCfs0nPhONWb3szQLn8U07ItQNLGo0DSMwQE17Z/PNNec\r\n0zRaof0076bINOo8GzXNlYU0hEQkNTyH5jT2YwU1rPNDNQ/OwzRUsuM0rNi/NPhc8DQKmUg1hNDu\r\nNFsmCjUDuzw1VasyNef7cjVSnrA0plT5NKXLhzSFNZ00Ed+nNCFdUDUWMQI1JJnbNNcqvjQMb+40\r\nMCZxNWBYzTTT7DQ1EXZRNffmaTV+3a80W4eUNHE8DjXgGu40gRDrNBPuqjTmEDY1ol3ONJbeJTVU\r\n2RE1pL7HNICD5TRWWw816jZdNU5+4zSdEBA1+UiKNPe7OzXoSB81ciQHNY2hujSihSE1Zmy4NC66\r\njjSDV6M0zDuqNH8orDToE6s0mAmlNNh/LDUtZTA1POHGNHfLdzTbIis17ZIdNZocBDVvRKE0QmwB\r\nNYXQijQkWAs1oC2hNA2Z5TSh2c00fEGaNMT8ujTDZ5w0Y1z7NI2ELjWyxiA1AEAcNQ==",
                            "noiseTrainingType" : "default"
                          }
                        }
                    ],
                    "start" : 3705,
                    "duration" : 270,
                    "mediaStart" : 4606,
                    "mediaDuration" : 270,
                    "scalar" : 1,
                    "metadata" : {
                      "WinSubProjectDisplayName" : "",
                      "clipSpeedAttribute" : false
                    },
                    "animationTracks" : {

                    }
                  },
                  {
                    "id" : 374,
                    "_type" : "AMFile",
                    "src" : 15,
                    "trackNumber" : 0,
                    "attributes" : {
                      "ident" : "旁白_vis2021 1",
                      "sampleRate" : 44100,
                      "bitDepth" : 16,
                      "gain" : 1.0,
                      "mixToMono" : false
                    },
                      "channelNumber" : "0,1",
                    "effects" : [
                        {
                          "effectName" : "NoiseReduction",
                          "parameters" : {
                            "denoiserAmount" : 20.0,
                            "denoiserThreshold" : 0.0,
                            "noiseProfile" : "OWoAPH2pEz2x9Qw+d6HTPcva6j2sp089E2dtPD6vPDwfl1A8ScjwPJTr1Txy35g8LaEAPTpegDyh\r\n+807XKYVO6TEeztxHEg8k5enPOCDljxR1SA80RNNO5P/FTsAUsA78qcaO7cppTsc2vE7qgSrO6lQ\r\n2jukqvI7h92AO2yWGzx+tZU8JitaPFzIyTuXwYE7uY9XO8aQ0Dvqq2I88amYPMnb9DtB2j87KTBk\r\nOzy52zoRSDw7OCjBO9xi/DtxwE88KlbqO3j0qDtWJH47VJnsO9JoxDuANhs8tJ+AO6Qz9Tth+oI8\r\nbGt3O1T1Nzzjhew74A0cPJAvITwici89BseWPGFNtDxkw7o7MRvlOmld0jryf386QXGZOrHMrzuA\r\ngR46FrCVOsPpWDsY4v07HUbYO1nLPjsw9w47wr3FOrnZ+Drc3FY7lUkJO7DAJDv2mAY7Bol9O6Gv\r\nIjui8ek64NliOq5vmTrG/ZM6bCYbO5q5tzpF2YA69unhOXdvJDkMXx461iVVOpU6tTmIPdU5NZ4C\r\nOrLzrDlzv6053gyzOSasszlLTgc5O7atOcYrxzkKtYw6r9cjOpoinjlRRog6Q9QHOqLsbTo5k0E6\r\n9U47OqgHGzq2DIw6xrvIOkIITzrGgR86I/hwOsTOFzq0IQU6isQ5OkIP9DmC+Bw6hsx0OYy4pDnt\r\nMqk5f6afOfFKnDnqIvc5SsRQOpXvdDp8CiE703psOwEALztW+4A6r36ROtKuGDoo4s852RrZOQKM\r\nhDmkgtY4CBe5OXJ5jDnBcjY5RM9jObGZ+DmyHG05aluSOaagETnIyGM5Jt2dOdUxnTmBHwU6PPyu\r\nOQ2PETl6x7k5tcInOtV63TnmcCY6dHftOUWtBzoIt6w5qk+GOf1mbTk4DT454wsLOh2HAjoY+ZY5\r\nyr2VOQQurzmqnRg5LDMFOZLQUjkvV1Q5/g1+OSlxFzlITz85XmAkOdDG/DjiIfM4htxWOREUlTqh\r\nwcw5VnaGOWCBXjn90lA5cKzvOWPrqzkL/o45sEFOOTkyMDpUc5s51oo9ORByjjlGCco52p/tORKy\r\n8Tnit2E51lY0Ofo+ATq6o3Y5Z021OYTVGDlRAq45zuyhOeA4ZDk52eE5nw91ORI2OzlB2R85fgab\r\nOY8bMjkQ1TA5cCaFOXju/Dh2ghM59YD8OFHmfzmnKiQ58YpfOXsbtzlCtX45yEWKOLGkLDkayH45\r\nRUrSOSltyTgvk1U5NT2NOY45EjnfihY5JFlqOTokTjlSlV45Ir54OQ1W5jifjjI5bWS5OfA8NDkO\r\nXs44QhjgOLbnOjkr+iw5hK5/Ocz3Azl6HF45q6DlOIJb2DiR79I4esU3OWtGjDg4gBM5cVloOdzR\r\nDTlkchs5GGg7OVSTtziXOeg4XazEOCiMADmz6Tw5ueqOOVcmeTmS4Ms4nI0UOUTLnjhAXjc56pkE\r\nOdXdBznEOY85PIy4OMxI5zgkSxk5r6oQObvARTnCtUo4LoVEONjrVjnfUsw4msCWOCWAQjlc/y45\r\nJ4KtOCzJrjjGJZ84BKXjOIHj2jhi+yE5rqqOOdCIIzm9fIM56Oo3OUSjtzmiT/M4Wiv3OJw6ETmO\r\nS8w53FJpOdbu1DiJSZs4DaoFOWqKWDkkyvU4GPIdOchJLDmxKwA54MMWOVgzmjgl75M44OcEOVPH\r\n3Dhmzdw4X9sOOb2CyTguC7Y4VgEmOTaQxDjBUAQ5dAM9OarFHjmfj444qMgAOWZMDDmSlas4yUZQ\r\nOaDeMTmPogU5Wxe1OF0m3Dh6aDQ5tbkIObjoEzlqqg45EPLvOKyF+zhUmiE57MvFOPg/vDiW+Vo5\r\nmhyzOGFsBTldBEw4dL3pOOk/QDnXnJQ467sNONFyxDfGPDM3rTsZN+BixjZrWTk338GlNhf/FTe5\r\nNTk2RTSUNkMj3Taj0d02is2UNt0UDDYUXvI1aeXFNhijMjbAtYc2ikWgNuphZDY8D1I28gSnNv4k\r\nLTZRYDk2mtYGN70P5DaWBKc2RzXfNlQFKTeHIYk2IpjaNofVszbqlaM2PatTNiKTzDYjx6M2BMHZ\r\nNiXEdDbJOMs2FNCMNsnGRja2BpI2UsiGNvm1vzbR74Q2wLCoNnn3jDa4fK82VqGlNrSAsTYwh5o2\r\n00guNguj5DYiuZI2yg0BN6PItzbTY6w2VXFINoLcTDbWIk82WJ/cNvx6HDZGdqc2ta/1NVwQMDaG\r\n9VE24mqONlq9rDaNiSE2Lay+NpqbcTYGZ3Q2KPqfNicegDbQyZw27RAtNyQhVjazoMU2izz9Npf0\r\njzbhrAg2zKY4Njo2yjZ1hZE2WNZsNrbfvDZiyp42KRFjNr96jjbjaI02RTYRNmwjhzapnyI2B4XY\r\nNltT7jUOLSY20oDqNhJrxDaCZWw2Ct+VNg/LgjZZzMA2Ik1JNrzQuDZxy901azNqNvW2eDaUuVs2\r\ngu+KNta85ja8P/M1FmShNp/ipjb1OIE21Q/2Nr5JmzYXtZU2x6+qNk6LmTZnjYw2mIJGNul2Jjbc\r\nO3A2lquYNuovLTYtgfE1nUlUNgQzNzaIsDM2DIvUNjKBRja+0oY2ExJ5NgPdJzZaSLQ2EtYgN0Wc\r\nDDbIHow2IiiZNgZUVTa1JnM2v3wcNoN3YDYCtgE38JaENkzoaDb0JTc26/WJNoqw9jYFxFI29vNP\r\nNmdCvDZHFIU2xxObNr0sUTblHoc2JrM/NmrbFDYX93o2m4OpNgs6HDaFNl02Rb2TNpjkJjYAADk2\r\n/8chNn7/QTawezM30gsqNidJ8zWKfC02kBYuNmSnnTa80FY2mFN3NkYZWzY4aO41UHmKNkyZiDYh\r\nGC42h1Y6Np6cgzYSij81AnuaNnc6rzZUXG82vp9eNp4h/jWNsEY2k603NuKSjDbHWSo2RxYINlNS\r\nmTaAOlU2yvJmNkqftzZ5VEk26hV8NjWLezbKM9Y1ernFNWi/XDZaEHQ2dhvANhDaRjYMwy82EwC4\r\nNlCNVTbH4IU2Cx1LNk6XlDbcVNA2FB33NQHMjzY6eW02jpZONqrdMTa+lxk267lUNkhoNDZz+TQ3\r\nwulaNoXxEjYQdsQ2lXEcNsiYOjbfz9o2UzpENvQL0TSOQIM10f8gNcLzLzX5w2c1H4efNN2VyTQO\r\nn70011tKNT7aKTUG8/w0QEgiNUCRKjWhXKI03LYLNQzSrjUnb9E0iB65NCpfLzVs4tk0emppNQtw\r\n8zTy2+U0USoLNeRnDTU88Uc19BfdNFPdNDVtA7Q09QQJNdJhKTXqRNg0am3RNG251DQ1KrA0Oj/Y\r\nNOrxkjTQ8cI0+3eXNEYitDR9exs1YvMdNUBR5DR0pQE1EGj5NAq8KTXmxKs0ErgPNTXAAjVM71g1\r\n2McYNch2PjVA3vs0HZGgNJEIOTWY3M40B5RGNGfgUDUIWUw1AAKQNPuJvjRnt4w0M0qUNPpcxjR3\r\nCM0000dJNZjtnTSx6rQ09gISNSzUKjVHscM0TBtXNYWZEDWjpck07HS+NMuEnzTVZ0U1duMGNWCg\r\n6jTs3880YBEXNT+XujRa3bk0wUISNadMADU5AQ411F8ONePs/jS0pjA105FENQ/HnjQmcwg1WPKH\r\nNFq2nTSuOLI0S9MpNbyI/zTAPso0+sXPNPLB3DTur8o0PLbHNPmbnzT+MvY0YjqvNCUXJTXMJp80\r\nndUPNWmVEjXazkY1O5DgNMl4gzVmyAY1rYEfNXmSQTWIrhU1ikoVNSCqpDTaEbY0/AvpNLIwhDSh\r\nIww1MCwENb5Y/zSUBhw1UowYNbXtpzTvlg4155xcNZhCrDRWs9U0k616NIzznjRmnAQ1Khq/NEm9\r\nCTUki940fgEVNZA1JzWkzqg0RtjuNI+WjTW0QRg1omMcNXzDIDUDHKI0NVu3NMMpRDVCjIo0ViIs\r\nNfxAITWCVB81HXTcNB0NXDWG+bE03vcdNf6QMzXAn8s0Eg/NNATJsTQE9U01LMELNX7DoDSIEB41\r\nwLEGNUVbzTQ8Pwo1QFCINBFgFTVn0vo0JOCjNNaR8zQ1vx41DXUDNak+EjUNQYo08gC7NFzPoTSI\r\n7RU1kpUbNYXvKzWOx240VWf0NGRuBzU6PIo0wlCGNT7g9jSWZjw1Ml4BNRvl6jTQR3w1lmHdNGfd\r\nITTobvU0ypuvNEpF+jTjNY40JYO7NCfBbzQijsA0us84Na6J8TQIYwU1V3IrNSwmYTXQ1kU0zKTc\r\nNDTVfzTj6to0SbOuNHwCvTQ/eR01mcuPNPTduTRDjf806a+nNAj20DREKOo0nPlPNQTe+zQNWSo1\r\nlpGmNBv9xzT/tzk1CtkQNapg2jSMQlI1MDUTNRhOMjWh56Q0AygANa8srzRbOwQ187XxNOQlwDSQ\r\nNO80mTAVNaBD6TQbeoo0UM6FNHPMCjV4t7k0gIxkNE02BjXYBQo1AhAcNWJMijS64uA0zd0JNXWm\r\nEDWiijY1ZpSXNNpWpzTYT+k0QHbzNDaorzSGDHs0qT7ONBvuhzSyYys1dPYCNQdToDTk8uU0MwYH\r\nNWYw+TRbj4g1aJxzNHlxCDVIE8c0Nl2SNOyilTRoqUs1KtMvNbhJPjVmcCE12eGANQ1X8jSNKZo0\r\ndGHdNGrcDjXxZ0A0JhPPNJb14jSwx8o0morUNDmP2DTubH40SSbdNE1r7TRT3rk0EZGLNP35LjV1\r\n1640P7XhNLEsczQldYc02X7eNAZ67jSawbI0drgeNb6GtzSMN9U00j4cNQhrBzWSqgw14dAnNYUF\r\nnDTQSpg0P9OMNOHDLTULMsI0QH6VNI2nxDSl5Yc0WHyLNCaeLDXnc6Y0AaCFNBQP7TTJzR41kvoE\r\nNRykHjU6wZw0+cjVNJdR1TSiQQU10AuONaiUkzUExgY1MMYONaRkZTT9EAU11Bu0NC2j3jTIM4A0\r\nal8cNSoRTzXbrSk1FTDYNEBqkjTgDwA1sun9NP5ztDRWob80HSSSNGYkGDWnkuM0RaMANeGLITXo\r\nTow0GNvbNJlRuzSgsOY0CpP5NMVL9jRRErs0aS1TNVNWgDSmPp80Gvy3NBnwGDXWr7M0dB/VNIw8\r\n0DQBkZ410iF5NDXYLTVZSxU1T0S6NHIrqTRzbRA1XDWKNA2phjRVwpo0SPJ1NGzsODX8K6Y0ne6l\r\nNNU3JjWsl7M0wb+kNKhE5TQUaN8041HRNPhNtTRpfuQ09awXNcwLtDS6nqA0qbk4Nbg8qTQ3pSA0\r\nkRS8NLXO0DRqdcQ0b//eNLPvrDQGQu00fPstNS/HMTWPJMc0fIrENBIciDSLv/k00iuaNNjgPDWm\r\not00DFkCNfHQhDTO4qY0xTYDNbDSOTWNTjA1dLcPNZB1uzQDUrY08mkFNZaNRjXzzK00ErsDNVeQ\r\n3zS5HxA1pmTINLQDBTWIxP008Ny+NADrGDWeipI0eMHvM5R6CTWA3x01wRO2NE0PBDXZKrU0GFyV\r\nNOCJrzSgxtE0tQR+NKJP0zTmcMA0zgvvNFJN7TT5eA41x/eHNAie2jTBXoU1JbdYNQAAEDUAZAE8\r\nF6YTPaE6DT5EKNM9dQ3rPVEOUD0ioW480q89PCfdUDzbEfI8OKDUPGwsmDxHYgE9amiBPGR1zjsP\r\nPhU7a3x7OyhGRzygj6g8mBGWPCuBIDwy9E47Dr4TO1iRvDsOzBo7Kk6nOyjG8juQWao70ZvWOxbH\r\n8zuU8n07aPEbPGxKlzygoVs8TMfIO9+xhDsybFY7q+rTO/L8YTx2ZJg8LVf1O0mYPjuCWmQ7fLXf\r\nOt2APzt7zMI7O4D+Ox50Tzw8t+w7lE+pOzStezsIHeo7gHbGO/xxGTz7XIA7vAj1O108gzyol3g7\r\ntww5PFZa6zv7yxw8BjMgPKnvLj13cpY8hhS0PDysuTskGOc6fsrQOrACgDqdYpQ6nrawO0mtIzpq\r\niZQ6oWVXO4pL/Dsyi9U7isI/O5AADzuqPMM6Xcz3OuCjVjsJJAU70nAkO3xeCzuPI4E7G4YiO1p8\r\n7jrINmQ6RKiWOkNYjzquKxk7L5jEOkefiTpiBN05wkIqOcZGDTp6g046RrOpOQ6EwjmtPgQ6e2Gc\r\nOSSjpDlo8ZU55XS9ObmuBzlz4785N8m2OWCrjzo4vB06uHOTOSQohDrAdAk6ttpzOqV9QjpzGTY6\r\n3XEaOsgBjjqKt8k6HvZMOicoGjocq2w6ap4WOhHEADrfCzk63skBOgeJHDrUTnI5YkuiObHDpjmu\r\nSKM5/cCSOf1k+zmMGlI6inluOu+YIDu89m07RVI0O6+Kgzr+5446GKYWOsGMzDkpPtU5IguVOWYu\r\n0Thu2rs5wj2KOYr0Szln8mE5OIzqOdZKbDmJnpY5zvoYORbfcjmJJb45rPudOReeBTpaM7A5gOEv\r\nOfU4rjmBKBo6bN3fOQHYIDpCxO45IMMKOhDuqjnu5385nKuKOcsUJTnO6QY6IssJOqWwlTkE/nk5\r\n982pOYJKFzlMEgc5kM8qOTzQSjkjjFw5oLMhOb3XTTlwQiA5qwrfOFyxBDkkj0w5MGaVOpPkyzkA\r\nWYw5x/dWOdTGaDnThQM6cUq4OS/ykTn8pTU5cg8tOjmUnzmJETc5yAicOQHqsTm7VQY6AgbzOcxp\r\nYTnUlDk5COb3OVNucjnJjtA5lvYsOVSTlDlbCZA5jieCOevY/jld/5M5ZAsQOQCjIjmaXZk5X2sk\r\nOaKvQDn3w2A5sFLsOCInSDnjTPU4Pw52ORiOFTnxB085aOe5Oeymfzkdh5Q4b9kUOTcjiDlltOQ5\r\nW97hOK93TDk6TJo5GxUROfmZKDmqWVg5gnArOZiUUTljp2g5VN4COa51OjmCG6857I8hOQJUyDiy\r\nFeY4PzlIOQnaEjkNa105LJgJOedSTTmft9w4RFvhOEMPBjkBNUc5IxKaOKB0AzlHK0Y5uzfsOA7s\r\nCTnIO1A5K33WOKFk2jjp16849C8QOWZpPTn28K85JD91Ocr4pTiAdCY50TmeOH4OPTl/1vM4rUTC\r\nOKr9azkWMbo4F7ngOLhyVDn8tgw5pjZnOXrXVTgwxCo4OQx/OXmv4TiOkZs4EjRhOc/BKzm9HJg4\r\nmNmEOBptqTgOwN44isnuOMjHEDkVGqA5ZsgfOcwJgTn/qS85F5G9OSUi8Th4/wU58kwEOcGM0znk\r\nW1o5KBbSOPxmrjgoieg4mOJqOacY5jhwBhY5iXUjOeCfAjn89RI53mOTOE5nnDgXwQo59x/YOLsN\r\nvzisAgg5ZZXBONJSyTg4ChA5g0OvOOLhCzk2PkQ5yZUgOf1/lTgIavM4G5cEObRwszj5plM54Ngg\r\nOTpfCjmgXsE4/c7tOPbIHjng2QM52pkWOVEIBjnWdfE44lgEOVkCJTm3Js04paCwOJruaDnED7c4\r\nlngHOd1wSThLgdw4+MM6OWkNiTjQTig4ZOnTNxI6RTeeDew2cZ29Nv7NAjclhNM2iMnzNsyKczZM\r\nTqE2NwIANyN0CjdyN5Q2WgazNq/6RTZdvu82CgJ2NnBTbzZ2Y8g2nCmlNornMTbyM/U2XdYuNnYx\r\nDDZETwI3eL+nNkEyGTdWc042Yb0WNzGqlDaNeNI2vHqNNkA4sDYmdYE2+cmANhHYVzaKnIs2sgCG\r\nNgmRtTZMoZo22v10NnRMhzYJ96I2OKTLNuYomzb9GYQ2aZ4gNg34YTYuHZo2W3zKNg54fjYZjkw2\r\nf2wUN3Od0TYrN5w2qv+fNtmNlTawHlI20q1xNtWcgzbalsQ2aqh0NqiRqzZJr+Y1tKkfNvwthjbs\r\njso2aMOjNjtLWzaqzNg2QuVVNvmDcTZsOcU2ODthNmCKmjZkwsw2JO2RNrvV7zZ/j5g2X3SCNuWv\r\njDatdLA22aTFNuHopjZGQ1k280BwNm9ZdzZuF3o2uV16NukrgjZ0cmI2oP0yNtheUDbrCZM2IZD3\r\nNcjiiDbmV9M2x6S6NnU/pzZADwg2huV1NusKwzZOBTQ2+FGNNgbaCjZtFJo2oEWzNnsKijZWeO02\r\nGtuJNu8IdjY49Yg2Mr2ANg3ZzjZiM+s2PSKeNoMphDa/F582hoJcNt0QxjZWOKM2KJ8XNqxVQjbY\r\ngaI2GZ6aNs0bpTU+g5g2tEowNtIkZDYOlas2ZR1xNtIkgzZRo4A2kxo0Nq+R7DZCmS43Jnh6NgQS\r\nbDb4RYg2lNw9NuvPkzYiw3I2yo89NhID7TYcIIw26OkjNrMkKzbG26s2fgyyNkykhTarGu41ZVyZ\r\nNs59hja4/3g2DVwlNg8S/DWud6U2N9IvNgCXSjbgmnM2uSBPNn7iXza+E8Q2IrczNgAgGTbUpLw1\r\nmKpzNoJSGzdiAoM2ZpDFNfrlFDY4tAI2RI+mNgX6UTb+VoU2addaNhrNCTZZFHA2uMncNXzMSzbJ\r\nKYk2chpoNlUqsTVQL942eABrNmzNjTZ3X0o2gnWBNn72gTZLTEE2lwQzNgfuCjaKZ0A2Cn+pNqDa\r\nNzbbTXE2Jn7UNu4UKDZVMoQ2j46fNsCxMzbOjB026lnINRYmezYubI02j29ONiv6jzYkvQU24bo/\r\nNlRyPzacL0c24hOWNpYhiDbn4/U1XMKXNjdHgzYwUO01kmwQNsrkGjZWzx02IdkDNtNSCTdR2VE2\r\nthtfNuRpyzaptiM2tEQ0Nkz1XDaF2zA2q9VKNcwlKDW1Wt007vuJNFq4yzRjGzI175BhNbYW/jTC\r\n50I1fp2dNJ2JFzXcfBY1j6wVNck7ADXKUgk1IqzANOh0JjVVrrw0Msw2NZKFGTUaPUI1fBNaNcVN\r\nSTUON7Q0P4fQNFKuFzUxPlU1sICqNGd1ajTm2QI1i7CcNE6RhzRis6A0+Hg7Nbaz2zTd5O41Lo6Q\r\nNCC46jRqY4k02LwPNQsD+zQS2kY1DgsZNQCcHDWKMa00NY4gNbBtFDXqiRc1oiMKNXSGhzRgRxs1\r\nsvCONXglnTQaJsk0VZcVNTwSAjVbovE0HAgiNYYOkDWs+Bk1NoTxNOmQHzWwgbI0cTRKNEIM5zRm\r\n0Eo1Lt3NNDT7uTSlUH81fpTdNNbDuDR5QIA1bivBNDg8tDTqSAw1juzKNPjckTXYQus0QHrGNAe/\r\nzjT+Kxk1k1EENS6XETW7x+g0SgvDNLGCvzSIgvk0RU2fNNSwojQOc7k03IPMNCf6ETV8ef00kiUz\r\nNaCP5DSyjgI1NzurNDzYBDVnrxg1wWfANHpDdjTTMLM0SyeuNCZrpDTpSwg1kQXWNKnmtjTd4L00\r\nCjEvNe+3XjWZAko1Ym35NPTQoTRMXRI1/Kv1NNnw+TREn580ApgENQioMTUc6Qw1wGDtNMWVAjX6\r\nRmI1CN1MNL0nqzQdttc0yKQdNbOO9jSg9bU00Ta0NPpG8jRwfn81zM+VNG1DtzQjBjQ133YnNRiY\r\nzzSD58A0vVEGNeQz7TQc+8c0alDxNOYeqTRZjwM1A1X7NKFF9DRfJtM0Vc0BNUYGIjUIksE0MIwp\r\nNYA4xDQyT2E0+rrONBaUKjWcVbs0lgEXNQhoLjVqYfM0QkIHNXxZBjWjN9A04CoHNf4JgzRmC1I1\r\nHvk2NR48nDSMgG00Zf32NNotNDWhucs0OhP6NCbLvjSa08g0UXkUNWHkGjU2b7M0Jjf1NNWAHTX2\r\nAKk0D22rNDpwCjVAdSE1wIe3NKki1DQ7h1c0c56RNM+EHDWeNvs0MQ70NEBr+DSzItM00gbWNHQw\r\nKDULfMQ0x//kNPxv2TTQtDM1WH4UNV82NTXQGQs1zfzkNE4e5zQRzgg1/pbnNGCS0TTOFd40v6/x\r\nNAS1tjRCvqU0IwneNHHchzWWIeA0UM+4NK8f9TRyIZM0h7UINdtvGDWwIMU0f+g7NQZH3jSvXyg1\r\nQFDUNEfN1zTFaJE0vTVhNZhtEzVsOCo1lI2DNKvBcDU7hyA1G3lgNdKy/jT5BOE0W5yZNMVKxTQt\r\nffo0UfUYNfYY1jRmNic1cjOcNHhM3TQltw01y+wGNdUXAzWjaYQ1EAGsNAMnHTXG2Ok0b2sZNdaU\r\nnTTqTu80BYtpNRavBjXpXoY0gY8TNRz6MzTZ+bU0CwEyNeatmjTYpAw1XQ0NNS4fMDUD3N80w5kB\r\nNbZ+wDSHwM80LsdINflVQTXijxU12ckXNexXHTV3aAk1Y0gINRwPEzWrSkk1gEhcNcKckzRnQdM0\r\nylE8NZTlGjWZRXo1mYPiNKOIGDX9VSk1SDywNE/uAjVE05U0/LpeNYJ8uDT+TwI1K57TNKdFFTVQ\r\nmmw1bxHxNNasyjTwQdg0uDi0NKQl/jRwNLM0eBffNHVFvDRC6IA0QxjQNA8uczQLG6o0fGK7NO7j\r\nmzQBYqc0PLzWNLgI9DTcW6Q0a0AZNYg9STUbsVQ1+5sfNVyxoTRchak0ZlS/NIZF8DQC/LA0KHW2\r\nNAKVBzVhPRg1IxGrNNrwCDVtxBU1lnAcNYeauTTwp/s0RXHANLDJwzTVLtw0yWgLNdyaGTVZOe00\r\nJFcoNZ6B7TQG/MU0+DEUNQFt/DRtlSo14IBuNQxXyzRAZsw0OmxvNepc4TQsbOo0BX5pNeLZFjVa\r\nUP00/NC+NDfFxzSk/Jk0Xv9WNFcJFTUkCfs0nPhONWb3szQLn8U07ItQNLGo0DSMwQE17Z/PNNec\r\n0zRaof0076bINOo8GzXNlYU0hEQkNTyH5jT2YwU1rPNDNQ/OwzRUsuM0rNi/NPhc8DQKmUg1hNDu\r\nNFsmCjUDuzw1VasyNef7cjVSnrA0plT5NKXLhzSFNZ00Ed+nNCFdUDUWMQI1JJnbNNcqvjQMb+40\r\nMCZxNWBYzTTT7DQ1EXZRNffmaTV+3a80W4eUNHE8DjXgGu40gRDrNBPuqjTmEDY1ol3ONJbeJTVU\r\n2RE1pL7HNICD5TRWWw816jZdNU5+4zSdEBA1+UiKNPe7OzXoSB81ciQHNY2hujSihSE1Zmy4NC66\r\njjSDV6M0zDuqNH8orDToE6s0mAmlNNh/LDUtZTA1POHGNHfLdzTbIis17ZIdNZocBDVvRKE0QmwB\r\nNYXQijQkWAs1oC2hNA2Z5TSh2c00fEGaNMT8ujTDZ5w0Y1z7NI2ELjWyxiA1AEAcNQ==",
                            "noiseTrainingType" : "default"
                          }
                        }
                    ],
                    "start" : 3975,
                    "duration" : 129,
                    "mediaStart" : 4886,
                    "mediaDuration" : 129,
                    "scalar" : 1,
                    "metadata" : {
                      "WinSubProjectDisplayName" : "",
                      "clipSpeedAttribute" : false
                    },
                    "animationTracks" : {

                    }
                  },
                  {
                    "id" : 375,
                    "_type" : "AMFile",
                    "src" : 15,
                    "trackNumber" : 0,
                    "attributes" : {
                      "ident" : "旁白_vis2021 1",
                      "sampleRate" : 44100,
                      "bitDepth" : 16,
                      "gain" : 1.0,
                      "mixToMono" : false
                    },
                      "channelNumber" : "0,1",
                    "effects" : [
                        {
                          "effectName" : "NoiseReduction",
                          "parameters" : {
                            "denoiserAmount" : 20.0,
                            "denoiserThreshold" : 0.0,
                            "noiseProfile" : "OWoAPH2pEz2x9Qw+d6HTPcva6j2sp089E2dtPD6vPDwfl1A8ScjwPJTr1Txy35g8LaEAPTpegDyh\r\n+807XKYVO6TEeztxHEg8k5enPOCDljxR1SA80RNNO5P/FTsAUsA78qcaO7cppTsc2vE7qgSrO6lQ\r\n2jukqvI7h92AO2yWGzx+tZU8JitaPFzIyTuXwYE7uY9XO8aQ0Dvqq2I88amYPMnb9DtB2j87KTBk\r\nOzy52zoRSDw7OCjBO9xi/DtxwE88KlbqO3j0qDtWJH47VJnsO9JoxDuANhs8tJ+AO6Qz9Tth+oI8\r\nbGt3O1T1Nzzjhew74A0cPJAvITwici89BseWPGFNtDxkw7o7MRvlOmld0jryf386QXGZOrHMrzuA\r\ngR46FrCVOsPpWDsY4v07HUbYO1nLPjsw9w47wr3FOrnZ+Drc3FY7lUkJO7DAJDv2mAY7Bol9O6Gv\r\nIjui8ek64NliOq5vmTrG/ZM6bCYbO5q5tzpF2YA69unhOXdvJDkMXx461iVVOpU6tTmIPdU5NZ4C\r\nOrLzrDlzv6053gyzOSasszlLTgc5O7atOcYrxzkKtYw6r9cjOpoinjlRRog6Q9QHOqLsbTo5k0E6\r\n9U47OqgHGzq2DIw6xrvIOkIITzrGgR86I/hwOsTOFzq0IQU6isQ5OkIP9DmC+Bw6hsx0OYy4pDnt\r\nMqk5f6afOfFKnDnqIvc5SsRQOpXvdDp8CiE703psOwEALztW+4A6r36ROtKuGDoo4s852RrZOQKM\r\nhDmkgtY4CBe5OXJ5jDnBcjY5RM9jObGZ+DmyHG05aluSOaagETnIyGM5Jt2dOdUxnTmBHwU6PPyu\r\nOQ2PETl6x7k5tcInOtV63TnmcCY6dHftOUWtBzoIt6w5qk+GOf1mbTk4DT454wsLOh2HAjoY+ZY5\r\nyr2VOQQurzmqnRg5LDMFOZLQUjkvV1Q5/g1+OSlxFzlITz85XmAkOdDG/DjiIfM4htxWOREUlTqh\r\nwcw5VnaGOWCBXjn90lA5cKzvOWPrqzkL/o45sEFOOTkyMDpUc5s51oo9ORByjjlGCco52p/tORKy\r\n8Tnit2E51lY0Ofo+ATq6o3Y5Z021OYTVGDlRAq45zuyhOeA4ZDk52eE5nw91ORI2OzlB2R85fgab\r\nOY8bMjkQ1TA5cCaFOXju/Dh2ghM59YD8OFHmfzmnKiQ58YpfOXsbtzlCtX45yEWKOLGkLDkayH45\r\nRUrSOSltyTgvk1U5NT2NOY45EjnfihY5JFlqOTokTjlSlV45Ir54OQ1W5jifjjI5bWS5OfA8NDkO\r\nXs44QhjgOLbnOjkr+iw5hK5/Ocz3Azl6HF45q6DlOIJb2DiR79I4esU3OWtGjDg4gBM5cVloOdzR\r\nDTlkchs5GGg7OVSTtziXOeg4XazEOCiMADmz6Tw5ueqOOVcmeTmS4Ms4nI0UOUTLnjhAXjc56pkE\r\nOdXdBznEOY85PIy4OMxI5zgkSxk5r6oQObvARTnCtUo4LoVEONjrVjnfUsw4msCWOCWAQjlc/y45\r\nJ4KtOCzJrjjGJZ84BKXjOIHj2jhi+yE5rqqOOdCIIzm9fIM56Oo3OUSjtzmiT/M4Wiv3OJw6ETmO\r\nS8w53FJpOdbu1DiJSZs4DaoFOWqKWDkkyvU4GPIdOchJLDmxKwA54MMWOVgzmjgl75M44OcEOVPH\r\n3Dhmzdw4X9sOOb2CyTguC7Y4VgEmOTaQxDjBUAQ5dAM9OarFHjmfj444qMgAOWZMDDmSlas4yUZQ\r\nOaDeMTmPogU5Wxe1OF0m3Dh6aDQ5tbkIObjoEzlqqg45EPLvOKyF+zhUmiE57MvFOPg/vDiW+Vo5\r\nmhyzOGFsBTldBEw4dL3pOOk/QDnXnJQ467sNONFyxDfGPDM3rTsZN+BixjZrWTk338GlNhf/FTe5\r\nNTk2RTSUNkMj3Taj0d02is2UNt0UDDYUXvI1aeXFNhijMjbAtYc2ikWgNuphZDY8D1I28gSnNv4k\r\nLTZRYDk2mtYGN70P5DaWBKc2RzXfNlQFKTeHIYk2IpjaNofVszbqlaM2PatTNiKTzDYjx6M2BMHZ\r\nNiXEdDbJOMs2FNCMNsnGRja2BpI2UsiGNvm1vzbR74Q2wLCoNnn3jDa4fK82VqGlNrSAsTYwh5o2\r\n00guNguj5DYiuZI2yg0BN6PItzbTY6w2VXFINoLcTDbWIk82WJ/cNvx6HDZGdqc2ta/1NVwQMDaG\r\n9VE24mqONlq9rDaNiSE2Lay+NpqbcTYGZ3Q2KPqfNicegDbQyZw27RAtNyQhVjazoMU2izz9Npf0\r\njzbhrAg2zKY4Njo2yjZ1hZE2WNZsNrbfvDZiyp42KRFjNr96jjbjaI02RTYRNmwjhzapnyI2B4XY\r\nNltT7jUOLSY20oDqNhJrxDaCZWw2Ct+VNg/LgjZZzMA2Ik1JNrzQuDZxy901azNqNvW2eDaUuVs2\r\ngu+KNta85ja8P/M1FmShNp/ipjb1OIE21Q/2Nr5JmzYXtZU2x6+qNk6LmTZnjYw2mIJGNul2Jjbc\r\nO3A2lquYNuovLTYtgfE1nUlUNgQzNzaIsDM2DIvUNjKBRja+0oY2ExJ5NgPdJzZaSLQ2EtYgN0Wc\r\nDDbIHow2IiiZNgZUVTa1JnM2v3wcNoN3YDYCtgE38JaENkzoaDb0JTc26/WJNoqw9jYFxFI29vNP\r\nNmdCvDZHFIU2xxObNr0sUTblHoc2JrM/NmrbFDYX93o2m4OpNgs6HDaFNl02Rb2TNpjkJjYAADk2\r\n/8chNn7/QTawezM30gsqNidJ8zWKfC02kBYuNmSnnTa80FY2mFN3NkYZWzY4aO41UHmKNkyZiDYh\r\nGC42h1Y6Np6cgzYSij81AnuaNnc6rzZUXG82vp9eNp4h/jWNsEY2k603NuKSjDbHWSo2RxYINlNS\r\nmTaAOlU2yvJmNkqftzZ5VEk26hV8NjWLezbKM9Y1ernFNWi/XDZaEHQ2dhvANhDaRjYMwy82EwC4\r\nNlCNVTbH4IU2Cx1LNk6XlDbcVNA2FB33NQHMjzY6eW02jpZONqrdMTa+lxk267lUNkhoNDZz+TQ3\r\nwulaNoXxEjYQdsQ2lXEcNsiYOjbfz9o2UzpENvQL0TSOQIM10f8gNcLzLzX5w2c1H4efNN2VyTQO\r\nn70011tKNT7aKTUG8/w0QEgiNUCRKjWhXKI03LYLNQzSrjUnb9E0iB65NCpfLzVs4tk0emppNQtw\r\n8zTy2+U0USoLNeRnDTU88Uc19BfdNFPdNDVtA7Q09QQJNdJhKTXqRNg0am3RNG251DQ1KrA0Oj/Y\r\nNOrxkjTQ8cI0+3eXNEYitDR9exs1YvMdNUBR5DR0pQE1EGj5NAq8KTXmxKs0ErgPNTXAAjVM71g1\r\n2McYNch2PjVA3vs0HZGgNJEIOTWY3M40B5RGNGfgUDUIWUw1AAKQNPuJvjRnt4w0M0qUNPpcxjR3\r\nCM0000dJNZjtnTSx6rQ09gISNSzUKjVHscM0TBtXNYWZEDWjpck07HS+NMuEnzTVZ0U1duMGNWCg\r\n6jTs3880YBEXNT+XujRa3bk0wUISNadMADU5AQ411F8ONePs/jS0pjA105FENQ/HnjQmcwg1WPKH\r\nNFq2nTSuOLI0S9MpNbyI/zTAPso0+sXPNPLB3DTur8o0PLbHNPmbnzT+MvY0YjqvNCUXJTXMJp80\r\nndUPNWmVEjXazkY1O5DgNMl4gzVmyAY1rYEfNXmSQTWIrhU1ikoVNSCqpDTaEbY0/AvpNLIwhDSh\r\nIww1MCwENb5Y/zSUBhw1UowYNbXtpzTvlg4155xcNZhCrDRWs9U0k616NIzznjRmnAQ1Khq/NEm9\r\nCTUki940fgEVNZA1JzWkzqg0RtjuNI+WjTW0QRg1omMcNXzDIDUDHKI0NVu3NMMpRDVCjIo0ViIs\r\nNfxAITWCVB81HXTcNB0NXDWG+bE03vcdNf6QMzXAn8s0Eg/NNATJsTQE9U01LMELNX7DoDSIEB41\r\nwLEGNUVbzTQ8Pwo1QFCINBFgFTVn0vo0JOCjNNaR8zQ1vx41DXUDNak+EjUNQYo08gC7NFzPoTSI\r\n7RU1kpUbNYXvKzWOx240VWf0NGRuBzU6PIo0wlCGNT7g9jSWZjw1Ml4BNRvl6jTQR3w1lmHdNGfd\r\nITTobvU0ypuvNEpF+jTjNY40JYO7NCfBbzQijsA0us84Na6J8TQIYwU1V3IrNSwmYTXQ1kU0zKTc\r\nNDTVfzTj6to0SbOuNHwCvTQ/eR01mcuPNPTduTRDjf806a+nNAj20DREKOo0nPlPNQTe+zQNWSo1\r\nlpGmNBv9xzT/tzk1CtkQNapg2jSMQlI1MDUTNRhOMjWh56Q0AygANa8srzRbOwQ187XxNOQlwDSQ\r\nNO80mTAVNaBD6TQbeoo0UM6FNHPMCjV4t7k0gIxkNE02BjXYBQo1AhAcNWJMijS64uA0zd0JNXWm\r\nEDWiijY1ZpSXNNpWpzTYT+k0QHbzNDaorzSGDHs0qT7ONBvuhzSyYys1dPYCNQdToDTk8uU0MwYH\r\nNWYw+TRbj4g1aJxzNHlxCDVIE8c0Nl2SNOyilTRoqUs1KtMvNbhJPjVmcCE12eGANQ1X8jSNKZo0\r\ndGHdNGrcDjXxZ0A0JhPPNJb14jSwx8o0morUNDmP2DTubH40SSbdNE1r7TRT3rk0EZGLNP35LjV1\r\n1640P7XhNLEsczQldYc02X7eNAZ67jSawbI0drgeNb6GtzSMN9U00j4cNQhrBzWSqgw14dAnNYUF\r\nnDTQSpg0P9OMNOHDLTULMsI0QH6VNI2nxDSl5Yc0WHyLNCaeLDXnc6Y0AaCFNBQP7TTJzR41kvoE\r\nNRykHjU6wZw0+cjVNJdR1TSiQQU10AuONaiUkzUExgY1MMYONaRkZTT9EAU11Bu0NC2j3jTIM4A0\r\nal8cNSoRTzXbrSk1FTDYNEBqkjTgDwA1sun9NP5ztDRWob80HSSSNGYkGDWnkuM0RaMANeGLITXo\r\nTow0GNvbNJlRuzSgsOY0CpP5NMVL9jRRErs0aS1TNVNWgDSmPp80Gvy3NBnwGDXWr7M0dB/VNIw8\r\n0DQBkZ410iF5NDXYLTVZSxU1T0S6NHIrqTRzbRA1XDWKNA2phjRVwpo0SPJ1NGzsODX8K6Y0ne6l\r\nNNU3JjWsl7M0wb+kNKhE5TQUaN8041HRNPhNtTRpfuQ09awXNcwLtDS6nqA0qbk4Nbg8qTQ3pSA0\r\nkRS8NLXO0DRqdcQ0b//eNLPvrDQGQu00fPstNS/HMTWPJMc0fIrENBIciDSLv/k00iuaNNjgPDWm\r\not00DFkCNfHQhDTO4qY0xTYDNbDSOTWNTjA1dLcPNZB1uzQDUrY08mkFNZaNRjXzzK00ErsDNVeQ\r\n3zS5HxA1pmTINLQDBTWIxP008Ny+NADrGDWeipI0eMHvM5R6CTWA3x01wRO2NE0PBDXZKrU0GFyV\r\nNOCJrzSgxtE0tQR+NKJP0zTmcMA0zgvvNFJN7TT5eA41x/eHNAie2jTBXoU1JbdYNQAAEDUAZAE8\r\nF6YTPaE6DT5EKNM9dQ3rPVEOUD0ioW480q89PCfdUDzbEfI8OKDUPGwsmDxHYgE9amiBPGR1zjsP\r\nPhU7a3x7OyhGRzygj6g8mBGWPCuBIDwy9E47Dr4TO1iRvDsOzBo7Kk6nOyjG8juQWao70ZvWOxbH\r\n8zuU8n07aPEbPGxKlzygoVs8TMfIO9+xhDsybFY7q+rTO/L8YTx2ZJg8LVf1O0mYPjuCWmQ7fLXf\r\nOt2APzt7zMI7O4D+Ox50Tzw8t+w7lE+pOzStezsIHeo7gHbGO/xxGTz7XIA7vAj1O108gzyol3g7\r\ntww5PFZa6zv7yxw8BjMgPKnvLj13cpY8hhS0PDysuTskGOc6fsrQOrACgDqdYpQ6nrawO0mtIzpq\r\niZQ6oWVXO4pL/Dsyi9U7isI/O5AADzuqPMM6Xcz3OuCjVjsJJAU70nAkO3xeCzuPI4E7G4YiO1p8\r\n7jrINmQ6RKiWOkNYjzquKxk7L5jEOkefiTpiBN05wkIqOcZGDTp6g046RrOpOQ6EwjmtPgQ6e2Gc\r\nOSSjpDlo8ZU55XS9ObmuBzlz4785N8m2OWCrjzo4vB06uHOTOSQohDrAdAk6ttpzOqV9QjpzGTY6\r\n3XEaOsgBjjqKt8k6HvZMOicoGjocq2w6ap4WOhHEADrfCzk63skBOgeJHDrUTnI5YkuiObHDpjmu\r\nSKM5/cCSOf1k+zmMGlI6inluOu+YIDu89m07RVI0O6+Kgzr+5446GKYWOsGMzDkpPtU5IguVOWYu\r\n0Thu2rs5wj2KOYr0Szln8mE5OIzqOdZKbDmJnpY5zvoYORbfcjmJJb45rPudOReeBTpaM7A5gOEv\r\nOfU4rjmBKBo6bN3fOQHYIDpCxO45IMMKOhDuqjnu5385nKuKOcsUJTnO6QY6IssJOqWwlTkE/nk5\r\n982pOYJKFzlMEgc5kM8qOTzQSjkjjFw5oLMhOb3XTTlwQiA5qwrfOFyxBDkkj0w5MGaVOpPkyzkA\r\nWYw5x/dWOdTGaDnThQM6cUq4OS/ykTn8pTU5cg8tOjmUnzmJETc5yAicOQHqsTm7VQY6AgbzOcxp\r\nYTnUlDk5COb3OVNucjnJjtA5lvYsOVSTlDlbCZA5jieCOevY/jld/5M5ZAsQOQCjIjmaXZk5X2sk\r\nOaKvQDn3w2A5sFLsOCInSDnjTPU4Pw52ORiOFTnxB085aOe5Oeymfzkdh5Q4b9kUOTcjiDlltOQ5\r\nW97hOK93TDk6TJo5GxUROfmZKDmqWVg5gnArOZiUUTljp2g5VN4COa51OjmCG6857I8hOQJUyDiy\r\nFeY4PzlIOQnaEjkNa105LJgJOedSTTmft9w4RFvhOEMPBjkBNUc5IxKaOKB0AzlHK0Y5uzfsOA7s\r\nCTnIO1A5K33WOKFk2jjp16849C8QOWZpPTn28K85JD91Ocr4pTiAdCY50TmeOH4OPTl/1vM4rUTC\r\nOKr9azkWMbo4F7ngOLhyVDn8tgw5pjZnOXrXVTgwxCo4OQx/OXmv4TiOkZs4EjRhOc/BKzm9HJg4\r\nmNmEOBptqTgOwN44isnuOMjHEDkVGqA5ZsgfOcwJgTn/qS85F5G9OSUi8Th4/wU58kwEOcGM0znk\r\nW1o5KBbSOPxmrjgoieg4mOJqOacY5jhwBhY5iXUjOeCfAjn89RI53mOTOE5nnDgXwQo59x/YOLsN\r\nvzisAgg5ZZXBONJSyTg4ChA5g0OvOOLhCzk2PkQ5yZUgOf1/lTgIavM4G5cEObRwszj5plM54Ngg\r\nOTpfCjmgXsE4/c7tOPbIHjng2QM52pkWOVEIBjnWdfE44lgEOVkCJTm3Js04paCwOJruaDnED7c4\r\nlngHOd1wSThLgdw4+MM6OWkNiTjQTig4ZOnTNxI6RTeeDew2cZ29Nv7NAjclhNM2iMnzNsyKczZM\r\nTqE2NwIANyN0CjdyN5Q2WgazNq/6RTZdvu82CgJ2NnBTbzZ2Y8g2nCmlNornMTbyM/U2XdYuNnYx\r\nDDZETwI3eL+nNkEyGTdWc042Yb0WNzGqlDaNeNI2vHqNNkA4sDYmdYE2+cmANhHYVzaKnIs2sgCG\r\nNgmRtTZMoZo22v10NnRMhzYJ96I2OKTLNuYomzb9GYQ2aZ4gNg34YTYuHZo2W3zKNg54fjYZjkw2\r\nf2wUN3Od0TYrN5w2qv+fNtmNlTawHlI20q1xNtWcgzbalsQ2aqh0NqiRqzZJr+Y1tKkfNvwthjbs\r\njso2aMOjNjtLWzaqzNg2QuVVNvmDcTZsOcU2ODthNmCKmjZkwsw2JO2RNrvV7zZ/j5g2X3SCNuWv\r\njDatdLA22aTFNuHopjZGQ1k280BwNm9ZdzZuF3o2uV16NukrgjZ0cmI2oP0yNtheUDbrCZM2IZD3\r\nNcjiiDbmV9M2x6S6NnU/pzZADwg2huV1NusKwzZOBTQ2+FGNNgbaCjZtFJo2oEWzNnsKijZWeO02\r\nGtuJNu8IdjY49Yg2Mr2ANg3ZzjZiM+s2PSKeNoMphDa/F582hoJcNt0QxjZWOKM2KJ8XNqxVQjbY\r\ngaI2GZ6aNs0bpTU+g5g2tEowNtIkZDYOlas2ZR1xNtIkgzZRo4A2kxo0Nq+R7DZCmS43Jnh6NgQS\r\nbDb4RYg2lNw9NuvPkzYiw3I2yo89NhID7TYcIIw26OkjNrMkKzbG26s2fgyyNkykhTarGu41ZVyZ\r\nNs59hja4/3g2DVwlNg8S/DWud6U2N9IvNgCXSjbgmnM2uSBPNn7iXza+E8Q2IrczNgAgGTbUpLw1\r\nmKpzNoJSGzdiAoM2ZpDFNfrlFDY4tAI2RI+mNgX6UTb+VoU2addaNhrNCTZZFHA2uMncNXzMSzbJ\r\nKYk2chpoNlUqsTVQL942eABrNmzNjTZ3X0o2gnWBNn72gTZLTEE2lwQzNgfuCjaKZ0A2Cn+pNqDa\r\nNzbbTXE2Jn7UNu4UKDZVMoQ2j46fNsCxMzbOjB026lnINRYmezYubI02j29ONiv6jzYkvQU24bo/\r\nNlRyPzacL0c24hOWNpYhiDbn4/U1XMKXNjdHgzYwUO01kmwQNsrkGjZWzx02IdkDNtNSCTdR2VE2\r\nthtfNuRpyzaptiM2tEQ0Nkz1XDaF2zA2q9VKNcwlKDW1Wt007vuJNFq4yzRjGzI175BhNbYW/jTC\r\n50I1fp2dNJ2JFzXcfBY1j6wVNck7ADXKUgk1IqzANOh0JjVVrrw0Msw2NZKFGTUaPUI1fBNaNcVN\r\nSTUON7Q0P4fQNFKuFzUxPlU1sICqNGd1ajTm2QI1i7CcNE6RhzRis6A0+Hg7Nbaz2zTd5O41Lo6Q\r\nNCC46jRqY4k02LwPNQsD+zQS2kY1DgsZNQCcHDWKMa00NY4gNbBtFDXqiRc1oiMKNXSGhzRgRxs1\r\nsvCONXglnTQaJsk0VZcVNTwSAjVbovE0HAgiNYYOkDWs+Bk1NoTxNOmQHzWwgbI0cTRKNEIM5zRm\r\n0Eo1Lt3NNDT7uTSlUH81fpTdNNbDuDR5QIA1bivBNDg8tDTqSAw1juzKNPjckTXYQus0QHrGNAe/\r\nzjT+Kxk1k1EENS6XETW7x+g0SgvDNLGCvzSIgvk0RU2fNNSwojQOc7k03IPMNCf6ETV8ef00kiUz\r\nNaCP5DSyjgI1NzurNDzYBDVnrxg1wWfANHpDdjTTMLM0SyeuNCZrpDTpSwg1kQXWNKnmtjTd4L00\r\nCjEvNe+3XjWZAko1Ym35NPTQoTRMXRI1/Kv1NNnw+TREn580ApgENQioMTUc6Qw1wGDtNMWVAjX6\r\nRmI1CN1MNL0nqzQdttc0yKQdNbOO9jSg9bU00Ta0NPpG8jRwfn81zM+VNG1DtzQjBjQ133YnNRiY\r\nzzSD58A0vVEGNeQz7TQc+8c0alDxNOYeqTRZjwM1A1X7NKFF9DRfJtM0Vc0BNUYGIjUIksE0MIwp\r\nNYA4xDQyT2E0+rrONBaUKjWcVbs0lgEXNQhoLjVqYfM0QkIHNXxZBjWjN9A04CoHNf4JgzRmC1I1\r\nHvk2NR48nDSMgG00Zf32NNotNDWhucs0OhP6NCbLvjSa08g0UXkUNWHkGjU2b7M0Jjf1NNWAHTX2\r\nAKk0D22rNDpwCjVAdSE1wIe3NKki1DQ7h1c0c56RNM+EHDWeNvs0MQ70NEBr+DSzItM00gbWNHQw\r\nKDULfMQ0x//kNPxv2TTQtDM1WH4UNV82NTXQGQs1zfzkNE4e5zQRzgg1/pbnNGCS0TTOFd40v6/x\r\nNAS1tjRCvqU0IwneNHHchzWWIeA0UM+4NK8f9TRyIZM0h7UINdtvGDWwIMU0f+g7NQZH3jSvXyg1\r\nQFDUNEfN1zTFaJE0vTVhNZhtEzVsOCo1lI2DNKvBcDU7hyA1G3lgNdKy/jT5BOE0W5yZNMVKxTQt\r\nffo0UfUYNfYY1jRmNic1cjOcNHhM3TQltw01y+wGNdUXAzWjaYQ1EAGsNAMnHTXG2Ok0b2sZNdaU\r\nnTTqTu80BYtpNRavBjXpXoY0gY8TNRz6MzTZ+bU0CwEyNeatmjTYpAw1XQ0NNS4fMDUD3N80w5kB\r\nNbZ+wDSHwM80LsdINflVQTXijxU12ckXNexXHTV3aAk1Y0gINRwPEzWrSkk1gEhcNcKckzRnQdM0\r\nylE8NZTlGjWZRXo1mYPiNKOIGDX9VSk1SDywNE/uAjVE05U0/LpeNYJ8uDT+TwI1K57TNKdFFTVQ\r\nmmw1bxHxNNasyjTwQdg0uDi0NKQl/jRwNLM0eBffNHVFvDRC6IA0QxjQNA8uczQLG6o0fGK7NO7j\r\nmzQBYqc0PLzWNLgI9DTcW6Q0a0AZNYg9STUbsVQ1+5sfNVyxoTRchak0ZlS/NIZF8DQC/LA0KHW2\r\nNAKVBzVhPRg1IxGrNNrwCDVtxBU1lnAcNYeauTTwp/s0RXHANLDJwzTVLtw0yWgLNdyaGTVZOe00\r\nJFcoNZ6B7TQG/MU0+DEUNQFt/DRtlSo14IBuNQxXyzRAZsw0OmxvNepc4TQsbOo0BX5pNeLZFjVa\r\nUP00/NC+NDfFxzSk/Jk0Xv9WNFcJFTUkCfs0nPhONWb3szQLn8U07ItQNLGo0DSMwQE17Z/PNNec\r\n0zRaof0076bINOo8GzXNlYU0hEQkNTyH5jT2YwU1rPNDNQ/OwzRUsuM0rNi/NPhc8DQKmUg1hNDu\r\nNFsmCjUDuzw1VasyNef7cjVSnrA0plT5NKXLhzSFNZ00Ed+nNCFdUDUWMQI1JJnbNNcqvjQMb+40\r\nMCZxNWBYzTTT7DQ1EXZRNffmaTV+3a80W4eUNHE8DjXgGu40gRDrNBPuqjTmEDY1ol3ONJbeJTVU\r\n2RE1pL7HNICD5TRWWw816jZdNU5+4zSdEBA1+UiKNPe7OzXoSB81ciQHNY2hujSihSE1Zmy4NC66\r\njjSDV6M0zDuqNH8orDToE6s0mAmlNNh/LDUtZTA1POHGNHfLdzTbIis17ZIdNZocBDVvRKE0QmwB\r\nNYXQijQkWAs1oC2hNA2Z5TSh2c00fEGaNMT8ujTDZ5w0Y1z7NI2ELjWyxiA1AEAcNQ==",
                            "noiseTrainingType" : "default"
                          }
                        }
                    ],
                    "start" : 4104,
                    "duration" : 100,
                    "mediaStart" : 5033,
                    "mediaDuration" : 100,
                    "scalar" : 1,
                    "metadata" : {
                      "WinSubProjectDisplayName" : "",
                      "clipSpeedAttribute" : false
                    },
                    "animationTracks" : {

                    }
                  },
                  {
                    "id" : 376,
                    "_type" : "AMFile",
                    "src" : 15,
                    "trackNumber" : 0,
                    "attributes" : {
                      "ident" : "旁白_vis2021 1",
                      "sampleRate" : 44100,
                      "bitDepth" : 16,
                      "gain" : 1.0,
                      "mixToMono" : false
                    },
                      "channelNumber" : "0,1",
                    "effects" : [
                        {
                          "effectName" : "NoiseReduction",
                          "parameters" : {
                            "denoiserAmount" : 20.0,
                            "denoiserThreshold" : 0.0,
                            "noiseProfile" : "OWoAPH2pEz2x9Qw+d6HTPcva6j2sp089E2dtPD6vPDwfl1A8ScjwPJTr1Txy35g8LaEAPTpegDyh\r\n+807XKYVO6TEeztxHEg8k5enPOCDljxR1SA80RNNO5P/FTsAUsA78qcaO7cppTsc2vE7qgSrO6lQ\r\n2jukqvI7h92AO2yWGzx+tZU8JitaPFzIyTuXwYE7uY9XO8aQ0Dvqq2I88amYPMnb9DtB2j87KTBk\r\nOzy52zoRSDw7OCjBO9xi/DtxwE88KlbqO3j0qDtWJH47VJnsO9JoxDuANhs8tJ+AO6Qz9Tth+oI8\r\nbGt3O1T1Nzzjhew74A0cPJAvITwici89BseWPGFNtDxkw7o7MRvlOmld0jryf386QXGZOrHMrzuA\r\ngR46FrCVOsPpWDsY4v07HUbYO1nLPjsw9w47wr3FOrnZ+Drc3FY7lUkJO7DAJDv2mAY7Bol9O6Gv\r\nIjui8ek64NliOq5vmTrG/ZM6bCYbO5q5tzpF2YA69unhOXdvJDkMXx461iVVOpU6tTmIPdU5NZ4C\r\nOrLzrDlzv6053gyzOSasszlLTgc5O7atOcYrxzkKtYw6r9cjOpoinjlRRog6Q9QHOqLsbTo5k0E6\r\n9U47OqgHGzq2DIw6xrvIOkIITzrGgR86I/hwOsTOFzq0IQU6isQ5OkIP9DmC+Bw6hsx0OYy4pDnt\r\nMqk5f6afOfFKnDnqIvc5SsRQOpXvdDp8CiE703psOwEALztW+4A6r36ROtKuGDoo4s852RrZOQKM\r\nhDmkgtY4CBe5OXJ5jDnBcjY5RM9jObGZ+DmyHG05aluSOaagETnIyGM5Jt2dOdUxnTmBHwU6PPyu\r\nOQ2PETl6x7k5tcInOtV63TnmcCY6dHftOUWtBzoIt6w5qk+GOf1mbTk4DT454wsLOh2HAjoY+ZY5\r\nyr2VOQQurzmqnRg5LDMFOZLQUjkvV1Q5/g1+OSlxFzlITz85XmAkOdDG/DjiIfM4htxWOREUlTqh\r\nwcw5VnaGOWCBXjn90lA5cKzvOWPrqzkL/o45sEFOOTkyMDpUc5s51oo9ORByjjlGCco52p/tORKy\r\n8Tnit2E51lY0Ofo+ATq6o3Y5Z021OYTVGDlRAq45zuyhOeA4ZDk52eE5nw91ORI2OzlB2R85fgab\r\nOY8bMjkQ1TA5cCaFOXju/Dh2ghM59YD8OFHmfzmnKiQ58YpfOXsbtzlCtX45yEWKOLGkLDkayH45\r\nRUrSOSltyTgvk1U5NT2NOY45EjnfihY5JFlqOTokTjlSlV45Ir54OQ1W5jifjjI5bWS5OfA8NDkO\r\nXs44QhjgOLbnOjkr+iw5hK5/Ocz3Azl6HF45q6DlOIJb2DiR79I4esU3OWtGjDg4gBM5cVloOdzR\r\nDTlkchs5GGg7OVSTtziXOeg4XazEOCiMADmz6Tw5ueqOOVcmeTmS4Ms4nI0UOUTLnjhAXjc56pkE\r\nOdXdBznEOY85PIy4OMxI5zgkSxk5r6oQObvARTnCtUo4LoVEONjrVjnfUsw4msCWOCWAQjlc/y45\r\nJ4KtOCzJrjjGJZ84BKXjOIHj2jhi+yE5rqqOOdCIIzm9fIM56Oo3OUSjtzmiT/M4Wiv3OJw6ETmO\r\nS8w53FJpOdbu1DiJSZs4DaoFOWqKWDkkyvU4GPIdOchJLDmxKwA54MMWOVgzmjgl75M44OcEOVPH\r\n3Dhmzdw4X9sOOb2CyTguC7Y4VgEmOTaQxDjBUAQ5dAM9OarFHjmfj444qMgAOWZMDDmSlas4yUZQ\r\nOaDeMTmPogU5Wxe1OF0m3Dh6aDQ5tbkIObjoEzlqqg45EPLvOKyF+zhUmiE57MvFOPg/vDiW+Vo5\r\nmhyzOGFsBTldBEw4dL3pOOk/QDnXnJQ467sNONFyxDfGPDM3rTsZN+BixjZrWTk338GlNhf/FTe5\r\nNTk2RTSUNkMj3Taj0d02is2UNt0UDDYUXvI1aeXFNhijMjbAtYc2ikWgNuphZDY8D1I28gSnNv4k\r\nLTZRYDk2mtYGN70P5DaWBKc2RzXfNlQFKTeHIYk2IpjaNofVszbqlaM2PatTNiKTzDYjx6M2BMHZ\r\nNiXEdDbJOMs2FNCMNsnGRja2BpI2UsiGNvm1vzbR74Q2wLCoNnn3jDa4fK82VqGlNrSAsTYwh5o2\r\n00guNguj5DYiuZI2yg0BN6PItzbTY6w2VXFINoLcTDbWIk82WJ/cNvx6HDZGdqc2ta/1NVwQMDaG\r\n9VE24mqONlq9rDaNiSE2Lay+NpqbcTYGZ3Q2KPqfNicegDbQyZw27RAtNyQhVjazoMU2izz9Npf0\r\njzbhrAg2zKY4Njo2yjZ1hZE2WNZsNrbfvDZiyp42KRFjNr96jjbjaI02RTYRNmwjhzapnyI2B4XY\r\nNltT7jUOLSY20oDqNhJrxDaCZWw2Ct+VNg/LgjZZzMA2Ik1JNrzQuDZxy901azNqNvW2eDaUuVs2\r\ngu+KNta85ja8P/M1FmShNp/ipjb1OIE21Q/2Nr5JmzYXtZU2x6+qNk6LmTZnjYw2mIJGNul2Jjbc\r\nO3A2lquYNuovLTYtgfE1nUlUNgQzNzaIsDM2DIvUNjKBRja+0oY2ExJ5NgPdJzZaSLQ2EtYgN0Wc\r\nDDbIHow2IiiZNgZUVTa1JnM2v3wcNoN3YDYCtgE38JaENkzoaDb0JTc26/WJNoqw9jYFxFI29vNP\r\nNmdCvDZHFIU2xxObNr0sUTblHoc2JrM/NmrbFDYX93o2m4OpNgs6HDaFNl02Rb2TNpjkJjYAADk2\r\n/8chNn7/QTawezM30gsqNidJ8zWKfC02kBYuNmSnnTa80FY2mFN3NkYZWzY4aO41UHmKNkyZiDYh\r\nGC42h1Y6Np6cgzYSij81AnuaNnc6rzZUXG82vp9eNp4h/jWNsEY2k603NuKSjDbHWSo2RxYINlNS\r\nmTaAOlU2yvJmNkqftzZ5VEk26hV8NjWLezbKM9Y1ernFNWi/XDZaEHQ2dhvANhDaRjYMwy82EwC4\r\nNlCNVTbH4IU2Cx1LNk6XlDbcVNA2FB33NQHMjzY6eW02jpZONqrdMTa+lxk267lUNkhoNDZz+TQ3\r\nwulaNoXxEjYQdsQ2lXEcNsiYOjbfz9o2UzpENvQL0TSOQIM10f8gNcLzLzX5w2c1H4efNN2VyTQO\r\nn70011tKNT7aKTUG8/w0QEgiNUCRKjWhXKI03LYLNQzSrjUnb9E0iB65NCpfLzVs4tk0emppNQtw\r\n8zTy2+U0USoLNeRnDTU88Uc19BfdNFPdNDVtA7Q09QQJNdJhKTXqRNg0am3RNG251DQ1KrA0Oj/Y\r\nNOrxkjTQ8cI0+3eXNEYitDR9exs1YvMdNUBR5DR0pQE1EGj5NAq8KTXmxKs0ErgPNTXAAjVM71g1\r\n2McYNch2PjVA3vs0HZGgNJEIOTWY3M40B5RGNGfgUDUIWUw1AAKQNPuJvjRnt4w0M0qUNPpcxjR3\r\nCM0000dJNZjtnTSx6rQ09gISNSzUKjVHscM0TBtXNYWZEDWjpck07HS+NMuEnzTVZ0U1duMGNWCg\r\n6jTs3880YBEXNT+XujRa3bk0wUISNadMADU5AQ411F8ONePs/jS0pjA105FENQ/HnjQmcwg1WPKH\r\nNFq2nTSuOLI0S9MpNbyI/zTAPso0+sXPNPLB3DTur8o0PLbHNPmbnzT+MvY0YjqvNCUXJTXMJp80\r\nndUPNWmVEjXazkY1O5DgNMl4gzVmyAY1rYEfNXmSQTWIrhU1ikoVNSCqpDTaEbY0/AvpNLIwhDSh\r\nIww1MCwENb5Y/zSUBhw1UowYNbXtpzTvlg4155xcNZhCrDRWs9U0k616NIzznjRmnAQ1Khq/NEm9\r\nCTUki940fgEVNZA1JzWkzqg0RtjuNI+WjTW0QRg1omMcNXzDIDUDHKI0NVu3NMMpRDVCjIo0ViIs\r\nNfxAITWCVB81HXTcNB0NXDWG+bE03vcdNf6QMzXAn8s0Eg/NNATJsTQE9U01LMELNX7DoDSIEB41\r\nwLEGNUVbzTQ8Pwo1QFCINBFgFTVn0vo0JOCjNNaR8zQ1vx41DXUDNak+EjUNQYo08gC7NFzPoTSI\r\n7RU1kpUbNYXvKzWOx240VWf0NGRuBzU6PIo0wlCGNT7g9jSWZjw1Ml4BNRvl6jTQR3w1lmHdNGfd\r\nITTobvU0ypuvNEpF+jTjNY40JYO7NCfBbzQijsA0us84Na6J8TQIYwU1V3IrNSwmYTXQ1kU0zKTc\r\nNDTVfzTj6to0SbOuNHwCvTQ/eR01mcuPNPTduTRDjf806a+nNAj20DREKOo0nPlPNQTe+zQNWSo1\r\nlpGmNBv9xzT/tzk1CtkQNapg2jSMQlI1MDUTNRhOMjWh56Q0AygANa8srzRbOwQ187XxNOQlwDSQ\r\nNO80mTAVNaBD6TQbeoo0UM6FNHPMCjV4t7k0gIxkNE02BjXYBQo1AhAcNWJMijS64uA0zd0JNXWm\r\nEDWiijY1ZpSXNNpWpzTYT+k0QHbzNDaorzSGDHs0qT7ONBvuhzSyYys1dPYCNQdToDTk8uU0MwYH\r\nNWYw+TRbj4g1aJxzNHlxCDVIE8c0Nl2SNOyilTRoqUs1KtMvNbhJPjVmcCE12eGANQ1X8jSNKZo0\r\ndGHdNGrcDjXxZ0A0JhPPNJb14jSwx8o0morUNDmP2DTubH40SSbdNE1r7TRT3rk0EZGLNP35LjV1\r\n1640P7XhNLEsczQldYc02X7eNAZ67jSawbI0drgeNb6GtzSMN9U00j4cNQhrBzWSqgw14dAnNYUF\r\nnDTQSpg0P9OMNOHDLTULMsI0QH6VNI2nxDSl5Yc0WHyLNCaeLDXnc6Y0AaCFNBQP7TTJzR41kvoE\r\nNRykHjU6wZw0+cjVNJdR1TSiQQU10AuONaiUkzUExgY1MMYONaRkZTT9EAU11Bu0NC2j3jTIM4A0\r\nal8cNSoRTzXbrSk1FTDYNEBqkjTgDwA1sun9NP5ztDRWob80HSSSNGYkGDWnkuM0RaMANeGLITXo\r\nTow0GNvbNJlRuzSgsOY0CpP5NMVL9jRRErs0aS1TNVNWgDSmPp80Gvy3NBnwGDXWr7M0dB/VNIw8\r\n0DQBkZ410iF5NDXYLTVZSxU1T0S6NHIrqTRzbRA1XDWKNA2phjRVwpo0SPJ1NGzsODX8K6Y0ne6l\r\nNNU3JjWsl7M0wb+kNKhE5TQUaN8041HRNPhNtTRpfuQ09awXNcwLtDS6nqA0qbk4Nbg8qTQ3pSA0\r\nkRS8NLXO0DRqdcQ0b//eNLPvrDQGQu00fPstNS/HMTWPJMc0fIrENBIciDSLv/k00iuaNNjgPDWm\r\not00DFkCNfHQhDTO4qY0xTYDNbDSOTWNTjA1dLcPNZB1uzQDUrY08mkFNZaNRjXzzK00ErsDNVeQ\r\n3zS5HxA1pmTINLQDBTWIxP008Ny+NADrGDWeipI0eMHvM5R6CTWA3x01wRO2NE0PBDXZKrU0GFyV\r\nNOCJrzSgxtE0tQR+NKJP0zTmcMA0zgvvNFJN7TT5eA41x/eHNAie2jTBXoU1JbdYNQAAEDUAZAE8\r\nF6YTPaE6DT5EKNM9dQ3rPVEOUD0ioW480q89PCfdUDzbEfI8OKDUPGwsmDxHYgE9amiBPGR1zjsP\r\nPhU7a3x7OyhGRzygj6g8mBGWPCuBIDwy9E47Dr4TO1iRvDsOzBo7Kk6nOyjG8juQWao70ZvWOxbH\r\n8zuU8n07aPEbPGxKlzygoVs8TMfIO9+xhDsybFY7q+rTO/L8YTx2ZJg8LVf1O0mYPjuCWmQ7fLXf\r\nOt2APzt7zMI7O4D+Ox50Tzw8t+w7lE+pOzStezsIHeo7gHbGO/xxGTz7XIA7vAj1O108gzyol3g7\r\ntww5PFZa6zv7yxw8BjMgPKnvLj13cpY8hhS0PDysuTskGOc6fsrQOrACgDqdYpQ6nrawO0mtIzpq\r\niZQ6oWVXO4pL/Dsyi9U7isI/O5AADzuqPMM6Xcz3OuCjVjsJJAU70nAkO3xeCzuPI4E7G4YiO1p8\r\n7jrINmQ6RKiWOkNYjzquKxk7L5jEOkefiTpiBN05wkIqOcZGDTp6g046RrOpOQ6EwjmtPgQ6e2Gc\r\nOSSjpDlo8ZU55XS9ObmuBzlz4785N8m2OWCrjzo4vB06uHOTOSQohDrAdAk6ttpzOqV9QjpzGTY6\r\n3XEaOsgBjjqKt8k6HvZMOicoGjocq2w6ap4WOhHEADrfCzk63skBOgeJHDrUTnI5YkuiObHDpjmu\r\nSKM5/cCSOf1k+zmMGlI6inluOu+YIDu89m07RVI0O6+Kgzr+5446GKYWOsGMzDkpPtU5IguVOWYu\r\n0Thu2rs5wj2KOYr0Szln8mE5OIzqOdZKbDmJnpY5zvoYORbfcjmJJb45rPudOReeBTpaM7A5gOEv\r\nOfU4rjmBKBo6bN3fOQHYIDpCxO45IMMKOhDuqjnu5385nKuKOcsUJTnO6QY6IssJOqWwlTkE/nk5\r\n982pOYJKFzlMEgc5kM8qOTzQSjkjjFw5oLMhOb3XTTlwQiA5qwrfOFyxBDkkj0w5MGaVOpPkyzkA\r\nWYw5x/dWOdTGaDnThQM6cUq4OS/ykTn8pTU5cg8tOjmUnzmJETc5yAicOQHqsTm7VQY6AgbzOcxp\r\nYTnUlDk5COb3OVNucjnJjtA5lvYsOVSTlDlbCZA5jieCOevY/jld/5M5ZAsQOQCjIjmaXZk5X2sk\r\nOaKvQDn3w2A5sFLsOCInSDnjTPU4Pw52ORiOFTnxB085aOe5Oeymfzkdh5Q4b9kUOTcjiDlltOQ5\r\nW97hOK93TDk6TJo5GxUROfmZKDmqWVg5gnArOZiUUTljp2g5VN4COa51OjmCG6857I8hOQJUyDiy\r\nFeY4PzlIOQnaEjkNa105LJgJOedSTTmft9w4RFvhOEMPBjkBNUc5IxKaOKB0AzlHK0Y5uzfsOA7s\r\nCTnIO1A5K33WOKFk2jjp16849C8QOWZpPTn28K85JD91Ocr4pTiAdCY50TmeOH4OPTl/1vM4rUTC\r\nOKr9azkWMbo4F7ngOLhyVDn8tgw5pjZnOXrXVTgwxCo4OQx/OXmv4TiOkZs4EjRhOc/BKzm9HJg4\r\nmNmEOBptqTgOwN44isnuOMjHEDkVGqA5ZsgfOcwJgTn/qS85F5G9OSUi8Th4/wU58kwEOcGM0znk\r\nW1o5KBbSOPxmrjgoieg4mOJqOacY5jhwBhY5iXUjOeCfAjn89RI53mOTOE5nnDgXwQo59x/YOLsN\r\nvzisAgg5ZZXBONJSyTg4ChA5g0OvOOLhCzk2PkQ5yZUgOf1/lTgIavM4G5cEObRwszj5plM54Ngg\r\nOTpfCjmgXsE4/c7tOPbIHjng2QM52pkWOVEIBjnWdfE44lgEOVkCJTm3Js04paCwOJruaDnED7c4\r\nlngHOd1wSThLgdw4+MM6OWkNiTjQTig4ZOnTNxI6RTeeDew2cZ29Nv7NAjclhNM2iMnzNsyKczZM\r\nTqE2NwIANyN0CjdyN5Q2WgazNq/6RTZdvu82CgJ2NnBTbzZ2Y8g2nCmlNornMTbyM/U2XdYuNnYx\r\nDDZETwI3eL+nNkEyGTdWc042Yb0WNzGqlDaNeNI2vHqNNkA4sDYmdYE2+cmANhHYVzaKnIs2sgCG\r\nNgmRtTZMoZo22v10NnRMhzYJ96I2OKTLNuYomzb9GYQ2aZ4gNg34YTYuHZo2W3zKNg54fjYZjkw2\r\nf2wUN3Od0TYrN5w2qv+fNtmNlTawHlI20q1xNtWcgzbalsQ2aqh0NqiRqzZJr+Y1tKkfNvwthjbs\r\njso2aMOjNjtLWzaqzNg2QuVVNvmDcTZsOcU2ODthNmCKmjZkwsw2JO2RNrvV7zZ/j5g2X3SCNuWv\r\njDatdLA22aTFNuHopjZGQ1k280BwNm9ZdzZuF3o2uV16NukrgjZ0cmI2oP0yNtheUDbrCZM2IZD3\r\nNcjiiDbmV9M2x6S6NnU/pzZADwg2huV1NusKwzZOBTQ2+FGNNgbaCjZtFJo2oEWzNnsKijZWeO02\r\nGtuJNu8IdjY49Yg2Mr2ANg3ZzjZiM+s2PSKeNoMphDa/F582hoJcNt0QxjZWOKM2KJ8XNqxVQjbY\r\ngaI2GZ6aNs0bpTU+g5g2tEowNtIkZDYOlas2ZR1xNtIkgzZRo4A2kxo0Nq+R7DZCmS43Jnh6NgQS\r\nbDb4RYg2lNw9NuvPkzYiw3I2yo89NhID7TYcIIw26OkjNrMkKzbG26s2fgyyNkykhTarGu41ZVyZ\r\nNs59hja4/3g2DVwlNg8S/DWud6U2N9IvNgCXSjbgmnM2uSBPNn7iXza+E8Q2IrczNgAgGTbUpLw1\r\nmKpzNoJSGzdiAoM2ZpDFNfrlFDY4tAI2RI+mNgX6UTb+VoU2addaNhrNCTZZFHA2uMncNXzMSzbJ\r\nKYk2chpoNlUqsTVQL942eABrNmzNjTZ3X0o2gnWBNn72gTZLTEE2lwQzNgfuCjaKZ0A2Cn+pNqDa\r\nNzbbTXE2Jn7UNu4UKDZVMoQ2j46fNsCxMzbOjB026lnINRYmezYubI02j29ONiv6jzYkvQU24bo/\r\nNlRyPzacL0c24hOWNpYhiDbn4/U1XMKXNjdHgzYwUO01kmwQNsrkGjZWzx02IdkDNtNSCTdR2VE2\r\nthtfNuRpyzaptiM2tEQ0Nkz1XDaF2zA2q9VKNcwlKDW1Wt007vuJNFq4yzRjGzI175BhNbYW/jTC\r\n50I1fp2dNJ2JFzXcfBY1j6wVNck7ADXKUgk1IqzANOh0JjVVrrw0Msw2NZKFGTUaPUI1fBNaNcVN\r\nSTUON7Q0P4fQNFKuFzUxPlU1sICqNGd1ajTm2QI1i7CcNE6RhzRis6A0+Hg7Nbaz2zTd5O41Lo6Q\r\nNCC46jRqY4k02LwPNQsD+zQS2kY1DgsZNQCcHDWKMa00NY4gNbBtFDXqiRc1oiMKNXSGhzRgRxs1\r\nsvCONXglnTQaJsk0VZcVNTwSAjVbovE0HAgiNYYOkDWs+Bk1NoTxNOmQHzWwgbI0cTRKNEIM5zRm\r\n0Eo1Lt3NNDT7uTSlUH81fpTdNNbDuDR5QIA1bivBNDg8tDTqSAw1juzKNPjckTXYQus0QHrGNAe/\r\nzjT+Kxk1k1EENS6XETW7x+g0SgvDNLGCvzSIgvk0RU2fNNSwojQOc7k03IPMNCf6ETV8ef00kiUz\r\nNaCP5DSyjgI1NzurNDzYBDVnrxg1wWfANHpDdjTTMLM0SyeuNCZrpDTpSwg1kQXWNKnmtjTd4L00\r\nCjEvNe+3XjWZAko1Ym35NPTQoTRMXRI1/Kv1NNnw+TREn580ApgENQioMTUc6Qw1wGDtNMWVAjX6\r\nRmI1CN1MNL0nqzQdttc0yKQdNbOO9jSg9bU00Ta0NPpG8jRwfn81zM+VNG1DtzQjBjQ133YnNRiY\r\nzzSD58A0vVEGNeQz7TQc+8c0alDxNOYeqTRZjwM1A1X7NKFF9DRfJtM0Vc0BNUYGIjUIksE0MIwp\r\nNYA4xDQyT2E0+rrONBaUKjWcVbs0lgEXNQhoLjVqYfM0QkIHNXxZBjWjN9A04CoHNf4JgzRmC1I1\r\nHvk2NR48nDSMgG00Zf32NNotNDWhucs0OhP6NCbLvjSa08g0UXkUNWHkGjU2b7M0Jjf1NNWAHTX2\r\nAKk0D22rNDpwCjVAdSE1wIe3NKki1DQ7h1c0c56RNM+EHDWeNvs0MQ70NEBr+DSzItM00gbWNHQw\r\nKDULfMQ0x//kNPxv2TTQtDM1WH4UNV82NTXQGQs1zfzkNE4e5zQRzgg1/pbnNGCS0TTOFd40v6/x\r\nNAS1tjRCvqU0IwneNHHchzWWIeA0UM+4NK8f9TRyIZM0h7UINdtvGDWwIMU0f+g7NQZH3jSvXyg1\r\nQFDUNEfN1zTFaJE0vTVhNZhtEzVsOCo1lI2DNKvBcDU7hyA1G3lgNdKy/jT5BOE0W5yZNMVKxTQt\r\nffo0UfUYNfYY1jRmNic1cjOcNHhM3TQltw01y+wGNdUXAzWjaYQ1EAGsNAMnHTXG2Ok0b2sZNdaU\r\nnTTqTu80BYtpNRavBjXpXoY0gY8TNRz6MzTZ+bU0CwEyNeatmjTYpAw1XQ0NNS4fMDUD3N80w5kB\r\nNbZ+wDSHwM80LsdINflVQTXijxU12ckXNexXHTV3aAk1Y0gINRwPEzWrSkk1gEhcNcKckzRnQdM0\r\nylE8NZTlGjWZRXo1mYPiNKOIGDX9VSk1SDywNE/uAjVE05U0/LpeNYJ8uDT+TwI1K57TNKdFFTVQ\r\nmmw1bxHxNNasyjTwQdg0uDi0NKQl/jRwNLM0eBffNHVFvDRC6IA0QxjQNA8uczQLG6o0fGK7NO7j\r\nmzQBYqc0PLzWNLgI9DTcW6Q0a0AZNYg9STUbsVQ1+5sfNVyxoTRchak0ZlS/NIZF8DQC/LA0KHW2\r\nNAKVBzVhPRg1IxGrNNrwCDVtxBU1lnAcNYeauTTwp/s0RXHANLDJwzTVLtw0yWgLNdyaGTVZOe00\r\nJFcoNZ6B7TQG/MU0+DEUNQFt/DRtlSo14IBuNQxXyzRAZsw0OmxvNepc4TQsbOo0BX5pNeLZFjVa\r\nUP00/NC+NDfFxzSk/Jk0Xv9WNFcJFTUkCfs0nPhONWb3szQLn8U07ItQNLGo0DSMwQE17Z/PNNec\r\n0zRaof0076bINOo8GzXNlYU0hEQkNTyH5jT2YwU1rPNDNQ/OwzRUsuM0rNi/NPhc8DQKmUg1hNDu\r\nNFsmCjUDuzw1VasyNef7cjVSnrA0plT5NKXLhzSFNZ00Ed+nNCFdUDUWMQI1JJnbNNcqvjQMb+40\r\nMCZxNWBYzTTT7DQ1EXZRNffmaTV+3a80W4eUNHE8DjXgGu40gRDrNBPuqjTmEDY1ol3ONJbeJTVU\r\n2RE1pL7HNICD5TRWWw816jZdNU5+4zSdEBA1+UiKNPe7OzXoSB81ciQHNY2hujSihSE1Zmy4NC66\r\njjSDV6M0zDuqNH8orDToE6s0mAmlNNh/LDUtZTA1POHGNHfLdzTbIis17ZIdNZocBDVvRKE0QmwB\r\nNYXQijQkWAs1oC2hNA2Z5TSh2c00fEGaNMT8ujTDZ5w0Y1z7NI2ELjWyxiA1AEAcNQ==",
                            "noiseTrainingType" : "default"
                          }
                        }
                    ],
                    "start" : 4256,
                    "duration" : 43,
                    "mediaStart" : 5133,
                    "mediaDuration" : 43,
                    "scalar" : 1,
                    "metadata" : {
                      "WinSubProjectDisplayName" : "",
                      "clipSpeedAttribute" : false
                    },
                    "animationTracks" : {

                    }
                  },
                  {
                    "id" : 377,
                    "_type" : "AMFile",
                    "src" : 15,
                    "trackNumber" : 0,
                    "attributes" : {
                      "ident" : "旁白_vis2021 1",
                      "sampleRate" : 44100,
                      "bitDepth" : 16,
                      "gain" : 1.0,
                      "mixToMono" : false
                    },
                      "channelNumber" : "0,1",
                    "effects" : [
                        {
                          "effectName" : "NoiseReduction",
                          "parameters" : {
                            "denoiserAmount" : 20.0,
                            "denoiserThreshold" : 0.0,
                            "noiseProfile" : "OWoAPH2pEz2x9Qw+d6HTPcva6j2sp089E2dtPD6vPDwfl1A8ScjwPJTr1Txy35g8LaEAPTpegDyh\r\n+807XKYVO6TEeztxHEg8k5enPOCDljxR1SA80RNNO5P/FTsAUsA78qcaO7cppTsc2vE7qgSrO6lQ\r\n2jukqvI7h92AO2yWGzx+tZU8JitaPFzIyTuXwYE7uY9XO8aQ0Dvqq2I88amYPMnb9DtB2j87KTBk\r\nOzy52zoRSDw7OCjBO9xi/DtxwE88KlbqO3j0qDtWJH47VJnsO9JoxDuANhs8tJ+AO6Qz9Tth+oI8\r\nbGt3O1T1Nzzjhew74A0cPJAvITwici89BseWPGFNtDxkw7o7MRvlOmld0jryf386QXGZOrHMrzuA\r\ngR46FrCVOsPpWDsY4v07HUbYO1nLPjsw9w47wr3FOrnZ+Drc3FY7lUkJO7DAJDv2mAY7Bol9O6Gv\r\nIjui8ek64NliOq5vmTrG/ZM6bCYbO5q5tzpF2YA69unhOXdvJDkMXx461iVVOpU6tTmIPdU5NZ4C\r\nOrLzrDlzv6053gyzOSasszlLTgc5O7atOcYrxzkKtYw6r9cjOpoinjlRRog6Q9QHOqLsbTo5k0E6\r\n9U47OqgHGzq2DIw6xrvIOkIITzrGgR86I/hwOsTOFzq0IQU6isQ5OkIP9DmC+Bw6hsx0OYy4pDnt\r\nMqk5f6afOfFKnDnqIvc5SsRQOpXvdDp8CiE703psOwEALztW+4A6r36ROtKuGDoo4s852RrZOQKM\r\nhDmkgtY4CBe5OXJ5jDnBcjY5RM9jObGZ+DmyHG05aluSOaagETnIyGM5Jt2dOdUxnTmBHwU6PPyu\r\nOQ2PETl6x7k5tcInOtV63TnmcCY6dHftOUWtBzoIt6w5qk+GOf1mbTk4DT454wsLOh2HAjoY+ZY5\r\nyr2VOQQurzmqnRg5LDMFOZLQUjkvV1Q5/g1+OSlxFzlITz85XmAkOdDG/DjiIfM4htxWOREUlTqh\r\nwcw5VnaGOWCBXjn90lA5cKzvOWPrqzkL/o45sEFOOTkyMDpUc5s51oo9ORByjjlGCco52p/tORKy\r\n8Tnit2E51lY0Ofo+ATq6o3Y5Z021OYTVGDlRAq45zuyhOeA4ZDk52eE5nw91ORI2OzlB2R85fgab\r\nOY8bMjkQ1TA5cCaFOXju/Dh2ghM59YD8OFHmfzmnKiQ58YpfOXsbtzlCtX45yEWKOLGkLDkayH45\r\nRUrSOSltyTgvk1U5NT2NOY45EjnfihY5JFlqOTokTjlSlV45Ir54OQ1W5jifjjI5bWS5OfA8NDkO\r\nXs44QhjgOLbnOjkr+iw5hK5/Ocz3Azl6HF45q6DlOIJb2DiR79I4esU3OWtGjDg4gBM5cVloOdzR\r\nDTlkchs5GGg7OVSTtziXOeg4XazEOCiMADmz6Tw5ueqOOVcmeTmS4Ms4nI0UOUTLnjhAXjc56pkE\r\nOdXdBznEOY85PIy4OMxI5zgkSxk5r6oQObvARTnCtUo4LoVEONjrVjnfUsw4msCWOCWAQjlc/y45\r\nJ4KtOCzJrjjGJZ84BKXjOIHj2jhi+yE5rqqOOdCIIzm9fIM56Oo3OUSjtzmiT/M4Wiv3OJw6ETmO\r\nS8w53FJpOdbu1DiJSZs4DaoFOWqKWDkkyvU4GPIdOchJLDmxKwA54MMWOVgzmjgl75M44OcEOVPH\r\n3Dhmzdw4X9sOOb2CyTguC7Y4VgEmOTaQxDjBUAQ5dAM9OarFHjmfj444qMgAOWZMDDmSlas4yUZQ\r\nOaDeMTmPogU5Wxe1OF0m3Dh6aDQ5tbkIObjoEzlqqg45EPLvOKyF+zhUmiE57MvFOPg/vDiW+Vo5\r\nmhyzOGFsBTldBEw4dL3pOOk/QDnXnJQ467sNONFyxDfGPDM3rTsZN+BixjZrWTk338GlNhf/FTe5\r\nNTk2RTSUNkMj3Taj0d02is2UNt0UDDYUXvI1aeXFNhijMjbAtYc2ikWgNuphZDY8D1I28gSnNv4k\r\nLTZRYDk2mtYGN70P5DaWBKc2RzXfNlQFKTeHIYk2IpjaNofVszbqlaM2PatTNiKTzDYjx6M2BMHZ\r\nNiXEdDbJOMs2FNCMNsnGRja2BpI2UsiGNvm1vzbR74Q2wLCoNnn3jDa4fK82VqGlNrSAsTYwh5o2\r\n00guNguj5DYiuZI2yg0BN6PItzbTY6w2VXFINoLcTDbWIk82WJ/cNvx6HDZGdqc2ta/1NVwQMDaG\r\n9VE24mqONlq9rDaNiSE2Lay+NpqbcTYGZ3Q2KPqfNicegDbQyZw27RAtNyQhVjazoMU2izz9Npf0\r\njzbhrAg2zKY4Njo2yjZ1hZE2WNZsNrbfvDZiyp42KRFjNr96jjbjaI02RTYRNmwjhzapnyI2B4XY\r\nNltT7jUOLSY20oDqNhJrxDaCZWw2Ct+VNg/LgjZZzMA2Ik1JNrzQuDZxy901azNqNvW2eDaUuVs2\r\ngu+KNta85ja8P/M1FmShNp/ipjb1OIE21Q/2Nr5JmzYXtZU2x6+qNk6LmTZnjYw2mIJGNul2Jjbc\r\nO3A2lquYNuovLTYtgfE1nUlUNgQzNzaIsDM2DIvUNjKBRja+0oY2ExJ5NgPdJzZaSLQ2EtYgN0Wc\r\nDDbIHow2IiiZNgZUVTa1JnM2v3wcNoN3YDYCtgE38JaENkzoaDb0JTc26/WJNoqw9jYFxFI29vNP\r\nNmdCvDZHFIU2xxObNr0sUTblHoc2JrM/NmrbFDYX93o2m4OpNgs6HDaFNl02Rb2TNpjkJjYAADk2\r\n/8chNn7/QTawezM30gsqNidJ8zWKfC02kBYuNmSnnTa80FY2mFN3NkYZWzY4aO41UHmKNkyZiDYh\r\nGC42h1Y6Np6cgzYSij81AnuaNnc6rzZUXG82vp9eNp4h/jWNsEY2k603NuKSjDbHWSo2RxYINlNS\r\nmTaAOlU2yvJmNkqftzZ5VEk26hV8NjWLezbKM9Y1ernFNWi/XDZaEHQ2dhvANhDaRjYMwy82EwC4\r\nNlCNVTbH4IU2Cx1LNk6XlDbcVNA2FB33NQHMjzY6eW02jpZONqrdMTa+lxk267lUNkhoNDZz+TQ3\r\nwulaNoXxEjYQdsQ2lXEcNsiYOjbfz9o2UzpENvQL0TSOQIM10f8gNcLzLzX5w2c1H4efNN2VyTQO\r\nn70011tKNT7aKTUG8/w0QEgiNUCRKjWhXKI03LYLNQzSrjUnb9E0iB65NCpfLzVs4tk0emppNQtw\r\n8zTy2+U0USoLNeRnDTU88Uc19BfdNFPdNDVtA7Q09QQJNdJhKTXqRNg0am3RNG251DQ1KrA0Oj/Y\r\nNOrxkjTQ8cI0+3eXNEYitDR9exs1YvMdNUBR5DR0pQE1EGj5NAq8KTXmxKs0ErgPNTXAAjVM71g1\r\n2McYNch2PjVA3vs0HZGgNJEIOTWY3M40B5RGNGfgUDUIWUw1AAKQNPuJvjRnt4w0M0qUNPpcxjR3\r\nCM0000dJNZjtnTSx6rQ09gISNSzUKjVHscM0TBtXNYWZEDWjpck07HS+NMuEnzTVZ0U1duMGNWCg\r\n6jTs3880YBEXNT+XujRa3bk0wUISNadMADU5AQ411F8ONePs/jS0pjA105FENQ/HnjQmcwg1WPKH\r\nNFq2nTSuOLI0S9MpNbyI/zTAPso0+sXPNPLB3DTur8o0PLbHNPmbnzT+MvY0YjqvNCUXJTXMJp80\r\nndUPNWmVEjXazkY1O5DgNMl4gzVmyAY1rYEfNXmSQTWIrhU1ikoVNSCqpDTaEbY0/AvpNLIwhDSh\r\nIww1MCwENb5Y/zSUBhw1UowYNbXtpzTvlg4155xcNZhCrDRWs9U0k616NIzznjRmnAQ1Khq/NEm9\r\nCTUki940fgEVNZA1JzWkzqg0RtjuNI+WjTW0QRg1omMcNXzDIDUDHKI0NVu3NMMpRDVCjIo0ViIs\r\nNfxAITWCVB81HXTcNB0NXDWG+bE03vcdNf6QMzXAn8s0Eg/NNATJsTQE9U01LMELNX7DoDSIEB41\r\nwLEGNUVbzTQ8Pwo1QFCINBFgFTVn0vo0JOCjNNaR8zQ1vx41DXUDNak+EjUNQYo08gC7NFzPoTSI\r\n7RU1kpUbNYXvKzWOx240VWf0NGRuBzU6PIo0wlCGNT7g9jSWZjw1Ml4BNRvl6jTQR3w1lmHdNGfd\r\nITTobvU0ypuvNEpF+jTjNY40JYO7NCfBbzQijsA0us84Na6J8TQIYwU1V3IrNSwmYTXQ1kU0zKTc\r\nNDTVfzTj6to0SbOuNHwCvTQ/eR01mcuPNPTduTRDjf806a+nNAj20DREKOo0nPlPNQTe+zQNWSo1\r\nlpGmNBv9xzT/tzk1CtkQNapg2jSMQlI1MDUTNRhOMjWh56Q0AygANa8srzRbOwQ187XxNOQlwDSQ\r\nNO80mTAVNaBD6TQbeoo0UM6FNHPMCjV4t7k0gIxkNE02BjXYBQo1AhAcNWJMijS64uA0zd0JNXWm\r\nEDWiijY1ZpSXNNpWpzTYT+k0QHbzNDaorzSGDHs0qT7ONBvuhzSyYys1dPYCNQdToDTk8uU0MwYH\r\nNWYw+TRbj4g1aJxzNHlxCDVIE8c0Nl2SNOyilTRoqUs1KtMvNbhJPjVmcCE12eGANQ1X8jSNKZo0\r\ndGHdNGrcDjXxZ0A0JhPPNJb14jSwx8o0morUNDmP2DTubH40SSbdNE1r7TRT3rk0EZGLNP35LjV1\r\n1640P7XhNLEsczQldYc02X7eNAZ67jSawbI0drgeNb6GtzSMN9U00j4cNQhrBzWSqgw14dAnNYUF\r\nnDTQSpg0P9OMNOHDLTULMsI0QH6VNI2nxDSl5Yc0WHyLNCaeLDXnc6Y0AaCFNBQP7TTJzR41kvoE\r\nNRykHjU6wZw0+cjVNJdR1TSiQQU10AuONaiUkzUExgY1MMYONaRkZTT9EAU11Bu0NC2j3jTIM4A0\r\nal8cNSoRTzXbrSk1FTDYNEBqkjTgDwA1sun9NP5ztDRWob80HSSSNGYkGDWnkuM0RaMANeGLITXo\r\nTow0GNvbNJlRuzSgsOY0CpP5NMVL9jRRErs0aS1TNVNWgDSmPp80Gvy3NBnwGDXWr7M0dB/VNIw8\r\n0DQBkZ410iF5NDXYLTVZSxU1T0S6NHIrqTRzbRA1XDWKNA2phjRVwpo0SPJ1NGzsODX8K6Y0ne6l\r\nNNU3JjWsl7M0wb+kNKhE5TQUaN8041HRNPhNtTRpfuQ09awXNcwLtDS6nqA0qbk4Nbg8qTQ3pSA0\r\nkRS8NLXO0DRqdcQ0b//eNLPvrDQGQu00fPstNS/HMTWPJMc0fIrENBIciDSLv/k00iuaNNjgPDWm\r\not00DFkCNfHQhDTO4qY0xTYDNbDSOTWNTjA1dLcPNZB1uzQDUrY08mkFNZaNRjXzzK00ErsDNVeQ\r\n3zS5HxA1pmTINLQDBTWIxP008Ny+NADrGDWeipI0eMHvM5R6CTWA3x01wRO2NE0PBDXZKrU0GFyV\r\nNOCJrzSgxtE0tQR+NKJP0zTmcMA0zgvvNFJN7TT5eA41x/eHNAie2jTBXoU1JbdYNQAAEDUAZAE8\r\nF6YTPaE6DT5EKNM9dQ3rPVEOUD0ioW480q89PCfdUDzbEfI8OKDUPGwsmDxHYgE9amiBPGR1zjsP\r\nPhU7a3x7OyhGRzygj6g8mBGWPCuBIDwy9E47Dr4TO1iRvDsOzBo7Kk6nOyjG8juQWao70ZvWOxbH\r\n8zuU8n07aPEbPGxKlzygoVs8TMfIO9+xhDsybFY7q+rTO/L8YTx2ZJg8LVf1O0mYPjuCWmQ7fLXf\r\nOt2APzt7zMI7O4D+Ox50Tzw8t+w7lE+pOzStezsIHeo7gHbGO/xxGTz7XIA7vAj1O108gzyol3g7\r\ntww5PFZa6zv7yxw8BjMgPKnvLj13cpY8hhS0PDysuTskGOc6fsrQOrACgDqdYpQ6nrawO0mtIzpq\r\niZQ6oWVXO4pL/Dsyi9U7isI/O5AADzuqPMM6Xcz3OuCjVjsJJAU70nAkO3xeCzuPI4E7G4YiO1p8\r\n7jrINmQ6RKiWOkNYjzquKxk7L5jEOkefiTpiBN05wkIqOcZGDTp6g046RrOpOQ6EwjmtPgQ6e2Gc\r\nOSSjpDlo8ZU55XS9ObmuBzlz4785N8m2OWCrjzo4vB06uHOTOSQohDrAdAk6ttpzOqV9QjpzGTY6\r\n3XEaOsgBjjqKt8k6HvZMOicoGjocq2w6ap4WOhHEADrfCzk63skBOgeJHDrUTnI5YkuiObHDpjmu\r\nSKM5/cCSOf1k+zmMGlI6inluOu+YIDu89m07RVI0O6+Kgzr+5446GKYWOsGMzDkpPtU5IguVOWYu\r\n0Thu2rs5wj2KOYr0Szln8mE5OIzqOdZKbDmJnpY5zvoYORbfcjmJJb45rPudOReeBTpaM7A5gOEv\r\nOfU4rjmBKBo6bN3fOQHYIDpCxO45IMMKOhDuqjnu5385nKuKOcsUJTnO6QY6IssJOqWwlTkE/nk5\r\n982pOYJKFzlMEgc5kM8qOTzQSjkjjFw5oLMhOb3XTTlwQiA5qwrfOFyxBDkkj0w5MGaVOpPkyzkA\r\nWYw5x/dWOdTGaDnThQM6cUq4OS/ykTn8pTU5cg8tOjmUnzmJETc5yAicOQHqsTm7VQY6AgbzOcxp\r\nYTnUlDk5COb3OVNucjnJjtA5lvYsOVSTlDlbCZA5jieCOevY/jld/5M5ZAsQOQCjIjmaXZk5X2sk\r\nOaKvQDn3w2A5sFLsOCInSDnjTPU4Pw52ORiOFTnxB085aOe5Oeymfzkdh5Q4b9kUOTcjiDlltOQ5\r\nW97hOK93TDk6TJo5GxUROfmZKDmqWVg5gnArOZiUUTljp2g5VN4COa51OjmCG6857I8hOQJUyDiy\r\nFeY4PzlIOQnaEjkNa105LJgJOedSTTmft9w4RFvhOEMPBjkBNUc5IxKaOKB0AzlHK0Y5uzfsOA7s\r\nCTnIO1A5K33WOKFk2jjp16849C8QOWZpPTn28K85JD91Ocr4pTiAdCY50TmeOH4OPTl/1vM4rUTC\r\nOKr9azkWMbo4F7ngOLhyVDn8tgw5pjZnOXrXVTgwxCo4OQx/OXmv4TiOkZs4EjRhOc/BKzm9HJg4\r\nmNmEOBptqTgOwN44isnuOMjHEDkVGqA5ZsgfOcwJgTn/qS85F5G9OSUi8Th4/wU58kwEOcGM0znk\r\nW1o5KBbSOPxmrjgoieg4mOJqOacY5jhwBhY5iXUjOeCfAjn89RI53mOTOE5nnDgXwQo59x/YOLsN\r\nvzisAgg5ZZXBONJSyTg4ChA5g0OvOOLhCzk2PkQ5yZUgOf1/lTgIavM4G5cEObRwszj5plM54Ngg\r\nOTpfCjmgXsE4/c7tOPbIHjng2QM52pkWOVEIBjnWdfE44lgEOVkCJTm3Js04paCwOJruaDnED7c4\r\nlngHOd1wSThLgdw4+MM6OWkNiTjQTig4ZOnTNxI6RTeeDew2cZ29Nv7NAjclhNM2iMnzNsyKczZM\r\nTqE2NwIANyN0CjdyN5Q2WgazNq/6RTZdvu82CgJ2NnBTbzZ2Y8g2nCmlNornMTbyM/U2XdYuNnYx\r\nDDZETwI3eL+nNkEyGTdWc042Yb0WNzGqlDaNeNI2vHqNNkA4sDYmdYE2+cmANhHYVzaKnIs2sgCG\r\nNgmRtTZMoZo22v10NnRMhzYJ96I2OKTLNuYomzb9GYQ2aZ4gNg34YTYuHZo2W3zKNg54fjYZjkw2\r\nf2wUN3Od0TYrN5w2qv+fNtmNlTawHlI20q1xNtWcgzbalsQ2aqh0NqiRqzZJr+Y1tKkfNvwthjbs\r\njso2aMOjNjtLWzaqzNg2QuVVNvmDcTZsOcU2ODthNmCKmjZkwsw2JO2RNrvV7zZ/j5g2X3SCNuWv\r\njDatdLA22aTFNuHopjZGQ1k280BwNm9ZdzZuF3o2uV16NukrgjZ0cmI2oP0yNtheUDbrCZM2IZD3\r\nNcjiiDbmV9M2x6S6NnU/pzZADwg2huV1NusKwzZOBTQ2+FGNNgbaCjZtFJo2oEWzNnsKijZWeO02\r\nGtuJNu8IdjY49Yg2Mr2ANg3ZzjZiM+s2PSKeNoMphDa/F582hoJcNt0QxjZWOKM2KJ8XNqxVQjbY\r\ngaI2GZ6aNs0bpTU+g5g2tEowNtIkZDYOlas2ZR1xNtIkgzZRo4A2kxo0Nq+R7DZCmS43Jnh6NgQS\r\nbDb4RYg2lNw9NuvPkzYiw3I2yo89NhID7TYcIIw26OkjNrMkKzbG26s2fgyyNkykhTarGu41ZVyZ\r\nNs59hja4/3g2DVwlNg8S/DWud6U2N9IvNgCXSjbgmnM2uSBPNn7iXza+E8Q2IrczNgAgGTbUpLw1\r\nmKpzNoJSGzdiAoM2ZpDFNfrlFDY4tAI2RI+mNgX6UTb+VoU2addaNhrNCTZZFHA2uMncNXzMSzbJ\r\nKYk2chpoNlUqsTVQL942eABrNmzNjTZ3X0o2gnWBNn72gTZLTEE2lwQzNgfuCjaKZ0A2Cn+pNqDa\r\nNzbbTXE2Jn7UNu4UKDZVMoQ2j46fNsCxMzbOjB026lnINRYmezYubI02j29ONiv6jzYkvQU24bo/\r\nNlRyPzacL0c24hOWNpYhiDbn4/U1XMKXNjdHgzYwUO01kmwQNsrkGjZWzx02IdkDNtNSCTdR2VE2\r\nthtfNuRpyzaptiM2tEQ0Nkz1XDaF2zA2q9VKNcwlKDW1Wt007vuJNFq4yzRjGzI175BhNbYW/jTC\r\n50I1fp2dNJ2JFzXcfBY1j6wVNck7ADXKUgk1IqzANOh0JjVVrrw0Msw2NZKFGTUaPUI1fBNaNcVN\r\nSTUON7Q0P4fQNFKuFzUxPlU1sICqNGd1ajTm2QI1i7CcNE6RhzRis6A0+Hg7Nbaz2zTd5O41Lo6Q\r\nNCC46jRqY4k02LwPNQsD+zQS2kY1DgsZNQCcHDWKMa00NY4gNbBtFDXqiRc1oiMKNXSGhzRgRxs1\r\nsvCONXglnTQaJsk0VZcVNTwSAjVbovE0HAgiNYYOkDWs+Bk1NoTxNOmQHzWwgbI0cTRKNEIM5zRm\r\n0Eo1Lt3NNDT7uTSlUH81fpTdNNbDuDR5QIA1bivBNDg8tDTqSAw1juzKNPjckTXYQus0QHrGNAe/\r\nzjT+Kxk1k1EENS6XETW7x+g0SgvDNLGCvzSIgvk0RU2fNNSwojQOc7k03IPMNCf6ETV8ef00kiUz\r\nNaCP5DSyjgI1NzurNDzYBDVnrxg1wWfANHpDdjTTMLM0SyeuNCZrpDTpSwg1kQXWNKnmtjTd4L00\r\nCjEvNe+3XjWZAko1Ym35NPTQoTRMXRI1/Kv1NNnw+TREn580ApgENQioMTUc6Qw1wGDtNMWVAjX6\r\nRmI1CN1MNL0nqzQdttc0yKQdNbOO9jSg9bU00Ta0NPpG8jRwfn81zM+VNG1DtzQjBjQ133YnNRiY\r\nzzSD58A0vVEGNeQz7TQc+8c0alDxNOYeqTRZjwM1A1X7NKFF9DRfJtM0Vc0BNUYGIjUIksE0MIwp\r\nNYA4xDQyT2E0+rrONBaUKjWcVbs0lgEXNQhoLjVqYfM0QkIHNXxZBjWjN9A04CoHNf4JgzRmC1I1\r\nHvk2NR48nDSMgG00Zf32NNotNDWhucs0OhP6NCbLvjSa08g0UXkUNWHkGjU2b7M0Jjf1NNWAHTX2\r\nAKk0D22rNDpwCjVAdSE1wIe3NKki1DQ7h1c0c56RNM+EHDWeNvs0MQ70NEBr+DSzItM00gbWNHQw\r\nKDULfMQ0x//kNPxv2TTQtDM1WH4UNV82NTXQGQs1zfzkNE4e5zQRzgg1/pbnNGCS0TTOFd40v6/x\r\nNAS1tjRCvqU0IwneNHHchzWWIeA0UM+4NK8f9TRyIZM0h7UINdtvGDWwIMU0f+g7NQZH3jSvXyg1\r\nQFDUNEfN1zTFaJE0vTVhNZhtEzVsOCo1lI2DNKvBcDU7hyA1G3lgNdKy/jT5BOE0W5yZNMVKxTQt\r\nffo0UfUYNfYY1jRmNic1cjOcNHhM3TQltw01y+wGNdUXAzWjaYQ1EAGsNAMnHTXG2Ok0b2sZNdaU\r\nnTTqTu80BYtpNRavBjXpXoY0gY8TNRz6MzTZ+bU0CwEyNeatmjTYpAw1XQ0NNS4fMDUD3N80w5kB\r\nNbZ+wDSHwM80LsdINflVQTXijxU12ckXNexXHTV3aAk1Y0gINRwPEzWrSkk1gEhcNcKckzRnQdM0\r\nylE8NZTlGjWZRXo1mYPiNKOIGDX9VSk1SDywNE/uAjVE05U0/LpeNYJ8uDT+TwI1K57TNKdFFTVQ\r\nmmw1bxHxNNasyjTwQdg0uDi0NKQl/jRwNLM0eBffNHVFvDRC6IA0QxjQNA8uczQLG6o0fGK7NO7j\r\nmzQBYqc0PLzWNLgI9DTcW6Q0a0AZNYg9STUbsVQ1+5sfNVyxoTRchak0ZlS/NIZF8DQC/LA0KHW2\r\nNAKVBzVhPRg1IxGrNNrwCDVtxBU1lnAcNYeauTTwp/s0RXHANLDJwzTVLtw0yWgLNdyaGTVZOe00\r\nJFcoNZ6B7TQG/MU0+DEUNQFt/DRtlSo14IBuNQxXyzRAZsw0OmxvNepc4TQsbOo0BX5pNeLZFjVa\r\nUP00/NC+NDfFxzSk/Jk0Xv9WNFcJFTUkCfs0nPhONWb3szQLn8U07ItQNLGo0DSMwQE17Z/PNNec\r\n0zRaof0076bINOo8GzXNlYU0hEQkNTyH5jT2YwU1rPNDNQ/OwzRUsuM0rNi/NPhc8DQKmUg1hNDu\r\nNFsmCjUDuzw1VasyNef7cjVSnrA0plT5NKXLhzSFNZ00Ed+nNCFdUDUWMQI1JJnbNNcqvjQMb+40\r\nMCZxNWBYzTTT7DQ1EXZRNffmaTV+3a80W4eUNHE8DjXgGu40gRDrNBPuqjTmEDY1ol3ONJbeJTVU\r\n2RE1pL7HNICD5TRWWw816jZdNU5+4zSdEBA1+UiKNPe7OzXoSB81ciQHNY2hujSihSE1Zmy4NC66\r\njjSDV6M0zDuqNH8orDToE6s0mAmlNNh/LDUtZTA1POHGNHfLdzTbIis17ZIdNZocBDVvRKE0QmwB\r\nNYXQijQkWAs1oC2hNA2Z5TSh2c00fEGaNMT8ujTDZ5w0Y1z7NI2ELjWyxiA1AEAcNQ==",
                            "noiseTrainingType" : "default"
                          }
                        }
                    ],
                    "start" : 4299,
                    "duration" : 85,
                    "mediaStart" : 5189,
                    "mediaDuration" : 85,
                    "scalar" : 1,
                    "metadata" : {
                      "WinSubProjectDisplayName" : "",
                      "clipSpeedAttribute" : false
                    },
                    "animationTracks" : {

                    }
                  },
                  {
                    "id" : 378,
                    "_type" : "AMFile",
                    "src" : 15,
                    "trackNumber" : 0,
                    "attributes" : {
                      "ident" : "旁白_vis2021 1",
                      "sampleRate" : 44100,
                      "bitDepth" : 16,
                      "gain" : 1.0,
                      "mixToMono" : false
                    },
                      "channelNumber" : "0,1",
                    "effects" : [
                        {
                          "effectName" : "NoiseReduction",
                          "parameters" : {
                            "denoiserAmount" : 20.0,
                            "denoiserThreshold" : 0.0,
                            "noiseProfile" : "OWoAPH2pEz2x9Qw+d6HTPcva6j2sp089E2dtPD6vPDwfl1A8ScjwPJTr1Txy35g8LaEAPTpegDyh\r\n+807XKYVO6TEeztxHEg8k5enPOCDljxR1SA80RNNO5P/FTsAUsA78qcaO7cppTsc2vE7qgSrO6lQ\r\n2jukqvI7h92AO2yWGzx+tZU8JitaPFzIyTuXwYE7uY9XO8aQ0Dvqq2I88amYPMnb9DtB2j87KTBk\r\nOzy52zoRSDw7OCjBO9xi/DtxwE88KlbqO3j0qDtWJH47VJnsO9JoxDuANhs8tJ+AO6Qz9Tth+oI8\r\nbGt3O1T1Nzzjhew74A0cPJAvITwici89BseWPGFNtDxkw7o7MRvlOmld0jryf386QXGZOrHMrzuA\r\ngR46FrCVOsPpWDsY4v07HUbYO1nLPjsw9w47wr3FOrnZ+Drc3FY7lUkJO7DAJDv2mAY7Bol9O6Gv\r\nIjui8ek64NliOq5vmTrG/ZM6bCYbO5q5tzpF2YA69unhOXdvJDkMXx461iVVOpU6tTmIPdU5NZ4C\r\nOrLzrDlzv6053gyzOSasszlLTgc5O7atOcYrxzkKtYw6r9cjOpoinjlRRog6Q9QHOqLsbTo5k0E6\r\n9U47OqgHGzq2DIw6xrvIOkIITzrGgR86I/hwOsTOFzq0IQU6isQ5OkIP9DmC+Bw6hsx0OYy4pDnt\r\nMqk5f6afOfFKnDnqIvc5SsRQOpXvdDp8CiE703psOwEALztW+4A6r36ROtKuGDoo4s852RrZOQKM\r\nhDmkgtY4CBe5OXJ5jDnBcjY5RM9jObGZ+DmyHG05aluSOaagETnIyGM5Jt2dOdUxnTmBHwU6PPyu\r\nOQ2PETl6x7k5tcInOtV63TnmcCY6dHftOUWtBzoIt6w5qk+GOf1mbTk4DT454wsLOh2HAjoY+ZY5\r\nyr2VOQQurzmqnRg5LDMFOZLQUjkvV1Q5/g1+OSlxFzlITz85XmAkOdDG/DjiIfM4htxWOREUlTqh\r\nwcw5VnaGOWCBXjn90lA5cKzvOWPrqzkL/o45sEFOOTkyMDpUc5s51oo9ORByjjlGCco52p/tORKy\r\n8Tnit2E51lY0Ofo+ATq6o3Y5Z021OYTVGDlRAq45zuyhOeA4ZDk52eE5nw91ORI2OzlB2R85fgab\r\nOY8bMjkQ1TA5cCaFOXju/Dh2ghM59YD8OFHmfzmnKiQ58YpfOXsbtzlCtX45yEWKOLGkLDkayH45\r\nRUrSOSltyTgvk1U5NT2NOY45EjnfihY5JFlqOTokTjlSlV45Ir54OQ1W5jifjjI5bWS5OfA8NDkO\r\nXs44QhjgOLbnOjkr+iw5hK5/Ocz3Azl6HF45q6DlOIJb2DiR79I4esU3OWtGjDg4gBM5cVloOdzR\r\nDTlkchs5GGg7OVSTtziXOeg4XazEOCiMADmz6Tw5ueqOOVcmeTmS4Ms4nI0UOUTLnjhAXjc56pkE\r\nOdXdBznEOY85PIy4OMxI5zgkSxk5r6oQObvARTnCtUo4LoVEONjrVjnfUsw4msCWOCWAQjlc/y45\r\nJ4KtOCzJrjjGJZ84BKXjOIHj2jhi+yE5rqqOOdCIIzm9fIM56Oo3OUSjtzmiT/M4Wiv3OJw6ETmO\r\nS8w53FJpOdbu1DiJSZs4DaoFOWqKWDkkyvU4GPIdOchJLDmxKwA54MMWOVgzmjgl75M44OcEOVPH\r\n3Dhmzdw4X9sOOb2CyTguC7Y4VgEmOTaQxDjBUAQ5dAM9OarFHjmfj444qMgAOWZMDDmSlas4yUZQ\r\nOaDeMTmPogU5Wxe1OF0m3Dh6aDQ5tbkIObjoEzlqqg45EPLvOKyF+zhUmiE57MvFOPg/vDiW+Vo5\r\nmhyzOGFsBTldBEw4dL3pOOk/QDnXnJQ467sNONFyxDfGPDM3rTsZN+BixjZrWTk338GlNhf/FTe5\r\nNTk2RTSUNkMj3Taj0d02is2UNt0UDDYUXvI1aeXFNhijMjbAtYc2ikWgNuphZDY8D1I28gSnNv4k\r\nLTZRYDk2mtYGN70P5DaWBKc2RzXfNlQFKTeHIYk2IpjaNofVszbqlaM2PatTNiKTzDYjx6M2BMHZ\r\nNiXEdDbJOMs2FNCMNsnGRja2BpI2UsiGNvm1vzbR74Q2wLCoNnn3jDa4fK82VqGlNrSAsTYwh5o2\r\n00guNguj5DYiuZI2yg0BN6PItzbTY6w2VXFINoLcTDbWIk82WJ/cNvx6HDZGdqc2ta/1NVwQMDaG\r\n9VE24mqONlq9rDaNiSE2Lay+NpqbcTYGZ3Q2KPqfNicegDbQyZw27RAtNyQhVjazoMU2izz9Npf0\r\njzbhrAg2zKY4Njo2yjZ1hZE2WNZsNrbfvDZiyp42KRFjNr96jjbjaI02RTYRNmwjhzapnyI2B4XY\r\nNltT7jUOLSY20oDqNhJrxDaCZWw2Ct+VNg/LgjZZzMA2Ik1JNrzQuDZxy901azNqNvW2eDaUuVs2\r\ngu+KNta85ja8P/M1FmShNp/ipjb1OIE21Q/2Nr5JmzYXtZU2x6+qNk6LmTZnjYw2mIJGNul2Jjbc\r\nO3A2lquYNuovLTYtgfE1nUlUNgQzNzaIsDM2DIvUNjKBRja+0oY2ExJ5NgPdJzZaSLQ2EtYgN0Wc\r\nDDbIHow2IiiZNgZUVTa1JnM2v3wcNoN3YDYCtgE38JaENkzoaDb0JTc26/WJNoqw9jYFxFI29vNP\r\nNmdCvDZHFIU2xxObNr0sUTblHoc2JrM/NmrbFDYX93o2m4OpNgs6HDaFNl02Rb2TNpjkJjYAADk2\r\n/8chNn7/QTawezM30gsqNidJ8zWKfC02kBYuNmSnnTa80FY2mFN3NkYZWzY4aO41UHmKNkyZiDYh\r\nGC42h1Y6Np6cgzYSij81AnuaNnc6rzZUXG82vp9eNp4h/jWNsEY2k603NuKSjDbHWSo2RxYINlNS\r\nmTaAOlU2yvJmNkqftzZ5VEk26hV8NjWLezbKM9Y1ernFNWi/XDZaEHQ2dhvANhDaRjYMwy82EwC4\r\nNlCNVTbH4IU2Cx1LNk6XlDbcVNA2FB33NQHMjzY6eW02jpZONqrdMTa+lxk267lUNkhoNDZz+TQ3\r\nwulaNoXxEjYQdsQ2lXEcNsiYOjbfz9o2UzpENvQL0TSOQIM10f8gNcLzLzX5w2c1H4efNN2VyTQO\r\nn70011tKNT7aKTUG8/w0QEgiNUCRKjWhXKI03LYLNQzSrjUnb9E0iB65NCpfLzVs4tk0emppNQtw\r\n8zTy2+U0USoLNeRnDTU88Uc19BfdNFPdNDVtA7Q09QQJNdJhKTXqRNg0am3RNG251DQ1KrA0Oj/Y\r\nNOrxkjTQ8cI0+3eXNEYitDR9exs1YvMdNUBR5DR0pQE1EGj5NAq8KTXmxKs0ErgPNTXAAjVM71g1\r\n2McYNch2PjVA3vs0HZGgNJEIOTWY3M40B5RGNGfgUDUIWUw1AAKQNPuJvjRnt4w0M0qUNPpcxjR3\r\nCM0000dJNZjtnTSx6rQ09gISNSzUKjVHscM0TBtXNYWZEDWjpck07HS+NMuEnzTVZ0U1duMGNWCg\r\n6jTs3880YBEXNT+XujRa3bk0wUISNadMADU5AQ411F8ONePs/jS0pjA105FENQ/HnjQmcwg1WPKH\r\nNFq2nTSuOLI0S9MpNbyI/zTAPso0+sXPNPLB3DTur8o0PLbHNPmbnzT+MvY0YjqvNCUXJTXMJp80\r\nndUPNWmVEjXazkY1O5DgNMl4gzVmyAY1rYEfNXmSQTWIrhU1ikoVNSCqpDTaEbY0/AvpNLIwhDSh\r\nIww1MCwENb5Y/zSUBhw1UowYNbXtpzTvlg4155xcNZhCrDRWs9U0k616NIzznjRmnAQ1Khq/NEm9\r\nCTUki940fgEVNZA1JzWkzqg0RtjuNI+WjTW0QRg1omMcNXzDIDUDHKI0NVu3NMMpRDVCjIo0ViIs\r\nNfxAITWCVB81HXTcNB0NXDWG+bE03vcdNf6QMzXAn8s0Eg/NNATJsTQE9U01LMELNX7DoDSIEB41\r\nwLEGNUVbzTQ8Pwo1QFCINBFgFTVn0vo0JOCjNNaR8zQ1vx41DXUDNak+EjUNQYo08gC7NFzPoTSI\r\n7RU1kpUbNYXvKzWOx240VWf0NGRuBzU6PIo0wlCGNT7g9jSWZjw1Ml4BNRvl6jTQR3w1lmHdNGfd\r\nITTobvU0ypuvNEpF+jTjNY40JYO7NCfBbzQijsA0us84Na6J8TQIYwU1V3IrNSwmYTXQ1kU0zKTc\r\nNDTVfzTj6to0SbOuNHwCvTQ/eR01mcuPNPTduTRDjf806a+nNAj20DREKOo0nPlPNQTe+zQNWSo1\r\nlpGmNBv9xzT/tzk1CtkQNapg2jSMQlI1MDUTNRhOMjWh56Q0AygANa8srzRbOwQ187XxNOQlwDSQ\r\nNO80mTAVNaBD6TQbeoo0UM6FNHPMCjV4t7k0gIxkNE02BjXYBQo1AhAcNWJMijS64uA0zd0JNXWm\r\nEDWiijY1ZpSXNNpWpzTYT+k0QHbzNDaorzSGDHs0qT7ONBvuhzSyYys1dPYCNQdToDTk8uU0MwYH\r\nNWYw+TRbj4g1aJxzNHlxCDVIE8c0Nl2SNOyilTRoqUs1KtMvNbhJPjVmcCE12eGANQ1X8jSNKZo0\r\ndGHdNGrcDjXxZ0A0JhPPNJb14jSwx8o0morUNDmP2DTubH40SSbdNE1r7TRT3rk0EZGLNP35LjV1\r\n1640P7XhNLEsczQldYc02X7eNAZ67jSawbI0drgeNb6GtzSMN9U00j4cNQhrBzWSqgw14dAnNYUF\r\nnDTQSpg0P9OMNOHDLTULMsI0QH6VNI2nxDSl5Yc0WHyLNCaeLDXnc6Y0AaCFNBQP7TTJzR41kvoE\r\nNRykHjU6wZw0+cjVNJdR1TSiQQU10AuONaiUkzUExgY1MMYONaRkZTT9EAU11Bu0NC2j3jTIM4A0\r\nal8cNSoRTzXbrSk1FTDYNEBqkjTgDwA1sun9NP5ztDRWob80HSSSNGYkGDWnkuM0RaMANeGLITXo\r\nTow0GNvbNJlRuzSgsOY0CpP5NMVL9jRRErs0aS1TNVNWgDSmPp80Gvy3NBnwGDXWr7M0dB/VNIw8\r\n0DQBkZ410iF5NDXYLTVZSxU1T0S6NHIrqTRzbRA1XDWKNA2phjRVwpo0SPJ1NGzsODX8K6Y0ne6l\r\nNNU3JjWsl7M0wb+kNKhE5TQUaN8041HRNPhNtTRpfuQ09awXNcwLtDS6nqA0qbk4Nbg8qTQ3pSA0\r\nkRS8NLXO0DRqdcQ0b//eNLPvrDQGQu00fPstNS/HMTWPJMc0fIrENBIciDSLv/k00iuaNNjgPDWm\r\not00DFkCNfHQhDTO4qY0xTYDNbDSOTWNTjA1dLcPNZB1uzQDUrY08mkFNZaNRjXzzK00ErsDNVeQ\r\n3zS5HxA1pmTINLQDBTWIxP008Ny+NADrGDWeipI0eMHvM5R6CTWA3x01wRO2NE0PBDXZKrU0GFyV\r\nNOCJrzSgxtE0tQR+NKJP0zTmcMA0zgvvNFJN7TT5eA41x/eHNAie2jTBXoU1JbdYNQAAEDUAZAE8\r\nF6YTPaE6DT5EKNM9dQ3rPVEOUD0ioW480q89PCfdUDzbEfI8OKDUPGwsmDxHYgE9amiBPGR1zjsP\r\nPhU7a3x7OyhGRzygj6g8mBGWPCuBIDwy9E47Dr4TO1iRvDsOzBo7Kk6nOyjG8juQWao70ZvWOxbH\r\n8zuU8n07aPEbPGxKlzygoVs8TMfIO9+xhDsybFY7q+rTO/L8YTx2ZJg8LVf1O0mYPjuCWmQ7fLXf\r\nOt2APzt7zMI7O4D+Ox50Tzw8t+w7lE+pOzStezsIHeo7gHbGO/xxGTz7XIA7vAj1O108gzyol3g7\r\ntww5PFZa6zv7yxw8BjMgPKnvLj13cpY8hhS0PDysuTskGOc6fsrQOrACgDqdYpQ6nrawO0mtIzpq\r\niZQ6oWVXO4pL/Dsyi9U7isI/O5AADzuqPMM6Xcz3OuCjVjsJJAU70nAkO3xeCzuPI4E7G4YiO1p8\r\n7jrINmQ6RKiWOkNYjzquKxk7L5jEOkefiTpiBN05wkIqOcZGDTp6g046RrOpOQ6EwjmtPgQ6e2Gc\r\nOSSjpDlo8ZU55XS9ObmuBzlz4785N8m2OWCrjzo4vB06uHOTOSQohDrAdAk6ttpzOqV9QjpzGTY6\r\n3XEaOsgBjjqKt8k6HvZMOicoGjocq2w6ap4WOhHEADrfCzk63skBOgeJHDrUTnI5YkuiObHDpjmu\r\nSKM5/cCSOf1k+zmMGlI6inluOu+YIDu89m07RVI0O6+Kgzr+5446GKYWOsGMzDkpPtU5IguVOWYu\r\n0Thu2rs5wj2KOYr0Szln8mE5OIzqOdZKbDmJnpY5zvoYORbfcjmJJb45rPudOReeBTpaM7A5gOEv\r\nOfU4rjmBKBo6bN3fOQHYIDpCxO45IMMKOhDuqjnu5385nKuKOcsUJTnO6QY6IssJOqWwlTkE/nk5\r\n982pOYJKFzlMEgc5kM8qOTzQSjkjjFw5oLMhOb3XTTlwQiA5qwrfOFyxBDkkj0w5MGaVOpPkyzkA\r\nWYw5x/dWOdTGaDnThQM6cUq4OS/ykTn8pTU5cg8tOjmUnzmJETc5yAicOQHqsTm7VQY6AgbzOcxp\r\nYTnUlDk5COb3OVNucjnJjtA5lvYsOVSTlDlbCZA5jieCOevY/jld/5M5ZAsQOQCjIjmaXZk5X2sk\r\nOaKvQDn3w2A5sFLsOCInSDnjTPU4Pw52ORiOFTnxB085aOe5Oeymfzkdh5Q4b9kUOTcjiDlltOQ5\r\nW97hOK93TDk6TJo5GxUROfmZKDmqWVg5gnArOZiUUTljp2g5VN4COa51OjmCG6857I8hOQJUyDiy\r\nFeY4PzlIOQnaEjkNa105LJgJOedSTTmft9w4RFvhOEMPBjkBNUc5IxKaOKB0AzlHK0Y5uzfsOA7s\r\nCTnIO1A5K33WOKFk2jjp16849C8QOWZpPTn28K85JD91Ocr4pTiAdCY50TmeOH4OPTl/1vM4rUTC\r\nOKr9azkWMbo4F7ngOLhyVDn8tgw5pjZnOXrXVTgwxCo4OQx/OXmv4TiOkZs4EjRhOc/BKzm9HJg4\r\nmNmEOBptqTgOwN44isnuOMjHEDkVGqA5ZsgfOcwJgTn/qS85F5G9OSUi8Th4/wU58kwEOcGM0znk\r\nW1o5KBbSOPxmrjgoieg4mOJqOacY5jhwBhY5iXUjOeCfAjn89RI53mOTOE5nnDgXwQo59x/YOLsN\r\nvzisAgg5ZZXBONJSyTg4ChA5g0OvOOLhCzk2PkQ5yZUgOf1/lTgIavM4G5cEObRwszj5plM54Ngg\r\nOTpfCjmgXsE4/c7tOPbIHjng2QM52pkWOVEIBjnWdfE44lgEOVkCJTm3Js04paCwOJruaDnED7c4\r\nlngHOd1wSThLgdw4+MM6OWkNiTjQTig4ZOnTNxI6RTeeDew2cZ29Nv7NAjclhNM2iMnzNsyKczZM\r\nTqE2NwIANyN0CjdyN5Q2WgazNq/6RTZdvu82CgJ2NnBTbzZ2Y8g2nCmlNornMTbyM/U2XdYuNnYx\r\nDDZETwI3eL+nNkEyGTdWc042Yb0WNzGqlDaNeNI2vHqNNkA4sDYmdYE2+cmANhHYVzaKnIs2sgCG\r\nNgmRtTZMoZo22v10NnRMhzYJ96I2OKTLNuYomzb9GYQ2aZ4gNg34YTYuHZo2W3zKNg54fjYZjkw2\r\nf2wUN3Od0TYrN5w2qv+fNtmNlTawHlI20q1xNtWcgzbalsQ2aqh0NqiRqzZJr+Y1tKkfNvwthjbs\r\njso2aMOjNjtLWzaqzNg2QuVVNvmDcTZsOcU2ODthNmCKmjZkwsw2JO2RNrvV7zZ/j5g2X3SCNuWv\r\njDatdLA22aTFNuHopjZGQ1k280BwNm9ZdzZuF3o2uV16NukrgjZ0cmI2oP0yNtheUDbrCZM2IZD3\r\nNcjiiDbmV9M2x6S6NnU/pzZADwg2huV1NusKwzZOBTQ2+FGNNgbaCjZtFJo2oEWzNnsKijZWeO02\r\nGtuJNu8IdjY49Yg2Mr2ANg3ZzjZiM+s2PSKeNoMphDa/F582hoJcNt0QxjZWOKM2KJ8XNqxVQjbY\r\ngaI2GZ6aNs0bpTU+g5g2tEowNtIkZDYOlas2ZR1xNtIkgzZRo4A2kxo0Nq+R7DZCmS43Jnh6NgQS\r\nbDb4RYg2lNw9NuvPkzYiw3I2yo89NhID7TYcIIw26OkjNrMkKzbG26s2fgyyNkykhTarGu41ZVyZ\r\nNs59hja4/3g2DVwlNg8S/DWud6U2N9IvNgCXSjbgmnM2uSBPNn7iXza+E8Q2IrczNgAgGTbUpLw1\r\nmKpzNoJSGzdiAoM2ZpDFNfrlFDY4tAI2RI+mNgX6UTb+VoU2addaNhrNCTZZFHA2uMncNXzMSzbJ\r\nKYk2chpoNlUqsTVQL942eABrNmzNjTZ3X0o2gnWBNn72gTZLTEE2lwQzNgfuCjaKZ0A2Cn+pNqDa\r\nNzbbTXE2Jn7UNu4UKDZVMoQ2j46fNsCxMzbOjB026lnINRYmezYubI02j29ONiv6jzYkvQU24bo/\r\nNlRyPzacL0c24hOWNpYhiDbn4/U1XMKXNjdHgzYwUO01kmwQNsrkGjZWzx02IdkDNtNSCTdR2VE2\r\nthtfNuRpyzaptiM2tEQ0Nkz1XDaF2zA2q9VKNcwlKDW1Wt007vuJNFq4yzRjGzI175BhNbYW/jTC\r\n50I1fp2dNJ2JFzXcfBY1j6wVNck7ADXKUgk1IqzANOh0JjVVrrw0Msw2NZKFGTUaPUI1fBNaNcVN\r\nSTUON7Q0P4fQNFKuFzUxPlU1sICqNGd1ajTm2QI1i7CcNE6RhzRis6A0+Hg7Nbaz2zTd5O41Lo6Q\r\nNCC46jRqY4k02LwPNQsD+zQS2kY1DgsZNQCcHDWKMa00NY4gNbBtFDXqiRc1oiMKNXSGhzRgRxs1\r\nsvCONXglnTQaJsk0VZcVNTwSAjVbovE0HAgiNYYOkDWs+Bk1NoTxNOmQHzWwgbI0cTRKNEIM5zRm\r\n0Eo1Lt3NNDT7uTSlUH81fpTdNNbDuDR5QIA1bivBNDg8tDTqSAw1juzKNPjckTXYQus0QHrGNAe/\r\nzjT+Kxk1k1EENS6XETW7x+g0SgvDNLGCvzSIgvk0RU2fNNSwojQOc7k03IPMNCf6ETV8ef00kiUz\r\nNaCP5DSyjgI1NzurNDzYBDVnrxg1wWfANHpDdjTTMLM0SyeuNCZrpDTpSwg1kQXWNKnmtjTd4L00\r\nCjEvNe+3XjWZAko1Ym35NPTQoTRMXRI1/Kv1NNnw+TREn580ApgENQioMTUc6Qw1wGDtNMWVAjX6\r\nRmI1CN1MNL0nqzQdttc0yKQdNbOO9jSg9bU00Ta0NPpG8jRwfn81zM+VNG1DtzQjBjQ133YnNRiY\r\nzzSD58A0vVEGNeQz7TQc+8c0alDxNOYeqTRZjwM1A1X7NKFF9DRfJtM0Vc0BNUYGIjUIksE0MIwp\r\nNYA4xDQyT2E0+rrONBaUKjWcVbs0lgEXNQhoLjVqYfM0QkIHNXxZBjWjN9A04CoHNf4JgzRmC1I1\r\nHvk2NR48nDSMgG00Zf32NNotNDWhucs0OhP6NCbLvjSa08g0UXkUNWHkGjU2b7M0Jjf1NNWAHTX2\r\nAKk0D22rNDpwCjVAdSE1wIe3NKki1DQ7h1c0c56RNM+EHDWeNvs0MQ70NEBr+DSzItM00gbWNHQw\r\nKDULfMQ0x//kNPxv2TTQtDM1WH4UNV82NTXQGQs1zfzkNE4e5zQRzgg1/pbnNGCS0TTOFd40v6/x\r\nNAS1tjRCvqU0IwneNHHchzWWIeA0UM+4NK8f9TRyIZM0h7UINdtvGDWwIMU0f+g7NQZH3jSvXyg1\r\nQFDUNEfN1zTFaJE0vTVhNZhtEzVsOCo1lI2DNKvBcDU7hyA1G3lgNdKy/jT5BOE0W5yZNMVKxTQt\r\nffo0UfUYNfYY1jRmNic1cjOcNHhM3TQltw01y+wGNdUXAzWjaYQ1EAGsNAMnHTXG2Ok0b2sZNdaU\r\nnTTqTu80BYtpNRavBjXpXoY0gY8TNRz6MzTZ+bU0CwEyNeatmjTYpAw1XQ0NNS4fMDUD3N80w5kB\r\nNbZ+wDSHwM80LsdINflVQTXijxU12ckXNexXHTV3aAk1Y0gINRwPEzWrSkk1gEhcNcKckzRnQdM0\r\nylE8NZTlGjWZRXo1mYPiNKOIGDX9VSk1SDywNE/uAjVE05U0/LpeNYJ8uDT+TwI1K57TNKdFFTVQ\r\nmmw1bxHxNNasyjTwQdg0uDi0NKQl/jRwNLM0eBffNHVFvDRC6IA0QxjQNA8uczQLG6o0fGK7NO7j\r\nmzQBYqc0PLzWNLgI9DTcW6Q0a0AZNYg9STUbsVQ1+5sfNVyxoTRchak0ZlS/NIZF8DQC/LA0KHW2\r\nNAKVBzVhPRg1IxGrNNrwCDVtxBU1lnAcNYeauTTwp/s0RXHANLDJwzTVLtw0yWgLNdyaGTVZOe00\r\nJFcoNZ6B7TQG/MU0+DEUNQFt/DRtlSo14IBuNQxXyzRAZsw0OmxvNepc4TQsbOo0BX5pNeLZFjVa\r\nUP00/NC+NDfFxzSk/Jk0Xv9WNFcJFTUkCfs0nPhONWb3szQLn8U07ItQNLGo0DSMwQE17Z/PNNec\r\n0zRaof0076bINOo8GzXNlYU0hEQkNTyH5jT2YwU1rPNDNQ/OwzRUsuM0rNi/NPhc8DQKmUg1hNDu\r\nNFsmCjUDuzw1VasyNef7cjVSnrA0plT5NKXLhzSFNZ00Ed+nNCFdUDUWMQI1JJnbNNcqvjQMb+40\r\nMCZxNWBYzTTT7DQ1EXZRNffmaTV+3a80W4eUNHE8DjXgGu40gRDrNBPuqjTmEDY1ol3ONJbeJTVU\r\n2RE1pL7HNICD5TRWWw816jZdNU5+4zSdEBA1+UiKNPe7OzXoSB81ciQHNY2hujSihSE1Zmy4NC66\r\njjSDV6M0zDuqNH8orDToE6s0mAmlNNh/LDUtZTA1POHGNHfLdzTbIis17ZIdNZocBDVvRKE0QmwB\r\nNYXQijQkWAs1oC2hNA2Z5TSh2c00fEGaNMT8ujTDZ5w0Y1z7NI2ELjWyxiA1AEAcNQ==",
                            "noiseTrainingType" : "default"
                          }
                        }
                    ],
                    "start" : 4384,
                    "duration" : 205,
                    "mediaStart" : 5312,
                    "mediaDuration" : 205,
                    "scalar" : 1,
                    "metadata" : {
                      "WinSubProjectDisplayName" : "",
                      "clipSpeedAttribute" : false
                    },
                    "animationTracks" : {

                    }
                  },
                  {
                    "id" : 379,
                    "_type" : "AMFile",
                    "src" : 15,
                    "trackNumber" : 0,
                    "attributes" : {
                      "ident" : "旁白_vis2021 1",
                      "sampleRate" : 44100,
                      "bitDepth" : 16,
                      "gain" : 1.0,
                      "mixToMono" : false
                    },
                      "channelNumber" : "0,1",
                    "effects" : [
                        {
                          "effectName" : "NoiseReduction",
                          "parameters" : {
                            "denoiserAmount" : 20.0,
                            "denoiserThreshold" : 0.0,
                            "noiseProfile" : "OWoAPH2pEz2x9Qw+d6HTPcva6j2sp089E2dtPD6vPDwfl1A8ScjwPJTr1Txy35g8LaEAPTpegDyh\r\n+807XKYVO6TEeztxHEg8k5enPOCDljxR1SA80RNNO5P/FTsAUsA78qcaO7cppTsc2vE7qgSrO6lQ\r\n2jukqvI7h92AO2yWGzx+tZU8JitaPFzIyTuXwYE7uY9XO8aQ0Dvqq2I88amYPMnb9DtB2j87KTBk\r\nOzy52zoRSDw7OCjBO9xi/DtxwE88KlbqO3j0qDtWJH47VJnsO9JoxDuANhs8tJ+AO6Qz9Tth+oI8\r\nbGt3O1T1Nzzjhew74A0cPJAvITwici89BseWPGFNtDxkw7o7MRvlOmld0jryf386QXGZOrHMrzuA\r\ngR46FrCVOsPpWDsY4v07HUbYO1nLPjsw9w47wr3FOrnZ+Drc3FY7lUkJO7DAJDv2mAY7Bol9O6Gv\r\nIjui8ek64NliOq5vmTrG/ZM6bCYbO5q5tzpF2YA69unhOXdvJDkMXx461iVVOpU6tTmIPdU5NZ4C\r\nOrLzrDlzv6053gyzOSasszlLTgc5O7atOcYrxzkKtYw6r9cjOpoinjlRRog6Q9QHOqLsbTo5k0E6\r\n9U47OqgHGzq2DIw6xrvIOkIITzrGgR86I/hwOsTOFzq0IQU6isQ5OkIP9DmC+Bw6hsx0OYy4pDnt\r\nMqk5f6afOfFKnDnqIvc5SsRQOpXvdDp8CiE703psOwEALztW+4A6r36ROtKuGDoo4s852RrZOQKM\r\nhDmkgtY4CBe5OXJ5jDnBcjY5RM9jObGZ+DmyHG05aluSOaagETnIyGM5Jt2dOdUxnTmBHwU6PPyu\r\nOQ2PETl6x7k5tcInOtV63TnmcCY6dHftOUWtBzoIt6w5qk+GOf1mbTk4DT454wsLOh2HAjoY+ZY5\r\nyr2VOQQurzmqnRg5LDMFOZLQUjkvV1Q5/g1+OSlxFzlITz85XmAkOdDG/DjiIfM4htxWOREUlTqh\r\nwcw5VnaGOWCBXjn90lA5cKzvOWPrqzkL/o45sEFOOTkyMDpUc5s51oo9ORByjjlGCco52p/tORKy\r\n8Tnit2E51lY0Ofo+ATq6o3Y5Z021OYTVGDlRAq45zuyhOeA4ZDk52eE5nw91ORI2OzlB2R85fgab\r\nOY8bMjkQ1TA5cCaFOXju/Dh2ghM59YD8OFHmfzmnKiQ58YpfOXsbtzlCtX45yEWKOLGkLDkayH45\r\nRUrSOSltyTgvk1U5NT2NOY45EjnfihY5JFlqOTokTjlSlV45Ir54OQ1W5jifjjI5bWS5OfA8NDkO\r\nXs44QhjgOLbnOjkr+iw5hK5/Ocz3Azl6HF45q6DlOIJb2DiR79I4esU3OWtGjDg4gBM5cVloOdzR\r\nDTlkchs5GGg7OVSTtziXOeg4XazEOCiMADmz6Tw5ueqOOVcmeTmS4Ms4nI0UOUTLnjhAXjc56pkE\r\nOdXdBznEOY85PIy4OMxI5zgkSxk5r6oQObvARTnCtUo4LoVEONjrVjnfUsw4msCWOCWAQjlc/y45\r\nJ4KtOCzJrjjGJZ84BKXjOIHj2jhi+yE5rqqOOdCIIzm9fIM56Oo3OUSjtzmiT/M4Wiv3OJw6ETmO\r\nS8w53FJpOdbu1DiJSZs4DaoFOWqKWDkkyvU4GPIdOchJLDmxKwA54MMWOVgzmjgl75M44OcEOVPH\r\n3Dhmzdw4X9sOOb2CyTguC7Y4VgEmOTaQxDjBUAQ5dAM9OarFHjmfj444qMgAOWZMDDmSlas4yUZQ\r\nOaDeMTmPogU5Wxe1OF0m3Dh6aDQ5tbkIObjoEzlqqg45EPLvOKyF+zhUmiE57MvFOPg/vDiW+Vo5\r\nmhyzOGFsBTldBEw4dL3pOOk/QDnXnJQ467sNONFyxDfGPDM3rTsZN+BixjZrWTk338GlNhf/FTe5\r\nNTk2RTSUNkMj3Taj0d02is2UNt0UDDYUXvI1aeXFNhijMjbAtYc2ikWgNuphZDY8D1I28gSnNv4k\r\nLTZRYDk2mtYGN70P5DaWBKc2RzXfNlQFKTeHIYk2IpjaNofVszbqlaM2PatTNiKTzDYjx6M2BMHZ\r\nNiXEdDbJOMs2FNCMNsnGRja2BpI2UsiGNvm1vzbR74Q2wLCoNnn3jDa4fK82VqGlNrSAsTYwh5o2\r\n00guNguj5DYiuZI2yg0BN6PItzbTY6w2VXFINoLcTDbWIk82WJ/cNvx6HDZGdqc2ta/1NVwQMDaG\r\n9VE24mqONlq9rDaNiSE2Lay+NpqbcTYGZ3Q2KPqfNicegDbQyZw27RAtNyQhVjazoMU2izz9Npf0\r\njzbhrAg2zKY4Njo2yjZ1hZE2WNZsNrbfvDZiyp42KRFjNr96jjbjaI02RTYRNmwjhzapnyI2B4XY\r\nNltT7jUOLSY20oDqNhJrxDaCZWw2Ct+VNg/LgjZZzMA2Ik1JNrzQuDZxy901azNqNvW2eDaUuVs2\r\ngu+KNta85ja8P/M1FmShNp/ipjb1OIE21Q/2Nr5JmzYXtZU2x6+qNk6LmTZnjYw2mIJGNul2Jjbc\r\nO3A2lquYNuovLTYtgfE1nUlUNgQzNzaIsDM2DIvUNjKBRja+0oY2ExJ5NgPdJzZaSLQ2EtYgN0Wc\r\nDDbIHow2IiiZNgZUVTa1JnM2v3wcNoN3YDYCtgE38JaENkzoaDb0JTc26/WJNoqw9jYFxFI29vNP\r\nNmdCvDZHFIU2xxObNr0sUTblHoc2JrM/NmrbFDYX93o2m4OpNgs6HDaFNl02Rb2TNpjkJjYAADk2\r\n/8chNn7/QTawezM30gsqNidJ8zWKfC02kBYuNmSnnTa80FY2mFN3NkYZWzY4aO41UHmKNkyZiDYh\r\nGC42h1Y6Np6cgzYSij81AnuaNnc6rzZUXG82vp9eNp4h/jWNsEY2k603NuKSjDbHWSo2RxYINlNS\r\nmTaAOlU2yvJmNkqftzZ5VEk26hV8NjWLezbKM9Y1ernFNWi/XDZaEHQ2dhvANhDaRjYMwy82EwC4\r\nNlCNVTbH4IU2Cx1LNk6XlDbcVNA2FB33NQHMjzY6eW02jpZONqrdMTa+lxk267lUNkhoNDZz+TQ3\r\nwulaNoXxEjYQdsQ2lXEcNsiYOjbfz9o2UzpENvQL0TSOQIM10f8gNcLzLzX5w2c1H4efNN2VyTQO\r\nn70011tKNT7aKTUG8/w0QEgiNUCRKjWhXKI03LYLNQzSrjUnb9E0iB65NCpfLzVs4tk0emppNQtw\r\n8zTy2+U0USoLNeRnDTU88Uc19BfdNFPdNDVtA7Q09QQJNdJhKTXqRNg0am3RNG251DQ1KrA0Oj/Y\r\nNOrxkjTQ8cI0+3eXNEYitDR9exs1YvMdNUBR5DR0pQE1EGj5NAq8KTXmxKs0ErgPNTXAAjVM71g1\r\n2McYNch2PjVA3vs0HZGgNJEIOTWY3M40B5RGNGfgUDUIWUw1AAKQNPuJvjRnt4w0M0qUNPpcxjR3\r\nCM0000dJNZjtnTSx6rQ09gISNSzUKjVHscM0TBtXNYWZEDWjpck07HS+NMuEnzTVZ0U1duMGNWCg\r\n6jTs3880YBEXNT+XujRa3bk0wUISNadMADU5AQ411F8ONePs/jS0pjA105FENQ/HnjQmcwg1WPKH\r\nNFq2nTSuOLI0S9MpNbyI/zTAPso0+sXPNPLB3DTur8o0PLbHNPmbnzT+MvY0YjqvNCUXJTXMJp80\r\nndUPNWmVEjXazkY1O5DgNMl4gzVmyAY1rYEfNXmSQTWIrhU1ikoVNSCqpDTaEbY0/AvpNLIwhDSh\r\nIww1MCwENb5Y/zSUBhw1UowYNbXtpzTvlg4155xcNZhCrDRWs9U0k616NIzznjRmnAQ1Khq/NEm9\r\nCTUki940fgEVNZA1JzWkzqg0RtjuNI+WjTW0QRg1omMcNXzDIDUDHKI0NVu3NMMpRDVCjIo0ViIs\r\nNfxAITWCVB81HXTcNB0NXDWG+bE03vcdNf6QMzXAn8s0Eg/NNATJsTQE9U01LMELNX7DoDSIEB41\r\nwLEGNUVbzTQ8Pwo1QFCINBFgFTVn0vo0JOCjNNaR8zQ1vx41DXUDNak+EjUNQYo08gC7NFzPoTSI\r\n7RU1kpUbNYXvKzWOx240VWf0NGRuBzU6PIo0wlCGNT7g9jSWZjw1Ml4BNRvl6jTQR3w1lmHdNGfd\r\nITTobvU0ypuvNEpF+jTjNY40JYO7NCfBbzQijsA0us84Na6J8TQIYwU1V3IrNSwmYTXQ1kU0zKTc\r\nNDTVfzTj6to0SbOuNHwCvTQ/eR01mcuPNPTduTRDjf806a+nNAj20DREKOo0nPlPNQTe+zQNWSo1\r\nlpGmNBv9xzT/tzk1CtkQNapg2jSMQlI1MDUTNRhOMjWh56Q0AygANa8srzRbOwQ187XxNOQlwDSQ\r\nNO80mTAVNaBD6TQbeoo0UM6FNHPMCjV4t7k0gIxkNE02BjXYBQo1AhAcNWJMijS64uA0zd0JNXWm\r\nEDWiijY1ZpSXNNpWpzTYT+k0QHbzNDaorzSGDHs0qT7ONBvuhzSyYys1dPYCNQdToDTk8uU0MwYH\r\nNWYw+TRbj4g1aJxzNHlxCDVIE8c0Nl2SNOyilTRoqUs1KtMvNbhJPjVmcCE12eGANQ1X8jSNKZo0\r\ndGHdNGrcDjXxZ0A0JhPPNJb14jSwx8o0morUNDmP2DTubH40SSbdNE1r7TRT3rk0EZGLNP35LjV1\r\n1640P7XhNLEsczQldYc02X7eNAZ67jSawbI0drgeNb6GtzSMN9U00j4cNQhrBzWSqgw14dAnNYUF\r\nnDTQSpg0P9OMNOHDLTULMsI0QH6VNI2nxDSl5Yc0WHyLNCaeLDXnc6Y0AaCFNBQP7TTJzR41kvoE\r\nNRykHjU6wZw0+cjVNJdR1TSiQQU10AuONaiUkzUExgY1MMYONaRkZTT9EAU11Bu0NC2j3jTIM4A0\r\nal8cNSoRTzXbrSk1FTDYNEBqkjTgDwA1sun9NP5ztDRWob80HSSSNGYkGDWnkuM0RaMANeGLITXo\r\nTow0GNvbNJlRuzSgsOY0CpP5NMVL9jRRErs0aS1TNVNWgDSmPp80Gvy3NBnwGDXWr7M0dB/VNIw8\r\n0DQBkZ410iF5NDXYLTVZSxU1T0S6NHIrqTRzbRA1XDWKNA2phjRVwpo0SPJ1NGzsODX8K6Y0ne6l\r\nNNU3JjWsl7M0wb+kNKhE5TQUaN8041HRNPhNtTRpfuQ09awXNcwLtDS6nqA0qbk4Nbg8qTQ3pSA0\r\nkRS8NLXO0DRqdcQ0b//eNLPvrDQGQu00fPstNS/HMTWPJMc0fIrENBIciDSLv/k00iuaNNjgPDWm\r\not00DFkCNfHQhDTO4qY0xTYDNbDSOTWNTjA1dLcPNZB1uzQDUrY08mkFNZaNRjXzzK00ErsDNVeQ\r\n3zS5HxA1pmTINLQDBTWIxP008Ny+NADrGDWeipI0eMHvM5R6CTWA3x01wRO2NE0PBDXZKrU0GFyV\r\nNOCJrzSgxtE0tQR+NKJP0zTmcMA0zgvvNFJN7TT5eA41x/eHNAie2jTBXoU1JbdYNQAAEDUAZAE8\r\nF6YTPaE6DT5EKNM9dQ3rPVEOUD0ioW480q89PCfdUDzbEfI8OKDUPGwsmDxHYgE9amiBPGR1zjsP\r\nPhU7a3x7OyhGRzygj6g8mBGWPCuBIDwy9E47Dr4TO1iRvDsOzBo7Kk6nOyjG8juQWao70ZvWOxbH\r\n8zuU8n07aPEbPGxKlzygoVs8TMfIO9+xhDsybFY7q+rTO/L8YTx2ZJg8LVf1O0mYPjuCWmQ7fLXf\r\nOt2APzt7zMI7O4D+Ox50Tzw8t+w7lE+pOzStezsIHeo7gHbGO/xxGTz7XIA7vAj1O108gzyol3g7\r\ntww5PFZa6zv7yxw8BjMgPKnvLj13cpY8hhS0PDysuTskGOc6fsrQOrACgDqdYpQ6nrawO0mtIzpq\r\niZQ6oWVXO4pL/Dsyi9U7isI/O5AADzuqPMM6Xcz3OuCjVjsJJAU70nAkO3xeCzuPI4E7G4YiO1p8\r\n7jrINmQ6RKiWOkNYjzquKxk7L5jEOkefiTpiBN05wkIqOcZGDTp6g046RrOpOQ6EwjmtPgQ6e2Gc\r\nOSSjpDlo8ZU55XS9ObmuBzlz4785N8m2OWCrjzo4vB06uHOTOSQohDrAdAk6ttpzOqV9QjpzGTY6\r\n3XEaOsgBjjqKt8k6HvZMOicoGjocq2w6ap4WOhHEADrfCzk63skBOgeJHDrUTnI5YkuiObHDpjmu\r\nSKM5/cCSOf1k+zmMGlI6inluOu+YIDu89m07RVI0O6+Kgzr+5446GKYWOsGMzDkpPtU5IguVOWYu\r\n0Thu2rs5wj2KOYr0Szln8mE5OIzqOdZKbDmJnpY5zvoYORbfcjmJJb45rPudOReeBTpaM7A5gOEv\r\nOfU4rjmBKBo6bN3fOQHYIDpCxO45IMMKOhDuqjnu5385nKuKOcsUJTnO6QY6IssJOqWwlTkE/nk5\r\n982pOYJKFzlMEgc5kM8qOTzQSjkjjFw5oLMhOb3XTTlwQiA5qwrfOFyxBDkkj0w5MGaVOpPkyzkA\r\nWYw5x/dWOdTGaDnThQM6cUq4OS/ykTn8pTU5cg8tOjmUnzmJETc5yAicOQHqsTm7VQY6AgbzOcxp\r\nYTnUlDk5COb3OVNucjnJjtA5lvYsOVSTlDlbCZA5jieCOevY/jld/5M5ZAsQOQCjIjmaXZk5X2sk\r\nOaKvQDn3w2A5sFLsOCInSDnjTPU4Pw52ORiOFTnxB085aOe5Oeymfzkdh5Q4b9kUOTcjiDlltOQ5\r\nW97hOK93TDk6TJo5GxUROfmZKDmqWVg5gnArOZiUUTljp2g5VN4COa51OjmCG6857I8hOQJUyDiy\r\nFeY4PzlIOQnaEjkNa105LJgJOedSTTmft9w4RFvhOEMPBjkBNUc5IxKaOKB0AzlHK0Y5uzfsOA7s\r\nCTnIO1A5K33WOKFk2jjp16849C8QOWZpPTn28K85JD91Ocr4pTiAdCY50TmeOH4OPTl/1vM4rUTC\r\nOKr9azkWMbo4F7ngOLhyVDn8tgw5pjZnOXrXVTgwxCo4OQx/OXmv4TiOkZs4EjRhOc/BKzm9HJg4\r\nmNmEOBptqTgOwN44isnuOMjHEDkVGqA5ZsgfOcwJgTn/qS85F5G9OSUi8Th4/wU58kwEOcGM0znk\r\nW1o5KBbSOPxmrjgoieg4mOJqOacY5jhwBhY5iXUjOeCfAjn89RI53mOTOE5nnDgXwQo59x/YOLsN\r\nvzisAgg5ZZXBONJSyTg4ChA5g0OvOOLhCzk2PkQ5yZUgOf1/lTgIavM4G5cEObRwszj5plM54Ngg\r\nOTpfCjmgXsE4/c7tOPbIHjng2QM52pkWOVEIBjnWdfE44lgEOVkCJTm3Js04paCwOJruaDnED7c4\r\nlngHOd1wSThLgdw4+MM6OWkNiTjQTig4ZOnTNxI6RTeeDew2cZ29Nv7NAjclhNM2iMnzNsyKczZM\r\nTqE2NwIANyN0CjdyN5Q2WgazNq/6RTZdvu82CgJ2NnBTbzZ2Y8g2nCmlNornMTbyM/U2XdYuNnYx\r\nDDZETwI3eL+nNkEyGTdWc042Yb0WNzGqlDaNeNI2vHqNNkA4sDYmdYE2+cmANhHYVzaKnIs2sgCG\r\nNgmRtTZMoZo22v10NnRMhzYJ96I2OKTLNuYomzb9GYQ2aZ4gNg34YTYuHZo2W3zKNg54fjYZjkw2\r\nf2wUN3Od0TYrN5w2qv+fNtmNlTawHlI20q1xNtWcgzbalsQ2aqh0NqiRqzZJr+Y1tKkfNvwthjbs\r\njso2aMOjNjtLWzaqzNg2QuVVNvmDcTZsOcU2ODthNmCKmjZkwsw2JO2RNrvV7zZ/j5g2X3SCNuWv\r\njDatdLA22aTFNuHopjZGQ1k280BwNm9ZdzZuF3o2uV16NukrgjZ0cmI2oP0yNtheUDbrCZM2IZD3\r\nNcjiiDbmV9M2x6S6NnU/pzZADwg2huV1NusKwzZOBTQ2+FGNNgbaCjZtFJo2oEWzNnsKijZWeO02\r\nGtuJNu8IdjY49Yg2Mr2ANg3ZzjZiM+s2PSKeNoMphDa/F582hoJcNt0QxjZWOKM2KJ8XNqxVQjbY\r\ngaI2GZ6aNs0bpTU+g5g2tEowNtIkZDYOlas2ZR1xNtIkgzZRo4A2kxo0Nq+R7DZCmS43Jnh6NgQS\r\nbDb4RYg2lNw9NuvPkzYiw3I2yo89NhID7TYcIIw26OkjNrMkKzbG26s2fgyyNkykhTarGu41ZVyZ\r\nNs59hja4/3g2DVwlNg8S/DWud6U2N9IvNgCXSjbgmnM2uSBPNn7iXza+E8Q2IrczNgAgGTbUpLw1\r\nmKpzNoJSGzdiAoM2ZpDFNfrlFDY4tAI2RI+mNgX6UTb+VoU2addaNhrNCTZZFHA2uMncNXzMSzbJ\r\nKYk2chpoNlUqsTVQL942eABrNmzNjTZ3X0o2gnWBNn72gTZLTEE2lwQzNgfuCjaKZ0A2Cn+pNqDa\r\nNzbbTXE2Jn7UNu4UKDZVMoQ2j46fNsCxMzbOjB026lnINRYmezYubI02j29ONiv6jzYkvQU24bo/\r\nNlRyPzacL0c24hOWNpYhiDbn4/U1XMKXNjdHgzYwUO01kmwQNsrkGjZWzx02IdkDNtNSCTdR2VE2\r\nthtfNuRpyzaptiM2tEQ0Nkz1XDaF2zA2q9VKNcwlKDW1Wt007vuJNFq4yzRjGzI175BhNbYW/jTC\r\n50I1fp2dNJ2JFzXcfBY1j6wVNck7ADXKUgk1IqzANOh0JjVVrrw0Msw2NZKFGTUaPUI1fBNaNcVN\r\nSTUON7Q0P4fQNFKuFzUxPlU1sICqNGd1ajTm2QI1i7CcNE6RhzRis6A0+Hg7Nbaz2zTd5O41Lo6Q\r\nNCC46jRqY4k02LwPNQsD+zQS2kY1DgsZNQCcHDWKMa00NY4gNbBtFDXqiRc1oiMKNXSGhzRgRxs1\r\nsvCONXglnTQaJsk0VZcVNTwSAjVbovE0HAgiNYYOkDWs+Bk1NoTxNOmQHzWwgbI0cTRKNEIM5zRm\r\n0Eo1Lt3NNDT7uTSlUH81fpTdNNbDuDR5QIA1bivBNDg8tDTqSAw1juzKNPjckTXYQus0QHrGNAe/\r\nzjT+Kxk1k1EENS6XETW7x+g0SgvDNLGCvzSIgvk0RU2fNNSwojQOc7k03IPMNCf6ETV8ef00kiUz\r\nNaCP5DSyjgI1NzurNDzYBDVnrxg1wWfANHpDdjTTMLM0SyeuNCZrpDTpSwg1kQXWNKnmtjTd4L00\r\nCjEvNe+3XjWZAko1Ym35NPTQoTRMXRI1/Kv1NNnw+TREn580ApgENQioMTUc6Qw1wGDtNMWVAjX6\r\nRmI1CN1MNL0nqzQdttc0yKQdNbOO9jSg9bU00Ta0NPpG8jRwfn81zM+VNG1DtzQjBjQ133YnNRiY\r\nzzSD58A0vVEGNeQz7TQc+8c0alDxNOYeqTRZjwM1A1X7NKFF9DRfJtM0Vc0BNUYGIjUIksE0MIwp\r\nNYA4xDQyT2E0+rrONBaUKjWcVbs0lgEXNQhoLjVqYfM0QkIHNXxZBjWjN9A04CoHNf4JgzRmC1I1\r\nHvk2NR48nDSMgG00Zf32NNotNDWhucs0OhP6NCbLvjSa08g0UXkUNWHkGjU2b7M0Jjf1NNWAHTX2\r\nAKk0D22rNDpwCjVAdSE1wIe3NKki1DQ7h1c0c56RNM+EHDWeNvs0MQ70NEBr+DSzItM00gbWNHQw\r\nKDULfMQ0x//kNPxv2TTQtDM1WH4UNV82NTXQGQs1zfzkNE4e5zQRzgg1/pbnNGCS0TTOFd40v6/x\r\nNAS1tjRCvqU0IwneNHHchzWWIeA0UM+4NK8f9TRyIZM0h7UINdtvGDWwIMU0f+g7NQZH3jSvXyg1\r\nQFDUNEfN1zTFaJE0vTVhNZhtEzVsOCo1lI2DNKvBcDU7hyA1G3lgNdKy/jT5BOE0W5yZNMVKxTQt\r\nffo0UfUYNfYY1jRmNic1cjOcNHhM3TQltw01y+wGNdUXAzWjaYQ1EAGsNAMnHTXG2Ok0b2sZNdaU\r\nnTTqTu80BYtpNRavBjXpXoY0gY8TNRz6MzTZ+bU0CwEyNeatmjTYpAw1XQ0NNS4fMDUD3N80w5kB\r\nNbZ+wDSHwM80LsdINflVQTXijxU12ckXNexXHTV3aAk1Y0gINRwPEzWrSkk1gEhcNcKckzRnQdM0\r\nylE8NZTlGjWZRXo1mYPiNKOIGDX9VSk1SDywNE/uAjVE05U0/LpeNYJ8uDT+TwI1K57TNKdFFTVQ\r\nmmw1bxHxNNasyjTwQdg0uDi0NKQl/jRwNLM0eBffNHVFvDRC6IA0QxjQNA8uczQLG6o0fGK7NO7j\r\nmzQBYqc0PLzWNLgI9DTcW6Q0a0AZNYg9STUbsVQ1+5sfNVyxoTRchak0ZlS/NIZF8DQC/LA0KHW2\r\nNAKVBzVhPRg1IxGrNNrwCDVtxBU1lnAcNYeauTTwp/s0RXHANLDJwzTVLtw0yWgLNdyaGTVZOe00\r\nJFcoNZ6B7TQG/MU0+DEUNQFt/DRtlSo14IBuNQxXyzRAZsw0OmxvNepc4TQsbOo0BX5pNeLZFjVa\r\nUP00/NC+NDfFxzSk/Jk0Xv9WNFcJFTUkCfs0nPhONWb3szQLn8U07ItQNLGo0DSMwQE17Z/PNNec\r\n0zRaof0076bINOo8GzXNlYU0hEQkNTyH5jT2YwU1rPNDNQ/OwzRUsuM0rNi/NPhc8DQKmUg1hNDu\r\nNFsmCjUDuzw1VasyNef7cjVSnrA0plT5NKXLhzSFNZ00Ed+nNCFdUDUWMQI1JJnbNNcqvjQMb+40\r\nMCZxNWBYzTTT7DQ1EXZRNffmaTV+3a80W4eUNHE8DjXgGu40gRDrNBPuqjTmEDY1ol3ONJbeJTVU\r\n2RE1pL7HNICD5TRWWw816jZdNU5+4zSdEBA1+UiKNPe7OzXoSB81ciQHNY2hujSihSE1Zmy4NC66\r\njjSDV6M0zDuqNH8orDToE6s0mAmlNNh/LDUtZTA1POHGNHfLdzTbIis17ZIdNZocBDVvRKE0QmwB\r\nNYXQijQkWAs1oC2hNA2Z5TSh2c00fEGaNMT8ujTDZ5w0Y1z7NI2ELjWyxiA1AEAcNQ==",
                            "noiseTrainingType" : "default"
                          }
                        }
                    ],
                    "start" : 4589,
                    "duration" : 37,
                    "mediaStart" : 5549,
                    "mediaDuration" : 37,
                    "scalar" : 1,
                    "metadata" : {
                      "WinSubProjectDisplayName" : "",
                      "clipSpeedAttribute" : false
                    },
                    "animationTracks" : {

                    }
                  },
                  {
                    "id" : 380,
                    "_type" : "AMFile",
                    "src" : 15,
                    "trackNumber" : 0,
                    "attributes" : {
                      "ident" : "旁白_vis2021 1",
                      "sampleRate" : 44100,
                      "bitDepth" : 16,
                      "gain" : 1.0,
                      "mixToMono" : false
                    },
                      "channelNumber" : "0,1",
                    "effects" : [
                        {
                          "effectName" : "NoiseReduction",
                          "parameters" : {
                            "denoiserAmount" : 20.0,
                            "denoiserThreshold" : 0.0,
                            "noiseProfile" : "OWoAPH2pEz2x9Qw+d6HTPcva6j2sp089E2dtPD6vPDwfl1A8ScjwPJTr1Txy35g8LaEAPTpegDyh\r\n+807XKYVO6TEeztxHEg8k5enPOCDljxR1SA80RNNO5P/FTsAUsA78qcaO7cppTsc2vE7qgSrO6lQ\r\n2jukqvI7h92AO2yWGzx+tZU8JitaPFzIyTuXwYE7uY9XO8aQ0Dvqq2I88amYPMnb9DtB2j87KTBk\r\nOzy52zoRSDw7OCjBO9xi/DtxwE88KlbqO3j0qDtWJH47VJnsO9JoxDuANhs8tJ+AO6Qz9Tth+oI8\r\nbGt3O1T1Nzzjhew74A0cPJAvITwici89BseWPGFNtDxkw7o7MRvlOmld0jryf386QXGZOrHMrzuA\r\ngR46FrCVOsPpWDsY4v07HUbYO1nLPjsw9w47wr3FOrnZ+Drc3FY7lUkJO7DAJDv2mAY7Bol9O6Gv\r\nIjui8ek64NliOq5vmTrG/ZM6bCYbO5q5tzpF2YA69unhOXdvJDkMXx461iVVOpU6tTmIPdU5NZ4C\r\nOrLzrDlzv6053gyzOSasszlLTgc5O7atOcYrxzkKtYw6r9cjOpoinjlRRog6Q9QHOqLsbTo5k0E6\r\n9U47OqgHGzq2DIw6xrvIOkIITzrGgR86I/hwOsTOFzq0IQU6isQ5OkIP9DmC+Bw6hsx0OYy4pDnt\r\nMqk5f6afOfFKnDnqIvc5SsRQOpXvdDp8CiE703psOwEALztW+4A6r36ROtKuGDoo4s852RrZOQKM\r\nhDmkgtY4CBe5OXJ5jDnBcjY5RM9jObGZ+DmyHG05aluSOaagETnIyGM5Jt2dOdUxnTmBHwU6PPyu\r\nOQ2PETl6x7k5tcInOtV63TnmcCY6dHftOUWtBzoIt6w5qk+GOf1mbTk4DT454wsLOh2HAjoY+ZY5\r\nyr2VOQQurzmqnRg5LDMFOZLQUjkvV1Q5/g1+OSlxFzlITz85XmAkOdDG/DjiIfM4htxWOREUlTqh\r\nwcw5VnaGOWCBXjn90lA5cKzvOWPrqzkL/o45sEFOOTkyMDpUc5s51oo9ORByjjlGCco52p/tORKy\r\n8Tnit2E51lY0Ofo+ATq6o3Y5Z021OYTVGDlRAq45zuyhOeA4ZDk52eE5nw91ORI2OzlB2R85fgab\r\nOY8bMjkQ1TA5cCaFOXju/Dh2ghM59YD8OFHmfzmnKiQ58YpfOXsbtzlCtX45yEWKOLGkLDkayH45\r\nRUrSOSltyTgvk1U5NT2NOY45EjnfihY5JFlqOTokTjlSlV45Ir54OQ1W5jifjjI5bWS5OfA8NDkO\r\nXs44QhjgOLbnOjkr+iw5hK5/Ocz3Azl6HF45q6DlOIJb2DiR79I4esU3OWtGjDg4gBM5cVloOdzR\r\nDTlkchs5GGg7OVSTtziXOeg4XazEOCiMADmz6Tw5ueqOOVcmeTmS4Ms4nI0UOUTLnjhAXjc56pkE\r\nOdXdBznEOY85PIy4OMxI5zgkSxk5r6oQObvARTnCtUo4LoVEONjrVjnfUsw4msCWOCWAQjlc/y45\r\nJ4KtOCzJrjjGJZ84BKXjOIHj2jhi+yE5rqqOOdCIIzm9fIM56Oo3OUSjtzmiT/M4Wiv3OJw6ETmO\r\nS8w53FJpOdbu1DiJSZs4DaoFOWqKWDkkyvU4GPIdOchJLDmxKwA54MMWOVgzmjgl75M44OcEOVPH\r\n3Dhmzdw4X9sOOb2CyTguC7Y4VgEmOTaQxDjBUAQ5dAM9OarFHjmfj444qMgAOWZMDDmSlas4yUZQ\r\nOaDeMTmPogU5Wxe1OF0m3Dh6aDQ5tbkIObjoEzlqqg45EPLvOKyF+zhUmiE57MvFOPg/vDiW+Vo5\r\nmhyzOGFsBTldBEw4dL3pOOk/QDnXnJQ467sNONFyxDfGPDM3rTsZN+BixjZrWTk338GlNhf/FTe5\r\nNTk2RTSUNkMj3Taj0d02is2UNt0UDDYUXvI1aeXFNhijMjbAtYc2ikWgNuphZDY8D1I28gSnNv4k\r\nLTZRYDk2mtYGN70P5DaWBKc2RzXfNlQFKTeHIYk2IpjaNofVszbqlaM2PatTNiKTzDYjx6M2BMHZ\r\nNiXEdDbJOMs2FNCMNsnGRja2BpI2UsiGNvm1vzbR74Q2wLCoNnn3jDa4fK82VqGlNrSAsTYwh5o2\r\n00guNguj5DYiuZI2yg0BN6PItzbTY6w2VXFINoLcTDbWIk82WJ/cNvx6HDZGdqc2ta/1NVwQMDaG\r\n9VE24mqONlq9rDaNiSE2Lay+NpqbcTYGZ3Q2KPqfNicegDbQyZw27RAtNyQhVjazoMU2izz9Npf0\r\njzbhrAg2zKY4Njo2yjZ1hZE2WNZsNrbfvDZiyp42KRFjNr96jjbjaI02RTYRNmwjhzapnyI2B4XY\r\nNltT7jUOLSY20oDqNhJrxDaCZWw2Ct+VNg/LgjZZzMA2Ik1JNrzQuDZxy901azNqNvW2eDaUuVs2\r\ngu+KNta85ja8P/M1FmShNp/ipjb1OIE21Q/2Nr5JmzYXtZU2x6+qNk6LmTZnjYw2mIJGNul2Jjbc\r\nO3A2lquYNuovLTYtgfE1nUlUNgQzNzaIsDM2DIvUNjKBRja+0oY2ExJ5NgPdJzZaSLQ2EtYgN0Wc\r\nDDbIHow2IiiZNgZUVTa1JnM2v3wcNoN3YDYCtgE38JaENkzoaDb0JTc26/WJNoqw9jYFxFI29vNP\r\nNmdCvDZHFIU2xxObNr0sUTblHoc2JrM/NmrbFDYX93o2m4OpNgs6HDaFNl02Rb2TNpjkJjYAADk2\r\n/8chNn7/QTawezM30gsqNidJ8zWKfC02kBYuNmSnnTa80FY2mFN3NkYZWzY4aO41UHmKNkyZiDYh\r\nGC42h1Y6Np6cgzYSij81AnuaNnc6rzZUXG82vp9eNp4h/jWNsEY2k603NuKSjDbHWSo2RxYINlNS\r\nmTaAOlU2yvJmNkqftzZ5VEk26hV8NjWLezbKM9Y1ernFNWi/XDZaEHQ2dhvANhDaRjYMwy82EwC4\r\nNlCNVTbH4IU2Cx1LNk6XlDbcVNA2FB33NQHMjzY6eW02jpZONqrdMTa+lxk267lUNkhoNDZz+TQ3\r\nwulaNoXxEjYQdsQ2lXEcNsiYOjbfz9o2UzpENvQL0TSOQIM10f8gNcLzLzX5w2c1H4efNN2VyTQO\r\nn70011tKNT7aKTUG8/w0QEgiNUCRKjWhXKI03LYLNQzSrjUnb9E0iB65NCpfLzVs4tk0emppNQtw\r\n8zTy2+U0USoLNeRnDTU88Uc19BfdNFPdNDVtA7Q09QQJNdJhKTXqRNg0am3RNG251DQ1KrA0Oj/Y\r\nNOrxkjTQ8cI0+3eXNEYitDR9exs1YvMdNUBR5DR0pQE1EGj5NAq8KTXmxKs0ErgPNTXAAjVM71g1\r\n2McYNch2PjVA3vs0HZGgNJEIOTWY3M40B5RGNGfgUDUIWUw1AAKQNPuJvjRnt4w0M0qUNPpcxjR3\r\nCM0000dJNZjtnTSx6rQ09gISNSzUKjVHscM0TBtXNYWZEDWjpck07HS+NMuEnzTVZ0U1duMGNWCg\r\n6jTs3880YBEXNT+XujRa3bk0wUISNadMADU5AQ411F8ONePs/jS0pjA105FENQ/HnjQmcwg1WPKH\r\nNFq2nTSuOLI0S9MpNbyI/zTAPso0+sXPNPLB3DTur8o0PLbHNPmbnzT+MvY0YjqvNCUXJTXMJp80\r\nndUPNWmVEjXazkY1O5DgNMl4gzVmyAY1rYEfNXmSQTWIrhU1ikoVNSCqpDTaEbY0/AvpNLIwhDSh\r\nIww1MCwENb5Y/zSUBhw1UowYNbXtpzTvlg4155xcNZhCrDRWs9U0k616NIzznjRmnAQ1Khq/NEm9\r\nCTUki940fgEVNZA1JzWkzqg0RtjuNI+WjTW0QRg1omMcNXzDIDUDHKI0NVu3NMMpRDVCjIo0ViIs\r\nNfxAITWCVB81HXTcNB0NXDWG+bE03vcdNf6QMzXAn8s0Eg/NNATJsTQE9U01LMELNX7DoDSIEB41\r\nwLEGNUVbzTQ8Pwo1QFCINBFgFTVn0vo0JOCjNNaR8zQ1vx41DXUDNak+EjUNQYo08gC7NFzPoTSI\r\n7RU1kpUbNYXvKzWOx240VWf0NGRuBzU6PIo0wlCGNT7g9jSWZjw1Ml4BNRvl6jTQR3w1lmHdNGfd\r\nITTobvU0ypuvNEpF+jTjNY40JYO7NCfBbzQijsA0us84Na6J8TQIYwU1V3IrNSwmYTXQ1kU0zKTc\r\nNDTVfzTj6to0SbOuNHwCvTQ/eR01mcuPNPTduTRDjf806a+nNAj20DREKOo0nPlPNQTe+zQNWSo1\r\nlpGmNBv9xzT/tzk1CtkQNapg2jSMQlI1MDUTNRhOMjWh56Q0AygANa8srzRbOwQ187XxNOQlwDSQ\r\nNO80mTAVNaBD6TQbeoo0UM6FNHPMCjV4t7k0gIxkNE02BjXYBQo1AhAcNWJMijS64uA0zd0JNXWm\r\nEDWiijY1ZpSXNNpWpzTYT+k0QHbzNDaorzSGDHs0qT7ONBvuhzSyYys1dPYCNQdToDTk8uU0MwYH\r\nNWYw+TRbj4g1aJxzNHlxCDVIE8c0Nl2SNOyilTRoqUs1KtMvNbhJPjVmcCE12eGANQ1X8jSNKZo0\r\ndGHdNGrcDjXxZ0A0JhPPNJb14jSwx8o0morUNDmP2DTubH40SSbdNE1r7TRT3rk0EZGLNP35LjV1\r\n1640P7XhNLEsczQldYc02X7eNAZ67jSawbI0drgeNb6GtzSMN9U00j4cNQhrBzWSqgw14dAnNYUF\r\nnDTQSpg0P9OMNOHDLTULMsI0QH6VNI2nxDSl5Yc0WHyLNCaeLDXnc6Y0AaCFNBQP7TTJzR41kvoE\r\nNRykHjU6wZw0+cjVNJdR1TSiQQU10AuONaiUkzUExgY1MMYONaRkZTT9EAU11Bu0NC2j3jTIM4A0\r\nal8cNSoRTzXbrSk1FTDYNEBqkjTgDwA1sun9NP5ztDRWob80HSSSNGYkGDWnkuM0RaMANeGLITXo\r\nTow0GNvbNJlRuzSgsOY0CpP5NMVL9jRRErs0aS1TNVNWgDSmPp80Gvy3NBnwGDXWr7M0dB/VNIw8\r\n0DQBkZ410iF5NDXYLTVZSxU1T0S6NHIrqTRzbRA1XDWKNA2phjRVwpo0SPJ1NGzsODX8K6Y0ne6l\r\nNNU3JjWsl7M0wb+kNKhE5TQUaN8041HRNPhNtTRpfuQ09awXNcwLtDS6nqA0qbk4Nbg8qTQ3pSA0\r\nkRS8NLXO0DRqdcQ0b//eNLPvrDQGQu00fPstNS/HMTWPJMc0fIrENBIciDSLv/k00iuaNNjgPDWm\r\not00DFkCNfHQhDTO4qY0xTYDNbDSOTWNTjA1dLcPNZB1uzQDUrY08mkFNZaNRjXzzK00ErsDNVeQ\r\n3zS5HxA1pmTINLQDBTWIxP008Ny+NADrGDWeipI0eMHvM5R6CTWA3x01wRO2NE0PBDXZKrU0GFyV\r\nNOCJrzSgxtE0tQR+NKJP0zTmcMA0zgvvNFJN7TT5eA41x/eHNAie2jTBXoU1JbdYNQAAEDUAZAE8\r\nF6YTPaE6DT5EKNM9dQ3rPVEOUD0ioW480q89PCfdUDzbEfI8OKDUPGwsmDxHYgE9amiBPGR1zjsP\r\nPhU7a3x7OyhGRzygj6g8mBGWPCuBIDwy9E47Dr4TO1iRvDsOzBo7Kk6nOyjG8juQWao70ZvWOxbH\r\n8zuU8n07aPEbPGxKlzygoVs8TMfIO9+xhDsybFY7q+rTO/L8YTx2ZJg8LVf1O0mYPjuCWmQ7fLXf\r\nOt2APzt7zMI7O4D+Ox50Tzw8t+w7lE+pOzStezsIHeo7gHbGO/xxGTz7XIA7vAj1O108gzyol3g7\r\ntww5PFZa6zv7yxw8BjMgPKnvLj13cpY8hhS0PDysuTskGOc6fsrQOrACgDqdYpQ6nrawO0mtIzpq\r\niZQ6oWVXO4pL/Dsyi9U7isI/O5AADzuqPMM6Xcz3OuCjVjsJJAU70nAkO3xeCzuPI4E7G4YiO1p8\r\n7jrINmQ6RKiWOkNYjzquKxk7L5jEOkefiTpiBN05wkIqOcZGDTp6g046RrOpOQ6EwjmtPgQ6e2Gc\r\nOSSjpDlo8ZU55XS9ObmuBzlz4785N8m2OWCrjzo4vB06uHOTOSQohDrAdAk6ttpzOqV9QjpzGTY6\r\n3XEaOsgBjjqKt8k6HvZMOicoGjocq2w6ap4WOhHEADrfCzk63skBOgeJHDrUTnI5YkuiObHDpjmu\r\nSKM5/cCSOf1k+zmMGlI6inluOu+YIDu89m07RVI0O6+Kgzr+5446GKYWOsGMzDkpPtU5IguVOWYu\r\n0Thu2rs5wj2KOYr0Szln8mE5OIzqOdZKbDmJnpY5zvoYORbfcjmJJb45rPudOReeBTpaM7A5gOEv\r\nOfU4rjmBKBo6bN3fOQHYIDpCxO45IMMKOhDuqjnu5385nKuKOcsUJTnO6QY6IssJOqWwlTkE/nk5\r\n982pOYJKFzlMEgc5kM8qOTzQSjkjjFw5oLMhOb3XTTlwQiA5qwrfOFyxBDkkj0w5MGaVOpPkyzkA\r\nWYw5x/dWOdTGaDnThQM6cUq4OS/ykTn8pTU5cg8tOjmUnzmJETc5yAicOQHqsTm7VQY6AgbzOcxp\r\nYTnUlDk5COb3OVNucjnJjtA5lvYsOVSTlDlbCZA5jieCOevY/jld/5M5ZAsQOQCjIjmaXZk5X2sk\r\nOaKvQDn3w2A5sFLsOCInSDnjTPU4Pw52ORiOFTnxB085aOe5Oeymfzkdh5Q4b9kUOTcjiDlltOQ5\r\nW97hOK93TDk6TJo5GxUROfmZKDmqWVg5gnArOZiUUTljp2g5VN4COa51OjmCG6857I8hOQJUyDiy\r\nFeY4PzlIOQnaEjkNa105LJgJOedSTTmft9w4RFvhOEMPBjkBNUc5IxKaOKB0AzlHK0Y5uzfsOA7s\r\nCTnIO1A5K33WOKFk2jjp16849C8QOWZpPTn28K85JD91Ocr4pTiAdCY50TmeOH4OPTl/1vM4rUTC\r\nOKr9azkWMbo4F7ngOLhyVDn8tgw5pjZnOXrXVTgwxCo4OQx/OXmv4TiOkZs4EjRhOc/BKzm9HJg4\r\nmNmEOBptqTgOwN44isnuOMjHEDkVGqA5ZsgfOcwJgTn/qS85F5G9OSUi8Th4/wU58kwEOcGM0znk\r\nW1o5KBbSOPxmrjgoieg4mOJqOacY5jhwBhY5iXUjOeCfAjn89RI53mOTOE5nnDgXwQo59x/YOLsN\r\nvzisAgg5ZZXBONJSyTg4ChA5g0OvOOLhCzk2PkQ5yZUgOf1/lTgIavM4G5cEObRwszj5plM54Ngg\r\nOTpfCjmgXsE4/c7tOPbIHjng2QM52pkWOVEIBjnWdfE44lgEOVkCJTm3Js04paCwOJruaDnED7c4\r\nlngHOd1wSThLgdw4+MM6OWkNiTjQTig4ZOnTNxI6RTeeDew2cZ29Nv7NAjclhNM2iMnzNsyKczZM\r\nTqE2NwIANyN0CjdyN5Q2WgazNq/6RTZdvu82CgJ2NnBTbzZ2Y8g2nCmlNornMTbyM/U2XdYuNnYx\r\nDDZETwI3eL+nNkEyGTdWc042Yb0WNzGqlDaNeNI2vHqNNkA4sDYmdYE2+cmANhHYVzaKnIs2sgCG\r\nNgmRtTZMoZo22v10NnRMhzYJ96I2OKTLNuYomzb9GYQ2aZ4gNg34YTYuHZo2W3zKNg54fjYZjkw2\r\nf2wUN3Od0TYrN5w2qv+fNtmNlTawHlI20q1xNtWcgzbalsQ2aqh0NqiRqzZJr+Y1tKkfNvwthjbs\r\njso2aMOjNjtLWzaqzNg2QuVVNvmDcTZsOcU2ODthNmCKmjZkwsw2JO2RNrvV7zZ/j5g2X3SCNuWv\r\njDatdLA22aTFNuHopjZGQ1k280BwNm9ZdzZuF3o2uV16NukrgjZ0cmI2oP0yNtheUDbrCZM2IZD3\r\nNcjiiDbmV9M2x6S6NnU/pzZADwg2huV1NusKwzZOBTQ2+FGNNgbaCjZtFJo2oEWzNnsKijZWeO02\r\nGtuJNu8IdjY49Yg2Mr2ANg3ZzjZiM+s2PSKeNoMphDa/F582hoJcNt0QxjZWOKM2KJ8XNqxVQjbY\r\ngaI2GZ6aNs0bpTU+g5g2tEowNtIkZDYOlas2ZR1xNtIkgzZRo4A2kxo0Nq+R7DZCmS43Jnh6NgQS\r\nbDb4RYg2lNw9NuvPkzYiw3I2yo89NhID7TYcIIw26OkjNrMkKzbG26s2fgyyNkykhTarGu41ZVyZ\r\nNs59hja4/3g2DVwlNg8S/DWud6U2N9IvNgCXSjbgmnM2uSBPNn7iXza+E8Q2IrczNgAgGTbUpLw1\r\nmKpzNoJSGzdiAoM2ZpDFNfrlFDY4tAI2RI+mNgX6UTb+VoU2addaNhrNCTZZFHA2uMncNXzMSzbJ\r\nKYk2chpoNlUqsTVQL942eABrNmzNjTZ3X0o2gnWBNn72gTZLTEE2lwQzNgfuCjaKZ0A2Cn+pNqDa\r\nNzbbTXE2Jn7UNu4UKDZVMoQ2j46fNsCxMzbOjB026lnINRYmezYubI02j29ONiv6jzYkvQU24bo/\r\nNlRyPzacL0c24hOWNpYhiDbn4/U1XMKXNjdHgzYwUO01kmwQNsrkGjZWzx02IdkDNtNSCTdR2VE2\r\nthtfNuRpyzaptiM2tEQ0Nkz1XDaF2zA2q9VKNcwlKDW1Wt007vuJNFq4yzRjGzI175BhNbYW/jTC\r\n50I1fp2dNJ2JFzXcfBY1j6wVNck7ADXKUgk1IqzANOh0JjVVrrw0Msw2NZKFGTUaPUI1fBNaNcVN\r\nSTUON7Q0P4fQNFKuFzUxPlU1sICqNGd1ajTm2QI1i7CcNE6RhzRis6A0+Hg7Nbaz2zTd5O41Lo6Q\r\nNCC46jRqY4k02LwPNQsD+zQS2kY1DgsZNQCcHDWKMa00NY4gNbBtFDXqiRc1oiMKNXSGhzRgRxs1\r\nsvCONXglnTQaJsk0VZcVNTwSAjVbovE0HAgiNYYOkDWs+Bk1NoTxNOmQHzWwgbI0cTRKNEIM5zRm\r\n0Eo1Lt3NNDT7uTSlUH81fpTdNNbDuDR5QIA1bivBNDg8tDTqSAw1juzKNPjckTXYQus0QHrGNAe/\r\nzjT+Kxk1k1EENS6XETW7x+g0SgvDNLGCvzSIgvk0RU2fNNSwojQOc7k03IPMNCf6ETV8ef00kiUz\r\nNaCP5DSyjgI1NzurNDzYBDVnrxg1wWfANHpDdjTTMLM0SyeuNCZrpDTpSwg1kQXWNKnmtjTd4L00\r\nCjEvNe+3XjWZAko1Ym35NPTQoTRMXRI1/Kv1NNnw+TREn580ApgENQioMTUc6Qw1wGDtNMWVAjX6\r\nRmI1CN1MNL0nqzQdttc0yKQdNbOO9jSg9bU00Ta0NPpG8jRwfn81zM+VNG1DtzQjBjQ133YnNRiY\r\nzzSD58A0vVEGNeQz7TQc+8c0alDxNOYeqTRZjwM1A1X7NKFF9DRfJtM0Vc0BNUYGIjUIksE0MIwp\r\nNYA4xDQyT2E0+rrONBaUKjWcVbs0lgEXNQhoLjVqYfM0QkIHNXxZBjWjN9A04CoHNf4JgzRmC1I1\r\nHvk2NR48nDSMgG00Zf32NNotNDWhucs0OhP6NCbLvjSa08g0UXkUNWHkGjU2b7M0Jjf1NNWAHTX2\r\nAKk0D22rNDpwCjVAdSE1wIe3NKki1DQ7h1c0c56RNM+EHDWeNvs0MQ70NEBr+DSzItM00gbWNHQw\r\nKDULfMQ0x//kNPxv2TTQtDM1WH4UNV82NTXQGQs1zfzkNE4e5zQRzgg1/pbnNGCS0TTOFd40v6/x\r\nNAS1tjRCvqU0IwneNHHchzWWIeA0UM+4NK8f9TRyIZM0h7UINdtvGDWwIMU0f+g7NQZH3jSvXyg1\r\nQFDUNEfN1zTFaJE0vTVhNZhtEzVsOCo1lI2DNKvBcDU7hyA1G3lgNdKy/jT5BOE0W5yZNMVKxTQt\r\nffo0UfUYNfYY1jRmNic1cjOcNHhM3TQltw01y+wGNdUXAzWjaYQ1EAGsNAMnHTXG2Ok0b2sZNdaU\r\nnTTqTu80BYtpNRavBjXpXoY0gY8TNRz6MzTZ+bU0CwEyNeatmjTYpAw1XQ0NNS4fMDUD3N80w5kB\r\nNbZ+wDSHwM80LsdINflVQTXijxU12ckXNexXHTV3aAk1Y0gINRwPEzWrSkk1gEhcNcKckzRnQdM0\r\nylE8NZTlGjWZRXo1mYPiNKOIGDX9VSk1SDywNE/uAjVE05U0/LpeNYJ8uDT+TwI1K57TNKdFFTVQ\r\nmmw1bxHxNNasyjTwQdg0uDi0NKQl/jRwNLM0eBffNHVFvDRC6IA0QxjQNA8uczQLG6o0fGK7NO7j\r\nmzQBYqc0PLzWNLgI9DTcW6Q0a0AZNYg9STUbsVQ1+5sfNVyxoTRchak0ZlS/NIZF8DQC/LA0KHW2\r\nNAKVBzVhPRg1IxGrNNrwCDVtxBU1lnAcNYeauTTwp/s0RXHANLDJwzTVLtw0yWgLNdyaGTVZOe00\r\nJFcoNZ6B7TQG/MU0+DEUNQFt/DRtlSo14IBuNQxXyzRAZsw0OmxvNepc4TQsbOo0BX5pNeLZFjVa\r\nUP00/NC+NDfFxzSk/Jk0Xv9WNFcJFTUkCfs0nPhONWb3szQLn8U07ItQNLGo0DSMwQE17Z/PNNec\r\n0zRaof0076bINOo8GzXNlYU0hEQkNTyH5jT2YwU1rPNDNQ/OwzRUsuM0rNi/NPhc8DQKmUg1hNDu\r\nNFsmCjUDuzw1VasyNef7cjVSnrA0plT5NKXLhzSFNZ00Ed+nNCFdUDUWMQI1JJnbNNcqvjQMb+40\r\nMCZxNWBYzTTT7DQ1EXZRNffmaTV+3a80W4eUNHE8DjXgGu40gRDrNBPuqjTmEDY1ol3ONJbeJTVU\r\n2RE1pL7HNICD5TRWWw816jZdNU5+4zSdEBA1+UiKNPe7OzXoSB81ciQHNY2hujSihSE1Zmy4NC66\r\njjSDV6M0zDuqNH8orDToE6s0mAmlNNh/LDUtZTA1POHGNHfLdzTbIis17ZIdNZocBDVvRKE0QmwB\r\nNYXQijQkWAs1oC2hNA2Z5TSh2c00fEGaNMT8ujTDZ5w0Y1z7NI2ELjWyxiA1AEAcNQ==",
                            "noiseTrainingType" : "default"
                          }
                        }
                    ],
                    "start" : 4626,
                    "duration" : 72,
                    "mediaStart" : 5586,
                    "mediaDuration" : 72,
                    "scalar" : 1,
                    "metadata" : {
                      "WinSubProjectDisplayName" : "",
                      "clipSpeedAttribute" : false
                    },
                    "animationTracks" : {

                    }
                  },
                  {
                    "id" : 381,
                    "_type" : "AMFile",
                    "src" : 15,
                    "trackNumber" : 0,
                    "attributes" : {
                      "ident" : "旁白_vis2021 1",
                      "sampleRate" : 44100,
                      "bitDepth" : 16,
                      "gain" : 1.0,
                      "mixToMono" : false
                    },
                      "channelNumber" : "0,1",
                    "effects" : [
                        {
                          "effectName" : "NoiseReduction",
                          "parameters" : {
                            "denoiserAmount" : 20.0,
                            "denoiserThreshold" : 0.0,
                            "noiseProfile" : "OWoAPH2pEz2x9Qw+d6HTPcva6j2sp089E2dtPD6vPDwfl1A8ScjwPJTr1Txy35g8LaEAPTpegDyh\r\n+807XKYVO6TEeztxHEg8k5enPOCDljxR1SA80RNNO5P/FTsAUsA78qcaO7cppTsc2vE7qgSrO6lQ\r\n2jukqvI7h92AO2yWGzx+tZU8JitaPFzIyTuXwYE7uY9XO8aQ0Dvqq2I88amYPMnb9DtB2j87KTBk\r\nOzy52zoRSDw7OCjBO9xi/DtxwE88KlbqO3j0qDtWJH47VJnsO9JoxDuANhs8tJ+AO6Qz9Tth+oI8\r\nbGt3O1T1Nzzjhew74A0cPJAvITwici89BseWPGFNtDxkw7o7MRvlOmld0jryf386QXGZOrHMrzuA\r\ngR46FrCVOsPpWDsY4v07HUbYO1nLPjsw9w47wr3FOrnZ+Drc3FY7lUkJO7DAJDv2mAY7Bol9O6Gv\r\nIjui8ek64NliOq5vmTrG/ZM6bCYbO5q5tzpF2YA69unhOXdvJDkMXx461iVVOpU6tTmIPdU5NZ4C\r\nOrLzrDlzv6053gyzOSasszlLTgc5O7atOcYrxzkKtYw6r9cjOpoinjlRRog6Q9QHOqLsbTo5k0E6\r\n9U47OqgHGzq2DIw6xrvIOkIITzrGgR86I/hwOsTOFzq0IQU6isQ5OkIP9DmC+Bw6hsx0OYy4pDnt\r\nMqk5f6afOfFKnDnqIvc5SsRQOpXvdDp8CiE703psOwEALztW+4A6r36ROtKuGDoo4s852RrZOQKM\r\nhDmkgtY4CBe5OXJ5jDnBcjY5RM9jObGZ+DmyHG05aluSOaagETnIyGM5Jt2dOdUxnTmBHwU6PPyu\r\nOQ2PETl6x7k5tcInOtV63TnmcCY6dHftOUWtBzoIt6w5qk+GOf1mbTk4DT454wsLOh2HAjoY+ZY5\r\nyr2VOQQurzmqnRg5LDMFOZLQUjkvV1Q5/g1+OSlxFzlITz85XmAkOdDG/DjiIfM4htxWOREUlTqh\r\nwcw5VnaGOWCBXjn90lA5cKzvOWPrqzkL/o45sEFOOTkyMDpUc5s51oo9ORByjjlGCco52p/tORKy\r\n8Tnit2E51lY0Ofo+ATq6o3Y5Z021OYTVGDlRAq45zuyhOeA4ZDk52eE5nw91ORI2OzlB2R85fgab\r\nOY8bMjkQ1TA5cCaFOXju/Dh2ghM59YD8OFHmfzmnKiQ58YpfOXsbtzlCtX45yEWKOLGkLDkayH45\r\nRUrSOSltyTgvk1U5NT2NOY45EjnfihY5JFlqOTokTjlSlV45Ir54OQ1W5jifjjI5bWS5OfA8NDkO\r\nXs44QhjgOLbnOjkr+iw5hK5/Ocz3Azl6HF45q6DlOIJb2DiR79I4esU3OWtGjDg4gBM5cVloOdzR\r\nDTlkchs5GGg7OVSTtziXOeg4XazEOCiMADmz6Tw5ueqOOVcmeTmS4Ms4nI0UOUTLnjhAXjc56pkE\r\nOdXdBznEOY85PIy4OMxI5zgkSxk5r6oQObvARTnCtUo4LoVEONjrVjnfUsw4msCWOCWAQjlc/y45\r\nJ4KtOCzJrjjGJZ84BKXjOIHj2jhi+yE5rqqOOdCIIzm9fIM56Oo3OUSjtzmiT/M4Wiv3OJw6ETmO\r\nS8w53FJpOdbu1DiJSZs4DaoFOWqKWDkkyvU4GPIdOchJLDmxKwA54MMWOVgzmjgl75M44OcEOVPH\r\n3Dhmzdw4X9sOOb2CyTguC7Y4VgEmOTaQxDjBUAQ5dAM9OarFHjmfj444qMgAOWZMDDmSlas4yUZQ\r\nOaDeMTmPogU5Wxe1OF0m3Dh6aDQ5tbkIObjoEzlqqg45EPLvOKyF+zhUmiE57MvFOPg/vDiW+Vo5\r\nmhyzOGFsBTldBEw4dL3pOOk/QDnXnJQ467sNONFyxDfGPDM3rTsZN+BixjZrWTk338GlNhf/FTe5\r\nNTk2RTSUNkMj3Taj0d02is2UNt0UDDYUXvI1aeXFNhijMjbAtYc2ikWgNuphZDY8D1I28gSnNv4k\r\nLTZRYDk2mtYGN70P5DaWBKc2RzXfNlQFKTeHIYk2IpjaNofVszbqlaM2PatTNiKTzDYjx6M2BMHZ\r\nNiXEdDbJOMs2FNCMNsnGRja2BpI2UsiGNvm1vzbR74Q2wLCoNnn3jDa4fK82VqGlNrSAsTYwh5o2\r\n00guNguj5DYiuZI2yg0BN6PItzbTY6w2VXFINoLcTDbWIk82WJ/cNvx6HDZGdqc2ta/1NVwQMDaG\r\n9VE24mqONlq9rDaNiSE2Lay+NpqbcTYGZ3Q2KPqfNicegDbQyZw27RAtNyQhVjazoMU2izz9Npf0\r\njzbhrAg2zKY4Njo2yjZ1hZE2WNZsNrbfvDZiyp42KRFjNr96jjbjaI02RTYRNmwjhzapnyI2B4XY\r\nNltT7jUOLSY20oDqNhJrxDaCZWw2Ct+VNg/LgjZZzMA2Ik1JNrzQuDZxy901azNqNvW2eDaUuVs2\r\ngu+KNta85ja8P/M1FmShNp/ipjb1OIE21Q/2Nr5JmzYXtZU2x6+qNk6LmTZnjYw2mIJGNul2Jjbc\r\nO3A2lquYNuovLTYtgfE1nUlUNgQzNzaIsDM2DIvUNjKBRja+0oY2ExJ5NgPdJzZaSLQ2EtYgN0Wc\r\nDDbIHow2IiiZNgZUVTa1JnM2v3wcNoN3YDYCtgE38JaENkzoaDb0JTc26/WJNoqw9jYFxFI29vNP\r\nNmdCvDZHFIU2xxObNr0sUTblHoc2JrM/NmrbFDYX93o2m4OpNgs6HDaFNl02Rb2TNpjkJjYAADk2\r\n/8chNn7/QTawezM30gsqNidJ8zWKfC02kBYuNmSnnTa80FY2mFN3NkYZWzY4aO41UHmKNkyZiDYh\r\nGC42h1Y6Np6cgzYSij81AnuaNnc6rzZUXG82vp9eNp4h/jWNsEY2k603NuKSjDbHWSo2RxYINlNS\r\nmTaAOlU2yvJmNkqftzZ5VEk26hV8NjWLezbKM9Y1ernFNWi/XDZaEHQ2dhvANhDaRjYMwy82EwC4\r\nNlCNVTbH4IU2Cx1LNk6XlDbcVNA2FB33NQHMjzY6eW02jpZONqrdMTa+lxk267lUNkhoNDZz+TQ3\r\nwulaNoXxEjYQdsQ2lXEcNsiYOjbfz9o2UzpENvQL0TSOQIM10f8gNcLzLzX5w2c1H4efNN2VyTQO\r\nn70011tKNT7aKTUG8/w0QEgiNUCRKjWhXKI03LYLNQzSrjUnb9E0iB65NCpfLzVs4tk0emppNQtw\r\n8zTy2+U0USoLNeRnDTU88Uc19BfdNFPdNDVtA7Q09QQJNdJhKTXqRNg0am3RNG251DQ1KrA0Oj/Y\r\nNOrxkjTQ8cI0+3eXNEYitDR9exs1YvMdNUBR5DR0pQE1EGj5NAq8KTXmxKs0ErgPNTXAAjVM71g1\r\n2McYNch2PjVA3vs0HZGgNJEIOTWY3M40B5RGNGfgUDUIWUw1AAKQNPuJvjRnt4w0M0qUNPpcxjR3\r\nCM0000dJNZjtnTSx6rQ09gISNSzUKjVHscM0TBtXNYWZEDWjpck07HS+NMuEnzTVZ0U1duMGNWCg\r\n6jTs3880YBEXNT+XujRa3bk0wUISNadMADU5AQ411F8ONePs/jS0pjA105FENQ/HnjQmcwg1WPKH\r\nNFq2nTSuOLI0S9MpNbyI/zTAPso0+sXPNPLB3DTur8o0PLbHNPmbnzT+MvY0YjqvNCUXJTXMJp80\r\nndUPNWmVEjXazkY1O5DgNMl4gzVmyAY1rYEfNXmSQTWIrhU1ikoVNSCqpDTaEbY0/AvpNLIwhDSh\r\nIww1MCwENb5Y/zSUBhw1UowYNbXtpzTvlg4155xcNZhCrDRWs9U0k616NIzznjRmnAQ1Khq/NEm9\r\nCTUki940fgEVNZA1JzWkzqg0RtjuNI+WjTW0QRg1omMcNXzDIDUDHKI0NVu3NMMpRDVCjIo0ViIs\r\nNfxAITWCVB81HXTcNB0NXDWG+bE03vcdNf6QMzXAn8s0Eg/NNATJsTQE9U01LMELNX7DoDSIEB41\r\nwLEGNUVbzTQ8Pwo1QFCINBFgFTVn0vo0JOCjNNaR8zQ1vx41DXUDNak+EjUNQYo08gC7NFzPoTSI\r\n7RU1kpUbNYXvKzWOx240VWf0NGRuBzU6PIo0wlCGNT7g9jSWZjw1Ml4BNRvl6jTQR3w1lmHdNGfd\r\nITTobvU0ypuvNEpF+jTjNY40JYO7NCfBbzQijsA0us84Na6J8TQIYwU1V3IrNSwmYTXQ1kU0zKTc\r\nNDTVfzTj6to0SbOuNHwCvTQ/eR01mcuPNPTduTRDjf806a+nNAj20DREKOo0nPlPNQTe+zQNWSo1\r\nlpGmNBv9xzT/tzk1CtkQNapg2jSMQlI1MDUTNRhOMjWh56Q0AygANa8srzRbOwQ187XxNOQlwDSQ\r\nNO80mTAVNaBD6TQbeoo0UM6FNHPMCjV4t7k0gIxkNE02BjXYBQo1AhAcNWJMijS64uA0zd0JNXWm\r\nEDWiijY1ZpSXNNpWpzTYT+k0QHbzNDaorzSGDHs0qT7ONBvuhzSyYys1dPYCNQdToDTk8uU0MwYH\r\nNWYw+TRbj4g1aJxzNHlxCDVIE8c0Nl2SNOyilTRoqUs1KtMvNbhJPjVmcCE12eGANQ1X8jSNKZo0\r\ndGHdNGrcDjXxZ0A0JhPPNJb14jSwx8o0morUNDmP2DTubH40SSbdNE1r7TRT3rk0EZGLNP35LjV1\r\n1640P7XhNLEsczQldYc02X7eNAZ67jSawbI0drgeNb6GtzSMN9U00j4cNQhrBzWSqgw14dAnNYUF\r\nnDTQSpg0P9OMNOHDLTULMsI0QH6VNI2nxDSl5Yc0WHyLNCaeLDXnc6Y0AaCFNBQP7TTJzR41kvoE\r\nNRykHjU6wZw0+cjVNJdR1TSiQQU10AuONaiUkzUExgY1MMYONaRkZTT9EAU11Bu0NC2j3jTIM4A0\r\nal8cNSoRTzXbrSk1FTDYNEBqkjTgDwA1sun9NP5ztDRWob80HSSSNGYkGDWnkuM0RaMANeGLITXo\r\nTow0GNvbNJlRuzSgsOY0CpP5NMVL9jRRErs0aS1TNVNWgDSmPp80Gvy3NBnwGDXWr7M0dB/VNIw8\r\n0DQBkZ410iF5NDXYLTVZSxU1T0S6NHIrqTRzbRA1XDWKNA2phjRVwpo0SPJ1NGzsODX8K6Y0ne6l\r\nNNU3JjWsl7M0wb+kNKhE5TQUaN8041HRNPhNtTRpfuQ09awXNcwLtDS6nqA0qbk4Nbg8qTQ3pSA0\r\nkRS8NLXO0DRqdcQ0b//eNLPvrDQGQu00fPstNS/HMTWPJMc0fIrENBIciDSLv/k00iuaNNjgPDWm\r\not00DFkCNfHQhDTO4qY0xTYDNbDSOTWNTjA1dLcPNZB1uzQDUrY08mkFNZaNRjXzzK00ErsDNVeQ\r\n3zS5HxA1pmTINLQDBTWIxP008Ny+NADrGDWeipI0eMHvM5R6CTWA3x01wRO2NE0PBDXZKrU0GFyV\r\nNOCJrzSgxtE0tQR+NKJP0zTmcMA0zgvvNFJN7TT5eA41x/eHNAie2jTBXoU1JbdYNQAAEDUAZAE8\r\nF6YTPaE6DT5EKNM9dQ3rPVEOUD0ioW480q89PCfdUDzbEfI8OKDUPGwsmDxHYgE9amiBPGR1zjsP\r\nPhU7a3x7OyhGRzygj6g8mBGWPCuBIDwy9E47Dr4TO1iRvDsOzBo7Kk6nOyjG8juQWao70ZvWOxbH\r\n8zuU8n07aPEbPGxKlzygoVs8TMfIO9+xhDsybFY7q+rTO/L8YTx2ZJg8LVf1O0mYPjuCWmQ7fLXf\r\nOt2APzt7zMI7O4D+Ox50Tzw8t+w7lE+pOzStezsIHeo7gHbGO/xxGTz7XIA7vAj1O108gzyol3g7\r\ntww5PFZa6zv7yxw8BjMgPKnvLj13cpY8hhS0PDysuTskGOc6fsrQOrACgDqdYpQ6nrawO0mtIzpq\r\niZQ6oWVXO4pL/Dsyi9U7isI/O5AADzuqPMM6Xcz3OuCjVjsJJAU70nAkO3xeCzuPI4E7G4YiO1p8\r\n7jrINmQ6RKiWOkNYjzquKxk7L5jEOkefiTpiBN05wkIqOcZGDTp6g046RrOpOQ6EwjmtPgQ6e2Gc\r\nOSSjpDlo8ZU55XS9ObmuBzlz4785N8m2OWCrjzo4vB06uHOTOSQohDrAdAk6ttpzOqV9QjpzGTY6\r\n3XEaOsgBjjqKt8k6HvZMOicoGjocq2w6ap4WOhHEADrfCzk63skBOgeJHDrUTnI5YkuiObHDpjmu\r\nSKM5/cCSOf1k+zmMGlI6inluOu+YIDu89m07RVI0O6+Kgzr+5446GKYWOsGMzDkpPtU5IguVOWYu\r\n0Thu2rs5wj2KOYr0Szln8mE5OIzqOdZKbDmJnpY5zvoYORbfcjmJJb45rPudOReeBTpaM7A5gOEv\r\nOfU4rjmBKBo6bN3fOQHYIDpCxO45IMMKOhDuqjnu5385nKuKOcsUJTnO6QY6IssJOqWwlTkE/nk5\r\n982pOYJKFzlMEgc5kM8qOTzQSjkjjFw5oLMhOb3XTTlwQiA5qwrfOFyxBDkkj0w5MGaVOpPkyzkA\r\nWYw5x/dWOdTGaDnThQM6cUq4OS/ykTn8pTU5cg8tOjmUnzmJETc5yAicOQHqsTm7VQY6AgbzOcxp\r\nYTnUlDk5COb3OVNucjnJjtA5lvYsOVSTlDlbCZA5jieCOevY/jld/5M5ZAsQOQCjIjmaXZk5X2sk\r\nOaKvQDn3w2A5sFLsOCInSDnjTPU4Pw52ORiOFTnxB085aOe5Oeymfzkdh5Q4b9kUOTcjiDlltOQ5\r\nW97hOK93TDk6TJo5GxUROfmZKDmqWVg5gnArOZiUUTljp2g5VN4COa51OjmCG6857I8hOQJUyDiy\r\nFeY4PzlIOQnaEjkNa105LJgJOedSTTmft9w4RFvhOEMPBjkBNUc5IxKaOKB0AzlHK0Y5uzfsOA7s\r\nCTnIO1A5K33WOKFk2jjp16849C8QOWZpPTn28K85JD91Ocr4pTiAdCY50TmeOH4OPTl/1vM4rUTC\r\nOKr9azkWMbo4F7ngOLhyVDn8tgw5pjZnOXrXVTgwxCo4OQx/OXmv4TiOkZs4EjRhOc/BKzm9HJg4\r\nmNmEOBptqTgOwN44isnuOMjHEDkVGqA5ZsgfOcwJgTn/qS85F5G9OSUi8Th4/wU58kwEOcGM0znk\r\nW1o5KBbSOPxmrjgoieg4mOJqOacY5jhwBhY5iXUjOeCfAjn89RI53mOTOE5nnDgXwQo59x/YOLsN\r\nvzisAgg5ZZXBONJSyTg4ChA5g0OvOOLhCzk2PkQ5yZUgOf1/lTgIavM4G5cEObRwszj5plM54Ngg\r\nOTpfCjmgXsE4/c7tOPbIHjng2QM52pkWOVEIBjnWdfE44lgEOVkCJTm3Js04paCwOJruaDnED7c4\r\nlngHOd1wSThLgdw4+MM6OWkNiTjQTig4ZOnTNxI6RTeeDew2cZ29Nv7NAjclhNM2iMnzNsyKczZM\r\nTqE2NwIANyN0CjdyN5Q2WgazNq/6RTZdvu82CgJ2NnBTbzZ2Y8g2nCmlNornMTbyM/U2XdYuNnYx\r\nDDZETwI3eL+nNkEyGTdWc042Yb0WNzGqlDaNeNI2vHqNNkA4sDYmdYE2+cmANhHYVzaKnIs2sgCG\r\nNgmRtTZMoZo22v10NnRMhzYJ96I2OKTLNuYomzb9GYQ2aZ4gNg34YTYuHZo2W3zKNg54fjYZjkw2\r\nf2wUN3Od0TYrN5w2qv+fNtmNlTawHlI20q1xNtWcgzbalsQ2aqh0NqiRqzZJr+Y1tKkfNvwthjbs\r\njso2aMOjNjtLWzaqzNg2QuVVNvmDcTZsOcU2ODthNmCKmjZkwsw2JO2RNrvV7zZ/j5g2X3SCNuWv\r\njDatdLA22aTFNuHopjZGQ1k280BwNm9ZdzZuF3o2uV16NukrgjZ0cmI2oP0yNtheUDbrCZM2IZD3\r\nNcjiiDbmV9M2x6S6NnU/pzZADwg2huV1NusKwzZOBTQ2+FGNNgbaCjZtFJo2oEWzNnsKijZWeO02\r\nGtuJNu8IdjY49Yg2Mr2ANg3ZzjZiM+s2PSKeNoMphDa/F582hoJcNt0QxjZWOKM2KJ8XNqxVQjbY\r\ngaI2GZ6aNs0bpTU+g5g2tEowNtIkZDYOlas2ZR1xNtIkgzZRo4A2kxo0Nq+R7DZCmS43Jnh6NgQS\r\nbDb4RYg2lNw9NuvPkzYiw3I2yo89NhID7TYcIIw26OkjNrMkKzbG26s2fgyyNkykhTarGu41ZVyZ\r\nNs59hja4/3g2DVwlNg8S/DWud6U2N9IvNgCXSjbgmnM2uSBPNn7iXza+E8Q2IrczNgAgGTbUpLw1\r\nmKpzNoJSGzdiAoM2ZpDFNfrlFDY4tAI2RI+mNgX6UTb+VoU2addaNhrNCTZZFHA2uMncNXzMSzbJ\r\nKYk2chpoNlUqsTVQL942eABrNmzNjTZ3X0o2gnWBNn72gTZLTEE2lwQzNgfuCjaKZ0A2Cn+pNqDa\r\nNzbbTXE2Jn7UNu4UKDZVMoQ2j46fNsCxMzbOjB026lnINRYmezYubI02j29ONiv6jzYkvQU24bo/\r\nNlRyPzacL0c24hOWNpYhiDbn4/U1XMKXNjdHgzYwUO01kmwQNsrkGjZWzx02IdkDNtNSCTdR2VE2\r\nthtfNuRpyzaptiM2tEQ0Nkz1XDaF2zA2q9VKNcwlKDW1Wt007vuJNFq4yzRjGzI175BhNbYW/jTC\r\n50I1fp2dNJ2JFzXcfBY1j6wVNck7ADXKUgk1IqzANOh0JjVVrrw0Msw2NZKFGTUaPUI1fBNaNcVN\r\nSTUON7Q0P4fQNFKuFzUxPlU1sICqNGd1ajTm2QI1i7CcNE6RhzRis6A0+Hg7Nbaz2zTd5O41Lo6Q\r\nNCC46jRqY4k02LwPNQsD+zQS2kY1DgsZNQCcHDWKMa00NY4gNbBtFDXqiRc1oiMKNXSGhzRgRxs1\r\nsvCONXglnTQaJsk0VZcVNTwSAjVbovE0HAgiNYYOkDWs+Bk1NoTxNOmQHzWwgbI0cTRKNEIM5zRm\r\n0Eo1Lt3NNDT7uTSlUH81fpTdNNbDuDR5QIA1bivBNDg8tDTqSAw1juzKNPjckTXYQus0QHrGNAe/\r\nzjT+Kxk1k1EENS6XETW7x+g0SgvDNLGCvzSIgvk0RU2fNNSwojQOc7k03IPMNCf6ETV8ef00kiUz\r\nNaCP5DSyjgI1NzurNDzYBDVnrxg1wWfANHpDdjTTMLM0SyeuNCZrpDTpSwg1kQXWNKnmtjTd4L00\r\nCjEvNe+3XjWZAko1Ym35NPTQoTRMXRI1/Kv1NNnw+TREn580ApgENQioMTUc6Qw1wGDtNMWVAjX6\r\nRmI1CN1MNL0nqzQdttc0yKQdNbOO9jSg9bU00Ta0NPpG8jRwfn81zM+VNG1DtzQjBjQ133YnNRiY\r\nzzSD58A0vVEGNeQz7TQc+8c0alDxNOYeqTRZjwM1A1X7NKFF9DRfJtM0Vc0BNUYGIjUIksE0MIwp\r\nNYA4xDQyT2E0+rrONBaUKjWcVbs0lgEXNQhoLjVqYfM0QkIHNXxZBjWjN9A04CoHNf4JgzRmC1I1\r\nHvk2NR48nDSMgG00Zf32NNotNDWhucs0OhP6NCbLvjSa08g0UXkUNWHkGjU2b7M0Jjf1NNWAHTX2\r\nAKk0D22rNDpwCjVAdSE1wIe3NKki1DQ7h1c0c56RNM+EHDWeNvs0MQ70NEBr+DSzItM00gbWNHQw\r\nKDULfMQ0x//kNPxv2TTQtDM1WH4UNV82NTXQGQs1zfzkNE4e5zQRzgg1/pbnNGCS0TTOFd40v6/x\r\nNAS1tjRCvqU0IwneNHHchzWWIeA0UM+4NK8f9TRyIZM0h7UINdtvGDWwIMU0f+g7NQZH3jSvXyg1\r\nQFDUNEfN1zTFaJE0vTVhNZhtEzVsOCo1lI2DNKvBcDU7hyA1G3lgNdKy/jT5BOE0W5yZNMVKxTQt\r\nffo0UfUYNfYY1jRmNic1cjOcNHhM3TQltw01y+wGNdUXAzWjaYQ1EAGsNAMnHTXG2Ok0b2sZNdaU\r\nnTTqTu80BYtpNRavBjXpXoY0gY8TNRz6MzTZ+bU0CwEyNeatmjTYpAw1XQ0NNS4fMDUD3N80w5kB\r\nNbZ+wDSHwM80LsdINflVQTXijxU12ckXNexXHTV3aAk1Y0gINRwPEzWrSkk1gEhcNcKckzRnQdM0\r\nylE8NZTlGjWZRXo1mYPiNKOIGDX9VSk1SDywNE/uAjVE05U0/LpeNYJ8uDT+TwI1K57TNKdFFTVQ\r\nmmw1bxHxNNasyjTwQdg0uDi0NKQl/jRwNLM0eBffNHVFvDRC6IA0QxjQNA8uczQLG6o0fGK7NO7j\r\nmzQBYqc0PLzWNLgI9DTcW6Q0a0AZNYg9STUbsVQ1+5sfNVyxoTRchak0ZlS/NIZF8DQC/LA0KHW2\r\nNAKVBzVhPRg1IxGrNNrwCDVtxBU1lnAcNYeauTTwp/s0RXHANLDJwzTVLtw0yWgLNdyaGTVZOe00\r\nJFcoNZ6B7TQG/MU0+DEUNQFt/DRtlSo14IBuNQxXyzRAZsw0OmxvNepc4TQsbOo0BX5pNeLZFjVa\r\nUP00/NC+NDfFxzSk/Jk0Xv9WNFcJFTUkCfs0nPhONWb3szQLn8U07ItQNLGo0DSMwQE17Z/PNNec\r\n0zRaof0076bINOo8GzXNlYU0hEQkNTyH5jT2YwU1rPNDNQ/OwzRUsuM0rNi/NPhc8DQKmUg1hNDu\r\nNFsmCjUDuzw1VasyNef7cjVSnrA0plT5NKXLhzSFNZ00Ed+nNCFdUDUWMQI1JJnbNNcqvjQMb+40\r\nMCZxNWBYzTTT7DQ1EXZRNffmaTV+3a80W4eUNHE8DjXgGu40gRDrNBPuqjTmEDY1ol3ONJbeJTVU\r\n2RE1pL7HNICD5TRWWw816jZdNU5+4zSdEBA1+UiKNPe7OzXoSB81ciQHNY2hujSihSE1Zmy4NC66\r\njjSDV6M0zDuqNH8orDToE6s0mAmlNNh/LDUtZTA1POHGNHfLdzTbIis17ZIdNZocBDVvRKE0QmwB\r\nNYXQijQkWAs1oC2hNA2Z5TSh2c00fEGaNMT8ujTDZ5w0Y1z7NI2ELjWyxiA1AEAcNQ==",
                            "noiseTrainingType" : "default"
                          }
                        }
                    ],
                    "start" : 4995,
                    "duration" : 61,
                    "mediaStart" : 5658,
                    "mediaDuration" : 61,
                    "scalar" : 1,
                    "metadata" : {
                      "WinSubProjectDisplayName" : "",
                      "clipSpeedAttribute" : false
                    },
                    "animationTracks" : {

                    }
                  },
                  {
                    "id" : 382,
                    "_type" : "AMFile",
                    "src" : 15,
                    "trackNumber" : 0,
                    "attributes" : {
                      "ident" : "旁白_vis2021 1",
                      "sampleRate" : 44100,
                      "bitDepth" : 16,
                      "gain" : 1.0,
                      "mixToMono" : false
                    },
                      "channelNumber" : "0,1",
                    "effects" : [
                        {
                          "effectName" : "NoiseReduction",
                          "parameters" : {
                            "denoiserAmount" : 20.0,
                            "denoiserThreshold" : 0.0,
                            "noiseProfile" : "OWoAPH2pEz2x9Qw+d6HTPcva6j2sp089E2dtPD6vPDwfl1A8ScjwPJTr1Txy35g8LaEAPTpegDyh\r\n+807XKYVO6TEeztxHEg8k5enPOCDljxR1SA80RNNO5P/FTsAUsA78qcaO7cppTsc2vE7qgSrO6lQ\r\n2jukqvI7h92AO2yWGzx+tZU8JitaPFzIyTuXwYE7uY9XO8aQ0Dvqq2I88amYPMnb9DtB2j87KTBk\r\nOzy52zoRSDw7OCjBO9xi/DtxwE88KlbqO3j0qDtWJH47VJnsO9JoxDuANhs8tJ+AO6Qz9Tth+oI8\r\nbGt3O1T1Nzzjhew74A0cPJAvITwici89BseWPGFNtDxkw7o7MRvlOmld0jryf386QXGZOrHMrzuA\r\ngR46FrCVOsPpWDsY4v07HUbYO1nLPjsw9w47wr3FOrnZ+Drc3FY7lUkJO7DAJDv2mAY7Bol9O6Gv\r\nIjui8ek64NliOq5vmTrG/ZM6bCYbO5q5tzpF2YA69unhOXdvJDkMXx461iVVOpU6tTmIPdU5NZ4C\r\nOrLzrDlzv6053gyzOSasszlLTgc5O7atOcYrxzkKtYw6r9cjOpoinjlRRog6Q9QHOqLsbTo5k0E6\r\n9U47OqgHGzq2DIw6xrvIOkIITzrGgR86I/hwOsTOFzq0IQU6isQ5OkIP9DmC+Bw6hsx0OYy4pDnt\r\nMqk5f6afOfFKnDnqIvc5SsRQOpXvdDp8CiE703psOwEALztW+4A6r36ROtKuGDoo4s852RrZOQKM\r\nhDmkgtY4CBe5OXJ5jDnBcjY5RM9jObGZ+DmyHG05aluSOaagETnIyGM5Jt2dOdUxnTmBHwU6PPyu\r\nOQ2PETl6x7k5tcInOtV63TnmcCY6dHftOUWtBzoIt6w5qk+GOf1mbTk4DT454wsLOh2HAjoY+ZY5\r\nyr2VOQQurzmqnRg5LDMFOZLQUjkvV1Q5/g1+OSlxFzlITz85XmAkOdDG/DjiIfM4htxWOREUlTqh\r\nwcw5VnaGOWCBXjn90lA5cKzvOWPrqzkL/o45sEFOOTkyMDpUc5s51oo9ORByjjlGCco52p/tORKy\r\n8Tnit2E51lY0Ofo+ATq6o3Y5Z021OYTVGDlRAq45zuyhOeA4ZDk52eE5nw91ORI2OzlB2R85fgab\r\nOY8bMjkQ1TA5cCaFOXju/Dh2ghM59YD8OFHmfzmnKiQ58YpfOXsbtzlCtX45yEWKOLGkLDkayH45\r\nRUrSOSltyTgvk1U5NT2NOY45EjnfihY5JFlqOTokTjlSlV45Ir54OQ1W5jifjjI5bWS5OfA8NDkO\r\nXs44QhjgOLbnOjkr+iw5hK5/Ocz3Azl6HF45q6DlOIJb2DiR79I4esU3OWtGjDg4gBM5cVloOdzR\r\nDTlkchs5GGg7OVSTtziXOeg4XazEOCiMADmz6Tw5ueqOOVcmeTmS4Ms4nI0UOUTLnjhAXjc56pkE\r\nOdXdBznEOY85PIy4OMxI5zgkSxk5r6oQObvARTnCtUo4LoVEONjrVjnfUsw4msCWOCWAQjlc/y45\r\nJ4KtOCzJrjjGJZ84BKXjOIHj2jhi+yE5rqqOOdCIIzm9fIM56Oo3OUSjtzmiT/M4Wiv3OJw6ETmO\r\nS8w53FJpOdbu1DiJSZs4DaoFOWqKWDkkyvU4GPIdOchJLDmxKwA54MMWOVgzmjgl75M44OcEOVPH\r\n3Dhmzdw4X9sOOb2CyTguC7Y4VgEmOTaQxDjBUAQ5dAM9OarFHjmfj444qMgAOWZMDDmSlas4yUZQ\r\nOaDeMTmPogU5Wxe1OF0m3Dh6aDQ5tbkIObjoEzlqqg45EPLvOKyF+zhUmiE57MvFOPg/vDiW+Vo5\r\nmhyzOGFsBTldBEw4dL3pOOk/QDnXnJQ467sNONFyxDfGPDM3rTsZN+BixjZrWTk338GlNhf/FTe5\r\nNTk2RTSUNkMj3Taj0d02is2UNt0UDDYUXvI1aeXFNhijMjbAtYc2ikWgNuphZDY8D1I28gSnNv4k\r\nLTZRYDk2mtYGN70P5DaWBKc2RzXfNlQFKTeHIYk2IpjaNofVszbqlaM2PatTNiKTzDYjx6M2BMHZ\r\nNiXEdDbJOMs2FNCMNsnGRja2BpI2UsiGNvm1vzbR74Q2wLCoNnn3jDa4fK82VqGlNrSAsTYwh5o2\r\n00guNguj5DYiuZI2yg0BN6PItzbTY6w2VXFINoLcTDbWIk82WJ/cNvx6HDZGdqc2ta/1NVwQMDaG\r\n9VE24mqONlq9rDaNiSE2Lay+NpqbcTYGZ3Q2KPqfNicegDbQyZw27RAtNyQhVjazoMU2izz9Npf0\r\njzbhrAg2zKY4Njo2yjZ1hZE2WNZsNrbfvDZiyp42KRFjNr96jjbjaI02RTYRNmwjhzapnyI2B4XY\r\nNltT7jUOLSY20oDqNhJrxDaCZWw2Ct+VNg/LgjZZzMA2Ik1JNrzQuDZxy901azNqNvW2eDaUuVs2\r\ngu+KNta85ja8P/M1FmShNp/ipjb1OIE21Q/2Nr5JmzYXtZU2x6+qNk6LmTZnjYw2mIJGNul2Jjbc\r\nO3A2lquYNuovLTYtgfE1nUlUNgQzNzaIsDM2DIvUNjKBRja+0oY2ExJ5NgPdJzZaSLQ2EtYgN0Wc\r\nDDbIHow2IiiZNgZUVTa1JnM2v3wcNoN3YDYCtgE38JaENkzoaDb0JTc26/WJNoqw9jYFxFI29vNP\r\nNmdCvDZHFIU2xxObNr0sUTblHoc2JrM/NmrbFDYX93o2m4OpNgs6HDaFNl02Rb2TNpjkJjYAADk2\r\n/8chNn7/QTawezM30gsqNidJ8zWKfC02kBYuNmSnnTa80FY2mFN3NkYZWzY4aO41UHmKNkyZiDYh\r\nGC42h1Y6Np6cgzYSij81AnuaNnc6rzZUXG82vp9eNp4h/jWNsEY2k603NuKSjDbHWSo2RxYINlNS\r\nmTaAOlU2yvJmNkqftzZ5VEk26hV8NjWLezbKM9Y1ernFNWi/XDZaEHQ2dhvANhDaRjYMwy82EwC4\r\nNlCNVTbH4IU2Cx1LNk6XlDbcVNA2FB33NQHMjzY6eW02jpZONqrdMTa+lxk267lUNkhoNDZz+TQ3\r\nwulaNoXxEjYQdsQ2lXEcNsiYOjbfz9o2UzpENvQL0TSOQIM10f8gNcLzLzX5w2c1H4efNN2VyTQO\r\nn70011tKNT7aKTUG8/w0QEgiNUCRKjWhXKI03LYLNQzSrjUnb9E0iB65NCpfLzVs4tk0emppNQtw\r\n8zTy2+U0USoLNeRnDTU88Uc19BfdNFPdNDVtA7Q09QQJNdJhKTXqRNg0am3RNG251DQ1KrA0Oj/Y\r\nNOrxkjTQ8cI0+3eXNEYitDR9exs1YvMdNUBR5DR0pQE1EGj5NAq8KTXmxKs0ErgPNTXAAjVM71g1\r\n2McYNch2PjVA3vs0HZGgNJEIOTWY3M40B5RGNGfgUDUIWUw1AAKQNPuJvjRnt4w0M0qUNPpcxjR3\r\nCM0000dJNZjtnTSx6rQ09gISNSzUKjVHscM0TBtXNYWZEDWjpck07HS+NMuEnzTVZ0U1duMGNWCg\r\n6jTs3880YBEXNT+XujRa3bk0wUISNadMADU5AQ411F8ONePs/jS0pjA105FENQ/HnjQmcwg1WPKH\r\nNFq2nTSuOLI0S9MpNbyI/zTAPso0+sXPNPLB3DTur8o0PLbHNPmbnzT+MvY0YjqvNCUXJTXMJp80\r\nndUPNWmVEjXazkY1O5DgNMl4gzVmyAY1rYEfNXmSQTWIrhU1ikoVNSCqpDTaEbY0/AvpNLIwhDSh\r\nIww1MCwENb5Y/zSUBhw1UowYNbXtpzTvlg4155xcNZhCrDRWs9U0k616NIzznjRmnAQ1Khq/NEm9\r\nCTUki940fgEVNZA1JzWkzqg0RtjuNI+WjTW0QRg1omMcNXzDIDUDHKI0NVu3NMMpRDVCjIo0ViIs\r\nNfxAITWCVB81HXTcNB0NXDWG+bE03vcdNf6QMzXAn8s0Eg/NNATJsTQE9U01LMELNX7DoDSIEB41\r\nwLEGNUVbzTQ8Pwo1QFCINBFgFTVn0vo0JOCjNNaR8zQ1vx41DXUDNak+EjUNQYo08gC7NFzPoTSI\r\n7RU1kpUbNYXvKzWOx240VWf0NGRuBzU6PIo0wlCGNT7g9jSWZjw1Ml4BNRvl6jTQR3w1lmHdNGfd\r\nITTobvU0ypuvNEpF+jTjNY40JYO7NCfBbzQijsA0us84Na6J8TQIYwU1V3IrNSwmYTXQ1kU0zKTc\r\nNDTVfzTj6to0SbOuNHwCvTQ/eR01mcuPNPTduTRDjf806a+nNAj20DREKOo0nPlPNQTe+zQNWSo1\r\nlpGmNBv9xzT/tzk1CtkQNapg2jSMQlI1MDUTNRhOMjWh56Q0AygANa8srzRbOwQ187XxNOQlwDSQ\r\nNO80mTAVNaBD6TQbeoo0UM6FNHPMCjV4t7k0gIxkNE02BjXYBQo1AhAcNWJMijS64uA0zd0JNXWm\r\nEDWiijY1ZpSXNNpWpzTYT+k0QHbzNDaorzSGDHs0qT7ONBvuhzSyYys1dPYCNQdToDTk8uU0MwYH\r\nNWYw+TRbj4g1aJxzNHlxCDVIE8c0Nl2SNOyilTRoqUs1KtMvNbhJPjVmcCE12eGANQ1X8jSNKZo0\r\ndGHdNGrcDjXxZ0A0JhPPNJb14jSwx8o0morUNDmP2DTubH40SSbdNE1r7TRT3rk0EZGLNP35LjV1\r\n1640P7XhNLEsczQldYc02X7eNAZ67jSawbI0drgeNb6GtzSMN9U00j4cNQhrBzWSqgw14dAnNYUF\r\nnDTQSpg0P9OMNOHDLTULMsI0QH6VNI2nxDSl5Yc0WHyLNCaeLDXnc6Y0AaCFNBQP7TTJzR41kvoE\r\nNRykHjU6wZw0+cjVNJdR1TSiQQU10AuONaiUkzUExgY1MMYONaRkZTT9EAU11Bu0NC2j3jTIM4A0\r\nal8cNSoRTzXbrSk1FTDYNEBqkjTgDwA1sun9NP5ztDRWob80HSSSNGYkGDWnkuM0RaMANeGLITXo\r\nTow0GNvbNJlRuzSgsOY0CpP5NMVL9jRRErs0aS1TNVNWgDSmPp80Gvy3NBnwGDXWr7M0dB/VNIw8\r\n0DQBkZ410iF5NDXYLTVZSxU1T0S6NHIrqTRzbRA1XDWKNA2phjRVwpo0SPJ1NGzsODX8K6Y0ne6l\r\nNNU3JjWsl7M0wb+kNKhE5TQUaN8041HRNPhNtTRpfuQ09awXNcwLtDS6nqA0qbk4Nbg8qTQ3pSA0\r\nkRS8NLXO0DRqdcQ0b//eNLPvrDQGQu00fPstNS/HMTWPJMc0fIrENBIciDSLv/k00iuaNNjgPDWm\r\not00DFkCNfHQhDTO4qY0xTYDNbDSOTWNTjA1dLcPNZB1uzQDUrY08mkFNZaNRjXzzK00ErsDNVeQ\r\n3zS5HxA1pmTINLQDBTWIxP008Ny+NADrGDWeipI0eMHvM5R6CTWA3x01wRO2NE0PBDXZKrU0GFyV\r\nNOCJrzSgxtE0tQR+NKJP0zTmcMA0zgvvNFJN7TT5eA41x/eHNAie2jTBXoU1JbdYNQAAEDUAZAE8\r\nF6YTPaE6DT5EKNM9dQ3rPVEOUD0ioW480q89PCfdUDzbEfI8OKDUPGwsmDxHYgE9amiBPGR1zjsP\r\nPhU7a3x7OyhGRzygj6g8mBGWPCuBIDwy9E47Dr4TO1iRvDsOzBo7Kk6nOyjG8juQWao70ZvWOxbH\r\n8zuU8n07aPEbPGxKlzygoVs8TMfIO9+xhDsybFY7q+rTO/L8YTx2ZJg8LVf1O0mYPjuCWmQ7fLXf\r\nOt2APzt7zMI7O4D+Ox50Tzw8t+w7lE+pOzStezsIHeo7gHbGO/xxGTz7XIA7vAj1O108gzyol3g7\r\ntww5PFZa6zv7yxw8BjMgPKnvLj13cpY8hhS0PDysuTskGOc6fsrQOrACgDqdYpQ6nrawO0mtIzpq\r\niZQ6oWVXO4pL/Dsyi9U7isI/O5AADzuqPMM6Xcz3OuCjVjsJJAU70nAkO3xeCzuPI4E7G4YiO1p8\r\n7jrINmQ6RKiWOkNYjzquKxk7L5jEOkefiTpiBN05wkIqOcZGDTp6g046RrOpOQ6EwjmtPgQ6e2Gc\r\nOSSjpDlo8ZU55XS9ObmuBzlz4785N8m2OWCrjzo4vB06uHOTOSQohDrAdAk6ttpzOqV9QjpzGTY6\r\n3XEaOsgBjjqKt8k6HvZMOicoGjocq2w6ap4WOhHEADrfCzk63skBOgeJHDrUTnI5YkuiObHDpjmu\r\nSKM5/cCSOf1k+zmMGlI6inluOu+YIDu89m07RVI0O6+Kgzr+5446GKYWOsGMzDkpPtU5IguVOWYu\r\n0Thu2rs5wj2KOYr0Szln8mE5OIzqOdZKbDmJnpY5zvoYORbfcjmJJb45rPudOReeBTpaM7A5gOEv\r\nOfU4rjmBKBo6bN3fOQHYIDpCxO45IMMKOhDuqjnu5385nKuKOcsUJTnO6QY6IssJOqWwlTkE/nk5\r\n982pOYJKFzlMEgc5kM8qOTzQSjkjjFw5oLMhOb3XTTlwQiA5qwrfOFyxBDkkj0w5MGaVOpPkyzkA\r\nWYw5x/dWOdTGaDnThQM6cUq4OS/ykTn8pTU5cg8tOjmUnzmJETc5yAicOQHqsTm7VQY6AgbzOcxp\r\nYTnUlDk5COb3OVNucjnJjtA5lvYsOVSTlDlbCZA5jieCOevY/jld/5M5ZAsQOQCjIjmaXZk5X2sk\r\nOaKvQDn3w2A5sFLsOCInSDnjTPU4Pw52ORiOFTnxB085aOe5Oeymfzkdh5Q4b9kUOTcjiDlltOQ5\r\nW97hOK93TDk6TJo5GxUROfmZKDmqWVg5gnArOZiUUTljp2g5VN4COa51OjmCG6857I8hOQJUyDiy\r\nFeY4PzlIOQnaEjkNa105LJgJOedSTTmft9w4RFvhOEMPBjkBNUc5IxKaOKB0AzlHK0Y5uzfsOA7s\r\nCTnIO1A5K33WOKFk2jjp16849C8QOWZpPTn28K85JD91Ocr4pTiAdCY50TmeOH4OPTl/1vM4rUTC\r\nOKr9azkWMbo4F7ngOLhyVDn8tgw5pjZnOXrXVTgwxCo4OQx/OXmv4TiOkZs4EjRhOc/BKzm9HJg4\r\nmNmEOBptqTgOwN44isnuOMjHEDkVGqA5ZsgfOcwJgTn/qS85F5G9OSUi8Th4/wU58kwEOcGM0znk\r\nW1o5KBbSOPxmrjgoieg4mOJqOacY5jhwBhY5iXUjOeCfAjn89RI53mOTOE5nnDgXwQo59x/YOLsN\r\nvzisAgg5ZZXBONJSyTg4ChA5g0OvOOLhCzk2PkQ5yZUgOf1/lTgIavM4G5cEObRwszj5plM54Ngg\r\nOTpfCjmgXsE4/c7tOPbIHjng2QM52pkWOVEIBjnWdfE44lgEOVkCJTm3Js04paCwOJruaDnED7c4\r\nlngHOd1wSThLgdw4+MM6OWkNiTjQTig4ZOnTNxI6RTeeDew2cZ29Nv7NAjclhNM2iMnzNsyKczZM\r\nTqE2NwIANyN0CjdyN5Q2WgazNq/6RTZdvu82CgJ2NnBTbzZ2Y8g2nCmlNornMTbyM/U2XdYuNnYx\r\nDDZETwI3eL+nNkEyGTdWc042Yb0WNzGqlDaNeNI2vHqNNkA4sDYmdYE2+cmANhHYVzaKnIs2sgCG\r\nNgmRtTZMoZo22v10NnRMhzYJ96I2OKTLNuYomzb9GYQ2aZ4gNg34YTYuHZo2W3zKNg54fjYZjkw2\r\nf2wUN3Od0TYrN5w2qv+fNtmNlTawHlI20q1xNtWcgzbalsQ2aqh0NqiRqzZJr+Y1tKkfNvwthjbs\r\njso2aMOjNjtLWzaqzNg2QuVVNvmDcTZsOcU2ODthNmCKmjZkwsw2JO2RNrvV7zZ/j5g2X3SCNuWv\r\njDatdLA22aTFNuHopjZGQ1k280BwNm9ZdzZuF3o2uV16NukrgjZ0cmI2oP0yNtheUDbrCZM2IZD3\r\nNcjiiDbmV9M2x6S6NnU/pzZADwg2huV1NusKwzZOBTQ2+FGNNgbaCjZtFJo2oEWzNnsKijZWeO02\r\nGtuJNu8IdjY49Yg2Mr2ANg3ZzjZiM+s2PSKeNoMphDa/F582hoJcNt0QxjZWOKM2KJ8XNqxVQjbY\r\ngaI2GZ6aNs0bpTU+g5g2tEowNtIkZDYOlas2ZR1xNtIkgzZRo4A2kxo0Nq+R7DZCmS43Jnh6NgQS\r\nbDb4RYg2lNw9NuvPkzYiw3I2yo89NhID7TYcIIw26OkjNrMkKzbG26s2fgyyNkykhTarGu41ZVyZ\r\nNs59hja4/3g2DVwlNg8S/DWud6U2N9IvNgCXSjbgmnM2uSBPNn7iXza+E8Q2IrczNgAgGTbUpLw1\r\nmKpzNoJSGzdiAoM2ZpDFNfrlFDY4tAI2RI+mNgX6UTb+VoU2addaNhrNCTZZFHA2uMncNXzMSzbJ\r\nKYk2chpoNlUqsTVQL942eABrNmzNjTZ3X0o2gnWBNn72gTZLTEE2lwQzNgfuCjaKZ0A2Cn+pNqDa\r\nNzbbTXE2Jn7UNu4UKDZVMoQ2j46fNsCxMzbOjB026lnINRYmezYubI02j29ONiv6jzYkvQU24bo/\r\nNlRyPzacL0c24hOWNpYhiDbn4/U1XMKXNjdHgzYwUO01kmwQNsrkGjZWzx02IdkDNtNSCTdR2VE2\r\nthtfNuRpyzaptiM2tEQ0Nkz1XDaF2zA2q9VKNcwlKDW1Wt007vuJNFq4yzRjGzI175BhNbYW/jTC\r\n50I1fp2dNJ2JFzXcfBY1j6wVNck7ADXKUgk1IqzANOh0JjVVrrw0Msw2NZKFGTUaPUI1fBNaNcVN\r\nSTUON7Q0P4fQNFKuFzUxPlU1sICqNGd1ajTm2QI1i7CcNE6RhzRis6A0+Hg7Nbaz2zTd5O41Lo6Q\r\nNCC46jRqY4k02LwPNQsD+zQS2kY1DgsZNQCcHDWKMa00NY4gNbBtFDXqiRc1oiMKNXSGhzRgRxs1\r\nsvCONXglnTQaJsk0VZcVNTwSAjVbovE0HAgiNYYOkDWs+Bk1NoTxNOmQHzWwgbI0cTRKNEIM5zRm\r\n0Eo1Lt3NNDT7uTSlUH81fpTdNNbDuDR5QIA1bivBNDg8tDTqSAw1juzKNPjckTXYQus0QHrGNAe/\r\nzjT+Kxk1k1EENS6XETW7x+g0SgvDNLGCvzSIgvk0RU2fNNSwojQOc7k03IPMNCf6ETV8ef00kiUz\r\nNaCP5DSyjgI1NzurNDzYBDVnrxg1wWfANHpDdjTTMLM0SyeuNCZrpDTpSwg1kQXWNKnmtjTd4L00\r\nCjEvNe+3XjWZAko1Ym35NPTQoTRMXRI1/Kv1NNnw+TREn580ApgENQioMTUc6Qw1wGDtNMWVAjX6\r\nRmI1CN1MNL0nqzQdttc0yKQdNbOO9jSg9bU00Ta0NPpG8jRwfn81zM+VNG1DtzQjBjQ133YnNRiY\r\nzzSD58A0vVEGNeQz7TQc+8c0alDxNOYeqTRZjwM1A1X7NKFF9DRfJtM0Vc0BNUYGIjUIksE0MIwp\r\nNYA4xDQyT2E0+rrONBaUKjWcVbs0lgEXNQhoLjVqYfM0QkIHNXxZBjWjN9A04CoHNf4JgzRmC1I1\r\nHvk2NR48nDSMgG00Zf32NNotNDWhucs0OhP6NCbLvjSa08g0UXkUNWHkGjU2b7M0Jjf1NNWAHTX2\r\nAKk0D22rNDpwCjVAdSE1wIe3NKki1DQ7h1c0c56RNM+EHDWeNvs0MQ70NEBr+DSzItM00gbWNHQw\r\nKDULfMQ0x//kNPxv2TTQtDM1WH4UNV82NTXQGQs1zfzkNE4e5zQRzgg1/pbnNGCS0TTOFd40v6/x\r\nNAS1tjRCvqU0IwneNHHchzWWIeA0UM+4NK8f9TRyIZM0h7UINdtvGDWwIMU0f+g7NQZH3jSvXyg1\r\nQFDUNEfN1zTFaJE0vTVhNZhtEzVsOCo1lI2DNKvBcDU7hyA1G3lgNdKy/jT5BOE0W5yZNMVKxTQt\r\nffo0UfUYNfYY1jRmNic1cjOcNHhM3TQltw01y+wGNdUXAzWjaYQ1EAGsNAMnHTXG2Ok0b2sZNdaU\r\nnTTqTu80BYtpNRavBjXpXoY0gY8TNRz6MzTZ+bU0CwEyNeatmjTYpAw1XQ0NNS4fMDUD3N80w5kB\r\nNbZ+wDSHwM80LsdINflVQTXijxU12ckXNexXHTV3aAk1Y0gINRwPEzWrSkk1gEhcNcKckzRnQdM0\r\nylE8NZTlGjWZRXo1mYPiNKOIGDX9VSk1SDywNE/uAjVE05U0/LpeNYJ8uDT+TwI1K57TNKdFFTVQ\r\nmmw1bxHxNNasyjTwQdg0uDi0NKQl/jRwNLM0eBffNHVFvDRC6IA0QxjQNA8uczQLG6o0fGK7NO7j\r\nmzQBYqc0PLzWNLgI9DTcW6Q0a0AZNYg9STUbsVQ1+5sfNVyxoTRchak0ZlS/NIZF8DQC/LA0KHW2\r\nNAKVBzVhPRg1IxGrNNrwCDVtxBU1lnAcNYeauTTwp/s0RXHANLDJwzTVLtw0yWgLNdyaGTVZOe00\r\nJFcoNZ6B7TQG/MU0+DEUNQFt/DRtlSo14IBuNQxXyzRAZsw0OmxvNepc4TQsbOo0BX5pNeLZFjVa\r\nUP00/NC+NDfFxzSk/Jk0Xv9WNFcJFTUkCfs0nPhONWb3szQLn8U07ItQNLGo0DSMwQE17Z/PNNec\r\n0zRaof0076bINOo8GzXNlYU0hEQkNTyH5jT2YwU1rPNDNQ/OwzRUsuM0rNi/NPhc8DQKmUg1hNDu\r\nNFsmCjUDuzw1VasyNef7cjVSnrA0plT5NKXLhzSFNZ00Ed+nNCFdUDUWMQI1JJnbNNcqvjQMb+40\r\nMCZxNWBYzTTT7DQ1EXZRNffmaTV+3a80W4eUNHE8DjXgGu40gRDrNBPuqjTmEDY1ol3ONJbeJTVU\r\n2RE1pL7HNICD5TRWWw816jZdNU5+4zSdEBA1+UiKNPe7OzXoSB81ciQHNY2hujSihSE1Zmy4NC66\r\njjSDV6M0zDuqNH8orDToE6s0mAmlNNh/LDUtZTA1POHGNHfLdzTbIis17ZIdNZocBDVvRKE0QmwB\r\nNYXQijQkWAs1oC2hNA2Z5TSh2c00fEGaNMT8ujTDZ5w0Y1z7NI2ELjWyxiA1AEAcNQ==",
                            "noiseTrainingType" : "default"
                          }
                        }
                    ],
                    "start" : 5056,
                    "duration" : 135,
                    "mediaStart" : 5953,
                    "mediaDuration" : 135,
                    "scalar" : 1,
                    "metadata" : {
                      "WinSubProjectDisplayName" : "",
                      "clipSpeedAttribute" : false
                    },
                    "animationTracks" : {

                    }
                  },
                  {
                    "id" : 383,
                    "_type" : "AMFile",
                    "src" : 15,
                    "trackNumber" : 0,
                    "attributes" : {
                      "ident" : "旁白_vis2021 1",
                      "sampleRate" : 44100,
                      "bitDepth" : 16,
                      "gain" : 1.0,
                      "mixToMono" : false
                    },
                      "channelNumber" : "0,1",
                    "effects" : [
                        {
                          "effectName" : "NoiseReduction",
                          "parameters" : {
                            "denoiserAmount" : 20.0,
                            "denoiserThreshold" : 0.0,
                            "noiseProfile" : "OWoAPH2pEz2x9Qw+d6HTPcva6j2sp089E2dtPD6vPDwfl1A8ScjwPJTr1Txy35g8LaEAPTpegDyh\r\n+807XKYVO6TEeztxHEg8k5enPOCDljxR1SA80RNNO5P/FTsAUsA78qcaO7cppTsc2vE7qgSrO6lQ\r\n2jukqvI7h92AO2yWGzx+tZU8JitaPFzIyTuXwYE7uY9XO8aQ0Dvqq2I88amYPMnb9DtB2j87KTBk\r\nOzy52zoRSDw7OCjBO9xi/DtxwE88KlbqO3j0qDtWJH47VJnsO9JoxDuANhs8tJ+AO6Qz9Tth+oI8\r\nbGt3O1T1Nzzjhew74A0cPJAvITwici89BseWPGFNtDxkw7o7MRvlOmld0jryf386QXGZOrHMrzuA\r\ngR46FrCVOsPpWDsY4v07HUbYO1nLPjsw9w47wr3FOrnZ+Drc3FY7lUkJO7DAJDv2mAY7Bol9O6Gv\r\nIjui8ek64NliOq5vmTrG/ZM6bCYbO5q5tzpF2YA69unhOXdvJDkMXx461iVVOpU6tTmIPdU5NZ4C\r\nOrLzrDlzv6053gyzOSasszlLTgc5O7atOcYrxzkKtYw6r9cjOpoinjlRRog6Q9QHOqLsbTo5k0E6\r\n9U47OqgHGzq2DIw6xrvIOkIITzrGgR86I/hwOsTOFzq0IQU6isQ5OkIP9DmC+Bw6hsx0OYy4pDnt\r\nMqk5f6afOfFKnDnqIvc5SsRQOpXvdDp8CiE703psOwEALztW+4A6r36ROtKuGDoo4s852RrZOQKM\r\nhDmkgtY4CBe5OXJ5jDnBcjY5RM9jObGZ+DmyHG05aluSOaagETnIyGM5Jt2dOdUxnTmBHwU6PPyu\r\nOQ2PETl6x7k5tcInOtV63TnmcCY6dHftOUWtBzoIt6w5qk+GOf1mbTk4DT454wsLOh2HAjoY+ZY5\r\nyr2VOQQurzmqnRg5LDMFOZLQUjkvV1Q5/g1+OSlxFzlITz85XmAkOdDG/DjiIfM4htxWOREUlTqh\r\nwcw5VnaGOWCBXjn90lA5cKzvOWPrqzkL/o45sEFOOTkyMDpUc5s51oo9ORByjjlGCco52p/tORKy\r\n8Tnit2E51lY0Ofo+ATq6o3Y5Z021OYTVGDlRAq45zuyhOeA4ZDk52eE5nw91ORI2OzlB2R85fgab\r\nOY8bMjkQ1TA5cCaFOXju/Dh2ghM59YD8OFHmfzmnKiQ58YpfOXsbtzlCtX45yEWKOLGkLDkayH45\r\nRUrSOSltyTgvk1U5NT2NOY45EjnfihY5JFlqOTokTjlSlV45Ir54OQ1W5jifjjI5bWS5OfA8NDkO\r\nXs44QhjgOLbnOjkr+iw5hK5/Ocz3Azl6HF45q6DlOIJb2DiR79I4esU3OWtGjDg4gBM5cVloOdzR\r\nDTlkchs5GGg7OVSTtziXOeg4XazEOCiMADmz6Tw5ueqOOVcmeTmS4Ms4nI0UOUTLnjhAXjc56pkE\r\nOdXdBznEOY85PIy4OMxI5zgkSxk5r6oQObvARTnCtUo4LoVEONjrVjnfUsw4msCWOCWAQjlc/y45\r\nJ4KtOCzJrjjGJZ84BKXjOIHj2jhi+yE5rqqOOdCIIzm9fIM56Oo3OUSjtzmiT/M4Wiv3OJw6ETmO\r\nS8w53FJpOdbu1DiJSZs4DaoFOWqKWDkkyvU4GPIdOchJLDmxKwA54MMWOVgzmjgl75M44OcEOVPH\r\n3Dhmzdw4X9sOOb2CyTguC7Y4VgEmOTaQxDjBUAQ5dAM9OarFHjmfj444qMgAOWZMDDmSlas4yUZQ\r\nOaDeMTmPogU5Wxe1OF0m3Dh6aDQ5tbkIObjoEzlqqg45EPLvOKyF+zhUmiE57MvFOPg/vDiW+Vo5\r\nmhyzOGFsBTldBEw4dL3pOOk/QDnXnJQ467sNONFyxDfGPDM3rTsZN+BixjZrWTk338GlNhf/FTe5\r\nNTk2RTSUNkMj3Taj0d02is2UNt0UDDYUXvI1aeXFNhijMjbAtYc2ikWgNuphZDY8D1I28gSnNv4k\r\nLTZRYDk2mtYGN70P5DaWBKc2RzXfNlQFKTeHIYk2IpjaNofVszbqlaM2PatTNiKTzDYjx6M2BMHZ\r\nNiXEdDbJOMs2FNCMNsnGRja2BpI2UsiGNvm1vzbR74Q2wLCoNnn3jDa4fK82VqGlNrSAsTYwh5o2\r\n00guNguj5DYiuZI2yg0BN6PItzbTY6w2VXFINoLcTDbWIk82WJ/cNvx6HDZGdqc2ta/1NVwQMDaG\r\n9VE24mqONlq9rDaNiSE2Lay+NpqbcTYGZ3Q2KPqfNicegDbQyZw27RAtNyQhVjazoMU2izz9Npf0\r\njzbhrAg2zKY4Njo2yjZ1hZE2WNZsNrbfvDZiyp42KRFjNr96jjbjaI02RTYRNmwjhzapnyI2B4XY\r\nNltT7jUOLSY20oDqNhJrxDaCZWw2Ct+VNg/LgjZZzMA2Ik1JNrzQuDZxy901azNqNvW2eDaUuVs2\r\ngu+KNta85ja8P/M1FmShNp/ipjb1OIE21Q/2Nr5JmzYXtZU2x6+qNk6LmTZnjYw2mIJGNul2Jjbc\r\nO3A2lquYNuovLTYtgfE1nUlUNgQzNzaIsDM2DIvUNjKBRja+0oY2ExJ5NgPdJzZaSLQ2EtYgN0Wc\r\nDDbIHow2IiiZNgZUVTa1JnM2v3wcNoN3YDYCtgE38JaENkzoaDb0JTc26/WJNoqw9jYFxFI29vNP\r\nNmdCvDZHFIU2xxObNr0sUTblHoc2JrM/NmrbFDYX93o2m4OpNgs6HDaFNl02Rb2TNpjkJjYAADk2\r\n/8chNn7/QTawezM30gsqNidJ8zWKfC02kBYuNmSnnTa80FY2mFN3NkYZWzY4aO41UHmKNkyZiDYh\r\nGC42h1Y6Np6cgzYSij81AnuaNnc6rzZUXG82vp9eNp4h/jWNsEY2k603NuKSjDbHWSo2RxYINlNS\r\nmTaAOlU2yvJmNkqftzZ5VEk26hV8NjWLezbKM9Y1ernFNWi/XDZaEHQ2dhvANhDaRjYMwy82EwC4\r\nNlCNVTbH4IU2Cx1LNk6XlDbcVNA2FB33NQHMjzY6eW02jpZONqrdMTa+lxk267lUNkhoNDZz+TQ3\r\nwulaNoXxEjYQdsQ2lXEcNsiYOjbfz9o2UzpENvQL0TSOQIM10f8gNcLzLzX5w2c1H4efNN2VyTQO\r\nn70011tKNT7aKTUG8/w0QEgiNUCRKjWhXKI03LYLNQzSrjUnb9E0iB65NCpfLzVs4tk0emppNQtw\r\n8zTy2+U0USoLNeRnDTU88Uc19BfdNFPdNDVtA7Q09QQJNdJhKTXqRNg0am3RNG251DQ1KrA0Oj/Y\r\nNOrxkjTQ8cI0+3eXNEYitDR9exs1YvMdNUBR5DR0pQE1EGj5NAq8KTXmxKs0ErgPNTXAAjVM71g1\r\n2McYNch2PjVA3vs0HZGgNJEIOTWY3M40B5RGNGfgUDUIWUw1AAKQNPuJvjRnt4w0M0qUNPpcxjR3\r\nCM0000dJNZjtnTSx6rQ09gISNSzUKjVHscM0TBtXNYWZEDWjpck07HS+NMuEnzTVZ0U1duMGNWCg\r\n6jTs3880YBEXNT+XujRa3bk0wUISNadMADU5AQ411F8ONePs/jS0pjA105FENQ/HnjQmcwg1WPKH\r\nNFq2nTSuOLI0S9MpNbyI/zTAPso0+sXPNPLB3DTur8o0PLbHNPmbnzT+MvY0YjqvNCUXJTXMJp80\r\nndUPNWmVEjXazkY1O5DgNMl4gzVmyAY1rYEfNXmSQTWIrhU1ikoVNSCqpDTaEbY0/AvpNLIwhDSh\r\nIww1MCwENb5Y/zSUBhw1UowYNbXtpzTvlg4155xcNZhCrDRWs9U0k616NIzznjRmnAQ1Khq/NEm9\r\nCTUki940fgEVNZA1JzWkzqg0RtjuNI+WjTW0QRg1omMcNXzDIDUDHKI0NVu3NMMpRDVCjIo0ViIs\r\nNfxAITWCVB81HXTcNB0NXDWG+bE03vcdNf6QMzXAn8s0Eg/NNATJsTQE9U01LMELNX7DoDSIEB41\r\nwLEGNUVbzTQ8Pwo1QFCINBFgFTVn0vo0JOCjNNaR8zQ1vx41DXUDNak+EjUNQYo08gC7NFzPoTSI\r\n7RU1kpUbNYXvKzWOx240VWf0NGRuBzU6PIo0wlCGNT7g9jSWZjw1Ml4BNRvl6jTQR3w1lmHdNGfd\r\nITTobvU0ypuvNEpF+jTjNY40JYO7NCfBbzQijsA0us84Na6J8TQIYwU1V3IrNSwmYTXQ1kU0zKTc\r\nNDTVfzTj6to0SbOuNHwCvTQ/eR01mcuPNPTduTRDjf806a+nNAj20DREKOo0nPlPNQTe+zQNWSo1\r\nlpGmNBv9xzT/tzk1CtkQNapg2jSMQlI1MDUTNRhOMjWh56Q0AygANa8srzRbOwQ187XxNOQlwDSQ\r\nNO80mTAVNaBD6TQbeoo0UM6FNHPMCjV4t7k0gIxkNE02BjXYBQo1AhAcNWJMijS64uA0zd0JNXWm\r\nEDWiijY1ZpSXNNpWpzTYT+k0QHbzNDaorzSGDHs0qT7ONBvuhzSyYys1dPYCNQdToDTk8uU0MwYH\r\nNWYw+TRbj4g1aJxzNHlxCDVIE8c0Nl2SNOyilTRoqUs1KtMvNbhJPjVmcCE12eGANQ1X8jSNKZo0\r\ndGHdNGrcDjXxZ0A0JhPPNJb14jSwx8o0morUNDmP2DTubH40SSbdNE1r7TRT3rk0EZGLNP35LjV1\r\n1640P7XhNLEsczQldYc02X7eNAZ67jSawbI0drgeNb6GtzSMN9U00j4cNQhrBzWSqgw14dAnNYUF\r\nnDTQSpg0P9OMNOHDLTULMsI0QH6VNI2nxDSl5Yc0WHyLNCaeLDXnc6Y0AaCFNBQP7TTJzR41kvoE\r\nNRykHjU6wZw0+cjVNJdR1TSiQQU10AuONaiUkzUExgY1MMYONaRkZTT9EAU11Bu0NC2j3jTIM4A0\r\nal8cNSoRTzXbrSk1FTDYNEBqkjTgDwA1sun9NP5ztDRWob80HSSSNGYkGDWnkuM0RaMANeGLITXo\r\nTow0GNvbNJlRuzSgsOY0CpP5NMVL9jRRErs0aS1TNVNWgDSmPp80Gvy3NBnwGDXWr7M0dB/VNIw8\r\n0DQBkZ410iF5NDXYLTVZSxU1T0S6NHIrqTRzbRA1XDWKNA2phjRVwpo0SPJ1NGzsODX8K6Y0ne6l\r\nNNU3JjWsl7M0wb+kNKhE5TQUaN8041HRNPhNtTRpfuQ09awXNcwLtDS6nqA0qbk4Nbg8qTQ3pSA0\r\nkRS8NLXO0DRqdcQ0b//eNLPvrDQGQu00fPstNS/HMTWPJMc0fIrENBIciDSLv/k00iuaNNjgPDWm\r\not00DFkCNfHQhDTO4qY0xTYDNbDSOTWNTjA1dLcPNZB1uzQDUrY08mkFNZaNRjXzzK00ErsDNVeQ\r\n3zS5HxA1pmTINLQDBTWIxP008Ny+NADrGDWeipI0eMHvM5R6CTWA3x01wRO2NE0PBDXZKrU0GFyV\r\nNOCJrzSgxtE0tQR+NKJP0zTmcMA0zgvvNFJN7TT5eA41x/eHNAie2jTBXoU1JbdYNQAAEDUAZAE8\r\nF6YTPaE6DT5EKNM9dQ3rPVEOUD0ioW480q89PCfdUDzbEfI8OKDUPGwsmDxHYgE9amiBPGR1zjsP\r\nPhU7a3x7OyhGRzygj6g8mBGWPCuBIDwy9E47Dr4TO1iRvDsOzBo7Kk6nOyjG8juQWao70ZvWOxbH\r\n8zuU8n07aPEbPGxKlzygoVs8TMfIO9+xhDsybFY7q+rTO/L8YTx2ZJg8LVf1O0mYPjuCWmQ7fLXf\r\nOt2APzt7zMI7O4D+Ox50Tzw8t+w7lE+pOzStezsIHeo7gHbGO/xxGTz7XIA7vAj1O108gzyol3g7\r\ntww5PFZa6zv7yxw8BjMgPKnvLj13cpY8hhS0PDysuTskGOc6fsrQOrACgDqdYpQ6nrawO0mtIzpq\r\niZQ6oWVXO4pL/Dsyi9U7isI/O5AADzuqPMM6Xcz3OuCjVjsJJAU70nAkO3xeCzuPI4E7G4YiO1p8\r\n7jrINmQ6RKiWOkNYjzquKxk7L5jEOkefiTpiBN05wkIqOcZGDTp6g046RrOpOQ6EwjmtPgQ6e2Gc\r\nOSSjpDlo8ZU55XS9ObmuBzlz4785N8m2OWCrjzo4vB06uHOTOSQohDrAdAk6ttpzOqV9QjpzGTY6\r\n3XEaOsgBjjqKt8k6HvZMOicoGjocq2w6ap4WOhHEADrfCzk63skBOgeJHDrUTnI5YkuiObHDpjmu\r\nSKM5/cCSOf1k+zmMGlI6inluOu+YIDu89m07RVI0O6+Kgzr+5446GKYWOsGMzDkpPtU5IguVOWYu\r\n0Thu2rs5wj2KOYr0Szln8mE5OIzqOdZKbDmJnpY5zvoYORbfcjmJJb45rPudOReeBTpaM7A5gOEv\r\nOfU4rjmBKBo6bN3fOQHYIDpCxO45IMMKOhDuqjnu5385nKuKOcsUJTnO6QY6IssJOqWwlTkE/nk5\r\n982pOYJKFzlMEgc5kM8qOTzQSjkjjFw5oLMhOb3XTTlwQiA5qwrfOFyxBDkkj0w5MGaVOpPkyzkA\r\nWYw5x/dWOdTGaDnThQM6cUq4OS/ykTn8pTU5cg8tOjmUnzmJETc5yAicOQHqsTm7VQY6AgbzOcxp\r\nYTnUlDk5COb3OVNucjnJjtA5lvYsOVSTlDlbCZA5jieCOevY/jld/5M5ZAsQOQCjIjmaXZk5X2sk\r\nOaKvQDn3w2A5sFLsOCInSDnjTPU4Pw52ORiOFTnxB085aOe5Oeymfzkdh5Q4b9kUOTcjiDlltOQ5\r\nW97hOK93TDk6TJo5GxUROfmZKDmqWVg5gnArOZiUUTljp2g5VN4COa51OjmCG6857I8hOQJUyDiy\r\nFeY4PzlIOQnaEjkNa105LJgJOedSTTmft9w4RFvhOEMPBjkBNUc5IxKaOKB0AzlHK0Y5uzfsOA7s\r\nCTnIO1A5K33WOKFk2jjp16849C8QOWZpPTn28K85JD91Ocr4pTiAdCY50TmeOH4OPTl/1vM4rUTC\r\nOKr9azkWMbo4F7ngOLhyVDn8tgw5pjZnOXrXVTgwxCo4OQx/OXmv4TiOkZs4EjRhOc/BKzm9HJg4\r\nmNmEOBptqTgOwN44isnuOMjHEDkVGqA5ZsgfOcwJgTn/qS85F5G9OSUi8Th4/wU58kwEOcGM0znk\r\nW1o5KBbSOPxmrjgoieg4mOJqOacY5jhwBhY5iXUjOeCfAjn89RI53mOTOE5nnDgXwQo59x/YOLsN\r\nvzisAgg5ZZXBONJSyTg4ChA5g0OvOOLhCzk2PkQ5yZUgOf1/lTgIavM4G5cEObRwszj5plM54Ngg\r\nOTpfCjmgXsE4/c7tOPbIHjng2QM52pkWOVEIBjnWdfE44lgEOVkCJTm3Js04paCwOJruaDnED7c4\r\nlngHOd1wSThLgdw4+MM6OWkNiTjQTig4ZOnTNxI6RTeeDew2cZ29Nv7NAjclhNM2iMnzNsyKczZM\r\nTqE2NwIANyN0CjdyN5Q2WgazNq/6RTZdvu82CgJ2NnBTbzZ2Y8g2nCmlNornMTbyM/U2XdYuNnYx\r\nDDZETwI3eL+nNkEyGTdWc042Yb0WNzGqlDaNeNI2vHqNNkA4sDYmdYE2+cmANhHYVzaKnIs2sgCG\r\nNgmRtTZMoZo22v10NnRMhzYJ96I2OKTLNuYomzb9GYQ2aZ4gNg34YTYuHZo2W3zKNg54fjYZjkw2\r\nf2wUN3Od0TYrN5w2qv+fNtmNlTawHlI20q1xNtWcgzbalsQ2aqh0NqiRqzZJr+Y1tKkfNvwthjbs\r\njso2aMOjNjtLWzaqzNg2QuVVNvmDcTZsOcU2ODthNmCKmjZkwsw2JO2RNrvV7zZ/j5g2X3SCNuWv\r\njDatdLA22aTFNuHopjZGQ1k280BwNm9ZdzZuF3o2uV16NukrgjZ0cmI2oP0yNtheUDbrCZM2IZD3\r\nNcjiiDbmV9M2x6S6NnU/pzZADwg2huV1NusKwzZOBTQ2+FGNNgbaCjZtFJo2oEWzNnsKijZWeO02\r\nGtuJNu8IdjY49Yg2Mr2ANg3ZzjZiM+s2PSKeNoMphDa/F582hoJcNt0QxjZWOKM2KJ8XNqxVQjbY\r\ngaI2GZ6aNs0bpTU+g5g2tEowNtIkZDYOlas2ZR1xNtIkgzZRo4A2kxo0Nq+R7DZCmS43Jnh6NgQS\r\nbDb4RYg2lNw9NuvPkzYiw3I2yo89NhID7TYcIIw26OkjNrMkKzbG26s2fgyyNkykhTarGu41ZVyZ\r\nNs59hja4/3g2DVwlNg8S/DWud6U2N9IvNgCXSjbgmnM2uSBPNn7iXza+E8Q2IrczNgAgGTbUpLw1\r\nmKpzNoJSGzdiAoM2ZpDFNfrlFDY4tAI2RI+mNgX6UTb+VoU2addaNhrNCTZZFHA2uMncNXzMSzbJ\r\nKYk2chpoNlUqsTVQL942eABrNmzNjTZ3X0o2gnWBNn72gTZLTEE2lwQzNgfuCjaKZ0A2Cn+pNqDa\r\nNzbbTXE2Jn7UNu4UKDZVMoQ2j46fNsCxMzbOjB026lnINRYmezYubI02j29ONiv6jzYkvQU24bo/\r\nNlRyPzacL0c24hOWNpYhiDbn4/U1XMKXNjdHgzYwUO01kmwQNsrkGjZWzx02IdkDNtNSCTdR2VE2\r\nthtfNuRpyzaptiM2tEQ0Nkz1XDaF2zA2q9VKNcwlKDW1Wt007vuJNFq4yzRjGzI175BhNbYW/jTC\r\n50I1fp2dNJ2JFzXcfBY1j6wVNck7ADXKUgk1IqzANOh0JjVVrrw0Msw2NZKFGTUaPUI1fBNaNcVN\r\nSTUON7Q0P4fQNFKuFzUxPlU1sICqNGd1ajTm2QI1i7CcNE6RhzRis6A0+Hg7Nbaz2zTd5O41Lo6Q\r\nNCC46jRqY4k02LwPNQsD+zQS2kY1DgsZNQCcHDWKMa00NY4gNbBtFDXqiRc1oiMKNXSGhzRgRxs1\r\nsvCONXglnTQaJsk0VZcVNTwSAjVbovE0HAgiNYYOkDWs+Bk1NoTxNOmQHzWwgbI0cTRKNEIM5zRm\r\n0Eo1Lt3NNDT7uTSlUH81fpTdNNbDuDR5QIA1bivBNDg8tDTqSAw1juzKNPjckTXYQus0QHrGNAe/\r\nzjT+Kxk1k1EENS6XETW7x+g0SgvDNLGCvzSIgvk0RU2fNNSwojQOc7k03IPMNCf6ETV8ef00kiUz\r\nNaCP5DSyjgI1NzurNDzYBDVnrxg1wWfANHpDdjTTMLM0SyeuNCZrpDTpSwg1kQXWNKnmtjTd4L00\r\nCjEvNe+3XjWZAko1Ym35NPTQoTRMXRI1/Kv1NNnw+TREn580ApgENQioMTUc6Qw1wGDtNMWVAjX6\r\nRmI1CN1MNL0nqzQdttc0yKQdNbOO9jSg9bU00Ta0NPpG8jRwfn81zM+VNG1DtzQjBjQ133YnNRiY\r\nzzSD58A0vVEGNeQz7TQc+8c0alDxNOYeqTRZjwM1A1X7NKFF9DRfJtM0Vc0BNUYGIjUIksE0MIwp\r\nNYA4xDQyT2E0+rrONBaUKjWcVbs0lgEXNQhoLjVqYfM0QkIHNXxZBjWjN9A04CoHNf4JgzRmC1I1\r\nHvk2NR48nDSMgG00Zf32NNotNDWhucs0OhP6NCbLvjSa08g0UXkUNWHkGjU2b7M0Jjf1NNWAHTX2\r\nAKk0D22rNDpwCjVAdSE1wIe3NKki1DQ7h1c0c56RNM+EHDWeNvs0MQ70NEBr+DSzItM00gbWNHQw\r\nKDULfMQ0x//kNPxv2TTQtDM1WH4UNV82NTXQGQs1zfzkNE4e5zQRzgg1/pbnNGCS0TTOFd40v6/x\r\nNAS1tjRCvqU0IwneNHHchzWWIeA0UM+4NK8f9TRyIZM0h7UINdtvGDWwIMU0f+g7NQZH3jSvXyg1\r\nQFDUNEfN1zTFaJE0vTVhNZhtEzVsOCo1lI2DNKvBcDU7hyA1G3lgNdKy/jT5BOE0W5yZNMVKxTQt\r\nffo0UfUYNfYY1jRmNic1cjOcNHhM3TQltw01y+wGNdUXAzWjaYQ1EAGsNAMnHTXG2Ok0b2sZNdaU\r\nnTTqTu80BYtpNRavBjXpXoY0gY8TNRz6MzTZ+bU0CwEyNeatmjTYpAw1XQ0NNS4fMDUD3N80w5kB\r\nNbZ+wDSHwM80LsdINflVQTXijxU12ckXNexXHTV3aAk1Y0gINRwPEzWrSkk1gEhcNcKckzRnQdM0\r\nylE8NZTlGjWZRXo1mYPiNKOIGDX9VSk1SDywNE/uAjVE05U0/LpeNYJ8uDT+TwI1K57TNKdFFTVQ\r\nmmw1bxHxNNasyjTwQdg0uDi0NKQl/jRwNLM0eBffNHVFvDRC6IA0QxjQNA8uczQLG6o0fGK7NO7j\r\nmzQBYqc0PLzWNLgI9DTcW6Q0a0AZNYg9STUbsVQ1+5sfNVyxoTRchak0ZlS/NIZF8DQC/LA0KHW2\r\nNAKVBzVhPRg1IxGrNNrwCDVtxBU1lnAcNYeauTTwp/s0RXHANLDJwzTVLtw0yWgLNdyaGTVZOe00\r\nJFcoNZ6B7TQG/MU0+DEUNQFt/DRtlSo14IBuNQxXyzRAZsw0OmxvNepc4TQsbOo0BX5pNeLZFjVa\r\nUP00/NC+NDfFxzSk/Jk0Xv9WNFcJFTUkCfs0nPhONWb3szQLn8U07ItQNLGo0DSMwQE17Z/PNNec\r\n0zRaof0076bINOo8GzXNlYU0hEQkNTyH5jT2YwU1rPNDNQ/OwzRUsuM0rNi/NPhc8DQKmUg1hNDu\r\nNFsmCjUDuzw1VasyNef7cjVSnrA0plT5NKXLhzSFNZ00Ed+nNCFdUDUWMQI1JJnbNNcqvjQMb+40\r\nMCZxNWBYzTTT7DQ1EXZRNffmaTV+3a80W4eUNHE8DjXgGu40gRDrNBPuqjTmEDY1ol3ONJbeJTVU\r\n2RE1pL7HNICD5TRWWw816jZdNU5+4zSdEBA1+UiKNPe7OzXoSB81ciQHNY2hujSihSE1Zmy4NC66\r\njjSDV6M0zDuqNH8orDToE6s0mAmlNNh/LDUtZTA1POHGNHfLdzTbIis17ZIdNZocBDVvRKE0QmwB\r\nNYXQijQkWAs1oC2hNA2Z5TSh2c00fEGaNMT8ujTDZ5w0Y1z7NI2ELjWyxiA1AEAcNQ==",
                            "noiseTrainingType" : "default"
                          }
                        }
                    ],
                    "start" : 5191,
                    "duration" : 128,
                    "mediaStart" : 6196,
                    "mediaDuration" : 128,
                    "scalar" : 1,
                    "metadata" : {
                      "WinSubProjectDisplayName" : "",
                      "clipSpeedAttribute" : false
                    },
                    "animationTracks" : {

                    }
                  },
                  {
                    "id" : 384,
                    "_type" : "AMFile",
                    "src" : 15,
                    "trackNumber" : 0,
                    "attributes" : {
                      "ident" : "旁白_vis2021 1",
                      "sampleRate" : 44100,
                      "bitDepth" : 16,
                      "gain" : 1.0,
                      "mixToMono" : false
                    },
                      "channelNumber" : "0,1",
                    "effects" : [
                        {
                          "effectName" : "NoiseReduction",
                          "parameters" : {
                            "denoiserAmount" : 20.0,
                            "denoiserThreshold" : 0.0,
                            "noiseProfile" : "OWoAPH2pEz2x9Qw+d6HTPcva6j2sp089E2dtPD6vPDwfl1A8ScjwPJTr1Txy35g8LaEAPTpegDyh\r\n+807XKYVO6TEeztxHEg8k5enPOCDljxR1SA80RNNO5P/FTsAUsA78qcaO7cppTsc2vE7qgSrO6lQ\r\n2jukqvI7h92AO2yWGzx+tZU8JitaPFzIyTuXwYE7uY9XO8aQ0Dvqq2I88amYPMnb9DtB2j87KTBk\r\nOzy52zoRSDw7OCjBO9xi/DtxwE88KlbqO3j0qDtWJH47VJnsO9JoxDuANhs8tJ+AO6Qz9Tth+oI8\r\nbGt3O1T1Nzzjhew74A0cPJAvITwici89BseWPGFNtDxkw7o7MRvlOmld0jryf386QXGZOrHMrzuA\r\ngR46FrCVOsPpWDsY4v07HUbYO1nLPjsw9w47wr3FOrnZ+Drc3FY7lUkJO7DAJDv2mAY7Bol9O6Gv\r\nIjui8ek64NliOq5vmTrG/ZM6bCYbO5q5tzpF2YA69unhOXdvJDkMXx461iVVOpU6tTmIPdU5NZ4C\r\nOrLzrDlzv6053gyzOSasszlLTgc5O7atOcYrxzkKtYw6r9cjOpoinjlRRog6Q9QHOqLsbTo5k0E6\r\n9U47OqgHGzq2DIw6xrvIOkIITzrGgR86I/hwOsTOFzq0IQU6isQ5OkIP9DmC+Bw6hsx0OYy4pDnt\r\nMqk5f6afOfFKnDnqIvc5SsRQOpXvdDp8CiE703psOwEALztW+4A6r36ROtKuGDoo4s852RrZOQKM\r\nhDmkgtY4CBe5OXJ5jDnBcjY5RM9jObGZ+DmyHG05aluSOaagETnIyGM5Jt2dOdUxnTmBHwU6PPyu\r\nOQ2PETl6x7k5tcInOtV63TnmcCY6dHftOUWtBzoIt6w5qk+GOf1mbTk4DT454wsLOh2HAjoY+ZY5\r\nyr2VOQQurzmqnRg5LDMFOZLQUjkvV1Q5/g1+OSlxFzlITz85XmAkOdDG/DjiIfM4htxWOREUlTqh\r\nwcw5VnaGOWCBXjn90lA5cKzvOWPrqzkL/o45sEFOOTkyMDpUc5s51oo9ORByjjlGCco52p/tORKy\r\n8Tnit2E51lY0Ofo+ATq6o3Y5Z021OYTVGDlRAq45zuyhOeA4ZDk52eE5nw91ORI2OzlB2R85fgab\r\nOY8bMjkQ1TA5cCaFOXju/Dh2ghM59YD8OFHmfzmnKiQ58YpfOXsbtzlCtX45yEWKOLGkLDkayH45\r\nRUrSOSltyTgvk1U5NT2NOY45EjnfihY5JFlqOTokTjlSlV45Ir54OQ1W5jifjjI5bWS5OfA8NDkO\r\nXs44QhjgOLbnOjkr+iw5hK5/Ocz3Azl6HF45q6DlOIJb2DiR79I4esU3OWtGjDg4gBM5cVloOdzR\r\nDTlkchs5GGg7OVSTtziXOeg4XazEOCiMADmz6Tw5ueqOOVcmeTmS4Ms4nI0UOUTLnjhAXjc56pkE\r\nOdXdBznEOY85PIy4OMxI5zgkSxk5r6oQObvARTnCtUo4LoVEONjrVjnfUsw4msCWOCWAQjlc/y45\r\nJ4KtOCzJrjjGJZ84BKXjOIHj2jhi+yE5rqqOOdCIIzm9fIM56Oo3OUSjtzmiT/M4Wiv3OJw6ETmO\r\nS8w53FJpOdbu1DiJSZs4DaoFOWqKWDkkyvU4GPIdOchJLDmxKwA54MMWOVgzmjgl75M44OcEOVPH\r\n3Dhmzdw4X9sOOb2CyTguC7Y4VgEmOTaQxDjBUAQ5dAM9OarFHjmfj444qMgAOWZMDDmSlas4yUZQ\r\nOaDeMTmPogU5Wxe1OF0m3Dh6aDQ5tbkIObjoEzlqqg45EPLvOKyF+zhUmiE57MvFOPg/vDiW+Vo5\r\nmhyzOGFsBTldBEw4dL3pOOk/QDnXnJQ467sNONFyxDfGPDM3rTsZN+BixjZrWTk338GlNhf/FTe5\r\nNTk2RTSUNkMj3Taj0d02is2UNt0UDDYUXvI1aeXFNhijMjbAtYc2ikWgNuphZDY8D1I28gSnNv4k\r\nLTZRYDk2mtYGN70P5DaWBKc2RzXfNlQFKTeHIYk2IpjaNofVszbqlaM2PatTNiKTzDYjx6M2BMHZ\r\nNiXEdDbJOMs2FNCMNsnGRja2BpI2UsiGNvm1vzbR74Q2wLCoNnn3jDa4fK82VqGlNrSAsTYwh5o2\r\n00guNguj5DYiuZI2yg0BN6PItzbTY6w2VXFINoLcTDbWIk82WJ/cNvx6HDZGdqc2ta/1NVwQMDaG\r\n9VE24mqONlq9rDaNiSE2Lay+NpqbcTYGZ3Q2KPqfNicegDbQyZw27RAtNyQhVjazoMU2izz9Npf0\r\njzbhrAg2zKY4Njo2yjZ1hZE2WNZsNrbfvDZiyp42KRFjNr96jjbjaI02RTYRNmwjhzapnyI2B4XY\r\nNltT7jUOLSY20oDqNhJrxDaCZWw2Ct+VNg/LgjZZzMA2Ik1JNrzQuDZxy901azNqNvW2eDaUuVs2\r\ngu+KNta85ja8P/M1FmShNp/ipjb1OIE21Q/2Nr5JmzYXtZU2x6+qNk6LmTZnjYw2mIJGNul2Jjbc\r\nO3A2lquYNuovLTYtgfE1nUlUNgQzNzaIsDM2DIvUNjKBRja+0oY2ExJ5NgPdJzZaSLQ2EtYgN0Wc\r\nDDbIHow2IiiZNgZUVTa1JnM2v3wcNoN3YDYCtgE38JaENkzoaDb0JTc26/WJNoqw9jYFxFI29vNP\r\nNmdCvDZHFIU2xxObNr0sUTblHoc2JrM/NmrbFDYX93o2m4OpNgs6HDaFNl02Rb2TNpjkJjYAADk2\r\n/8chNn7/QTawezM30gsqNidJ8zWKfC02kBYuNmSnnTa80FY2mFN3NkYZWzY4aO41UHmKNkyZiDYh\r\nGC42h1Y6Np6cgzYSij81AnuaNnc6rzZUXG82vp9eNp4h/jWNsEY2k603NuKSjDbHWSo2RxYINlNS\r\nmTaAOlU2yvJmNkqftzZ5VEk26hV8NjWLezbKM9Y1ernFNWi/XDZaEHQ2dhvANhDaRjYMwy82EwC4\r\nNlCNVTbH4IU2Cx1LNk6XlDbcVNA2FB33NQHMjzY6eW02jpZONqrdMTa+lxk267lUNkhoNDZz+TQ3\r\nwulaNoXxEjYQdsQ2lXEcNsiYOjbfz9o2UzpENvQL0TSOQIM10f8gNcLzLzX5w2c1H4efNN2VyTQO\r\nn70011tKNT7aKTUG8/w0QEgiNUCRKjWhXKI03LYLNQzSrjUnb9E0iB65NCpfLzVs4tk0emppNQtw\r\n8zTy2+U0USoLNeRnDTU88Uc19BfdNFPdNDVtA7Q09QQJNdJhKTXqRNg0am3RNG251DQ1KrA0Oj/Y\r\nNOrxkjTQ8cI0+3eXNEYitDR9exs1YvMdNUBR5DR0pQE1EGj5NAq8KTXmxKs0ErgPNTXAAjVM71g1\r\n2McYNch2PjVA3vs0HZGgNJEIOTWY3M40B5RGNGfgUDUIWUw1AAKQNPuJvjRnt4w0M0qUNPpcxjR3\r\nCM0000dJNZjtnTSx6rQ09gISNSzUKjVHscM0TBtXNYWZEDWjpck07HS+NMuEnzTVZ0U1duMGNWCg\r\n6jTs3880YBEXNT+XujRa3bk0wUISNadMADU5AQ411F8ONePs/jS0pjA105FENQ/HnjQmcwg1WPKH\r\nNFq2nTSuOLI0S9MpNbyI/zTAPso0+sXPNPLB3DTur8o0PLbHNPmbnzT+MvY0YjqvNCUXJTXMJp80\r\nndUPNWmVEjXazkY1O5DgNMl4gzVmyAY1rYEfNXmSQTWIrhU1ikoVNSCqpDTaEbY0/AvpNLIwhDSh\r\nIww1MCwENb5Y/zSUBhw1UowYNbXtpzTvlg4155xcNZhCrDRWs9U0k616NIzznjRmnAQ1Khq/NEm9\r\nCTUki940fgEVNZA1JzWkzqg0RtjuNI+WjTW0QRg1omMcNXzDIDUDHKI0NVu3NMMpRDVCjIo0ViIs\r\nNfxAITWCVB81HXTcNB0NXDWG+bE03vcdNf6QMzXAn8s0Eg/NNATJsTQE9U01LMELNX7DoDSIEB41\r\nwLEGNUVbzTQ8Pwo1QFCINBFgFTVn0vo0JOCjNNaR8zQ1vx41DXUDNak+EjUNQYo08gC7NFzPoTSI\r\n7RU1kpUbNYXvKzWOx240VWf0NGRuBzU6PIo0wlCGNT7g9jSWZjw1Ml4BNRvl6jTQR3w1lmHdNGfd\r\nITTobvU0ypuvNEpF+jTjNY40JYO7NCfBbzQijsA0us84Na6J8TQIYwU1V3IrNSwmYTXQ1kU0zKTc\r\nNDTVfzTj6to0SbOuNHwCvTQ/eR01mcuPNPTduTRDjf806a+nNAj20DREKOo0nPlPNQTe+zQNWSo1\r\nlpGmNBv9xzT/tzk1CtkQNapg2jSMQlI1MDUTNRhOMjWh56Q0AygANa8srzRbOwQ187XxNOQlwDSQ\r\nNO80mTAVNaBD6TQbeoo0UM6FNHPMCjV4t7k0gIxkNE02BjXYBQo1AhAcNWJMijS64uA0zd0JNXWm\r\nEDWiijY1ZpSXNNpWpzTYT+k0QHbzNDaorzSGDHs0qT7ONBvuhzSyYys1dPYCNQdToDTk8uU0MwYH\r\nNWYw+TRbj4g1aJxzNHlxCDVIE8c0Nl2SNOyilTRoqUs1KtMvNbhJPjVmcCE12eGANQ1X8jSNKZo0\r\ndGHdNGrcDjXxZ0A0JhPPNJb14jSwx8o0morUNDmP2DTubH40SSbdNE1r7TRT3rk0EZGLNP35LjV1\r\n1640P7XhNLEsczQldYc02X7eNAZ67jSawbI0drgeNb6GtzSMN9U00j4cNQhrBzWSqgw14dAnNYUF\r\nnDTQSpg0P9OMNOHDLTULMsI0QH6VNI2nxDSl5Yc0WHyLNCaeLDXnc6Y0AaCFNBQP7TTJzR41kvoE\r\nNRykHjU6wZw0+cjVNJdR1TSiQQU10AuONaiUkzUExgY1MMYONaRkZTT9EAU11Bu0NC2j3jTIM4A0\r\nal8cNSoRTzXbrSk1FTDYNEBqkjTgDwA1sun9NP5ztDRWob80HSSSNGYkGDWnkuM0RaMANeGLITXo\r\nTow0GNvbNJlRuzSgsOY0CpP5NMVL9jRRErs0aS1TNVNWgDSmPp80Gvy3NBnwGDXWr7M0dB/VNIw8\r\n0DQBkZ410iF5NDXYLTVZSxU1T0S6NHIrqTRzbRA1XDWKNA2phjRVwpo0SPJ1NGzsODX8K6Y0ne6l\r\nNNU3JjWsl7M0wb+kNKhE5TQUaN8041HRNPhNtTRpfuQ09awXNcwLtDS6nqA0qbk4Nbg8qTQ3pSA0\r\nkRS8NLXO0DRqdcQ0b//eNLPvrDQGQu00fPstNS/HMTWPJMc0fIrENBIciDSLv/k00iuaNNjgPDWm\r\not00DFkCNfHQhDTO4qY0xTYDNbDSOTWNTjA1dLcPNZB1uzQDUrY08mkFNZaNRjXzzK00ErsDNVeQ\r\n3zS5HxA1pmTINLQDBTWIxP008Ny+NADrGDWeipI0eMHvM5R6CTWA3x01wRO2NE0PBDXZKrU0GFyV\r\nNOCJrzSgxtE0tQR+NKJP0zTmcMA0zgvvNFJN7TT5eA41x/eHNAie2jTBXoU1JbdYNQAAEDUAZAE8\r\nF6YTPaE6DT5EKNM9dQ3rPVEOUD0ioW480q89PCfdUDzbEfI8OKDUPGwsmDxHYgE9amiBPGR1zjsP\r\nPhU7a3x7OyhGRzygj6g8mBGWPCuBIDwy9E47Dr4TO1iRvDsOzBo7Kk6nOyjG8juQWao70ZvWOxbH\r\n8zuU8n07aPEbPGxKlzygoVs8TMfIO9+xhDsybFY7q+rTO/L8YTx2ZJg8LVf1O0mYPjuCWmQ7fLXf\r\nOt2APzt7zMI7O4D+Ox50Tzw8t+w7lE+pOzStezsIHeo7gHbGO/xxGTz7XIA7vAj1O108gzyol3g7\r\ntww5PFZa6zv7yxw8BjMgPKnvLj13cpY8hhS0PDysuTskGOc6fsrQOrACgDqdYpQ6nrawO0mtIzpq\r\niZQ6oWVXO4pL/Dsyi9U7isI/O5AADzuqPMM6Xcz3OuCjVjsJJAU70nAkO3xeCzuPI4E7G4YiO1p8\r\n7jrINmQ6RKiWOkNYjzquKxk7L5jEOkefiTpiBN05wkIqOcZGDTp6g046RrOpOQ6EwjmtPgQ6e2Gc\r\nOSSjpDlo8ZU55XS9ObmuBzlz4785N8m2OWCrjzo4vB06uHOTOSQohDrAdAk6ttpzOqV9QjpzGTY6\r\n3XEaOsgBjjqKt8k6HvZMOicoGjocq2w6ap4WOhHEADrfCzk63skBOgeJHDrUTnI5YkuiObHDpjmu\r\nSKM5/cCSOf1k+zmMGlI6inluOu+YIDu89m07RVI0O6+Kgzr+5446GKYWOsGMzDkpPtU5IguVOWYu\r\n0Thu2rs5wj2KOYr0Szln8mE5OIzqOdZKbDmJnpY5zvoYORbfcjmJJb45rPudOReeBTpaM7A5gOEv\r\nOfU4rjmBKBo6bN3fOQHYIDpCxO45IMMKOhDuqjnu5385nKuKOcsUJTnO6QY6IssJOqWwlTkE/nk5\r\n982pOYJKFzlMEgc5kM8qOTzQSjkjjFw5oLMhOb3XTTlwQiA5qwrfOFyxBDkkj0w5MGaVOpPkyzkA\r\nWYw5x/dWOdTGaDnThQM6cUq4OS/ykTn8pTU5cg8tOjmUnzmJETc5yAicOQHqsTm7VQY6AgbzOcxp\r\nYTnUlDk5COb3OVNucjnJjtA5lvYsOVSTlDlbCZA5jieCOevY/jld/5M5ZAsQOQCjIjmaXZk5X2sk\r\nOaKvQDn3w2A5sFLsOCInSDnjTPU4Pw52ORiOFTnxB085aOe5Oeymfzkdh5Q4b9kUOTcjiDlltOQ5\r\nW97hOK93TDk6TJo5GxUROfmZKDmqWVg5gnArOZiUUTljp2g5VN4COa51OjmCG6857I8hOQJUyDiy\r\nFeY4PzlIOQnaEjkNa105LJgJOedSTTmft9w4RFvhOEMPBjkBNUc5IxKaOKB0AzlHK0Y5uzfsOA7s\r\nCTnIO1A5K33WOKFk2jjp16849C8QOWZpPTn28K85JD91Ocr4pTiAdCY50TmeOH4OPTl/1vM4rUTC\r\nOKr9azkWMbo4F7ngOLhyVDn8tgw5pjZnOXrXVTgwxCo4OQx/OXmv4TiOkZs4EjRhOc/BKzm9HJg4\r\nmNmEOBptqTgOwN44isnuOMjHEDkVGqA5ZsgfOcwJgTn/qS85F5G9OSUi8Th4/wU58kwEOcGM0znk\r\nW1o5KBbSOPxmrjgoieg4mOJqOacY5jhwBhY5iXUjOeCfAjn89RI53mOTOE5nnDgXwQo59x/YOLsN\r\nvzisAgg5ZZXBONJSyTg4ChA5g0OvOOLhCzk2PkQ5yZUgOf1/lTgIavM4G5cEObRwszj5plM54Ngg\r\nOTpfCjmgXsE4/c7tOPbIHjng2QM52pkWOVEIBjnWdfE44lgEOVkCJTm3Js04paCwOJruaDnED7c4\r\nlngHOd1wSThLgdw4+MM6OWkNiTjQTig4ZOnTNxI6RTeeDew2cZ29Nv7NAjclhNM2iMnzNsyKczZM\r\nTqE2NwIANyN0CjdyN5Q2WgazNq/6RTZdvu82CgJ2NnBTbzZ2Y8g2nCmlNornMTbyM/U2XdYuNnYx\r\nDDZETwI3eL+nNkEyGTdWc042Yb0WNzGqlDaNeNI2vHqNNkA4sDYmdYE2+cmANhHYVzaKnIs2sgCG\r\nNgmRtTZMoZo22v10NnRMhzYJ96I2OKTLNuYomzb9GYQ2aZ4gNg34YTYuHZo2W3zKNg54fjYZjkw2\r\nf2wUN3Od0TYrN5w2qv+fNtmNlTawHlI20q1xNtWcgzbalsQ2aqh0NqiRqzZJr+Y1tKkfNvwthjbs\r\njso2aMOjNjtLWzaqzNg2QuVVNvmDcTZsOcU2ODthNmCKmjZkwsw2JO2RNrvV7zZ/j5g2X3SCNuWv\r\njDatdLA22aTFNuHopjZGQ1k280BwNm9ZdzZuF3o2uV16NukrgjZ0cmI2oP0yNtheUDbrCZM2IZD3\r\nNcjiiDbmV9M2x6S6NnU/pzZADwg2huV1NusKwzZOBTQ2+FGNNgbaCjZtFJo2oEWzNnsKijZWeO02\r\nGtuJNu8IdjY49Yg2Mr2ANg3ZzjZiM+s2PSKeNoMphDa/F582hoJcNt0QxjZWOKM2KJ8XNqxVQjbY\r\ngaI2GZ6aNs0bpTU+g5g2tEowNtIkZDYOlas2ZR1xNtIkgzZRo4A2kxo0Nq+R7DZCmS43Jnh6NgQS\r\nbDb4RYg2lNw9NuvPkzYiw3I2yo89NhID7TYcIIw26OkjNrMkKzbG26s2fgyyNkykhTarGu41ZVyZ\r\nNs59hja4/3g2DVwlNg8S/DWud6U2N9IvNgCXSjbgmnM2uSBPNn7iXza+E8Q2IrczNgAgGTbUpLw1\r\nmKpzNoJSGzdiAoM2ZpDFNfrlFDY4tAI2RI+mNgX6UTb+VoU2addaNhrNCTZZFHA2uMncNXzMSzbJ\r\nKYk2chpoNlUqsTVQL942eABrNmzNjTZ3X0o2gnWBNn72gTZLTEE2lwQzNgfuCjaKZ0A2Cn+pNqDa\r\nNzbbTXE2Jn7UNu4UKDZVMoQ2j46fNsCxMzbOjB026lnINRYmezYubI02j29ONiv6jzYkvQU24bo/\r\nNlRyPzacL0c24hOWNpYhiDbn4/U1XMKXNjdHgzYwUO01kmwQNsrkGjZWzx02IdkDNtNSCTdR2VE2\r\nthtfNuRpyzaptiM2tEQ0Nkz1XDaF2zA2q9VKNcwlKDW1Wt007vuJNFq4yzRjGzI175BhNbYW/jTC\r\n50I1fp2dNJ2JFzXcfBY1j6wVNck7ADXKUgk1IqzANOh0JjVVrrw0Msw2NZKFGTUaPUI1fBNaNcVN\r\nSTUON7Q0P4fQNFKuFzUxPlU1sICqNGd1ajTm2QI1i7CcNE6RhzRis6A0+Hg7Nbaz2zTd5O41Lo6Q\r\nNCC46jRqY4k02LwPNQsD+zQS2kY1DgsZNQCcHDWKMa00NY4gNbBtFDXqiRc1oiMKNXSGhzRgRxs1\r\nsvCONXglnTQaJsk0VZcVNTwSAjVbovE0HAgiNYYOkDWs+Bk1NoTxNOmQHzWwgbI0cTRKNEIM5zRm\r\n0Eo1Lt3NNDT7uTSlUH81fpTdNNbDuDR5QIA1bivBNDg8tDTqSAw1juzKNPjckTXYQus0QHrGNAe/\r\nzjT+Kxk1k1EENS6XETW7x+g0SgvDNLGCvzSIgvk0RU2fNNSwojQOc7k03IPMNCf6ETV8ef00kiUz\r\nNaCP5DSyjgI1NzurNDzYBDVnrxg1wWfANHpDdjTTMLM0SyeuNCZrpDTpSwg1kQXWNKnmtjTd4L00\r\nCjEvNe+3XjWZAko1Ym35NPTQoTRMXRI1/Kv1NNnw+TREn580ApgENQioMTUc6Qw1wGDtNMWVAjX6\r\nRmI1CN1MNL0nqzQdttc0yKQdNbOO9jSg9bU00Ta0NPpG8jRwfn81zM+VNG1DtzQjBjQ133YnNRiY\r\nzzSD58A0vVEGNeQz7TQc+8c0alDxNOYeqTRZjwM1A1X7NKFF9DRfJtM0Vc0BNUYGIjUIksE0MIwp\r\nNYA4xDQyT2E0+rrONBaUKjWcVbs0lgEXNQhoLjVqYfM0QkIHNXxZBjWjN9A04CoHNf4JgzRmC1I1\r\nHvk2NR48nDSMgG00Zf32NNotNDWhucs0OhP6NCbLvjSa08g0UXkUNWHkGjU2b7M0Jjf1NNWAHTX2\r\nAKk0D22rNDpwCjVAdSE1wIe3NKki1DQ7h1c0c56RNM+EHDWeNvs0MQ70NEBr+DSzItM00gbWNHQw\r\nKDULfMQ0x//kNPxv2TTQtDM1WH4UNV82NTXQGQs1zfzkNE4e5zQRzgg1/pbnNGCS0TTOFd40v6/x\r\nNAS1tjRCvqU0IwneNHHchzWWIeA0UM+4NK8f9TRyIZM0h7UINdtvGDWwIMU0f+g7NQZH3jSvXyg1\r\nQFDUNEfN1zTFaJE0vTVhNZhtEzVsOCo1lI2DNKvBcDU7hyA1G3lgNdKy/jT5BOE0W5yZNMVKxTQt\r\nffo0UfUYNfYY1jRmNic1cjOcNHhM3TQltw01y+wGNdUXAzWjaYQ1EAGsNAMnHTXG2Ok0b2sZNdaU\r\nnTTqTu80BYtpNRavBjXpXoY0gY8TNRz6MzTZ+bU0CwEyNeatmjTYpAw1XQ0NNS4fMDUD3N80w5kB\r\nNbZ+wDSHwM80LsdINflVQTXijxU12ckXNexXHTV3aAk1Y0gINRwPEzWrSkk1gEhcNcKckzRnQdM0\r\nylE8NZTlGjWZRXo1mYPiNKOIGDX9VSk1SDywNE/uAjVE05U0/LpeNYJ8uDT+TwI1K57TNKdFFTVQ\r\nmmw1bxHxNNasyjTwQdg0uDi0NKQl/jRwNLM0eBffNHVFvDRC6IA0QxjQNA8uczQLG6o0fGK7NO7j\r\nmzQBYqc0PLzWNLgI9DTcW6Q0a0AZNYg9STUbsVQ1+5sfNVyxoTRchak0ZlS/NIZF8DQC/LA0KHW2\r\nNAKVBzVhPRg1IxGrNNrwCDVtxBU1lnAcNYeauTTwp/s0RXHANLDJwzTVLtw0yWgLNdyaGTVZOe00\r\nJFcoNZ6B7TQG/MU0+DEUNQFt/DRtlSo14IBuNQxXyzRAZsw0OmxvNepc4TQsbOo0BX5pNeLZFjVa\r\nUP00/NC+NDfFxzSk/Jk0Xv9WNFcJFTUkCfs0nPhONWb3szQLn8U07ItQNLGo0DSMwQE17Z/PNNec\r\n0zRaof0076bINOo8GzXNlYU0hEQkNTyH5jT2YwU1rPNDNQ/OwzRUsuM0rNi/NPhc8DQKmUg1hNDu\r\nNFsmCjUDuzw1VasyNef7cjVSnrA0plT5NKXLhzSFNZ00Ed+nNCFdUDUWMQI1JJnbNNcqvjQMb+40\r\nMCZxNWBYzTTT7DQ1EXZRNffmaTV+3a80W4eUNHE8DjXgGu40gRDrNBPuqjTmEDY1ol3ONJbeJTVU\r\n2RE1pL7HNICD5TRWWw816jZdNU5+4zSdEBA1+UiKNPe7OzXoSB81ciQHNY2hujSihSE1Zmy4NC66\r\njjSDV6M0zDuqNH8orDToE6s0mAmlNNh/LDUtZTA1POHGNHfLdzTbIis17ZIdNZocBDVvRKE0QmwB\r\nNYXQijQkWAs1oC2hNA2Z5TSh2c00fEGaNMT8ujTDZ5w0Y1z7NI2ELjWyxiA1AEAcNQ==",
                            "noiseTrainingType" : "default"
                          }
                        }
                    ],
                    "start" : 5395,
                    "duration" : 149,
                    "mediaStart" : 6539,
                    "mediaDuration" : 149,
                    "scalar" : 1,
                    "metadata" : {
                      "WinSubProjectDisplayName" : "",
                      "clipSpeedAttribute" : false
                    },
                    "animationTracks" : {

                    }
                  },
                  {
                    "id" : 385,
                    "_type" : "AMFile",
                    "src" : 15,
                    "trackNumber" : 0,
                    "attributes" : {
                      "ident" : "旁白_vis2021 1",
                      "sampleRate" : 44100,
                      "bitDepth" : 16,
                      "gain" : 1.0,
                      "mixToMono" : false
                    },
                      "channelNumber" : "0,1",
                    "effects" : [
                        {
                          "effectName" : "NoiseReduction",
                          "parameters" : {
                            "denoiserAmount" : 20.0,
                            "denoiserThreshold" : 0.0,
                            "noiseProfile" : "OWoAPH2pEz2x9Qw+d6HTPcva6j2sp089E2dtPD6vPDwfl1A8ScjwPJTr1Txy35g8LaEAPTpegDyh\r\n+807XKYVO6TEeztxHEg8k5enPOCDljxR1SA80RNNO5P/FTsAUsA78qcaO7cppTsc2vE7qgSrO6lQ\r\n2jukqvI7h92AO2yWGzx+tZU8JitaPFzIyTuXwYE7uY9XO8aQ0Dvqq2I88amYPMnb9DtB2j87KTBk\r\nOzy52zoRSDw7OCjBO9xi/DtxwE88KlbqO3j0qDtWJH47VJnsO9JoxDuANhs8tJ+AO6Qz9Tth+oI8\r\nbGt3O1T1Nzzjhew74A0cPJAvITwici89BseWPGFNtDxkw7o7MRvlOmld0jryf386QXGZOrHMrzuA\r\ngR46FrCVOsPpWDsY4v07HUbYO1nLPjsw9w47wr3FOrnZ+Drc3FY7lUkJO7DAJDv2mAY7Bol9O6Gv\r\nIjui8ek64NliOq5vmTrG/ZM6bCYbO5q5tzpF2YA69unhOXdvJDkMXx461iVVOpU6tTmIPdU5NZ4C\r\nOrLzrDlzv6053gyzOSasszlLTgc5O7atOcYrxzkKtYw6r9cjOpoinjlRRog6Q9QHOqLsbTo5k0E6\r\n9U47OqgHGzq2DIw6xrvIOkIITzrGgR86I/hwOsTOFzq0IQU6isQ5OkIP9DmC+Bw6hsx0OYy4pDnt\r\nMqk5f6afOfFKnDnqIvc5SsRQOpXvdDp8CiE703psOwEALztW+4A6r36ROtKuGDoo4s852RrZOQKM\r\nhDmkgtY4CBe5OXJ5jDnBcjY5RM9jObGZ+DmyHG05aluSOaagETnIyGM5Jt2dOdUxnTmBHwU6PPyu\r\nOQ2PETl6x7k5tcInOtV63TnmcCY6dHftOUWtBzoIt6w5qk+GOf1mbTk4DT454wsLOh2HAjoY+ZY5\r\nyr2VOQQurzmqnRg5LDMFOZLQUjkvV1Q5/g1+OSlxFzlITz85XmAkOdDG/DjiIfM4htxWOREUlTqh\r\nwcw5VnaGOWCBXjn90lA5cKzvOWPrqzkL/o45sEFOOTkyMDpUc5s51oo9ORByjjlGCco52p/tORKy\r\n8Tnit2E51lY0Ofo+ATq6o3Y5Z021OYTVGDlRAq45zuyhOeA4ZDk52eE5nw91ORI2OzlB2R85fgab\r\nOY8bMjkQ1TA5cCaFOXju/Dh2ghM59YD8OFHmfzmnKiQ58YpfOXsbtzlCtX45yEWKOLGkLDkayH45\r\nRUrSOSltyTgvk1U5NT2NOY45EjnfihY5JFlqOTokTjlSlV45Ir54OQ1W5jifjjI5bWS5OfA8NDkO\r\nXs44QhjgOLbnOjkr+iw5hK5/Ocz3Azl6HF45q6DlOIJb2DiR79I4esU3OWtGjDg4gBM5cVloOdzR\r\nDTlkchs5GGg7OVSTtziXOeg4XazEOCiMADmz6Tw5ueqOOVcmeTmS4Ms4nI0UOUTLnjhAXjc56pkE\r\nOdXdBznEOY85PIy4OMxI5zgkSxk5r6oQObvARTnCtUo4LoVEONjrVjnfUsw4msCWOCWAQjlc/y45\r\nJ4KtOCzJrjjGJZ84BKXjOIHj2jhi+yE5rqqOOdCIIzm9fIM56Oo3OUSjtzmiT/M4Wiv3OJw6ETmO\r\nS8w53FJpOdbu1DiJSZs4DaoFOWqKWDkkyvU4GPIdOchJLDmxKwA54MMWOVgzmjgl75M44OcEOVPH\r\n3Dhmzdw4X9sOOb2CyTguC7Y4VgEmOTaQxDjBUAQ5dAM9OarFHjmfj444qMgAOWZMDDmSlas4yUZQ\r\nOaDeMTmPogU5Wxe1OF0m3Dh6aDQ5tbkIObjoEzlqqg45EPLvOKyF+zhUmiE57MvFOPg/vDiW+Vo5\r\nmhyzOGFsBTldBEw4dL3pOOk/QDnXnJQ467sNONFyxDfGPDM3rTsZN+BixjZrWTk338GlNhf/FTe5\r\nNTk2RTSUNkMj3Taj0d02is2UNt0UDDYUXvI1aeXFNhijMjbAtYc2ikWgNuphZDY8D1I28gSnNv4k\r\nLTZRYDk2mtYGN70P5DaWBKc2RzXfNlQFKTeHIYk2IpjaNofVszbqlaM2PatTNiKTzDYjx6M2BMHZ\r\nNiXEdDbJOMs2FNCMNsnGRja2BpI2UsiGNvm1vzbR74Q2wLCoNnn3jDa4fK82VqGlNrSAsTYwh5o2\r\n00guNguj5DYiuZI2yg0BN6PItzbTY6w2VXFINoLcTDbWIk82WJ/cNvx6HDZGdqc2ta/1NVwQMDaG\r\n9VE24mqONlq9rDaNiSE2Lay+NpqbcTYGZ3Q2KPqfNicegDbQyZw27RAtNyQhVjazoMU2izz9Npf0\r\njzbhrAg2zKY4Njo2yjZ1hZE2WNZsNrbfvDZiyp42KRFjNr96jjbjaI02RTYRNmwjhzapnyI2B4XY\r\nNltT7jUOLSY20oDqNhJrxDaCZWw2Ct+VNg/LgjZZzMA2Ik1JNrzQuDZxy901azNqNvW2eDaUuVs2\r\ngu+KNta85ja8P/M1FmShNp/ipjb1OIE21Q/2Nr5JmzYXtZU2x6+qNk6LmTZnjYw2mIJGNul2Jjbc\r\nO3A2lquYNuovLTYtgfE1nUlUNgQzNzaIsDM2DIvUNjKBRja+0oY2ExJ5NgPdJzZaSLQ2EtYgN0Wc\r\nDDbIHow2IiiZNgZUVTa1JnM2v3wcNoN3YDYCtgE38JaENkzoaDb0JTc26/WJNoqw9jYFxFI29vNP\r\nNmdCvDZHFIU2xxObNr0sUTblHoc2JrM/NmrbFDYX93o2m4OpNgs6HDaFNl02Rb2TNpjkJjYAADk2\r\n/8chNn7/QTawezM30gsqNidJ8zWKfC02kBYuNmSnnTa80FY2mFN3NkYZWzY4aO41UHmKNkyZiDYh\r\nGC42h1Y6Np6cgzYSij81AnuaNnc6rzZUXG82vp9eNp4h/jWNsEY2k603NuKSjDbHWSo2RxYINlNS\r\nmTaAOlU2yvJmNkqftzZ5VEk26hV8NjWLezbKM9Y1ernFNWi/XDZaEHQ2dhvANhDaRjYMwy82EwC4\r\nNlCNVTbH4IU2Cx1LNk6XlDbcVNA2FB33NQHMjzY6eW02jpZONqrdMTa+lxk267lUNkhoNDZz+TQ3\r\nwulaNoXxEjYQdsQ2lXEcNsiYOjbfz9o2UzpENvQL0TSOQIM10f8gNcLzLzX5w2c1H4efNN2VyTQO\r\nn70011tKNT7aKTUG8/w0QEgiNUCRKjWhXKI03LYLNQzSrjUnb9E0iB65NCpfLzVs4tk0emppNQtw\r\n8zTy2+U0USoLNeRnDTU88Uc19BfdNFPdNDVtA7Q09QQJNdJhKTXqRNg0am3RNG251DQ1KrA0Oj/Y\r\nNOrxkjTQ8cI0+3eXNEYitDR9exs1YvMdNUBR5DR0pQE1EGj5NAq8KTXmxKs0ErgPNTXAAjVM71g1\r\n2McYNch2PjVA3vs0HZGgNJEIOTWY3M40B5RGNGfgUDUIWUw1AAKQNPuJvjRnt4w0M0qUNPpcxjR3\r\nCM0000dJNZjtnTSx6rQ09gISNSzUKjVHscM0TBtXNYWZEDWjpck07HS+NMuEnzTVZ0U1duMGNWCg\r\n6jTs3880YBEXNT+XujRa3bk0wUISNadMADU5AQ411F8ONePs/jS0pjA105FENQ/HnjQmcwg1WPKH\r\nNFq2nTSuOLI0S9MpNbyI/zTAPso0+sXPNPLB3DTur8o0PLbHNPmbnzT+MvY0YjqvNCUXJTXMJp80\r\nndUPNWmVEjXazkY1O5DgNMl4gzVmyAY1rYEfNXmSQTWIrhU1ikoVNSCqpDTaEbY0/AvpNLIwhDSh\r\nIww1MCwENb5Y/zSUBhw1UowYNbXtpzTvlg4155xcNZhCrDRWs9U0k616NIzznjRmnAQ1Khq/NEm9\r\nCTUki940fgEVNZA1JzWkzqg0RtjuNI+WjTW0QRg1omMcNXzDIDUDHKI0NVu3NMMpRDVCjIo0ViIs\r\nNfxAITWCVB81HXTcNB0NXDWG+bE03vcdNf6QMzXAn8s0Eg/NNATJsTQE9U01LMELNX7DoDSIEB41\r\nwLEGNUVbzTQ8Pwo1QFCINBFgFTVn0vo0JOCjNNaR8zQ1vx41DXUDNak+EjUNQYo08gC7NFzPoTSI\r\n7RU1kpUbNYXvKzWOx240VWf0NGRuBzU6PIo0wlCGNT7g9jSWZjw1Ml4BNRvl6jTQR3w1lmHdNGfd\r\nITTobvU0ypuvNEpF+jTjNY40JYO7NCfBbzQijsA0us84Na6J8TQIYwU1V3IrNSwmYTXQ1kU0zKTc\r\nNDTVfzTj6to0SbOuNHwCvTQ/eR01mcuPNPTduTRDjf806a+nNAj20DREKOo0nPlPNQTe+zQNWSo1\r\nlpGmNBv9xzT/tzk1CtkQNapg2jSMQlI1MDUTNRhOMjWh56Q0AygANa8srzRbOwQ187XxNOQlwDSQ\r\nNO80mTAVNaBD6TQbeoo0UM6FNHPMCjV4t7k0gIxkNE02BjXYBQo1AhAcNWJMijS64uA0zd0JNXWm\r\nEDWiijY1ZpSXNNpWpzTYT+k0QHbzNDaorzSGDHs0qT7ONBvuhzSyYys1dPYCNQdToDTk8uU0MwYH\r\nNWYw+TRbj4g1aJxzNHlxCDVIE8c0Nl2SNOyilTRoqUs1KtMvNbhJPjVmcCE12eGANQ1X8jSNKZo0\r\ndGHdNGrcDjXxZ0A0JhPPNJb14jSwx8o0morUNDmP2DTubH40SSbdNE1r7TRT3rk0EZGLNP35LjV1\r\n1640P7XhNLEsczQldYc02X7eNAZ67jSawbI0drgeNb6GtzSMN9U00j4cNQhrBzWSqgw14dAnNYUF\r\nnDTQSpg0P9OMNOHDLTULMsI0QH6VNI2nxDSl5Yc0WHyLNCaeLDXnc6Y0AaCFNBQP7TTJzR41kvoE\r\nNRykHjU6wZw0+cjVNJdR1TSiQQU10AuONaiUkzUExgY1MMYONaRkZTT9EAU11Bu0NC2j3jTIM4A0\r\nal8cNSoRTzXbrSk1FTDYNEBqkjTgDwA1sun9NP5ztDRWob80HSSSNGYkGDWnkuM0RaMANeGLITXo\r\nTow0GNvbNJlRuzSgsOY0CpP5NMVL9jRRErs0aS1TNVNWgDSmPp80Gvy3NBnwGDXWr7M0dB/VNIw8\r\n0DQBkZ410iF5NDXYLTVZSxU1T0S6NHIrqTRzbRA1XDWKNA2phjRVwpo0SPJ1NGzsODX8K6Y0ne6l\r\nNNU3JjWsl7M0wb+kNKhE5TQUaN8041HRNPhNtTRpfuQ09awXNcwLtDS6nqA0qbk4Nbg8qTQ3pSA0\r\nkRS8NLXO0DRqdcQ0b//eNLPvrDQGQu00fPstNS/HMTWPJMc0fIrENBIciDSLv/k00iuaNNjgPDWm\r\not00DFkCNfHQhDTO4qY0xTYDNbDSOTWNTjA1dLcPNZB1uzQDUrY08mkFNZaNRjXzzK00ErsDNVeQ\r\n3zS5HxA1pmTINLQDBTWIxP008Ny+NADrGDWeipI0eMHvM5R6CTWA3x01wRO2NE0PBDXZKrU0GFyV\r\nNOCJrzSgxtE0tQR+NKJP0zTmcMA0zgvvNFJN7TT5eA41x/eHNAie2jTBXoU1JbdYNQAAEDUAZAE8\r\nF6YTPaE6DT5EKNM9dQ3rPVEOUD0ioW480q89PCfdUDzbEfI8OKDUPGwsmDxHYgE9amiBPGR1zjsP\r\nPhU7a3x7OyhGRzygj6g8mBGWPCuBIDwy9E47Dr4TO1iRvDsOzBo7Kk6nOyjG8juQWao70ZvWOxbH\r\n8zuU8n07aPEbPGxKlzygoVs8TMfIO9+xhDsybFY7q+rTO/L8YTx2ZJg8LVf1O0mYPjuCWmQ7fLXf\r\nOt2APzt7zMI7O4D+Ox50Tzw8t+w7lE+pOzStezsIHeo7gHbGO/xxGTz7XIA7vAj1O108gzyol3g7\r\ntww5PFZa6zv7yxw8BjMgPKnvLj13cpY8hhS0PDysuTskGOc6fsrQOrACgDqdYpQ6nrawO0mtIzpq\r\niZQ6oWVXO4pL/Dsyi9U7isI/O5AADzuqPMM6Xcz3OuCjVjsJJAU70nAkO3xeCzuPI4E7G4YiO1p8\r\n7jrINmQ6RKiWOkNYjzquKxk7L5jEOkefiTpiBN05wkIqOcZGDTp6g046RrOpOQ6EwjmtPgQ6e2Gc\r\nOSSjpDlo8ZU55XS9ObmuBzlz4785N8m2OWCrjzo4vB06uHOTOSQohDrAdAk6ttpzOqV9QjpzGTY6\r\n3XEaOsgBjjqKt8k6HvZMOicoGjocq2w6ap4WOhHEADrfCzk63skBOgeJHDrUTnI5YkuiObHDpjmu\r\nSKM5/cCSOf1k+zmMGlI6inluOu+YIDu89m07RVI0O6+Kgzr+5446GKYWOsGMzDkpPtU5IguVOWYu\r\n0Thu2rs5wj2KOYr0Szln8mE5OIzqOdZKbDmJnpY5zvoYORbfcjmJJb45rPudOReeBTpaM7A5gOEv\r\nOfU4rjmBKBo6bN3fOQHYIDpCxO45IMMKOhDuqjnu5385nKuKOcsUJTnO6QY6IssJOqWwlTkE/nk5\r\n982pOYJKFzlMEgc5kM8qOTzQSjkjjFw5oLMhOb3XTTlwQiA5qwrfOFyxBDkkj0w5MGaVOpPkyzkA\r\nWYw5x/dWOdTGaDnThQM6cUq4OS/ykTn8pTU5cg8tOjmUnzmJETc5yAicOQHqsTm7VQY6AgbzOcxp\r\nYTnUlDk5COb3OVNucjnJjtA5lvYsOVSTlDlbCZA5jieCOevY/jld/5M5ZAsQOQCjIjmaXZk5X2sk\r\nOaKvQDn3w2A5sFLsOCInSDnjTPU4Pw52ORiOFTnxB085aOe5Oeymfzkdh5Q4b9kUOTcjiDlltOQ5\r\nW97hOK93TDk6TJo5GxUROfmZKDmqWVg5gnArOZiUUTljp2g5VN4COa51OjmCG6857I8hOQJUyDiy\r\nFeY4PzlIOQnaEjkNa105LJgJOedSTTmft9w4RFvhOEMPBjkBNUc5IxKaOKB0AzlHK0Y5uzfsOA7s\r\nCTnIO1A5K33WOKFk2jjp16849C8QOWZpPTn28K85JD91Ocr4pTiAdCY50TmeOH4OPTl/1vM4rUTC\r\nOKr9azkWMbo4F7ngOLhyVDn8tgw5pjZnOXrXVTgwxCo4OQx/OXmv4TiOkZs4EjRhOc/BKzm9HJg4\r\nmNmEOBptqTgOwN44isnuOMjHEDkVGqA5ZsgfOcwJgTn/qS85F5G9OSUi8Th4/wU58kwEOcGM0znk\r\nW1o5KBbSOPxmrjgoieg4mOJqOacY5jhwBhY5iXUjOeCfAjn89RI53mOTOE5nnDgXwQo59x/YOLsN\r\nvzisAgg5ZZXBONJSyTg4ChA5g0OvOOLhCzk2PkQ5yZUgOf1/lTgIavM4G5cEObRwszj5plM54Ngg\r\nOTpfCjmgXsE4/c7tOPbIHjng2QM52pkWOVEIBjnWdfE44lgEOVkCJTm3Js04paCwOJruaDnED7c4\r\nlngHOd1wSThLgdw4+MM6OWkNiTjQTig4ZOnTNxI6RTeeDew2cZ29Nv7NAjclhNM2iMnzNsyKczZM\r\nTqE2NwIANyN0CjdyN5Q2WgazNq/6RTZdvu82CgJ2NnBTbzZ2Y8g2nCmlNornMTbyM/U2XdYuNnYx\r\nDDZETwI3eL+nNkEyGTdWc042Yb0WNzGqlDaNeNI2vHqNNkA4sDYmdYE2+cmANhHYVzaKnIs2sgCG\r\nNgmRtTZMoZo22v10NnRMhzYJ96I2OKTLNuYomzb9GYQ2aZ4gNg34YTYuHZo2W3zKNg54fjYZjkw2\r\nf2wUN3Od0TYrN5w2qv+fNtmNlTawHlI20q1xNtWcgzbalsQ2aqh0NqiRqzZJr+Y1tKkfNvwthjbs\r\njso2aMOjNjtLWzaqzNg2QuVVNvmDcTZsOcU2ODthNmCKmjZkwsw2JO2RNrvV7zZ/j5g2X3SCNuWv\r\njDatdLA22aTFNuHopjZGQ1k280BwNm9ZdzZuF3o2uV16NukrgjZ0cmI2oP0yNtheUDbrCZM2IZD3\r\nNcjiiDbmV9M2x6S6NnU/pzZADwg2huV1NusKwzZOBTQ2+FGNNgbaCjZtFJo2oEWzNnsKijZWeO02\r\nGtuJNu8IdjY49Yg2Mr2ANg3ZzjZiM+s2PSKeNoMphDa/F582hoJcNt0QxjZWOKM2KJ8XNqxVQjbY\r\ngaI2GZ6aNs0bpTU+g5g2tEowNtIkZDYOlas2ZR1xNtIkgzZRo4A2kxo0Nq+R7DZCmS43Jnh6NgQS\r\nbDb4RYg2lNw9NuvPkzYiw3I2yo89NhID7TYcIIw26OkjNrMkKzbG26s2fgyyNkykhTarGu41ZVyZ\r\nNs59hja4/3g2DVwlNg8S/DWud6U2N9IvNgCXSjbgmnM2uSBPNn7iXza+E8Q2IrczNgAgGTbUpLw1\r\nmKpzNoJSGzdiAoM2ZpDFNfrlFDY4tAI2RI+mNgX6UTb+VoU2addaNhrNCTZZFHA2uMncNXzMSzbJ\r\nKYk2chpoNlUqsTVQL942eABrNmzNjTZ3X0o2gnWBNn72gTZLTEE2lwQzNgfuCjaKZ0A2Cn+pNqDa\r\nNzbbTXE2Jn7UNu4UKDZVMoQ2j46fNsCxMzbOjB026lnINRYmezYubI02j29ONiv6jzYkvQU24bo/\r\nNlRyPzacL0c24hOWNpYhiDbn4/U1XMKXNjdHgzYwUO01kmwQNsrkGjZWzx02IdkDNtNSCTdR2VE2\r\nthtfNuRpyzaptiM2tEQ0Nkz1XDaF2zA2q9VKNcwlKDW1Wt007vuJNFq4yzRjGzI175BhNbYW/jTC\r\n50I1fp2dNJ2JFzXcfBY1j6wVNck7ADXKUgk1IqzANOh0JjVVrrw0Msw2NZKFGTUaPUI1fBNaNcVN\r\nSTUON7Q0P4fQNFKuFzUxPlU1sICqNGd1ajTm2QI1i7CcNE6RhzRis6A0+Hg7Nbaz2zTd5O41Lo6Q\r\nNCC46jRqY4k02LwPNQsD+zQS2kY1DgsZNQCcHDWKMa00NY4gNbBtFDXqiRc1oiMKNXSGhzRgRxs1\r\nsvCONXglnTQaJsk0VZcVNTwSAjVbovE0HAgiNYYOkDWs+Bk1NoTxNOmQHzWwgbI0cTRKNEIM5zRm\r\n0Eo1Lt3NNDT7uTSlUH81fpTdNNbDuDR5QIA1bivBNDg8tDTqSAw1juzKNPjckTXYQus0QHrGNAe/\r\nzjT+Kxk1k1EENS6XETW7x+g0SgvDNLGCvzSIgvk0RU2fNNSwojQOc7k03IPMNCf6ETV8ef00kiUz\r\nNaCP5DSyjgI1NzurNDzYBDVnrxg1wWfANHpDdjTTMLM0SyeuNCZrpDTpSwg1kQXWNKnmtjTd4L00\r\nCjEvNe+3XjWZAko1Ym35NPTQoTRMXRI1/Kv1NNnw+TREn580ApgENQioMTUc6Qw1wGDtNMWVAjX6\r\nRmI1CN1MNL0nqzQdttc0yKQdNbOO9jSg9bU00Ta0NPpG8jRwfn81zM+VNG1DtzQjBjQ133YnNRiY\r\nzzSD58A0vVEGNeQz7TQc+8c0alDxNOYeqTRZjwM1A1X7NKFF9DRfJtM0Vc0BNUYGIjUIksE0MIwp\r\nNYA4xDQyT2E0+rrONBaUKjWcVbs0lgEXNQhoLjVqYfM0QkIHNXxZBjWjN9A04CoHNf4JgzRmC1I1\r\nHvk2NR48nDSMgG00Zf32NNotNDWhucs0OhP6NCbLvjSa08g0UXkUNWHkGjU2b7M0Jjf1NNWAHTX2\r\nAKk0D22rNDpwCjVAdSE1wIe3NKki1DQ7h1c0c56RNM+EHDWeNvs0MQ70NEBr+DSzItM00gbWNHQw\r\nKDULfMQ0x//kNPxv2TTQtDM1WH4UNV82NTXQGQs1zfzkNE4e5zQRzgg1/pbnNGCS0TTOFd40v6/x\r\nNAS1tjRCvqU0IwneNHHchzWWIeA0UM+4NK8f9TRyIZM0h7UINdtvGDWwIMU0f+g7NQZH3jSvXyg1\r\nQFDUNEfN1zTFaJE0vTVhNZhtEzVsOCo1lI2DNKvBcDU7hyA1G3lgNdKy/jT5BOE0W5yZNMVKxTQt\r\nffo0UfUYNfYY1jRmNic1cjOcNHhM3TQltw01y+wGNdUXAzWjaYQ1EAGsNAMnHTXG2Ok0b2sZNdaU\r\nnTTqTu80BYtpNRavBjXpXoY0gY8TNRz6MzTZ+bU0CwEyNeatmjTYpAw1XQ0NNS4fMDUD3N80w5kB\r\nNbZ+wDSHwM80LsdINflVQTXijxU12ckXNexXHTV3aAk1Y0gINRwPEzWrSkk1gEhcNcKckzRnQdM0\r\nylE8NZTlGjWZRXo1mYPiNKOIGDX9VSk1SDywNE/uAjVE05U0/LpeNYJ8uDT+TwI1K57TNKdFFTVQ\r\nmmw1bxHxNNasyjTwQdg0uDi0NKQl/jRwNLM0eBffNHVFvDRC6IA0QxjQNA8uczQLG6o0fGK7NO7j\r\nmzQBYqc0PLzWNLgI9DTcW6Q0a0AZNYg9STUbsVQ1+5sfNVyxoTRchak0ZlS/NIZF8DQC/LA0KHW2\r\nNAKVBzVhPRg1IxGrNNrwCDVtxBU1lnAcNYeauTTwp/s0RXHANLDJwzTVLtw0yWgLNdyaGTVZOe00\r\nJFcoNZ6B7TQG/MU0+DEUNQFt/DRtlSo14IBuNQxXyzRAZsw0OmxvNepc4TQsbOo0BX5pNeLZFjVa\r\nUP00/NC+NDfFxzSk/Jk0Xv9WNFcJFTUkCfs0nPhONWb3szQLn8U07ItQNLGo0DSMwQE17Z/PNNec\r\n0zRaof0076bINOo8GzXNlYU0hEQkNTyH5jT2YwU1rPNDNQ/OwzRUsuM0rNi/NPhc8DQKmUg1hNDu\r\nNFsmCjUDuzw1VasyNef7cjVSnrA0plT5NKXLhzSFNZ00Ed+nNCFdUDUWMQI1JJnbNNcqvjQMb+40\r\nMCZxNWBYzTTT7DQ1EXZRNffmaTV+3a80W4eUNHE8DjXgGu40gRDrNBPuqjTmEDY1ol3ONJbeJTVU\r\n2RE1pL7HNICD5TRWWw816jZdNU5+4zSdEBA1+UiKNPe7OzXoSB81ciQHNY2hujSihSE1Zmy4NC66\r\njjSDV6M0zDuqNH8orDToE6s0mAmlNNh/LDUtZTA1POHGNHfLdzTbIis17ZIdNZocBDVvRKE0QmwB\r\nNYXQijQkWAs1oC2hNA2Z5TSh2c00fEGaNMT8ujTDZ5w0Y1z7NI2ELjWyxiA1AEAcNQ==",
                            "noiseTrainingType" : "default"
                          }
                        }
                    ],
                    "start" : 5557,
                    "duration" : 150,
                    "mediaStart" : 6756,
                    "mediaDuration" : 144,
                    "scalar" : "25/24",
                    "metadata" : {
                      "WinSubProjectDisplayName" : "",
                      "clipSpeedAttribute" : true
                    },
                    "animationTracks" : {

                    }
                  }
                ]
              },
              {
                "trackIndex" : 10,
                "medias" : [
                  {
                    "id" : 386,
                    "_type" : "AMFile",
                    "src" : 16,
                    "trackNumber" : 0,
                    "attributes" : {
                      "ident" : "旁白_vis2021 2",
                      "sampleRate" : 44100,
                      "bitDepth" : 16,
                      "gain" : 1.0,
                      "mixToMono" : false
                    },
                      "channelNumber" : "0,1",
                    "parameters" : {
                      "volume" : 2.92207792207789
                    },
                    "effects" : [
                        {
                          "effectName" : "NoiseReduction",
                          "parameters" : {
                            "denoiserAmount" : 20.0,
                            "denoiserThreshold" : 0.0,
                            "noiseProfile" : "foEMPUDlVT1tY+k9u1DWPXnaED9OJUQ+utRtPwDJ0j71uOg/LmKbQLvMbEHkZXFDYXNwQhUBTkED\r\ni5ZASlGeQN16DEB2mDxDQC1pQIPF1z+jN8U/NDeVQHSOyUHcsIFDV6QKQpaCPkHwctRBdSIBQuO3\r\nWERxjzJDfvhMQt7shUFDJMRB6+jIQ36kpET8CwdDZnDAQV5480I6RA9DAmHvQtdYEULw7QVBgpIW\r\nQR4ILELztCdC2g8vQ4V9VEJD3Q9CzYeiQS4xnUFYpvZC7vMDRNnfFkNeqOpBsd5tQiAoW0Plb7FD\r\nQR8eRDfuIULo50ZCzZKIQm0FkUIixytCVhkzQUCNBEFisUlAvoWnP/CJjj+2/dc/VnYBQFzpJEBO\r\nR3RA0IG1QI1F5j93Vbg/bokAP2XSdj+MiXFAS6+EPx1+1kBelBtA5T+fP/+9mj85kKU/TCOcPzeM\r\nKD+q0us+3j20P6NCYj/oLNE/GZ98P7s+aD8G1Ck/YAAVPyfgGz8Gygw/BdwXQPMiXUCJR+w/z2Qm\r\nQBRfoT8A7l9AwsgIQfTPP0Dl5UFA9LBaQPCRF0DL6HdAVyImQBMxFUBQKNo/AqfVP54AGz9S3UJA\r\n8DmtQH4fwz8UAR1ASOU3QFYzFEC5+BJA6HqwP7ZmjT+ScShAcobHP2jYrD/gYHdAqV7ZP/1RLT/s\r\nAcs/3u9DP/W4mz+hWBlAnyCrP1Sj+z95T7g/DRuGP/qXuz/kPXs/t0uDP9ZItD+U2rs/nnn4P/7s\r\nA0AHvfM/Q/jSP6PrA0BZoOo/EjkYQDitKkA6ehRAWs3eP35TAkCo7BhAS8JeQOuBJkCM57Q/kWtW\r\nP3fYeT82XQJAewKnP4TRA0BWQQFAJHWcP+0ImD9gaMc/4O71Pzzj4j8g+qI/3UXjPzVJJEAOlQNA\r\nw9b0P6Zggj+8Y0Y/ueTHP7SIfUCBBVpAFtJZQJhLgkBkwB1AJc4pQJktAkEIfZBAtb5DQNmCFED5\r\nApc/eA53P3uFKEDULXQ/AaaDP7QajD/Mxl0/3MqlPxFg0j+uODE/+kiQP3GadT9F+nQ/rauSP7NX\r\nEj+A81w/KP9OP/YsXj+YjeQ+VuaMP3E4Oj95vEA/hC93PypKTD+5aXw/NgFJP4wngj/yAxg/3HcQ\r\nP0SWBD+YHA8/fuCqPjcGnz5Kgvw+QBNbPk1AzD4GC9Q+mQPaPuD90T4VTas+H30pP9bFeT53Kho/\r\nf1s6P30x8T6kH/0/jsRHQM0VDj8GeV4+9GSaPtKkuD5RICw/CpX2Pvalsz7kfxQ/H7zyPpIrLj9u\r\nu0s/B5kWP5hl3T4MnsQ+Mu7rPuzV/j5fi6E+RkftPoZP9z5M3Zw+OqwfP/5HDD9jcuQ+JpAAPzL0\r\nxz419d8+cralPoASuT437yI+UrgbPh6WWD78CDM+5JpJPs2qdD4cLIs+OI1uPrQblj47MbE+Pb+B\r\nPr7I2D6Gk6w+5yLJPjuh1j7p1gA/ZqrxPiqCBj8feQY/hYf9Pk7iGj+Vm1A/ANNgP/6kbz9KyXQ/\r\nx02IP+QGaj9p6o0/kayCPxpRhz/XXok/DaKAP/8scT/9pWE/8WRcP/kbXD8r92E/kKxpPzBxaz9+\r\nMWg/MVpQP6rJWT9q7jk/Ai1EP3rNKj8QSCg/TdMTP+CS/z5+gOA+PP7OPnrOyD43+8w+05rZPleu\r\n3j5K+88+EsjfPrBqwj6GDN8+XyDDPtWy3j7X+NI+febYPjrAyz4vZMM+TxLBPrnhxz6xMNk+Ehj0\r\nPgaTCj9AghY/WbAWP/ZtKD8wYhw/lw80P22mJj+ltjc/ssMzP943Lj81liI/STgbPwYXGD94txk/\r\nx2MgP08mKT9/Nio/KLkqP6Q1GD/vLyE/GI0IP6/sDz96vfo+okbvPu4cyT649Kg+mAuSPhJhgz59\r\nHHc+7L5zPiC+cz58N14+yGkyPnwIND5Wdfo9X94HPqz5sz2/+LU9yL2HPTLcTz12nPw8ONeMPOIe\r\nGTyQAsY7xQvOOxorCDy2ojI8z2n3Ow3JiTuPGMA7+mhzOhA0eTt2X5A58M8CO1KfGzq3UkA6aYhZ\r\nOikFYzk7JlM6tCuBOXOjGjr9YsI5Ai3WORJS8Tn5NtE5fsvlOXFP0TlkXOA5HFzaOe3Gzjla7eE5\r\nWtrbOTDx5DnOxtU57obOOQ7x2jmk1tU5HNvVOcog0zks0985VVrKOfCKyjn5m8w5P/bKOQuZ1TlE\r\nLsU5wf/ROR6p0Dm989M56n3DOXYS0zmpjMQ5PMrEOarJxjmIOc05jk7KOS7ywDkaxr85kSvCOVgj\r\nxzlk2Mg5pBO9OXiFwzlQ/8E5w2KwOfjRyjmGba45S+28Of5CvjkE+r457qjCOXmvtTmso785jhjF\r\nOT9DuTlj7705zIy1OXZCsznsyrg5JI22OSlgrzkE4Lc55tquOciYsjm2X7U5/JKxOfawtzkmiLQ5\r\nAgGwORC6qTlFS645lWCtOdZPpTlcrK85VuCqOWRmrzmklak5Bj6jOem1qTkG3LE5HpqqOWeGpTkj\r\na6g5jJyhOejAsznmw6M5wKWlOWRVnznX3qs5rAaoOXX+nDkAgq453dqiOahxqTkeSKc5zIinORJU\r\nnTlqwaQ5oNyeOdD7ozlUSpc5HsyaOYiIoDkABps5GFqlOe56nDmLtKE5wBqgOeC0mzkClJY54Gma\r\nOaUQlTkipp05EjOWOVJ7ljmg2Jk5k4mOOaavmjkkYJE5IhmVOafhkzl6j5E5L7eLOYMNkTmgJI85\r\nDBuZOchejzkkdJU5TPmUOXPulznqAJQ5GGiXOfODjjlZjpA5KNKTOQDglTmcsIg5FFmROcqYiDlW\r\nNJc5dgaKOQbGgzlgTI85ZHWOOfFVjDlkJ5U5PXyMOe1OhjnnJ4s5//CDOXA4gjnHZY45xBGROQuU\r\nijnkzIw5cGONOWDbfzktMo459BKAOXM0hznQUoo57VGLOeqViDkA84o57YiDOYeDhjlBE4c5aHqD\r\nOTC9iDnaN3c59sh9OZCTejkBE4Q5g/5tOY0VhjnW44A5qnd6ObbfeDn65Xw5C0WAOdzweDl9BoA5\r\nwmaBOR+ldDnieHs5XcSAOXxzdDmZJoQ5qauAOYx4bjn7sno5Io14OcALcjn+YXg5WkppOYFPgDn9\r\n+m85MgtuOUPWXzkueHA5Xlh2OVqAezkgTXU582NrOfksdDncnm85FhpqOepvfzlSQW45GwpZOX4q\r\nczkkznM5KrlqOY0PZjn2uVo5uWR7OSIQaDnyz245C8hxOVynZznmfGU5NJxhOZSqZDnPvVk5+Zpj\r\nOWKiYznKD2g5n912OWCDXjkkAFk59B9dOZKAcTlIGFU5nYpqOa+gVzkcm2c59JZfOW+xZTme7lg5\r\nRUhYOVylYjmi83Q5HGpkORvvTDlu/lc5cbJiOV5cYjnG3lc5M9VKOYG5WDk1e0c57C1SOc2IRjl8\r\nAlg5WGZMOdYwWTlerVE5PitSOWRxWzl3U1s5veJZOZq0UDmQ1E857b5fOWsDWjkydlQ5hDtMOT74\r\nTTnTzkg5pkhQOZI7SDkniU85ck5ZOXMWRjk8/kc5itJWOVgcVDnMDEI5iItJOWuiUjn8SUM5DUZF\r\nOX3hUTlLMlQ50Xs/OUEpSznFUEM5qJ9IORVcQjmyvUk5sMRHOahXRDkCKVA5Aqg8OVnxPjlakz85\r\nhd08OQgWPjlLQUs5UFBMOTOLVTmyrEE5OSk8Ob/ZNTmkQVA57047Oc6RUDkV60w5nZVMOSARSTnS\r\nnD854eZDOXzjQjlOGkQ5gwVAOdJhODnWZis53T9MOWVCRTlbtUk52087OZgkNDmsMkI5i4A+ObZ+\r\nQTkEEjk5rxo2OfIbVzlukjc5jCVEOZYDQjlYYEE5BpVFOaMEPTl64zk5GCIuOUf7Ozms2jg5Ik4+\r\nOZoHKDnIQ0I5wK8xOSThKDmcxi45S2Y8OXnKJzkiFiw5ZEY2ORORMDlBCjU5V7Y5OfmRPznXNjQ5\r\nSsE2OUnNODkC2jU5/Qo1OdLsMTkgiC054vwwOf45PDmTHSw5zrg7OT11PDnQaUA568MyOTpJLjlg\r\nMi45FoU0OTDeNjkzJjU5Vq8nOZ9bIDlv9Sw5NbQ1OX16LTlMOzI5lzw2Oa5jMTkZKSk5xC04OWo9\r\nJzmOEis5+4IoOaxYKDk2ajw5RwIuOT/6KjkUAzE54vlAOVZrJjktHSs5pok0OTs1NTlD4io5644y\r\nOVsaPDmiMzc5F8ErOUvlKzmkTSs5oTwwOVDaNDlicR05UJIwOcMeLTlSajE5ACYwOcbNLDl2OSg5\r\nfBEuOYxmKznyCCM5TLIhOQZbFjlC6TE5MnwgOVqXMjk5wSk5t/YeOVhtLDl/Oy857DkuOZAgMDnt\r\nvyE55ewjOd/xGjk3FC059kAiOaSPIDlWFCE54BAlOSNZFzlKUCE5jwMwObV3LzlWxRE5yzgZOSDH\r\nIjkzui05ADsxOb6VJjmKsDM5lig2OWtDHzlTMig5MKEdOYnRHDm+RCk5kPcfOXczKzk5lyI5RJMm\r\nOUr3HTl0GSs5qbosOfvULzkMiyU5mzclOXCHKDnHRyQ5uQAeOQXNIzlmRy05vjggOd54JjmtuyI5\r\nTBcpOY1JJDkMYTM5jqUoOfarHzn59yg5uRwkOWFYKDlEwBs5RaMZOX/hIzmo7xQ5hrogOZBINTnY\r\n/yQ55lMdOdTIIjk5/iI5s0YeOSOJJDlEnxc5EIEfOWRaJjm/xR85clQROfYLJTluAyA5pukeOW/L\r\nFzmOPRk5xVkOOZxKHTl9lSQ54/cYOVzGFzlvbSM5zaMiOboyGjl1Xh45G+0YOYKoJTn0FRo5X+Qf\r\nOfuMCDlZ3Bs5ZCUYORNUGTmNlSU53FskOSmFFTnCAiA5VYgdOakHDzlEMhY52i4bOdeGGDld+yY5\r\nc7sYOcUoFTllzxw5aVQcOWiMDzn5txc58Q8ROZtFEDmMgAo5mhsbOc7VETkqfhA5ZscmORLTFzld\r\n/g45xR0kOSHzHTlxoxM5JModOarxFTmBqiY5lTQZOShYHzmmhR4533gVOTsAJDk6/iA5v0AYOVR/\r\nGDkxCxw5ITIaOX96FDl4wBY5gVEZOZL5FTnMmhI5pfwaOVq6FDnWXRQ5piYKOW/PJDm/YB85aSYe\r\nOaltHjkkSSM5rgwWObPvEjkqlBo5JLAgOV2DFzl6qg45UHkNOVQ0HzkRchM5WuAeOb/IEDkTnhI5\r\nkLYlOU4WFjkZBhc5jxAhOaUoHzlTPhk5K60ZOUsbGTmbURg5f3ocObAxEDkTfx458d4dOZyqETmW\r\nIxk5Xj8KOWWBGTm/uQU5xfYSOR+aITkvWxQ50icVOfruDjlr8xQ5vW0hOV6+ETmynAk5UaYPOfZ1\r\nCTn2Bhg5POIaOYklFDki9Q45xFwTOZotHTntqxQ5My8WORL5FDlXLxM5O1kLOZKCGTng8RA5QCkZ\r\nOVVtFzmzbRg5QaoMOWLNFjkbOxA5bnQPOaM0FDmigRI5oT4NOeK6HjlnZRY5oRQSOUDEITl+gQw9\r\nQOVVPW1j6T27UNY9edoQP04lRD661G0/AMnSPvW46D8uYptAu8xsQeRlcUNhc3BCFQFOQQOLlkBK\r\nUZ5A3XoMQHaYPENALWlAg8XXP6M3xT80N5VAdI7JQdywgUNXpApCloI+QfBy1EF1IgFC47dYRHGP\r\nMkN++ExC3uyFQUMkxEHr6MhDfqSkRPwLB0NmcMBBXnjzQjpED0MCYe9C11gRQvDtBUGCkhZBHggs\r\nQvO0J0LaDy9DhX1UQkPdD0LNh6JBLjGdQVim9kLu8wNE2d8WQ16o6kGx3m1CIChbQ+VvsUNBHx5E\r\nN+4hQujnRkLNkohCbQWRQiLHK0JWGTNBQI0EQWKxSUC+hac/8ImOP7b91z9WdgFAXOkkQE5HdEDQ\r\ngbVAjUXmP3dVuD9uiQA/ZdJ2P4yJcUBLr4Q/HX7WQOiZG0A+NJ8//72aPzmQpT9MI5w/IHkoP3Dk\r\n6z7ePbQ/o0JiP+gs0T8Zn3w/uz5oPwbUKT9gABU/J+AbPwbKDD8F3BdA8yJdQIlH7D/PZCZAFF+h\r\nPwDuX0DCyAhB9M8/QOXlQUD0sFpA8JEXQMvod0BXIiZAEzEVQFAo2j8Cp9U/ngAbP1LdQkDwOa1A\r\nfh/DPxQBHUBI5TdAVjMUQLn4EkDoerA/tmaNP5JxKEA5k8c/aNisP+Bgd0CpXtk/8jMtP+wByz/e\r\n70M/9bibP6FYGUCfIKs/VKP7P3lPuD8NG4Y/+pe7P+Q9ez+3S4M/1ki0P5Tauz+eefg//uwDQAe9\r\n8z9D+NI/o+sDQFmg6j8SORhAOK0qQDp6FEBazd4/flMCQKjsGEBLwl5A64EmQIzntD+Ra1Y/d9h5\r\nPzZdAkB7Aqc/hNEDQFZBAUAkdZw/7QiYP2Boxz/g7vU/POPiPyD6oj/dReM/NUkkQA6VA0DD1vQ/\r\npmCCP7xjRj+55Mc/tIh9QIEFWkAW0llAmEuCQGTAHUAlzilAmS0CQQh9kEC1vkNA2YIUQPkClz/U\r\nzHY/e4UoQNQtdD8BpoM/tBqMP0vAXT/cyqU/EWDSP2+MMT/6SJA/cZp1P0X6dD+tq5I/s1cSP4Dz\r\nXD8o/04/9ixeP4CS5D5W5ow/cTg6P3m8QD+EL3c/KkpMP7lpfD82AUk/jCeCP/IDGD/cdxA/RJYE\r\nP5gcDz9+4Ko+NwafPkqC/D5AE1s+TUDMPgYL1D6ZA9o+4P3RPhVNqz4ffSk/1sV5PncqGj9/Wzo/\r\nfTHxPqQf/T+OxEdAzRUOPwZ5Xj70ZJo+0qS4PlEgLD8KlfY+9qWzPuR/FD8fvPI+kisuP267Sz8H\r\nmRY/mGXdPgyexD4y7us+7NX+Pl+LoT5GR+0+hk/3PkzdnD46rB8//kcMP2Ny5D4mkAA/MvTHPjX1\r\n3z5ytqU+gBK5PjfvIj5SuBs+HpZYPvwIMz7kmkk+zap0Phwsiz44jW4+tBuWPjsxsT49v4E+vsjY\r\nPoaTrD7nIsk+O6HWPunWAD9mqvE+KoIGPx95Bj+Fh/0+TuIaP5WbUD8A02A//qRvP0rJdD/HTYg/\r\n5AZqP2nqjT+RrII/GlGHP9deiT8NooA//yxxP/2lYT/xZFw/+RtcPyv3YT+QrGk/MHFrP34xaD8x\r\nWlA/qslZP2ruOT8CLUQ/es0qPxBIKD9N0xM/4JL/Pn6A4D48/s4+es7IPjf7zD7Tmtk+V67ePkr7\r\nzz4SyN8+sGrCPoYM3z5fIMM+1bLePtf40j595tg+OsDLPi9kwz5PEsE+ueHHPrEw2T4SGPQ+BpMK\r\nP0CCFj9ZsBY/9m0oPzBiHD+XDzQ/baYmP6W2Nz+ywzM/3jcuPzWWIj9JOBs/BhcYP3i3GT/HYyA/\r\nTyYpP382Kj8ouSo/pDUYP+8vIT8YjQg/r+wPP3q9+j6iRu8+7hzJPrj0qD6YC5I+EmGDPn0cdz7s\r\nvnM+IL5zPnw3Xj7IaTI+fAg0PlZ1+j1f3gc+rPmzPb/4tT3IvYc9MtxPPXac/Dw414w84h4ZPJAC\r\nxjvFC847GisIPLaiMjzPafc7DcmJO48YwDv6aHM6EDR5O3ZfkDnwzwI7Up8bOrdSQDppiFk6KQVj\r\nOTsmUzq0K4E5c6MaOv1iwjkCLdY5ElLxOfk20Tl+y+U5cU/ROWRc4DkcXNo57cbOOVrt4Tla2ts5\r\nMPHkOc7G1Tnuhs45DvHaOaTW1Tkc29U5yiDTOSzT3zlVWso58IrKOfmbzDk/9so5C5nVOUQuxTnB\r\n/9E5HqnQOb3z0znqfcM5dhLTOamMxDk8ysQ5qsnGOYg5zTmOTso5LvLAORrGvzmRK8I5WCPHOWTY\r\nyDmkE705eIXDOVD/wTnDYrA5+NHKOYZtrjlL7bw5/kK+OQT6vjnuqMI5ea+1OayjvzmOGMU5P0O5\r\nOWPvvTnMjLU5dkKzOezKuDkkjbY5KWCvOQTgtznm2q45yJiyObZftTn8krE59rC3OSaItDkCAbA5\r\nELqpOUVLrjmVYK051k+lOVysrzlW4Ko5ZGavOaSVqTkGPqM56bWpOQbcsTkemqo5Z4alOSNrqDmM\r\nnKE56MCzOebDoznApaU5ZFWfOdfeqzmsBqg5df6cOQCCrjnd2qI5qHGpOR5IpznMiKc5ElSdOWrB\r\npDmg3J450PujOVRKlzkezJo5iIigOQAGmzkYWqU57nqcOYu0oTnAGqA54LSbOQKUljngaZo5pRCV\r\nOSKmnTkSM5Y5UnuWOaDYmTmTiY45pq+aOSRgkTkiGZU5p+GTOXqPkTkvt4s5gw2ROaAkjzkMG5k5\r\nyF6POSR0lTlM+ZQ5c+6XOeoAlDkYaJc584OOOVmOkDko0pM5AOCVOZywiDkUWZE5ypiIOVY0lzl2\r\nBoo5BsaDOWBMjzlkdY458VWMOWQnlTk9fIw57U6GOecnizn/8IM5cDiCOcdljjnEEZE5C5SKOeTM\r\njDlwY405YNt/OS0yjjn0EoA5czSHOdBSijntUYs56pWIOQDzijntiIM5h4OGOUEThzloeoM5ML2I\r\nOdo3dzn2yH05kJN6OQEThDmD/m05jRWGOdbjgDmqd3o5tt94OfrlfDkLRYA53PB4OX0GgDnCZoE5\r\nH6V0OeJ4ezldxIA5fHN0OZkmhDmpq4A5jHhuOfuyejkijXg5wAtyOf5heDlaSmk5gU+AOf36bzky\r\nC245Q9ZfOS54cDleWHY5WoB7OSBNdTnzY2s5+Sx0OdyebzkWGmo56m9/OVJBbjkbClk5fipzOSTO\r\nczkquWo5jQ9mOfa5Wjm5ZHs5IhBoOfLPbjkLyHE5XKdnOeZ8ZTk0nGE5lKpkOc+9WTn5mmM5YqJj\r\nOcoPaDmf3XY5YINeOSQAWTn0H105koBxOUgYVTmdimo5r6BXORybZzn0ll85b7FlOZ7uWDlFSFg5\r\nXKViOaLzdDkcamQ5G+9MOW7+VzlxsmI5XlxiOcbeVzkz1Uo5gblYOTV7RznsLVI5zYhGOXwCWDlY\r\nZkw51jBZOV6tUTk+K1I5ZHFbOXdTWzm94lk5mrRQOZDUTzntvl85awNaOTJ2VDmEO0w5PvhNOdPO\r\nSDmmSFA5kjtIOSeJTzlyTlk5cxZGOTz+RzmK0lY5WBxUOcwMQjmIi0k5a6JSOfxJQzkNRkU5feFR\r\nOUsyVDnRez85QSlLOcVQQzmon0g5FVxCObK9STmwxEc5qFdEOQIpUDkCqDw5WfE+OVqTPzmF3Tw5\r\nCBY+OUtBSzlQUEw5M4tVObKsQTk5KTw5v9k1OaRBUDnvTjs5zpFQORXrTDmdlUw5IBFJOdKcPznh\r\n5kM5fONCOU4aRDmDBUA50mE4OdZmKzndP0w5ZUJFOVu1STnbTzs5mCQ0OawyQjmLgD45tn5BOQQS\r\nOTmvGjY58htXOW6SNzmMJUQ5lgNCOVhgQTkGlUU5owQ9OXrjOTkYIi45R/s7OazaODkiTj45mgco\r\nOchDQjnArzE5JOEoOZzGLjlLZjw5econOSIWLDlkRjY5E5EwOUEKNTlXtjk5+ZE/Odc2NDlKwTY5\r\nSc04OQLaNTn9CjU50uwxOSCILTni/DA5/jk8OZMdLDnOuDs5PXU8OdBpQDnrwzI5OkkuOWAyLjkW\r\nhTQ5MN42OTMmNTlWryc5n1sgOW/1LDk1tDU5fXotOUw7MjmXPDY5rmMxORkpKTnELTg5aj0nOY4S\r\nKzn7gig5rFgoOTZqPDlHAi45P/oqORQDMTni+UA5VmsmOS0dKzmmiTQ5OzU1OUPiKjnrjjI5Wxo8\r\nOaIzNzkXwSs5S+UrOaRNKzmhPDA5UNo0OWJxHTlQkjA5wx4tOVJqMTkAJjA5xs0sOXY5KDl8ES45\r\njGYrOfIIIzlMsiE5BlsWOULpMTkyfCA5WpcyOTnBKTm39h45WG0sOX87LznsOS45kCAwOe2/ITnl\r\n7CM53/EaOTcULTn2QCI5pI8gOVYUITngECU5I1kXOUpQITmPAzA5tXcvOVbFETnLOBk5IMciOTO6\r\nLTkAOzE5vpUmOYqwMzmWKDY5a0MfOVMyKDkwoR05idEcOb5EKTmQ9x85dzMrOTmXIjlEkyY5Svcd\r\nOXQZKzmpuiw5+9QvOQyLJTmbNyU5cIcoOcdHJDm5AB45Bc0jOWZHLTm+OCA53ngmOa27IjlMFyk5\r\njUkkOQxhMzmOpSg59qsfOfn3KDm5HCQ5YVgoOUTAGzlFoxk5f+EjOajvFDmGuiA5kEg1Odj/JDnm\r\nUx051MgiOTn+IjmzRh45I4kkOUSfFzkQgR85ZFomOb/FHzlyVBE59gslOW4DIDmm6R45b8sXOY49\r\nGTnFWQ45nEodOX2VJDnj9xg5XMYXOW9tIznNoyI5ujIaOXVeHjkb7Rg5gqglOfQVGjlf5B85+4wI\r\nOVncGzlkJRg5E1QZOY2VJTncWyQ5KYUVOcICIDlViB05qQcPOUQyFjnaLhs514YYOV37Jjlzuxg5\r\nxSgVOWXPHDlpVBw5aIwPOfm3FznxDxE5m0UQOYyACjmaGxs5ztUROSp+EDlmxyY5EtMXOV3+DjnF\r\nHSQ5IfMdOXGjEzkkyh05qvEVOYGqJjmVNBk5KFgfOaaFHjnfeBU5OwAkOTr+IDm/QBg5VH8YOTEL\r\nHDkhMho5f3oUOXjAFjmBURk5kvkVOcyaEjml/Bo5WroUOdZdFDmmJgo5b88kOb9gHzlpJh45qW0e\r\nOSRJIzmuDBY5s+8SOSqUGjkksCA5XYMXOXqqDjlQeQ05VDQfORFyEzla4B45v8gQOROeEjmQtiU5\r\nThYWORkGFzmPECE5pSgfOVM+GTkrrRk5SxsZOZtRGDl/ehw5sDEQORN/Hjnx3h05nKoROZYjGTle\r\nPwo5ZYEZOb+5BTnF9hI5H5ohOS9bFDnSJxU5+u4OOWvzFDm9bSE5Xr4RObKcCTlRpg859nUJOfYG\r\nGDk84ho5iSUUOSL1DjnEXBM5mi0dOe2rFDkzLxY5EvkUOVcvEzk7WQs5koIZOeDxEDlAKRk5VW0X\r\nObNtGDlBqgw5Ys0WORs7EDludA85ozQUOaKBEjmhPg054roeOWdlFjmhFBI5QMQhOQ==",
                            "noiseTrainingType" : "default"
                          }
                        }
                    ],
                    "start" : 300,
                    "duration" : 176,
                    "mediaStart" : "2745/191",
                    "mediaDuration" : "32208/191",
                    "scalar" : "191/183",
                    "metadata" : {
                      "WinSubProjectDisplayName" : "",
                      "clipSpeedAttribute" : true
                    },
                    "animationTracks" : {

                    }
                  }
                ]
              },
              {
                "trackIndex" : 11,
                "medias" : [
                ]
              },
              {
                "trackIndex" : 12,
                "medias" : [
                ]
              },
              {
                "trackIndex" : 13,
                "medias" : [
                ]
              },
              {
                "trackIndex" : 14,
                "medias" : [
                ]
              },
              {
                "trackIndex" : 15,
                "medias" : [
                ]
              },
              {
                "trackIndex" : 16,
                "medias" : [
                ]
              },
              {
                "trackIndex" : 17,
                "medias" : [
                ]
              }
            ]
          }
        }
      ]
    },
    "trackAttributes" : [
      {
        "ident" : "",
        "audioMuted" : false,
        "videoHidden" : false,
        "metadata" : {
          "IsLocked" : "False",
          "WinTrackHeight" : "56"
        }
      },
      {
        "ident" : "",
        "audioMuted" : false,
        "videoHidden" : false,
        "metadata" : {
          "IsLocked" : "False",
          "WinTrackHeight" : "56"
        }
      },
      {
        "ident" : "",
        "audioMuted" : false,
        "videoHidden" : false,
        "metadata" : {
          "IsLocked" : "False",
          "WinTrackHeight" : "56"
        }
      },
      {
        "ident" : "",
        "audioMuted" : false,
        "videoHidden" : false,
        "metadata" : {
          "IsLocked" : "False",
          "WinTrackHeight" : "56"
        }
      },
      {
        "ident" : "",
        "audioMuted" : false,
        "videoHidden" : false,
        "metadata" : {
          "IsLocked" : "False",
          "WinTrackHeight" : "56"
        }
      },
      {
        "ident" : "",
        "audioMuted" : false,
        "videoHidden" : false,
        "metadata" : {
          "IsLocked" : "False",
          "WinTrackHeight" : "56"
        }
      },
      {
        "ident" : "",
        "audioMuted" : false,
        "videoHidden" : false,
        "metadata" : {
          "IsLocked" : "False",
          "WinTrackHeight" : "56"
        }
      },
      {
        "ident" : "",
        "audioMuted" : false,
        "videoHidden" : false,
        "metadata" : {
          "IsLocked" : "False",
          "WinTrackHeight" : "56"
        }
      },
      {
        "ident" : "",
        "audioMuted" : false,
        "videoHidden" : false,
        "metadata" : {
          "IsLocked" : "False",
          "WinTrackHeight" : "56"
        }
      },
      {
        "ident" : "",
        "audioMuted" : false,
        "videoHidden" : false,
        "metadata" : {
          "IsLocked" : "False",
          "WinTrackHeight" : "56"
        }
      },
      {
        "ident" : "",
        "audioMuted" : false,
        "videoHidden" : false,
        "metadata" : {
          "IsLocked" : "False",
          "WinTrackHeight" : "56"
        }
      },
      {
        "ident" : "",
        "audioMuted" : false,
        "videoHidden" : false,
        "metadata" : {
          "IsLocked" : "False",
          "WinTrackHeight" : "56"
        }
      },
      {
        "ident" : "",
        "audioMuted" : false,
        "videoHidden" : false,
        "metadata" : {
          "IsLocked" : "False",
          "WinTrackHeight" : "56"
        }
      },
      {
        "ident" : "",
        "audioMuted" : false,
        "videoHidden" : false,
        "metadata" : {
          "IsLocked" : "False",
          "WinTrackHeight" : "56"
        }
      },
      {
        "ident" : "",
        "audioMuted" : false,
        "videoHidden" : false,
        "metadata" : {
          "IsLocked" : "False",
          "WinTrackHeight" : "56"
        }
      },
      {
        "ident" : "",
        "audioMuted" : false,
        "videoHidden" : false,
        "metadata" : {
          "IsLocked" : "False",
          "WinTrackHeight" : "56"
        }
      },
      {
        "ident" : "",
        "audioMuted" : false,
        "videoHidden" : false,
        "metadata" : {
          "IsLocked" : "False",
          "WinTrackHeight" : "56"
        }
      },
      {
        "ident" : "",
        "audioMuted" : false,
        "videoHidden" : false,
        "metadata" : {
          "IsLocked" : "False",
          "WinTrackHeight" : "56"
        }
      }
    ],
    "captionAttributes" : {
      "enabled" : true,
      "fontName" : "Arial",
      "fontSize" : 64,
      "backgroundColor" : [ 0, 0, 0, 191],
      "foregroundColor" : [ 255, 255, 255, 255],
      "lang" : "en",
      "alignment" : 0,
      "defaultFontSize" : true,
      "opacity" : 0.5,
      "backgroundEnabled" : true,
      "backgroundOnlyAroundText" : true
    },
    "backgroundColor" : [ 0, 0, 0, 255]
  },
  "metadata" : {
    "AutoSaveFile" : "C:\\Users\\lenovo\\AppData\\Local\\TechSmith\\Camtasia Studio\\9.0\\Auto-Saves\\vis202127ce440.autosave.tscproj",
    "CanvasZoom" : 50,
    "Date" : "2021-03-31 03:38:39 下午",
    "Fit" : 0,
    "IsAutoSave" : "0",
    "Language" : "ENU",
    "ProfileName" : "仅 MP4 (最大 1080p)",
    "ProjectDimensionsChanged" : "1",
    "Title" : "vis2021",
    "audioNarrationNotes" : "",
    "calloutStyle" : "All",
    "canvasDetached" : "False",
    "canvasPositionHeight" : "0",
    "canvasPositionLeft" : "0",
    "canvasPositionTop" : "0",
    "canvasPositionWidth" : "0"
  }
}
